ISO-10303-21;
HEADER;
FILE_DESCRIPTION(('Simplified SOT89-5 envelope'),'2;1');
FILE_NAME('SOT-89-5-envelope.step','2026-09-06T00:00:00',('Rev B project'),('HAW project'),'','','');
FILE_SCHEMA(('AUTOMOTIVE_DESIGN'));
ENDSEC;
DATA;
#1 = APPLICATION_CONTEXT('configuration controlled 3d designs of mechanical parts and assemblies');
#2 = PRODUCT_CONTEXT('',#1,'mechanical');
#3 = PRODUCT('SOT-89-5 envelope','SOT-89-5 envelope','Simplified rectangular model; not for mechanical release',(#2));
#4 = PRODUCT_DEFINITION_FORMATION('','',#3);
#5 = PRODUCT_DEFINITION_CONTEXT('part definition',#1,'design');
#6 = PRODUCT_DEFINITION('design','',#4,#5);
#7 = PRODUCT_DEFINITION_SHAPE('','',#6);
#8 = (LENGTH_UNIT() NAMED_UNIT(*) SI_UNIT(.MILLI.,.METRE.));
#9 = (NAMED_UNIT(*) PLANE_ANGLE_UNIT() SI_UNIT($,.RADIAN.));
#10 = (NAMED_UNIT(*) SI_UNIT($,.STERADIAN.) SOLID_ANGLE_UNIT());
#11 = UNCERTAINTY_MEASURE_WITH_UNIT(LENGTH_MEASURE(1.E-06),#8,'distance_accuracy_value','');
#12 = (GEOMETRIC_REPRESENTATION_CONTEXT(3) GLOBAL_UNCERTAINTY_ASSIGNED_CONTEXT((#11)) GLOBAL_UNIT_ASSIGNED_CONTEXT((#8,#9,#10)) REPRESENTATION_CONTEXT('','3D'));
#13 = CARTESIAN_POINT('',(-1.25000,-2.25000,0.18000));
#14 = CARTESIAN_POINT('',(1.25000,-2.25000,0.18000));
#15 = CARTESIAN_POINT('',(1.25000,2.25000,0.18000));
#16 = CARTESIAN_POINT('',(-1.25000,2.25000,0.18000));
#17 = CARTESIAN_POINT('',(-1.25000,-2.25000,1.60000));
#18 = CARTESIAN_POINT('',(1.25000,-2.25000,1.60000));
#19 = CARTESIAN_POINT('',(1.25000,2.25000,1.60000));
#20 = CARTESIAN_POINT('',(-1.25000,2.25000,1.60000));
#21 = VERTEX_POINT('',#13);
#22 = VERTEX_POINT('',#14);
#23 = VERTEX_POINT('',#15);
#24 = VERTEX_POINT('',#16);
#25 = VERTEX_POINT('',#17);
#26 = VERTEX_POINT('',#18);
#27 = VERTEX_POINT('',#19);
#28 = VERTEX_POINT('',#20);
#29 = DIRECTION('',(1.0,0.0,0.0));
#30 = VECTOR('',#29,2.5);
#31 = LINE('',#16,#30);
#32 = EDGE_CURVE('',#24,#23,#31,.T.);
#33 = ORIENTED_EDGE('',*,*,#32,.T.);
#34 = DIRECTION('',(0.0,-1.0,0.0));
#35 = VECTOR('',#34,4.5);
#36 = LINE('',#15,#35);
#37 = EDGE_CURVE('',#23,#22,#36,.T.);
#38 = ORIENTED_EDGE('',*,*,#37,.T.);
#39 = DIRECTION('',(-1.0,0.0,0.0));
#40 = VECTOR('',#39,2.5);
#41 = LINE('',#14,#40);
#42 = EDGE_CURVE('',#22,#21,#41,.T.);
#43 = ORIENTED_EDGE('',*,*,#42,.T.);
#44 = DIRECTION('',(0.0,1.0,0.0));
#45 = VECTOR('',#44,4.5);
#46 = LINE('',#13,#45);
#47 = EDGE_CURVE('',#21,#24,#46,.T.);
#48 = ORIENTED_EDGE('',*,*,#47,.T.);
#49 = EDGE_LOOP('',(#33,#38,#43,#48));
#50 = FACE_OUTER_BOUND('',#49,.T.);
#51 = DIRECTION('',(0.0,0.0,-1.0));
#52 = DIRECTION('',(1.0,0.0,0.0));
#53 = AXIS2_PLACEMENT_3D('',#16,#51,#52);
#54 = PLANE('',#53);
#55 = ADVANCED_FACE('',(#50),#54,.T.);
#56 = ORIENTED_EDGE('',*,*,#42,.F.);
#57 = DIRECTION('',(0.0,0.0,1.0));
#58 = VECTOR('',#57,1.4200000000000002);
#59 = LINE('',#14,#58);
#60 = EDGE_CURVE('',#22,#26,#59,.T.);
#61 = ORIENTED_EDGE('',*,*,#60,.T.);
#62 = DIRECTION('',(-1.0,0.0,0.0));
#63 = VECTOR('',#62,2.5);
#64 = LINE('',#18,#63);
#65 = EDGE_CURVE('',#26,#25,#64,.T.);
#66 = ORIENTED_EDGE('',*,*,#65,.T.);
#67 = DIRECTION('',(0.0,0.0,-1.0));
#68 = VECTOR('',#67,1.4200000000000002);
#69 = LINE('',#17,#68);
#70 = EDGE_CURVE('',#25,#21,#69,.T.);
#71 = ORIENTED_EDGE('',*,*,#70,.T.);
#72 = EDGE_LOOP('',(#56,#61,#66,#71));
#73 = FACE_OUTER_BOUND('',#72,.T.);
#74 = DIRECTION('',(0.0,-1.0,0.0));
#75 = DIRECTION('',(1.0,0.0,0.0));
#76 = AXIS2_PLACEMENT_3D('',#13,#74,#75);
#77 = PLANE('',#76);
#78 = ADVANCED_FACE('',(#73),#77,.T.);
#79 = ORIENTED_EDGE('',*,*,#37,.F.);
#80 = DIRECTION('',(0.0,0.0,1.0));
#81 = VECTOR('',#80,1.4200000000000002);
#82 = LINE('',#15,#81);
#83 = EDGE_CURVE('',#23,#27,#82,.T.);
#84 = ORIENTED_EDGE('',*,*,#83,.T.);
#85 = DIRECTION('',(0.0,-1.0,0.0));
#86 = VECTOR('',#85,4.5);
#87 = LINE('',#19,#86);
#88 = EDGE_CURVE('',#27,#26,#87,.T.);
#89 = ORIENTED_EDGE('',*,*,#88,.T.);
#90 = ORIENTED_EDGE('',*,*,#60,.F.);
#91 = EDGE_LOOP('',(#79,#84,#89,#90));
#92 = FACE_OUTER_BOUND('',#91,.T.);
#93 = DIRECTION('',(1.0,0.0,0.0));
#94 = DIRECTION('',(0.0,1.0,0.0));
#95 = AXIS2_PLACEMENT_3D('',#14,#93,#94);
#96 = PLANE('',#95);
#97 = ADVANCED_FACE('',(#92),#96,.T.);
#98 = ORIENTED_EDGE('',*,*,#32,.F.);
#99 = DIRECTION('',(0.0,0.0,1.0));
#100 = VECTOR('',#99,1.4200000000000002);
#101 = LINE('',#16,#100);
#102 = EDGE_CURVE('',#24,#28,#101,.T.);
#103 = ORIENTED_EDGE('',*,*,#102,.T.);
#104 = DIRECTION('',(1.0,0.0,0.0));
#105 = VECTOR('',#104,2.5);
#106 = LINE('',#20,#105);
#107 = EDGE_CURVE('',#28,#27,#106,.T.);
#108 = ORIENTED_EDGE('',*,*,#107,.T.);
#109 = ORIENTED_EDGE('',*,*,#83,.F.);
#110 = EDGE_LOOP('',(#98,#103,#108,#109));
#111 = FACE_OUTER_BOUND('',#110,.T.);
#112 = DIRECTION('',(0.0,1.0,0.0));
#113 = DIRECTION('',(-1.0,0.0,0.0));
#114 = AXIS2_PLACEMENT_3D('',#15,#112,#113);
#115 = PLANE('',#114);
#116 = ADVANCED_FACE('',(#111),#115,.T.);
#117 = ORIENTED_EDGE('',*,*,#47,.F.);
#118 = ORIENTED_EDGE('',*,*,#70,.F.);
#119 = DIRECTION('',(0.0,1.0,0.0));
#120 = VECTOR('',#119,4.5);
#121 = LINE('',#17,#120);
#122 = EDGE_CURVE('',#25,#28,#121,.T.);
#123 = ORIENTED_EDGE('',*,*,#122,.T.);
#124 = ORIENTED_EDGE('',*,*,#102,.F.);
#125 = EDGE_LOOP('',(#117,#118,#123,#124));
#126 = FACE_OUTER_BOUND('',#125,.T.);
#127 = DIRECTION('',(-1.0,0.0,0.0));
#128 = DIRECTION('',(0.0,-1.0,0.0));
#129 = AXIS2_PLACEMENT_3D('',#16,#127,#128);
#130 = PLANE('',#129);
#131 = ADVANCED_FACE('',(#126),#130,.T.);
#132 = ORIENTED_EDGE('',*,*,#65,.F.);
#133 = ORIENTED_EDGE('',*,*,#88,.F.);
#134 = ORIENTED_EDGE('',*,*,#107,.F.);
#135 = ORIENTED_EDGE('',*,*,#122,.F.);
#136 = EDGE_LOOP('',(#132,#133,#134,#135));
#137 = FACE_OUTER_BOUND('',#136,.T.);
#138 = DIRECTION('',(0.0,0.0,1.0));
#139 = DIRECTION('',(1.0,0.0,0.0));
#140 = AXIS2_PLACEMENT_3D('',#17,#138,#139);
#141 = PLANE('',#140);
#142 = ADVANCED_FACE('',(#137),#141,.T.);
#143 = CLOSED_SHELL('',(#55,#78,#97,#116,#131,#142));
#144 = MANIFOLD_SOLID_BREP('body',#143);
#145 = COLOUR_RGB('',0.12,0.12,0.12);
#146 = FILL_AREA_STYLE_COLOUR('',#145);
#147 = FILL_AREA_STYLE('',(#146));
#148 = SURFACE_STYLE_FILL_AREA(#147);
#149 = SURFACE_SIDE_STYLE('',(#148));
#150 = SURFACE_STYLE_USAGE(.BOTH.,#149);
#151 = PRESENTATION_STYLE_ASSIGNMENT((#150));
#152 = STYLED_ITEM('',(#151),#144);
#153 = CARTESIAN_POINT('',(-2.25000,-1.72000,0.02000));
#154 = CARTESIAN_POINT('',(-1.10000,-1.72000,0.02000));
#155 = CARTESIAN_POINT('',(-1.10000,-1.28000,0.02000));
#156 = CARTESIAN_POINT('',(-2.25000,-1.28000,0.02000));
#157 = CARTESIAN_POINT('',(-2.25000,-1.72000,0.18000));
#158 = CARTESIAN_POINT('',(-1.10000,-1.72000,0.18000));
#159 = CARTESIAN_POINT('',(-1.10000,-1.28000,0.18000));
#160 = CARTESIAN_POINT('',(-2.25000,-1.28000,0.18000));
#161 = VERTEX_POINT('',#153);
#162 = VERTEX_POINT('',#154);
#163 = VERTEX_POINT('',#155);
#164 = VERTEX_POINT('',#156);
#165 = VERTEX_POINT('',#157);
#166 = VERTEX_POINT('',#158);
#167 = VERTEX_POINT('',#159);
#168 = VERTEX_POINT('',#160);
#169 = DIRECTION('',(1.0,0.0,0.0));
#170 = VECTOR('',#169,1.15);
#171 = LINE('',#156,#170);
#172 = EDGE_CURVE('',#164,#163,#171,.T.);
#173 = ORIENTED_EDGE('',*,*,#172,.T.);
#174 = DIRECTION('',(0.0,-1.0,0.0));
#175 = VECTOR('',#174,0.43999999999999995);
#176 = LINE('',#155,#175);
#177 = EDGE_CURVE('',#163,#162,#176,.T.);
#178 = ORIENTED_EDGE('',*,*,#177,.T.);
#179 = DIRECTION('',(-1.0,0.0,0.0));
#180 = VECTOR('',#179,1.15);
#181 = LINE('',#154,#180);
#182 = EDGE_CURVE('',#162,#161,#181,.T.);
#183 = ORIENTED_EDGE('',*,*,#182,.T.);
#184 = DIRECTION('',(0.0,1.0,0.0));
#185 = VECTOR('',#184,0.43999999999999995);
#186 = LINE('',#153,#185);
#187 = EDGE_CURVE('',#161,#164,#186,.T.);
#188 = ORIENTED_EDGE('',*,*,#187,.T.);
#189 = EDGE_LOOP('',(#173,#178,#183,#188));
#190 = FACE_OUTER_BOUND('',#189,.T.);
#191 = DIRECTION('',(0.0,0.0,-1.0));
#192 = DIRECTION('',(1.0,0.0,0.0));
#193 = AXIS2_PLACEMENT_3D('',#156,#191,#192);
#194 = PLANE('',#193);
#195 = ADVANCED_FACE('',(#190),#194,.T.);
#196 = ORIENTED_EDGE('',*,*,#182,.F.);
#197 = DIRECTION('',(0.0,0.0,1.0));
#198 = VECTOR('',#197,0.16);
#199 = LINE('',#154,#198);
#200 = EDGE_CURVE('',#162,#166,#199,.T.);
#201 = ORIENTED_EDGE('',*,*,#200,.T.);
#202 = DIRECTION('',(-1.0,0.0,0.0));
#203 = VECTOR('',#202,1.15);
#204 = LINE('',#158,#203);
#205 = EDGE_CURVE('',#166,#165,#204,.T.);
#206 = ORIENTED_EDGE('',*,*,#205,.T.);
#207 = DIRECTION('',(0.0,0.0,-1.0));
#208 = VECTOR('',#207,0.16);
#209 = LINE('',#157,#208);
#210 = EDGE_CURVE('',#165,#161,#209,.T.);
#211 = ORIENTED_EDGE('',*,*,#210,.T.);
#212 = EDGE_LOOP('',(#196,#201,#206,#211));
#213 = FACE_OUTER_BOUND('',#212,.T.);
#214 = DIRECTION('',(0.0,-1.0,0.0));
#215 = DIRECTION('',(1.0,0.0,0.0));
#216 = AXIS2_PLACEMENT_3D('',#153,#214,#215);
#217 = PLANE('',#216);
#218 = ADVANCED_FACE('',(#213),#217,.T.);
#219 = ORIENTED_EDGE('',*,*,#177,.F.);
#220 = DIRECTION('',(0.0,0.0,1.0));
#221 = VECTOR('',#220,0.16);
#222 = LINE('',#155,#221);
#223 = EDGE_CURVE('',#163,#167,#222,.T.);
#224 = ORIENTED_EDGE('',*,*,#223,.T.);
#225 = DIRECTION('',(0.0,-1.0,0.0));
#226 = VECTOR('',#225,0.43999999999999995);
#227 = LINE('',#159,#226);
#228 = EDGE_CURVE('',#167,#166,#227,.T.);
#229 = ORIENTED_EDGE('',*,*,#228,.T.);
#230 = ORIENTED_EDGE('',*,*,#200,.F.);
#231 = EDGE_LOOP('',(#219,#224,#229,#230));
#232 = FACE_OUTER_BOUND('',#231,.T.);
#233 = DIRECTION('',(1.0,0.0,0.0));
#234 = DIRECTION('',(0.0,1.0,0.0));
#235 = AXIS2_PLACEMENT_3D('',#154,#233,#234);
#236 = PLANE('',#235);
#237 = ADVANCED_FACE('',(#232),#236,.T.);
#238 = ORIENTED_EDGE('',*,*,#172,.F.);
#239 = DIRECTION('',(0.0,0.0,1.0));
#240 = VECTOR('',#239,0.16);
#241 = LINE('',#156,#240);
#242 = EDGE_CURVE('',#164,#168,#241,.T.);
#243 = ORIENTED_EDGE('',*,*,#242,.T.);
#244 = DIRECTION('',(1.0,0.0,0.0));
#245 = VECTOR('',#244,1.15);
#246 = LINE('',#160,#245);
#247 = EDGE_CURVE('',#168,#167,#246,.T.);
#248 = ORIENTED_EDGE('',*,*,#247,.T.);
#249 = ORIENTED_EDGE('',*,*,#223,.F.);
#250 = EDGE_LOOP('',(#238,#243,#248,#249));
#251 = FACE_OUTER_BOUND('',#250,.T.);
#252 = DIRECTION('',(0.0,1.0,0.0));
#253 = DIRECTION('',(-1.0,0.0,0.0));
#254 = AXIS2_PLACEMENT_3D('',#155,#252,#253);
#255 = PLANE('',#254);
#256 = ADVANCED_FACE('',(#251),#255,.T.);
#257 = ORIENTED_EDGE('',*,*,#187,.F.);
#258 = ORIENTED_EDGE('',*,*,#210,.F.);
#259 = DIRECTION('',(0.0,1.0,0.0));
#260 = VECTOR('',#259,0.43999999999999995);
#261 = LINE('',#157,#260);
#262 = EDGE_CURVE('',#165,#168,#261,.T.);
#263 = ORIENTED_EDGE('',*,*,#262,.T.);
#264 = ORIENTED_EDGE('',*,*,#242,.F.);
#265 = EDGE_LOOP('',(#257,#258,#263,#264));
#266 = FACE_OUTER_BOUND('',#265,.T.);
#267 = DIRECTION('',(-1.0,0.0,0.0));
#268 = DIRECTION('',(0.0,-1.0,0.0));
#269 = AXIS2_PLACEMENT_3D('',#156,#267,#268);
#270 = PLANE('',#269);
#271 = ADVANCED_FACE('',(#266),#270,.T.);
#272 = ORIENTED_EDGE('',*,*,#205,.F.);
#273 = ORIENTED_EDGE('',*,*,#228,.F.);
#274 = ORIENTED_EDGE('',*,*,#247,.F.);
#275 = ORIENTED_EDGE('',*,*,#262,.F.);
#276 = EDGE_LOOP('',(#272,#273,#274,#275));
#277 = FACE_OUTER_BOUND('',#276,.T.);
#278 = DIRECTION('',(0.0,0.0,1.0));
#279 = DIRECTION('',(1.0,0.0,0.0));
#280 = AXIS2_PLACEMENT_3D('',#157,#278,#279);
#281 = PLANE('',#280);
#282 = ADVANCED_FACE('',(#277),#281,.T.);
#283 = CLOSED_SHELL('',(#195,#218,#237,#256,#271,#282));
#284 = MANIFOLD_SOLID_BREP('lead',#283);
#285 = COLOUR_RGB('',0.7,0.7,0.72);
#286 = FILL_AREA_STYLE_COLOUR('',#285);
#287 = FILL_AREA_STYLE('',(#286));
#288 = SURFACE_STYLE_FILL_AREA(#287);
#289 = SURFACE_SIDE_STYLE('',(#288));
#290 = SURFACE_STYLE_USAGE(.BOTH.,#289);
#291 = PRESENTATION_STYLE_ASSIGNMENT((#290));
#292 = STYLED_ITEM('',(#291),#284);
#293 = CARTESIAN_POINT('',(-2.25000,1.28000,0.02000));
#294 = CARTESIAN_POINT('',(-1.10000,1.28000,0.02000));
#295 = CARTESIAN_POINT('',(-1.10000,1.72000,0.02000));
#296 = CARTESIAN_POINT('',(-2.25000,1.72000,0.02000));
#297 = CARTESIAN_POINT('',(-2.25000,1.28000,0.18000));
#298 = CARTESIAN_POINT('',(-1.10000,1.28000,0.18000));
#299 = CARTESIAN_POINT('',(-1.10000,1.72000,0.18000));
#300 = CARTESIAN_POINT('',(-2.25000,1.72000,0.18000));
#301 = VERTEX_POINT('',#293);
#302 = VERTEX_POINT('',#294);
#303 = VERTEX_POINT('',#295);
#304 = VERTEX_POINT('',#296);
#305 = VERTEX_POINT('',#297);
#306 = VERTEX_POINT('',#298);
#307 = VERTEX_POINT('',#299);
#308 = VERTEX_POINT('',#300);
#309 = DIRECTION('',(1.0,0.0,0.0));
#310 = VECTOR('',#309,1.15);
#311 = LINE('',#296,#310);
#312 = EDGE_CURVE('',#304,#303,#311,.T.);
#313 = ORIENTED_EDGE('',*,*,#312,.T.);
#314 = DIRECTION('',(0.0,-1.0,0.0));
#315 = VECTOR('',#314,0.43999999999999995);
#316 = LINE('',#295,#315);
#317 = EDGE_CURVE('',#303,#302,#316,.T.);
#318 = ORIENTED_EDGE('',*,*,#317,.T.);
#319 = DIRECTION('',(-1.0,0.0,0.0));
#320 = VECTOR('',#319,1.15);
#321 = LINE('',#294,#320);
#322 = EDGE_CURVE('',#302,#301,#321,.T.);
#323 = ORIENTED_EDGE('',*,*,#322,.T.);
#324 = DIRECTION('',(0.0,1.0,0.0));
#325 = VECTOR('',#324,0.43999999999999995);
#326 = LINE('',#293,#325);
#327 = EDGE_CURVE('',#301,#304,#326,.T.);
#328 = ORIENTED_EDGE('',*,*,#327,.T.);
#329 = EDGE_LOOP('',(#313,#318,#323,#328));
#330 = FACE_OUTER_BOUND('',#329,.T.);
#331 = DIRECTION('',(0.0,0.0,-1.0));
#332 = DIRECTION('',(1.0,0.0,0.0));
#333 = AXIS2_PLACEMENT_3D('',#296,#331,#332);
#334 = PLANE('',#333);
#335 = ADVANCED_FACE('',(#330),#334,.T.);
#336 = ORIENTED_EDGE('',*,*,#322,.F.);
#337 = DIRECTION('',(0.0,0.0,1.0));
#338 = VECTOR('',#337,0.16);
#339 = LINE('',#294,#338);
#340 = EDGE_CURVE('',#302,#306,#339,.T.);
#341 = ORIENTED_EDGE('',*,*,#340,.T.);
#342 = DIRECTION('',(-1.0,0.0,0.0));
#343 = VECTOR('',#342,1.15);
#344 = LINE('',#298,#343);
#345 = EDGE_CURVE('',#306,#305,#344,.T.);
#346 = ORIENTED_EDGE('',*,*,#345,.T.);
#347 = DIRECTION('',(0.0,0.0,-1.0));
#348 = VECTOR('',#347,0.16);
#349 = LINE('',#297,#348);
#350 = EDGE_CURVE('',#305,#301,#349,.T.);
#351 = ORIENTED_EDGE('',*,*,#350,.T.);
#352 = EDGE_LOOP('',(#336,#341,#346,#351));
#353 = FACE_OUTER_BOUND('',#352,.T.);
#354 = DIRECTION('',(0.0,-1.0,0.0));
#355 = DIRECTION('',(1.0,0.0,0.0));
#356 = AXIS2_PLACEMENT_3D('',#293,#354,#355);
#357 = PLANE('',#356);
#358 = ADVANCED_FACE('',(#353),#357,.T.);
#359 = ORIENTED_EDGE('',*,*,#317,.F.);
#360 = DIRECTION('',(0.0,0.0,1.0));
#361 = VECTOR('',#360,0.16);
#362 = LINE('',#295,#361);
#363 = EDGE_CURVE('',#303,#307,#362,.T.);
#364 = ORIENTED_EDGE('',*,*,#363,.T.);
#365 = DIRECTION('',(0.0,-1.0,0.0));
#366 = VECTOR('',#365,0.43999999999999995);
#367 = LINE('',#299,#366);
#368 = EDGE_CURVE('',#307,#306,#367,.T.);
#369 = ORIENTED_EDGE('',*,*,#368,.T.);
#370 = ORIENTED_EDGE('',*,*,#340,.F.);
#371 = EDGE_LOOP('',(#359,#364,#369,#370));
#372 = FACE_OUTER_BOUND('',#371,.T.);
#373 = DIRECTION('',(1.0,0.0,0.0));
#374 = DIRECTION('',(0.0,1.0,0.0));
#375 = AXIS2_PLACEMENT_3D('',#294,#373,#374);
#376 = PLANE('',#375);
#377 = ADVANCED_FACE('',(#372),#376,.T.);
#378 = ORIENTED_EDGE('',*,*,#312,.F.);
#379 = DIRECTION('',(0.0,0.0,1.0));
#380 = VECTOR('',#379,0.16);
#381 = LINE('',#296,#380);
#382 = EDGE_CURVE('',#304,#308,#381,.T.);
#383 = ORIENTED_EDGE('',*,*,#382,.T.);
#384 = DIRECTION('',(1.0,0.0,0.0));
#385 = VECTOR('',#384,1.15);
#386 = LINE('',#300,#385);
#387 = EDGE_CURVE('',#308,#307,#386,.T.);
#388 = ORIENTED_EDGE('',*,*,#387,.T.);
#389 = ORIENTED_EDGE('',*,*,#363,.F.);
#390 = EDGE_LOOP('',(#378,#383,#388,#389));
#391 = FACE_OUTER_BOUND('',#390,.T.);
#392 = DIRECTION('',(0.0,1.0,0.0));
#393 = DIRECTION('',(-1.0,0.0,0.0));
#394 = AXIS2_PLACEMENT_3D('',#295,#392,#393);
#395 = PLANE('',#394);
#396 = ADVANCED_FACE('',(#391),#395,.T.);
#397 = ORIENTED_EDGE('',*,*,#327,.F.);
#398 = ORIENTED_EDGE('',*,*,#350,.F.);
#399 = DIRECTION('',(0.0,1.0,0.0));
#400 = VECTOR('',#399,0.43999999999999995);
#401 = LINE('',#297,#400);
#402 = EDGE_CURVE('',#305,#308,#401,.T.);
#403 = ORIENTED_EDGE('',*,*,#402,.T.);
#404 = ORIENTED_EDGE('',*,*,#382,.F.);
#405 = EDGE_LOOP('',(#397,#398,#403,#404));
#406 = FACE_OUTER_BOUND('',#405,.T.);
#407 = DIRECTION('',(-1.0,0.0,0.0));
#408 = DIRECTION('',(0.0,-1.0,0.0));
#409 = AXIS2_PLACEMENT_3D('',#296,#407,#408);
#410 = PLANE('',#409);
#411 = ADVANCED_FACE('',(#406),#410,.T.);
#412 = ORIENTED_EDGE('',*,*,#345,.F.);
#413 = ORIENTED_EDGE('',*,*,#368,.F.);
#414 = ORIENTED_EDGE('',*,*,#387,.F.);
#415 = ORIENTED_EDGE('',*,*,#402,.F.);
#416 = EDGE_LOOP('',(#412,#413,#414,#415));
#417 = FACE_OUTER_BOUND('',#416,.T.);
#418 = DIRECTION('',(0.0,0.0,1.0));
#419 = DIRECTION('',(1.0,0.0,0.0));
#420 = AXIS2_PLACEMENT_3D('',#297,#418,#419);
#421 = PLANE('',#420);
#422 = ADVANCED_FACE('',(#417),#421,.T.);
#423 = CLOSED_SHELL('',(#335,#358,#377,#396,#411,#422));
#424 = MANIFOLD_SOLID_BREP('lead',#423);
#425 = COLOUR_RGB('',0.7,0.7,0.72);
#426 = FILL_AREA_STYLE_COLOUR('',#425);
#427 = FILL_AREA_STYLE('',(#426));
#428 = SURFACE_STYLE_FILL_AREA(#427);
#429 = SURFACE_SIDE_STYLE('',(#428));
#430 = SURFACE_STYLE_USAGE(.BOTH.,#429);
#431 = PRESENTATION_STYLE_ASSIGNMENT((#430));
#432 = STYLED_ITEM('',(#431),#424);
#433 = CARTESIAN_POINT('',(1.10000,-1.72000,0.02000));
#434 = CARTESIAN_POINT('',(2.25000,-1.72000,0.02000));
#435 = CARTESIAN_POINT('',(2.25000,-1.28000,0.02000));
#436 = CARTESIAN_POINT('',(1.10000,-1.28000,0.02000));
#437 = CARTESIAN_POINT('',(1.10000,-1.72000,0.18000));
#438 = CARTESIAN_POINT('',(2.25000,-1.72000,0.18000));
#439 = CARTESIAN_POINT('',(2.25000,-1.28000,0.18000));
#440 = CARTESIAN_POINT('',(1.10000,-1.28000,0.18000));
#441 = VERTEX_POINT('',#433);
#442 = VERTEX_POINT('',#434);
#443 = VERTEX_POINT('',#435);
#444 = VERTEX_POINT('',#436);
#445 = VERTEX_POINT('',#437);
#446 = VERTEX_POINT('',#438);
#447 = VERTEX_POINT('',#439);
#448 = VERTEX_POINT('',#440);
#449 = DIRECTION('',(1.0,0.0,0.0));
#450 = VECTOR('',#449,1.15);
#451 = LINE('',#436,#450);
#452 = EDGE_CURVE('',#444,#443,#451,.T.);
#453 = ORIENTED_EDGE('',*,*,#452,.T.);
#454 = DIRECTION('',(0.0,-1.0,0.0));
#455 = VECTOR('',#454,0.43999999999999995);
#456 = LINE('',#435,#455);
#457 = EDGE_CURVE('',#443,#442,#456,.T.);
#458 = ORIENTED_EDGE('',*,*,#457,.T.);
#459 = DIRECTION('',(-1.0,0.0,0.0));
#460 = VECTOR('',#459,1.15);
#461 = LINE('',#434,#460);
#462 = EDGE_CURVE('',#442,#441,#461,.T.);
#463 = ORIENTED_EDGE('',*,*,#462,.T.);
#464 = DIRECTION('',(0.0,1.0,0.0));
#465 = VECTOR('',#464,0.43999999999999995);
#466 = LINE('',#433,#465);
#467 = EDGE_CURVE('',#441,#444,#466,.T.);
#468 = ORIENTED_EDGE('',*,*,#467,.T.);
#469 = EDGE_LOOP('',(#453,#458,#463,#468));
#470 = FACE_OUTER_BOUND('',#469,.T.);
#471 = DIRECTION('',(0.0,0.0,-1.0));
#472 = DIRECTION('',(1.0,0.0,0.0));
#473 = AXIS2_PLACEMENT_3D('',#436,#471,#472);
#474 = PLANE('',#473);
#475 = ADVANCED_FACE('',(#470),#474,.T.);
#476 = ORIENTED_EDGE('',*,*,#462,.F.);
#477 = DIRECTION('',(0.0,0.0,1.0));
#478 = VECTOR('',#477,0.16);
#479 = LINE('',#434,#478);
#480 = EDGE_CURVE('',#442,#446,#479,.T.);
#481 = ORIENTED_EDGE('',*,*,#480,.T.);
#482 = DIRECTION('',(-1.0,0.0,0.0));
#483 = VECTOR('',#482,1.15);
#484 = LINE('',#438,#483);
#485 = EDGE_CURVE('',#446,#445,#484,.T.);
#486 = ORIENTED_EDGE('',*,*,#485,.T.);
#487 = DIRECTION('',(0.0,0.0,-1.0));
#488 = VECTOR('',#487,0.16);
#489 = LINE('',#437,#488);
#490 = EDGE_CURVE('',#445,#441,#489,.T.);
#491 = ORIENTED_EDGE('',*,*,#490,.T.);
#492 = EDGE_LOOP('',(#476,#481,#486,#491));
#493 = FACE_OUTER_BOUND('',#492,.T.);
#494 = DIRECTION('',(0.0,-1.0,0.0));
#495 = DIRECTION('',(1.0,0.0,0.0));
#496 = AXIS2_PLACEMENT_3D('',#433,#494,#495);
#497 = PLANE('',#496);
#498 = ADVANCED_FACE('',(#493),#497,.T.);
#499 = ORIENTED_EDGE('',*,*,#457,.F.);
#500 = DIRECTION('',(0.0,0.0,1.0));
#501 = VECTOR('',#500,0.16);
#502 = LINE('',#435,#501);
#503 = EDGE_CURVE('',#443,#447,#502,.T.);
#504 = ORIENTED_EDGE('',*,*,#503,.T.);
#505 = DIRECTION('',(0.0,-1.0,0.0));
#506 = VECTOR('',#505,0.43999999999999995);
#507 = LINE('',#439,#506);
#508 = EDGE_CURVE('',#447,#446,#507,.T.);
#509 = ORIENTED_EDGE('',*,*,#508,.T.);
#510 = ORIENTED_EDGE('',*,*,#480,.F.);
#511 = EDGE_LOOP('',(#499,#504,#509,#510));
#512 = FACE_OUTER_BOUND('',#511,.T.);
#513 = DIRECTION('',(1.0,0.0,0.0));
#514 = DIRECTION('',(0.0,1.0,0.0));
#515 = AXIS2_PLACEMENT_3D('',#434,#513,#514);
#516 = PLANE('',#515);
#517 = ADVANCED_FACE('',(#512),#516,.T.);
#518 = ORIENTED_EDGE('',*,*,#452,.F.);
#519 = DIRECTION('',(0.0,0.0,1.0));
#520 = VECTOR('',#519,0.16);
#521 = LINE('',#436,#520);
#522 = EDGE_CURVE('',#444,#448,#521,.T.);
#523 = ORIENTED_EDGE('',*,*,#522,.T.);
#524 = DIRECTION('',(1.0,0.0,0.0));
#525 = VECTOR('',#524,1.15);
#526 = LINE('',#440,#525);
#527 = EDGE_CURVE('',#448,#447,#526,.T.);
#528 = ORIENTED_EDGE('',*,*,#527,.T.);
#529 = ORIENTED_EDGE('',*,*,#503,.F.);
#530 = EDGE_LOOP('',(#518,#523,#528,#529));
#531 = FACE_OUTER_BOUND('',#530,.T.);
#532 = DIRECTION('',(0.0,1.0,0.0));
#533 = DIRECTION('',(-1.0,0.0,0.0));
#534 = AXIS2_PLACEMENT_3D('',#435,#532,#533);
#535 = PLANE('',#534);
#536 = ADVANCED_FACE('',(#531),#535,.T.);
#537 = ORIENTED_EDGE('',*,*,#467,.F.);
#538 = ORIENTED_EDGE('',*,*,#490,.F.);
#539 = DIRECTION('',(0.0,1.0,0.0));
#540 = VECTOR('',#539,0.43999999999999995);
#541 = LINE('',#437,#540);
#542 = EDGE_CURVE('',#445,#448,#541,.T.);
#543 = ORIENTED_EDGE('',*,*,#542,.T.);
#544 = ORIENTED_EDGE('',*,*,#522,.F.);
#545 = EDGE_LOOP('',(#537,#538,#543,#544));
#546 = FACE_OUTER_BOUND('',#545,.T.);
#547 = DIRECTION('',(-1.0,0.0,0.0));
#548 = DIRECTION('',(0.0,-1.0,0.0));
#549 = AXIS2_PLACEMENT_3D('',#436,#547,#548);
#550 = PLANE('',#549);
#551 = ADVANCED_FACE('',(#546),#550,.T.);
#552 = ORIENTED_EDGE('',*,*,#485,.F.);
#553 = ORIENTED_EDGE('',*,*,#508,.F.);
#554 = ORIENTED_EDGE('',*,*,#527,.F.);
#555 = ORIENTED_EDGE('',*,*,#542,.F.);
#556 = EDGE_LOOP('',(#552,#553,#554,#555));
#557 = FACE_OUTER_BOUND('',#556,.T.);
#558 = DIRECTION('',(0.0,0.0,1.0));
#559 = DIRECTION('',(1.0,0.0,0.0));
#560 = AXIS2_PLACEMENT_3D('',#437,#558,#559);
#561 = PLANE('',#560);
#562 = ADVANCED_FACE('',(#557),#561,.T.);
#563 = CLOSED_SHELL('',(#475,#498,#517,#536,#551,#562));
#564 = MANIFOLD_SOLID_BREP('lead',#563);
#565 = COLOUR_RGB('',0.7,0.7,0.72);
#566 = FILL_AREA_STYLE_COLOUR('',#565);
#567 = FILL_AREA_STYLE('',(#566));
#568 = SURFACE_STYLE_FILL_AREA(#567);
#569 = SURFACE_SIDE_STYLE('',(#568));
#570 = SURFACE_STYLE_USAGE(.BOTH.,#569);
#571 = PRESENTATION_STYLE_ASSIGNMENT((#570));
#572 = STYLED_ITEM('',(#571),#564);
#573 = CARTESIAN_POINT('',(1.10000,1.28000,0.02000));
#574 = CARTESIAN_POINT('',(2.25000,1.28000,0.02000));
#575 = CARTESIAN_POINT('',(2.25000,1.72000,0.02000));
#576 = CARTESIAN_POINT('',(1.10000,1.72000,0.02000));
#577 = CARTESIAN_POINT('',(1.10000,1.28000,0.18000));
#578 = CARTESIAN_POINT('',(2.25000,1.28000,0.18000));
#579 = CARTESIAN_POINT('',(2.25000,1.72000,0.18000));
#580 = CARTESIAN_POINT('',(1.10000,1.72000,0.18000));
#581 = VERTEX_POINT('',#573);
#582 = VERTEX_POINT('',#574);
#583 = VERTEX_POINT('',#575);
#584 = VERTEX_POINT('',#576);
#585 = VERTEX_POINT('',#577);
#586 = VERTEX_POINT('',#578);
#587 = VERTEX_POINT('',#579);
#588 = VERTEX_POINT('',#580);
#589 = DIRECTION('',(1.0,0.0,0.0));
#590 = VECTOR('',#589,1.15);
#591 = LINE('',#576,#590);
#592 = EDGE_CURVE('',#584,#583,#591,.T.);
#593 = ORIENTED_EDGE('',*,*,#592,.T.);
#594 = DIRECTION('',(0.0,-1.0,0.0));
#595 = VECTOR('',#594,0.43999999999999995);
#596 = LINE('',#575,#595);
#597 = EDGE_CURVE('',#583,#582,#596,.T.);
#598 = ORIENTED_EDGE('',*,*,#597,.T.);
#599 = DIRECTION('',(-1.0,0.0,0.0));
#600 = VECTOR('',#599,1.15);
#601 = LINE('',#574,#600);
#602 = EDGE_CURVE('',#582,#581,#601,.T.);
#603 = ORIENTED_EDGE('',*,*,#602,.T.);
#604 = DIRECTION('',(0.0,1.0,0.0));
#605 = VECTOR('',#604,0.43999999999999995);
#606 = LINE('',#573,#605);
#607 = EDGE_CURVE('',#581,#584,#606,.T.);
#608 = ORIENTED_EDGE('',*,*,#607,.T.);
#609 = EDGE_LOOP('',(#593,#598,#603,#608));
#610 = FACE_OUTER_BOUND('',#609,.T.);
#611 = DIRECTION('',(0.0,0.0,-1.0));
#612 = DIRECTION('',(1.0,0.0,0.0));
#613 = AXIS2_PLACEMENT_3D('',#576,#611,#612);
#614 = PLANE('',#613);
#615 = ADVANCED_FACE('',(#610),#614,.T.);
#616 = ORIENTED_EDGE('',*,*,#602,.F.);
#617 = DIRECTION('',(0.0,0.0,1.0));
#618 = VECTOR('',#617,0.16);
#619 = LINE('',#574,#618);
#620 = EDGE_CURVE('',#582,#586,#619,.T.);
#621 = ORIENTED_EDGE('',*,*,#620,.T.);
#622 = DIRECTION('',(-1.0,0.0,0.0));
#623 = VECTOR('',#622,1.15);
#624 = LINE('',#578,#623);
#625 = EDGE_CURVE('',#586,#585,#624,.T.);
#626 = ORIENTED_EDGE('',*,*,#625,.T.);
#627 = DIRECTION('',(0.0,0.0,-1.0));
#628 = VECTOR('',#627,0.16);
#629 = LINE('',#577,#628);
#630 = EDGE_CURVE('',#585,#581,#629,.T.);
#631 = ORIENTED_EDGE('',*,*,#630,.T.);
#632 = EDGE_LOOP('',(#616,#621,#626,#631));
#633 = FACE_OUTER_BOUND('',#632,.T.);
#634 = DIRECTION('',(0.0,-1.0,0.0));
#635 = DIRECTION('',(1.0,0.0,0.0));
#636 = AXIS2_PLACEMENT_3D('',#573,#634,#635);
#637 = PLANE('',#636);
#638 = ADVANCED_FACE('',(#633),#637,.T.);
#639 = ORIENTED_EDGE('',*,*,#597,.F.);
#640 = DIRECTION('',(0.0,0.0,1.0));
#641 = VECTOR('',#640,0.16);
#642 = LINE('',#575,#641);
#643 = EDGE_CURVE('',#583,#587,#642,.T.);
#644 = ORIENTED_EDGE('',*,*,#643,.T.);
#645 = DIRECTION('',(0.0,-1.0,0.0));
#646 = VECTOR('',#645,0.43999999999999995);
#647 = LINE('',#579,#646);
#648 = EDGE_CURVE('',#587,#586,#647,.T.);
#649 = ORIENTED_EDGE('',*,*,#648,.T.);
#650 = ORIENTED_EDGE('',*,*,#620,.F.);
#651 = EDGE_LOOP('',(#639,#644,#649,#650));
#652 = FACE_OUTER_BOUND('',#651,.T.);
#653 = DIRECTION('',(1.0,0.0,0.0));
#654 = DIRECTION('',(0.0,1.0,0.0));
#655 = AXIS2_PLACEMENT_3D('',#574,#653,#654);
#656 = PLANE('',#655);
#657 = ADVANCED_FACE('',(#652),#656,.T.);
#658 = ORIENTED_EDGE('',*,*,#592,.F.);
#659 = DIRECTION('',(0.0,0.0,1.0));
#660 = VECTOR('',#659,0.16);
#661 = LINE('',#576,#660);
#662 = EDGE_CURVE('',#584,#588,#661,.T.);
#663 = ORIENTED_EDGE('',*,*,#662,.T.);
#664 = DIRECTION('',(1.0,0.0,0.0));
#665 = VECTOR('',#664,1.15);
#666 = LINE('',#580,#665);
#667 = EDGE_CURVE('',#588,#587,#666,.T.);
#668 = ORIENTED_EDGE('',*,*,#667,.T.);
#669 = ORIENTED_EDGE('',*,*,#643,.F.);
#670 = EDGE_LOOP('',(#658,#663,#668,#669));
#671 = FACE_OUTER_BOUND('',#670,.T.);
#672 = DIRECTION('',(0.0,1.0,0.0));
#673 = DIRECTION('',(-1.0,0.0,0.0));
#674 = AXIS2_PLACEMENT_3D('',#575,#672,#673);
#675 = PLANE('',#674);
#676 = ADVANCED_FACE('',(#671),#675,.T.);
#677 = ORIENTED_EDGE('',*,*,#607,.F.);
#678 = ORIENTED_EDGE('',*,*,#630,.F.);
#679 = DIRECTION('',(0.0,1.0,0.0));
#680 = VECTOR('',#679,0.43999999999999995);
#681 = LINE('',#577,#680);
#682 = EDGE_CURVE('',#585,#588,#681,.T.);
#683 = ORIENTED_EDGE('',*,*,#682,.T.);
#684 = ORIENTED_EDGE('',*,*,#662,.F.);
#685 = EDGE_LOOP('',(#677,#678,#683,#684));
#686 = FACE_OUTER_BOUND('',#685,.T.);
#687 = DIRECTION('',(-1.0,0.0,0.0));
#688 = DIRECTION('',(0.0,-1.0,0.0));
#689 = AXIS2_PLACEMENT_3D('',#576,#687,#688);
#690 = PLANE('',#689);
#691 = ADVANCED_FACE('',(#686),#690,.T.);
#692 = ORIENTED_EDGE('',*,*,#625,.F.);
#693 = ORIENTED_EDGE('',*,*,#648,.F.);
#694 = ORIENTED_EDGE('',*,*,#667,.F.);
#695 = ORIENTED_EDGE('',*,*,#682,.F.);
#696 = EDGE_LOOP('',(#692,#693,#694,#695));
#697 = FACE_OUTER_BOUND('',#696,.T.);
#698 = DIRECTION('',(0.0,0.0,1.0));
#699 = DIRECTION('',(1.0,0.0,0.0));
#700 = AXIS2_PLACEMENT_3D('',#577,#698,#699);
#701 = PLANE('',#700);
#702 = ADVANCED_FACE('',(#697),#701,.T.);
#703 = CLOSED_SHELL('',(#615,#638,#657,#676,#691,#702));
#704 = MANIFOLD_SOLID_BREP('lead',#703);
#705 = COLOUR_RGB('',0.7,0.7,0.72);
#706 = FILL_AREA_STYLE_COLOUR('',#705);
#707 = FILL_AREA_STYLE('',(#706));
#708 = SURFACE_STYLE_FILL_AREA(#707);
#709 = SURFACE_SIDE_STYLE('',(#708));
#710 = SURFACE_STYLE_USAGE(.BOTH.,#709);
#711 = PRESENTATION_STYLE_ASSIGNMENT((#710));
#712 = STYLED_ITEM('',(#711),#704);
#713 = CARTESIAN_POINT('',(-2.25000,-0.70000,0.02000));
#714 = CARTESIAN_POINT('',(1.10000,-0.70000,0.02000));
#715 = CARTESIAN_POINT('',(1.10000,0.70000,0.02000));
#716 = CARTESIAN_POINT('',(-2.25000,0.70000,0.02000));
#717 = CARTESIAN_POINT('',(-2.25000,-0.70000,0.18000));
#718 = CARTESIAN_POINT('',(1.10000,-0.70000,0.18000));
#719 = CARTESIAN_POINT('',(1.10000,0.70000,0.18000));
#720 = CARTESIAN_POINT('',(-2.25000,0.70000,0.18000));
#721 = VERTEX_POINT('',#713);
#722 = VERTEX_POINT('',#714);
#723 = VERTEX_POINT('',#715);
#724 = VERTEX_POINT('',#716);
#725 = VERTEX_POINT('',#717);
#726 = VERTEX_POINT('',#718);
#727 = VERTEX_POINT('',#719);
#728 = VERTEX_POINT('',#720);
#729 = DIRECTION('',(1.0,0.0,0.0));
#730 = VECTOR('',#729,3.35);
#731 = LINE('',#716,#730);
#732 = EDGE_CURVE('',#724,#723,#731,.T.);
#733 = ORIENTED_EDGE('',*,*,#732,.T.);
#734 = DIRECTION('',(0.0,-1.0,0.0));
#735 = VECTOR('',#734,1.4);
#736 = LINE('',#715,#735);
#737 = EDGE_CURVE('',#723,#722,#736,.T.);
#738 = ORIENTED_EDGE('',*,*,#737,.T.);
#739 = DIRECTION('',(-1.0,0.0,0.0));
#740 = VECTOR('',#739,3.35);
#741 = LINE('',#714,#740);
#742 = EDGE_CURVE('',#722,#721,#741,.T.);
#743 = ORIENTED_EDGE('',*,*,#742,.T.);
#744 = DIRECTION('',(0.0,1.0,0.0));
#745 = VECTOR('',#744,1.4);
#746 = LINE('',#713,#745);
#747 = EDGE_CURVE('',#721,#724,#746,.T.);
#748 = ORIENTED_EDGE('',*,*,#747,.T.);
#749 = EDGE_LOOP('',(#733,#738,#743,#748));
#750 = FACE_OUTER_BOUND('',#749,.T.);
#751 = DIRECTION('',(0.0,0.0,-1.0));
#752 = DIRECTION('',(1.0,0.0,0.0));
#753 = AXIS2_PLACEMENT_3D('',#716,#751,#752);
#754 = PLANE('',#753);
#755 = ADVANCED_FACE('',(#750),#754,.T.);
#756 = ORIENTED_EDGE('',*,*,#742,.F.);
#757 = DIRECTION('',(0.0,0.0,1.0));
#758 = VECTOR('',#757,0.16);
#759 = LINE('',#714,#758);
#760 = EDGE_CURVE('',#722,#726,#759,.T.);
#761 = ORIENTED_EDGE('',*,*,#760,.T.);
#762 = DIRECTION('',(-1.0,0.0,0.0));
#763 = VECTOR('',#762,3.35);
#764 = LINE('',#718,#763);
#765 = EDGE_CURVE('',#726,#725,#764,.T.);
#766 = ORIENTED_EDGE('',*,*,#765,.T.);
#767 = DIRECTION('',(0.0,0.0,-1.0));
#768 = VECTOR('',#767,0.16);
#769 = LINE('',#717,#768);
#770 = EDGE_CURVE('',#725,#721,#769,.T.);
#771 = ORIENTED_EDGE('',*,*,#770,.T.);
#772 = EDGE_LOOP('',(#756,#761,#766,#771));
#773 = FACE_OUTER_BOUND('',#772,.T.);
#774 = DIRECTION('',(0.0,-1.0,0.0));
#775 = DIRECTION('',(1.0,0.0,0.0));
#776 = AXIS2_PLACEMENT_3D('',#713,#774,#775);
#777 = PLANE('',#776);
#778 = ADVANCED_FACE('',(#773),#777,.T.);
#779 = ORIENTED_EDGE('',*,*,#737,.F.);
#780 = DIRECTION('',(0.0,0.0,1.0));
#781 = VECTOR('',#780,0.16);
#782 = LINE('',#715,#781);
#783 = EDGE_CURVE('',#723,#727,#782,.T.);
#784 = ORIENTED_EDGE('',*,*,#783,.T.);
#785 = DIRECTION('',(0.0,-1.0,0.0));
#786 = VECTOR('',#785,1.4);
#787 = LINE('',#719,#786);
#788 = EDGE_CURVE('',#727,#726,#787,.T.);
#789 = ORIENTED_EDGE('',*,*,#788,.T.);
#790 = ORIENTED_EDGE('',*,*,#760,.F.);
#791 = EDGE_LOOP('',(#779,#784,#789,#790));
#792 = FACE_OUTER_BOUND('',#791,.T.);
#793 = DIRECTION('',(1.0,0.0,0.0));
#794 = DIRECTION('',(0.0,1.0,0.0));
#795 = AXIS2_PLACEMENT_3D('',#714,#793,#794);
#796 = PLANE('',#795);
#797 = ADVANCED_FACE('',(#792),#796,.T.);
#798 = ORIENTED_EDGE('',*,*,#732,.F.);
#799 = DIRECTION('',(0.0,0.0,1.0));
#800 = VECTOR('',#799,0.16);
#801 = LINE('',#716,#800);
#802 = EDGE_CURVE('',#724,#728,#801,.T.);
#803 = ORIENTED_EDGE('',*,*,#802,.T.);
#804 = DIRECTION('',(1.0,0.0,0.0));
#805 = VECTOR('',#804,3.35);
#806 = LINE('',#720,#805);
#807 = EDGE_CURVE('',#728,#727,#806,.T.);
#808 = ORIENTED_EDGE('',*,*,#807,.T.);
#809 = ORIENTED_EDGE('',*,*,#783,.F.);
#810 = EDGE_LOOP('',(#798,#803,#808,#809));
#811 = FACE_OUTER_BOUND('',#810,.T.);
#812 = DIRECTION('',(0.0,1.0,0.0));
#813 = DIRECTION('',(-1.0,0.0,0.0));
#814 = AXIS2_PLACEMENT_3D('',#715,#812,#813);
#815 = PLANE('',#814);
#816 = ADVANCED_FACE('',(#811),#815,.T.);
#817 = ORIENTED_EDGE('',*,*,#747,.F.);
#818 = ORIENTED_EDGE('',*,*,#770,.F.);
#819 = DIRECTION('',(0.0,1.0,0.0));
#820 = VECTOR('',#819,1.4);
#821 = LINE('',#717,#820);
#822 = EDGE_CURVE('',#725,#728,#821,.T.);
#823 = ORIENTED_EDGE('',*,*,#822,.T.);
#824 = ORIENTED_EDGE('',*,*,#802,.F.);
#825 = EDGE_LOOP('',(#817,#818,#823,#824));
#826 = FACE_OUTER_BOUND('',#825,.T.);
#827 = DIRECTION('',(-1.0,0.0,0.0));
#828 = DIRECTION('',(0.0,-1.0,0.0));
#829 = AXIS2_PLACEMENT_3D('',#716,#827,#828);
#830 = PLANE('',#829);
#831 = ADVANCED_FACE('',(#826),#830,.T.);
#832 = ORIENTED_EDGE('',*,*,#765,.F.);
#833 = ORIENTED_EDGE('',*,*,#788,.F.);
#834 = ORIENTED_EDGE('',*,*,#807,.F.);
#835 = ORIENTED_EDGE('',*,*,#822,.F.);
#836 = EDGE_LOOP('',(#832,#833,#834,#835));
#837 = FACE_OUTER_BOUND('',#836,.T.);
#838 = DIRECTION('',(0.0,0.0,1.0));
#839 = DIRECTION('',(1.0,0.0,0.0));
#840 = AXIS2_PLACEMENT_3D('',#717,#838,#839);
#841 = PLANE('',#840);
#842 = ADVANCED_FACE('',(#837),#841,.T.);
#843 = CLOSED_SHELL('',(#755,#778,#797,#816,#831,#842));
#844 = MANIFOLD_SOLID_BREP('ground tab',#843);
#845 = COLOUR_RGB('',0.7,0.7,0.72);
#846 = FILL_AREA_STYLE_COLOUR('',#845);
#847 = FILL_AREA_STYLE('',(#846));
#848 = SURFACE_STYLE_FILL_AREA(#847);
#849 = SURFACE_SIDE_STYLE('',(#848));
#850 = SURFACE_STYLE_USAGE(.BOTH.,#849);
#851 = PRESENTATION_STYLE_ASSIGNMENT((#850));
#852 = STYLED_ITEM('',(#851),#844);
#853 = ADVANCED_BREP_SHAPE_REPRESENTATION('',(#144,#284,#424,#564,#704,#844),#12);
#854 = SHAPE_DEFINITION_REPRESENTATION(#7,#853);
#855 = MECHANICAL_DESIGN_GEOMETRIC_PRESENTATION_REPRESENTATION('',(#152,#292,#432,#572,#712,#852),#12);
ENDSEC;
END-ISO-10303-21;
