%TF.GenerationSoftware,KiCad,Pcbnew,10.0.5*%
%TF.CreationDate,2026-08-22T14:37:12+02:00*%
%TF.ProjectId,flappy-esp32c3,666c6170-7079-42d6-9573-70333263332e,A*%
%TF.SameCoordinates,Original*%
%TF.FileFunction,Legend,Top*%
%TF.FilePolarity,Positive*%
%FSLAX46Y46*%
G04 Gerber Fmt 4.6, Leading zero omitted, Abs format (unit mm)*
G04 Created by KiCad (PCBNEW 10.0.5) date 2026-08-22 14:37:12*
%MOMM*%
%LPD*%
G01*
G04 APERTURE LIST*
G04 Aperture macros list*
%AMRoundRect*
0 Rectangle with rounded corners*
0 $1 Rounding radius*
0 $2 $3 $4 $5 $6 $7 $8 $9 X,Y pos of 4 corners*
0 Add a 4 corners polygon primitive as box body*
4,1,4,$2,$3,$4,$5,$6,$7,$8,$9,$2,$3,0*
0 Add four circle primitives for the rounded corners*
1,1,$1+$1,$2,$3*
1,1,$1+$1,$4,$5*
1,1,$1+$1,$6,$7*
1,1,$1+$1,$8,$9*
0 Add four rect primitives between the rounded corners*
20,1,$1+$1,$2,$3,$4,$5,0*
20,1,$1+$1,$4,$5,$6,$7,0*
20,1,$1+$1,$6,$7,$8,$9,0*
20,1,$1+$1,$8,$9,$2,$3,0*%
G04 Aperture macros list end*
%ADD10C,0.128000*%
%ADD11C,0.144000*%
%ADD12C,0.176000*%
%ADD13C,0.130000*%
%ADD14C,0.150000*%
%ADD15C,0.120000*%
%ADD16RoundRect,0.250000X-0.350000X-0.450000X0.350000X-0.450000X0.350000X0.450000X-0.350000X0.450000X0*%
%ADD17C,2.200000*%
%ADD18C,1.500000*%
%ADD19RoundRect,0.250000X-0.337500X-0.475000X0.337500X-0.475000X0.337500X0.475000X-0.337500X0.475000X0*%
%ADD20RoundRect,0.162500X-0.617500X-0.162500X0.617500X-0.162500X0.617500X0.162500X-0.617500X0.162500X0*%
%ADD21RoundRect,0.250000X-0.600000X-0.725000X0.600000X-0.725000X0.600000X0.725000X-0.600000X0.725000X0*%
%ADD22O,1.700000X1.950000*%
%ADD23RoundRect,0.250000X-0.600000X-0.750000X0.600000X-0.750000X0.600000X0.750000X-0.600000X0.750000X0*%
%ADD24O,1.700000X2.000000*%
%ADD25RoundRect,0.250000X-0.350000X-0.625000X0.350000X-0.625000X0.350000X0.625000X-0.350000X0.625000X0*%
%ADD26O,1.200000X1.750000*%
%ADD27O,2.200000X3.500000*%
%ADD28R,1.500000X2.500000*%
%ADD29O,1.500000X2.500000*%
%ADD30RoundRect,0.250000X-0.325000X-0.450000X0.325000X-0.450000X0.325000X0.450000X-0.325000X0.450000X0*%
%ADD31R,2.500000X0.900000*%
%ADD32C,0.700000*%
%ADD33R,2.900000X2.900000*%
%ADD34R,1.700000X1.700000*%
%ADD35C,1.700000*%
%ADD36RoundRect,0.225000X-0.225000X-0.375000X0.225000X-0.375000X0.225000X0.375000X-0.225000X0.375000X0*%
%ADD37R,2.000000X2.000000*%
%ADD38C,2.000000*%
G04 APERTURE END LIST*
D10*
X31660400Y-78163439D02*
X32117543Y-78163439D01*
X31888971Y-78963439D02*
X31888971Y-78163439D01*
X32346114Y-78734867D02*
X32727067Y-78734867D01*
X32269924Y-78963439D02*
X32536591Y-78163439D01*
X32536591Y-78163439D02*
X32803257Y-78963439D01*
X33031828Y-78925344D02*
X33146114Y-78963439D01*
X33146114Y-78963439D02*
X33336590Y-78963439D01*
X33336590Y-78963439D02*
X33412781Y-78925344D01*
X33412781Y-78925344D02*
X33450876Y-78887248D01*
X33450876Y-78887248D02*
X33488971Y-78811058D01*
X33488971Y-78811058D02*
X33488971Y-78734867D01*
X33488971Y-78734867D02*
X33450876Y-78658677D01*
X33450876Y-78658677D02*
X33412781Y-78620582D01*
X33412781Y-78620582D02*
X33336590Y-78582486D01*
X33336590Y-78582486D02*
X33184209Y-78544391D01*
X33184209Y-78544391D02*
X33108019Y-78506296D01*
X33108019Y-78506296D02*
X33069924Y-78468201D01*
X33069924Y-78468201D02*
X33031828Y-78392010D01*
X33031828Y-78392010D02*
X33031828Y-78315820D01*
X33031828Y-78315820D02*
X33069924Y-78239629D01*
X33069924Y-78239629D02*
X33108019Y-78201534D01*
X33108019Y-78201534D02*
X33184209Y-78163439D01*
X33184209Y-78163439D02*
X33374686Y-78163439D01*
X33374686Y-78163439D02*
X33488971Y-78201534D01*
X33717543Y-78163439D02*
X34174686Y-78163439D01*
X33946114Y-78963439D02*
X33946114Y-78163439D01*
X34441353Y-78544391D02*
X34708019Y-78544391D01*
X34822305Y-78963439D02*
X34441353Y-78963439D01*
X34441353Y-78963439D02*
X34441353Y-78163439D01*
X34441353Y-78163439D02*
X34822305Y-78163439D01*
X35622306Y-78963439D02*
X35355639Y-78582486D01*
X35165163Y-78963439D02*
X35165163Y-78163439D01*
X35165163Y-78163439D02*
X35469925Y-78163439D01*
X35469925Y-78163439D02*
X35546115Y-78201534D01*
X35546115Y-78201534D02*
X35584210Y-78239629D01*
X35584210Y-78239629D02*
X35622306Y-78315820D01*
X35622306Y-78315820D02*
X35622306Y-78430105D01*
X35622306Y-78430105D02*
X35584210Y-78506296D01*
X35584210Y-78506296D02*
X35546115Y-78544391D01*
X35546115Y-78544391D02*
X35469925Y-78582486D01*
X35469925Y-78582486D02*
X35165163Y-78582486D01*
X45460400Y-37563439D02*
X45727067Y-38363439D01*
X45727067Y-38363439D02*
X45993733Y-37563439D01*
X46527066Y-37944391D02*
X46641352Y-37982486D01*
X46641352Y-37982486D02*
X46679447Y-38020582D01*
X46679447Y-38020582D02*
X46717543Y-38096772D01*
X46717543Y-38096772D02*
X46717543Y-38211058D01*
X46717543Y-38211058D02*
X46679447Y-38287248D01*
X46679447Y-38287248D02*
X46641352Y-38325344D01*
X46641352Y-38325344D02*
X46565162Y-38363439D01*
X46565162Y-38363439D02*
X46260400Y-38363439D01*
X46260400Y-38363439D02*
X46260400Y-37563439D01*
X46260400Y-37563439D02*
X46527066Y-37563439D01*
X46527066Y-37563439D02*
X46603257Y-37601534D01*
X46603257Y-37601534D02*
X46641352Y-37639629D01*
X46641352Y-37639629D02*
X46679447Y-37715820D01*
X46679447Y-37715820D02*
X46679447Y-37792010D01*
X46679447Y-37792010D02*
X46641352Y-37868201D01*
X46641352Y-37868201D02*
X46603257Y-37906296D01*
X46603257Y-37906296D02*
X46527066Y-37944391D01*
X46527066Y-37944391D02*
X46260400Y-37944391D01*
X47060400Y-37563439D02*
X47060400Y-38211058D01*
X47060400Y-38211058D02*
X47098495Y-38287248D01*
X47098495Y-38287248D02*
X47136590Y-38325344D01*
X47136590Y-38325344D02*
X47212781Y-38363439D01*
X47212781Y-38363439D02*
X47365162Y-38363439D01*
X47365162Y-38363439D02*
X47441352Y-38325344D01*
X47441352Y-38325344D02*
X47479447Y-38287248D01*
X47479447Y-38287248D02*
X47517543Y-38211058D01*
X47517543Y-38211058D02*
X47517543Y-37563439D01*
X47860399Y-38325344D02*
X47974685Y-38363439D01*
X47974685Y-38363439D02*
X48165161Y-38363439D01*
X48165161Y-38363439D02*
X48241352Y-38325344D01*
X48241352Y-38325344D02*
X48279447Y-38287248D01*
X48279447Y-38287248D02*
X48317542Y-38211058D01*
X48317542Y-38211058D02*
X48317542Y-38134867D01*
X48317542Y-38134867D02*
X48279447Y-38058677D01*
X48279447Y-38058677D02*
X48241352Y-38020582D01*
X48241352Y-38020582D02*
X48165161Y-37982486D01*
X48165161Y-37982486D02*
X48012780Y-37944391D01*
X48012780Y-37944391D02*
X47936590Y-37906296D01*
X47936590Y-37906296D02*
X47898495Y-37868201D01*
X47898495Y-37868201D02*
X47860399Y-37792010D01*
X47860399Y-37792010D02*
X47860399Y-37715820D01*
X47860399Y-37715820D02*
X47898495Y-37639629D01*
X47898495Y-37639629D02*
X47936590Y-37601534D01*
X47936590Y-37601534D02*
X48012780Y-37563439D01*
X48012780Y-37563439D02*
X48203257Y-37563439D01*
X48203257Y-37563439D02*
X48317542Y-37601534D01*
X45993733Y-40141534D02*
X45917543Y-40103439D01*
X45917543Y-40103439D02*
X45803257Y-40103439D01*
X45803257Y-40103439D02*
X45688971Y-40141534D01*
X45688971Y-40141534D02*
X45612781Y-40217724D01*
X45612781Y-40217724D02*
X45574686Y-40293915D01*
X45574686Y-40293915D02*
X45536590Y-40446296D01*
X45536590Y-40446296D02*
X45536590Y-40560582D01*
X45536590Y-40560582D02*
X45574686Y-40712963D01*
X45574686Y-40712963D02*
X45612781Y-40789153D01*
X45612781Y-40789153D02*
X45688971Y-40865344D01*
X45688971Y-40865344D02*
X45803257Y-40903439D01*
X45803257Y-40903439D02*
X45879448Y-40903439D01*
X45879448Y-40903439D02*
X45993733Y-40865344D01*
X45993733Y-40865344D02*
X46031829Y-40827248D01*
X46031829Y-40827248D02*
X46031829Y-40560582D01*
X46031829Y-40560582D02*
X45879448Y-40560582D01*
X46374686Y-40903439D02*
X46374686Y-40103439D01*
X46374686Y-40103439D02*
X46831829Y-40903439D01*
X46831829Y-40903439D02*
X46831829Y-40103439D01*
X47212781Y-40903439D02*
X47212781Y-40103439D01*
X47212781Y-40103439D02*
X47403257Y-40103439D01*
X47403257Y-40103439D02*
X47517543Y-40141534D01*
X47517543Y-40141534D02*
X47593733Y-40217724D01*
X47593733Y-40217724D02*
X47631828Y-40293915D01*
X47631828Y-40293915D02*
X47669924Y-40446296D01*
X47669924Y-40446296D02*
X47669924Y-40560582D01*
X47669924Y-40560582D02*
X47631828Y-40712963D01*
X47631828Y-40712963D02*
X47593733Y-40789153D01*
X47593733Y-40789153D02*
X47517543Y-40865344D01*
X47517543Y-40865344D02*
X47403257Y-40903439D01*
X47403257Y-40903439D02*
X47212781Y-40903439D01*
X45574686Y-43443439D02*
X45574686Y-42643439D01*
X45574686Y-42643439D02*
X45765162Y-42643439D01*
X45765162Y-42643439D02*
X45879448Y-42681534D01*
X45879448Y-42681534D02*
X45955638Y-42757724D01*
X45955638Y-42757724D02*
X45993733Y-42833915D01*
X45993733Y-42833915D02*
X46031829Y-42986296D01*
X46031829Y-42986296D02*
X46031829Y-43100582D01*
X46031829Y-43100582D02*
X45993733Y-43252963D01*
X45993733Y-43252963D02*
X45955638Y-43329153D01*
X45955638Y-43329153D02*
X45879448Y-43405344D01*
X45879448Y-43405344D02*
X45765162Y-43443439D01*
X45765162Y-43443439D02*
X45574686Y-43443439D01*
X46374686Y-43138677D02*
X46984210Y-43138677D01*
X45574686Y-45983439D02*
X45574686Y-45183439D01*
X45574686Y-45183439D02*
X45765162Y-45183439D01*
X45765162Y-45183439D02*
X45879448Y-45221534D01*
X45879448Y-45221534D02*
X45955638Y-45297724D01*
X45955638Y-45297724D02*
X45993733Y-45373915D01*
X45993733Y-45373915D02*
X46031829Y-45526296D01*
X46031829Y-45526296D02*
X46031829Y-45640582D01*
X46031829Y-45640582D02*
X45993733Y-45792963D01*
X45993733Y-45792963D02*
X45955638Y-45869153D01*
X45955638Y-45869153D02*
X45879448Y-45945344D01*
X45879448Y-45945344D02*
X45765162Y-45983439D01*
X45765162Y-45983439D02*
X45574686Y-45983439D01*
X46374686Y-45678677D02*
X46984210Y-45678677D01*
X46679448Y-45983439D02*
X46679448Y-45373915D01*
X46031829Y-48447248D02*
X45993733Y-48485344D01*
X45993733Y-48485344D02*
X45879448Y-48523439D01*
X45879448Y-48523439D02*
X45803257Y-48523439D01*
X45803257Y-48523439D02*
X45688971Y-48485344D01*
X45688971Y-48485344D02*
X45612781Y-48409153D01*
X45612781Y-48409153D02*
X45574686Y-48332963D01*
X45574686Y-48332963D02*
X45536590Y-48180582D01*
X45536590Y-48180582D02*
X45536590Y-48066296D01*
X45536590Y-48066296D02*
X45574686Y-47913915D01*
X45574686Y-47913915D02*
X45612781Y-47837724D01*
X45612781Y-47837724D02*
X45688971Y-47761534D01*
X45688971Y-47761534D02*
X45803257Y-47723439D01*
X45803257Y-47723439D02*
X45879448Y-47723439D01*
X45879448Y-47723439D02*
X45993733Y-47761534D01*
X45993733Y-47761534D02*
X46031829Y-47799629D01*
X46831829Y-48447248D02*
X46793733Y-48485344D01*
X46793733Y-48485344D02*
X46679448Y-48523439D01*
X46679448Y-48523439D02*
X46603257Y-48523439D01*
X46603257Y-48523439D02*
X46488971Y-48485344D01*
X46488971Y-48485344D02*
X46412781Y-48409153D01*
X46412781Y-48409153D02*
X46374686Y-48332963D01*
X46374686Y-48332963D02*
X46336590Y-48180582D01*
X46336590Y-48180582D02*
X46336590Y-48066296D01*
X46336590Y-48066296D02*
X46374686Y-47913915D01*
X46374686Y-47913915D02*
X46412781Y-47837724D01*
X46412781Y-47837724D02*
X46488971Y-47761534D01*
X46488971Y-47761534D02*
X46603257Y-47723439D01*
X46603257Y-47723439D02*
X46679448Y-47723439D01*
X46679448Y-47723439D02*
X46793733Y-47761534D01*
X46793733Y-47761534D02*
X46831829Y-47799629D01*
X47593733Y-48523439D02*
X47136590Y-48523439D01*
X47365162Y-48523439D02*
X47365162Y-47723439D01*
X47365162Y-47723439D02*
X47288971Y-47837724D01*
X47288971Y-47837724D02*
X47212781Y-47913915D01*
X47212781Y-47913915D02*
X47136590Y-47952010D01*
X46031829Y-50987248D02*
X45993733Y-51025344D01*
X45993733Y-51025344D02*
X45879448Y-51063439D01*
X45879448Y-51063439D02*
X45803257Y-51063439D01*
X45803257Y-51063439D02*
X45688971Y-51025344D01*
X45688971Y-51025344D02*
X45612781Y-50949153D01*
X45612781Y-50949153D02*
X45574686Y-50872963D01*
X45574686Y-50872963D02*
X45536590Y-50720582D01*
X45536590Y-50720582D02*
X45536590Y-50606296D01*
X45536590Y-50606296D02*
X45574686Y-50453915D01*
X45574686Y-50453915D02*
X45612781Y-50377724D01*
X45612781Y-50377724D02*
X45688971Y-50301534D01*
X45688971Y-50301534D02*
X45803257Y-50263439D01*
X45803257Y-50263439D02*
X45879448Y-50263439D01*
X45879448Y-50263439D02*
X45993733Y-50301534D01*
X45993733Y-50301534D02*
X46031829Y-50339629D01*
X46831829Y-50987248D02*
X46793733Y-51025344D01*
X46793733Y-51025344D02*
X46679448Y-51063439D01*
X46679448Y-51063439D02*
X46603257Y-51063439D01*
X46603257Y-51063439D02*
X46488971Y-51025344D01*
X46488971Y-51025344D02*
X46412781Y-50949153D01*
X46412781Y-50949153D02*
X46374686Y-50872963D01*
X46374686Y-50872963D02*
X46336590Y-50720582D01*
X46336590Y-50720582D02*
X46336590Y-50606296D01*
X46336590Y-50606296D02*
X46374686Y-50453915D01*
X46374686Y-50453915D02*
X46412781Y-50377724D01*
X46412781Y-50377724D02*
X46488971Y-50301534D01*
X46488971Y-50301534D02*
X46603257Y-50263439D01*
X46603257Y-50263439D02*
X46679448Y-50263439D01*
X46679448Y-50263439D02*
X46793733Y-50301534D01*
X46793733Y-50301534D02*
X46831829Y-50339629D01*
X47136590Y-50339629D02*
X47174686Y-50301534D01*
X47174686Y-50301534D02*
X47250876Y-50263439D01*
X47250876Y-50263439D02*
X47441352Y-50263439D01*
X47441352Y-50263439D02*
X47517543Y-50301534D01*
X47517543Y-50301534D02*
X47555638Y-50339629D01*
X47555638Y-50339629D02*
X47593733Y-50415820D01*
X47593733Y-50415820D02*
X47593733Y-50492010D01*
X47593733Y-50492010D02*
X47555638Y-50606296D01*
X47555638Y-50606296D02*
X47098495Y-51063439D01*
X47098495Y-51063439D02*
X47593733Y-51063439D01*
D11*
X104909021Y-34666012D02*
X105594736Y-34666012D01*
X105251878Y-35008869D02*
X105251878Y-34323154D01*
X109309021Y-34666012D02*
X109994736Y-34666012D01*
D12*
X58691979Y-56399728D02*
X58691979Y-57185443D01*
X58691979Y-57185443D02*
X58639598Y-57342586D01*
X58639598Y-57342586D02*
X58534836Y-57447348D01*
X58534836Y-57447348D02*
X58377693Y-57499728D01*
X58377693Y-57499728D02*
X58272931Y-57499728D01*
X59111026Y-56399728D02*
X59791979Y-56399728D01*
X59791979Y-56399728D02*
X59425312Y-56818776D01*
X59425312Y-56818776D02*
X59582455Y-56818776D01*
X59582455Y-56818776D02*
X59687217Y-56871157D01*
X59687217Y-56871157D02*
X59739598Y-56923538D01*
X59739598Y-56923538D02*
X59791979Y-57028300D01*
X59791979Y-57028300D02*
X59791979Y-57290205D01*
X59791979Y-57290205D02*
X59739598Y-57394967D01*
X59739598Y-57394967D02*
X59687217Y-57447348D01*
X59687217Y-57447348D02*
X59582455Y-57499728D01*
X59582455Y-57499728D02*
X59268169Y-57499728D01*
X59268169Y-57499728D02*
X59163407Y-57447348D01*
X59163407Y-57447348D02*
X59111026Y-57394967D01*
X61101502Y-57499728D02*
X61101502Y-56399728D01*
X61101502Y-56399728D02*
X61363407Y-56399728D01*
X61363407Y-56399728D02*
X61520550Y-56452109D01*
X61520550Y-56452109D02*
X61625312Y-56556871D01*
X61625312Y-56556871D02*
X61677693Y-56661633D01*
X61677693Y-56661633D02*
X61730074Y-56871157D01*
X61730074Y-56871157D02*
X61730074Y-57028300D01*
X61730074Y-57028300D02*
X61677693Y-57237824D01*
X61677693Y-57237824D02*
X61625312Y-57342586D01*
X61625312Y-57342586D02*
X61520550Y-57447348D01*
X61520550Y-57447348D02*
X61363407Y-57499728D01*
X61363407Y-57499728D02*
X61101502Y-57499728D01*
X62201502Y-57499728D02*
X62201502Y-56766395D01*
X62201502Y-56399728D02*
X62149121Y-56452109D01*
X62149121Y-56452109D02*
X62201502Y-56504490D01*
X62201502Y-56504490D02*
X62253883Y-56452109D01*
X62253883Y-56452109D02*
X62201502Y-56399728D01*
X62201502Y-56399728D02*
X62201502Y-56504490D01*
X62672931Y-57447348D02*
X62777693Y-57499728D01*
X62777693Y-57499728D02*
X62987217Y-57499728D01*
X62987217Y-57499728D02*
X63091979Y-57447348D01*
X63091979Y-57447348D02*
X63144360Y-57342586D01*
X63144360Y-57342586D02*
X63144360Y-57290205D01*
X63144360Y-57290205D02*
X63091979Y-57185443D01*
X63091979Y-57185443D02*
X62987217Y-57133062D01*
X62987217Y-57133062D02*
X62830074Y-57133062D01*
X62830074Y-57133062D02*
X62725312Y-57080681D01*
X62725312Y-57080681D02*
X62672931Y-56975919D01*
X62672931Y-56975919D02*
X62672931Y-56923538D01*
X62672931Y-56923538D02*
X62725312Y-56818776D01*
X62725312Y-56818776D02*
X62830074Y-56766395D01*
X62830074Y-56766395D02*
X62987217Y-56766395D01*
X62987217Y-56766395D02*
X63091979Y-56818776D01*
X63615788Y-56766395D02*
X63615788Y-57866395D01*
X63615788Y-56818776D02*
X63720550Y-56766395D01*
X63720550Y-56766395D02*
X63930074Y-56766395D01*
X63930074Y-56766395D02*
X64034836Y-56818776D01*
X64034836Y-56818776D02*
X64087217Y-56871157D01*
X64087217Y-56871157D02*
X64139598Y-56975919D01*
X64139598Y-56975919D02*
X64139598Y-57290205D01*
X64139598Y-57290205D02*
X64087217Y-57394967D01*
X64087217Y-57394967D02*
X64034836Y-57447348D01*
X64034836Y-57447348D02*
X63930074Y-57499728D01*
X63930074Y-57499728D02*
X63720550Y-57499728D01*
X63720550Y-57499728D02*
X63615788Y-57447348D01*
X64768169Y-57499728D02*
X64663407Y-57447348D01*
X64663407Y-57447348D02*
X64611026Y-57342586D01*
X64611026Y-57342586D02*
X64611026Y-56399728D01*
X65658645Y-57499728D02*
X65658645Y-56923538D01*
X65658645Y-56923538D02*
X65606264Y-56818776D01*
X65606264Y-56818776D02*
X65501502Y-56766395D01*
X65501502Y-56766395D02*
X65291978Y-56766395D01*
X65291978Y-56766395D02*
X65187216Y-56818776D01*
X65658645Y-57447348D02*
X65553883Y-57499728D01*
X65553883Y-57499728D02*
X65291978Y-57499728D01*
X65291978Y-57499728D02*
X65187216Y-57447348D01*
X65187216Y-57447348D02*
X65134835Y-57342586D01*
X65134835Y-57342586D02*
X65134835Y-57237824D01*
X65134835Y-57237824D02*
X65187216Y-57133062D01*
X65187216Y-57133062D02*
X65291978Y-57080681D01*
X65291978Y-57080681D02*
X65553883Y-57080681D01*
X65553883Y-57080681D02*
X65658645Y-57028300D01*
X66077692Y-56766395D02*
X66339597Y-57499728D01*
X66601502Y-56766395D02*
X66339597Y-57499728D01*
X66339597Y-57499728D02*
X66234835Y-57761633D01*
X66234835Y-57761633D02*
X66182454Y-57814014D01*
X66182454Y-57814014D02*
X66077692Y-57866395D01*
X67020549Y-57394967D02*
X67072930Y-57447348D01*
X67072930Y-57447348D02*
X67020549Y-57499728D01*
X67020549Y-57499728D02*
X66968168Y-57447348D01*
X66968168Y-57447348D02*
X67020549Y-57394967D01*
X67020549Y-57394967D02*
X67020549Y-57499728D01*
X67020549Y-56818776D02*
X67072930Y-56871157D01*
X67072930Y-56871157D02*
X67020549Y-56923538D01*
X67020549Y-56923538D02*
X66968168Y-56871157D01*
X66968168Y-56871157D02*
X67020549Y-56818776D01*
X67020549Y-56818776D02*
X67020549Y-56923538D01*
X69796740Y-57499728D02*
X69168168Y-57499728D01*
X69482454Y-57499728D02*
X69482454Y-56399728D01*
X69482454Y-56399728D02*
X69377692Y-56556871D01*
X69377692Y-56556871D02*
X69272930Y-56661633D01*
X69272930Y-56661633D02*
X69168168Y-56714014D01*
X71682454Y-56452109D02*
X71577692Y-56399728D01*
X71577692Y-56399728D02*
X71420549Y-56399728D01*
X71420549Y-56399728D02*
X71263406Y-56452109D01*
X71263406Y-56452109D02*
X71158644Y-56556871D01*
X71158644Y-56556871D02*
X71106263Y-56661633D01*
X71106263Y-56661633D02*
X71053882Y-56871157D01*
X71053882Y-56871157D02*
X71053882Y-57028300D01*
X71053882Y-57028300D02*
X71106263Y-57237824D01*
X71106263Y-57237824D02*
X71158644Y-57342586D01*
X71158644Y-57342586D02*
X71263406Y-57447348D01*
X71263406Y-57447348D02*
X71420549Y-57499728D01*
X71420549Y-57499728D02*
X71525311Y-57499728D01*
X71525311Y-57499728D02*
X71682454Y-57447348D01*
X71682454Y-57447348D02*
X71734835Y-57394967D01*
X71734835Y-57394967D02*
X71734835Y-57028300D01*
X71734835Y-57028300D02*
X71525311Y-57028300D01*
X72206263Y-57499728D02*
X72206263Y-56399728D01*
X72206263Y-56399728D02*
X72834835Y-57499728D01*
X72834835Y-57499728D02*
X72834835Y-56399728D01*
X73358644Y-57499728D02*
X73358644Y-56399728D01*
X73358644Y-56399728D02*
X73620549Y-56399728D01*
X73620549Y-56399728D02*
X73777692Y-56452109D01*
X73777692Y-56452109D02*
X73882454Y-56556871D01*
X73882454Y-56556871D02*
X73934835Y-56661633D01*
X73934835Y-56661633D02*
X73987216Y-56871157D01*
X73987216Y-56871157D02*
X73987216Y-57028300D01*
X73987216Y-57028300D02*
X73934835Y-57237824D01*
X73934835Y-57237824D02*
X73882454Y-57342586D01*
X73882454Y-57342586D02*
X73777692Y-57447348D01*
X73777692Y-57447348D02*
X73620549Y-57499728D01*
X73620549Y-57499728D02*
X73358644Y-57499728D01*
X76082453Y-56504490D02*
X76134834Y-56452109D01*
X76134834Y-56452109D02*
X76239596Y-56399728D01*
X76239596Y-56399728D02*
X76501501Y-56399728D01*
X76501501Y-56399728D02*
X76606263Y-56452109D01*
X76606263Y-56452109D02*
X76658644Y-56504490D01*
X76658644Y-56504490D02*
X76711025Y-56609252D01*
X76711025Y-56609252D02*
X76711025Y-56714014D01*
X76711025Y-56714014D02*
X76658644Y-56871157D01*
X76658644Y-56871157D02*
X76030072Y-57499728D01*
X76030072Y-57499728D02*
X76711025Y-57499728D01*
X77863405Y-56399728D02*
X78230072Y-57499728D01*
X78230072Y-57499728D02*
X78596739Y-56399728D01*
X79591977Y-57394967D02*
X79539596Y-57447348D01*
X79539596Y-57447348D02*
X79382453Y-57499728D01*
X79382453Y-57499728D02*
X79277691Y-57499728D01*
X79277691Y-57499728D02*
X79120548Y-57447348D01*
X79120548Y-57447348D02*
X79015786Y-57342586D01*
X79015786Y-57342586D02*
X78963405Y-57237824D01*
X78963405Y-57237824D02*
X78911024Y-57028300D01*
X78911024Y-57028300D02*
X78911024Y-56871157D01*
X78911024Y-56871157D02*
X78963405Y-56661633D01*
X78963405Y-56661633D02*
X79015786Y-56556871D01*
X79015786Y-56556871D02*
X79120548Y-56452109D01*
X79120548Y-56452109D02*
X79277691Y-56399728D01*
X79277691Y-56399728D02*
X79382453Y-56399728D01*
X79382453Y-56399728D02*
X79539596Y-56452109D01*
X79539596Y-56452109D02*
X79591977Y-56504490D01*
X80691977Y-57394967D02*
X80639596Y-57447348D01*
X80639596Y-57447348D02*
X80482453Y-57499728D01*
X80482453Y-57499728D02*
X80377691Y-57499728D01*
X80377691Y-57499728D02*
X80220548Y-57447348D01*
X80220548Y-57447348D02*
X80115786Y-57342586D01*
X80115786Y-57342586D02*
X80063405Y-57237824D01*
X80063405Y-57237824D02*
X80011024Y-57028300D01*
X80011024Y-57028300D02*
X80011024Y-56871157D01*
X80011024Y-56871157D02*
X80063405Y-56661633D01*
X80063405Y-56661633D02*
X80115786Y-56556871D01*
X80115786Y-56556871D02*
X80220548Y-56452109D01*
X80220548Y-56452109D02*
X80377691Y-56399728D01*
X80377691Y-56399728D02*
X80482453Y-56399728D01*
X80482453Y-56399728D02*
X80639596Y-56452109D01*
X80639596Y-56452109D02*
X80691977Y-56504490D01*
X82734833Y-56399728D02*
X83415786Y-56399728D01*
X83415786Y-56399728D02*
X83049119Y-56818776D01*
X83049119Y-56818776D02*
X83206262Y-56818776D01*
X83206262Y-56818776D02*
X83311024Y-56871157D01*
X83311024Y-56871157D02*
X83363405Y-56923538D01*
X83363405Y-56923538D02*
X83415786Y-57028300D01*
X83415786Y-57028300D02*
X83415786Y-57290205D01*
X83415786Y-57290205D02*
X83363405Y-57394967D01*
X83363405Y-57394967D02*
X83311024Y-57447348D01*
X83311024Y-57447348D02*
X83206262Y-57499728D01*
X83206262Y-57499728D02*
X82891976Y-57499728D01*
X82891976Y-57499728D02*
X82787214Y-57447348D01*
X82787214Y-57447348D02*
X82734833Y-57394967D01*
X84672928Y-57447348D02*
X84830071Y-57499728D01*
X84830071Y-57499728D02*
X85091976Y-57499728D01*
X85091976Y-57499728D02*
X85196738Y-57447348D01*
X85196738Y-57447348D02*
X85249119Y-57394967D01*
X85249119Y-57394967D02*
X85301500Y-57290205D01*
X85301500Y-57290205D02*
X85301500Y-57185443D01*
X85301500Y-57185443D02*
X85249119Y-57080681D01*
X85249119Y-57080681D02*
X85196738Y-57028300D01*
X85196738Y-57028300D02*
X85091976Y-56975919D01*
X85091976Y-56975919D02*
X84882452Y-56923538D01*
X84882452Y-56923538D02*
X84777690Y-56871157D01*
X84777690Y-56871157D02*
X84725309Y-56818776D01*
X84725309Y-56818776D02*
X84672928Y-56714014D01*
X84672928Y-56714014D02*
X84672928Y-56609252D01*
X84672928Y-56609252D02*
X84725309Y-56504490D01*
X84725309Y-56504490D02*
X84777690Y-56452109D01*
X84777690Y-56452109D02*
X84882452Y-56399728D01*
X84882452Y-56399728D02*
X85144357Y-56399728D01*
X85144357Y-56399728D02*
X85301500Y-56452109D01*
X86401500Y-57394967D02*
X86349119Y-57447348D01*
X86349119Y-57447348D02*
X86191976Y-57499728D01*
X86191976Y-57499728D02*
X86087214Y-57499728D01*
X86087214Y-57499728D02*
X85930071Y-57447348D01*
X85930071Y-57447348D02*
X85825309Y-57342586D01*
X85825309Y-57342586D02*
X85772928Y-57237824D01*
X85772928Y-57237824D02*
X85720547Y-57028300D01*
X85720547Y-57028300D02*
X85720547Y-56871157D01*
X85720547Y-56871157D02*
X85772928Y-56661633D01*
X85772928Y-56661633D02*
X85825309Y-56556871D01*
X85825309Y-56556871D02*
X85930071Y-56452109D01*
X85930071Y-56452109D02*
X86087214Y-56399728D01*
X86087214Y-56399728D02*
X86191976Y-56399728D01*
X86191976Y-56399728D02*
X86349119Y-56452109D01*
X86349119Y-56452109D02*
X86401500Y-56504490D01*
X87396738Y-57499728D02*
X86872928Y-57499728D01*
X86872928Y-57499728D02*
X86872928Y-56399728D01*
X87763404Y-57499728D02*
X87763404Y-56399728D01*
X88391976Y-57499728D02*
X87920547Y-56871157D01*
X88391976Y-56399728D02*
X87763404Y-57028300D01*
X91011023Y-56766395D02*
X91011023Y-57499728D01*
X90749118Y-56347348D02*
X90487213Y-57133062D01*
X90487213Y-57133062D02*
X91168166Y-57133062D01*
X92425308Y-57499728D02*
X92425308Y-56399728D01*
X92425308Y-56399728D02*
X92791975Y-57185443D01*
X92791975Y-57185443D02*
X93158642Y-56399728D01*
X93158642Y-56399728D02*
X93158642Y-57499728D01*
X93891975Y-56399728D02*
X94101499Y-56399728D01*
X94101499Y-56399728D02*
X94206261Y-56452109D01*
X94206261Y-56452109D02*
X94311023Y-56556871D01*
X94311023Y-56556871D02*
X94363404Y-56766395D01*
X94363404Y-56766395D02*
X94363404Y-57133062D01*
X94363404Y-57133062D02*
X94311023Y-57342586D01*
X94311023Y-57342586D02*
X94206261Y-57447348D01*
X94206261Y-57447348D02*
X94101499Y-57499728D01*
X94101499Y-57499728D02*
X93891975Y-57499728D01*
X93891975Y-57499728D02*
X93787213Y-57447348D01*
X93787213Y-57447348D02*
X93682451Y-57342586D01*
X93682451Y-57342586D02*
X93630070Y-57133062D01*
X93630070Y-57133062D02*
X93630070Y-56766395D01*
X93630070Y-56766395D02*
X93682451Y-56556871D01*
X93682451Y-56556871D02*
X93787213Y-56452109D01*
X93787213Y-56452109D02*
X93891975Y-56399728D01*
X94782451Y-57447348D02*
X94939594Y-57499728D01*
X94939594Y-57499728D02*
X95201499Y-57499728D01*
X95201499Y-57499728D02*
X95306261Y-57447348D01*
X95306261Y-57447348D02*
X95358642Y-57394967D01*
X95358642Y-57394967D02*
X95411023Y-57290205D01*
X95411023Y-57290205D02*
X95411023Y-57185443D01*
X95411023Y-57185443D02*
X95358642Y-57080681D01*
X95358642Y-57080681D02*
X95306261Y-57028300D01*
X95306261Y-57028300D02*
X95201499Y-56975919D01*
X95201499Y-56975919D02*
X94991975Y-56923538D01*
X94991975Y-56923538D02*
X94887213Y-56871157D01*
X94887213Y-56871157D02*
X94834832Y-56818776D01*
X94834832Y-56818776D02*
X94782451Y-56714014D01*
X94782451Y-56714014D02*
X94782451Y-56609252D01*
X94782451Y-56609252D02*
X94834832Y-56504490D01*
X94834832Y-56504490D02*
X94887213Y-56452109D01*
X94887213Y-56452109D02*
X94991975Y-56399728D01*
X94991975Y-56399728D02*
X95253880Y-56399728D01*
X95253880Y-56399728D02*
X95411023Y-56452109D01*
X95882451Y-57499728D02*
X95882451Y-56399728D01*
X98606261Y-56399728D02*
X98082451Y-56399728D01*
X98082451Y-56399728D02*
X98030070Y-56923538D01*
X98030070Y-56923538D02*
X98082451Y-56871157D01*
X98082451Y-56871157D02*
X98187213Y-56818776D01*
X98187213Y-56818776D02*
X98449118Y-56818776D01*
X98449118Y-56818776D02*
X98553880Y-56871157D01*
X98553880Y-56871157D02*
X98606261Y-56923538D01*
X98606261Y-56923538D02*
X98658642Y-57028300D01*
X98658642Y-57028300D02*
X98658642Y-57290205D01*
X98658642Y-57290205D02*
X98606261Y-57394967D01*
X98606261Y-57394967D02*
X98553880Y-57447348D01*
X98553880Y-57447348D02*
X98449118Y-57499728D01*
X98449118Y-57499728D02*
X98187213Y-57499728D01*
X98187213Y-57499728D02*
X98082451Y-57447348D01*
X98082451Y-57447348D02*
X98030070Y-57394967D01*
X100596737Y-57499728D02*
X100230070Y-56975919D01*
X99968165Y-57499728D02*
X99968165Y-56399728D01*
X99968165Y-56399728D02*
X100387213Y-56399728D01*
X100387213Y-56399728D02*
X100491975Y-56452109D01*
X100491975Y-56452109D02*
X100544356Y-56504490D01*
X100544356Y-56504490D02*
X100596737Y-56609252D01*
X100596737Y-56609252D02*
X100596737Y-56766395D01*
X100596737Y-56766395D02*
X100544356Y-56871157D01*
X100544356Y-56871157D02*
X100491975Y-56923538D01*
X100491975Y-56923538D02*
X100387213Y-56975919D01*
X100387213Y-56975919D02*
X99968165Y-56975919D01*
X101068165Y-56923538D02*
X101434832Y-56923538D01*
X101591975Y-57499728D02*
X101068165Y-57499728D01*
X101068165Y-57499728D02*
X101068165Y-56399728D01*
X101068165Y-56399728D02*
X101591975Y-56399728D01*
X102011022Y-57447348D02*
X102168165Y-57499728D01*
X102168165Y-57499728D02*
X102430070Y-57499728D01*
X102430070Y-57499728D02*
X102534832Y-57447348D01*
X102534832Y-57447348D02*
X102587213Y-57394967D01*
X102587213Y-57394967D02*
X102639594Y-57290205D01*
X102639594Y-57290205D02*
X102639594Y-57185443D01*
X102639594Y-57185443D02*
X102587213Y-57080681D01*
X102587213Y-57080681D02*
X102534832Y-57028300D01*
X102534832Y-57028300D02*
X102430070Y-56975919D01*
X102430070Y-56975919D02*
X102220546Y-56923538D01*
X102220546Y-56923538D02*
X102115784Y-56871157D01*
X102115784Y-56871157D02*
X102063403Y-56818776D01*
X102063403Y-56818776D02*
X102011022Y-56714014D01*
X102011022Y-56714014D02*
X102011022Y-56609252D01*
X102011022Y-56609252D02*
X102063403Y-56504490D01*
X102063403Y-56504490D02*
X102115784Y-56452109D01*
X102115784Y-56452109D02*
X102220546Y-56399728D01*
X102220546Y-56399728D02*
X102482451Y-56399728D01*
X102482451Y-56399728D02*
X102639594Y-56452109D01*
X105258641Y-56399728D02*
X105049117Y-56399728D01*
X105049117Y-56399728D02*
X104944355Y-56452109D01*
X104944355Y-56452109D02*
X104891974Y-56504490D01*
X104891974Y-56504490D02*
X104787212Y-56661633D01*
X104787212Y-56661633D02*
X104734831Y-56871157D01*
X104734831Y-56871157D02*
X104734831Y-57290205D01*
X104734831Y-57290205D02*
X104787212Y-57394967D01*
X104787212Y-57394967D02*
X104839593Y-57447348D01*
X104839593Y-57447348D02*
X104944355Y-57499728D01*
X104944355Y-57499728D02*
X105153879Y-57499728D01*
X105153879Y-57499728D02*
X105258641Y-57447348D01*
X105258641Y-57447348D02*
X105311022Y-57394967D01*
X105311022Y-57394967D02*
X105363403Y-57290205D01*
X105363403Y-57290205D02*
X105363403Y-57028300D01*
X105363403Y-57028300D02*
X105311022Y-56923538D01*
X105311022Y-56923538D02*
X105258641Y-56871157D01*
X105258641Y-56871157D02*
X105153879Y-56818776D01*
X105153879Y-56818776D02*
X104944355Y-56818776D01*
X104944355Y-56818776D02*
X104839593Y-56871157D01*
X104839593Y-56871157D02*
X104787212Y-56923538D01*
X104787212Y-56923538D02*
X104734831Y-57028300D01*
X106672926Y-57499728D02*
X106672926Y-56399728D01*
X106672926Y-56399728D02*
X106934831Y-56399728D01*
X106934831Y-56399728D02*
X107091974Y-56452109D01*
X107091974Y-56452109D02*
X107196736Y-56556871D01*
X107196736Y-56556871D02*
X107249117Y-56661633D01*
X107249117Y-56661633D02*
X107301498Y-56871157D01*
X107301498Y-56871157D02*
X107301498Y-57028300D01*
X107301498Y-57028300D02*
X107249117Y-57237824D01*
X107249117Y-57237824D02*
X107196736Y-57342586D01*
X107196736Y-57342586D02*
X107091974Y-57447348D01*
X107091974Y-57447348D02*
X106934831Y-57499728D01*
X106934831Y-57499728D02*
X106672926Y-57499728D01*
X108401498Y-57394967D02*
X108349117Y-57447348D01*
X108349117Y-57447348D02*
X108191974Y-57499728D01*
X108191974Y-57499728D02*
X108087212Y-57499728D01*
X108087212Y-57499728D02*
X107930069Y-57447348D01*
X107930069Y-57447348D02*
X107825307Y-57342586D01*
X107825307Y-57342586D02*
X107772926Y-57237824D01*
X107772926Y-57237824D02*
X107720545Y-57028300D01*
X107720545Y-57028300D02*
X107720545Y-56871157D01*
X107720545Y-56871157D02*
X107772926Y-56661633D01*
X107772926Y-56661633D02*
X107825307Y-56556871D01*
X107825307Y-56556871D02*
X107930069Y-56452109D01*
X107930069Y-56452109D02*
X108087212Y-56399728D01*
X108087212Y-56399728D02*
X108191974Y-56399728D01*
X108191974Y-56399728D02*
X108349117Y-56452109D01*
X108349117Y-56452109D02*
X108401498Y-56504490D01*
X110444354Y-56399728D02*
X111177688Y-56399728D01*
X111177688Y-56399728D02*
X110706259Y-57499728D01*
X113063402Y-57394967D02*
X113011021Y-57447348D01*
X113011021Y-57447348D02*
X112853878Y-57499728D01*
X112853878Y-57499728D02*
X112749116Y-57499728D01*
X112749116Y-57499728D02*
X112591973Y-57447348D01*
X112591973Y-57447348D02*
X112487211Y-57342586D01*
X112487211Y-57342586D02*
X112434830Y-57237824D01*
X112434830Y-57237824D02*
X112382449Y-57028300D01*
X112382449Y-57028300D02*
X112382449Y-56871157D01*
X112382449Y-56871157D02*
X112434830Y-56661633D01*
X112434830Y-56661633D02*
X112487211Y-56556871D01*
X112487211Y-56556871D02*
X112591973Y-56452109D01*
X112591973Y-56452109D02*
X112749116Y-56399728D01*
X112749116Y-56399728D02*
X112853878Y-56399728D01*
X112853878Y-56399728D02*
X113011021Y-56452109D01*
X113011021Y-56452109D02*
X113063402Y-56504490D01*
X113482449Y-57447348D02*
X113639592Y-57499728D01*
X113639592Y-57499728D02*
X113901497Y-57499728D01*
X113901497Y-57499728D02*
X114006259Y-57447348D01*
X114006259Y-57447348D02*
X114058640Y-57394967D01*
X114058640Y-57394967D02*
X114111021Y-57290205D01*
X114111021Y-57290205D02*
X114111021Y-57185443D01*
X114111021Y-57185443D02*
X114058640Y-57080681D01*
X114058640Y-57080681D02*
X114006259Y-57028300D01*
X114006259Y-57028300D02*
X113901497Y-56975919D01*
X113901497Y-56975919D02*
X113691973Y-56923538D01*
X113691973Y-56923538D02*
X113587211Y-56871157D01*
X113587211Y-56871157D02*
X113534830Y-56818776D01*
X113534830Y-56818776D02*
X113482449Y-56714014D01*
X113482449Y-56714014D02*
X113482449Y-56609252D01*
X113482449Y-56609252D02*
X113534830Y-56504490D01*
X113534830Y-56504490D02*
X113587211Y-56452109D01*
X113587211Y-56452109D02*
X113691973Y-56399728D01*
X113691973Y-56399728D02*
X113953878Y-56399728D01*
X113953878Y-56399728D02*
X114111021Y-56452109D01*
X58901503Y-60999728D02*
X58377693Y-60999728D01*
X58377693Y-60999728D02*
X58377693Y-59899728D01*
X59739598Y-60999728D02*
X59739598Y-60423538D01*
X59739598Y-60423538D02*
X59687217Y-60318776D01*
X59687217Y-60318776D02*
X59582455Y-60266395D01*
X59582455Y-60266395D02*
X59372931Y-60266395D01*
X59372931Y-60266395D02*
X59268169Y-60318776D01*
X59739598Y-60947348D02*
X59634836Y-60999728D01*
X59634836Y-60999728D02*
X59372931Y-60999728D01*
X59372931Y-60999728D02*
X59268169Y-60947348D01*
X59268169Y-60947348D02*
X59215788Y-60842586D01*
X59215788Y-60842586D02*
X59215788Y-60737824D01*
X59215788Y-60737824D02*
X59268169Y-60633062D01*
X59268169Y-60633062D02*
X59372931Y-60580681D01*
X59372931Y-60580681D02*
X59634836Y-60580681D01*
X59634836Y-60580681D02*
X59739598Y-60528300D01*
X60734836Y-60999728D02*
X60734836Y-59899728D01*
X60734836Y-60947348D02*
X60630074Y-60999728D01*
X60630074Y-60999728D02*
X60420550Y-60999728D01*
X60420550Y-60999728D02*
X60315788Y-60947348D01*
X60315788Y-60947348D02*
X60263407Y-60894967D01*
X60263407Y-60894967D02*
X60211026Y-60790205D01*
X60211026Y-60790205D02*
X60211026Y-60475919D01*
X60211026Y-60475919D02*
X60263407Y-60371157D01*
X60263407Y-60371157D02*
X60315788Y-60318776D01*
X60315788Y-60318776D02*
X60420550Y-60266395D01*
X60420550Y-60266395D02*
X60630074Y-60266395D01*
X60630074Y-60266395D02*
X60734836Y-60318776D01*
X61677693Y-60947348D02*
X61572931Y-60999728D01*
X61572931Y-60999728D02*
X61363407Y-60999728D01*
X61363407Y-60999728D02*
X61258645Y-60947348D01*
X61258645Y-60947348D02*
X61206264Y-60842586D01*
X61206264Y-60842586D02*
X61206264Y-60423538D01*
X61206264Y-60423538D02*
X61258645Y-60318776D01*
X61258645Y-60318776D02*
X61363407Y-60266395D01*
X61363407Y-60266395D02*
X61572931Y-60266395D01*
X61572931Y-60266395D02*
X61677693Y-60318776D01*
X61677693Y-60318776D02*
X61730074Y-60423538D01*
X61730074Y-60423538D02*
X61730074Y-60528300D01*
X61730074Y-60528300D02*
X61206264Y-60633062D01*
X62201502Y-60266395D02*
X62201502Y-60999728D01*
X62201502Y-60371157D02*
X62253883Y-60318776D01*
X62253883Y-60318776D02*
X62358645Y-60266395D01*
X62358645Y-60266395D02*
X62515788Y-60266395D01*
X62515788Y-60266395D02*
X62620550Y-60318776D01*
X62620550Y-60318776D02*
X62672931Y-60423538D01*
X62672931Y-60423538D02*
X62672931Y-60999728D01*
X64034835Y-60266395D02*
X64034835Y-60999728D01*
X64034835Y-60371157D02*
X64087216Y-60318776D01*
X64087216Y-60318776D02*
X64191978Y-60266395D01*
X64191978Y-60266395D02*
X64349121Y-60266395D01*
X64349121Y-60266395D02*
X64453883Y-60318776D01*
X64453883Y-60318776D02*
X64506264Y-60423538D01*
X64506264Y-60423538D02*
X64506264Y-60999728D01*
X65501502Y-60266395D02*
X65501502Y-60999728D01*
X65030073Y-60266395D02*
X65030073Y-60842586D01*
X65030073Y-60842586D02*
X65082454Y-60947348D01*
X65082454Y-60947348D02*
X65187216Y-60999728D01*
X65187216Y-60999728D02*
X65344359Y-60999728D01*
X65344359Y-60999728D02*
X65449121Y-60947348D01*
X65449121Y-60947348D02*
X65501502Y-60894967D01*
X66025311Y-60999728D02*
X66025311Y-60266395D01*
X66025311Y-60475919D02*
X66077692Y-60371157D01*
X66077692Y-60371157D02*
X66130073Y-60318776D01*
X66130073Y-60318776D02*
X66234835Y-60266395D01*
X66234835Y-60266395D02*
X66339597Y-60266395D01*
X67544358Y-60999728D02*
X67544358Y-60266395D01*
X67544358Y-59899728D02*
X67491977Y-59952109D01*
X67491977Y-59952109D02*
X67544358Y-60004490D01*
X67544358Y-60004490D02*
X67596739Y-59952109D01*
X67596739Y-59952109D02*
X67544358Y-59899728D01*
X67544358Y-59899728D02*
X67544358Y-60004490D01*
X68068168Y-60999728D02*
X68068168Y-60266395D01*
X68068168Y-60371157D02*
X68120549Y-60318776D01*
X68120549Y-60318776D02*
X68225311Y-60266395D01*
X68225311Y-60266395D02*
X68382454Y-60266395D01*
X68382454Y-60266395D02*
X68487216Y-60318776D01*
X68487216Y-60318776D02*
X68539597Y-60423538D01*
X68539597Y-60423538D02*
X68539597Y-60999728D01*
X68539597Y-60423538D02*
X68591978Y-60318776D01*
X68591978Y-60318776D02*
X68696740Y-60266395D01*
X68696740Y-60266395D02*
X68853883Y-60266395D01*
X68853883Y-60266395D02*
X68958644Y-60318776D01*
X68958644Y-60318776D02*
X69011025Y-60423538D01*
X69011025Y-60423538D02*
X69011025Y-60999728D01*
X70844359Y-60999728D02*
X70844359Y-60423538D01*
X70844359Y-60423538D02*
X70791978Y-60318776D01*
X70791978Y-60318776D02*
X70687216Y-60266395D01*
X70687216Y-60266395D02*
X70477692Y-60266395D01*
X70477692Y-60266395D02*
X70372930Y-60318776D01*
X70844359Y-60947348D02*
X70739597Y-60999728D01*
X70739597Y-60999728D02*
X70477692Y-60999728D01*
X70477692Y-60999728D02*
X70372930Y-60947348D01*
X70372930Y-60947348D02*
X70320549Y-60842586D01*
X70320549Y-60842586D02*
X70320549Y-60737824D01*
X70320549Y-60737824D02*
X70372930Y-60633062D01*
X70372930Y-60633062D02*
X70477692Y-60580681D01*
X70477692Y-60580681D02*
X70739597Y-60580681D01*
X70739597Y-60580681D02*
X70844359Y-60528300D01*
X71839597Y-60266395D02*
X71839597Y-60999728D01*
X71368168Y-60266395D02*
X71368168Y-60842586D01*
X71368168Y-60842586D02*
X71420549Y-60947348D01*
X71420549Y-60947348D02*
X71525311Y-60999728D01*
X71525311Y-60999728D02*
X71682454Y-60999728D01*
X71682454Y-60999728D02*
X71787216Y-60947348D01*
X71787216Y-60947348D02*
X71839597Y-60894967D01*
X72311025Y-60947348D02*
X72415787Y-60999728D01*
X72415787Y-60999728D02*
X72625311Y-60999728D01*
X72625311Y-60999728D02*
X72730073Y-60947348D01*
X72730073Y-60947348D02*
X72782454Y-60842586D01*
X72782454Y-60842586D02*
X72782454Y-60790205D01*
X72782454Y-60790205D02*
X72730073Y-60685443D01*
X72730073Y-60685443D02*
X72625311Y-60633062D01*
X72625311Y-60633062D02*
X72468168Y-60633062D01*
X72468168Y-60633062D02*
X72363406Y-60580681D01*
X72363406Y-60580681D02*
X72311025Y-60475919D01*
X72311025Y-60475919D02*
X72311025Y-60423538D01*
X72311025Y-60423538D02*
X72363406Y-60318776D01*
X72363406Y-60318776D02*
X72468168Y-60266395D01*
X72468168Y-60266395D02*
X72625311Y-60266395D01*
X72625311Y-60266395D02*
X72730073Y-60318776D01*
X73725311Y-60266395D02*
X73725311Y-61156871D01*
X73725311Y-61156871D02*
X73672930Y-61261633D01*
X73672930Y-61261633D02*
X73620549Y-61314014D01*
X73620549Y-61314014D02*
X73515787Y-61366395D01*
X73515787Y-61366395D02*
X73358644Y-61366395D01*
X73358644Y-61366395D02*
X73253882Y-61314014D01*
X73725311Y-60947348D02*
X73620549Y-60999728D01*
X73620549Y-60999728D02*
X73411025Y-60999728D01*
X73411025Y-60999728D02*
X73306263Y-60947348D01*
X73306263Y-60947348D02*
X73253882Y-60894967D01*
X73253882Y-60894967D02*
X73201501Y-60790205D01*
X73201501Y-60790205D02*
X73201501Y-60475919D01*
X73201501Y-60475919D02*
X73253882Y-60371157D01*
X73253882Y-60371157D02*
X73306263Y-60318776D01*
X73306263Y-60318776D02*
X73411025Y-60266395D01*
X73411025Y-60266395D02*
X73620549Y-60266395D01*
X73620549Y-60266395D02*
X73725311Y-60318776D01*
X74668168Y-60947348D02*
X74563406Y-60999728D01*
X74563406Y-60999728D02*
X74353882Y-60999728D01*
X74353882Y-60999728D02*
X74249120Y-60947348D01*
X74249120Y-60947348D02*
X74196739Y-60842586D01*
X74196739Y-60842586D02*
X74196739Y-60423538D01*
X74196739Y-60423538D02*
X74249120Y-60318776D01*
X74249120Y-60318776D02*
X74353882Y-60266395D01*
X74353882Y-60266395D02*
X74563406Y-60266395D01*
X74563406Y-60266395D02*
X74668168Y-60318776D01*
X74668168Y-60318776D02*
X74720549Y-60423538D01*
X74720549Y-60423538D02*
X74720549Y-60528300D01*
X74720549Y-60528300D02*
X74196739Y-60633062D01*
X75139596Y-60947348D02*
X75244358Y-60999728D01*
X75244358Y-60999728D02*
X75453882Y-60999728D01*
X75453882Y-60999728D02*
X75558644Y-60947348D01*
X75558644Y-60947348D02*
X75611025Y-60842586D01*
X75611025Y-60842586D02*
X75611025Y-60790205D01*
X75611025Y-60790205D02*
X75558644Y-60685443D01*
X75558644Y-60685443D02*
X75453882Y-60633062D01*
X75453882Y-60633062D02*
X75296739Y-60633062D01*
X75296739Y-60633062D02*
X75191977Y-60580681D01*
X75191977Y-60580681D02*
X75139596Y-60475919D01*
X75139596Y-60475919D02*
X75139596Y-60423538D01*
X75139596Y-60423538D02*
X75191977Y-60318776D01*
X75191977Y-60318776D02*
X75296739Y-60266395D01*
X75296739Y-60266395D02*
X75453882Y-60266395D01*
X75453882Y-60266395D02*
X75558644Y-60318776D01*
X76553882Y-60947348D02*
X76449120Y-60999728D01*
X76449120Y-60999728D02*
X76239596Y-60999728D01*
X76239596Y-60999728D02*
X76134834Y-60947348D01*
X76134834Y-60947348D02*
X76082453Y-60894967D01*
X76082453Y-60894967D02*
X76030072Y-60790205D01*
X76030072Y-60790205D02*
X76030072Y-60475919D01*
X76030072Y-60475919D02*
X76082453Y-60371157D01*
X76082453Y-60371157D02*
X76134834Y-60318776D01*
X76134834Y-60318776D02*
X76239596Y-60266395D01*
X76239596Y-60266395D02*
X76449120Y-60266395D01*
X76449120Y-60266395D02*
X76553882Y-60318776D01*
X77025310Y-60999728D02*
X77025310Y-59899728D01*
X77496739Y-60999728D02*
X77496739Y-60423538D01*
X77496739Y-60423538D02*
X77444358Y-60318776D01*
X77444358Y-60318776D02*
X77339596Y-60266395D01*
X77339596Y-60266395D02*
X77182453Y-60266395D01*
X77182453Y-60266395D02*
X77077691Y-60318776D01*
X77077691Y-60318776D02*
X77025310Y-60371157D01*
X78491977Y-60999728D02*
X78491977Y-60423538D01*
X78491977Y-60423538D02*
X78439596Y-60318776D01*
X78439596Y-60318776D02*
X78334834Y-60266395D01*
X78334834Y-60266395D02*
X78125310Y-60266395D01*
X78125310Y-60266395D02*
X78020548Y-60318776D01*
X78491977Y-60947348D02*
X78387215Y-60999728D01*
X78387215Y-60999728D02*
X78125310Y-60999728D01*
X78125310Y-60999728D02*
X78020548Y-60947348D01*
X78020548Y-60947348D02*
X77968167Y-60842586D01*
X77968167Y-60842586D02*
X77968167Y-60737824D01*
X77968167Y-60737824D02*
X78020548Y-60633062D01*
X78020548Y-60633062D02*
X78125310Y-60580681D01*
X78125310Y-60580681D02*
X78387215Y-60580681D01*
X78387215Y-60580681D02*
X78491977Y-60528300D01*
X79172929Y-60999728D02*
X79068167Y-60947348D01*
X79068167Y-60947348D02*
X79015786Y-60842586D01*
X79015786Y-60842586D02*
X79015786Y-59899728D01*
X79434833Y-60266395D02*
X79853881Y-60266395D01*
X79591976Y-59899728D02*
X79591976Y-60842586D01*
X79591976Y-60842586D02*
X79644357Y-60947348D01*
X79644357Y-60947348D02*
X79749119Y-60999728D01*
X79749119Y-60999728D02*
X79853881Y-60999728D01*
X80639595Y-60947348D02*
X80534833Y-60999728D01*
X80534833Y-60999728D02*
X80325309Y-60999728D01*
X80325309Y-60999728D02*
X80220547Y-60947348D01*
X80220547Y-60947348D02*
X80168166Y-60842586D01*
X80168166Y-60842586D02*
X80168166Y-60423538D01*
X80168166Y-60423538D02*
X80220547Y-60318776D01*
X80220547Y-60318776D02*
X80325309Y-60266395D01*
X80325309Y-60266395D02*
X80534833Y-60266395D01*
X80534833Y-60266395D02*
X80639595Y-60318776D01*
X80639595Y-60318776D02*
X80691976Y-60423538D01*
X80691976Y-60423538D02*
X80691976Y-60528300D01*
X80691976Y-60528300D02*
X80168166Y-60633062D01*
X81006261Y-60266395D02*
X81425309Y-60266395D01*
X81163404Y-59899728D02*
X81163404Y-60842586D01*
X81163404Y-60842586D02*
X81215785Y-60947348D01*
X81215785Y-60947348D02*
X81320547Y-60999728D01*
X81320547Y-60999728D02*
X81425309Y-60999728D01*
X82211023Y-60947348D02*
X82106261Y-60999728D01*
X82106261Y-60999728D02*
X81896737Y-60999728D01*
X81896737Y-60999728D02*
X81791975Y-60947348D01*
X81791975Y-60947348D02*
X81739594Y-60842586D01*
X81739594Y-60842586D02*
X81739594Y-60423538D01*
X81739594Y-60423538D02*
X81791975Y-60318776D01*
X81791975Y-60318776D02*
X81896737Y-60266395D01*
X81896737Y-60266395D02*
X82106261Y-60266395D01*
X82106261Y-60266395D02*
X82211023Y-60318776D01*
X82211023Y-60318776D02*
X82263404Y-60423538D01*
X82263404Y-60423538D02*
X82263404Y-60528300D01*
X82263404Y-60528300D02*
X81739594Y-60633062D01*
X82734832Y-60266395D02*
X82734832Y-60999728D01*
X82734832Y-60371157D02*
X82787213Y-60318776D01*
X82787213Y-60318776D02*
X82891975Y-60266395D01*
X82891975Y-60266395D02*
X83049118Y-60266395D01*
X83049118Y-60266395D02*
X83153880Y-60318776D01*
X83153880Y-60318776D02*
X83206261Y-60423538D01*
X83206261Y-60423538D02*
X83206261Y-60999728D01*
X84463403Y-59899728D02*
X85196737Y-59899728D01*
X85196737Y-59899728D02*
X84463403Y-60999728D01*
X84463403Y-60999728D02*
X85196737Y-60999728D01*
X86087213Y-60266395D02*
X86087213Y-60999728D01*
X85615784Y-60266395D02*
X85615784Y-60842586D01*
X85615784Y-60842586D02*
X85668165Y-60947348D01*
X85668165Y-60947348D02*
X85772927Y-60999728D01*
X85772927Y-60999728D02*
X85930070Y-60999728D01*
X85930070Y-60999728D02*
X86034832Y-60947348D01*
X86034832Y-60947348D02*
X86087213Y-60894967D01*
X86558641Y-60947348D02*
X86663403Y-60999728D01*
X86663403Y-60999728D02*
X86872927Y-60999728D01*
X86872927Y-60999728D02*
X86977689Y-60947348D01*
X86977689Y-60947348D02*
X87030070Y-60842586D01*
X87030070Y-60842586D02*
X87030070Y-60790205D01*
X87030070Y-60790205D02*
X86977689Y-60685443D01*
X86977689Y-60685443D02*
X86872927Y-60633062D01*
X86872927Y-60633062D02*
X86715784Y-60633062D01*
X86715784Y-60633062D02*
X86611022Y-60580681D01*
X86611022Y-60580681D02*
X86558641Y-60475919D01*
X86558641Y-60475919D02*
X86558641Y-60423538D01*
X86558641Y-60423538D02*
X86611022Y-60318776D01*
X86611022Y-60318776D02*
X86715784Y-60266395D01*
X86715784Y-60266395D02*
X86872927Y-60266395D01*
X86872927Y-60266395D02*
X86977689Y-60318776D01*
X87344355Y-60266395D02*
X87763403Y-60266395D01*
X87501498Y-59899728D02*
X87501498Y-60842586D01*
X87501498Y-60842586D02*
X87553879Y-60947348D01*
X87553879Y-60947348D02*
X87658641Y-60999728D01*
X87658641Y-60999728D02*
X87763403Y-60999728D01*
X88601498Y-60999728D02*
X88601498Y-60423538D01*
X88601498Y-60423538D02*
X88549117Y-60318776D01*
X88549117Y-60318776D02*
X88444355Y-60266395D01*
X88444355Y-60266395D02*
X88234831Y-60266395D01*
X88234831Y-60266395D02*
X88130069Y-60318776D01*
X88601498Y-60947348D02*
X88496736Y-60999728D01*
X88496736Y-60999728D02*
X88234831Y-60999728D01*
X88234831Y-60999728D02*
X88130069Y-60947348D01*
X88130069Y-60947348D02*
X88077688Y-60842586D01*
X88077688Y-60842586D02*
X88077688Y-60737824D01*
X88077688Y-60737824D02*
X88130069Y-60633062D01*
X88130069Y-60633062D02*
X88234831Y-60580681D01*
X88234831Y-60580681D02*
X88496736Y-60580681D01*
X88496736Y-60580681D02*
X88601498Y-60528300D01*
X89125307Y-60266395D02*
X89125307Y-60999728D01*
X89125307Y-60371157D02*
X89177688Y-60318776D01*
X89177688Y-60318776D02*
X89282450Y-60266395D01*
X89282450Y-60266395D02*
X89439593Y-60266395D01*
X89439593Y-60266395D02*
X89544355Y-60318776D01*
X89544355Y-60318776D02*
X89596736Y-60423538D01*
X89596736Y-60423538D02*
X89596736Y-60999728D01*
X90591974Y-60999728D02*
X90591974Y-59899728D01*
X90591974Y-60947348D02*
X90487212Y-60999728D01*
X90487212Y-60999728D02*
X90277688Y-60999728D01*
X90277688Y-60999728D02*
X90172926Y-60947348D01*
X90172926Y-60947348D02*
X90120545Y-60894967D01*
X90120545Y-60894967D02*
X90068164Y-60790205D01*
X90068164Y-60790205D02*
X90068164Y-60475919D01*
X90068164Y-60475919D02*
X90120545Y-60371157D01*
X90120545Y-60371157D02*
X90172926Y-60318776D01*
X90172926Y-60318776D02*
X90277688Y-60266395D01*
X90277688Y-60266395D02*
X90487212Y-60266395D01*
X90487212Y-60266395D02*
X90591974Y-60318776D01*
X92268164Y-61418776D02*
X92215783Y-61366395D01*
X92215783Y-61366395D02*
X92111021Y-61209252D01*
X92111021Y-61209252D02*
X92058640Y-61104490D01*
X92058640Y-61104490D02*
X92006259Y-60947348D01*
X92006259Y-60947348D02*
X91953878Y-60685443D01*
X91953878Y-60685443D02*
X91953878Y-60475919D01*
X91953878Y-60475919D02*
X92006259Y-60214014D01*
X92006259Y-60214014D02*
X92058640Y-60056871D01*
X92058640Y-60056871D02*
X92111021Y-59952109D01*
X92111021Y-59952109D02*
X92215783Y-59794967D01*
X92215783Y-59794967D02*
X92268164Y-59742586D01*
X92687211Y-60999728D02*
X92687211Y-59899728D01*
X92791973Y-60580681D02*
X93106259Y-60999728D01*
X93106259Y-60266395D02*
X92687211Y-60685443D01*
X93996735Y-60947348D02*
X93891973Y-60999728D01*
X93891973Y-60999728D02*
X93682449Y-60999728D01*
X93682449Y-60999728D02*
X93577687Y-60947348D01*
X93577687Y-60947348D02*
X93525306Y-60842586D01*
X93525306Y-60842586D02*
X93525306Y-60423538D01*
X93525306Y-60423538D02*
X93577687Y-60318776D01*
X93577687Y-60318776D02*
X93682449Y-60266395D01*
X93682449Y-60266395D02*
X93891973Y-60266395D01*
X93891973Y-60266395D02*
X93996735Y-60318776D01*
X93996735Y-60318776D02*
X94049116Y-60423538D01*
X94049116Y-60423538D02*
X94049116Y-60528300D01*
X94049116Y-60528300D02*
X93525306Y-60633062D01*
X94520544Y-60999728D02*
X94520544Y-60266395D01*
X94520544Y-59899728D02*
X94468163Y-59952109D01*
X94468163Y-59952109D02*
X94520544Y-60004490D01*
X94520544Y-60004490D02*
X94572925Y-59952109D01*
X94572925Y-59952109D02*
X94520544Y-59899728D01*
X94520544Y-59899728D02*
X94520544Y-60004490D01*
X95044354Y-60266395D02*
X95044354Y-60999728D01*
X95044354Y-60371157D02*
X95096735Y-60318776D01*
X95096735Y-60318776D02*
X95201497Y-60266395D01*
X95201497Y-60266395D02*
X95358640Y-60266395D01*
X95358640Y-60266395D02*
X95463402Y-60318776D01*
X95463402Y-60318776D02*
X95515783Y-60423538D01*
X95515783Y-60423538D02*
X95515783Y-60999728D01*
X97401497Y-60999728D02*
X96877687Y-60999728D01*
X96877687Y-60999728D02*
X96877687Y-59899728D01*
X98239592Y-60999728D02*
X98239592Y-60423538D01*
X98239592Y-60423538D02*
X98187211Y-60318776D01*
X98187211Y-60318776D02*
X98082449Y-60266395D01*
X98082449Y-60266395D02*
X97872925Y-60266395D01*
X97872925Y-60266395D02*
X97768163Y-60318776D01*
X98239592Y-60947348D02*
X98134830Y-60999728D01*
X98134830Y-60999728D02*
X97872925Y-60999728D01*
X97872925Y-60999728D02*
X97768163Y-60947348D01*
X97768163Y-60947348D02*
X97715782Y-60842586D01*
X97715782Y-60842586D02*
X97715782Y-60737824D01*
X97715782Y-60737824D02*
X97768163Y-60633062D01*
X97768163Y-60633062D02*
X97872925Y-60580681D01*
X97872925Y-60580681D02*
X98134830Y-60580681D01*
X98134830Y-60580681D02*
X98239592Y-60528300D01*
X98711020Y-60947348D02*
X98815782Y-60999728D01*
X98815782Y-60999728D02*
X99025306Y-60999728D01*
X99025306Y-60999728D02*
X99130068Y-60947348D01*
X99130068Y-60947348D02*
X99182449Y-60842586D01*
X99182449Y-60842586D02*
X99182449Y-60790205D01*
X99182449Y-60790205D02*
X99130068Y-60685443D01*
X99130068Y-60685443D02*
X99025306Y-60633062D01*
X99025306Y-60633062D02*
X98868163Y-60633062D01*
X98868163Y-60633062D02*
X98763401Y-60580681D01*
X98763401Y-60580681D02*
X98711020Y-60475919D01*
X98711020Y-60475919D02*
X98711020Y-60423538D01*
X98711020Y-60423538D02*
X98763401Y-60318776D01*
X98763401Y-60318776D02*
X98868163Y-60266395D01*
X98868163Y-60266395D02*
X99025306Y-60266395D01*
X99025306Y-60266395D02*
X99130068Y-60318776D01*
X99496734Y-60266395D02*
X99915782Y-60266395D01*
X99653877Y-59899728D02*
X99653877Y-60842586D01*
X99653877Y-60842586D02*
X99706258Y-60947348D01*
X99706258Y-60947348D02*
X99811020Y-60999728D01*
X99811020Y-60999728D02*
X99915782Y-60999728D01*
X100282448Y-60266395D02*
X100282448Y-61366395D01*
X100282448Y-60318776D02*
X100387210Y-60266395D01*
X100387210Y-60266395D02*
X100596734Y-60266395D01*
X100596734Y-60266395D02*
X100701496Y-60318776D01*
X100701496Y-60318776D02*
X100753877Y-60371157D01*
X100753877Y-60371157D02*
X100806258Y-60475919D01*
X100806258Y-60475919D02*
X100806258Y-60790205D01*
X100806258Y-60790205D02*
X100753877Y-60894967D01*
X100753877Y-60894967D02*
X100701496Y-60947348D01*
X100701496Y-60947348D02*
X100596734Y-60999728D01*
X100596734Y-60999728D02*
X100387210Y-60999728D01*
X100387210Y-60999728D02*
X100282448Y-60947348D01*
X101120543Y-60266395D02*
X101539591Y-60266395D01*
X101277686Y-60999728D02*
X101277686Y-60056871D01*
X101277686Y-60056871D02*
X101330067Y-59952109D01*
X101330067Y-59952109D02*
X101434829Y-59899728D01*
X101434829Y-59899728D02*
X101539591Y-59899728D01*
X102377686Y-60999728D02*
X102377686Y-60423538D01*
X102377686Y-60423538D02*
X102325305Y-60318776D01*
X102325305Y-60318776D02*
X102220543Y-60266395D01*
X102220543Y-60266395D02*
X102011019Y-60266395D01*
X102011019Y-60266395D02*
X101906257Y-60318776D01*
X102377686Y-60947348D02*
X102272924Y-60999728D01*
X102272924Y-60999728D02*
X102011019Y-60999728D01*
X102011019Y-60999728D02*
X101906257Y-60947348D01*
X101906257Y-60947348D02*
X101853876Y-60842586D01*
X101853876Y-60842586D02*
X101853876Y-60737824D01*
X101853876Y-60737824D02*
X101906257Y-60633062D01*
X101906257Y-60633062D02*
X102011019Y-60580681D01*
X102011019Y-60580681D02*
X102272924Y-60580681D01*
X102272924Y-60580681D02*
X102377686Y-60528300D01*
X103372924Y-60999728D02*
X103372924Y-59899728D01*
X103372924Y-60947348D02*
X103268162Y-60999728D01*
X103268162Y-60999728D02*
X103058638Y-60999728D01*
X103058638Y-60999728D02*
X102953876Y-60947348D01*
X102953876Y-60947348D02*
X102901495Y-60894967D01*
X102901495Y-60894967D02*
X102849114Y-60790205D01*
X102849114Y-60790205D02*
X102849114Y-60475919D01*
X102849114Y-60475919D02*
X102901495Y-60371157D01*
X102901495Y-60371157D02*
X102953876Y-60318776D01*
X102953876Y-60318776D02*
X103058638Y-60266395D01*
X103058638Y-60266395D02*
X103268162Y-60266395D01*
X103268162Y-60266395D02*
X103372924Y-60318776D01*
X103791971Y-61418776D02*
X103844352Y-61366395D01*
X103844352Y-61366395D02*
X103949114Y-61209252D01*
X103949114Y-61209252D02*
X104001495Y-61104490D01*
X104001495Y-61104490D02*
X104053876Y-60947348D01*
X104053876Y-60947348D02*
X104106257Y-60685443D01*
X104106257Y-60685443D02*
X104106257Y-60475919D01*
X104106257Y-60475919D02*
X104053876Y-60214014D01*
X104053876Y-60214014D02*
X104001495Y-60056871D01*
X104001495Y-60056871D02*
X103949114Y-59952109D01*
X103949114Y-59952109D02*
X103844352Y-59794967D01*
X103844352Y-59794967D02*
X103791971Y-59742586D01*
D13*
X45485714Y-67863335D02*
X45219047Y-67482382D01*
X45028571Y-67863335D02*
X45028571Y-67063335D01*
X45028571Y-67063335D02*
X45333333Y-67063335D01*
X45333333Y-67063335D02*
X45409523Y-67101430D01*
X45409523Y-67101430D02*
X45447618Y-67139525D01*
X45447618Y-67139525D02*
X45485714Y-67215716D01*
X45485714Y-67215716D02*
X45485714Y-67330001D01*
X45485714Y-67330001D02*
X45447618Y-67406192D01*
X45447618Y-67406192D02*
X45409523Y-67444287D01*
X45409523Y-67444287D02*
X45333333Y-67482382D01*
X45333333Y-67482382D02*
X45028571Y-67482382D01*
X46247618Y-67863335D02*
X45790475Y-67863335D01*
X46019047Y-67863335D02*
X46019047Y-67063335D01*
X46019047Y-67063335D02*
X45942856Y-67177620D01*
X45942856Y-67177620D02*
X45866666Y-67253811D01*
X45866666Y-67253811D02*
X45790475Y-67291906D01*
X46933333Y-67330001D02*
X46933333Y-67863335D01*
X46742857Y-67025240D02*
X46552380Y-67596668D01*
X46552380Y-67596668D02*
X47047619Y-67596668D01*
X114390476Y-61363335D02*
X114390476Y-60563335D01*
X114390476Y-60944287D02*
X114847619Y-60944287D01*
X114847619Y-61363335D02*
X114847619Y-60563335D01*
X115152380Y-60563335D02*
X115647618Y-60563335D01*
X115647618Y-60563335D02*
X115380952Y-60868097D01*
X115380952Y-60868097D02*
X115495237Y-60868097D01*
X115495237Y-60868097D02*
X115571428Y-60906192D01*
X115571428Y-60906192D02*
X115609523Y-60944287D01*
X115609523Y-60944287D02*
X115647618Y-61020478D01*
X115647618Y-61020478D02*
X115647618Y-61210954D01*
X115647618Y-61210954D02*
X115609523Y-61287144D01*
X115609523Y-61287144D02*
X115571428Y-61325240D01*
X115571428Y-61325240D02*
X115495237Y-61363335D01*
X115495237Y-61363335D02*
X115266666Y-61363335D01*
X115266666Y-61363335D02*
X115190475Y-61325240D01*
X115190475Y-61325240D02*
X115152380Y-61287144D01*
X103990476Y-85063335D02*
X104447619Y-85063335D01*
X104219047Y-85863335D02*
X104219047Y-85063335D01*
X104714286Y-85863335D02*
X104714286Y-85063335D01*
X104714286Y-85063335D02*
X105019048Y-85063335D01*
X105019048Y-85063335D02*
X105095238Y-85101430D01*
X105095238Y-85101430D02*
X105133333Y-85139525D01*
X105133333Y-85139525D02*
X105171429Y-85215716D01*
X105171429Y-85215716D02*
X105171429Y-85330001D01*
X105171429Y-85330001D02*
X105133333Y-85406192D01*
X105133333Y-85406192D02*
X105095238Y-85444287D01*
X105095238Y-85444287D02*
X105019048Y-85482382D01*
X105019048Y-85482382D02*
X104714286Y-85482382D01*
X105438095Y-85063335D02*
X105933333Y-85063335D01*
X105933333Y-85063335D02*
X105666667Y-85368097D01*
X105666667Y-85368097D02*
X105780952Y-85368097D01*
X105780952Y-85368097D02*
X105857143Y-85406192D01*
X105857143Y-85406192D02*
X105895238Y-85444287D01*
X105895238Y-85444287D02*
X105933333Y-85520478D01*
X105933333Y-85520478D02*
X105933333Y-85710954D01*
X105933333Y-85710954D02*
X105895238Y-85787144D01*
X105895238Y-85787144D02*
X105857143Y-85825240D01*
X105857143Y-85825240D02*
X105780952Y-85863335D01*
X105780952Y-85863335D02*
X105552381Y-85863335D01*
X105552381Y-85863335D02*
X105476190Y-85825240D01*
X105476190Y-85825240D02*
X105438095Y-85787144D01*
X32890476Y-73363335D02*
X32890476Y-72563335D01*
X32890476Y-72944287D02*
X33347619Y-72944287D01*
X33347619Y-73363335D02*
X33347619Y-72563335D01*
X34071428Y-72830001D02*
X34071428Y-73363335D01*
X33880952Y-72525240D02*
X33690475Y-73096668D01*
X33690475Y-73096668D02*
X34185714Y-73096668D01*
X90866667Y-86487144D02*
X90828571Y-86525240D01*
X90828571Y-86525240D02*
X90714286Y-86563335D01*
X90714286Y-86563335D02*
X90638095Y-86563335D01*
X90638095Y-86563335D02*
X90523809Y-86525240D01*
X90523809Y-86525240D02*
X90447619Y-86449049D01*
X90447619Y-86449049D02*
X90409524Y-86372859D01*
X90409524Y-86372859D02*
X90371428Y-86220478D01*
X90371428Y-86220478D02*
X90371428Y-86106192D01*
X90371428Y-86106192D02*
X90409524Y-85953811D01*
X90409524Y-85953811D02*
X90447619Y-85877620D01*
X90447619Y-85877620D02*
X90523809Y-85801430D01*
X90523809Y-85801430D02*
X90638095Y-85763335D01*
X90638095Y-85763335D02*
X90714286Y-85763335D01*
X90714286Y-85763335D02*
X90828571Y-85801430D01*
X90828571Y-85801430D02*
X90866667Y-85839525D01*
X91323809Y-86106192D02*
X91247619Y-86068097D01*
X91247619Y-86068097D02*
X91209524Y-86030001D01*
X91209524Y-86030001D02*
X91171428Y-85953811D01*
X91171428Y-85953811D02*
X91171428Y-85915716D01*
X91171428Y-85915716D02*
X91209524Y-85839525D01*
X91209524Y-85839525D02*
X91247619Y-85801430D01*
X91247619Y-85801430D02*
X91323809Y-85763335D01*
X91323809Y-85763335D02*
X91476190Y-85763335D01*
X91476190Y-85763335D02*
X91552381Y-85801430D01*
X91552381Y-85801430D02*
X91590476Y-85839525D01*
X91590476Y-85839525D02*
X91628571Y-85915716D01*
X91628571Y-85915716D02*
X91628571Y-85953811D01*
X91628571Y-85953811D02*
X91590476Y-86030001D01*
X91590476Y-86030001D02*
X91552381Y-86068097D01*
X91552381Y-86068097D02*
X91476190Y-86106192D01*
X91476190Y-86106192D02*
X91323809Y-86106192D01*
X91323809Y-86106192D02*
X91247619Y-86144287D01*
X91247619Y-86144287D02*
X91209524Y-86182382D01*
X91209524Y-86182382D02*
X91171428Y-86258573D01*
X91171428Y-86258573D02*
X91171428Y-86410954D01*
X91171428Y-86410954D02*
X91209524Y-86487144D01*
X91209524Y-86487144D02*
X91247619Y-86525240D01*
X91247619Y-86525240D02*
X91323809Y-86563335D01*
X91323809Y-86563335D02*
X91476190Y-86563335D01*
X91476190Y-86563335D02*
X91552381Y-86525240D01*
X91552381Y-86525240D02*
X91590476Y-86487144D01*
X91590476Y-86487144D02*
X91628571Y-86410954D01*
X91628571Y-86410954D02*
X91628571Y-86258573D01*
X91628571Y-86258573D02*
X91590476Y-86182382D01*
X91590476Y-86182382D02*
X91552381Y-86144287D01*
X91552381Y-86144287D02*
X91476190Y-86106192D01*
X94990476Y-67563335D02*
X95447619Y-67563335D01*
X95219047Y-68363335D02*
X95219047Y-67563335D01*
X95714286Y-68363335D02*
X95714286Y-67563335D01*
X95714286Y-67563335D02*
X96019048Y-67563335D01*
X96019048Y-67563335D02*
X96095238Y-67601430D01*
X96095238Y-67601430D02*
X96133333Y-67639525D01*
X96133333Y-67639525D02*
X96171429Y-67715716D01*
X96171429Y-67715716D02*
X96171429Y-67830001D01*
X96171429Y-67830001D02*
X96133333Y-67906192D01*
X96133333Y-67906192D02*
X96095238Y-67944287D01*
X96095238Y-67944287D02*
X96019048Y-67982382D01*
X96019048Y-67982382D02*
X95714286Y-67982382D01*
X96857143Y-67563335D02*
X96704762Y-67563335D01*
X96704762Y-67563335D02*
X96628571Y-67601430D01*
X96628571Y-67601430D02*
X96590476Y-67639525D01*
X96590476Y-67639525D02*
X96514286Y-67753811D01*
X96514286Y-67753811D02*
X96476190Y-67906192D01*
X96476190Y-67906192D02*
X96476190Y-68210954D01*
X96476190Y-68210954D02*
X96514286Y-68287144D01*
X96514286Y-68287144D02*
X96552381Y-68325240D01*
X96552381Y-68325240D02*
X96628571Y-68363335D01*
X96628571Y-68363335D02*
X96780952Y-68363335D01*
X96780952Y-68363335D02*
X96857143Y-68325240D01*
X96857143Y-68325240D02*
X96895238Y-68287144D01*
X96895238Y-68287144D02*
X96933333Y-68210954D01*
X96933333Y-68210954D02*
X96933333Y-68020478D01*
X96933333Y-68020478D02*
X96895238Y-67944287D01*
X96895238Y-67944287D02*
X96857143Y-67906192D01*
X96857143Y-67906192D02*
X96780952Y-67868097D01*
X96780952Y-67868097D02*
X96628571Y-67868097D01*
X96628571Y-67868097D02*
X96552381Y-67906192D01*
X96552381Y-67906192D02*
X96514286Y-67944287D01*
X96514286Y-67944287D02*
X96476190Y-68020478D01*
X64609523Y-44063335D02*
X65066666Y-44063335D01*
X64838094Y-44863335D02*
X64838094Y-44063335D01*
X65333333Y-44863335D02*
X65333333Y-44063335D01*
X65333333Y-44063335D02*
X65638095Y-44063335D01*
X65638095Y-44063335D02*
X65714285Y-44101430D01*
X65714285Y-44101430D02*
X65752380Y-44139525D01*
X65752380Y-44139525D02*
X65790476Y-44215716D01*
X65790476Y-44215716D02*
X65790476Y-44330001D01*
X65790476Y-44330001D02*
X65752380Y-44406192D01*
X65752380Y-44406192D02*
X65714285Y-44444287D01*
X65714285Y-44444287D02*
X65638095Y-44482382D01*
X65638095Y-44482382D02*
X65333333Y-44482382D01*
X66552380Y-44863335D02*
X66095237Y-44863335D01*
X66323809Y-44863335D02*
X66323809Y-44063335D01*
X66323809Y-44063335D02*
X66247618Y-44177620D01*
X66247618Y-44177620D02*
X66171428Y-44253811D01*
X66171428Y-44253811D02*
X66095237Y-44291906D01*
X67047619Y-44063335D02*
X67123809Y-44063335D01*
X67123809Y-44063335D02*
X67200000Y-44101430D01*
X67200000Y-44101430D02*
X67238095Y-44139525D01*
X67238095Y-44139525D02*
X67276190Y-44215716D01*
X67276190Y-44215716D02*
X67314285Y-44368097D01*
X67314285Y-44368097D02*
X67314285Y-44558573D01*
X67314285Y-44558573D02*
X67276190Y-44710954D01*
X67276190Y-44710954D02*
X67238095Y-44787144D01*
X67238095Y-44787144D02*
X67200000Y-44825240D01*
X67200000Y-44825240D02*
X67123809Y-44863335D01*
X67123809Y-44863335D02*
X67047619Y-44863335D01*
X67047619Y-44863335D02*
X66971428Y-44825240D01*
X66971428Y-44825240D02*
X66933333Y-44787144D01*
X66933333Y-44787144D02*
X66895238Y-44710954D01*
X66895238Y-44710954D02*
X66857142Y-44558573D01*
X66857142Y-44558573D02*
X66857142Y-44368097D01*
X66857142Y-44368097D02*
X66895238Y-44215716D01*
X66895238Y-44215716D02*
X66933333Y-44139525D01*
X66933333Y-44139525D02*
X66971428Y-44101430D01*
X66971428Y-44101430D02*
X67047619Y-44063335D01*
X96133333Y-39544287D02*
X95866667Y-39544287D01*
X95866667Y-39963335D02*
X95866667Y-39163335D01*
X95866667Y-39163335D02*
X96247619Y-39163335D01*
X96971428Y-39963335D02*
X96514285Y-39963335D01*
X96742857Y-39963335D02*
X96742857Y-39163335D01*
X96742857Y-39163335D02*
X96666666Y-39277620D01*
X96666666Y-39277620D02*
X96590476Y-39353811D01*
X96590476Y-39353811D02*
X96514285Y-39391906D01*
X82766667Y-77263335D02*
X82500000Y-76882382D01*
X82309524Y-77263335D02*
X82309524Y-76463335D01*
X82309524Y-76463335D02*
X82614286Y-76463335D01*
X82614286Y-76463335D02*
X82690476Y-76501430D01*
X82690476Y-76501430D02*
X82728571Y-76539525D01*
X82728571Y-76539525D02*
X82766667Y-76615716D01*
X82766667Y-76615716D02*
X82766667Y-76730001D01*
X82766667Y-76730001D02*
X82728571Y-76806192D01*
X82728571Y-76806192D02*
X82690476Y-76844287D01*
X82690476Y-76844287D02*
X82614286Y-76882382D01*
X82614286Y-76882382D02*
X82309524Y-76882382D01*
X83033333Y-76463335D02*
X83566667Y-76463335D01*
X83566667Y-76463335D02*
X83223809Y-77263335D01*
X108370476Y-76583335D02*
X108370476Y-77230954D01*
X108370476Y-77230954D02*
X108408571Y-77307144D01*
X108408571Y-77307144D02*
X108446666Y-77345240D01*
X108446666Y-77345240D02*
X108522857Y-77383335D01*
X108522857Y-77383335D02*
X108675238Y-77383335D01*
X108675238Y-77383335D02*
X108751428Y-77345240D01*
X108751428Y-77345240D02*
X108789523Y-77307144D01*
X108789523Y-77307144D02*
X108827619Y-77230954D01*
X108827619Y-77230954D02*
X108827619Y-76583335D01*
X109132380Y-76583335D02*
X109627618Y-76583335D01*
X109627618Y-76583335D02*
X109360952Y-76888097D01*
X109360952Y-76888097D02*
X109475237Y-76888097D01*
X109475237Y-76888097D02*
X109551428Y-76926192D01*
X109551428Y-76926192D02*
X109589523Y-76964287D01*
X109589523Y-76964287D02*
X109627618Y-77040478D01*
X109627618Y-77040478D02*
X109627618Y-77230954D01*
X109627618Y-77230954D02*
X109589523Y-77307144D01*
X109589523Y-77307144D02*
X109551428Y-77345240D01*
X109551428Y-77345240D02*
X109475237Y-77383335D01*
X109475237Y-77383335D02*
X109246666Y-77383335D01*
X109246666Y-77383335D02*
X109170475Y-77345240D01*
X109170475Y-77345240D02*
X109132380Y-77307144D01*
X92490476Y-86763335D02*
X92947619Y-86763335D01*
X92719047Y-87563335D02*
X92719047Y-86763335D01*
X93214286Y-87563335D02*
X93214286Y-86763335D01*
X93214286Y-86763335D02*
X93519048Y-86763335D01*
X93519048Y-86763335D02*
X93595238Y-86801430D01*
X93595238Y-86801430D02*
X93633333Y-86839525D01*
X93633333Y-86839525D02*
X93671429Y-86915716D01*
X93671429Y-86915716D02*
X93671429Y-87030001D01*
X93671429Y-87030001D02*
X93633333Y-87106192D01*
X93633333Y-87106192D02*
X93595238Y-87144287D01*
X93595238Y-87144287D02*
X93519048Y-87182382D01*
X93519048Y-87182382D02*
X93214286Y-87182382D01*
X94357143Y-87030001D02*
X94357143Y-87563335D01*
X94166667Y-86725240D02*
X93976190Y-87296668D01*
X93976190Y-87296668D02*
X94471429Y-87296668D01*
X39485714Y-81963335D02*
X39219047Y-81582382D01*
X39028571Y-81963335D02*
X39028571Y-81163335D01*
X39028571Y-81163335D02*
X39333333Y-81163335D01*
X39333333Y-81163335D02*
X39409523Y-81201430D01*
X39409523Y-81201430D02*
X39447618Y-81239525D01*
X39447618Y-81239525D02*
X39485714Y-81315716D01*
X39485714Y-81315716D02*
X39485714Y-81430001D01*
X39485714Y-81430001D02*
X39447618Y-81506192D01*
X39447618Y-81506192D02*
X39409523Y-81544287D01*
X39409523Y-81544287D02*
X39333333Y-81582382D01*
X39333333Y-81582382D02*
X39028571Y-81582382D01*
X40247618Y-81963335D02*
X39790475Y-81963335D01*
X40019047Y-81963335D02*
X40019047Y-81163335D01*
X40019047Y-81163335D02*
X39942856Y-81277620D01*
X39942856Y-81277620D02*
X39866666Y-81353811D01*
X39866666Y-81353811D02*
X39790475Y-81391906D01*
X40742857Y-81163335D02*
X40819047Y-81163335D01*
X40819047Y-81163335D02*
X40895238Y-81201430D01*
X40895238Y-81201430D02*
X40933333Y-81239525D01*
X40933333Y-81239525D02*
X40971428Y-81315716D01*
X40971428Y-81315716D02*
X41009523Y-81468097D01*
X41009523Y-81468097D02*
X41009523Y-81658573D01*
X41009523Y-81658573D02*
X40971428Y-81810954D01*
X40971428Y-81810954D02*
X40933333Y-81887144D01*
X40933333Y-81887144D02*
X40895238Y-81925240D01*
X40895238Y-81925240D02*
X40819047Y-81963335D01*
X40819047Y-81963335D02*
X40742857Y-81963335D01*
X40742857Y-81963335D02*
X40666666Y-81925240D01*
X40666666Y-81925240D02*
X40628571Y-81887144D01*
X40628571Y-81887144D02*
X40590476Y-81810954D01*
X40590476Y-81810954D02*
X40552380Y-81658573D01*
X40552380Y-81658573D02*
X40552380Y-81468097D01*
X40552380Y-81468097D02*
X40590476Y-81315716D01*
X40590476Y-81315716D02*
X40628571Y-81239525D01*
X40628571Y-81239525D02*
X40666666Y-81201430D01*
X40666666Y-81201430D02*
X40742857Y-81163335D01*
X79866667Y-44287144D02*
X79828571Y-44325240D01*
X79828571Y-44325240D02*
X79714286Y-44363335D01*
X79714286Y-44363335D02*
X79638095Y-44363335D01*
X79638095Y-44363335D02*
X79523809Y-44325240D01*
X79523809Y-44325240D02*
X79447619Y-44249049D01*
X79447619Y-44249049D02*
X79409524Y-44172859D01*
X79409524Y-44172859D02*
X79371428Y-44020478D01*
X79371428Y-44020478D02*
X79371428Y-43906192D01*
X79371428Y-43906192D02*
X79409524Y-43753811D01*
X79409524Y-43753811D02*
X79447619Y-43677620D01*
X79447619Y-43677620D02*
X79523809Y-43601430D01*
X79523809Y-43601430D02*
X79638095Y-43563335D01*
X79638095Y-43563335D02*
X79714286Y-43563335D01*
X79714286Y-43563335D02*
X79828571Y-43601430D01*
X79828571Y-43601430D02*
X79866667Y-43639525D01*
X80133333Y-43563335D02*
X80628571Y-43563335D01*
X80628571Y-43563335D02*
X80361905Y-43868097D01*
X80361905Y-43868097D02*
X80476190Y-43868097D01*
X80476190Y-43868097D02*
X80552381Y-43906192D01*
X80552381Y-43906192D02*
X80590476Y-43944287D01*
X80590476Y-43944287D02*
X80628571Y-44020478D01*
X80628571Y-44020478D02*
X80628571Y-44210954D01*
X80628571Y-44210954D02*
X80590476Y-44287144D01*
X80590476Y-44287144D02*
X80552381Y-44325240D01*
X80552381Y-44325240D02*
X80476190Y-44363335D01*
X80476190Y-44363335D02*
X80247619Y-44363335D01*
X80247619Y-44363335D02*
X80171428Y-44325240D01*
X80171428Y-44325240D02*
X80133333Y-44287144D01*
X118333333Y-85563335D02*
X118333333Y-86134763D01*
X118333333Y-86134763D02*
X118295238Y-86249049D01*
X118295238Y-86249049D02*
X118219047Y-86325240D01*
X118219047Y-86325240D02*
X118104762Y-86363335D01*
X118104762Y-86363335D02*
X118028571Y-86363335D01*
X118638095Y-85563335D02*
X119133333Y-85563335D01*
X119133333Y-85563335D02*
X118866667Y-85868097D01*
X118866667Y-85868097D02*
X118980952Y-85868097D01*
X118980952Y-85868097D02*
X119057143Y-85906192D01*
X119057143Y-85906192D02*
X119095238Y-85944287D01*
X119095238Y-85944287D02*
X119133333Y-86020478D01*
X119133333Y-86020478D02*
X119133333Y-86210954D01*
X119133333Y-86210954D02*
X119095238Y-86287144D01*
X119095238Y-86287144D02*
X119057143Y-86325240D01*
X119057143Y-86325240D02*
X118980952Y-86363335D01*
X118980952Y-86363335D02*
X118752381Y-86363335D01*
X118752381Y-86363335D02*
X118676190Y-86325240D01*
X118676190Y-86325240D02*
X118638095Y-86287144D01*
X85866667Y-65263335D02*
X85600000Y-64882382D01*
X85409524Y-65263335D02*
X85409524Y-64463335D01*
X85409524Y-64463335D02*
X85714286Y-64463335D01*
X85714286Y-64463335D02*
X85790476Y-64501430D01*
X85790476Y-64501430D02*
X85828571Y-64539525D01*
X85828571Y-64539525D02*
X85866667Y-64615716D01*
X85866667Y-64615716D02*
X85866667Y-64730001D01*
X85866667Y-64730001D02*
X85828571Y-64806192D01*
X85828571Y-64806192D02*
X85790476Y-64844287D01*
X85790476Y-64844287D02*
X85714286Y-64882382D01*
X85714286Y-64882382D02*
X85409524Y-64882382D01*
X86552381Y-64730001D02*
X86552381Y-65263335D01*
X86361905Y-64425240D02*
X86171428Y-64996668D01*
X86171428Y-64996668D02*
X86666667Y-64996668D01*
X32890476Y-31863335D02*
X32890476Y-31063335D01*
X32890476Y-31444287D02*
X33347619Y-31444287D01*
X33347619Y-31863335D02*
X33347619Y-31063335D01*
X34147618Y-31863335D02*
X33690475Y-31863335D01*
X33919047Y-31863335D02*
X33919047Y-31063335D01*
X33919047Y-31063335D02*
X33842856Y-31177620D01*
X33842856Y-31177620D02*
X33766666Y-31253811D01*
X33766666Y-31253811D02*
X33690475Y-31291906D01*
X83866667Y-44287144D02*
X83828571Y-44325240D01*
X83828571Y-44325240D02*
X83714286Y-44363335D01*
X83714286Y-44363335D02*
X83638095Y-44363335D01*
X83638095Y-44363335D02*
X83523809Y-44325240D01*
X83523809Y-44325240D02*
X83447619Y-44249049D01*
X83447619Y-44249049D02*
X83409524Y-44172859D01*
X83409524Y-44172859D02*
X83371428Y-44020478D01*
X83371428Y-44020478D02*
X83371428Y-43906192D01*
X83371428Y-43906192D02*
X83409524Y-43753811D01*
X83409524Y-43753811D02*
X83447619Y-43677620D01*
X83447619Y-43677620D02*
X83523809Y-43601430D01*
X83523809Y-43601430D02*
X83638095Y-43563335D01*
X83638095Y-43563335D02*
X83714286Y-43563335D01*
X83714286Y-43563335D02*
X83828571Y-43601430D01*
X83828571Y-43601430D02*
X83866667Y-43639525D01*
X84552381Y-43830001D02*
X84552381Y-44363335D01*
X84361905Y-43525240D02*
X84171428Y-44096668D01*
X84171428Y-44096668D02*
X84666667Y-44096668D01*
X65866667Y-35787144D02*
X65828571Y-35825240D01*
X65828571Y-35825240D02*
X65714286Y-35863335D01*
X65714286Y-35863335D02*
X65638095Y-35863335D01*
X65638095Y-35863335D02*
X65523809Y-35825240D01*
X65523809Y-35825240D02*
X65447619Y-35749049D01*
X65447619Y-35749049D02*
X65409524Y-35672859D01*
X65409524Y-35672859D02*
X65371428Y-35520478D01*
X65371428Y-35520478D02*
X65371428Y-35406192D01*
X65371428Y-35406192D02*
X65409524Y-35253811D01*
X65409524Y-35253811D02*
X65447619Y-35177620D01*
X65447619Y-35177620D02*
X65523809Y-35101430D01*
X65523809Y-35101430D02*
X65638095Y-35063335D01*
X65638095Y-35063335D02*
X65714286Y-35063335D01*
X65714286Y-35063335D02*
X65828571Y-35101430D01*
X65828571Y-35101430D02*
X65866667Y-35139525D01*
X66171428Y-35139525D02*
X66209524Y-35101430D01*
X66209524Y-35101430D02*
X66285714Y-35063335D01*
X66285714Y-35063335D02*
X66476190Y-35063335D01*
X66476190Y-35063335D02*
X66552381Y-35101430D01*
X66552381Y-35101430D02*
X66590476Y-35139525D01*
X66590476Y-35139525D02*
X66628571Y-35215716D01*
X66628571Y-35215716D02*
X66628571Y-35291906D01*
X66628571Y-35291906D02*
X66590476Y-35406192D01*
X66590476Y-35406192D02*
X66133333Y-35863335D01*
X66133333Y-35863335D02*
X66628571Y-35863335D01*
X59165714Y-64043335D02*
X58899047Y-63662382D01*
X58708571Y-64043335D02*
X58708571Y-63243335D01*
X58708571Y-63243335D02*
X59013333Y-63243335D01*
X59013333Y-63243335D02*
X59089523Y-63281430D01*
X59089523Y-63281430D02*
X59127618Y-63319525D01*
X59127618Y-63319525D02*
X59165714Y-63395716D01*
X59165714Y-63395716D02*
X59165714Y-63510001D01*
X59165714Y-63510001D02*
X59127618Y-63586192D01*
X59127618Y-63586192D02*
X59089523Y-63624287D01*
X59089523Y-63624287D02*
X59013333Y-63662382D01*
X59013333Y-63662382D02*
X58708571Y-63662382D01*
X59927618Y-64043335D02*
X59470475Y-64043335D01*
X59699047Y-64043335D02*
X59699047Y-63243335D01*
X59699047Y-63243335D02*
X59622856Y-63357620D01*
X59622856Y-63357620D02*
X59546666Y-63433811D01*
X59546666Y-63433811D02*
X59470475Y-63471906D01*
X60194285Y-63243335D02*
X60689523Y-63243335D01*
X60689523Y-63243335D02*
X60422857Y-63548097D01*
X60422857Y-63548097D02*
X60537142Y-63548097D01*
X60537142Y-63548097D02*
X60613333Y-63586192D01*
X60613333Y-63586192D02*
X60651428Y-63624287D01*
X60651428Y-63624287D02*
X60689523Y-63700478D01*
X60689523Y-63700478D02*
X60689523Y-63890954D01*
X60689523Y-63890954D02*
X60651428Y-63967144D01*
X60651428Y-63967144D02*
X60613333Y-64005240D01*
X60613333Y-64005240D02*
X60537142Y-64043335D01*
X60537142Y-64043335D02*
X60308571Y-64043335D01*
X60308571Y-64043335D02*
X60232380Y-64005240D01*
X60232380Y-64005240D02*
X60194285Y-63967144D01*
X57485714Y-70787144D02*
X57447618Y-70825240D01*
X57447618Y-70825240D02*
X57333333Y-70863335D01*
X57333333Y-70863335D02*
X57257142Y-70863335D01*
X57257142Y-70863335D02*
X57142856Y-70825240D01*
X57142856Y-70825240D02*
X57066666Y-70749049D01*
X57066666Y-70749049D02*
X57028571Y-70672859D01*
X57028571Y-70672859D02*
X56990475Y-70520478D01*
X56990475Y-70520478D02*
X56990475Y-70406192D01*
X56990475Y-70406192D02*
X57028571Y-70253811D01*
X57028571Y-70253811D02*
X57066666Y-70177620D01*
X57066666Y-70177620D02*
X57142856Y-70101430D01*
X57142856Y-70101430D02*
X57257142Y-70063335D01*
X57257142Y-70063335D02*
X57333333Y-70063335D01*
X57333333Y-70063335D02*
X57447618Y-70101430D01*
X57447618Y-70101430D02*
X57485714Y-70139525D01*
X58247618Y-70863335D02*
X57790475Y-70863335D01*
X58019047Y-70863335D02*
X58019047Y-70063335D01*
X58019047Y-70063335D02*
X57942856Y-70177620D01*
X57942856Y-70177620D02*
X57866666Y-70253811D01*
X57866666Y-70253811D02*
X57790475Y-70291906D01*
X59009523Y-70863335D02*
X58552380Y-70863335D01*
X58780952Y-70863335D02*
X58780952Y-70063335D01*
X58780952Y-70063335D02*
X58704761Y-70177620D01*
X58704761Y-70177620D02*
X58628571Y-70253811D01*
X58628571Y-70253811D02*
X58552380Y-70291906D01*
X90866667Y-74163335D02*
X90600000Y-73782382D01*
X90409524Y-74163335D02*
X90409524Y-73363335D01*
X90409524Y-73363335D02*
X90714286Y-73363335D01*
X90714286Y-73363335D02*
X90790476Y-73401430D01*
X90790476Y-73401430D02*
X90828571Y-73439525D01*
X90828571Y-73439525D02*
X90866667Y-73515716D01*
X90866667Y-73515716D02*
X90866667Y-73630001D01*
X90866667Y-73630001D02*
X90828571Y-73706192D01*
X90828571Y-73706192D02*
X90790476Y-73744287D01*
X90790476Y-73744287D02*
X90714286Y-73782382D01*
X90714286Y-73782382D02*
X90409524Y-73782382D01*
X91323809Y-73706192D02*
X91247619Y-73668097D01*
X91247619Y-73668097D02*
X91209524Y-73630001D01*
X91209524Y-73630001D02*
X91171428Y-73553811D01*
X91171428Y-73553811D02*
X91171428Y-73515716D01*
X91171428Y-73515716D02*
X91209524Y-73439525D01*
X91209524Y-73439525D02*
X91247619Y-73401430D01*
X91247619Y-73401430D02*
X91323809Y-73363335D01*
X91323809Y-73363335D02*
X91476190Y-73363335D01*
X91476190Y-73363335D02*
X91552381Y-73401430D01*
X91552381Y-73401430D02*
X91590476Y-73439525D01*
X91590476Y-73439525D02*
X91628571Y-73515716D01*
X91628571Y-73515716D02*
X91628571Y-73553811D01*
X91628571Y-73553811D02*
X91590476Y-73630001D01*
X91590476Y-73630001D02*
X91552381Y-73668097D01*
X91552381Y-73668097D02*
X91476190Y-73706192D01*
X91476190Y-73706192D02*
X91323809Y-73706192D01*
X91323809Y-73706192D02*
X91247619Y-73744287D01*
X91247619Y-73744287D02*
X91209524Y-73782382D01*
X91209524Y-73782382D02*
X91171428Y-73858573D01*
X91171428Y-73858573D02*
X91171428Y-74010954D01*
X91171428Y-74010954D02*
X91209524Y-74087144D01*
X91209524Y-74087144D02*
X91247619Y-74125240D01*
X91247619Y-74125240D02*
X91323809Y-74163335D01*
X91323809Y-74163335D02*
X91476190Y-74163335D01*
X91476190Y-74163335D02*
X91552381Y-74125240D01*
X91552381Y-74125240D02*
X91590476Y-74087144D01*
X91590476Y-74087144D02*
X91628571Y-74010954D01*
X91628571Y-74010954D02*
X91628571Y-73858573D01*
X91628571Y-73858573D02*
X91590476Y-73782382D01*
X91590476Y-73782382D02*
X91552381Y-73744287D01*
X91552381Y-73744287D02*
X91476190Y-73706192D01*
X33733333Y-80763335D02*
X33733333Y-81334763D01*
X33733333Y-81334763D02*
X33695238Y-81449049D01*
X33695238Y-81449049D02*
X33619047Y-81525240D01*
X33619047Y-81525240D02*
X33504762Y-81563335D01*
X33504762Y-81563335D02*
X33428571Y-81563335D01*
X34457143Y-81030001D02*
X34457143Y-81563335D01*
X34266667Y-80725240D02*
X34076190Y-81296668D01*
X34076190Y-81296668D02*
X34571429Y-81296668D01*
X109366667Y-87787144D02*
X109328571Y-87825240D01*
X109328571Y-87825240D02*
X109214286Y-87863335D01*
X109214286Y-87863335D02*
X109138095Y-87863335D01*
X109138095Y-87863335D02*
X109023809Y-87825240D01*
X109023809Y-87825240D02*
X108947619Y-87749049D01*
X108947619Y-87749049D02*
X108909524Y-87672859D01*
X108909524Y-87672859D02*
X108871428Y-87520478D01*
X108871428Y-87520478D02*
X108871428Y-87406192D01*
X108871428Y-87406192D02*
X108909524Y-87253811D01*
X108909524Y-87253811D02*
X108947619Y-87177620D01*
X108947619Y-87177620D02*
X109023809Y-87101430D01*
X109023809Y-87101430D02*
X109138095Y-87063335D01*
X109138095Y-87063335D02*
X109214286Y-87063335D01*
X109214286Y-87063335D02*
X109328571Y-87101430D01*
X109328571Y-87101430D02*
X109366667Y-87139525D01*
X109633333Y-87063335D02*
X110166667Y-87063335D01*
X110166667Y-87063335D02*
X109823809Y-87863335D01*
X32129523Y-71083335D02*
X32586666Y-71083335D01*
X32358094Y-71883335D02*
X32358094Y-71083335D01*
X32853333Y-71883335D02*
X32853333Y-71083335D01*
X32853333Y-71083335D02*
X33158095Y-71083335D01*
X33158095Y-71083335D02*
X33234285Y-71121430D01*
X33234285Y-71121430D02*
X33272380Y-71159525D01*
X33272380Y-71159525D02*
X33310476Y-71235716D01*
X33310476Y-71235716D02*
X33310476Y-71350001D01*
X33310476Y-71350001D02*
X33272380Y-71426192D01*
X33272380Y-71426192D02*
X33234285Y-71464287D01*
X33234285Y-71464287D02*
X33158095Y-71502382D01*
X33158095Y-71502382D02*
X32853333Y-71502382D01*
X34072380Y-71883335D02*
X33615237Y-71883335D01*
X33843809Y-71883335D02*
X33843809Y-71083335D01*
X33843809Y-71083335D02*
X33767618Y-71197620D01*
X33767618Y-71197620D02*
X33691428Y-71273811D01*
X33691428Y-71273811D02*
X33615237Y-71311906D01*
X34377142Y-71159525D02*
X34415238Y-71121430D01*
X34415238Y-71121430D02*
X34491428Y-71083335D01*
X34491428Y-71083335D02*
X34681904Y-71083335D01*
X34681904Y-71083335D02*
X34758095Y-71121430D01*
X34758095Y-71121430D02*
X34796190Y-71159525D01*
X34796190Y-71159525D02*
X34834285Y-71235716D01*
X34834285Y-71235716D02*
X34834285Y-71311906D01*
X34834285Y-71311906D02*
X34796190Y-71426192D01*
X34796190Y-71426192D02*
X34339047Y-71883335D01*
X34339047Y-71883335D02*
X34834285Y-71883335D01*
X102906667Y-84747144D02*
X102868571Y-84785240D01*
X102868571Y-84785240D02*
X102754286Y-84823335D01*
X102754286Y-84823335D02*
X102678095Y-84823335D01*
X102678095Y-84823335D02*
X102563809Y-84785240D01*
X102563809Y-84785240D02*
X102487619Y-84709049D01*
X102487619Y-84709049D02*
X102449524Y-84632859D01*
X102449524Y-84632859D02*
X102411428Y-84480478D01*
X102411428Y-84480478D02*
X102411428Y-84366192D01*
X102411428Y-84366192D02*
X102449524Y-84213811D01*
X102449524Y-84213811D02*
X102487619Y-84137620D01*
X102487619Y-84137620D02*
X102563809Y-84061430D01*
X102563809Y-84061430D02*
X102678095Y-84023335D01*
X102678095Y-84023335D02*
X102754286Y-84023335D01*
X102754286Y-84023335D02*
X102868571Y-84061430D01*
X102868571Y-84061430D02*
X102906667Y-84099525D01*
X103630476Y-84023335D02*
X103249524Y-84023335D01*
X103249524Y-84023335D02*
X103211428Y-84404287D01*
X103211428Y-84404287D02*
X103249524Y-84366192D01*
X103249524Y-84366192D02*
X103325714Y-84328097D01*
X103325714Y-84328097D02*
X103516190Y-84328097D01*
X103516190Y-84328097D02*
X103592381Y-84366192D01*
X103592381Y-84366192D02*
X103630476Y-84404287D01*
X103630476Y-84404287D02*
X103668571Y-84480478D01*
X103668571Y-84480478D02*
X103668571Y-84670954D01*
X103668571Y-84670954D02*
X103630476Y-84747144D01*
X103630476Y-84747144D02*
X103592381Y-84785240D01*
X103592381Y-84785240D02*
X103516190Y-84823335D01*
X103516190Y-84823335D02*
X103325714Y-84823335D01*
X103325714Y-84823335D02*
X103249524Y-84785240D01*
X103249524Y-84785240D02*
X103211428Y-84747144D01*
X102693333Y-34523335D02*
X102693333Y-35094763D01*
X102693333Y-35094763D02*
X102655238Y-35209049D01*
X102655238Y-35209049D02*
X102579047Y-35285240D01*
X102579047Y-35285240D02*
X102464762Y-35323335D01*
X102464762Y-35323335D02*
X102388571Y-35323335D01*
X103036190Y-34599525D02*
X103074286Y-34561430D01*
X103074286Y-34561430D02*
X103150476Y-34523335D01*
X103150476Y-34523335D02*
X103340952Y-34523335D01*
X103340952Y-34523335D02*
X103417143Y-34561430D01*
X103417143Y-34561430D02*
X103455238Y-34599525D01*
X103455238Y-34599525D02*
X103493333Y-34675716D01*
X103493333Y-34675716D02*
X103493333Y-34751906D01*
X103493333Y-34751906D02*
X103455238Y-34866192D01*
X103455238Y-34866192D02*
X102998095Y-35323335D01*
X102998095Y-35323335D02*
X103493333Y-35323335D01*
X97893332Y-55365240D02*
X98007618Y-55403335D01*
X98007618Y-55403335D02*
X98198094Y-55403335D01*
X98198094Y-55403335D02*
X98274285Y-55365240D01*
X98274285Y-55365240D02*
X98312380Y-55327144D01*
X98312380Y-55327144D02*
X98350475Y-55250954D01*
X98350475Y-55250954D02*
X98350475Y-55174763D01*
X98350475Y-55174763D02*
X98312380Y-55098573D01*
X98312380Y-55098573D02*
X98274285Y-55060478D01*
X98274285Y-55060478D02*
X98198094Y-55022382D01*
X98198094Y-55022382D02*
X98045713Y-54984287D01*
X98045713Y-54984287D02*
X97969523Y-54946192D01*
X97969523Y-54946192D02*
X97931428Y-54908097D01*
X97931428Y-54908097D02*
X97893332Y-54831906D01*
X97893332Y-54831906D02*
X97893332Y-54755716D01*
X97893332Y-54755716D02*
X97931428Y-54679525D01*
X97931428Y-54679525D02*
X97969523Y-54641430D01*
X97969523Y-54641430D02*
X98045713Y-54603335D01*
X98045713Y-54603335D02*
X98236190Y-54603335D01*
X98236190Y-54603335D02*
X98350475Y-54641430D01*
X98617142Y-54603335D02*
X98807618Y-55403335D01*
X98807618Y-55403335D02*
X98959999Y-54831906D01*
X98959999Y-54831906D02*
X99112380Y-55403335D01*
X99112380Y-55403335D02*
X99302857Y-54603335D01*
X100026666Y-55403335D02*
X99569523Y-55403335D01*
X99798095Y-55403335D02*
X99798095Y-54603335D01*
X99798095Y-54603335D02*
X99721904Y-54717620D01*
X99721904Y-54717620D02*
X99645714Y-54793811D01*
X99645714Y-54793811D02*
X99569523Y-54831906D01*
X81386667Y-69783335D02*
X81120000Y-69402382D01*
X80929524Y-69783335D02*
X80929524Y-68983335D01*
X80929524Y-68983335D02*
X81234286Y-68983335D01*
X81234286Y-68983335D02*
X81310476Y-69021430D01*
X81310476Y-69021430D02*
X81348571Y-69059525D01*
X81348571Y-69059525D02*
X81386667Y-69135716D01*
X81386667Y-69135716D02*
X81386667Y-69250001D01*
X81386667Y-69250001D02*
X81348571Y-69326192D01*
X81348571Y-69326192D02*
X81310476Y-69364287D01*
X81310476Y-69364287D02*
X81234286Y-69402382D01*
X81234286Y-69402382D02*
X80929524Y-69402382D01*
X81767619Y-69783335D02*
X81920000Y-69783335D01*
X81920000Y-69783335D02*
X81996190Y-69745240D01*
X81996190Y-69745240D02*
X82034286Y-69707144D01*
X82034286Y-69707144D02*
X82110476Y-69592859D01*
X82110476Y-69592859D02*
X82148571Y-69440478D01*
X82148571Y-69440478D02*
X82148571Y-69135716D01*
X82148571Y-69135716D02*
X82110476Y-69059525D01*
X82110476Y-69059525D02*
X82072381Y-69021430D01*
X82072381Y-69021430D02*
X81996190Y-68983335D01*
X81996190Y-68983335D02*
X81843809Y-68983335D01*
X81843809Y-68983335D02*
X81767619Y-69021430D01*
X81767619Y-69021430D02*
X81729524Y-69059525D01*
X81729524Y-69059525D02*
X81691428Y-69135716D01*
X81691428Y-69135716D02*
X81691428Y-69326192D01*
X81691428Y-69326192D02*
X81729524Y-69402382D01*
X81729524Y-69402382D02*
X81767619Y-69440478D01*
X81767619Y-69440478D02*
X81843809Y-69478573D01*
X81843809Y-69478573D02*
X81996190Y-69478573D01*
X81996190Y-69478573D02*
X82072381Y-69440478D01*
X82072381Y-69440478D02*
X82110476Y-69402382D01*
X82110476Y-69402382D02*
X82148571Y-69326192D01*
X81866667Y-39963335D02*
X81600000Y-39582382D01*
X81409524Y-39963335D02*
X81409524Y-39163335D01*
X81409524Y-39163335D02*
X81714286Y-39163335D01*
X81714286Y-39163335D02*
X81790476Y-39201430D01*
X81790476Y-39201430D02*
X81828571Y-39239525D01*
X81828571Y-39239525D02*
X81866667Y-39315716D01*
X81866667Y-39315716D02*
X81866667Y-39430001D01*
X81866667Y-39430001D02*
X81828571Y-39506192D01*
X81828571Y-39506192D02*
X81790476Y-39544287D01*
X81790476Y-39544287D02*
X81714286Y-39582382D01*
X81714286Y-39582382D02*
X81409524Y-39582382D01*
X82171428Y-39239525D02*
X82209524Y-39201430D01*
X82209524Y-39201430D02*
X82285714Y-39163335D01*
X82285714Y-39163335D02*
X82476190Y-39163335D01*
X82476190Y-39163335D02*
X82552381Y-39201430D01*
X82552381Y-39201430D02*
X82590476Y-39239525D01*
X82590476Y-39239525D02*
X82628571Y-39315716D01*
X82628571Y-39315716D02*
X82628571Y-39391906D01*
X82628571Y-39391906D02*
X82590476Y-39506192D01*
X82590476Y-39506192D02*
X82133333Y-39963335D01*
X82133333Y-39963335D02*
X82628571Y-39963335D01*
X90485714Y-67687144D02*
X90447618Y-67725240D01*
X90447618Y-67725240D02*
X90333333Y-67763335D01*
X90333333Y-67763335D02*
X90257142Y-67763335D01*
X90257142Y-67763335D02*
X90142856Y-67725240D01*
X90142856Y-67725240D02*
X90066666Y-67649049D01*
X90066666Y-67649049D02*
X90028571Y-67572859D01*
X90028571Y-67572859D02*
X89990475Y-67420478D01*
X89990475Y-67420478D02*
X89990475Y-67306192D01*
X89990475Y-67306192D02*
X90028571Y-67153811D01*
X90028571Y-67153811D02*
X90066666Y-67077620D01*
X90066666Y-67077620D02*
X90142856Y-67001430D01*
X90142856Y-67001430D02*
X90257142Y-66963335D01*
X90257142Y-66963335D02*
X90333333Y-66963335D01*
X90333333Y-66963335D02*
X90447618Y-67001430D01*
X90447618Y-67001430D02*
X90485714Y-67039525D01*
X91247618Y-67763335D02*
X90790475Y-67763335D01*
X91019047Y-67763335D02*
X91019047Y-66963335D01*
X91019047Y-66963335D02*
X90942856Y-67077620D01*
X90942856Y-67077620D02*
X90866666Y-67153811D01*
X90866666Y-67153811D02*
X90790475Y-67191906D01*
X91742857Y-66963335D02*
X91819047Y-66963335D01*
X91819047Y-66963335D02*
X91895238Y-67001430D01*
X91895238Y-67001430D02*
X91933333Y-67039525D01*
X91933333Y-67039525D02*
X91971428Y-67115716D01*
X91971428Y-67115716D02*
X92009523Y-67268097D01*
X92009523Y-67268097D02*
X92009523Y-67458573D01*
X92009523Y-67458573D02*
X91971428Y-67610954D01*
X91971428Y-67610954D02*
X91933333Y-67687144D01*
X91933333Y-67687144D02*
X91895238Y-67725240D01*
X91895238Y-67725240D02*
X91819047Y-67763335D01*
X91819047Y-67763335D02*
X91742857Y-67763335D01*
X91742857Y-67763335D02*
X91666666Y-67725240D01*
X91666666Y-67725240D02*
X91628571Y-67687144D01*
X91628571Y-67687144D02*
X91590476Y-67610954D01*
X91590476Y-67610954D02*
X91552380Y-67458573D01*
X91552380Y-67458573D02*
X91552380Y-67268097D01*
X91552380Y-67268097D02*
X91590476Y-67115716D01*
X91590476Y-67115716D02*
X91628571Y-67039525D01*
X91628571Y-67039525D02*
X91666666Y-67001430D01*
X91666666Y-67001430D02*
X91742857Y-66963335D01*
X51485714Y-67863335D02*
X51219047Y-67482382D01*
X51028571Y-67863335D02*
X51028571Y-67063335D01*
X51028571Y-67063335D02*
X51333333Y-67063335D01*
X51333333Y-67063335D02*
X51409523Y-67101430D01*
X51409523Y-67101430D02*
X51447618Y-67139525D01*
X51447618Y-67139525D02*
X51485714Y-67215716D01*
X51485714Y-67215716D02*
X51485714Y-67330001D01*
X51485714Y-67330001D02*
X51447618Y-67406192D01*
X51447618Y-67406192D02*
X51409523Y-67444287D01*
X51409523Y-67444287D02*
X51333333Y-67482382D01*
X51333333Y-67482382D02*
X51028571Y-67482382D01*
X52247618Y-67863335D02*
X51790475Y-67863335D01*
X52019047Y-67863335D02*
X52019047Y-67063335D01*
X52019047Y-67063335D02*
X51942856Y-67177620D01*
X51942856Y-67177620D02*
X51866666Y-67253811D01*
X51866666Y-67253811D02*
X51790475Y-67291906D01*
X52971428Y-67063335D02*
X52590476Y-67063335D01*
X52590476Y-67063335D02*
X52552380Y-67444287D01*
X52552380Y-67444287D02*
X52590476Y-67406192D01*
X52590476Y-67406192D02*
X52666666Y-67368097D01*
X52666666Y-67368097D02*
X52857142Y-67368097D01*
X52857142Y-67368097D02*
X52933333Y-67406192D01*
X52933333Y-67406192D02*
X52971428Y-67444287D01*
X52971428Y-67444287D02*
X53009523Y-67520478D01*
X53009523Y-67520478D02*
X53009523Y-67710954D01*
X53009523Y-67710954D02*
X52971428Y-67787144D01*
X52971428Y-67787144D02*
X52933333Y-67825240D01*
X52933333Y-67825240D02*
X52857142Y-67863335D01*
X52857142Y-67863335D02*
X52666666Y-67863335D01*
X52666666Y-67863335D02*
X52590476Y-67825240D01*
X52590476Y-67825240D02*
X52552380Y-67787144D01*
X52990476Y-77563335D02*
X53447619Y-77563335D01*
X53219047Y-78363335D02*
X53219047Y-77563335D01*
X53714286Y-78363335D02*
X53714286Y-77563335D01*
X53714286Y-77563335D02*
X54019048Y-77563335D01*
X54019048Y-77563335D02*
X54095238Y-77601430D01*
X54095238Y-77601430D02*
X54133333Y-77639525D01*
X54133333Y-77639525D02*
X54171429Y-77715716D01*
X54171429Y-77715716D02*
X54171429Y-77830001D01*
X54171429Y-77830001D02*
X54133333Y-77906192D01*
X54133333Y-77906192D02*
X54095238Y-77944287D01*
X54095238Y-77944287D02*
X54019048Y-77982382D01*
X54019048Y-77982382D02*
X53714286Y-77982382D01*
X54895238Y-77563335D02*
X54514286Y-77563335D01*
X54514286Y-77563335D02*
X54476190Y-77944287D01*
X54476190Y-77944287D02*
X54514286Y-77906192D01*
X54514286Y-77906192D02*
X54590476Y-77868097D01*
X54590476Y-77868097D02*
X54780952Y-77868097D01*
X54780952Y-77868097D02*
X54857143Y-77906192D01*
X54857143Y-77906192D02*
X54895238Y-77944287D01*
X54895238Y-77944287D02*
X54933333Y-78020478D01*
X54933333Y-78020478D02*
X54933333Y-78210954D01*
X54933333Y-78210954D02*
X54895238Y-78287144D01*
X54895238Y-78287144D02*
X54857143Y-78325240D01*
X54857143Y-78325240D02*
X54780952Y-78363335D01*
X54780952Y-78363335D02*
X54590476Y-78363335D01*
X54590476Y-78363335D02*
X54514286Y-78325240D01*
X54514286Y-78325240D02*
X54476190Y-78287144D01*
X39409524Y-68363335D02*
X39409524Y-67563335D01*
X39409524Y-67563335D02*
X39600000Y-67563335D01*
X39600000Y-67563335D02*
X39714286Y-67601430D01*
X39714286Y-67601430D02*
X39790476Y-67677620D01*
X39790476Y-67677620D02*
X39828571Y-67753811D01*
X39828571Y-67753811D02*
X39866667Y-67906192D01*
X39866667Y-67906192D02*
X39866667Y-68020478D01*
X39866667Y-68020478D02*
X39828571Y-68172859D01*
X39828571Y-68172859D02*
X39790476Y-68249049D01*
X39790476Y-68249049D02*
X39714286Y-68325240D01*
X39714286Y-68325240D02*
X39600000Y-68363335D01*
X39600000Y-68363335D02*
X39409524Y-68363335D01*
X40552381Y-67830001D02*
X40552381Y-68363335D01*
X40361905Y-67525240D02*
X40171428Y-68096668D01*
X40171428Y-68096668D02*
X40666667Y-68096668D01*
X73390476Y-34963335D02*
X73390476Y-35610954D01*
X73390476Y-35610954D02*
X73428571Y-35687144D01*
X73428571Y-35687144D02*
X73466666Y-35725240D01*
X73466666Y-35725240D02*
X73542857Y-35763335D01*
X73542857Y-35763335D02*
X73695238Y-35763335D01*
X73695238Y-35763335D02*
X73771428Y-35725240D01*
X73771428Y-35725240D02*
X73809523Y-35687144D01*
X73809523Y-35687144D02*
X73847619Y-35610954D01*
X73847619Y-35610954D02*
X73847619Y-34963335D01*
X74190475Y-35039525D02*
X74228571Y-35001430D01*
X74228571Y-35001430D02*
X74304761Y-34963335D01*
X74304761Y-34963335D02*
X74495237Y-34963335D01*
X74495237Y-34963335D02*
X74571428Y-35001430D01*
X74571428Y-35001430D02*
X74609523Y-35039525D01*
X74609523Y-35039525D02*
X74647618Y-35115716D01*
X74647618Y-35115716D02*
X74647618Y-35191906D01*
X74647618Y-35191906D02*
X74609523Y-35306192D01*
X74609523Y-35306192D02*
X74152380Y-35763335D01*
X74152380Y-35763335D02*
X74647618Y-35763335D01*
X114390476Y-31863335D02*
X114390476Y-31063335D01*
X114390476Y-31444287D02*
X114847619Y-31444287D01*
X114847619Y-31863335D02*
X114847619Y-31063335D01*
X115190475Y-31139525D02*
X115228571Y-31101430D01*
X115228571Y-31101430D02*
X115304761Y-31063335D01*
X115304761Y-31063335D02*
X115495237Y-31063335D01*
X115495237Y-31063335D02*
X115571428Y-31101430D01*
X115571428Y-31101430D02*
X115609523Y-31139525D01*
X115609523Y-31139525D02*
X115647618Y-31215716D01*
X115647618Y-31215716D02*
X115647618Y-31291906D01*
X115647618Y-31291906D02*
X115609523Y-31406192D01*
X115609523Y-31406192D02*
X115152380Y-31863335D01*
X115152380Y-31863335D02*
X115647618Y-31863335D01*
X49569523Y-78603335D02*
X50026666Y-78603335D01*
X49798094Y-79403335D02*
X49798094Y-78603335D01*
X50293333Y-79403335D02*
X50293333Y-78603335D01*
X50293333Y-78603335D02*
X50598095Y-78603335D01*
X50598095Y-78603335D02*
X50674285Y-78641430D01*
X50674285Y-78641430D02*
X50712380Y-78679525D01*
X50712380Y-78679525D02*
X50750476Y-78755716D01*
X50750476Y-78755716D02*
X50750476Y-78870001D01*
X50750476Y-78870001D02*
X50712380Y-78946192D01*
X50712380Y-78946192D02*
X50674285Y-78984287D01*
X50674285Y-78984287D02*
X50598095Y-79022382D01*
X50598095Y-79022382D02*
X50293333Y-79022382D01*
X51512380Y-79403335D02*
X51055237Y-79403335D01*
X51283809Y-79403335D02*
X51283809Y-78603335D01*
X51283809Y-78603335D02*
X51207618Y-78717620D01*
X51207618Y-78717620D02*
X51131428Y-78793811D01*
X51131428Y-78793811D02*
X51055237Y-78831906D01*
X52274285Y-79403335D02*
X51817142Y-79403335D01*
X52045714Y-79403335D02*
X52045714Y-78603335D01*
X52045714Y-78603335D02*
X51969523Y-78717620D01*
X51969523Y-78717620D02*
X51893333Y-78793811D01*
X51893333Y-78793811D02*
X51817142Y-78831906D01*
X71990476Y-76463335D02*
X71990476Y-77110954D01*
X71990476Y-77110954D02*
X72028571Y-77187144D01*
X72028571Y-77187144D02*
X72066666Y-77225240D01*
X72066666Y-77225240D02*
X72142857Y-77263335D01*
X72142857Y-77263335D02*
X72295238Y-77263335D01*
X72295238Y-77263335D02*
X72371428Y-77225240D01*
X72371428Y-77225240D02*
X72409523Y-77187144D01*
X72409523Y-77187144D02*
X72447619Y-77110954D01*
X72447619Y-77110954D02*
X72447619Y-76463335D01*
X73247618Y-77263335D02*
X72790475Y-77263335D01*
X73019047Y-77263335D02*
X73019047Y-76463335D01*
X73019047Y-76463335D02*
X72942856Y-76577620D01*
X72942856Y-76577620D02*
X72866666Y-76653811D01*
X72866666Y-76653811D02*
X72790475Y-76691906D01*
X43233333Y-35063335D02*
X43233333Y-35634763D01*
X43233333Y-35634763D02*
X43195238Y-35749049D01*
X43195238Y-35749049D02*
X43119047Y-35825240D01*
X43119047Y-35825240D02*
X43004762Y-35863335D01*
X43004762Y-35863335D02*
X42928571Y-35863335D01*
X44033333Y-35863335D02*
X43576190Y-35863335D01*
X43804762Y-35863335D02*
X43804762Y-35063335D01*
X43804762Y-35063335D02*
X43728571Y-35177620D01*
X43728571Y-35177620D02*
X43652381Y-35253811D01*
X43652381Y-35253811D02*
X43576190Y-35291906D01*
X53409524Y-47863335D02*
X53409524Y-47063335D01*
X53409524Y-47063335D02*
X53600000Y-47063335D01*
X53600000Y-47063335D02*
X53714286Y-47101430D01*
X53714286Y-47101430D02*
X53790476Y-47177620D01*
X53790476Y-47177620D02*
X53828571Y-47253811D01*
X53828571Y-47253811D02*
X53866667Y-47406192D01*
X53866667Y-47406192D02*
X53866667Y-47520478D01*
X53866667Y-47520478D02*
X53828571Y-47672859D01*
X53828571Y-47672859D02*
X53790476Y-47749049D01*
X53790476Y-47749049D02*
X53714286Y-47825240D01*
X53714286Y-47825240D02*
X53600000Y-47863335D01*
X53600000Y-47863335D02*
X53409524Y-47863335D01*
X54628571Y-47863335D02*
X54171428Y-47863335D01*
X54400000Y-47863335D02*
X54400000Y-47063335D01*
X54400000Y-47063335D02*
X54323809Y-47177620D01*
X54323809Y-47177620D02*
X54247619Y-47253811D01*
X54247619Y-47253811D02*
X54171428Y-47291906D01*
X47485714Y-88463335D02*
X47219047Y-88082382D01*
X47028571Y-88463335D02*
X47028571Y-87663335D01*
X47028571Y-87663335D02*
X47333333Y-87663335D01*
X47333333Y-87663335D02*
X47409523Y-87701430D01*
X47409523Y-87701430D02*
X47447618Y-87739525D01*
X47447618Y-87739525D02*
X47485714Y-87815716D01*
X47485714Y-87815716D02*
X47485714Y-87930001D01*
X47485714Y-87930001D02*
X47447618Y-88006192D01*
X47447618Y-88006192D02*
X47409523Y-88044287D01*
X47409523Y-88044287D02*
X47333333Y-88082382D01*
X47333333Y-88082382D02*
X47028571Y-88082382D01*
X48247618Y-88463335D02*
X47790475Y-88463335D01*
X48019047Y-88463335D02*
X48019047Y-87663335D01*
X48019047Y-87663335D02*
X47942856Y-87777620D01*
X47942856Y-87777620D02*
X47866666Y-87853811D01*
X47866666Y-87853811D02*
X47790475Y-87891906D01*
X49009523Y-88463335D02*
X48552380Y-88463335D01*
X48780952Y-88463335D02*
X48780952Y-87663335D01*
X48780952Y-87663335D02*
X48704761Y-87777620D01*
X48704761Y-87777620D02*
X48628571Y-87853811D01*
X48628571Y-87853811D02*
X48552380Y-87891906D01*
X95866667Y-80463335D02*
X95600000Y-80082382D01*
X95409524Y-80463335D02*
X95409524Y-79663335D01*
X95409524Y-79663335D02*
X95714286Y-79663335D01*
X95714286Y-79663335D02*
X95790476Y-79701430D01*
X95790476Y-79701430D02*
X95828571Y-79739525D01*
X95828571Y-79739525D02*
X95866667Y-79815716D01*
X95866667Y-79815716D02*
X95866667Y-79930001D01*
X95866667Y-79930001D02*
X95828571Y-80006192D01*
X95828571Y-80006192D02*
X95790476Y-80044287D01*
X95790476Y-80044287D02*
X95714286Y-80082382D01*
X95714286Y-80082382D02*
X95409524Y-80082382D01*
X96133333Y-79663335D02*
X96628571Y-79663335D01*
X96628571Y-79663335D02*
X96361905Y-79968097D01*
X96361905Y-79968097D02*
X96476190Y-79968097D01*
X96476190Y-79968097D02*
X96552381Y-80006192D01*
X96552381Y-80006192D02*
X96590476Y-80044287D01*
X96590476Y-80044287D02*
X96628571Y-80120478D01*
X96628571Y-80120478D02*
X96628571Y-80310954D01*
X96628571Y-80310954D02*
X96590476Y-80387144D01*
X96590476Y-80387144D02*
X96552381Y-80425240D01*
X96552381Y-80425240D02*
X96476190Y-80463335D01*
X96476190Y-80463335D02*
X96247619Y-80463335D01*
X96247619Y-80463335D02*
X96171428Y-80425240D01*
X96171428Y-80425240D02*
X96133333Y-80387144D01*
X99889524Y-41883335D02*
X99889524Y-41083335D01*
X99889524Y-41083335D02*
X100080000Y-41083335D01*
X100080000Y-41083335D02*
X100194286Y-41121430D01*
X100194286Y-41121430D02*
X100270476Y-41197620D01*
X100270476Y-41197620D02*
X100308571Y-41273811D01*
X100308571Y-41273811D02*
X100346667Y-41426192D01*
X100346667Y-41426192D02*
X100346667Y-41540478D01*
X100346667Y-41540478D02*
X100308571Y-41692859D01*
X100308571Y-41692859D02*
X100270476Y-41769049D01*
X100270476Y-41769049D02*
X100194286Y-41845240D01*
X100194286Y-41845240D02*
X100080000Y-41883335D01*
X100080000Y-41883335D02*
X99889524Y-41883335D01*
X100613333Y-41083335D02*
X101108571Y-41083335D01*
X101108571Y-41083335D02*
X100841905Y-41388097D01*
X100841905Y-41388097D02*
X100956190Y-41388097D01*
X100956190Y-41388097D02*
X101032381Y-41426192D01*
X101032381Y-41426192D02*
X101070476Y-41464287D01*
X101070476Y-41464287D02*
X101108571Y-41540478D01*
X101108571Y-41540478D02*
X101108571Y-41730954D01*
X101108571Y-41730954D02*
X101070476Y-41807144D01*
X101070476Y-41807144D02*
X101032381Y-41845240D01*
X101032381Y-41845240D02*
X100956190Y-41883335D01*
X100956190Y-41883335D02*
X100727619Y-41883335D01*
X100727619Y-41883335D02*
X100651428Y-41845240D01*
X100651428Y-41845240D02*
X100613333Y-41807144D01*
X87466667Y-81863335D02*
X87200000Y-81482382D01*
X87009524Y-81863335D02*
X87009524Y-81063335D01*
X87009524Y-81063335D02*
X87314286Y-81063335D01*
X87314286Y-81063335D02*
X87390476Y-81101430D01*
X87390476Y-81101430D02*
X87428571Y-81139525D01*
X87428571Y-81139525D02*
X87466667Y-81215716D01*
X87466667Y-81215716D02*
X87466667Y-81330001D01*
X87466667Y-81330001D02*
X87428571Y-81406192D01*
X87428571Y-81406192D02*
X87390476Y-81444287D01*
X87390476Y-81444287D02*
X87314286Y-81482382D01*
X87314286Y-81482382D02*
X87009524Y-81482382D01*
X88190476Y-81063335D02*
X87809524Y-81063335D01*
X87809524Y-81063335D02*
X87771428Y-81444287D01*
X87771428Y-81444287D02*
X87809524Y-81406192D01*
X87809524Y-81406192D02*
X87885714Y-81368097D01*
X87885714Y-81368097D02*
X88076190Y-81368097D01*
X88076190Y-81368097D02*
X88152381Y-81406192D01*
X88152381Y-81406192D02*
X88190476Y-81444287D01*
X88190476Y-81444287D02*
X88228571Y-81520478D01*
X88228571Y-81520478D02*
X88228571Y-81710954D01*
X88228571Y-81710954D02*
X88190476Y-81787144D01*
X88190476Y-81787144D02*
X88152381Y-81825240D01*
X88152381Y-81825240D02*
X88076190Y-81863335D01*
X88076190Y-81863335D02*
X87885714Y-81863335D01*
X87885714Y-81863335D02*
X87809524Y-81825240D01*
X87809524Y-81825240D02*
X87771428Y-81787144D01*
X90990476Y-41563335D02*
X91447619Y-41563335D01*
X91219047Y-42363335D02*
X91219047Y-41563335D01*
X91714286Y-42363335D02*
X91714286Y-41563335D01*
X91714286Y-41563335D02*
X92019048Y-41563335D01*
X92019048Y-41563335D02*
X92095238Y-41601430D01*
X92095238Y-41601430D02*
X92133333Y-41639525D01*
X92133333Y-41639525D02*
X92171429Y-41715716D01*
X92171429Y-41715716D02*
X92171429Y-41830001D01*
X92171429Y-41830001D02*
X92133333Y-41906192D01*
X92133333Y-41906192D02*
X92095238Y-41944287D01*
X92095238Y-41944287D02*
X92019048Y-41982382D01*
X92019048Y-41982382D02*
X91714286Y-41982382D01*
X92476190Y-41639525D02*
X92514286Y-41601430D01*
X92514286Y-41601430D02*
X92590476Y-41563335D01*
X92590476Y-41563335D02*
X92780952Y-41563335D01*
X92780952Y-41563335D02*
X92857143Y-41601430D01*
X92857143Y-41601430D02*
X92895238Y-41639525D01*
X92895238Y-41639525D02*
X92933333Y-41715716D01*
X92933333Y-41715716D02*
X92933333Y-41791906D01*
X92933333Y-41791906D02*
X92895238Y-41906192D01*
X92895238Y-41906192D02*
X92438095Y-42363335D01*
X92438095Y-42363335D02*
X92933333Y-42363335D01*
X84866667Y-81887144D02*
X84828571Y-81925240D01*
X84828571Y-81925240D02*
X84714286Y-81963335D01*
X84714286Y-81963335D02*
X84638095Y-81963335D01*
X84638095Y-81963335D02*
X84523809Y-81925240D01*
X84523809Y-81925240D02*
X84447619Y-81849049D01*
X84447619Y-81849049D02*
X84409524Y-81772859D01*
X84409524Y-81772859D02*
X84371428Y-81620478D01*
X84371428Y-81620478D02*
X84371428Y-81506192D01*
X84371428Y-81506192D02*
X84409524Y-81353811D01*
X84409524Y-81353811D02*
X84447619Y-81277620D01*
X84447619Y-81277620D02*
X84523809Y-81201430D01*
X84523809Y-81201430D02*
X84638095Y-81163335D01*
X84638095Y-81163335D02*
X84714286Y-81163335D01*
X84714286Y-81163335D02*
X84828571Y-81201430D01*
X84828571Y-81201430D02*
X84866667Y-81239525D01*
X85247619Y-81963335D02*
X85400000Y-81963335D01*
X85400000Y-81963335D02*
X85476190Y-81925240D01*
X85476190Y-81925240D02*
X85514286Y-81887144D01*
X85514286Y-81887144D02*
X85590476Y-81772859D01*
X85590476Y-81772859D02*
X85628571Y-81620478D01*
X85628571Y-81620478D02*
X85628571Y-81315716D01*
X85628571Y-81315716D02*
X85590476Y-81239525D01*
X85590476Y-81239525D02*
X85552381Y-81201430D01*
X85552381Y-81201430D02*
X85476190Y-81163335D01*
X85476190Y-81163335D02*
X85323809Y-81163335D01*
X85323809Y-81163335D02*
X85247619Y-81201430D01*
X85247619Y-81201430D02*
X85209524Y-81239525D01*
X85209524Y-81239525D02*
X85171428Y-81315716D01*
X85171428Y-81315716D02*
X85171428Y-81506192D01*
X85171428Y-81506192D02*
X85209524Y-81582382D01*
X85209524Y-81582382D02*
X85247619Y-81620478D01*
X85247619Y-81620478D02*
X85323809Y-81658573D01*
X85323809Y-81658573D02*
X85476190Y-81658573D01*
X85476190Y-81658573D02*
X85552381Y-81620478D01*
X85552381Y-81620478D02*
X85590476Y-81582382D01*
X85590476Y-81582382D02*
X85628571Y-81506192D01*
X62990476Y-40063335D02*
X63447619Y-40063335D01*
X63219047Y-40863335D02*
X63219047Y-40063335D01*
X63714286Y-40863335D02*
X63714286Y-40063335D01*
X63714286Y-40063335D02*
X64019048Y-40063335D01*
X64019048Y-40063335D02*
X64095238Y-40101430D01*
X64095238Y-40101430D02*
X64133333Y-40139525D01*
X64133333Y-40139525D02*
X64171429Y-40215716D01*
X64171429Y-40215716D02*
X64171429Y-40330001D01*
X64171429Y-40330001D02*
X64133333Y-40406192D01*
X64133333Y-40406192D02*
X64095238Y-40444287D01*
X64095238Y-40444287D02*
X64019048Y-40482382D01*
X64019048Y-40482382D02*
X63714286Y-40482382D01*
X64933333Y-40863335D02*
X64476190Y-40863335D01*
X64704762Y-40863335D02*
X64704762Y-40063335D01*
X64704762Y-40063335D02*
X64628571Y-40177620D01*
X64628571Y-40177620D02*
X64552381Y-40253811D01*
X64552381Y-40253811D02*
X64476190Y-40291906D01*
X99485714Y-70563335D02*
X99219047Y-70182382D01*
X99028571Y-70563335D02*
X99028571Y-69763335D01*
X99028571Y-69763335D02*
X99333333Y-69763335D01*
X99333333Y-69763335D02*
X99409523Y-69801430D01*
X99409523Y-69801430D02*
X99447618Y-69839525D01*
X99447618Y-69839525D02*
X99485714Y-69915716D01*
X99485714Y-69915716D02*
X99485714Y-70030001D01*
X99485714Y-70030001D02*
X99447618Y-70106192D01*
X99447618Y-70106192D02*
X99409523Y-70144287D01*
X99409523Y-70144287D02*
X99333333Y-70182382D01*
X99333333Y-70182382D02*
X99028571Y-70182382D01*
X100247618Y-70563335D02*
X99790475Y-70563335D01*
X100019047Y-70563335D02*
X100019047Y-69763335D01*
X100019047Y-69763335D02*
X99942856Y-69877620D01*
X99942856Y-69877620D02*
X99866666Y-69953811D01*
X99866666Y-69953811D02*
X99790475Y-69991906D01*
X100933333Y-69763335D02*
X100780952Y-69763335D01*
X100780952Y-69763335D02*
X100704761Y-69801430D01*
X100704761Y-69801430D02*
X100666666Y-69839525D01*
X100666666Y-69839525D02*
X100590476Y-69953811D01*
X100590476Y-69953811D02*
X100552380Y-70106192D01*
X100552380Y-70106192D02*
X100552380Y-70410954D01*
X100552380Y-70410954D02*
X100590476Y-70487144D01*
X100590476Y-70487144D02*
X100628571Y-70525240D01*
X100628571Y-70525240D02*
X100704761Y-70563335D01*
X100704761Y-70563335D02*
X100857142Y-70563335D01*
X100857142Y-70563335D02*
X100933333Y-70525240D01*
X100933333Y-70525240D02*
X100971428Y-70487144D01*
X100971428Y-70487144D02*
X101009523Y-70410954D01*
X101009523Y-70410954D02*
X101009523Y-70220478D01*
X101009523Y-70220478D02*
X100971428Y-70144287D01*
X100971428Y-70144287D02*
X100933333Y-70106192D01*
X100933333Y-70106192D02*
X100857142Y-70068097D01*
X100857142Y-70068097D02*
X100704761Y-70068097D01*
X100704761Y-70068097D02*
X100628571Y-70106192D01*
X100628571Y-70106192D02*
X100590476Y-70144287D01*
X100590476Y-70144287D02*
X100552380Y-70220478D01*
X39685714Y-60363335D02*
X39304762Y-60363335D01*
X39304762Y-60363335D02*
X39304762Y-59563335D01*
X39914285Y-60325240D02*
X40028571Y-60363335D01*
X40028571Y-60363335D02*
X40219047Y-60363335D01*
X40219047Y-60363335D02*
X40295238Y-60325240D01*
X40295238Y-60325240D02*
X40333333Y-60287144D01*
X40333333Y-60287144D02*
X40371428Y-60210954D01*
X40371428Y-60210954D02*
X40371428Y-60134763D01*
X40371428Y-60134763D02*
X40333333Y-60058573D01*
X40333333Y-60058573D02*
X40295238Y-60020478D01*
X40295238Y-60020478D02*
X40219047Y-59982382D01*
X40219047Y-59982382D02*
X40066666Y-59944287D01*
X40066666Y-59944287D02*
X39990476Y-59906192D01*
X39990476Y-59906192D02*
X39952381Y-59868097D01*
X39952381Y-59868097D02*
X39914285Y-59791906D01*
X39914285Y-59791906D02*
X39914285Y-59715716D01*
X39914285Y-59715716D02*
X39952381Y-59639525D01*
X39952381Y-59639525D02*
X39990476Y-59601430D01*
X39990476Y-59601430D02*
X40066666Y-59563335D01*
X40066666Y-59563335D02*
X40257143Y-59563335D01*
X40257143Y-59563335D02*
X40371428Y-59601430D01*
X41133333Y-60363335D02*
X40676190Y-60363335D01*
X40904762Y-60363335D02*
X40904762Y-59563335D01*
X40904762Y-59563335D02*
X40828571Y-59677620D01*
X40828571Y-59677620D02*
X40752381Y-59753811D01*
X40752381Y-59753811D02*
X40676190Y-59791906D01*
D14*
X43609048Y-57533866D02*
X44370953Y-57533866D01*
X43990000Y-57914819D02*
X43990000Y-57152914D01*
D13*
X63866667Y-38287144D02*
X63828571Y-38325240D01*
X63828571Y-38325240D02*
X63714286Y-38363335D01*
X63714286Y-38363335D02*
X63638095Y-38363335D01*
X63638095Y-38363335D02*
X63523809Y-38325240D01*
X63523809Y-38325240D02*
X63447619Y-38249049D01*
X63447619Y-38249049D02*
X63409524Y-38172859D01*
X63409524Y-38172859D02*
X63371428Y-38020478D01*
X63371428Y-38020478D02*
X63371428Y-37906192D01*
X63371428Y-37906192D02*
X63409524Y-37753811D01*
X63409524Y-37753811D02*
X63447619Y-37677620D01*
X63447619Y-37677620D02*
X63523809Y-37601430D01*
X63523809Y-37601430D02*
X63638095Y-37563335D01*
X63638095Y-37563335D02*
X63714286Y-37563335D01*
X63714286Y-37563335D02*
X63828571Y-37601430D01*
X63828571Y-37601430D02*
X63866667Y-37639525D01*
X64628571Y-38363335D02*
X64171428Y-38363335D01*
X64400000Y-38363335D02*
X64400000Y-37563335D01*
X64400000Y-37563335D02*
X64323809Y-37677620D01*
X64323809Y-37677620D02*
X64247619Y-37753811D01*
X64247619Y-37753811D02*
X64171428Y-37791906D01*
X92866667Y-80763335D02*
X92600000Y-80382382D01*
X92409524Y-80763335D02*
X92409524Y-79963335D01*
X92409524Y-79963335D02*
X92714286Y-79963335D01*
X92714286Y-79963335D02*
X92790476Y-80001430D01*
X92790476Y-80001430D02*
X92828571Y-80039525D01*
X92828571Y-80039525D02*
X92866667Y-80115716D01*
X92866667Y-80115716D02*
X92866667Y-80230001D01*
X92866667Y-80230001D02*
X92828571Y-80306192D01*
X92828571Y-80306192D02*
X92790476Y-80344287D01*
X92790476Y-80344287D02*
X92714286Y-80382382D01*
X92714286Y-80382382D02*
X92409524Y-80382382D01*
X93552381Y-79963335D02*
X93400000Y-79963335D01*
X93400000Y-79963335D02*
X93323809Y-80001430D01*
X93323809Y-80001430D02*
X93285714Y-80039525D01*
X93285714Y-80039525D02*
X93209524Y-80153811D01*
X93209524Y-80153811D02*
X93171428Y-80306192D01*
X93171428Y-80306192D02*
X93171428Y-80610954D01*
X93171428Y-80610954D02*
X93209524Y-80687144D01*
X93209524Y-80687144D02*
X93247619Y-80725240D01*
X93247619Y-80725240D02*
X93323809Y-80763335D01*
X93323809Y-80763335D02*
X93476190Y-80763335D01*
X93476190Y-80763335D02*
X93552381Y-80725240D01*
X93552381Y-80725240D02*
X93590476Y-80687144D01*
X93590476Y-80687144D02*
X93628571Y-80610954D01*
X93628571Y-80610954D02*
X93628571Y-80420478D01*
X93628571Y-80420478D02*
X93590476Y-80344287D01*
X93590476Y-80344287D02*
X93552381Y-80306192D01*
X93552381Y-80306192D02*
X93476190Y-80268097D01*
X93476190Y-80268097D02*
X93323809Y-80268097D01*
X93323809Y-80268097D02*
X93247619Y-80306192D01*
X93247619Y-80306192D02*
X93209524Y-80344287D01*
X93209524Y-80344287D02*
X93171428Y-80420478D01*
X69866667Y-46963335D02*
X69600000Y-46582382D01*
X69409524Y-46963335D02*
X69409524Y-46163335D01*
X69409524Y-46163335D02*
X69714286Y-46163335D01*
X69714286Y-46163335D02*
X69790476Y-46201430D01*
X69790476Y-46201430D02*
X69828571Y-46239525D01*
X69828571Y-46239525D02*
X69866667Y-46315716D01*
X69866667Y-46315716D02*
X69866667Y-46430001D01*
X69866667Y-46430001D02*
X69828571Y-46506192D01*
X69828571Y-46506192D02*
X69790476Y-46544287D01*
X69790476Y-46544287D02*
X69714286Y-46582382D01*
X69714286Y-46582382D02*
X69409524Y-46582382D01*
X70628571Y-46963335D02*
X70171428Y-46963335D01*
X70400000Y-46963335D02*
X70400000Y-46163335D01*
X70400000Y-46163335D02*
X70323809Y-46277620D01*
X70323809Y-46277620D02*
X70247619Y-46353811D01*
X70247619Y-46353811D02*
X70171428Y-46391906D01*
X41485714Y-88463335D02*
X41219047Y-88082382D01*
X41028571Y-88463335D02*
X41028571Y-87663335D01*
X41028571Y-87663335D02*
X41333333Y-87663335D01*
X41333333Y-87663335D02*
X41409523Y-87701430D01*
X41409523Y-87701430D02*
X41447618Y-87739525D01*
X41447618Y-87739525D02*
X41485714Y-87815716D01*
X41485714Y-87815716D02*
X41485714Y-87930001D01*
X41485714Y-87930001D02*
X41447618Y-88006192D01*
X41447618Y-88006192D02*
X41409523Y-88044287D01*
X41409523Y-88044287D02*
X41333333Y-88082382D01*
X41333333Y-88082382D02*
X41028571Y-88082382D01*
X42247618Y-88463335D02*
X41790475Y-88463335D01*
X42019047Y-88463335D02*
X42019047Y-87663335D01*
X42019047Y-87663335D02*
X41942856Y-87777620D01*
X41942856Y-87777620D02*
X41866666Y-87853811D01*
X41866666Y-87853811D02*
X41790475Y-87891906D01*
X42552380Y-87739525D02*
X42590476Y-87701430D01*
X42590476Y-87701430D02*
X42666666Y-87663335D01*
X42666666Y-87663335D02*
X42857142Y-87663335D01*
X42857142Y-87663335D02*
X42933333Y-87701430D01*
X42933333Y-87701430D02*
X42971428Y-87739525D01*
X42971428Y-87739525D02*
X43009523Y-87815716D01*
X43009523Y-87815716D02*
X43009523Y-87891906D01*
X43009523Y-87891906D02*
X42971428Y-88006192D01*
X42971428Y-88006192D02*
X42514285Y-88463335D01*
X42514285Y-88463335D02*
X43009523Y-88463335D01*
X109366667Y-75187144D02*
X109328571Y-75225240D01*
X109328571Y-75225240D02*
X109214286Y-75263335D01*
X109214286Y-75263335D02*
X109138095Y-75263335D01*
X109138095Y-75263335D02*
X109023809Y-75225240D01*
X109023809Y-75225240D02*
X108947619Y-75149049D01*
X108947619Y-75149049D02*
X108909524Y-75072859D01*
X108909524Y-75072859D02*
X108871428Y-74920478D01*
X108871428Y-74920478D02*
X108871428Y-74806192D01*
X108871428Y-74806192D02*
X108909524Y-74653811D01*
X108909524Y-74653811D02*
X108947619Y-74577620D01*
X108947619Y-74577620D02*
X109023809Y-74501430D01*
X109023809Y-74501430D02*
X109138095Y-74463335D01*
X109138095Y-74463335D02*
X109214286Y-74463335D01*
X109214286Y-74463335D02*
X109328571Y-74501430D01*
X109328571Y-74501430D02*
X109366667Y-74539525D01*
X110052381Y-74463335D02*
X109900000Y-74463335D01*
X109900000Y-74463335D02*
X109823809Y-74501430D01*
X109823809Y-74501430D02*
X109785714Y-74539525D01*
X109785714Y-74539525D02*
X109709524Y-74653811D01*
X109709524Y-74653811D02*
X109671428Y-74806192D01*
X109671428Y-74806192D02*
X109671428Y-75110954D01*
X109671428Y-75110954D02*
X109709524Y-75187144D01*
X109709524Y-75187144D02*
X109747619Y-75225240D01*
X109747619Y-75225240D02*
X109823809Y-75263335D01*
X109823809Y-75263335D02*
X109976190Y-75263335D01*
X109976190Y-75263335D02*
X110052381Y-75225240D01*
X110052381Y-75225240D02*
X110090476Y-75187144D01*
X110090476Y-75187144D02*
X110128571Y-75110954D01*
X110128571Y-75110954D02*
X110128571Y-74920478D01*
X110128571Y-74920478D02*
X110090476Y-74844287D01*
X110090476Y-74844287D02*
X110052381Y-74806192D01*
X110052381Y-74806192D02*
X109976190Y-74768097D01*
X109976190Y-74768097D02*
X109823809Y-74768097D01*
X109823809Y-74768097D02*
X109747619Y-74806192D01*
X109747619Y-74806192D02*
X109709524Y-74844287D01*
X109709524Y-74844287D02*
X109671428Y-74920478D01*
X87409524Y-36363335D02*
X87409524Y-35563335D01*
X87409524Y-35563335D02*
X87600000Y-35563335D01*
X87600000Y-35563335D02*
X87714286Y-35601430D01*
X87714286Y-35601430D02*
X87790476Y-35677620D01*
X87790476Y-35677620D02*
X87828571Y-35753811D01*
X87828571Y-35753811D02*
X87866667Y-35906192D01*
X87866667Y-35906192D02*
X87866667Y-36020478D01*
X87866667Y-36020478D02*
X87828571Y-36172859D01*
X87828571Y-36172859D02*
X87790476Y-36249049D01*
X87790476Y-36249049D02*
X87714286Y-36325240D01*
X87714286Y-36325240D02*
X87600000Y-36363335D01*
X87600000Y-36363335D02*
X87409524Y-36363335D01*
X88171428Y-35639525D02*
X88209524Y-35601430D01*
X88209524Y-35601430D02*
X88285714Y-35563335D01*
X88285714Y-35563335D02*
X88476190Y-35563335D01*
X88476190Y-35563335D02*
X88552381Y-35601430D01*
X88552381Y-35601430D02*
X88590476Y-35639525D01*
X88590476Y-35639525D02*
X88628571Y-35715716D01*
X88628571Y-35715716D02*
X88628571Y-35791906D01*
X88628571Y-35791906D02*
X88590476Y-35906192D01*
X88590476Y-35906192D02*
X88133333Y-36363335D01*
X88133333Y-36363335D02*
X88628571Y-36363335D01*
X82490476Y-65063335D02*
X82947619Y-65063335D01*
X82719047Y-65863335D02*
X82719047Y-65063335D01*
X83214286Y-65863335D02*
X83214286Y-65063335D01*
X83214286Y-65063335D02*
X83519048Y-65063335D01*
X83519048Y-65063335D02*
X83595238Y-65101430D01*
X83595238Y-65101430D02*
X83633333Y-65139525D01*
X83633333Y-65139525D02*
X83671429Y-65215716D01*
X83671429Y-65215716D02*
X83671429Y-65330001D01*
X83671429Y-65330001D02*
X83633333Y-65406192D01*
X83633333Y-65406192D02*
X83595238Y-65444287D01*
X83595238Y-65444287D02*
X83519048Y-65482382D01*
X83519048Y-65482382D02*
X83214286Y-65482382D01*
X83938095Y-65063335D02*
X84471429Y-65063335D01*
X84471429Y-65063335D02*
X84128571Y-65863335D01*
%TO.C,R14*%
D15*
X45772936Y-69265000D02*
X46227064Y-69265000D01*
X45772936Y-70735000D02*
X46227064Y-70735000D01*
%TO.C,TP3*%
X105950000Y-87500000D02*
G75*
G02*
X104050000Y-87500000I-950000J0D01*
G01*
X104050000Y-87500000D02*
G75*
G02*
X105950000Y-87500000I950000J0D01*
G01*
%TO.C,C8*%
X90265000Y-81861252D02*
X90265000Y-81338748D01*
X91735000Y-81861252D02*
X91735000Y-81338748D01*
%TO.C,TP6*%
X96950000Y-70500000D02*
G75*
G02*
X95050000Y-70500000I-950000J0D01*
G01*
X95050000Y-70500000D02*
G75*
G02*
X96950000Y-70500000I950000J0D01*
G01*
%TO.C,TP10*%
X66950000Y-42500000D02*
G75*
G02*
X65050000Y-42500000I-950000J0D01*
G01*
X65050000Y-42500000D02*
G75*
G02*
X66950000Y-42500000I950000J0D01*
G01*
%TO.C,F1*%
X97772936Y-37265000D02*
X98227064Y-37265000D01*
X97772936Y-38735000D02*
X98227064Y-38735000D01*
%TO.C,R7*%
X85772936Y-76165000D02*
X86227064Y-76165000D01*
X85772936Y-77635000D02*
X86227064Y-77635000D01*
%TO.C,U3*%
X103600000Y-83110000D02*
X105400000Y-83110000D01*
X104600000Y-79890000D02*
X103800000Y-79890000D01*
X104600000Y-79890000D02*
X105400000Y-79890000D01*
X103300000Y-79940000D02*
X103060000Y-79610000D01*
X103540000Y-79610000D01*
X103300000Y-79940000D01*
G36*
X103300000Y-79940000D02*
G01*
X103060000Y-79610000D01*
X103540000Y-79610000D01*
X103300000Y-79940000D01*
G37*
%TO.C,TP4*%
X96950000Y-87200000D02*
G75*
G02*
X95050000Y-87200000I-950000J0D01*
G01*
X95050000Y-87200000D02*
G75*
G02*
X96950000Y-87200000I950000J0D01*
G01*
%TO.C,R10*%
X39772936Y-79265000D02*
X40227064Y-79265000D01*
X39772936Y-80735000D02*
X40227064Y-80735000D01*
%TO.C,C3*%
X81265000Y-43738748D02*
X81265000Y-44261252D01*
X82735000Y-43738748D02*
X82735000Y-44261252D01*
%TO.C,J3*%
X111250000Y-87600000D02*
X111250000Y-88850000D01*
X111250000Y-88850000D02*
X112500000Y-88850000D01*
X113800000Y-68450000D02*
X113800000Y-69200000D01*
X113800000Y-69200000D02*
X116750000Y-69200000D01*
X113800000Y-87800000D02*
X116750000Y-87800000D01*
X113800000Y-88550000D02*
X113800000Y-87800000D01*
X116750000Y-69200000D02*
X116750000Y-78500000D01*
X116750000Y-87800000D02*
X116750000Y-78500000D01*
X111540000Y-68440000D02*
X117510000Y-68440000D01*
X117510000Y-88560000D01*
X111540000Y-88560000D01*
X111540000Y-68440000D01*
X111550000Y-68450000D02*
X112300000Y-68450000D01*
X112300000Y-70250000D01*
X111550000Y-70250000D01*
X111550000Y-68450000D01*
X111550000Y-71750000D02*
X112300000Y-71750000D01*
X112300000Y-85250000D01*
X111550000Y-85250000D01*
X111550000Y-71750000D01*
X111550000Y-86750000D02*
X112300000Y-86750000D01*
X112300000Y-88550000D01*
X111550000Y-88550000D01*
X111550000Y-86750000D01*
%TO.C,R4*%
X85772936Y-69765000D02*
X86227064Y-69765000D01*
X85772936Y-71235000D02*
X86227064Y-71235000D01*
%TO.C,C4*%
X85265000Y-43738748D02*
X85265000Y-44261252D01*
X86735000Y-43738748D02*
X86735000Y-44261252D01*
%TO.C,C2*%
X65265000Y-37738748D02*
X65265000Y-38261252D01*
X66735000Y-37738748D02*
X66735000Y-38261252D01*
%TO.C,R13*%
X55772936Y-59265000D02*
X56227064Y-59265000D01*
X55772936Y-60735000D02*
X56227064Y-60735000D01*
%TO.C,C11*%
X57265000Y-73261252D02*
X57265000Y-72738748D01*
X58735000Y-73261252D02*
X58735000Y-72738748D01*
%TO.C,R8*%
X90772936Y-74665000D02*
X91227064Y-74665000D01*
X90772936Y-76135000D02*
X91227064Y-76135000D01*
%TO.C,J4*%
X31150000Y-82250000D02*
X31150000Y-83500000D01*
X31450000Y-84800000D02*
X32200000Y-84800000D01*
X32200000Y-84800000D02*
X32200000Y-87750000D01*
X32200000Y-87750000D02*
X35250000Y-87750000D01*
X32400000Y-82250000D02*
X31150000Y-82250000D01*
X38300000Y-84800000D02*
X38300000Y-87750000D01*
X38300000Y-87750000D02*
X35250000Y-87750000D01*
X39050000Y-84800000D02*
X38300000Y-84800000D01*
X31440000Y-82540000D02*
X39060000Y-82540000D01*
X39060000Y-88510000D01*
X31440000Y-88510000D01*
X31440000Y-82540000D01*
X31450000Y-82550000D02*
X33250000Y-82550000D01*
X33250000Y-83300000D01*
X31450000Y-83300000D01*
X31450000Y-82550000D01*
X34750000Y-82550000D02*
X35750000Y-82550000D01*
X35750000Y-83300000D01*
X34750000Y-83300000D01*
X34750000Y-82550000D01*
X37250000Y-82550000D02*
X39050000Y-82550000D01*
X39050000Y-83300000D01*
X37250000Y-83300000D01*
X37250000Y-82550000D01*
%TO.C,C7*%
X108765000Y-84738748D02*
X108765000Y-85261252D01*
X110235000Y-84738748D02*
X110235000Y-85261252D01*
%TO.C,TP12*%
X38950000Y-76000000D02*
G75*
G02*
X37050000Y-76000000I-950000J0D01*
G01*
X37050000Y-76000000D02*
G75*
G02*
X38950000Y-76000000I950000J0D01*
G01*
%TO.C,C5*%
X99738748Y-86765000D02*
X100261252Y-86765000D01*
X99738748Y-88235000D02*
X100261252Y-88235000D01*
%TO.C,J2*%
X103640000Y-35890000D02*
X103640000Y-37140000D01*
X103940000Y-37500000D02*
X104550000Y-37500000D01*
X103940000Y-38800000D02*
X104550000Y-38800000D01*
X104550000Y-36800000D02*
X104550000Y-40300000D01*
X104550000Y-40300000D02*
X109450000Y-40300000D01*
X104890000Y-35890000D02*
X103640000Y-35890000D01*
X105400000Y-35990000D02*
X105400000Y-36190000D01*
X105700000Y-35990000D02*
X105400000Y-35990000D01*
X105700000Y-36090000D02*
X105400000Y-36090000D01*
X105700000Y-36190000D02*
X105700000Y-35990000D01*
X106500000Y-36190000D02*
X106500000Y-36800000D01*
X106500000Y-36800000D02*
X104550000Y-36800000D01*
X106900000Y-39800000D02*
X107100000Y-39800000D01*
X106900000Y-40300000D02*
X106900000Y-39800000D01*
X107000000Y-40300000D02*
X107000000Y-39800000D01*
X107100000Y-39800000D02*
X107100000Y-40300000D01*
X107500000Y-36800000D02*
X107500000Y-36190000D01*
X109450000Y-36800000D02*
X107500000Y-36800000D01*
X109450000Y-40300000D02*
X109450000Y-36800000D01*
X110060000Y-37500000D02*
X109450000Y-37500000D01*
X110060000Y-38800000D02*
X109450000Y-38800000D01*
X103940000Y-36190000D02*
X110060000Y-36190000D01*
X110060000Y-40910000D01*
X103940000Y-40910000D01*
X103940000Y-36190000D01*
%TO.C,SW1*%
X99590000Y-49740000D02*
X108410000Y-49740000D01*
X99590000Y-50050000D02*
X99590000Y-49740000D01*
X99590000Y-54260000D02*
X99590000Y-53950000D01*
X101500000Y-49040000D02*
X102000000Y-49540000D01*
X102000000Y-49540000D02*
X102500000Y-49040000D01*
X102500000Y-49040000D02*
X101500000Y-49040000D01*
X108410000Y-49740000D02*
X108410000Y-50050000D01*
X108410000Y-54260000D02*
X99590000Y-54260000D01*
X108410000Y-54260000D02*
X108410000Y-53950000D01*
%TO.C,R9*%
X85772936Y-73165000D02*
X86227064Y-73165000D01*
X85772936Y-74635000D02*
X86227064Y-74635000D01*
%TO.C,R2*%
X81772936Y-37265000D02*
X82227064Y-37265000D01*
X81772936Y-38735000D02*
X82227064Y-38735000D01*
%TO.C,C10*%
X90738748Y-69765000D02*
X91261252Y-69765000D01*
X90738748Y-71235000D02*
X91261252Y-71235000D01*
%TO.C,R15*%
X51772936Y-69265000D02*
X52227064Y-69265000D01*
X51772936Y-70735000D02*
X52227064Y-70735000D01*
%TO.C,TP5*%
X54950000Y-80000000D02*
G75*
G02*
X53050000Y-80000000I-950000J0D01*
G01*
X53050000Y-80000000D02*
G75*
G02*
X54950000Y-80000000I950000J0D01*
G01*
%TO.C,D4*%
X38140000Y-69040000D02*
X38140000Y-70960000D01*
X38140000Y-70960000D02*
X41000000Y-70960000D01*
X41000000Y-69040000D02*
X38140000Y-69040000D01*
%TO.C,U2*%
X73100000Y-41610000D02*
X74900000Y-41610000D01*
X74100000Y-38390000D02*
X73300000Y-38390000D01*
X74100000Y-38390000D02*
X74900000Y-38390000D01*
X72800000Y-38440000D02*
X72560000Y-38110000D01*
X73040000Y-38110000D01*
X72800000Y-38440000D01*
G36*
X72800000Y-38440000D02*
G01*
X72560000Y-38110000D01*
X73040000Y-38110000D01*
X72800000Y-38440000D01*
G37*
%TO.C,TP11*%
X54950000Y-76000000D02*
G75*
G02*
X53050000Y-76000000I-950000J0D01*
G01*
X53050000Y-76000000D02*
G75*
G02*
X54950000Y-76000000I950000J0D01*
G01*
%TO.C,U1*%
X61890000Y-70190000D02*
X61890000Y-69890000D01*
X80110000Y-69890000D02*
X61890000Y-69890000D01*
X80110000Y-70190000D02*
X80110000Y-69890000D01*
X80100000Y-83600000D02*
X80600000Y-83600000D01*
X80100000Y-84100000D01*
X80100000Y-83600000D01*
G36*
X80100000Y-84100000D02*
G01*
X80100000Y-83600000D01*
X80600000Y-83600000D01*
X80100000Y-84100000D01*
G37*
%TO.C,J1*%
X42120000Y-36620000D02*
X43500000Y-36620000D01*
X42120000Y-38000000D02*
X42120000Y-36620000D01*
X42120000Y-39270000D02*
X42120000Y-52080000D01*
X42120000Y-39270000D02*
X44880000Y-39270000D01*
X42120000Y-52080000D02*
X44880000Y-52080000D01*
X44880000Y-39270000D02*
X44880000Y-52080000D01*
%TO.C,D1*%
X53100000Y-51610000D02*
X54900000Y-51610000D01*
X54100000Y-48390000D02*
X53300000Y-48390000D01*
X54100000Y-48390000D02*
X54900000Y-48390000D01*
X52800000Y-48440000D02*
X52560000Y-48110000D01*
X53040000Y-48110000D01*
X52800000Y-48440000D01*
G36*
X52800000Y-48440000D02*
G01*
X52560000Y-48110000D01*
X53040000Y-48110000D01*
X52800000Y-48440000D01*
G37*
%TO.C,R11*%
X47772936Y-84265000D02*
X48227064Y-84265000D01*
X47772936Y-85735000D02*
X48227064Y-85735000D01*
%TO.C,R3*%
X96227064Y-81865000D02*
X95772936Y-81865000D01*
X96227064Y-83335000D02*
X95772936Y-83335000D01*
%TO.C,D3*%
X95640000Y-43000000D02*
X95640000Y-45000000D01*
X95640000Y-43000000D02*
X99650000Y-43000000D01*
X95640000Y-45000000D02*
X99650000Y-45000000D01*
%TO.C,R5*%
X85772936Y-79165000D02*
X86227064Y-79165000D01*
X85772936Y-80635000D02*
X86227064Y-80635000D01*
%TO.C,TP2*%
X92950000Y-44000000D02*
G75*
G02*
X91050000Y-44000000I-950000J0D01*
G01*
X91050000Y-44000000D02*
G75*
G02*
X92950000Y-44000000I950000J0D01*
G01*
%TO.C,C9*%
X82265000Y-81861252D02*
X82265000Y-81338748D01*
X83735000Y-81861252D02*
X83735000Y-81338748D01*
%TO.C,TP1*%
X62950000Y-42500000D02*
G75*
G02*
X61050000Y-42500000I-950000J0D01*
G01*
X61050000Y-42500000D02*
G75*
G02*
X62950000Y-42500000I950000J0D01*
G01*
%TO.C,R16*%
X99772936Y-73265000D02*
X100227064Y-73265000D01*
X99772936Y-74735000D02*
X100227064Y-74735000D01*
%TO.C,LS1*%
X53900000Y-60000000D02*
G75*
G02*
X41700000Y-60000000I-6100000J0D01*
G01*
X41700000Y-60000000D02*
G75*
G02*
X53900000Y-60000000I6100000J0D01*
G01*
%TO.C,C1*%
X61265000Y-37738748D02*
X61265000Y-38261252D01*
X62735000Y-37738748D02*
X62735000Y-38261252D01*
%TO.C,R6*%
X90772936Y-77665000D02*
X91227064Y-77665000D01*
X90772936Y-79135000D02*
X91227064Y-79135000D01*
%TO.C,R1*%
X69772936Y-44265000D02*
X70227064Y-44265000D01*
X69772936Y-45735000D02*
X70227064Y-45735000D01*
%TO.C,R12*%
X41772936Y-84265000D02*
X42227064Y-84265000D01*
X41772936Y-85735000D02*
X42227064Y-85735000D01*
%TO.C,C6*%
X108765000Y-80238748D02*
X108765000Y-80761252D01*
X110235000Y-80238748D02*
X110235000Y-80761252D01*
%TO.C,D2*%
X86140000Y-37040000D02*
X86140000Y-38960000D01*
X86140000Y-38960000D02*
X89000000Y-38960000D01*
X89000000Y-37040000D02*
X86140000Y-37040000D01*
%TO.C,TP7*%
X84450000Y-68000000D02*
G75*
G02*
X82550000Y-68000000I-950000J0D01*
G01*
X82550000Y-68000000D02*
G75*
G02*
X84450000Y-68000000I950000J0D01*
G01*
%TD*%
%LPC*%
D16*
%TO.C,R14*%
X45000000Y-70000000D03*
X47000000Y-70000000D03*
%TD*%
D17*
%TO.C,H3*%
X115000000Y-63000000D03*
%TD*%
D18*
%TO.C,TP3*%
X105000000Y-87500000D03*
%TD*%
D17*
%TO.C,H4*%
X33500000Y-75000000D03*
%TD*%
D19*
%TO.C,C8*%
X91000000Y-82637500D03*
X91000000Y-80562500D03*
%TD*%
D18*
%TO.C,TP6*%
X96000000Y-70500000D03*
%TD*%
%TO.C,TP10*%
X66000000Y-42500000D03*
%TD*%
D16*
%TO.C,F1*%
X97000000Y-38000000D03*
X99000000Y-38000000D03*
%TD*%
%TO.C,R7*%
X85000000Y-76900000D03*
X87000000Y-76900000D03*
%TD*%
D20*
%TO.C,U3*%
X103150000Y-80550000D03*
X103150000Y-81500000D03*
X103150000Y-82450000D03*
X105850000Y-82450000D03*
X105850000Y-80550000D03*
%TD*%
D18*
%TO.C,TP4*%
X96000000Y-87200000D03*
%TD*%
D16*
%TO.C,R10*%
X39000000Y-80000000D03*
X41000000Y-80000000D03*
%TD*%
D19*
%TO.C,C3*%
X82000000Y-42962500D03*
X82000000Y-45037500D03*
%TD*%
D21*
%TO.C,J3*%
X114000000Y-86000000D03*
D22*
X114000000Y-83500000D03*
X114000000Y-81000000D03*
X114000000Y-78500000D03*
X114000000Y-76000000D03*
X114000000Y-73500000D03*
X114000000Y-71000000D03*
%TD*%
D16*
%TO.C,R4*%
X85000000Y-70500000D03*
X87000000Y-70500000D03*
%TD*%
D17*
%TO.C,H1*%
X33500000Y-33500000D03*
%TD*%
D19*
%TO.C,C4*%
X86000000Y-42962500D03*
X86000000Y-45037500D03*
%TD*%
%TO.C,C2*%
X66000000Y-36962500D03*
X66000000Y-39037500D03*
%TD*%
D16*
%TO.C,R13*%
X55000000Y-60000000D03*
X57000000Y-60000000D03*
%TD*%
D19*
%TO.C,C11*%
X58000000Y-74037500D03*
X58000000Y-71962500D03*
%TD*%
D16*
%TO.C,R8*%
X90000000Y-75400000D03*
X92000000Y-75400000D03*
%TD*%
D23*
%TO.C,J4*%
X34000000Y-85000000D03*
D24*
X36500000Y-85000000D03*
%TD*%
D19*
%TO.C,C7*%
X109500000Y-83962500D03*
X109500000Y-86037500D03*
%TD*%
D18*
%TO.C,TP12*%
X38000000Y-76000000D03*
%TD*%
D19*
%TO.C,C5*%
X98962500Y-87500000D03*
X101037500Y-87500000D03*
%TD*%
D25*
%TO.C,J2*%
X106000000Y-38000000D03*
D26*
X108000000Y-38000000D03*
%TD*%
D27*
%TO.C,SW1*%
X99900000Y-52000000D03*
X108100000Y-52000000D03*
D28*
X102000000Y-52000000D03*
D29*
X104000000Y-52000000D03*
X106000000Y-52000000D03*
%TD*%
D16*
%TO.C,R9*%
X85000000Y-73900000D03*
X87000000Y-73900000D03*
%TD*%
%TO.C,R2*%
X81000000Y-38000000D03*
X83000000Y-38000000D03*
%TD*%
D19*
%TO.C,C10*%
X89962500Y-70500000D03*
X92037500Y-70500000D03*
%TD*%
D16*
%TO.C,R15*%
X51000000Y-70000000D03*
X53000000Y-70000000D03*
%TD*%
D18*
%TO.C,TP5*%
X54000000Y-80000000D03*
%TD*%
D30*
%TO.C,D4*%
X38975000Y-70000000D03*
X41025000Y-70000000D03*
%TD*%
D20*
%TO.C,U2*%
X72650000Y-39050000D03*
X72650000Y-40000000D03*
X72650000Y-40950000D03*
X75350000Y-40950000D03*
X75350000Y-39050000D03*
%TD*%
D17*
%TO.C,H2*%
X115000000Y-33500000D03*
%TD*%
D18*
%TO.C,TP11*%
X54000000Y-76000000D03*
%TD*%
D31*
%TO.C,U1*%
X80250000Y-82900000D03*
X80250000Y-81400000D03*
X80250000Y-79900000D03*
X80250000Y-78400000D03*
X80250000Y-76900000D03*
X80250000Y-75400000D03*
X80250000Y-73900000D03*
X80250000Y-72400000D03*
X80250000Y-70900000D03*
X61750000Y-70900000D03*
X61750000Y-72400000D03*
X61750000Y-73900000D03*
X61750000Y-75400000D03*
X61750000Y-76900000D03*
X61750000Y-78400000D03*
X61750000Y-79900000D03*
X61750000Y-81400000D03*
X61750000Y-82900000D03*
D32*
X71140000Y-77250000D03*
X71140000Y-76150000D03*
X70590000Y-77800000D03*
X70590000Y-76700000D03*
X70590000Y-75600000D03*
X70040000Y-77250000D03*
D33*
X70040000Y-76700000D03*
D32*
X70040000Y-76150000D03*
X69490000Y-77800000D03*
X69490000Y-76700000D03*
X69490000Y-75600000D03*
X68940000Y-77250000D03*
X68940000Y-76150000D03*
%TD*%
D34*
%TO.C,J1*%
X43500000Y-38000000D03*
D35*
X43500000Y-40540000D03*
X43500000Y-43080000D03*
X43500000Y-45620000D03*
X43500000Y-48160000D03*
X43500000Y-50700000D03*
%TD*%
D20*
%TO.C,D1*%
X52650000Y-49050000D03*
X52650000Y-50000000D03*
X52650000Y-50950000D03*
X55350000Y-50950000D03*
X55350000Y-50000000D03*
X55350000Y-49050000D03*
%TD*%
D16*
%TO.C,R11*%
X47000000Y-85000000D03*
X49000000Y-85000000D03*
%TD*%
%TO.C,R3*%
X97000000Y-82600000D03*
X95000000Y-82600000D03*
%TD*%
D36*
%TO.C,D3*%
X96350000Y-44000000D03*
X99650000Y-44000000D03*
%TD*%
D16*
%TO.C,R5*%
X85000000Y-79900000D03*
X87000000Y-79900000D03*
%TD*%
D18*
%TO.C,TP2*%
X92000000Y-44000000D03*
%TD*%
D19*
%TO.C,C9*%
X83000000Y-82637500D03*
X83000000Y-80562500D03*
%TD*%
D18*
%TO.C,TP1*%
X62000000Y-42500000D03*
%TD*%
D16*
%TO.C,R16*%
X99000000Y-74000000D03*
X101000000Y-74000000D03*
%TD*%
D37*
%TO.C,LS1*%
X44000000Y-60000000D03*
D38*
X51600000Y-60000000D03*
%TD*%
D19*
%TO.C,C1*%
X62000000Y-36962500D03*
X62000000Y-39037500D03*
%TD*%
D16*
%TO.C,R6*%
X90000000Y-78400000D03*
X92000000Y-78400000D03*
%TD*%
%TO.C,R1*%
X69000000Y-45000000D03*
X71000000Y-45000000D03*
%TD*%
%TO.C,R12*%
X41000000Y-85000000D03*
X43000000Y-85000000D03*
%TD*%
D19*
%TO.C,C6*%
X109500000Y-79462500D03*
X109500000Y-81537500D03*
%TD*%
D30*
%TO.C,D2*%
X86975000Y-38000000D03*
X89025000Y-38000000D03*
%TD*%
D18*
%TO.C,TP7*%
X83500000Y-68000000D03*
%TD*%
%LPD*%
M02*
