%TF.GenerationSoftware,KiCad,Pcbnew,10.0.5*%
%TF.CreationDate,2026-09-03T20:20:10+02:00*%
%TF.ProjectId,flappy-esp32c3,666c6170-7079-42d6-9573-70333263332e,A*%
%TF.SameCoordinates,Original*%
%TF.FileFunction,Copper,L2,Bot*%
%TF.FilePolarity,Positive*%
%FSLAX46Y46*%
G04 Gerber Fmt 4.6, Leading zero omitted, Abs format (unit mm)*
G04 Created by KiCad (PCBNEW 10.0.5) date 2026-09-03 20:20:10*
%MOMM*%
%LPD*%
G01*
G04 APERTURE LIST*
G04 Aperture macros list*
%AMRoundRect*
0 Rectangle with rounded corners*
0 $1 Rounding radius*
0 $2 $3 $4 $5 $6 $7 $8 $9 X,Y pos of 4 corners*
0 Add a 4 corners polygon primitive as box body*
4,1,4,$2,$3,$4,$5,$6,$7,$8,$9,$2,$3,0*
0 Add four circle primitives for the rounded corners*
1,1,$1+$1,$2,$3*
1,1,$1+$1,$4,$5*
1,1,$1+$1,$6,$7*
1,1,$1+$1,$8,$9*
0 Add four rect primitives between the rounded corners*
20,1,$1+$1,$2,$3,$4,$5,0*
20,1,$1+$1,$4,$5,$6,$7,0*
20,1,$1+$1,$6,$7,$8,$9,0*
20,1,$1+$1,$8,$9,$2,$3,0*%
G04 Aperture macros list end*
%TA.AperFunction,ComponentPad*%
%ADD10RoundRect,0.250000X-0.600000X-0.725000X0.600000X-0.725000X0.600000X0.725000X-0.600000X0.725000X0*%
%TD*%
%TA.AperFunction,ComponentPad*%
%ADD11O,1.700000X1.950000*%
%TD*%
%TA.AperFunction,ComponentPad*%
%ADD12RoundRect,0.250000X-0.600000X-0.750000X0.600000X-0.750000X0.600000X0.750000X-0.600000X0.750000X0*%
%TD*%
%TA.AperFunction,ComponentPad*%
%ADD13O,1.700000X2.000000*%
%TD*%
%TA.AperFunction,ComponentPad*%
%ADD14RoundRect,0.250000X-0.350000X-0.625000X0.350000X-0.625000X0.350000X0.625000X-0.350000X0.625000X0*%
%TD*%
%TA.AperFunction,ComponentPad*%
%ADD15O,1.200000X1.750000*%
%TD*%
%TA.AperFunction,ComponentPad*%
%ADD16O,2.200000X3.500000*%
%TD*%
%TA.AperFunction,ComponentPad*%
%ADD17R,1.500000X2.500000*%
%TD*%
%TA.AperFunction,ComponentPad*%
%ADD18O,1.500000X2.500000*%
%TD*%
%TA.AperFunction,HeatsinkPad*%
%ADD19C,0.700000*%
%TD*%
%TA.AperFunction,ComponentPad*%
%ADD20R,1.700000X1.700000*%
%TD*%
%TA.AperFunction,ComponentPad*%
%ADD21C,1.700000*%
%TD*%
%TA.AperFunction,ViaPad*%
%ADD22C,0.800000*%
%TD*%
%TA.AperFunction,Conductor*%
%ADD23C,0.500000*%
%TD*%
%TA.AperFunction,Conductor*%
%ADD24C,0.250000*%
%TD*%
%TA.AperFunction,Conductor*%
%ADD25C,0.300000*%
%TD*%
G04 APERTURE END LIST*
D10*
%TO.P,J3,1*%
%TO.N,GND*%
X114000000Y-86000000D03*
D11*
%TO.P,J3,2*%
%TO.N,+3V3*%
X114000000Y-83500000D03*
%TO.P,J3,3*%
%TO.N,SCLK*%
X114000000Y-81000000D03*
%TO.P,J3,4*%
%TO.N,GND*%
X114000000Y-78500000D03*
%TO.P,J3,5*%
%TO.N,MOSI*%
X114000000Y-76000000D03*
%TO.P,J3,6*%
%TO.N,OLED_RES*%
X114000000Y-73500000D03*
%TO.P,J3,7*%
%TO.N,OLED_DC*%
X114000000Y-71000000D03*
%TO.P,J3,8*%
%TO.N,OLED_CS*%
X114000000Y-68500000D03*
%TD*%
D12*
%TO.P,J5,1*%
%TO.N,BUZZ_P*%
X42000000Y-60000000D03*
D13*
%TO.P,J5,2*%
%TO.N,GND*%
X44500000Y-60000000D03*
%TD*%
D12*
%TO.P,J4,1*%
%TO.N,BTN_CON*%
X34000000Y-85000000D03*
D13*
%TO.P,J4,2*%
%TO.N,GND*%
X36500000Y-85000000D03*
%TD*%
D14*
%TO.P,J2,1*%
%TO.N,BATT_P*%
X106000000Y-38000000D03*
D15*
%TO.P,J2,2*%
%TO.N,GND*%
X108000000Y-38000000D03*
%TD*%
D16*
%TO.P,SW1,*%
%TO.N,*%
X99900000Y-52000000D03*
X108100000Y-52000000D03*
D17*
%TO.P,SW1,1*%
%TO.N,LDO_EN*%
X102000000Y-52000000D03*
D18*
%TO.P,SW1,2*%
%TO.N,VBAT*%
X104000000Y-52000000D03*
%TO.P,SW1,3*%
%TO.N,unconnected-(SW1-C-Pad3)*%
X106000000Y-52000000D03*
%TD*%
D19*
%TO.P,U1,19*%
%TO.N,GND*%
X71140000Y-77250000D03*
X71140000Y-76150000D03*
X70590000Y-77800000D03*
X70590000Y-76700000D03*
X70590000Y-75600000D03*
X70040000Y-77250000D03*
X70040000Y-76150000D03*
X69490000Y-77800000D03*
X69490000Y-76700000D03*
X69490000Y-75600000D03*
X68940000Y-77250000D03*
X68940000Y-76150000D03*
%TD*%
D20*
%TO.P,J1,1*%
%TO.N,VBUS*%
X43500000Y-38000000D03*
D21*
%TO.P,J1,2*%
%TO.N,GND*%
X43500000Y-40540000D03*
%TO.P,J1,3*%
%TO.N,USB_DM_CON*%
X43500000Y-43080000D03*
%TO.P,J1,4*%
%TO.N,USB_DP_CON*%
X43500000Y-45620000D03*
%TO.P,J1,5*%
%TO.N,USB_CC1*%
X43500000Y-48160000D03*
%TO.P,J1,6*%
%TO.N,USB_CC2*%
X43500000Y-50700000D03*
%TD*%
D22*
%TO.N,+3V3_MCU*%
X58600000Y-66200000D03*
X59800000Y-65000000D03*
%TO.N,BTN*%
X42400000Y-80000000D03*
X58400000Y-76000000D03*
X60000000Y-78200000D03*
X58400000Y-79000000D03*
X43600000Y-81200000D03*
%TO.N,BTN_CON*%
X46600000Y-67000000D03*
X45400000Y-65800000D03*
%TO.N,BUZZ*%
X48800000Y-60800000D03*
X46800000Y-60800000D03*
%TO.N,BUZZ_P*%
X48800000Y-58800000D03*
X55800000Y-67200000D03*
X46800000Y-58800000D03*
X53800000Y-67200000D03*
%TO.N,EN*%
X95400000Y-70000000D03*
X90000000Y-69200000D03*
X86800000Y-68000000D03*
X81400000Y-81200000D03*
X95400000Y-67200000D03*
X85400000Y-69400000D03*
X90000000Y-67600000D03*
X82400000Y-73000000D03*
%TO.N,GND*%
X53000000Y-74200000D03*
X50200000Y-74200000D03*
X51000000Y-50000000D03*
X100800000Y-83800000D03*
X65800000Y-38800000D03*
X105600000Y-76400000D03*
X109400000Y-85800000D03*
X73000000Y-65000000D03*
X49800000Y-81800000D03*
X98200000Y-58200000D03*
X82800000Y-80400000D03*
X51800000Y-42200000D03*
X61400000Y-56600000D03*
X117000000Y-65600000D03*
X114200000Y-58200000D03*
X50600000Y-61400000D03*
X99400000Y-43800000D03*
X82200000Y-58200000D03*
X50200000Y-34200000D03*
X67800000Y-58200000D03*
X66200000Y-34200000D03*
X114200000Y-50200000D03*
X106200000Y-34200000D03*
X58200000Y-42200000D03*
X32600000Y-72600000D03*
X59800000Y-50200000D03*
X114200000Y-42200000D03*
X70800000Y-44800000D03*
X89800000Y-41800000D03*
X97400000Y-49400000D03*
X91800000Y-70200000D03*
X106200000Y-59800000D03*
X98200000Y-34200000D03*
X76800000Y-62800000D03*
X34200000Y-58200000D03*
X90200000Y-58200000D03*
X58200000Y-34200000D03*
X105400000Y-49200000D03*
X113800000Y-36200000D03*
X55800000Y-53800000D03*
X43800000Y-34200000D03*
X74200000Y-58200000D03*
X106200000Y-42200000D03*
X80000000Y-70600000D03*
X43400000Y-53000000D03*
X61800000Y-38800000D03*
X49000000Y-66400000D03*
X90200000Y-34200000D03*
X71000000Y-40000000D03*
X101600000Y-81600000D03*
X85800000Y-44800000D03*
X53800000Y-75800000D03*
X70600000Y-40600000D03*
X90200000Y-50200000D03*
X50800000Y-46200000D03*
X82200000Y-50200000D03*
X66000000Y-50000000D03*
X45400000Y-40600000D03*
X75800000Y-44600000D03*
X74200000Y-50200000D03*
X57800000Y-71800000D03*
X109400000Y-81400000D03*
X37800000Y-75800000D03*
X81000000Y-41000000D03*
X100800000Y-87400000D03*
X97400000Y-76600000D03*
X81000000Y-65000000D03*
X117200000Y-80800000D03*
X50800000Y-43800000D03*
X74000000Y-35800000D03*
X90800000Y-80400000D03*
X70600000Y-41600000D03*
X98200000Y-66200000D03*
X106200000Y-66200000D03*
X88600000Y-85400000D03*
X81800000Y-44800000D03*
X117200000Y-72800000D03*
X77600000Y-41200000D03*
X45400000Y-72800000D03*
X108800000Y-56800000D03*
X91600000Y-66000000D03*
X74200000Y-34200000D03*
X38800000Y-69800000D03*
X34200000Y-66200000D03*
X65800000Y-42200000D03*
X71800000Y-62800000D03*
X82200000Y-34200000D03*
%TO.N,IO2*%
X55600000Y-76200000D03*
X56000000Y-78000000D03*
%TO.N,LDO_EN*%
X106200000Y-85200000D03*
X102200000Y-54600000D03*
X104200000Y-54600000D03*
X107600000Y-86600000D03*
%TO.N,LED_CHG*%
X70600000Y-37000000D03*
X70600000Y-39000000D03*
%TO.N,LED_G*%
X60600000Y-70600000D03*
X58600000Y-70600000D03*
X50800000Y-71600000D03*
X53800000Y-71600000D03*
X49400000Y-70200000D03*
X52200000Y-71600000D03*
%TO.N,LED_G_A*%
X43400000Y-66600000D03*
X45200000Y-68400000D03*
%TO.N,MOSI*%
X97600000Y-73600000D03*
X104200000Y-72400000D03*
X97600000Y-72000000D03*
X102200000Y-72400000D03*
%TO.N,MOSI_MCU*%
X89400000Y-78400000D03*
X87400000Y-78400000D03*
%TO.N,OLED_CS*%
X88400000Y-69800000D03*
X102200000Y-68400000D03*
X104200000Y-68400000D03*
X86600000Y-73400000D03*
%TO.N,OLED_CS_MCU*%
X87000000Y-72400000D03*
X88400000Y-71000000D03*
%TO.N,OLED_DC*%
X102200000Y-70000000D03*
X93400000Y-73600000D03*
X104200000Y-70000000D03*
X93400000Y-70400000D03*
%TO.N,OLED_DC_MCU*%
X89400000Y-75400000D03*
X87400000Y-75400000D03*
%TO.N,OLED_RES*%
X86600000Y-76200000D03*
X104200000Y-71200000D03*
X102200000Y-71200000D03*
X90400000Y-72000000D03*
%TO.N,PROG*%
X75000000Y-39600000D03*
X72400000Y-42200000D03*
%TO.N,SCLK*%
X87400000Y-83600000D03*
X102200000Y-79400000D03*
X87400000Y-81600000D03*
X95000000Y-84800000D03*
X104200000Y-79400000D03*
X98000000Y-84800000D03*
%TO.N,USB_CC1*%
X44800000Y-47600000D03*
X47200000Y-45200000D03*
%TO.N,USB_CC2*%
X46000000Y-48800000D03*
X48400000Y-46400000D03*
%TO.N,USB_DM*%
X60600000Y-75600000D03*
X59200000Y-77000000D03*
X48000000Y-49200000D03*
X49200000Y-48000000D03*
%TO.N,USB_DP_CON*%
X47000000Y-50200000D03*
X49000000Y-50200000D03*
%TO.N,VBAT_SENSE*%
X58200000Y-57400000D03*
X48800000Y-57600000D03*
X46800000Y-57600000D03*
X56400000Y-57800000D03*
%TO.N,VBUS_SENSE*%
X61800000Y-65600000D03*
X57000000Y-51200000D03*
X61800000Y-69600000D03*
X59200000Y-59600000D03*
X61800000Y-72200000D03*
X60400000Y-58400000D03*
X55800000Y-52400000D03*
X61800000Y-67600000D03*
%TD*%
%TO.N,+3V3_MCU*%
D23*
X59800000Y-65000000D02*
X58600000Y-66200000D01*
%TO.N,BTN*%
D24*
X59000000Y-78400000D02*
X58400000Y-79000000D01*
X59000000Y-78200000D02*
X58400000Y-77600000D01*
X59000000Y-78200000D02*
X59000000Y-78400000D01*
X58400000Y-77600000D02*
X58400000Y-76000000D01*
X43600000Y-81200000D02*
X42400000Y-80000000D01*
X60000000Y-78200000D02*
X59000000Y-78200000D01*
%TO.N,BTN_CON*%
X46600000Y-67000000D02*
X45400000Y-65800000D01*
%TO.N,BUZZ*%
X46800000Y-60800000D02*
X48800000Y-60800000D01*
%TO.N,BUZZ_P*%
X55800000Y-67200000D02*
X53800000Y-67200000D01*
X46800000Y-58800000D02*
X48800000Y-58800000D01*
%TO.N,EN*%
X81400000Y-74000000D02*
X82400000Y-73000000D01*
X95400000Y-67200000D02*
X95400000Y-70000000D01*
X90000000Y-67600000D02*
X90000000Y-69200000D01*
X81400000Y-81200000D02*
X81400000Y-74000000D01*
X85400000Y-69400000D02*
X86800000Y-68000000D01*
%TO.N,IO2*%
X56000000Y-78000000D02*
X56000000Y-76600000D01*
X56000000Y-76600000D02*
X55600000Y-76200000D01*
%TO.N,LDO_EN*%
X107600000Y-86600000D02*
X106200000Y-85200000D01*
X102200000Y-54600000D02*
X104200000Y-54600000D01*
%TO.N,LED_CHG*%
X70600000Y-39000000D02*
X70600000Y-37000000D01*
%TO.N,LED_G*%
X50800000Y-71600000D02*
X49400000Y-70200000D01*
X53800000Y-71600000D02*
X52200000Y-71600000D01*
X60600000Y-70600000D02*
X58600000Y-70600000D01*
%TO.N,LED_G_A*%
X43400000Y-66600000D02*
X45200000Y-68400000D01*
%TO.N,MOSI*%
X102200000Y-72400000D02*
X104200000Y-72400000D01*
X97600000Y-73600000D02*
X97600000Y-72000000D01*
%TO.N,MOSI_MCU*%
X87400000Y-78400000D02*
X89400000Y-78400000D01*
%TO.N,OLED_CS*%
X86600000Y-73400000D02*
X86200000Y-73000000D01*
X88000000Y-70200000D02*
X88400000Y-69800000D01*
X86200000Y-71800000D02*
X87800000Y-70200000D01*
X86200000Y-73000000D02*
X86200000Y-71800000D01*
X87800000Y-70200000D02*
X88000000Y-70200000D01*
X102200000Y-68400000D02*
X104200000Y-68400000D01*
%TO.N,OLED_CS_MCU*%
X87000000Y-72400000D02*
X88400000Y-71000000D01*
%TO.N,OLED_DC*%
X93400000Y-73600000D02*
X93400000Y-70400000D01*
X102200000Y-70000000D02*
X104200000Y-70000000D01*
%TO.N,OLED_DC_MCU*%
X87400000Y-75400000D02*
X89400000Y-75400000D01*
%TO.N,OLED_RES*%
X102200000Y-71200000D02*
X104200000Y-71200000D01*
X86600000Y-76200000D02*
X86600000Y-74800000D01*
X87200000Y-74600000D02*
X89000000Y-72800000D01*
X86800000Y-74600000D02*
X87200000Y-74600000D01*
X86600000Y-74800000D02*
X86800000Y-74600000D01*
X89000000Y-72800000D02*
X89600000Y-72800000D01*
X89600000Y-72800000D02*
X90400000Y-72000000D01*
%TO.N,PROG*%
X75000000Y-39600000D02*
X72400000Y-42200000D01*
%TO.N,SCLK*%
X87400000Y-81600000D02*
X87400000Y-83600000D01*
X102200000Y-79400000D02*
X104200000Y-79400000D01*
X95000000Y-84800000D02*
X98000000Y-84800000D01*
%TO.N,USB_CC1*%
X44800000Y-47600000D02*
X47200000Y-45200000D01*
%TO.N,USB_CC2*%
X46000000Y-48800000D02*
X48400000Y-46400000D01*
%TO.N,USB_DM*%
D25*
X48000000Y-49200000D02*
X49200000Y-48000000D01*
X60600000Y-75600000D02*
X59200000Y-77000000D01*
%TO.N,USB_DP_CON*%
X47000000Y-50200000D02*
X49000000Y-50200000D01*
%TO.N,VBAT_SENSE*%
D24*
X56400000Y-57800000D02*
X57800000Y-57800000D01*
X46800000Y-57600000D02*
X48800000Y-57600000D01*
X57800000Y-57800000D02*
X58200000Y-57400000D01*
%TO.N,VBUS_SENSE*%
X57000000Y-51200000D02*
X55800000Y-52400000D01*
X59200000Y-59600000D02*
X60400000Y-58400000D01*
X61800000Y-67600000D02*
X61800000Y-65600000D01*
X61800000Y-72200000D02*
X61800000Y-69600000D01*
%TD*%
%TA.AperFunction,Conductor*%
%TO.N,GND*%
G36*
X119108059Y-30401061D02*
G01*
X119213223Y-30414906D01*
X119244491Y-30423284D01*
X119334918Y-30460740D01*
X119362952Y-30476925D01*
X119440602Y-30536509D01*
X119463491Y-30559398D01*
X119523074Y-30637048D01*
X119539259Y-30665081D01*
X119576715Y-30755508D01*
X119585093Y-30786775D01*
X119598939Y-30891939D01*
X119600000Y-30908125D01*
X119600000Y-89091874D01*
X119598939Y-89108060D01*
X119585093Y-89213224D01*
X119576715Y-89244491D01*
X119539259Y-89334918D01*
X119523074Y-89362951D01*
X119463491Y-89440601D01*
X119440601Y-89463491D01*
X119362951Y-89523074D01*
X119334918Y-89539259D01*
X119244491Y-89576715D01*
X119213224Y-89585093D01*
X119119398Y-89597446D01*
X119108058Y-89598939D01*
X119091874Y-89600000D01*
X85374000Y-89600000D01*
X85306961Y-89580315D01*
X85261206Y-89527511D01*
X85250000Y-89476000D01*
X85250000Y-84868995D01*
X94299499Y-84868995D01*
X94326418Y-85004322D01*
X94326421Y-85004332D01*
X94379221Y-85131804D01*
X94379228Y-85131817D01*
X94455885Y-85246541D01*
X94455888Y-85246545D01*
X94553454Y-85344111D01*
X94553458Y-85344114D01*
X94668182Y-85420771D01*
X94668195Y-85420778D01*
X94777191Y-85465925D01*
X94795672Y-85473580D01*
X94795676Y-85473580D01*
X94795677Y-85473581D01*
X94931004Y-85500500D01*
X94931007Y-85500500D01*
X95068995Y-85500500D01*
X95160041Y-85482389D01*
X95204328Y-85473580D01*
X95331811Y-85420775D01*
X95446542Y-85344114D01*
X95483649Y-85307007D01*
X95528838Y-85261819D01*
X95590161Y-85228334D01*
X95616519Y-85225500D01*
X97383481Y-85225500D01*
X97450520Y-85245185D01*
X97471162Y-85261819D01*
X97553454Y-85344111D01*
X97553458Y-85344114D01*
X97668182Y-85420771D01*
X97668195Y-85420778D01*
X97777191Y-85465925D01*
X97795672Y-85473580D01*
X97795676Y-85473580D01*
X97795677Y-85473581D01*
X97931004Y-85500500D01*
X97931007Y-85500500D01*
X98068995Y-85500500D01*
X98160041Y-85482389D01*
X98204328Y-85473580D01*
X98331811Y-85420775D01*
X98446542Y-85344114D01*
X98521661Y-85268995D01*
X105499499Y-85268995D01*
X105526418Y-85404322D01*
X105526421Y-85404332D01*
X105579221Y-85531804D01*
X105579228Y-85531817D01*
X105655885Y-85646541D01*
X105655888Y-85646545D01*
X105753454Y-85744111D01*
X105753458Y-85744114D01*
X105868182Y-85820771D01*
X105868195Y-85820778D01*
X105995667Y-85873578D01*
X105995672Y-85873580D01*
X105995676Y-85873580D01*
X105995677Y-85873581D01*
X106131004Y-85900500D01*
X106247390Y-85900500D01*
X106314429Y-85920185D01*
X106335071Y-85936819D01*
X106863181Y-86464929D01*
X106896666Y-86526252D01*
X106899500Y-86552610D01*
X106899500Y-86668993D01*
X106899500Y-86668995D01*
X106899499Y-86668995D01*
X106926418Y-86804322D01*
X106926421Y-86804332D01*
X106979221Y-86931804D01*
X106979228Y-86931817D01*
X107055885Y-87046541D01*
X107055888Y-87046545D01*
X107153454Y-87144111D01*
X107153458Y-87144114D01*
X107268182Y-87220771D01*
X107268195Y-87220778D01*
X107395667Y-87273578D01*
X107395672Y-87273580D01*
X107395676Y-87273580D01*
X107395677Y-87273581D01*
X107531004Y-87300500D01*
X107531007Y-87300500D01*
X107668995Y-87300500D01*
X107760041Y-87282389D01*
X107804328Y-87273580D01*
X107931811Y-87220775D01*
X108046542Y-87144114D01*
X108144114Y-87046542D01*
X108220775Y-86931811D01*
X108273580Y-86804328D01*
X108300500Y-86668993D01*
X108300500Y-86531007D01*
X108300500Y-86531004D01*
X108273581Y-86395677D01*
X108273580Y-86395676D01*
X108273580Y-86395672D01*
X108220775Y-86268189D01*
X108220771Y-86268182D01*
X108144114Y-86153458D01*
X108144111Y-86153454D01*
X108046545Y-86055888D01*
X108046541Y-86055885D01*
X107931817Y-85979228D01*
X107931804Y-85979221D01*
X107804332Y-85926421D01*
X107804322Y-85926418D01*
X107668995Y-85899500D01*
X107668993Y-85899500D01*
X107552610Y-85899500D01*
X107485571Y-85879815D01*
X107464929Y-85863181D01*
X106936819Y-85335071D01*
X106922115Y-85308143D01*
X106905523Y-85282325D01*
X106904631Y-85276124D01*
X106903334Y-85273748D01*
X106900500Y-85247390D01*
X106900500Y-85209350D01*
X112750000Y-85209350D01*
X112750000Y-85700000D01*
X113628248Y-85700000D01*
X113619905Y-85708343D01*
X113557370Y-85816657D01*
X113525000Y-85937465D01*
X113525000Y-86062535D01*
X113557370Y-86183343D01*
X113619905Y-86291657D01*
X113628248Y-86300000D01*
X112750000Y-86300000D01*
X112750000Y-86790649D01*
X112752899Y-86827489D01*
X112752900Y-86827495D01*
X112798716Y-86985193D01*
X112798717Y-86985196D01*
X112882314Y-87126552D01*
X112882321Y-87126561D01*
X112998438Y-87242678D01*
X112998447Y-87242685D01*
X113139803Y-87326282D01*
X113139806Y-87326283D01*
X113297504Y-87372099D01*
X113297510Y-87372100D01*
X113334350Y-87374999D01*
X113334366Y-87375000D01*
X113700000Y-87375000D01*
X113700000Y-86371752D01*
X113708343Y-86380095D01*
X113816657Y-86442630D01*
X113937465Y-86475000D01*
X114062535Y-86475000D01*
X114183343Y-86442630D01*
X114291657Y-86380095D01*
X114300000Y-86371752D01*
X114300000Y-87375000D01*
X114665634Y-87375000D01*
X114665649Y-87374999D01*
X114702489Y-87372100D01*
X114702495Y-87372099D01*
X114860193Y-87326283D01*
X114860196Y-87326282D01*
X115001552Y-87242685D01*
X115001561Y-87242678D01*
X115117678Y-87126561D01*
X115117685Y-87126552D01*
X115201282Y-86985196D01*
X115201283Y-86985193D01*
X115247099Y-86827495D01*
X115247100Y-86827489D01*
X115249999Y-86790649D01*
X115250000Y-86790634D01*
X115250000Y-86300000D01*
X114371752Y-86300000D01*
X114380095Y-86291657D01*
X114442630Y-86183343D01*
X114475000Y-86062535D01*
X114475000Y-85937465D01*
X114442630Y-85816657D01*
X114380095Y-85708343D01*
X114371752Y-85700000D01*
X115250000Y-85700000D01*
X115250000Y-85209365D01*
X115249999Y-85209350D01*
X115247100Y-85172510D01*
X115247099Y-85172504D01*
X115201283Y-85014806D01*
X115201282Y-85014803D01*
X115117685Y-84873447D01*
X115117678Y-84873438D01*
X115001561Y-84757321D01*
X115001552Y-84757314D01*
X114860196Y-84673717D01*
X114843134Y-84668760D01*
X114784249Y-84631153D01*
X114755044Y-84567680D01*
X114764791Y-84498493D01*
X114790045Y-84462008D01*
X114877553Y-84374501D01*
X114892845Y-84353454D01*
X114909861Y-84330033D01*
X114983996Y-84227994D01*
X115066211Y-84066639D01*
X115122171Y-83894409D01*
X115136765Y-83802259D01*
X115150500Y-83715551D01*
X115150500Y-83284448D01*
X115129752Y-83153458D01*
X115122171Y-83105591D01*
X115066211Y-82933361D01*
X115066211Y-82933360D01*
X115037740Y-82877484D01*
X114983996Y-82772006D01*
X114970396Y-82753287D01*
X114877558Y-82625505D01*
X114877554Y-82625500D01*
X114749499Y-82497445D01*
X114749494Y-82497441D01*
X114602997Y-82391006D01*
X114602996Y-82391005D01*
X114602994Y-82391004D01*
X114543096Y-82360484D01*
X114492301Y-82312510D01*
X114475506Y-82244689D01*
X114498043Y-82178554D01*
X114543097Y-82139515D01*
X114602994Y-82108996D01*
X114749501Y-82002553D01*
X114877553Y-81874501D01*
X114983996Y-81727994D01*
X115066211Y-81566639D01*
X115122171Y-81394409D01*
X115142035Y-81268993D01*
X115150500Y-81215551D01*
X115150500Y-80784448D01*
X115134019Y-80680397D01*
X115122171Y-80605591D01*
X115070494Y-80446542D01*
X115066212Y-80433363D01*
X115066211Y-80433360D01*
X115014468Y-80331811D01*
X114983996Y-80272006D01*
X114934828Y-80204332D01*
X114877558Y-80125505D01*
X114877554Y-80125500D01*
X114749495Y-79997441D01*
X114628893Y-79909820D01*
X114586227Y-79854491D01*
X114580248Y-79784877D01*
X114612853Y-79723082D01*
X114645489Y-79699014D01*
X114655144Y-79694094D01*
X114814321Y-79578444D01*
X114953444Y-79439321D01*
X115069095Y-79280143D01*
X115158418Y-79104835D01*
X115219221Y-78917705D01*
X115237864Y-78800000D01*
X114371752Y-78800000D01*
X114380095Y-78791657D01*
X114442630Y-78683343D01*
X114475000Y-78562535D01*
X114475000Y-78437465D01*
X114442630Y-78316657D01*
X114380095Y-78208343D01*
X114371752Y-78200000D01*
X115237864Y-78200000D01*
X115219221Y-78082294D01*
X115158418Y-77895164D01*
X115069095Y-77719856D01*
X114953444Y-77560678D01*
X114814321Y-77421555D01*
X114655140Y-77305902D01*
X114645482Y-77300981D01*
X114594687Y-77253007D01*
X114577892Y-77185186D01*
X114600430Y-77119051D01*
X114628891Y-77090180D01*
X114749501Y-77002553D01*
X114877553Y-76874501D01*
X114983996Y-76727994D01*
X115066211Y-76566639D01*
X115122171Y-76394409D01*
X115141308Y-76273581D01*
X115150500Y-76215551D01*
X115150500Y-75784448D01*
X115132086Y-75668195D01*
X115122171Y-75605591D01*
X115077789Y-75468995D01*
X115066212Y-75433363D01*
X115066211Y-75433360D01*
X115037740Y-75377484D01*
X114983996Y-75272006D01*
X114928540Y-75195677D01*
X114877558Y-75125505D01*
X114877554Y-75125500D01*
X114749499Y-74997445D01*
X114749494Y-74997441D01*
X114602997Y-74891006D01*
X114602996Y-74891005D01*
X114602994Y-74891004D01*
X114543096Y-74860484D01*
X114492301Y-74812510D01*
X114475506Y-74744689D01*
X114498043Y-74678554D01*
X114543097Y-74639515D01*
X114602994Y-74608996D01*
X114749501Y-74502553D01*
X114877553Y-74374501D01*
X114983996Y-74227994D01*
X115066211Y-74066639D01*
X115122171Y-73894409D01*
X115136765Y-73802259D01*
X115150500Y-73715551D01*
X115150500Y-73284448D01*
X115131460Y-73164239D01*
X115122171Y-73105591D01*
X115066211Y-72933361D01*
X115066211Y-72933360D01*
X115029758Y-72861819D01*
X114983996Y-72772006D01*
X114932044Y-72700500D01*
X114877558Y-72625505D01*
X114877554Y-72625500D01*
X114749499Y-72497445D01*
X114749494Y-72497441D01*
X114602997Y-72391006D01*
X114602996Y-72391005D01*
X114602994Y-72391004D01*
X114543096Y-72360484D01*
X114492301Y-72312510D01*
X114475506Y-72244689D01*
X114498043Y-72178554D01*
X114543097Y-72139515D01*
X114602994Y-72108996D01*
X114749501Y-72002553D01*
X114877553Y-71874501D01*
X114983996Y-71727994D01*
X115066211Y-71566639D01*
X115122171Y-71394409D01*
X115141308Y-71273581D01*
X115150500Y-71215551D01*
X115150500Y-70784448D01*
X115134019Y-70680397D01*
X115122171Y-70605591D01*
X115077789Y-70468995D01*
X115066212Y-70433363D01*
X115066211Y-70433360D01*
X115020737Y-70344114D01*
X114983996Y-70272006D01*
X114934828Y-70204332D01*
X114877558Y-70125505D01*
X114877554Y-70125500D01*
X114749499Y-69997445D01*
X114749494Y-69997441D01*
X114602997Y-69891006D01*
X114602996Y-69891005D01*
X114602994Y-69891004D01*
X114543096Y-69860484D01*
X114492301Y-69812510D01*
X114475506Y-69744689D01*
X114498043Y-69678554D01*
X114543097Y-69639515D01*
X114602994Y-69608996D01*
X114749501Y-69502553D01*
X114877553Y-69374501D01*
X114983996Y-69227994D01*
X115066211Y-69066639D01*
X115122171Y-68894409D01*
X115140415Y-68779221D01*
X115150500Y-68715551D01*
X115150500Y-68284448D01*
X115126840Y-68135070D01*
X115122171Y-68105591D01*
X115066211Y-67933361D01*
X115066211Y-67933360D01*
X115026735Y-67855885D01*
X114983996Y-67772006D01*
X114917016Y-67679815D01*
X114877558Y-67625505D01*
X114877554Y-67625500D01*
X114749499Y-67497445D01*
X114749494Y-67497441D01*
X114602997Y-67391006D01*
X114602996Y-67391005D01*
X114602994Y-67391004D01*
X114551300Y-67364664D01*
X114441639Y-67308788D01*
X114441636Y-67308787D01*
X114269410Y-67252829D01*
X114090551Y-67224500D01*
X114090546Y-67224500D01*
X113909454Y-67224500D01*
X113909449Y-67224500D01*
X113730589Y-67252829D01*
X113558363Y-67308787D01*
X113558360Y-67308788D01*
X113397002Y-67391006D01*
X113250505Y-67497441D01*
X113250500Y-67497445D01*
X113122445Y-67625500D01*
X113122441Y-67625505D01*
X113016006Y-67772002D01*
X112933788Y-67933360D01*
X112933787Y-67933363D01*
X112877829Y-68105589D01*
X112849500Y-68284448D01*
X112849500Y-68715551D01*
X112877829Y-68894410D01*
X112933787Y-69066636D01*
X112933788Y-69066639D01*
X112989664Y-69176300D01*
X112999532Y-69195667D01*
X113016006Y-69227997D01*
X113122441Y-69374494D01*
X113122445Y-69374499D01*
X113250500Y-69502554D01*
X113250505Y-69502558D01*
X113397004Y-69608995D01*
X113456903Y-69639516D01*
X113507698Y-69687490D01*
X113524493Y-69755311D01*
X113501955Y-69821446D01*
X113456903Y-69860484D01*
X113397004Y-69891004D01*
X113250505Y-69997441D01*
X113250500Y-69997445D01*
X113122445Y-70125500D01*
X113122441Y-70125505D01*
X113016006Y-70272002D01*
X112933788Y-70433360D01*
X112933787Y-70433363D01*
X112877829Y-70605589D01*
X112849500Y-70784448D01*
X112849500Y-71215551D01*
X112877829Y-71394410D01*
X112933787Y-71566636D01*
X112933788Y-71566639D01*
X112988279Y-71673581D01*
X113001485Y-71699500D01*
X113016006Y-71727997D01*
X113122441Y-71874494D01*
X113122445Y-71874499D01*
X113250500Y-72002554D01*
X113250505Y-72002558D01*
X113397004Y-72108995D01*
X113456903Y-72139516D01*
X113507698Y-72187490D01*
X113524493Y-72255311D01*
X113501955Y-72321446D01*
X113456903Y-72360484D01*
X113397004Y-72391004D01*
X113250505Y-72497441D01*
X113250500Y-72497445D01*
X113122445Y-72625500D01*
X113122441Y-72625505D01*
X113016006Y-72772002D01*
X112933788Y-72933360D01*
X112933787Y-72933363D01*
X112877829Y-73105589D01*
X112849500Y-73284448D01*
X112849500Y-73715551D01*
X112877829Y-73894410D01*
X112933787Y-74066636D01*
X112933788Y-74066639D01*
X112988747Y-74174500D01*
X113012327Y-74220778D01*
X113016006Y-74227997D01*
X113122441Y-74374494D01*
X113122445Y-74374499D01*
X113250500Y-74502554D01*
X113250505Y-74502558D01*
X113397004Y-74608995D01*
X113456903Y-74639516D01*
X113507698Y-74687490D01*
X113524493Y-74755311D01*
X113501955Y-74821446D01*
X113456903Y-74860484D01*
X113397004Y-74891004D01*
X113250505Y-74997441D01*
X113250500Y-74997445D01*
X113122445Y-75125500D01*
X113122441Y-75125505D01*
X113016006Y-75272002D01*
X112933788Y-75433360D01*
X112933787Y-75433363D01*
X112877829Y-75605589D01*
X112849500Y-75784448D01*
X112849500Y-76215551D01*
X112877829Y-76394410D01*
X112933787Y-76566636D01*
X112933788Y-76566639D01*
X113016006Y-76727997D01*
X113122441Y-76874494D01*
X113122445Y-76874499D01*
X113122447Y-76874501D01*
X113250499Y-77002553D01*
X113371107Y-77090179D01*
X113413772Y-77145508D01*
X113419751Y-77215121D01*
X113387146Y-77276917D01*
X113354520Y-77300980D01*
X113344857Y-77305903D01*
X113185678Y-77421555D01*
X113046555Y-77560678D01*
X112930904Y-77719856D01*
X112841581Y-77895164D01*
X112780778Y-78082294D01*
X112762136Y-78200000D01*
X113628248Y-78200000D01*
X113619905Y-78208343D01*
X113557370Y-78316657D01*
X113525000Y-78437465D01*
X113525000Y-78562535D01*
X113557370Y-78683343D01*
X113619905Y-78791657D01*
X113628248Y-78800000D01*
X112762136Y-78800000D01*
X112780778Y-78917705D01*
X112841581Y-79104835D01*
X112930904Y-79280143D01*
X113046555Y-79439321D01*
X113185678Y-79578444D01*
X113344856Y-79694095D01*
X113354514Y-79699016D01*
X113405311Y-79746989D01*
X113422107Y-79814810D01*
X113399571Y-79880945D01*
X113371106Y-79909820D01*
X113250505Y-79997441D01*
X113250500Y-79997445D01*
X113122445Y-80125500D01*
X113122441Y-80125505D01*
X113016006Y-80272002D01*
X112933788Y-80433360D01*
X112933787Y-80433363D01*
X112877829Y-80605589D01*
X112849500Y-80784448D01*
X112849500Y-81215551D01*
X112877829Y-81394410D01*
X112933787Y-81566636D01*
X112933788Y-81566639D01*
X113016006Y-81727997D01*
X113122441Y-81874494D01*
X113122445Y-81874499D01*
X113250500Y-82002554D01*
X113250505Y-82002558D01*
X113397004Y-82108995D01*
X113456903Y-82139516D01*
X113507698Y-82187490D01*
X113524493Y-82255311D01*
X113501955Y-82321446D01*
X113456903Y-82360484D01*
X113397004Y-82391004D01*
X113250505Y-82497441D01*
X113250500Y-82497445D01*
X113122445Y-82625500D01*
X113122441Y-82625505D01*
X113016006Y-82772002D01*
X112933788Y-82933360D01*
X112933787Y-82933363D01*
X112877829Y-83105589D01*
X112849500Y-83284448D01*
X112849500Y-83715551D01*
X112877829Y-83894410D01*
X112933787Y-84066636D01*
X112933788Y-84066639D01*
X112989664Y-84176300D01*
X113012327Y-84220778D01*
X113016006Y-84227997D01*
X113122441Y-84374494D01*
X113122445Y-84374499D01*
X113209949Y-84462003D01*
X113243434Y-84523326D01*
X113238450Y-84593018D01*
X113196578Y-84648951D01*
X113156866Y-84668760D01*
X113139802Y-84673717D01*
X112998447Y-84757314D01*
X112998438Y-84757321D01*
X112882321Y-84873438D01*
X112882314Y-84873447D01*
X112798717Y-85014803D01*
X112798716Y-85014806D01*
X112752900Y-85172504D01*
X112752899Y-85172510D01*
X112750000Y-85209350D01*
X106900500Y-85209350D01*
X106900500Y-85131004D01*
X106873581Y-84995677D01*
X106873580Y-84995676D01*
X106873580Y-84995672D01*
X106822953Y-84873447D01*
X106820778Y-84868195D01*
X106820771Y-84868182D01*
X106744114Y-84753458D01*
X106744111Y-84753454D01*
X106646545Y-84655888D01*
X106646541Y-84655885D01*
X106531817Y-84579228D01*
X106531804Y-84579221D01*
X106404332Y-84526421D01*
X106404322Y-84526418D01*
X106268995Y-84499500D01*
X106268993Y-84499500D01*
X106131007Y-84499500D01*
X106131005Y-84499500D01*
X105995677Y-84526418D01*
X105995667Y-84526421D01*
X105868195Y-84579221D01*
X105868182Y-84579228D01*
X105753458Y-84655885D01*
X105753454Y-84655888D01*
X105655888Y-84753454D01*
X105655885Y-84753458D01*
X105579228Y-84868182D01*
X105579221Y-84868195D01*
X105526421Y-84995667D01*
X105526418Y-84995677D01*
X105499500Y-85131004D01*
X105499500Y-85131007D01*
X105499500Y-85268993D01*
X105499500Y-85268995D01*
X105499499Y-85268995D01*
X98521661Y-85268995D01*
X98544114Y-85246542D01*
X98620775Y-85131811D01*
X98673580Y-85004328D01*
X98700500Y-84868993D01*
X98700500Y-84731007D01*
X98700500Y-84731004D01*
X98673581Y-84595677D01*
X98673580Y-84595676D01*
X98673580Y-84595672D01*
X98666769Y-84579228D01*
X98620778Y-84468195D01*
X98620771Y-84468182D01*
X98544114Y-84353458D01*
X98544111Y-84353454D01*
X98446545Y-84255888D01*
X98446541Y-84255885D01*
X98331817Y-84179228D01*
X98331804Y-84179221D01*
X98204332Y-84126421D01*
X98204322Y-84126418D01*
X98068995Y-84099500D01*
X98068993Y-84099500D01*
X97931007Y-84099500D01*
X97931005Y-84099500D01*
X97795677Y-84126418D01*
X97795667Y-84126421D01*
X97668195Y-84179221D01*
X97668182Y-84179228D01*
X97553458Y-84255885D01*
X97553454Y-84255888D01*
X97471162Y-84338181D01*
X97409839Y-84371666D01*
X97383481Y-84374500D01*
X95616519Y-84374500D01*
X95549480Y-84354815D01*
X95528838Y-84338181D01*
X95446545Y-84255888D01*
X95446541Y-84255885D01*
X95331817Y-84179228D01*
X95331804Y-84179221D01*
X95204332Y-84126421D01*
X95204322Y-84126418D01*
X95068995Y-84099500D01*
X95068993Y-84099500D01*
X94931007Y-84099500D01*
X94931005Y-84099500D01*
X94795677Y-84126418D01*
X94795667Y-84126421D01*
X94668195Y-84179221D01*
X94668182Y-84179228D01*
X94553458Y-84255885D01*
X94553454Y-84255888D01*
X94455888Y-84353454D01*
X94455885Y-84353458D01*
X94379228Y-84468182D01*
X94379221Y-84468195D01*
X94326421Y-84595667D01*
X94326418Y-84595677D01*
X94299500Y-84731004D01*
X94299500Y-84731007D01*
X94299500Y-84868993D01*
X94299500Y-84868995D01*
X94299499Y-84868995D01*
X85250000Y-84868995D01*
X85250000Y-83750000D01*
X56750000Y-83750000D01*
X56750000Y-89476000D01*
X56730315Y-89543039D01*
X56677511Y-89588794D01*
X56626000Y-89600000D01*
X30908126Y-89600000D01*
X30891941Y-89598939D01*
X30878917Y-89597224D01*
X30786775Y-89585093D01*
X30755508Y-89576715D01*
X30665081Y-89539259D01*
X30637048Y-89523074D01*
X30559398Y-89463491D01*
X30536508Y-89440601D01*
X30476925Y-89362951D01*
X30460740Y-89334918D01*
X30423284Y-89244491D01*
X30414906Y-89213223D01*
X30401061Y-89108059D01*
X30400000Y-89091874D01*
X30400000Y-84206898D01*
X32849500Y-84206898D01*
X32849500Y-85793102D01*
X32855126Y-85839954D01*
X32860122Y-85881561D01*
X32860122Y-85881563D01*
X32860123Y-85881564D01*
X32869143Y-85904437D01*
X32915639Y-86022343D01*
X33007077Y-86142922D01*
X33127656Y-86234360D01*
X33127657Y-86234360D01*
X33127658Y-86234361D01*
X33268436Y-86289877D01*
X33356898Y-86300500D01*
X33356903Y-86300500D01*
X34643097Y-86300500D01*
X34643102Y-86300500D01*
X34731564Y-86289877D01*
X34872342Y-86234361D01*
X34992922Y-86142922D01*
X35084361Y-86022342D01*
X35139877Y-85881564D01*
X35150500Y-85793102D01*
X35150500Y-85771315D01*
X35170185Y-85704276D01*
X35222989Y-85658521D01*
X35292147Y-85648577D01*
X35355703Y-85677602D01*
X35384985Y-85715021D01*
X35430902Y-85805141D01*
X35546555Y-85964321D01*
X35685678Y-86103444D01*
X35844858Y-86219097D01*
X36020167Y-86308420D01*
X36199999Y-86366850D01*
X36200000Y-86366850D01*
X36200000Y-85404144D01*
X36307007Y-85465925D01*
X36434174Y-85500000D01*
X36565826Y-85500000D01*
X36692993Y-85465925D01*
X36800000Y-85404144D01*
X36800000Y-86366850D01*
X36979832Y-86308420D01*
X37155141Y-86219097D01*
X37314321Y-86103444D01*
X37453444Y-85964321D01*
X37569095Y-85805143D01*
X37658418Y-85629835D01*
X37719221Y-85442705D01*
X37741824Y-85300000D01*
X36904144Y-85300000D01*
X36965925Y-85192993D01*
X37000000Y-85065826D01*
X37000000Y-84934174D01*
X36965925Y-84807007D01*
X36904144Y-84700000D01*
X37741824Y-84700000D01*
X37719221Y-84557294D01*
X37658418Y-84370164D01*
X37569095Y-84194856D01*
X37453444Y-84035678D01*
X37314321Y-83896555D01*
X37155143Y-83780904D01*
X36979837Y-83691582D01*
X36800000Y-83633148D01*
X36800000Y-84595855D01*
X36692993Y-84534075D01*
X36565826Y-84500000D01*
X36434174Y-84500000D01*
X36307007Y-84534075D01*
X36200000Y-84595855D01*
X36200000Y-83633148D01*
X36020162Y-83691582D01*
X35844856Y-83780904D01*
X35685678Y-83896555D01*
X35546555Y-84035678D01*
X35430904Y-84194856D01*
X35384985Y-84284979D01*
X35337011Y-84335775D01*
X35269190Y-84352570D01*
X35203055Y-84330033D01*
X35159603Y-84275318D01*
X35150500Y-84228684D01*
X35150500Y-84206903D01*
X35150500Y-84206898D01*
X35139877Y-84118436D01*
X35084361Y-83977658D01*
X35084360Y-83977657D01*
X35084360Y-83977656D01*
X34992922Y-83857077D01*
X34872343Y-83765639D01*
X34745328Y-83715551D01*
X34731564Y-83710123D01*
X34731563Y-83710122D01*
X34731561Y-83710122D01*
X34685926Y-83704642D01*
X34643102Y-83699500D01*
X33356898Y-83699500D01*
X33317853Y-83704188D01*
X33268438Y-83710122D01*
X33127656Y-83765639D01*
X33007077Y-83857077D01*
X32915639Y-83977656D01*
X32860122Y-84118438D01*
X32857039Y-84144114D01*
X32849500Y-84206898D01*
X30400000Y-84206898D01*
X30400000Y-80068995D01*
X41699499Y-80068995D01*
X41726418Y-80204322D01*
X41726421Y-80204332D01*
X41779221Y-80331804D01*
X41779228Y-80331817D01*
X41855885Y-80446541D01*
X41855888Y-80446545D01*
X41953454Y-80544111D01*
X41953458Y-80544114D01*
X42068182Y-80620771D01*
X42068195Y-80620778D01*
X42189834Y-80671162D01*
X42195672Y-80673580D01*
X42195676Y-80673580D01*
X42195677Y-80673581D01*
X42331004Y-80700500D01*
X42447390Y-80700500D01*
X42514429Y-80720185D01*
X42535071Y-80736819D01*
X42863181Y-81064928D01*
X42896666Y-81126251D01*
X42899500Y-81152609D01*
X42899500Y-81268993D01*
X42899500Y-81268995D01*
X42899499Y-81268995D01*
X42926418Y-81404322D01*
X42926421Y-81404332D01*
X42979221Y-81531804D01*
X42979228Y-81531817D01*
X43055885Y-81646541D01*
X43055888Y-81646545D01*
X43153454Y-81744111D01*
X43153458Y-81744114D01*
X43268182Y-81820771D01*
X43268195Y-81820778D01*
X43395667Y-81873578D01*
X43395672Y-81873580D01*
X43395676Y-81873580D01*
X43395677Y-81873581D01*
X43531004Y-81900500D01*
X43531007Y-81900500D01*
X43668995Y-81900500D01*
X43760041Y-81882389D01*
X43804328Y-81873580D01*
X43931811Y-81820775D01*
X44046542Y-81744114D01*
X44144114Y-81646542D01*
X44220775Y-81531811D01*
X44273580Y-81404328D01*
X44300500Y-81268995D01*
X80699499Y-81268995D01*
X80726418Y-81404322D01*
X80726421Y-81404332D01*
X80779221Y-81531804D01*
X80779228Y-81531817D01*
X80855885Y-81646541D01*
X80855888Y-81646545D01*
X80953454Y-81744111D01*
X80953458Y-81744114D01*
X81068182Y-81820771D01*
X81068195Y-81820778D01*
X81195667Y-81873578D01*
X81195672Y-81873580D01*
X81195676Y-81873580D01*
X81195677Y-81873581D01*
X81331004Y-81900500D01*
X81331007Y-81900500D01*
X81468995Y-81900500D01*
X81560041Y-81882389D01*
X81604328Y-81873580D01*
X81731811Y-81820775D01*
X81846542Y-81744114D01*
X81921661Y-81668995D01*
X86699499Y-81668995D01*
X86726418Y-81804322D01*
X86726421Y-81804332D01*
X86779221Y-81931804D01*
X86779228Y-81931817D01*
X86855884Y-82046540D01*
X86855885Y-82046541D01*
X86855886Y-82046542D01*
X86938182Y-82128838D01*
X86971666Y-82190159D01*
X86974500Y-82216518D01*
X86974500Y-82983481D01*
X86954815Y-83050520D01*
X86938181Y-83071162D01*
X86855888Y-83153454D01*
X86855885Y-83153458D01*
X86779228Y-83268182D01*
X86779221Y-83268195D01*
X86726421Y-83395667D01*
X86726418Y-83395677D01*
X86699500Y-83531004D01*
X86699500Y-83531007D01*
X86699500Y-83668993D01*
X86699500Y-83668995D01*
X86699499Y-83668995D01*
X86726418Y-83804322D01*
X86726421Y-83804332D01*
X86779221Y-83931804D01*
X86779228Y-83931817D01*
X86855885Y-84046541D01*
X86855888Y-84046545D01*
X86953454Y-84144111D01*
X86953458Y-84144114D01*
X87068182Y-84220771D01*
X87068195Y-84220778D01*
X87195667Y-84273578D01*
X87195672Y-84273580D01*
X87195676Y-84273580D01*
X87195677Y-84273581D01*
X87331004Y-84300500D01*
X87331007Y-84300500D01*
X87468995Y-84300500D01*
X87560041Y-84282389D01*
X87604328Y-84273580D01*
X87712717Y-84228684D01*
X87731804Y-84220778D01*
X87731804Y-84220777D01*
X87731811Y-84220775D01*
X87846542Y-84144114D01*
X87944114Y-84046542D01*
X88020775Y-83931811D01*
X88073580Y-83804328D01*
X88100500Y-83668993D01*
X88100500Y-83531007D01*
X88100500Y-83531004D01*
X88073581Y-83395677D01*
X88073580Y-83395676D01*
X88073580Y-83395672D01*
X88073578Y-83395667D01*
X88020778Y-83268195D01*
X88020771Y-83268182D01*
X87944114Y-83153458D01*
X87944111Y-83153454D01*
X87861819Y-83071162D01*
X87828334Y-83009839D01*
X87825500Y-82983481D01*
X87825500Y-82216518D01*
X87845185Y-82149479D01*
X87861814Y-82128841D01*
X87944114Y-82046542D01*
X88020775Y-81931811D01*
X88073580Y-81804328D01*
X88100500Y-81668993D01*
X88100500Y-81531007D01*
X88100500Y-81531004D01*
X88073581Y-81395677D01*
X88073580Y-81395676D01*
X88073580Y-81395672D01*
X88021109Y-81268995D01*
X88020778Y-81268195D01*
X88020771Y-81268182D01*
X87944114Y-81153458D01*
X87944111Y-81153454D01*
X87846545Y-81055888D01*
X87846541Y-81055885D01*
X87731817Y-80979228D01*
X87731804Y-80979221D01*
X87604332Y-80926421D01*
X87604322Y-80926418D01*
X87468995Y-80899500D01*
X87468993Y-80899500D01*
X87331007Y-80899500D01*
X87331005Y-80899500D01*
X87195677Y-80926418D01*
X87195667Y-80926421D01*
X87068195Y-80979221D01*
X87068182Y-80979228D01*
X86953458Y-81055885D01*
X86953454Y-81055888D01*
X86855888Y-81153454D01*
X86855885Y-81153458D01*
X86779228Y-81268182D01*
X86779221Y-81268195D01*
X86726421Y-81395667D01*
X86726418Y-81395677D01*
X86699500Y-81531004D01*
X86699500Y-81531007D01*
X86699500Y-81668993D01*
X86699500Y-81668995D01*
X86699499Y-81668995D01*
X81921661Y-81668995D01*
X81944114Y-81646542D01*
X82020775Y-81531811D01*
X82073580Y-81404328D01*
X82100500Y-81268993D01*
X82100500Y-81131007D01*
X82100500Y-81131004D01*
X82073581Y-80995677D01*
X82073580Y-80995676D01*
X82073580Y-80995672D01*
X82066769Y-80979228D01*
X82020778Y-80868195D01*
X82020771Y-80868182D01*
X81944114Y-80753458D01*
X81944111Y-80753454D01*
X81861819Y-80671162D01*
X81828334Y-80609839D01*
X81825500Y-80583481D01*
X81825500Y-79468995D01*
X101499499Y-79468995D01*
X101526418Y-79604322D01*
X101526421Y-79604332D01*
X101579221Y-79731804D01*
X101579228Y-79731817D01*
X101655885Y-79846541D01*
X101655888Y-79846545D01*
X101753454Y-79944111D01*
X101753458Y-79944114D01*
X101868182Y-80020771D01*
X101868195Y-80020778D01*
X101984598Y-80068993D01*
X101995672Y-80073580D01*
X101995676Y-80073580D01*
X101995677Y-80073581D01*
X102131004Y-80100500D01*
X102131007Y-80100500D01*
X102268995Y-80100500D01*
X102360041Y-80082389D01*
X102404328Y-80073580D01*
X102531811Y-80020775D01*
X102646542Y-79944114D01*
X102680836Y-79909820D01*
X102728838Y-79861819D01*
X102790161Y-79828334D01*
X102816519Y-79825500D01*
X103583481Y-79825500D01*
X103650520Y-79845185D01*
X103671162Y-79861819D01*
X103753454Y-79944111D01*
X103753458Y-79944114D01*
X103868182Y-80020771D01*
X103868195Y-80020778D01*
X103984598Y-80068993D01*
X103995672Y-80073580D01*
X103995676Y-80073580D01*
X103995677Y-80073581D01*
X104131004Y-80100500D01*
X104131007Y-80100500D01*
X104268995Y-80100500D01*
X104360041Y-80082389D01*
X104404328Y-80073580D01*
X104531811Y-80020775D01*
X104646542Y-79944114D01*
X104744114Y-79846542D01*
X104820775Y-79731811D01*
X104873580Y-79604328D01*
X104900500Y-79468993D01*
X104900500Y-79331007D01*
X104900500Y-79331004D01*
X104873581Y-79195677D01*
X104873580Y-79195676D01*
X104873580Y-79195672D01*
X104873578Y-79195667D01*
X104820778Y-79068195D01*
X104820771Y-79068182D01*
X104744114Y-78953458D01*
X104744111Y-78953454D01*
X104646545Y-78855888D01*
X104646541Y-78855885D01*
X104531817Y-78779228D01*
X104531804Y-78779221D01*
X104404332Y-78726421D01*
X104404322Y-78726418D01*
X104268995Y-78699500D01*
X104268993Y-78699500D01*
X104131007Y-78699500D01*
X104131005Y-78699500D01*
X103995677Y-78726418D01*
X103995667Y-78726421D01*
X103868195Y-78779221D01*
X103868182Y-78779228D01*
X103753458Y-78855885D01*
X103753454Y-78855888D01*
X103671162Y-78938181D01*
X103609839Y-78971666D01*
X103583481Y-78974500D01*
X102816519Y-78974500D01*
X102749480Y-78954815D01*
X102728838Y-78938181D01*
X102646545Y-78855888D01*
X102646541Y-78855885D01*
X102531817Y-78779228D01*
X102531804Y-78779221D01*
X102404332Y-78726421D01*
X102404322Y-78726418D01*
X102268995Y-78699500D01*
X102268993Y-78699500D01*
X102131007Y-78699500D01*
X102131005Y-78699500D01*
X101995677Y-78726418D01*
X101995667Y-78726421D01*
X101868195Y-78779221D01*
X101868182Y-78779228D01*
X101753458Y-78855885D01*
X101753454Y-78855888D01*
X101655888Y-78953454D01*
X101655885Y-78953458D01*
X101579228Y-79068182D01*
X101579221Y-79068195D01*
X101526421Y-79195667D01*
X101526418Y-79195677D01*
X101499500Y-79331004D01*
X101499500Y-79331007D01*
X101499500Y-79468993D01*
X101499500Y-79468995D01*
X101499499Y-79468995D01*
X81825500Y-79468995D01*
X81825500Y-78468995D01*
X86699499Y-78468995D01*
X86726418Y-78604322D01*
X86726421Y-78604332D01*
X86779221Y-78731804D01*
X86779228Y-78731817D01*
X86855885Y-78846541D01*
X86855888Y-78846545D01*
X86953454Y-78944111D01*
X86953458Y-78944114D01*
X87068182Y-79020771D01*
X87068195Y-79020778D01*
X87182640Y-79068182D01*
X87195672Y-79073580D01*
X87195676Y-79073580D01*
X87195677Y-79073581D01*
X87331004Y-79100500D01*
X87331007Y-79100500D01*
X87468995Y-79100500D01*
X87560041Y-79082389D01*
X87604328Y-79073580D01*
X87731811Y-79020775D01*
X87846542Y-78944114D01*
X87884471Y-78906185D01*
X87928838Y-78861819D01*
X87990161Y-78828334D01*
X88016519Y-78825500D01*
X88783481Y-78825500D01*
X88850520Y-78845185D01*
X88871162Y-78861819D01*
X88953454Y-78944111D01*
X88953458Y-78944114D01*
X89068182Y-79020771D01*
X89068195Y-79020778D01*
X89182640Y-79068182D01*
X89195672Y-79073580D01*
X89195676Y-79073580D01*
X89195677Y-79073581D01*
X89331004Y-79100500D01*
X89331007Y-79100500D01*
X89468995Y-79100500D01*
X89560041Y-79082389D01*
X89604328Y-79073580D01*
X89731811Y-79020775D01*
X89846542Y-78944114D01*
X89944114Y-78846542D01*
X90020775Y-78731811D01*
X90073580Y-78604328D01*
X90085558Y-78544111D01*
X90100500Y-78468995D01*
X90100500Y-78331004D01*
X90100499Y-78331002D01*
X90086626Y-78261254D01*
X90073581Y-78195677D01*
X90073580Y-78195676D01*
X90073580Y-78195672D01*
X90046794Y-78131004D01*
X90020778Y-78068195D01*
X90020771Y-78068182D01*
X89944114Y-77953458D01*
X89944111Y-77953454D01*
X89846545Y-77855888D01*
X89846541Y-77855885D01*
X89731817Y-77779228D01*
X89731804Y-77779221D01*
X89604332Y-77726421D01*
X89604322Y-77726418D01*
X89468995Y-77699500D01*
X89468993Y-77699500D01*
X89331007Y-77699500D01*
X89331005Y-77699500D01*
X89195677Y-77726418D01*
X89195667Y-77726421D01*
X89068195Y-77779221D01*
X89068182Y-77779228D01*
X88953458Y-77855885D01*
X88953454Y-77855888D01*
X88871162Y-77938181D01*
X88809839Y-77971666D01*
X88783481Y-77974500D01*
X88016519Y-77974500D01*
X87949480Y-77954815D01*
X87928838Y-77938181D01*
X87846545Y-77855888D01*
X87846541Y-77855885D01*
X87731817Y-77779228D01*
X87731804Y-77779221D01*
X87604332Y-77726421D01*
X87604322Y-77726418D01*
X87468995Y-77699500D01*
X87468993Y-77699500D01*
X87331007Y-77699500D01*
X87331005Y-77699500D01*
X87195677Y-77726418D01*
X87195667Y-77726421D01*
X87068195Y-77779221D01*
X87068182Y-77779228D01*
X86953458Y-77855885D01*
X86953454Y-77855888D01*
X86855888Y-77953454D01*
X86855885Y-77953458D01*
X86779228Y-78068182D01*
X86779221Y-78068195D01*
X86726421Y-78195667D01*
X86726418Y-78195677D01*
X86699500Y-78331004D01*
X86699500Y-78331007D01*
X86699500Y-78468993D01*
X86699500Y-78468995D01*
X86699499Y-78468995D01*
X81825500Y-78468995D01*
X81825500Y-74227609D01*
X81845185Y-74160570D01*
X81861815Y-74139932D01*
X82264928Y-73736818D01*
X82326251Y-73703334D01*
X82352609Y-73700500D01*
X82468995Y-73700500D01*
X82560041Y-73682389D01*
X82604328Y-73673580D01*
X82731811Y-73620775D01*
X82846542Y-73544114D01*
X82944114Y-73446542D01*
X83020775Y-73331811D01*
X83073580Y-73204328D01*
X83087356Y-73135070D01*
X83100500Y-73068995D01*
X83100500Y-72931004D01*
X83073581Y-72795677D01*
X83073580Y-72795676D01*
X83073580Y-72795672D01*
X83052223Y-72744111D01*
X83020778Y-72668195D01*
X83020771Y-72668182D01*
X82944114Y-72553458D01*
X82944111Y-72553454D01*
X82846545Y-72455888D01*
X82846541Y-72455885D01*
X82731817Y-72379228D01*
X82731804Y-72379221D01*
X82604332Y-72326421D01*
X82604322Y-72326418D01*
X82468995Y-72299500D01*
X82468993Y-72299500D01*
X82331007Y-72299500D01*
X82331005Y-72299500D01*
X82195677Y-72326418D01*
X82195667Y-72326421D01*
X82068195Y-72379221D01*
X82068182Y-72379228D01*
X81953458Y-72455885D01*
X81953454Y-72455888D01*
X81855888Y-72553454D01*
X81855885Y-72553458D01*
X81779228Y-72668182D01*
X81779221Y-72668195D01*
X81726421Y-72795667D01*
X81726418Y-72795677D01*
X81699500Y-72931004D01*
X81699500Y-73047389D01*
X81679815Y-73114428D01*
X81663181Y-73135070D01*
X81138737Y-73659515D01*
X81059517Y-73738734D01*
X81059513Y-73738740D01*
X81003498Y-73835760D01*
X81003497Y-73835763D01*
X80974500Y-73943982D01*
X80974500Y-80583481D01*
X80954815Y-80650520D01*
X80938181Y-80671162D01*
X80855888Y-80753454D01*
X80855885Y-80753458D01*
X80779228Y-80868182D01*
X80779221Y-80868195D01*
X80726421Y-80995667D01*
X80726418Y-80995677D01*
X80699500Y-81131004D01*
X80699500Y-81131007D01*
X80699500Y-81268993D01*
X80699500Y-81268995D01*
X80699499Y-81268995D01*
X44300500Y-81268995D01*
X44300500Y-81268993D01*
X44300500Y-81131007D01*
X44300500Y-81131004D01*
X44273581Y-80995677D01*
X44273580Y-80995676D01*
X44273580Y-80995672D01*
X44266769Y-80979228D01*
X44220778Y-80868195D01*
X44220771Y-80868182D01*
X44144114Y-80753458D01*
X44144111Y-80753454D01*
X44046545Y-80655888D01*
X44046541Y-80655885D01*
X43931817Y-80579228D01*
X43931804Y-80579221D01*
X43804332Y-80526421D01*
X43804322Y-80526418D01*
X43668995Y-80499500D01*
X43668993Y-80499500D01*
X43552609Y-80499500D01*
X43485570Y-80479815D01*
X43464928Y-80463181D01*
X43136819Y-80135071D01*
X43103334Y-80073748D01*
X43100500Y-80047390D01*
X43100500Y-79931004D01*
X43073581Y-79795677D01*
X43073580Y-79795676D01*
X43073580Y-79795672D01*
X43053415Y-79746989D01*
X43020778Y-79668195D01*
X43020771Y-79668182D01*
X42944114Y-79553458D01*
X42944111Y-79553454D01*
X42846545Y-79455888D01*
X42846541Y-79455885D01*
X42731817Y-79379228D01*
X42731804Y-79379221D01*
X42604332Y-79326421D01*
X42604322Y-79326418D01*
X42468995Y-79299500D01*
X42468993Y-79299500D01*
X42331007Y-79299500D01*
X42331005Y-79299500D01*
X42195677Y-79326418D01*
X42195667Y-79326421D01*
X42068195Y-79379221D01*
X42068182Y-79379228D01*
X41953458Y-79455885D01*
X41953454Y-79455888D01*
X41855888Y-79553454D01*
X41855885Y-79553458D01*
X41779228Y-79668182D01*
X41779221Y-79668195D01*
X41726421Y-79795667D01*
X41726418Y-79795677D01*
X41699500Y-79931004D01*
X41699500Y-79931007D01*
X41699500Y-80068993D01*
X41699500Y-80068995D01*
X41699499Y-80068995D01*
X30400000Y-80068995D01*
X30400000Y-74893713D01*
X32149500Y-74893713D01*
X32149500Y-75106286D01*
X32163656Y-75195667D01*
X32182754Y-75316243D01*
X32232386Y-75468995D01*
X32248444Y-75518414D01*
X32344951Y-75707820D01*
X32469890Y-75879786D01*
X32620213Y-76030109D01*
X32792179Y-76155048D01*
X32792181Y-76155049D01*
X32792184Y-76155051D01*
X32981588Y-76251557D01*
X33183757Y-76317246D01*
X33393713Y-76350500D01*
X33393714Y-76350500D01*
X33606286Y-76350500D01*
X33606287Y-76350500D01*
X33816243Y-76317246D01*
X33964744Y-76268995D01*
X54899499Y-76268995D01*
X54926418Y-76404322D01*
X54926421Y-76404332D01*
X54979221Y-76531804D01*
X54979228Y-76531817D01*
X55055885Y-76646541D01*
X55055888Y-76646545D01*
X55153454Y-76744111D01*
X55153458Y-76744114D01*
X55268182Y-76820771D01*
X55268195Y-76820778D01*
X55395667Y-76873578D01*
X55395672Y-76873580D01*
X55469092Y-76888184D01*
X55474691Y-76889298D01*
X55536602Y-76921682D01*
X55571176Y-76982398D01*
X55574500Y-77010915D01*
X55574500Y-77383481D01*
X55554815Y-77450520D01*
X55538181Y-77471162D01*
X55455888Y-77553454D01*
X55455885Y-77553458D01*
X55379228Y-77668182D01*
X55379221Y-77668195D01*
X55326421Y-77795667D01*
X55326418Y-77795677D01*
X55299500Y-77931004D01*
X55299500Y-77931007D01*
X55299500Y-78068993D01*
X55299500Y-78068995D01*
X55299499Y-78068995D01*
X55326418Y-78204322D01*
X55326421Y-78204332D01*
X55379221Y-78331804D01*
X55379228Y-78331817D01*
X55455885Y-78446541D01*
X55455888Y-78446545D01*
X55553454Y-78544111D01*
X55553458Y-78544114D01*
X55668182Y-78620771D01*
X55668195Y-78620778D01*
X55765936Y-78661263D01*
X55795672Y-78673580D01*
X55795676Y-78673580D01*
X55795677Y-78673581D01*
X55931004Y-78700500D01*
X55931007Y-78700500D01*
X56068995Y-78700500D01*
X56160041Y-78682389D01*
X56204328Y-78673580D01*
X56331811Y-78620775D01*
X56446542Y-78544114D01*
X56544114Y-78446542D01*
X56620775Y-78331811D01*
X56673580Y-78204328D01*
X56692782Y-78107795D01*
X56700500Y-78068995D01*
X56700500Y-77931004D01*
X56673581Y-77795677D01*
X56673580Y-77795676D01*
X56673580Y-77795672D01*
X56666769Y-77779228D01*
X56620778Y-77668195D01*
X56620771Y-77668182D01*
X56544114Y-77553458D01*
X56544111Y-77553454D01*
X56461819Y-77471162D01*
X56428334Y-77409839D01*
X56425500Y-77383481D01*
X56425500Y-76543981D01*
X56422720Y-76533608D01*
X56422719Y-76533604D01*
X56399391Y-76446542D01*
X56396503Y-76435763D01*
X56340484Y-76338736D01*
X56336819Y-76335071D01*
X56303334Y-76273748D01*
X56300500Y-76247390D01*
X56300500Y-76131004D01*
X56288165Y-76068995D01*
X57699499Y-76068995D01*
X57726418Y-76204322D01*
X57726421Y-76204332D01*
X57779221Y-76331804D01*
X57779228Y-76331817D01*
X57855884Y-76446540D01*
X57855885Y-76446541D01*
X57855886Y-76446542D01*
X57938182Y-76528838D01*
X57971666Y-76590159D01*
X57974500Y-76616518D01*
X57974500Y-77543982D01*
X57974500Y-77656018D01*
X58003497Y-77764237D01*
X58059515Y-77861263D01*
X58059517Y-77861265D01*
X58306047Y-78107795D01*
X58339532Y-78169118D01*
X58334548Y-78238810D01*
X58292676Y-78294743D01*
X58242558Y-78317093D01*
X58195677Y-78326418D01*
X58195667Y-78326421D01*
X58068195Y-78379221D01*
X58068182Y-78379228D01*
X57953458Y-78455885D01*
X57953454Y-78455888D01*
X57855888Y-78553454D01*
X57855885Y-78553458D01*
X57779228Y-78668182D01*
X57779221Y-78668195D01*
X57726421Y-78795667D01*
X57726418Y-78795677D01*
X57699500Y-78931004D01*
X57699500Y-78931007D01*
X57699500Y-79068993D01*
X57699500Y-79068995D01*
X57699499Y-79068995D01*
X57726418Y-79204322D01*
X57726421Y-79204332D01*
X57779221Y-79331804D01*
X57779228Y-79331817D01*
X57855885Y-79446541D01*
X57855888Y-79446545D01*
X57953454Y-79544111D01*
X57953458Y-79544114D01*
X58068182Y-79620771D01*
X58068195Y-79620778D01*
X58182640Y-79668182D01*
X58195672Y-79673580D01*
X58195676Y-79673580D01*
X58195677Y-79673581D01*
X58331004Y-79700500D01*
X58331007Y-79700500D01*
X58468995Y-79700500D01*
X58560041Y-79682389D01*
X58604328Y-79673580D01*
X58731811Y-79620775D01*
X58846542Y-79544114D01*
X58944114Y-79446542D01*
X59020775Y-79331811D01*
X59073580Y-79204328D01*
X59094233Y-79100500D01*
X59100500Y-79068995D01*
X59100500Y-78952609D01*
X59120185Y-78885570D01*
X59136819Y-78864928D01*
X59210090Y-78791657D01*
X59317865Y-78683881D01*
X59379187Y-78650398D01*
X59448879Y-78655382D01*
X59493226Y-78683883D01*
X59553454Y-78744111D01*
X59553458Y-78744114D01*
X59668182Y-78820771D01*
X59668195Y-78820778D01*
X59767278Y-78861819D01*
X59795672Y-78873580D01*
X59795676Y-78873580D01*
X59795677Y-78873581D01*
X59931004Y-78900500D01*
X59931007Y-78900500D01*
X60068995Y-78900500D01*
X60171575Y-78880095D01*
X60204328Y-78873580D01*
X60331811Y-78820775D01*
X60446542Y-78744114D01*
X60544114Y-78646542D01*
X60620775Y-78531811D01*
X60673580Y-78404328D01*
X60682389Y-78360041D01*
X60700500Y-78268995D01*
X60700500Y-78131004D01*
X60673581Y-77995677D01*
X60673580Y-77995676D01*
X60673580Y-77995672D01*
X60664810Y-77974500D01*
X60620778Y-77868195D01*
X60620771Y-77868182D01*
X60544114Y-77753458D01*
X60544111Y-77753454D01*
X60446545Y-77655888D01*
X60446541Y-77655885D01*
X60331817Y-77579228D01*
X60331804Y-77579221D01*
X60204332Y-77526421D01*
X60204322Y-77526418D01*
X60068995Y-77499500D01*
X60068993Y-77499500D01*
X59936895Y-77499500D01*
X59869856Y-77479815D01*
X59824101Y-77427011D01*
X59814157Y-77357853D01*
X59822334Y-77328047D01*
X59833545Y-77300981D01*
X59873580Y-77204328D01*
X59900500Y-77068993D01*
X59900500Y-76987965D01*
X59920185Y-76920926D01*
X59936819Y-76900284D01*
X60500284Y-76336819D01*
X60561607Y-76303334D01*
X60587965Y-76300500D01*
X60668995Y-76300500D01*
X60760041Y-76282389D01*
X60804328Y-76273580D01*
X60931811Y-76220775D01*
X61046542Y-76144114D01*
X61144114Y-76046542D01*
X61220775Y-75931811D01*
X61273580Y-75804328D01*
X61283700Y-75753454D01*
X61300500Y-75668995D01*
X61300500Y-75531004D01*
X61273581Y-75395677D01*
X61273580Y-75395676D01*
X61273580Y-75395672D01*
X61266769Y-75379228D01*
X61220778Y-75268195D01*
X61220771Y-75268182D01*
X61144114Y-75153458D01*
X61144111Y-75153454D01*
X61046545Y-75055888D01*
X61046541Y-75055885D01*
X60931817Y-74979228D01*
X60931804Y-74979221D01*
X60804332Y-74926421D01*
X60804322Y-74926418D01*
X60668995Y-74899500D01*
X60668993Y-74899500D01*
X60531007Y-74899500D01*
X60531005Y-74899500D01*
X60395677Y-74926418D01*
X60395667Y-74926421D01*
X60268195Y-74979221D01*
X60268182Y-74979228D01*
X60153458Y-75055885D01*
X60153454Y-75055888D01*
X60055888Y-75153454D01*
X60055885Y-75153458D01*
X59979228Y-75268182D01*
X59979221Y-75268195D01*
X59926421Y-75395667D01*
X59926418Y-75395677D01*
X59899500Y-75531004D01*
X59899500Y-75612035D01*
X59879815Y-75679074D01*
X59863181Y-75699716D01*
X59299716Y-76263181D01*
X59238393Y-76296666D01*
X59212035Y-76299500D01*
X59205744Y-76299500D01*
X59138705Y-76279815D01*
X59092950Y-76227011D01*
X59083006Y-76157853D01*
X59084127Y-76151309D01*
X59099587Y-76073581D01*
X59100500Y-76068993D01*
X59100500Y-75931007D01*
X59100500Y-75931004D01*
X59073581Y-75795677D01*
X59073580Y-75795676D01*
X59073580Y-75795672D01*
X59068931Y-75784448D01*
X59020778Y-75668195D01*
X59020771Y-75668182D01*
X58944114Y-75553458D01*
X58944111Y-75553454D01*
X58846545Y-75455888D01*
X58846541Y-75455885D01*
X58731817Y-75379228D01*
X58731804Y-75379221D01*
X58604332Y-75326421D01*
X58604322Y-75326418D01*
X58468995Y-75299500D01*
X58468993Y-75299500D01*
X58331007Y-75299500D01*
X58331005Y-75299500D01*
X58195677Y-75326418D01*
X58195667Y-75326421D01*
X58068195Y-75379221D01*
X58068182Y-75379228D01*
X57953458Y-75455885D01*
X57953454Y-75455888D01*
X57855888Y-75553454D01*
X57855885Y-75553458D01*
X57779228Y-75668182D01*
X57779221Y-75668195D01*
X57726421Y-75795667D01*
X57726418Y-75795677D01*
X57699500Y-75931004D01*
X57699500Y-75931007D01*
X57699500Y-76068993D01*
X57699500Y-76068995D01*
X57699499Y-76068995D01*
X56288165Y-76068995D01*
X56273581Y-75995677D01*
X56273580Y-75995676D01*
X56273580Y-75995672D01*
X56245796Y-75928595D01*
X56220778Y-75868195D01*
X56220771Y-75868182D01*
X56144114Y-75753458D01*
X56144111Y-75753454D01*
X56046545Y-75655888D01*
X56046541Y-75655885D01*
X55931817Y-75579228D01*
X55931804Y-75579221D01*
X55804332Y-75526421D01*
X55804322Y-75526418D01*
X55668995Y-75499500D01*
X55668993Y-75499500D01*
X55531007Y-75499500D01*
X55531005Y-75499500D01*
X55395677Y-75526418D01*
X55395667Y-75526421D01*
X55268195Y-75579221D01*
X55268182Y-75579228D01*
X55153458Y-75655885D01*
X55153454Y-75655888D01*
X55055888Y-75753454D01*
X55055885Y-75753458D01*
X54979228Y-75868182D01*
X54979221Y-75868195D01*
X54926421Y-75995667D01*
X54926418Y-75995677D01*
X54899500Y-76131004D01*
X54899500Y-76131007D01*
X54899500Y-76268993D01*
X54899500Y-76268995D01*
X54899499Y-76268995D01*
X33964744Y-76268995D01*
X34018412Y-76251557D01*
X34207816Y-76155051D01*
X34379792Y-76030104D01*
X34530104Y-75879792D01*
X34530106Y-75879788D01*
X34530109Y-75879786D01*
X34655048Y-75707820D01*
X34655047Y-75707820D01*
X34655051Y-75707816D01*
X34751557Y-75518412D01*
X34817246Y-75316243D01*
X34850500Y-75106287D01*
X34850500Y-74893713D01*
X34817246Y-74683757D01*
X34751557Y-74481588D01*
X34655051Y-74292184D01*
X34655049Y-74292181D01*
X34655048Y-74292179D01*
X34530109Y-74120213D01*
X34379786Y-73969890D01*
X34207820Y-73844951D01*
X34018414Y-73748444D01*
X34018413Y-73748443D01*
X34018412Y-73748443D01*
X33816243Y-73682754D01*
X33816241Y-73682753D01*
X33816240Y-73682753D01*
X33654957Y-73657208D01*
X33606287Y-73649500D01*
X33393713Y-73649500D01*
X33345042Y-73657208D01*
X33183760Y-73682753D01*
X32981585Y-73748444D01*
X32792179Y-73844951D01*
X32620213Y-73969890D01*
X32469890Y-74120213D01*
X32344951Y-74292179D01*
X32248444Y-74481585D01*
X32182753Y-74683760D01*
X32149500Y-74893713D01*
X30400000Y-74893713D01*
X30400000Y-70268995D01*
X48699499Y-70268995D01*
X48726418Y-70404322D01*
X48726421Y-70404332D01*
X48779221Y-70531804D01*
X48779228Y-70531817D01*
X48855885Y-70646541D01*
X48855888Y-70646545D01*
X48953454Y-70744111D01*
X48953458Y-70744114D01*
X49068182Y-70820771D01*
X49068195Y-70820778D01*
X49182640Y-70868182D01*
X49195672Y-70873580D01*
X49195676Y-70873580D01*
X49195677Y-70873581D01*
X49331004Y-70900500D01*
X49447390Y-70900500D01*
X49514429Y-70920185D01*
X49535071Y-70936819D01*
X50063181Y-71464929D01*
X50096666Y-71526252D01*
X50099500Y-71552610D01*
X50099500Y-71668993D01*
X50099500Y-71668995D01*
X50099499Y-71668995D01*
X50126418Y-71804322D01*
X50126421Y-71804332D01*
X50179221Y-71931804D01*
X50179228Y-71931817D01*
X50255885Y-72046541D01*
X50255888Y-72046545D01*
X50353454Y-72144111D01*
X50353458Y-72144114D01*
X50468182Y-72220771D01*
X50468195Y-72220778D01*
X50574784Y-72264928D01*
X50595672Y-72273580D01*
X50595676Y-72273580D01*
X50595677Y-72273581D01*
X50731004Y-72300500D01*
X50731007Y-72300500D01*
X50868995Y-72300500D01*
X50960041Y-72282389D01*
X51004328Y-72273580D01*
X51131811Y-72220775D01*
X51246542Y-72144114D01*
X51344114Y-72046542D01*
X51396898Y-71967546D01*
X51450510Y-71922741D01*
X51519835Y-71914034D01*
X51582863Y-71944189D01*
X51603102Y-71967546D01*
X51655885Y-72046541D01*
X51655888Y-72046545D01*
X51753454Y-72144111D01*
X51753458Y-72144114D01*
X51868182Y-72220771D01*
X51868195Y-72220778D01*
X51974784Y-72264928D01*
X51995672Y-72273580D01*
X51995676Y-72273580D01*
X51995677Y-72273581D01*
X52131004Y-72300500D01*
X52131007Y-72300500D01*
X52268995Y-72300500D01*
X52360041Y-72282389D01*
X52404328Y-72273580D01*
X52531811Y-72220775D01*
X52646542Y-72144114D01*
X52681663Y-72108993D01*
X52728838Y-72061819D01*
X52790161Y-72028334D01*
X52816519Y-72025500D01*
X53183481Y-72025500D01*
X53250520Y-72045185D01*
X53271162Y-72061819D01*
X53353454Y-72144111D01*
X53353458Y-72144114D01*
X53468182Y-72220771D01*
X53468195Y-72220778D01*
X53574784Y-72264928D01*
X53595672Y-72273580D01*
X53595676Y-72273580D01*
X53595677Y-72273581D01*
X53731004Y-72300500D01*
X53731007Y-72300500D01*
X53868995Y-72300500D01*
X53960041Y-72282389D01*
X54004328Y-72273580D01*
X54131811Y-72220775D01*
X54246542Y-72144114D01*
X54344114Y-72046542D01*
X54420775Y-71931811D01*
X54473580Y-71804328D01*
X54485584Y-71743982D01*
X54500500Y-71668995D01*
X54500500Y-71531004D01*
X54473581Y-71395677D01*
X54473580Y-71395676D01*
X54473580Y-71395672D01*
X54466769Y-71379228D01*
X54420778Y-71268195D01*
X54420771Y-71268182D01*
X54344114Y-71153458D01*
X54344111Y-71153454D01*
X54246545Y-71055888D01*
X54246541Y-71055885D01*
X54131817Y-70979228D01*
X54131804Y-70979221D01*
X54004332Y-70926421D01*
X54004322Y-70926418D01*
X53868995Y-70899500D01*
X53868993Y-70899500D01*
X53731007Y-70899500D01*
X53731005Y-70899500D01*
X53595677Y-70926418D01*
X53595667Y-70926421D01*
X53468195Y-70979221D01*
X53468182Y-70979228D01*
X53353458Y-71055885D01*
X53353454Y-71055888D01*
X53271162Y-71138181D01*
X53209839Y-71171666D01*
X53183481Y-71174500D01*
X52816519Y-71174500D01*
X52749480Y-71154815D01*
X52728838Y-71138181D01*
X52646545Y-71055888D01*
X52646541Y-71055885D01*
X52531817Y-70979228D01*
X52531804Y-70979221D01*
X52404332Y-70926421D01*
X52404322Y-70926418D01*
X52268995Y-70899500D01*
X52268993Y-70899500D01*
X52131007Y-70899500D01*
X52131005Y-70899500D01*
X51995677Y-70926418D01*
X51995667Y-70926421D01*
X51868195Y-70979221D01*
X51868182Y-70979228D01*
X51753458Y-71055885D01*
X51753454Y-71055888D01*
X51655888Y-71153454D01*
X51655885Y-71153458D01*
X51603102Y-71232453D01*
X51549489Y-71277258D01*
X51480164Y-71285965D01*
X51417137Y-71255810D01*
X51396898Y-71232453D01*
X51344114Y-71153458D01*
X51344111Y-71153454D01*
X51246545Y-71055888D01*
X51246541Y-71055885D01*
X51131817Y-70979228D01*
X51131804Y-70979221D01*
X51004332Y-70926421D01*
X51004322Y-70926418D01*
X50868995Y-70899500D01*
X50868993Y-70899500D01*
X50752610Y-70899500D01*
X50685571Y-70879815D01*
X50664929Y-70863181D01*
X50470743Y-70668995D01*
X57899499Y-70668995D01*
X57926418Y-70804322D01*
X57926421Y-70804332D01*
X57979221Y-70931804D01*
X57979228Y-70931817D01*
X58055885Y-71046541D01*
X58055888Y-71046545D01*
X58153454Y-71144111D01*
X58153458Y-71144114D01*
X58268182Y-71220771D01*
X58268195Y-71220778D01*
X58352771Y-71255810D01*
X58395672Y-71273580D01*
X58395676Y-71273580D01*
X58395677Y-71273581D01*
X58531004Y-71300500D01*
X58531007Y-71300500D01*
X58668995Y-71300500D01*
X58760041Y-71282389D01*
X58804328Y-71273580D01*
X58931811Y-71220775D01*
X59046542Y-71144114D01*
X59080138Y-71110518D01*
X59128838Y-71061819D01*
X59190161Y-71028334D01*
X59216519Y-71025500D01*
X59983481Y-71025500D01*
X60050520Y-71045185D01*
X60071162Y-71061819D01*
X60153454Y-71144111D01*
X60153458Y-71144114D01*
X60268182Y-71220771D01*
X60268195Y-71220778D01*
X60352771Y-71255810D01*
X60395672Y-71273580D01*
X60395676Y-71273580D01*
X60395677Y-71273581D01*
X60531004Y-71300500D01*
X60531007Y-71300500D01*
X60668995Y-71300500D01*
X60760041Y-71282389D01*
X60804328Y-71273580D01*
X60931811Y-71220775D01*
X61046542Y-71144114D01*
X61144114Y-71046542D01*
X61147396Y-71041629D01*
X61201007Y-70996824D01*
X61270331Y-70988114D01*
X61333360Y-71018267D01*
X61370081Y-71077709D01*
X61374500Y-71110518D01*
X61374500Y-71583481D01*
X61354815Y-71650520D01*
X61338181Y-71671162D01*
X61255888Y-71753454D01*
X61255885Y-71753458D01*
X61179228Y-71868182D01*
X61179221Y-71868195D01*
X61126421Y-71995667D01*
X61126418Y-71995677D01*
X61099500Y-72131004D01*
X61099500Y-72131007D01*
X61099500Y-72268993D01*
X61099500Y-72268995D01*
X61099499Y-72268995D01*
X61126418Y-72404322D01*
X61126421Y-72404332D01*
X61179221Y-72531804D01*
X61179228Y-72531817D01*
X61255885Y-72646541D01*
X61255888Y-72646545D01*
X61353454Y-72744111D01*
X61353458Y-72744114D01*
X61468182Y-72820771D01*
X61468195Y-72820778D01*
X61567278Y-72861819D01*
X61595672Y-72873580D01*
X61595676Y-72873580D01*
X61595677Y-72873581D01*
X61731004Y-72900500D01*
X61731007Y-72900500D01*
X61868995Y-72900500D01*
X61960041Y-72882389D01*
X62004328Y-72873580D01*
X62131811Y-72820775D01*
X62246542Y-72744114D01*
X62344114Y-72646542D01*
X62420775Y-72531811D01*
X62473580Y-72404328D01*
X62486738Y-72338181D01*
X62500500Y-72268995D01*
X62500500Y-72131004D01*
X62473581Y-71995677D01*
X62473580Y-71995676D01*
X62473580Y-71995672D01*
X62464810Y-71974500D01*
X62420778Y-71868195D01*
X62420771Y-71868182D01*
X62382686Y-71811184D01*
X62382683Y-71811180D01*
X62344114Y-71753458D01*
X62334638Y-71743982D01*
X85774500Y-71743982D01*
X85774500Y-72943981D01*
X85774500Y-72943982D01*
X85774500Y-73056018D01*
X85803497Y-73164237D01*
X85859515Y-73261263D01*
X85859517Y-73261265D01*
X85863181Y-73264929D01*
X85896666Y-73326252D01*
X85899500Y-73352610D01*
X85899500Y-73468993D01*
X85899500Y-73468995D01*
X85899499Y-73468995D01*
X85926418Y-73604322D01*
X85926421Y-73604332D01*
X85979221Y-73731804D01*
X85979228Y-73731817D01*
X86055885Y-73846541D01*
X86055888Y-73846545D01*
X86153454Y-73944111D01*
X86153458Y-73944114D01*
X86268182Y-74020771D01*
X86268195Y-74020778D01*
X86378915Y-74066639D01*
X86395672Y-74073580D01*
X86442558Y-74082906D01*
X86504467Y-74115290D01*
X86539042Y-74176005D01*
X86535303Y-74245775D01*
X86506048Y-74292204D01*
X86338737Y-74459515D01*
X86259517Y-74538734D01*
X86259513Y-74538740D01*
X86203498Y-74635760D01*
X86203497Y-74635763D01*
X86174500Y-74743982D01*
X86174500Y-75583481D01*
X86154815Y-75650520D01*
X86138181Y-75671162D01*
X86055888Y-75753454D01*
X86055885Y-75753458D01*
X85979228Y-75868182D01*
X85979221Y-75868195D01*
X85926421Y-75995667D01*
X85926418Y-75995677D01*
X85899500Y-76131004D01*
X85899500Y-76131007D01*
X85899500Y-76268993D01*
X85899500Y-76268995D01*
X85899499Y-76268995D01*
X85926418Y-76404322D01*
X85926421Y-76404332D01*
X85979221Y-76531804D01*
X85979228Y-76531817D01*
X86055885Y-76646541D01*
X86055888Y-76646545D01*
X86153454Y-76744111D01*
X86153458Y-76744114D01*
X86268182Y-76820771D01*
X86268195Y-76820778D01*
X86395667Y-76873578D01*
X86395672Y-76873580D01*
X86395676Y-76873580D01*
X86395677Y-76873581D01*
X86531004Y-76900500D01*
X86531007Y-76900500D01*
X86668995Y-76900500D01*
X86760041Y-76882389D01*
X86804328Y-76873580D01*
X86931811Y-76820775D01*
X87046542Y-76744114D01*
X87144114Y-76646542D01*
X87220775Y-76531811D01*
X87273580Y-76404328D01*
X87286628Y-76338733D01*
X87300500Y-76268995D01*
X87300500Y-76224500D01*
X87320185Y-76157461D01*
X87372989Y-76111706D01*
X87424500Y-76100500D01*
X87468995Y-76100500D01*
X87560041Y-76082389D01*
X87604328Y-76073580D01*
X87731811Y-76020775D01*
X87846542Y-75944114D01*
X87859652Y-75931004D01*
X87928838Y-75861819D01*
X87990161Y-75828334D01*
X88016519Y-75825500D01*
X88783481Y-75825500D01*
X88850520Y-75845185D01*
X88871162Y-75861819D01*
X88953454Y-75944111D01*
X88953458Y-75944114D01*
X89068182Y-76020771D01*
X89068195Y-76020778D01*
X89195667Y-76073578D01*
X89195672Y-76073580D01*
X89195676Y-76073580D01*
X89195677Y-76073581D01*
X89331004Y-76100500D01*
X89331007Y-76100500D01*
X89468995Y-76100500D01*
X89560041Y-76082389D01*
X89604328Y-76073580D01*
X89731811Y-76020775D01*
X89846542Y-75944114D01*
X89944114Y-75846542D01*
X90020775Y-75731811D01*
X90073580Y-75604328D01*
X90089077Y-75526420D01*
X90100500Y-75468995D01*
X90100500Y-75331004D01*
X90073581Y-75195677D01*
X90073580Y-75195676D01*
X90073580Y-75195672D01*
X90073578Y-75195667D01*
X90020778Y-75068195D01*
X90020771Y-75068182D01*
X89944114Y-74953458D01*
X89944111Y-74953454D01*
X89846545Y-74855888D01*
X89846541Y-74855885D01*
X89731817Y-74779228D01*
X89731804Y-74779221D01*
X89604332Y-74726421D01*
X89604322Y-74726418D01*
X89468995Y-74699500D01*
X89468993Y-74699500D01*
X89331007Y-74699500D01*
X89331005Y-74699500D01*
X89195677Y-74726418D01*
X89195667Y-74726421D01*
X89068195Y-74779221D01*
X89068182Y-74779228D01*
X88953458Y-74855885D01*
X88953454Y-74855888D01*
X88871162Y-74938181D01*
X88809839Y-74971666D01*
X88783481Y-74974500D01*
X88016519Y-74974500D01*
X87949480Y-74954815D01*
X87928838Y-74938181D01*
X87846545Y-74855888D01*
X87846539Y-74855883D01*
X87791926Y-74819391D01*
X87747122Y-74765779D01*
X87738415Y-74696453D01*
X87768570Y-74633426D01*
X87773117Y-74628629D01*
X89139929Y-73261819D01*
X89201252Y-73228334D01*
X89227610Y-73225500D01*
X89656016Y-73225500D01*
X89656018Y-73225500D01*
X89764237Y-73196503D01*
X89861263Y-73140485D01*
X90264928Y-72736818D01*
X90326251Y-72703334D01*
X90352609Y-72700500D01*
X90468995Y-72700500D01*
X90560041Y-72682389D01*
X90604328Y-72673580D01*
X90731811Y-72620775D01*
X90846542Y-72544114D01*
X90944114Y-72446542D01*
X91020775Y-72331811D01*
X91073580Y-72204328D01*
X91088165Y-72131004D01*
X91100500Y-72068995D01*
X91100500Y-71931004D01*
X91073581Y-71795677D01*
X91073580Y-71795676D01*
X91073580Y-71795672D01*
X91057423Y-71756666D01*
X91020778Y-71668195D01*
X91020771Y-71668182D01*
X90944114Y-71553458D01*
X90944111Y-71553454D01*
X90846545Y-71455888D01*
X90846541Y-71455885D01*
X90731817Y-71379228D01*
X90731804Y-71379221D01*
X90604332Y-71326421D01*
X90604322Y-71326418D01*
X90468995Y-71299500D01*
X90468993Y-71299500D01*
X90331007Y-71299500D01*
X90331005Y-71299500D01*
X90195677Y-71326418D01*
X90195667Y-71326421D01*
X90068195Y-71379221D01*
X90068182Y-71379228D01*
X89953458Y-71455885D01*
X89953454Y-71455888D01*
X89855888Y-71553454D01*
X89855885Y-71553458D01*
X89779228Y-71668182D01*
X89779221Y-71668195D01*
X89726421Y-71795667D01*
X89726418Y-71795677D01*
X89699500Y-71931004D01*
X89699500Y-72047389D01*
X89679815Y-72114428D01*
X89663181Y-72135070D01*
X89460071Y-72338181D01*
X89398748Y-72371666D01*
X89372390Y-72374500D01*
X88943981Y-72374500D01*
X88874243Y-72393186D01*
X88874242Y-72393185D01*
X88835764Y-72403496D01*
X88835759Y-72403498D01*
X88738740Y-72459512D01*
X88738734Y-72459517D01*
X87483083Y-73715168D01*
X87421760Y-73748653D01*
X87352068Y-73743669D01*
X87296135Y-73701797D01*
X87271718Y-73636333D01*
X87273785Y-73603295D01*
X87300500Y-73468995D01*
X87300500Y-73331004D01*
X87273581Y-73195677D01*
X87273579Y-73195670D01*
X87267725Y-73181538D01*
X87260254Y-73112072D01*
X87291527Y-73049592D01*
X87327110Y-73024888D01*
X87326445Y-73023643D01*
X87331807Y-73020776D01*
X87331811Y-73020775D01*
X87446542Y-72944114D01*
X87544114Y-72846542D01*
X87620775Y-72731811D01*
X87673580Y-72604328D01*
X87685558Y-72544111D01*
X87700500Y-72468995D01*
X87700500Y-72352609D01*
X87720185Y-72285570D01*
X87736819Y-72264928D01*
X88264928Y-71736819D01*
X88326251Y-71703334D01*
X88352609Y-71700500D01*
X88468995Y-71700500D01*
X88560041Y-71682389D01*
X88604328Y-71673580D01*
X88731811Y-71620775D01*
X88846542Y-71544114D01*
X88944114Y-71446542D01*
X89020775Y-71331811D01*
X89073580Y-71204328D01*
X89095563Y-71093814D01*
X89100500Y-71068995D01*
X89100500Y-70931004D01*
X89073581Y-70795677D01*
X89073580Y-70795676D01*
X89073580Y-70795672D01*
X89064810Y-70774500D01*
X89020778Y-70668195D01*
X89020771Y-70668182D01*
X88944114Y-70553458D01*
X88944111Y-70553454D01*
X88878338Y-70487681D01*
X88874179Y-70480065D01*
X88867200Y-70474906D01*
X88864955Y-70468995D01*
X92699499Y-70468995D01*
X92726418Y-70604322D01*
X92726421Y-70604332D01*
X92779221Y-70731804D01*
X92779228Y-70731817D01*
X92855884Y-70846540D01*
X92855885Y-70846541D01*
X92855886Y-70846542D01*
X92938182Y-70928838D01*
X92971666Y-70990159D01*
X92974500Y-71016518D01*
X92974500Y-72983481D01*
X92954815Y-73050520D01*
X92938181Y-73071162D01*
X92855888Y-73153454D01*
X92855885Y-73153458D01*
X92779228Y-73268182D01*
X92779221Y-73268195D01*
X92726421Y-73395667D01*
X92726418Y-73395677D01*
X92699500Y-73531004D01*
X92699500Y-73531007D01*
X92699500Y-73668993D01*
X92699500Y-73668995D01*
X92699499Y-73668995D01*
X92726418Y-73804322D01*
X92726421Y-73804332D01*
X92779221Y-73931804D01*
X92779228Y-73931817D01*
X92855885Y-74046541D01*
X92855888Y-74046545D01*
X92953454Y-74144111D01*
X92953458Y-74144114D01*
X93068182Y-74220771D01*
X93068195Y-74220778D01*
X93161716Y-74259515D01*
X93195672Y-74273580D01*
X93195676Y-74273580D01*
X93195677Y-74273581D01*
X93331004Y-74300500D01*
X93331007Y-74300500D01*
X93468995Y-74300500D01*
X93560041Y-74282389D01*
X93604328Y-74273580D01*
X93702924Y-74232740D01*
X93731804Y-74220778D01*
X93731804Y-74220777D01*
X93731811Y-74220775D01*
X93846542Y-74144114D01*
X93944114Y-74046542D01*
X94020775Y-73931811D01*
X94073580Y-73804328D01*
X94086628Y-73738734D01*
X94100500Y-73668995D01*
X94100500Y-73531004D01*
X94073581Y-73395677D01*
X94073580Y-73395676D01*
X94073580Y-73395672D01*
X94055743Y-73352610D01*
X94020778Y-73268195D01*
X94020771Y-73268182D01*
X93944114Y-73153458D01*
X93944111Y-73153454D01*
X93861819Y-73071162D01*
X93828334Y-73009839D01*
X93825500Y-72983481D01*
X93825500Y-72068995D01*
X96899499Y-72068995D01*
X96926418Y-72204322D01*
X96926421Y-72204332D01*
X96979221Y-72331804D01*
X96979228Y-72331817D01*
X97055884Y-72446540D01*
X97055885Y-72446541D01*
X97055886Y-72446542D01*
X97138182Y-72528838D01*
X97171666Y-72590159D01*
X97174500Y-72616518D01*
X97174500Y-72983481D01*
X97154815Y-73050520D01*
X97138181Y-73071162D01*
X97055888Y-73153454D01*
X97055885Y-73153458D01*
X96979228Y-73268182D01*
X96979221Y-73268195D01*
X96926421Y-73395667D01*
X96926418Y-73395677D01*
X96899500Y-73531004D01*
X96899500Y-73531007D01*
X96899500Y-73668993D01*
X96899500Y-73668995D01*
X96899499Y-73668995D01*
X96926418Y-73804322D01*
X96926421Y-73804332D01*
X96979221Y-73931804D01*
X96979228Y-73931817D01*
X97055885Y-74046541D01*
X97055888Y-74046545D01*
X97153454Y-74144111D01*
X97153458Y-74144114D01*
X97268182Y-74220771D01*
X97268195Y-74220778D01*
X97361716Y-74259515D01*
X97395672Y-74273580D01*
X97395676Y-74273580D01*
X97395677Y-74273581D01*
X97531004Y-74300500D01*
X97531007Y-74300500D01*
X97668995Y-74300500D01*
X97760041Y-74282389D01*
X97804328Y-74273580D01*
X97902924Y-74232740D01*
X97931804Y-74220778D01*
X97931804Y-74220777D01*
X97931811Y-74220775D01*
X98046542Y-74144114D01*
X98144114Y-74046542D01*
X98220775Y-73931811D01*
X98273580Y-73804328D01*
X98286628Y-73738734D01*
X98300500Y-73668995D01*
X98300500Y-73531004D01*
X98273581Y-73395677D01*
X98273580Y-73395676D01*
X98273580Y-73395672D01*
X98255743Y-73352610D01*
X98220778Y-73268195D01*
X98220771Y-73268182D01*
X98144114Y-73153458D01*
X98144111Y-73153454D01*
X98061819Y-73071162D01*
X98028334Y-73009839D01*
X98025500Y-72983481D01*
X98025500Y-72616518D01*
X98045185Y-72549479D01*
X98061814Y-72528841D01*
X98144114Y-72446542D01*
X98220775Y-72331811D01*
X98273580Y-72204328D01*
X98288165Y-72131004D01*
X98300500Y-72068995D01*
X98300500Y-71931004D01*
X98273581Y-71795677D01*
X98273580Y-71795676D01*
X98273580Y-71795672D01*
X98257423Y-71756666D01*
X98220778Y-71668195D01*
X98220771Y-71668182D01*
X98144114Y-71553458D01*
X98144111Y-71553454D01*
X98046545Y-71455888D01*
X98046541Y-71455885D01*
X97931817Y-71379228D01*
X97931804Y-71379221D01*
X97804332Y-71326421D01*
X97804322Y-71326418D01*
X97668995Y-71299500D01*
X97668993Y-71299500D01*
X97531007Y-71299500D01*
X97531005Y-71299500D01*
X97395677Y-71326418D01*
X97395667Y-71326421D01*
X97268195Y-71379221D01*
X97268182Y-71379228D01*
X97153458Y-71455885D01*
X97153454Y-71455888D01*
X97055888Y-71553454D01*
X97055885Y-71553458D01*
X96979228Y-71668182D01*
X96979221Y-71668195D01*
X96926421Y-71795667D01*
X96926418Y-71795677D01*
X96899500Y-71931004D01*
X96899500Y-71931007D01*
X96899500Y-72068993D01*
X96899500Y-72068995D01*
X96899499Y-72068995D01*
X93825500Y-72068995D01*
X93825500Y-71016518D01*
X93845185Y-70949479D01*
X93861814Y-70928841D01*
X93944114Y-70846542D01*
X94020775Y-70731811D01*
X94073580Y-70604328D01*
X94085558Y-70544111D01*
X94100500Y-70468995D01*
X94100500Y-70331004D01*
X94073581Y-70195677D01*
X94073580Y-70195676D01*
X94073580Y-70195672D01*
X94064810Y-70174500D01*
X94020778Y-70068195D01*
X94020771Y-70068182D01*
X93944114Y-69953458D01*
X93944111Y-69953454D01*
X93846545Y-69855888D01*
X93846541Y-69855885D01*
X93731817Y-69779228D01*
X93731804Y-69779221D01*
X93604332Y-69726421D01*
X93604322Y-69726418D01*
X93468995Y-69699500D01*
X93468993Y-69699500D01*
X93331007Y-69699500D01*
X93331005Y-69699500D01*
X93195677Y-69726418D01*
X93195667Y-69726421D01*
X93068195Y-69779221D01*
X93068182Y-69779228D01*
X92953458Y-69855885D01*
X92953454Y-69855888D01*
X92855888Y-69953454D01*
X92855885Y-69953458D01*
X92779228Y-70068182D01*
X92779221Y-70068195D01*
X92726421Y-70195667D01*
X92726418Y-70195677D01*
X92699500Y-70331004D01*
X92699500Y-70331007D01*
X92699500Y-70468993D01*
X92699500Y-70468995D01*
X92699499Y-70468995D01*
X88864955Y-70468995D01*
X88857687Y-70449862D01*
X88844853Y-70426358D01*
X88845471Y-70417702D01*
X88842390Y-70409589D01*
X88847926Y-70383382D01*
X88849837Y-70356666D01*
X88855417Y-70347925D01*
X88856832Y-70341228D01*
X88877005Y-70314109D01*
X88877812Y-70312847D01*
X88878059Y-70312596D01*
X88944114Y-70246542D01*
X89020775Y-70131811D01*
X89073580Y-70004328D01*
X89085558Y-69944111D01*
X89100500Y-69868995D01*
X89100500Y-69731004D01*
X89073581Y-69595677D01*
X89073580Y-69595676D01*
X89073580Y-69595672D01*
X89066769Y-69579228D01*
X89020778Y-69468195D01*
X89020771Y-69468182D01*
X88944114Y-69353458D01*
X88944111Y-69353454D01*
X88846545Y-69255888D01*
X88846541Y-69255885D01*
X88731817Y-69179228D01*
X88731804Y-69179221D01*
X88604332Y-69126421D01*
X88604322Y-69126418D01*
X88468995Y-69099500D01*
X88468993Y-69099500D01*
X88331007Y-69099500D01*
X88331005Y-69099500D01*
X88195677Y-69126418D01*
X88195667Y-69126421D01*
X88068195Y-69179221D01*
X88068182Y-69179228D01*
X87953458Y-69255885D01*
X87953454Y-69255888D01*
X87855888Y-69353454D01*
X87855885Y-69353458D01*
X87779228Y-69468182D01*
X87779221Y-69468195D01*
X87726421Y-69595667D01*
X87726418Y-69595677D01*
X87702439Y-69716229D01*
X87670054Y-69778140D01*
X87641774Y-69797655D01*
X87642801Y-69799433D01*
X87538740Y-69859512D01*
X87538734Y-69859517D01*
X85859517Y-71538734D01*
X85859513Y-71538740D01*
X85803498Y-71635760D01*
X85803497Y-71635763D01*
X85774500Y-71743982D01*
X62334638Y-71743982D01*
X62258686Y-71668030D01*
X62255773Y-71664667D01*
X62243034Y-71636761D01*
X62228334Y-71609839D01*
X62227591Y-71602928D01*
X62226759Y-71601106D01*
X62227123Y-71598576D01*
X62225500Y-71583481D01*
X62225500Y-70216518D01*
X62245185Y-70149479D01*
X62261814Y-70128841D01*
X62344114Y-70046542D01*
X62420775Y-69931811D01*
X62473580Y-69804328D01*
X62485558Y-69744111D01*
X62500500Y-69668995D01*
X62500500Y-69531004D01*
X62488165Y-69468995D01*
X84699499Y-69468995D01*
X84726418Y-69604322D01*
X84726421Y-69604332D01*
X84779221Y-69731804D01*
X84779228Y-69731817D01*
X84855885Y-69846541D01*
X84855888Y-69846545D01*
X84953454Y-69944111D01*
X84953458Y-69944114D01*
X85068182Y-70020771D01*
X85068195Y-70020778D01*
X85182640Y-70068182D01*
X85195672Y-70073580D01*
X85195676Y-70073580D01*
X85195677Y-70073581D01*
X85331004Y-70100500D01*
X85331007Y-70100500D01*
X85468995Y-70100500D01*
X85560041Y-70082389D01*
X85604328Y-70073580D01*
X85731811Y-70020775D01*
X85846542Y-69944114D01*
X85944114Y-69846542D01*
X86020775Y-69731811D01*
X86073580Y-69604328D01*
X86086738Y-69538181D01*
X86100500Y-69468995D01*
X86100500Y-69352609D01*
X86120185Y-69285570D01*
X86136819Y-69264928D01*
X86664928Y-68736819D01*
X86726251Y-68703334D01*
X86752609Y-68700500D01*
X86868995Y-68700500D01*
X86960041Y-68682389D01*
X87004328Y-68673580D01*
X87131811Y-68620775D01*
X87246542Y-68544114D01*
X87344114Y-68446542D01*
X87420775Y-68331811D01*
X87473580Y-68204328D01*
X87487356Y-68135070D01*
X87500500Y-68068995D01*
X87500500Y-67931004D01*
X87473581Y-67795677D01*
X87473580Y-67795676D01*
X87473580Y-67795672D01*
X87473578Y-67795667D01*
X87421109Y-67668995D01*
X89299499Y-67668995D01*
X89326418Y-67804322D01*
X89326421Y-67804332D01*
X89379221Y-67931804D01*
X89379228Y-67931817D01*
X89455884Y-68046540D01*
X89455885Y-68046541D01*
X89455886Y-68046542D01*
X89538182Y-68128838D01*
X89571666Y-68190159D01*
X89574500Y-68216518D01*
X89574500Y-68583481D01*
X89554815Y-68650520D01*
X89538181Y-68671162D01*
X89455888Y-68753454D01*
X89455885Y-68753458D01*
X89379228Y-68868182D01*
X89379221Y-68868195D01*
X89326421Y-68995667D01*
X89326418Y-68995677D01*
X89299500Y-69131004D01*
X89299500Y-69131007D01*
X89299500Y-69268993D01*
X89299500Y-69268995D01*
X89299499Y-69268995D01*
X89326418Y-69404322D01*
X89326421Y-69404332D01*
X89379221Y-69531804D01*
X89379228Y-69531817D01*
X89455885Y-69646541D01*
X89455888Y-69646545D01*
X89553454Y-69744111D01*
X89553458Y-69744114D01*
X89668182Y-69820771D01*
X89668195Y-69820778D01*
X89782640Y-69868182D01*
X89795672Y-69873580D01*
X89795676Y-69873580D01*
X89795677Y-69873581D01*
X89931004Y-69900500D01*
X89931007Y-69900500D01*
X90068995Y-69900500D01*
X90160041Y-69882389D01*
X90204328Y-69873580D01*
X90331811Y-69820775D01*
X90446542Y-69744114D01*
X90544114Y-69646542D01*
X90620775Y-69531811D01*
X90673580Y-69404328D01*
X90689077Y-69326420D01*
X90700500Y-69268995D01*
X90700500Y-69131004D01*
X90673581Y-68995677D01*
X90673580Y-68995676D01*
X90673580Y-68995672D01*
X90666769Y-68979228D01*
X90620778Y-68868195D01*
X90620771Y-68868182D01*
X90544114Y-68753458D01*
X90544111Y-68753454D01*
X90461819Y-68671162D01*
X90428334Y-68609839D01*
X90425500Y-68583481D01*
X90425500Y-68216518D01*
X90445185Y-68149479D01*
X90461814Y-68128841D01*
X90544114Y-68046542D01*
X90620775Y-67931811D01*
X90673580Y-67804328D01*
X90685558Y-67744111D01*
X90700500Y-67668995D01*
X90700500Y-67531004D01*
X90673581Y-67395677D01*
X90673580Y-67395676D01*
X90673580Y-67395672D01*
X90671647Y-67391006D01*
X90621109Y-67268995D01*
X94699499Y-67268995D01*
X94726418Y-67404322D01*
X94726421Y-67404332D01*
X94779221Y-67531804D01*
X94779228Y-67531817D01*
X94855884Y-67646540D01*
X94855885Y-67646541D01*
X94855886Y-67646542D01*
X94938182Y-67728838D01*
X94971666Y-67790159D01*
X94974500Y-67816518D01*
X94974500Y-69383481D01*
X94954815Y-69450520D01*
X94938181Y-69471162D01*
X94855888Y-69553454D01*
X94855885Y-69553458D01*
X94779228Y-69668182D01*
X94779221Y-69668195D01*
X94726421Y-69795667D01*
X94726418Y-69795677D01*
X94699500Y-69931004D01*
X94699500Y-69931007D01*
X94699500Y-70068993D01*
X94699500Y-70068995D01*
X94699499Y-70068995D01*
X94726418Y-70204322D01*
X94726421Y-70204332D01*
X94779221Y-70331804D01*
X94779228Y-70331817D01*
X94855885Y-70446541D01*
X94855888Y-70446545D01*
X94953454Y-70544111D01*
X94953458Y-70544114D01*
X95068182Y-70620771D01*
X95068195Y-70620778D01*
X95182640Y-70668182D01*
X95195672Y-70673580D01*
X95195676Y-70673580D01*
X95195677Y-70673581D01*
X95331004Y-70700500D01*
X95331007Y-70700500D01*
X95468995Y-70700500D01*
X95560041Y-70682389D01*
X95604328Y-70673580D01*
X95702924Y-70632740D01*
X95731804Y-70620778D01*
X95731804Y-70620777D01*
X95731811Y-70620775D01*
X95846542Y-70544114D01*
X95944114Y-70446542D01*
X96020775Y-70331811D01*
X96073580Y-70204328D01*
X96086738Y-70138181D01*
X96100500Y-70068995D01*
X96100500Y-69931004D01*
X96073581Y-69795677D01*
X96073580Y-69795676D01*
X96073580Y-69795672D01*
X96066769Y-69779228D01*
X96020778Y-69668195D01*
X96020771Y-69668182D01*
X95944114Y-69553458D01*
X95944111Y-69553454D01*
X95861819Y-69471162D01*
X95828334Y-69409839D01*
X95825500Y-69383481D01*
X95825500Y-68468995D01*
X101499499Y-68468995D01*
X101526418Y-68604322D01*
X101526421Y-68604332D01*
X101579221Y-68731804D01*
X101579228Y-68731817D01*
X101655885Y-68846541D01*
X101655888Y-68846545D01*
X101753454Y-68944111D01*
X101753458Y-68944114D01*
X101868182Y-69020771D01*
X101868195Y-69020778D01*
X101978915Y-69066639D01*
X101995672Y-69073580D01*
X101995676Y-69073580D01*
X101995677Y-69073581D01*
X102019816Y-69078383D01*
X102081727Y-69110768D01*
X102116301Y-69171484D01*
X102112561Y-69241254D01*
X102071694Y-69297925D01*
X102019816Y-69321617D01*
X101995677Y-69326418D01*
X101995667Y-69326421D01*
X101868195Y-69379221D01*
X101868182Y-69379228D01*
X101753458Y-69455885D01*
X101753454Y-69455888D01*
X101655888Y-69553454D01*
X101655885Y-69553458D01*
X101579228Y-69668182D01*
X101579221Y-69668195D01*
X101526421Y-69795667D01*
X101526418Y-69795677D01*
X101499500Y-69931004D01*
X101499500Y-69931007D01*
X101499500Y-70068993D01*
X101499500Y-70068995D01*
X101499499Y-70068995D01*
X101526418Y-70204322D01*
X101526421Y-70204332D01*
X101579221Y-70331804D01*
X101579228Y-70331817D01*
X101655885Y-70446541D01*
X101655888Y-70446545D01*
X101721662Y-70512319D01*
X101755147Y-70573642D01*
X101750163Y-70643334D01*
X101721662Y-70687681D01*
X101655888Y-70753454D01*
X101655885Y-70753458D01*
X101579228Y-70868182D01*
X101579221Y-70868195D01*
X101526421Y-70995667D01*
X101526418Y-70995677D01*
X101499500Y-71131004D01*
X101499500Y-71131007D01*
X101499500Y-71268993D01*
X101499500Y-71268995D01*
X101499499Y-71268995D01*
X101526418Y-71404322D01*
X101526421Y-71404332D01*
X101579221Y-71531804D01*
X101579228Y-71531817D01*
X101655885Y-71646541D01*
X101655888Y-71646545D01*
X101721662Y-71712319D01*
X101755147Y-71773642D01*
X101750163Y-71843334D01*
X101721662Y-71887681D01*
X101655888Y-71953454D01*
X101655885Y-71953458D01*
X101579228Y-72068182D01*
X101579221Y-72068195D01*
X101526421Y-72195667D01*
X101526418Y-72195677D01*
X101499500Y-72331004D01*
X101499500Y-72331007D01*
X101499500Y-72468993D01*
X101499500Y-72468995D01*
X101499499Y-72468995D01*
X101526418Y-72604322D01*
X101526421Y-72604332D01*
X101579221Y-72731804D01*
X101579228Y-72731817D01*
X101655885Y-72846541D01*
X101655888Y-72846545D01*
X101753454Y-72944111D01*
X101753458Y-72944114D01*
X101868182Y-73020771D01*
X101868195Y-73020778D01*
X101953273Y-73056018D01*
X101995672Y-73073580D01*
X101995676Y-73073580D01*
X101995677Y-73073581D01*
X102131004Y-73100500D01*
X102131007Y-73100500D01*
X102268995Y-73100500D01*
X102360041Y-73082389D01*
X102404328Y-73073580D01*
X102531811Y-73020775D01*
X102646542Y-72944114D01*
X102659652Y-72931004D01*
X102728838Y-72861819D01*
X102790161Y-72828334D01*
X102816519Y-72825500D01*
X103583481Y-72825500D01*
X103650520Y-72845185D01*
X103671162Y-72861819D01*
X103753454Y-72944111D01*
X103753458Y-72944114D01*
X103868182Y-73020771D01*
X103868195Y-73020778D01*
X103953273Y-73056018D01*
X103995672Y-73073580D01*
X103995676Y-73073580D01*
X103995677Y-73073581D01*
X104131004Y-73100500D01*
X104131007Y-73100500D01*
X104268995Y-73100500D01*
X104360041Y-73082389D01*
X104404328Y-73073580D01*
X104531811Y-73020775D01*
X104646542Y-72944114D01*
X104744114Y-72846542D01*
X104820775Y-72731811D01*
X104873580Y-72604328D01*
X104885558Y-72544111D01*
X104900500Y-72468995D01*
X104900500Y-72331004D01*
X104873581Y-72195677D01*
X104873580Y-72195676D01*
X104873580Y-72195672D01*
X104837678Y-72108996D01*
X104820778Y-72068195D01*
X104820771Y-72068182D01*
X104744114Y-71953458D01*
X104744111Y-71953454D01*
X104678338Y-71887681D01*
X104644853Y-71826358D01*
X104649837Y-71756666D01*
X104678338Y-71712319D01*
X104744111Y-71646545D01*
X104744114Y-71646542D01*
X104820775Y-71531811D01*
X104873580Y-71404328D01*
X104882389Y-71360041D01*
X104900500Y-71268995D01*
X104900500Y-71131004D01*
X104873581Y-70995677D01*
X104873580Y-70995676D01*
X104873580Y-70995672D01*
X104873578Y-70995667D01*
X104820778Y-70868195D01*
X104820771Y-70868182D01*
X104744114Y-70753458D01*
X104744111Y-70753454D01*
X104678338Y-70687681D01*
X104644853Y-70626358D01*
X104649837Y-70556666D01*
X104678338Y-70512319D01*
X104744111Y-70446545D01*
X104744114Y-70446542D01*
X104820775Y-70331811D01*
X104873580Y-70204328D01*
X104886738Y-70138181D01*
X104900500Y-70068995D01*
X104900500Y-69931004D01*
X104873581Y-69795677D01*
X104873580Y-69795676D01*
X104873580Y-69795672D01*
X104866769Y-69779228D01*
X104820778Y-69668195D01*
X104820771Y-69668182D01*
X104744114Y-69553458D01*
X104744111Y-69553454D01*
X104646545Y-69455888D01*
X104646541Y-69455885D01*
X104531817Y-69379228D01*
X104531804Y-69379221D01*
X104404332Y-69326421D01*
X104404320Y-69326418D01*
X104380184Y-69321617D01*
X104318273Y-69289232D01*
X104283699Y-69228517D01*
X104287438Y-69158747D01*
X104328304Y-69102075D01*
X104380184Y-69078383D01*
X104390277Y-69076374D01*
X104404328Y-69073580D01*
X104531811Y-69020775D01*
X104646542Y-68944114D01*
X104744114Y-68846542D01*
X104820775Y-68731811D01*
X104873580Y-68604328D01*
X104900500Y-68468993D01*
X104900500Y-68331007D01*
X104900500Y-68331004D01*
X104873581Y-68195677D01*
X104873580Y-68195676D01*
X104873580Y-68195672D01*
X104873578Y-68195667D01*
X104820778Y-68068195D01*
X104820771Y-68068182D01*
X104744114Y-67953458D01*
X104744111Y-67953454D01*
X104646545Y-67855888D01*
X104646541Y-67855885D01*
X104531817Y-67779228D01*
X104531804Y-67779221D01*
X104404332Y-67726421D01*
X104404322Y-67726418D01*
X104268995Y-67699500D01*
X104268993Y-67699500D01*
X104131007Y-67699500D01*
X104131005Y-67699500D01*
X103995677Y-67726418D01*
X103995667Y-67726421D01*
X103868195Y-67779221D01*
X103868182Y-67779228D01*
X103753458Y-67855885D01*
X103753454Y-67855888D01*
X103671162Y-67938181D01*
X103609839Y-67971666D01*
X103583481Y-67974500D01*
X102816519Y-67974500D01*
X102749480Y-67954815D01*
X102728838Y-67938181D01*
X102646545Y-67855888D01*
X102646541Y-67855885D01*
X102531817Y-67779228D01*
X102531804Y-67779221D01*
X102404332Y-67726421D01*
X102404322Y-67726418D01*
X102268995Y-67699500D01*
X102268993Y-67699500D01*
X102131007Y-67699500D01*
X102131005Y-67699500D01*
X101995677Y-67726418D01*
X101995667Y-67726421D01*
X101868195Y-67779221D01*
X101868182Y-67779228D01*
X101753458Y-67855885D01*
X101753454Y-67855888D01*
X101655888Y-67953454D01*
X101655885Y-67953458D01*
X101579228Y-68068182D01*
X101579221Y-68068195D01*
X101526421Y-68195667D01*
X101526418Y-68195677D01*
X101499500Y-68331004D01*
X101499500Y-68331007D01*
X101499500Y-68468993D01*
X101499500Y-68468995D01*
X101499499Y-68468995D01*
X95825500Y-68468995D01*
X95825500Y-67816518D01*
X95845185Y-67749479D01*
X95861814Y-67728841D01*
X95944114Y-67646542D01*
X96020775Y-67531811D01*
X96073580Y-67404328D01*
X96082389Y-67360041D01*
X96100500Y-67268995D01*
X96100500Y-67131004D01*
X96073581Y-66995677D01*
X96073580Y-66995676D01*
X96073580Y-66995672D01*
X96066769Y-66979228D01*
X96020778Y-66868195D01*
X96020771Y-66868182D01*
X95944114Y-66753458D01*
X95944111Y-66753454D01*
X95846545Y-66655888D01*
X95846541Y-66655885D01*
X95731817Y-66579228D01*
X95731804Y-66579221D01*
X95604332Y-66526421D01*
X95604322Y-66526418D01*
X95468995Y-66499500D01*
X95468993Y-66499500D01*
X95331007Y-66499500D01*
X95331005Y-66499500D01*
X95195677Y-66526418D01*
X95195667Y-66526421D01*
X95068195Y-66579221D01*
X95068182Y-66579228D01*
X94953458Y-66655885D01*
X94953454Y-66655888D01*
X94855888Y-66753454D01*
X94855885Y-66753458D01*
X94779228Y-66868182D01*
X94779221Y-66868195D01*
X94726421Y-66995667D01*
X94726418Y-66995677D01*
X94699500Y-67131004D01*
X94699500Y-67131007D01*
X94699500Y-67268993D01*
X94699500Y-67268995D01*
X94699499Y-67268995D01*
X90621109Y-67268995D01*
X90620778Y-67268195D01*
X90620771Y-67268182D01*
X90571074Y-67193806D01*
X90544114Y-67153458D01*
X90544111Y-67153454D01*
X90446545Y-67055888D01*
X90446541Y-67055885D01*
X90331817Y-66979228D01*
X90331804Y-66979221D01*
X90204332Y-66926421D01*
X90204322Y-66926418D01*
X90068995Y-66899500D01*
X90068993Y-66899500D01*
X89931007Y-66899500D01*
X89931005Y-66899500D01*
X89795677Y-66926418D01*
X89795667Y-66926421D01*
X89668195Y-66979221D01*
X89668182Y-66979228D01*
X89553458Y-67055885D01*
X89553454Y-67055888D01*
X89455888Y-67153454D01*
X89455885Y-67153458D01*
X89379228Y-67268182D01*
X89379221Y-67268195D01*
X89326421Y-67395667D01*
X89326418Y-67395677D01*
X89299500Y-67531004D01*
X89299500Y-67531007D01*
X89299500Y-67668993D01*
X89299500Y-67668995D01*
X89299499Y-67668995D01*
X87421109Y-67668995D01*
X87420778Y-67668195D01*
X87420771Y-67668182D01*
X87371074Y-67593806D01*
X87344114Y-67553458D01*
X87344111Y-67553454D01*
X87246545Y-67455888D01*
X87246541Y-67455885D01*
X87131817Y-67379228D01*
X87131804Y-67379221D01*
X87004332Y-67326421D01*
X87004322Y-67326418D01*
X86868995Y-67299500D01*
X86868993Y-67299500D01*
X86731007Y-67299500D01*
X86731005Y-67299500D01*
X86595677Y-67326418D01*
X86595667Y-67326421D01*
X86468195Y-67379221D01*
X86468182Y-67379228D01*
X86353458Y-67455885D01*
X86353454Y-67455888D01*
X86255888Y-67553454D01*
X86255885Y-67553458D01*
X86179228Y-67668182D01*
X86179221Y-67668195D01*
X86126421Y-67795667D01*
X86126418Y-67795677D01*
X86099500Y-67931004D01*
X86099500Y-68047389D01*
X86079815Y-68114428D01*
X86063181Y-68135070D01*
X85535070Y-68663181D01*
X85473747Y-68696666D01*
X85447389Y-68699500D01*
X85331005Y-68699500D01*
X85195677Y-68726418D01*
X85195667Y-68726421D01*
X85068195Y-68779221D01*
X85068182Y-68779228D01*
X84953458Y-68855885D01*
X84953454Y-68855888D01*
X84855888Y-68953454D01*
X84855885Y-68953458D01*
X84779228Y-69068182D01*
X84779221Y-69068195D01*
X84726421Y-69195667D01*
X84726418Y-69195677D01*
X84699500Y-69331004D01*
X84699500Y-69331007D01*
X84699500Y-69468993D01*
X84699500Y-69468995D01*
X84699499Y-69468995D01*
X62488165Y-69468995D01*
X62473581Y-69395677D01*
X62473580Y-69395676D01*
X62473580Y-69395672D01*
X62442906Y-69321617D01*
X62420778Y-69268195D01*
X62420771Y-69268182D01*
X62344114Y-69153458D01*
X62344111Y-69153454D01*
X62246545Y-69055888D01*
X62246541Y-69055885D01*
X62131817Y-68979228D01*
X62131804Y-68979221D01*
X62004332Y-68926421D01*
X62004322Y-68926418D01*
X61868995Y-68899500D01*
X61868993Y-68899500D01*
X61731007Y-68899500D01*
X61731005Y-68899500D01*
X61595677Y-68926418D01*
X61595667Y-68926421D01*
X61468195Y-68979221D01*
X61468182Y-68979228D01*
X61353458Y-69055885D01*
X61353454Y-69055888D01*
X61255888Y-69153454D01*
X61255885Y-69153458D01*
X61179228Y-69268182D01*
X61179221Y-69268195D01*
X61126421Y-69395667D01*
X61126418Y-69395677D01*
X61099500Y-69531004D01*
X61099500Y-69531007D01*
X61099500Y-69668993D01*
X61099500Y-69668995D01*
X61099499Y-69668995D01*
X61126418Y-69804322D01*
X61126419Y-69804326D01*
X61126420Y-69804328D01*
X61137797Y-69831795D01*
X61144631Y-69848294D01*
X61152099Y-69917763D01*
X61120823Y-69980242D01*
X61060734Y-70015894D01*
X60990908Y-70013399D01*
X60961178Y-69998847D01*
X60931816Y-69979228D01*
X60931804Y-69979221D01*
X60804332Y-69926421D01*
X60804322Y-69926418D01*
X60668995Y-69899500D01*
X60668993Y-69899500D01*
X60531007Y-69899500D01*
X60531005Y-69899500D01*
X60395677Y-69926418D01*
X60395667Y-69926421D01*
X60268195Y-69979221D01*
X60268182Y-69979228D01*
X60153458Y-70055885D01*
X60153454Y-70055888D01*
X60071162Y-70138181D01*
X60009839Y-70171666D01*
X59983481Y-70174500D01*
X59216519Y-70174500D01*
X59149480Y-70154815D01*
X59128838Y-70138181D01*
X59046545Y-70055888D01*
X59046541Y-70055885D01*
X58931817Y-69979228D01*
X58931804Y-69979221D01*
X58804332Y-69926421D01*
X58804322Y-69926418D01*
X58668995Y-69899500D01*
X58668993Y-69899500D01*
X58531007Y-69899500D01*
X58531005Y-69899500D01*
X58395677Y-69926418D01*
X58395667Y-69926421D01*
X58268195Y-69979221D01*
X58268182Y-69979228D01*
X58153458Y-70055885D01*
X58153454Y-70055888D01*
X58055888Y-70153454D01*
X58055885Y-70153458D01*
X57979228Y-70268182D01*
X57979221Y-70268195D01*
X57926421Y-70395667D01*
X57926418Y-70395677D01*
X57899500Y-70531004D01*
X57899500Y-70531007D01*
X57899500Y-70668993D01*
X57899500Y-70668995D01*
X57899499Y-70668995D01*
X50470743Y-70668995D01*
X50136819Y-70335071D01*
X50103334Y-70273748D01*
X50100500Y-70247390D01*
X50100500Y-70131004D01*
X50073581Y-69995677D01*
X50073580Y-69995676D01*
X50073580Y-69995672D01*
X50066769Y-69979228D01*
X50020778Y-69868195D01*
X50020771Y-69868182D01*
X49944114Y-69753458D01*
X49944111Y-69753454D01*
X49846545Y-69655888D01*
X49846541Y-69655885D01*
X49731817Y-69579228D01*
X49731804Y-69579221D01*
X49604332Y-69526421D01*
X49604322Y-69526418D01*
X49468995Y-69499500D01*
X49468993Y-69499500D01*
X49331007Y-69499500D01*
X49331005Y-69499500D01*
X49195677Y-69526418D01*
X49195667Y-69526421D01*
X49068195Y-69579221D01*
X49068182Y-69579228D01*
X48953458Y-69655885D01*
X48953454Y-69655888D01*
X48855888Y-69753454D01*
X48855885Y-69753458D01*
X48779228Y-69868182D01*
X48779221Y-69868195D01*
X48726421Y-69995667D01*
X48726418Y-69995677D01*
X48699500Y-70131004D01*
X48699500Y-70131007D01*
X48699500Y-70268993D01*
X48699500Y-70268995D01*
X48699499Y-70268995D01*
X30400000Y-70268995D01*
X30400000Y-66668995D01*
X42699499Y-66668995D01*
X42726418Y-66804322D01*
X42726421Y-66804332D01*
X42779221Y-66931804D01*
X42779228Y-66931817D01*
X42855885Y-67046541D01*
X42855888Y-67046545D01*
X42953454Y-67144111D01*
X42953458Y-67144114D01*
X43068182Y-67220771D01*
X43068195Y-67220778D01*
X43145574Y-67252829D01*
X43195672Y-67273580D01*
X43195676Y-67273580D01*
X43195677Y-67273581D01*
X43331004Y-67300500D01*
X43447390Y-67300500D01*
X43514429Y-67320185D01*
X43535071Y-67336819D01*
X44463181Y-68264929D01*
X44496666Y-68326252D01*
X44499500Y-68352610D01*
X44499500Y-68468993D01*
X44499500Y-68468995D01*
X44499499Y-68468995D01*
X44526418Y-68604322D01*
X44526421Y-68604332D01*
X44579221Y-68731804D01*
X44579228Y-68731817D01*
X44655885Y-68846541D01*
X44655888Y-68846545D01*
X44753454Y-68944111D01*
X44753458Y-68944114D01*
X44868182Y-69020771D01*
X44868195Y-69020778D01*
X44978915Y-69066639D01*
X44995672Y-69073580D01*
X44995676Y-69073580D01*
X44995677Y-69073581D01*
X45131004Y-69100500D01*
X45131007Y-69100500D01*
X45268995Y-69100500D01*
X45360041Y-69082389D01*
X45404328Y-69073580D01*
X45531811Y-69020775D01*
X45646542Y-68944114D01*
X45744114Y-68846542D01*
X45820775Y-68731811D01*
X45873580Y-68604328D01*
X45900500Y-68468993D01*
X45900500Y-68331007D01*
X45900500Y-68331004D01*
X45873581Y-68195677D01*
X45873580Y-68195676D01*
X45873580Y-68195672D01*
X45873578Y-68195667D01*
X45820778Y-68068195D01*
X45820771Y-68068182D01*
X45744114Y-67953458D01*
X45744111Y-67953454D01*
X45646545Y-67855888D01*
X45646541Y-67855885D01*
X45531817Y-67779228D01*
X45531804Y-67779221D01*
X45404332Y-67726421D01*
X45404322Y-67726418D01*
X45268995Y-67699500D01*
X45268993Y-67699500D01*
X45152610Y-67699500D01*
X45085571Y-67679815D01*
X45064929Y-67663181D01*
X44136819Y-66735071D01*
X44103334Y-66673748D01*
X44100500Y-66647390D01*
X44100500Y-66531004D01*
X44073581Y-66395677D01*
X44073580Y-66395676D01*
X44073580Y-66395672D01*
X44066769Y-66379228D01*
X44020778Y-66268195D01*
X44020771Y-66268182D01*
X43944114Y-66153458D01*
X43944111Y-66153454D01*
X43846545Y-66055888D01*
X43846541Y-66055885D01*
X43731817Y-65979228D01*
X43731804Y-65979221D01*
X43604332Y-65926421D01*
X43604322Y-65926418D01*
X43468995Y-65899500D01*
X43468993Y-65899500D01*
X43331007Y-65899500D01*
X43331005Y-65899500D01*
X43195677Y-65926418D01*
X43195667Y-65926421D01*
X43068195Y-65979221D01*
X43068182Y-65979228D01*
X42953458Y-66055885D01*
X42953454Y-66055888D01*
X42855888Y-66153454D01*
X42855885Y-66153458D01*
X42779228Y-66268182D01*
X42779221Y-66268195D01*
X42726421Y-66395667D01*
X42726418Y-66395677D01*
X42699500Y-66531004D01*
X42699500Y-66531007D01*
X42699500Y-66668993D01*
X42699500Y-66668995D01*
X42699499Y-66668995D01*
X30400000Y-66668995D01*
X30400000Y-65868995D01*
X44699499Y-65868995D01*
X44726418Y-66004322D01*
X44726421Y-66004332D01*
X44779221Y-66131804D01*
X44779228Y-66131817D01*
X44855885Y-66246541D01*
X44855888Y-66246545D01*
X44953454Y-66344111D01*
X44953458Y-66344114D01*
X45068182Y-66420771D01*
X45068195Y-66420778D01*
X45195667Y-66473578D01*
X45195672Y-66473580D01*
X45195676Y-66473580D01*
X45195677Y-66473581D01*
X45331004Y-66500500D01*
X45447390Y-66500500D01*
X45514429Y-66520185D01*
X45535071Y-66536819D01*
X45863181Y-66864928D01*
X45896666Y-66926251D01*
X45899500Y-66952609D01*
X45899500Y-67068993D01*
X45899500Y-67068995D01*
X45899499Y-67068995D01*
X45926418Y-67204322D01*
X45926421Y-67204332D01*
X45979221Y-67331804D01*
X45979228Y-67331817D01*
X46055885Y-67446541D01*
X46055888Y-67446545D01*
X46153454Y-67544111D01*
X46153458Y-67544114D01*
X46268182Y-67620771D01*
X46268195Y-67620778D01*
X46382640Y-67668182D01*
X46395672Y-67673580D01*
X46395676Y-67673580D01*
X46395677Y-67673581D01*
X46531004Y-67700500D01*
X46531007Y-67700500D01*
X46668995Y-67700500D01*
X46760041Y-67682389D01*
X46804328Y-67673580D01*
X46931811Y-67620775D01*
X47046542Y-67544114D01*
X47144114Y-67446542D01*
X47220775Y-67331811D01*
X47246794Y-67268995D01*
X53099499Y-67268995D01*
X53126418Y-67404322D01*
X53126421Y-67404332D01*
X53179221Y-67531804D01*
X53179228Y-67531817D01*
X53255885Y-67646541D01*
X53255888Y-67646545D01*
X53353454Y-67744111D01*
X53353458Y-67744114D01*
X53468182Y-67820771D01*
X53468195Y-67820778D01*
X53595667Y-67873578D01*
X53595672Y-67873580D01*
X53595676Y-67873580D01*
X53595677Y-67873581D01*
X53731004Y-67900500D01*
X53731007Y-67900500D01*
X53868995Y-67900500D01*
X53960041Y-67882389D01*
X54004328Y-67873580D01*
X54131811Y-67820775D01*
X54246542Y-67744114D01*
X54286219Y-67704437D01*
X54328838Y-67661819D01*
X54390161Y-67628334D01*
X54416519Y-67625500D01*
X55183481Y-67625500D01*
X55250520Y-67645185D01*
X55271162Y-67661819D01*
X55353454Y-67744111D01*
X55353458Y-67744114D01*
X55468182Y-67820771D01*
X55468195Y-67820778D01*
X55595667Y-67873578D01*
X55595672Y-67873580D01*
X55595676Y-67873580D01*
X55595677Y-67873581D01*
X55731004Y-67900500D01*
X55731007Y-67900500D01*
X55868995Y-67900500D01*
X55960041Y-67882389D01*
X56004328Y-67873580D01*
X56131811Y-67820775D01*
X56246542Y-67744114D01*
X56344114Y-67646542D01*
X56420775Y-67531811D01*
X56473580Y-67404328D01*
X56482389Y-67360041D01*
X56500500Y-67268995D01*
X56500500Y-67131004D01*
X56473581Y-66995677D01*
X56473580Y-66995676D01*
X56473580Y-66995672D01*
X56466769Y-66979228D01*
X56420778Y-66868195D01*
X56420771Y-66868182D01*
X56344114Y-66753458D01*
X56344111Y-66753454D01*
X56246545Y-66655888D01*
X56246541Y-66655885D01*
X56131817Y-66579228D01*
X56131804Y-66579221D01*
X56004332Y-66526421D01*
X56004322Y-66526418D01*
X55868995Y-66499500D01*
X55868993Y-66499500D01*
X55731007Y-66499500D01*
X55731005Y-66499500D01*
X55595677Y-66526418D01*
X55595667Y-66526421D01*
X55468195Y-66579221D01*
X55468182Y-66579228D01*
X55353458Y-66655885D01*
X55353454Y-66655888D01*
X55271162Y-66738181D01*
X55209839Y-66771666D01*
X55183481Y-66774500D01*
X54416519Y-66774500D01*
X54349480Y-66754815D01*
X54328838Y-66738181D01*
X54246545Y-66655888D01*
X54246541Y-66655885D01*
X54131817Y-66579228D01*
X54131804Y-66579221D01*
X54004332Y-66526421D01*
X54004322Y-66526418D01*
X53868995Y-66499500D01*
X53868993Y-66499500D01*
X53731007Y-66499500D01*
X53731005Y-66499500D01*
X53595677Y-66526418D01*
X53595667Y-66526421D01*
X53468195Y-66579221D01*
X53468182Y-66579228D01*
X53353458Y-66655885D01*
X53353454Y-66655888D01*
X53255888Y-66753454D01*
X53255885Y-66753458D01*
X53179228Y-66868182D01*
X53179221Y-66868195D01*
X53126421Y-66995667D01*
X53126418Y-66995677D01*
X53099500Y-67131004D01*
X53099500Y-67131007D01*
X53099500Y-67268993D01*
X53099500Y-67268995D01*
X53099499Y-67268995D01*
X47246794Y-67268995D01*
X47273580Y-67204328D01*
X47283700Y-67153454D01*
X47294189Y-67100723D01*
X47294189Y-67100722D01*
X47298113Y-67080990D01*
X47300500Y-67068993D01*
X47300500Y-66931007D01*
X47300500Y-66931004D01*
X47273581Y-66795677D01*
X47273580Y-66795676D01*
X47273580Y-66795672D01*
X47264810Y-66774500D01*
X47220778Y-66668195D01*
X47220771Y-66668182D01*
X47144114Y-66553458D01*
X47144111Y-66553454D01*
X47046545Y-66455888D01*
X47046541Y-66455885D01*
X46931817Y-66379228D01*
X46931804Y-66379221D01*
X46804332Y-66326421D01*
X46804322Y-66326418D01*
X46668995Y-66299500D01*
X46668993Y-66299500D01*
X46552609Y-66299500D01*
X46523168Y-66290855D01*
X46493182Y-66284332D01*
X46488166Y-66280577D01*
X46485570Y-66279815D01*
X46472143Y-66268995D01*
X57899499Y-66268995D01*
X57926418Y-66404322D01*
X57926421Y-66404332D01*
X57979221Y-66531804D01*
X57979228Y-66531817D01*
X58055885Y-66646541D01*
X58055888Y-66646545D01*
X58153454Y-66744111D01*
X58153458Y-66744114D01*
X58268182Y-66820771D01*
X58268195Y-66820778D01*
X58374784Y-66864928D01*
X58395672Y-66873580D01*
X58395676Y-66873580D01*
X58395677Y-66873581D01*
X58531004Y-66900500D01*
X58531007Y-66900500D01*
X58668995Y-66900500D01*
X58760041Y-66882389D01*
X58804328Y-66873580D01*
X58931811Y-66820775D01*
X59046542Y-66744114D01*
X59144114Y-66646542D01*
X59220775Y-66531811D01*
X59273580Y-66404328D01*
X59290919Y-66317156D01*
X59323301Y-66255249D01*
X59324796Y-66253727D01*
X59853671Y-65724852D01*
X59914992Y-65691369D01*
X59917012Y-65690947D01*
X60004328Y-65673580D01*
X60015397Y-65668995D01*
X61099499Y-65668995D01*
X61126418Y-65804322D01*
X61126421Y-65804332D01*
X61179221Y-65931804D01*
X61179228Y-65931817D01*
X61255884Y-66046540D01*
X61255885Y-66046541D01*
X61255886Y-66046542D01*
X61338182Y-66128838D01*
X61371666Y-66190159D01*
X61374500Y-66216518D01*
X61374500Y-66983481D01*
X61354815Y-67050520D01*
X61338181Y-67071162D01*
X61255888Y-67153454D01*
X61255885Y-67153458D01*
X61179228Y-67268182D01*
X61179221Y-67268195D01*
X61126421Y-67395667D01*
X61126418Y-67395677D01*
X61099500Y-67531004D01*
X61099500Y-67531007D01*
X61099500Y-67668993D01*
X61099500Y-67668995D01*
X61099499Y-67668995D01*
X61126418Y-67804322D01*
X61126421Y-67804332D01*
X61179221Y-67931804D01*
X61179228Y-67931817D01*
X61255885Y-68046541D01*
X61255888Y-68046545D01*
X61353454Y-68144111D01*
X61353458Y-68144114D01*
X61468182Y-68220771D01*
X61468195Y-68220778D01*
X61595667Y-68273578D01*
X61595672Y-68273580D01*
X61595676Y-68273580D01*
X61595677Y-68273581D01*
X61731004Y-68300500D01*
X61731007Y-68300500D01*
X61868995Y-68300500D01*
X61960041Y-68282389D01*
X62004328Y-68273580D01*
X62131811Y-68220775D01*
X62246542Y-68144114D01*
X62344114Y-68046542D01*
X62420775Y-67931811D01*
X62473580Y-67804328D01*
X62485558Y-67744111D01*
X62500500Y-67668995D01*
X62500500Y-67531004D01*
X62473581Y-67395677D01*
X62473580Y-67395676D01*
X62473580Y-67395672D01*
X62471647Y-67391006D01*
X62420778Y-67268195D01*
X62420771Y-67268182D01*
X62344114Y-67153458D01*
X62344111Y-67153454D01*
X62261819Y-67071162D01*
X62228334Y-67009839D01*
X62225500Y-66983481D01*
X62225500Y-66216518D01*
X62245185Y-66149479D01*
X62261814Y-66128841D01*
X62344114Y-66046542D01*
X62420775Y-65931811D01*
X62473580Y-65804328D01*
X62488165Y-65731004D01*
X62500500Y-65668995D01*
X62500500Y-65531004D01*
X62473581Y-65395677D01*
X62473580Y-65395676D01*
X62473580Y-65395672D01*
X62473578Y-65395667D01*
X62420778Y-65268195D01*
X62420771Y-65268182D01*
X62344114Y-65153458D01*
X62344111Y-65153454D01*
X62246545Y-65055888D01*
X62246541Y-65055885D01*
X62131817Y-64979228D01*
X62131804Y-64979221D01*
X62004332Y-64926421D01*
X62004322Y-64926418D01*
X61868995Y-64899500D01*
X61868993Y-64899500D01*
X61731007Y-64899500D01*
X61731005Y-64899500D01*
X61595677Y-64926418D01*
X61595667Y-64926421D01*
X61468195Y-64979221D01*
X61468182Y-64979228D01*
X61353458Y-65055885D01*
X61353454Y-65055888D01*
X61255888Y-65153454D01*
X61255885Y-65153458D01*
X61179228Y-65268182D01*
X61179221Y-65268195D01*
X61126421Y-65395667D01*
X61126418Y-65395677D01*
X61099500Y-65531004D01*
X61099500Y-65531007D01*
X61099500Y-65668993D01*
X61099500Y-65668995D01*
X61099499Y-65668995D01*
X60015397Y-65668995D01*
X60131811Y-65620775D01*
X60246542Y-65544114D01*
X60344114Y-65446542D01*
X60420775Y-65331811D01*
X60473580Y-65204328D01*
X60489077Y-65126420D01*
X60500500Y-65068995D01*
X60500500Y-64931004D01*
X60473581Y-64795677D01*
X60473580Y-64795676D01*
X60473580Y-64795672D01*
X60473578Y-64795667D01*
X60420778Y-64668195D01*
X60420771Y-64668182D01*
X60344114Y-64553458D01*
X60344111Y-64553454D01*
X60246545Y-64455888D01*
X60246541Y-64455885D01*
X60131817Y-64379228D01*
X60131804Y-64379221D01*
X60004332Y-64326421D01*
X60004322Y-64326418D01*
X59868995Y-64299500D01*
X59868993Y-64299500D01*
X59731007Y-64299500D01*
X59731005Y-64299500D01*
X59595677Y-64326418D01*
X59595667Y-64326421D01*
X59468195Y-64379221D01*
X59468182Y-64379228D01*
X59353458Y-64455885D01*
X59353454Y-64455888D01*
X59255888Y-64553454D01*
X59255885Y-64553458D01*
X59179228Y-64668182D01*
X59179221Y-64668195D01*
X59126421Y-64795667D01*
X59126418Y-64795677D01*
X59109080Y-64882840D01*
X59076694Y-64944751D01*
X59075144Y-64946329D01*
X58546329Y-65475144D01*
X58485006Y-65508629D01*
X58482840Y-65509080D01*
X58395677Y-65526418D01*
X58395667Y-65526421D01*
X58268195Y-65579221D01*
X58268182Y-65579228D01*
X58153458Y-65655885D01*
X58153454Y-65655888D01*
X58055888Y-65753454D01*
X58055885Y-65753458D01*
X57979228Y-65868182D01*
X57979221Y-65868195D01*
X57926421Y-65995667D01*
X57926418Y-65995677D01*
X57899500Y-66131004D01*
X57899500Y-66131007D01*
X57899500Y-66268993D01*
X57899500Y-66268995D01*
X57899499Y-66268995D01*
X46472143Y-66268995D01*
X46464928Y-66263181D01*
X46414343Y-66212596D01*
X46136819Y-65935071D01*
X46103334Y-65873748D01*
X46100500Y-65847390D01*
X46100500Y-65731004D01*
X46073581Y-65595677D01*
X46073580Y-65595676D01*
X46073580Y-65595672D01*
X46066769Y-65579228D01*
X46020778Y-65468195D01*
X46020771Y-65468182D01*
X45944114Y-65353458D01*
X45944111Y-65353454D01*
X45846545Y-65255888D01*
X45846541Y-65255885D01*
X45731817Y-65179228D01*
X45731804Y-65179221D01*
X45604332Y-65126421D01*
X45604322Y-65126418D01*
X45468995Y-65099500D01*
X45468993Y-65099500D01*
X45331007Y-65099500D01*
X45331005Y-65099500D01*
X45195677Y-65126418D01*
X45195667Y-65126421D01*
X45068195Y-65179221D01*
X45068182Y-65179228D01*
X44953458Y-65255885D01*
X44953454Y-65255888D01*
X44855888Y-65353454D01*
X44855885Y-65353458D01*
X44779228Y-65468182D01*
X44779221Y-65468195D01*
X44726421Y-65595667D01*
X44726418Y-65595677D01*
X44699500Y-65731004D01*
X44699500Y-65731007D01*
X44699500Y-65868993D01*
X44699500Y-65868995D01*
X44699499Y-65868995D01*
X30400000Y-65868995D01*
X30400000Y-62893713D01*
X113649500Y-62893713D01*
X113649500Y-63106286D01*
X113682753Y-63316239D01*
X113748444Y-63518414D01*
X113844951Y-63707820D01*
X113969890Y-63879786D01*
X114120213Y-64030109D01*
X114292179Y-64155048D01*
X114292181Y-64155049D01*
X114292184Y-64155051D01*
X114481588Y-64251557D01*
X114683757Y-64317246D01*
X114893713Y-64350500D01*
X114893714Y-64350500D01*
X115106286Y-64350500D01*
X115106287Y-64350500D01*
X115316243Y-64317246D01*
X115518412Y-64251557D01*
X115707816Y-64155051D01*
X115729789Y-64139086D01*
X115879786Y-64030109D01*
X115879788Y-64030106D01*
X115879792Y-64030104D01*
X116030104Y-63879792D01*
X116030106Y-63879788D01*
X116030109Y-63879786D01*
X116155048Y-63707820D01*
X116155047Y-63707820D01*
X116155051Y-63707816D01*
X116251557Y-63518412D01*
X116317246Y-63316243D01*
X116350500Y-63106287D01*
X116350500Y-62893713D01*
X116317246Y-62683757D01*
X116251557Y-62481588D01*
X116155051Y-62292184D01*
X116155049Y-62292181D01*
X116155048Y-62292179D01*
X116030109Y-62120213D01*
X115879786Y-61969890D01*
X115707820Y-61844951D01*
X115518414Y-61748444D01*
X115518413Y-61748443D01*
X115518412Y-61748443D01*
X115316243Y-61682754D01*
X115316241Y-61682753D01*
X115316240Y-61682753D01*
X115154957Y-61657208D01*
X115106287Y-61649500D01*
X114893713Y-61649500D01*
X114845042Y-61657208D01*
X114683760Y-61682753D01*
X114481585Y-61748444D01*
X114292179Y-61844951D01*
X114120213Y-61969890D01*
X113969890Y-62120213D01*
X113844951Y-62292179D01*
X113748444Y-62481585D01*
X113682753Y-62683760D01*
X113649500Y-62893713D01*
X30400000Y-62893713D01*
X30400000Y-59206898D01*
X40849500Y-59206898D01*
X40849500Y-60793102D01*
X40850946Y-60805141D01*
X40860122Y-60881561D01*
X40915639Y-61022343D01*
X41007077Y-61142922D01*
X41127656Y-61234360D01*
X41127657Y-61234360D01*
X41127658Y-61234361D01*
X41268436Y-61289877D01*
X41356898Y-61300500D01*
X41356903Y-61300500D01*
X42643097Y-61300500D01*
X42643102Y-61300500D01*
X42731564Y-61289877D01*
X42872342Y-61234361D01*
X42992922Y-61142922D01*
X43084361Y-61022342D01*
X43139877Y-60881564D01*
X43150500Y-60793102D01*
X43150500Y-60771315D01*
X43170185Y-60704276D01*
X43222989Y-60658521D01*
X43292147Y-60648577D01*
X43355703Y-60677602D01*
X43384985Y-60715021D01*
X43430902Y-60805141D01*
X43546555Y-60964321D01*
X43685678Y-61103444D01*
X43844858Y-61219097D01*
X44020167Y-61308420D01*
X44199999Y-61366850D01*
X44200000Y-61366850D01*
X44200000Y-60404144D01*
X44307007Y-60465925D01*
X44434174Y-60500000D01*
X44565826Y-60500000D01*
X44692993Y-60465925D01*
X44800000Y-60404144D01*
X44800000Y-61366850D01*
X44979832Y-61308420D01*
X45155141Y-61219097D01*
X45314321Y-61103444D01*
X45453444Y-60964321D01*
X45522704Y-60868995D01*
X46099499Y-60868995D01*
X46126418Y-61004322D01*
X46126421Y-61004332D01*
X46179221Y-61131804D01*
X46179228Y-61131817D01*
X46255885Y-61246541D01*
X46255888Y-61246545D01*
X46353454Y-61344111D01*
X46353458Y-61344114D01*
X46468182Y-61420771D01*
X46468195Y-61420778D01*
X46595667Y-61473578D01*
X46595672Y-61473580D01*
X46595676Y-61473580D01*
X46595677Y-61473581D01*
X46731004Y-61500500D01*
X46731007Y-61500500D01*
X46868995Y-61500500D01*
X46960041Y-61482389D01*
X47004328Y-61473580D01*
X47131811Y-61420775D01*
X47246542Y-61344114D01*
X47282236Y-61308420D01*
X47328838Y-61261819D01*
X47390161Y-61228334D01*
X47416519Y-61225500D01*
X48183481Y-61225500D01*
X48250520Y-61245185D01*
X48271162Y-61261819D01*
X48353454Y-61344111D01*
X48353458Y-61344114D01*
X48468182Y-61420771D01*
X48468195Y-61420778D01*
X48595667Y-61473578D01*
X48595672Y-61473580D01*
X48595676Y-61473580D01*
X48595677Y-61473581D01*
X48731004Y-61500500D01*
X48731007Y-61500500D01*
X48868995Y-61500500D01*
X48960041Y-61482389D01*
X49004328Y-61473580D01*
X49131811Y-61420775D01*
X49246542Y-61344114D01*
X49344114Y-61246542D01*
X49420775Y-61131811D01*
X49473580Y-61004328D01*
X49482389Y-60960041D01*
X49500500Y-60868995D01*
X49500500Y-60731004D01*
X49473581Y-60595677D01*
X49473580Y-60595676D01*
X49473580Y-60595672D01*
X49433952Y-60500000D01*
X49420778Y-60468195D01*
X49420771Y-60468182D01*
X49344114Y-60353458D01*
X49344111Y-60353454D01*
X49246545Y-60255888D01*
X49246541Y-60255885D01*
X49131817Y-60179228D01*
X49131804Y-60179221D01*
X49004332Y-60126421D01*
X49004322Y-60126418D01*
X48868995Y-60099500D01*
X48868993Y-60099500D01*
X48731007Y-60099500D01*
X48731005Y-60099500D01*
X48595677Y-60126418D01*
X48595667Y-60126421D01*
X48468195Y-60179221D01*
X48468182Y-60179228D01*
X48353458Y-60255885D01*
X48353454Y-60255888D01*
X48271162Y-60338181D01*
X48209839Y-60371666D01*
X48183481Y-60374500D01*
X47416519Y-60374500D01*
X47349480Y-60354815D01*
X47328838Y-60338181D01*
X47246545Y-60255888D01*
X47246541Y-60255885D01*
X47131817Y-60179228D01*
X47131804Y-60179221D01*
X47004332Y-60126421D01*
X47004322Y-60126418D01*
X46868995Y-60099500D01*
X46868993Y-60099500D01*
X46731007Y-60099500D01*
X46731005Y-60099500D01*
X46595677Y-60126418D01*
X46595667Y-60126421D01*
X46468195Y-60179221D01*
X46468182Y-60179228D01*
X46353458Y-60255885D01*
X46353454Y-60255888D01*
X46255888Y-60353454D01*
X46255885Y-60353458D01*
X46179228Y-60468182D01*
X46179221Y-60468195D01*
X46126421Y-60595667D01*
X46126418Y-60595677D01*
X46099500Y-60731004D01*
X46099500Y-60731007D01*
X46099500Y-60868993D01*
X46099500Y-60868995D01*
X46099499Y-60868995D01*
X45522704Y-60868995D01*
X45569097Y-60805141D01*
X45638657Y-60668621D01*
X45638657Y-60668620D01*
X45658418Y-60629835D01*
X45719221Y-60442705D01*
X45741824Y-60300000D01*
X44904144Y-60300000D01*
X44965925Y-60192993D01*
X45000000Y-60065826D01*
X45000000Y-59934174D01*
X44965925Y-59807007D01*
X44904144Y-59700000D01*
X45741824Y-59700000D01*
X45736913Y-59668995D01*
X58499499Y-59668995D01*
X58526418Y-59804322D01*
X58526421Y-59804332D01*
X58579221Y-59931804D01*
X58579228Y-59931817D01*
X58655885Y-60046541D01*
X58655888Y-60046545D01*
X58753454Y-60144111D01*
X58753458Y-60144114D01*
X58868182Y-60220771D01*
X58868195Y-60220778D01*
X58995667Y-60273578D01*
X58995672Y-60273580D01*
X58995676Y-60273580D01*
X58995677Y-60273581D01*
X59131004Y-60300500D01*
X59131007Y-60300500D01*
X59268995Y-60300500D01*
X59360041Y-60282389D01*
X59404328Y-60273580D01*
X59531811Y-60220775D01*
X59646542Y-60144114D01*
X59744114Y-60046542D01*
X59820775Y-59931811D01*
X59873580Y-59804328D01*
X59882389Y-59760041D01*
X59900500Y-59668995D01*
X59900500Y-59552608D01*
X59920185Y-59485569D01*
X59936815Y-59464931D01*
X60264927Y-59136818D01*
X60326250Y-59103334D01*
X60352608Y-59100500D01*
X60468995Y-59100500D01*
X60560041Y-59082389D01*
X60604328Y-59073580D01*
X60731811Y-59020775D01*
X60846542Y-58944114D01*
X60944114Y-58846542D01*
X61020775Y-58731811D01*
X61073580Y-58604328D01*
X61087356Y-58535070D01*
X61100500Y-58468995D01*
X61100500Y-58331004D01*
X61073581Y-58195677D01*
X61073580Y-58195676D01*
X61073580Y-58195672D01*
X61050720Y-58140483D01*
X61020778Y-58068195D01*
X61020771Y-58068182D01*
X60944114Y-57953458D01*
X60944111Y-57953454D01*
X60846545Y-57855888D01*
X60846541Y-57855885D01*
X60731817Y-57779228D01*
X60731804Y-57779221D01*
X60604332Y-57726421D01*
X60604322Y-57726418D01*
X60468995Y-57699500D01*
X60468993Y-57699500D01*
X60331007Y-57699500D01*
X60331005Y-57699500D01*
X60195677Y-57726418D01*
X60195667Y-57726421D01*
X60068195Y-57779221D01*
X60068182Y-57779228D01*
X59953458Y-57855885D01*
X59953454Y-57855888D01*
X59855888Y-57953454D01*
X59855885Y-57953458D01*
X59779228Y-58068182D01*
X59779221Y-58068195D01*
X59726421Y-58195667D01*
X59726418Y-58195677D01*
X59699500Y-58331004D01*
X59699500Y-58447389D01*
X59679815Y-58514428D01*
X59663181Y-58535070D01*
X59335070Y-58863181D01*
X59273747Y-58896666D01*
X59247389Y-58899500D01*
X59131005Y-58899500D01*
X58995677Y-58926418D01*
X58995667Y-58926421D01*
X58868195Y-58979221D01*
X58868182Y-58979228D01*
X58753458Y-59055885D01*
X58753454Y-59055888D01*
X58655888Y-59153454D01*
X58655885Y-59153458D01*
X58579228Y-59268182D01*
X58579221Y-59268195D01*
X58526421Y-59395667D01*
X58526418Y-59395677D01*
X58499500Y-59531004D01*
X58499500Y-59531007D01*
X58499500Y-59668993D01*
X58499500Y-59668995D01*
X58499499Y-59668995D01*
X45736913Y-59668995D01*
X45719221Y-59557294D01*
X45658418Y-59370164D01*
X45569095Y-59194856D01*
X45453444Y-59035678D01*
X45314321Y-58896555D01*
X45155143Y-58780904D01*
X44979837Y-58691582D01*
X44800000Y-58633148D01*
X44800000Y-59595855D01*
X44692993Y-59534075D01*
X44565826Y-59500000D01*
X44434174Y-59500000D01*
X44307007Y-59534075D01*
X44200000Y-59595855D01*
X44200000Y-58633148D01*
X44020162Y-58691582D01*
X43844856Y-58780904D01*
X43685678Y-58896555D01*
X43546555Y-59035678D01*
X43430904Y-59194856D01*
X43384985Y-59284979D01*
X43337011Y-59335775D01*
X43269190Y-59352570D01*
X43203055Y-59330033D01*
X43159603Y-59275318D01*
X43150500Y-59228684D01*
X43150500Y-59206903D01*
X43150500Y-59206898D01*
X43139877Y-59118436D01*
X43084361Y-58977658D01*
X43084360Y-58977657D01*
X43084360Y-58977656D01*
X42992922Y-58857077D01*
X42872343Y-58765639D01*
X42731561Y-58710122D01*
X42685926Y-58704642D01*
X42643102Y-58699500D01*
X41356898Y-58699500D01*
X41317853Y-58704188D01*
X41268438Y-58710122D01*
X41127656Y-58765639D01*
X41007077Y-58857077D01*
X40915639Y-58977656D01*
X40860122Y-59118438D01*
X40858516Y-59131817D01*
X40849500Y-59206898D01*
X30400000Y-59206898D01*
X30400000Y-57668995D01*
X46099499Y-57668995D01*
X46126418Y-57804322D01*
X46126421Y-57804332D01*
X46179221Y-57931804D01*
X46179228Y-57931817D01*
X46255885Y-58046541D01*
X46255888Y-58046545D01*
X46321662Y-58112319D01*
X46355147Y-58173642D01*
X46350163Y-58243334D01*
X46321662Y-58287681D01*
X46255888Y-58353454D01*
X46255885Y-58353458D01*
X46179228Y-58468182D01*
X46179221Y-58468195D01*
X46126421Y-58595667D01*
X46126418Y-58595677D01*
X46099500Y-58731004D01*
X46099500Y-58731007D01*
X46099500Y-58868993D01*
X46099500Y-58868995D01*
X46099499Y-58868995D01*
X46126418Y-59004322D01*
X46126421Y-59004332D01*
X46179221Y-59131804D01*
X46179228Y-59131817D01*
X46255885Y-59246541D01*
X46255888Y-59246545D01*
X46353454Y-59344111D01*
X46353458Y-59344114D01*
X46468182Y-59420771D01*
X46468195Y-59420778D01*
X46595667Y-59473578D01*
X46595672Y-59473580D01*
X46595676Y-59473580D01*
X46595677Y-59473581D01*
X46731004Y-59500500D01*
X46731007Y-59500500D01*
X46868995Y-59500500D01*
X46960041Y-59482389D01*
X47004328Y-59473580D01*
X47131811Y-59420775D01*
X47246542Y-59344114D01*
X47260623Y-59330033D01*
X47328838Y-59261819D01*
X47390161Y-59228334D01*
X47416519Y-59225500D01*
X48183481Y-59225500D01*
X48250520Y-59245185D01*
X48271162Y-59261819D01*
X48353454Y-59344111D01*
X48353458Y-59344114D01*
X48468182Y-59420771D01*
X48468195Y-59420778D01*
X48595667Y-59473578D01*
X48595672Y-59473580D01*
X48595676Y-59473580D01*
X48595677Y-59473581D01*
X48731004Y-59500500D01*
X48731007Y-59500500D01*
X48868995Y-59500500D01*
X48960041Y-59482389D01*
X49004328Y-59473580D01*
X49131811Y-59420775D01*
X49131816Y-59420771D01*
X49131819Y-59420770D01*
X49170916Y-59394645D01*
X49246542Y-59344114D01*
X49344114Y-59246542D01*
X49420775Y-59131811D01*
X49473580Y-59004328D01*
X49489077Y-58926420D01*
X49500500Y-58868995D01*
X49500500Y-58731004D01*
X49473581Y-58595677D01*
X49473580Y-58595676D01*
X49473580Y-58595672D01*
X49431390Y-58493815D01*
X49420778Y-58468195D01*
X49420771Y-58468182D01*
X49344114Y-58353458D01*
X49344111Y-58353454D01*
X49278338Y-58287681D01*
X49244853Y-58226358D01*
X49249837Y-58156666D01*
X49278338Y-58112319D01*
X49344111Y-58046545D01*
X49344114Y-58046542D01*
X49420775Y-57931811D01*
X49446794Y-57868995D01*
X55699499Y-57868995D01*
X55726418Y-58004322D01*
X55726421Y-58004332D01*
X55779221Y-58131804D01*
X55779228Y-58131817D01*
X55855885Y-58246541D01*
X55855888Y-58246545D01*
X55953454Y-58344111D01*
X55953458Y-58344114D01*
X56068182Y-58420771D01*
X56068195Y-58420778D01*
X56182640Y-58468182D01*
X56195672Y-58473580D01*
X56195676Y-58473580D01*
X56195677Y-58473581D01*
X56331004Y-58500500D01*
X56331007Y-58500500D01*
X56468995Y-58500500D01*
X56560041Y-58482389D01*
X56604328Y-58473580D01*
X56731811Y-58420775D01*
X56846542Y-58344114D01*
X56859652Y-58331004D01*
X56928838Y-58261819D01*
X56990161Y-58228334D01*
X57016519Y-58225500D01*
X57856016Y-58225500D01*
X57856018Y-58225500D01*
X57964237Y-58196503D01*
X58061263Y-58140485D01*
X58061265Y-58140483D01*
X58064930Y-58136819D01*
X58126253Y-58103334D01*
X58152611Y-58100500D01*
X58268995Y-58100500D01*
X58360041Y-58082389D01*
X58404328Y-58073580D01*
X58531811Y-58020775D01*
X58646542Y-57944114D01*
X58744114Y-57846542D01*
X58820775Y-57731811D01*
X58873580Y-57604328D01*
X58900500Y-57468993D01*
X58900500Y-57331007D01*
X58900500Y-57331004D01*
X58873581Y-57195677D01*
X58873580Y-57195676D01*
X58873580Y-57195672D01*
X58866769Y-57179228D01*
X58820778Y-57068195D01*
X58820771Y-57068182D01*
X58744114Y-56953458D01*
X58744111Y-56953454D01*
X58646545Y-56855888D01*
X58646541Y-56855885D01*
X58531817Y-56779228D01*
X58531804Y-56779221D01*
X58404332Y-56726421D01*
X58404322Y-56726418D01*
X58268995Y-56699500D01*
X58268993Y-56699500D01*
X58131007Y-56699500D01*
X58131005Y-56699500D01*
X57995677Y-56726418D01*
X57995667Y-56726421D01*
X57868195Y-56779221D01*
X57868182Y-56779228D01*
X57753458Y-56855885D01*
X57753454Y-56855888D01*
X57655888Y-56953454D01*
X57655885Y-56953458D01*
X57579228Y-57068182D01*
X57579221Y-57068195D01*
X57526421Y-57195667D01*
X57526418Y-57195677D01*
X57510701Y-57274692D01*
X57478316Y-57336603D01*
X57417600Y-57371177D01*
X57389084Y-57374500D01*
X57016519Y-57374500D01*
X56949480Y-57354815D01*
X56928838Y-57338181D01*
X56846545Y-57255888D01*
X56846541Y-57255885D01*
X56731817Y-57179228D01*
X56731804Y-57179221D01*
X56604332Y-57126421D01*
X56604322Y-57126418D01*
X56468995Y-57099500D01*
X56468993Y-57099500D01*
X56331007Y-57099500D01*
X56331005Y-57099500D01*
X56195677Y-57126418D01*
X56195667Y-57126421D01*
X56068195Y-57179221D01*
X56068182Y-57179228D01*
X55953458Y-57255885D01*
X55953454Y-57255888D01*
X55855888Y-57353454D01*
X55855885Y-57353458D01*
X55779228Y-57468182D01*
X55779221Y-57468195D01*
X55726421Y-57595667D01*
X55726418Y-57595677D01*
X55699500Y-57731004D01*
X55699500Y-57731007D01*
X55699500Y-57868993D01*
X55699500Y-57868995D01*
X55699499Y-57868995D01*
X49446794Y-57868995D01*
X49473580Y-57804328D01*
X49479053Y-57776809D01*
X49494189Y-57700723D01*
X49494189Y-57700722D01*
X49500499Y-57668997D01*
X49500500Y-57668995D01*
X49500500Y-57531004D01*
X49473581Y-57395677D01*
X49473580Y-57395676D01*
X49473580Y-57395672D01*
X49456657Y-57354815D01*
X49420778Y-57268195D01*
X49420771Y-57268182D01*
X49344114Y-57153458D01*
X49344111Y-57153454D01*
X49246545Y-57055888D01*
X49246541Y-57055885D01*
X49131817Y-56979228D01*
X49131804Y-56979221D01*
X49004332Y-56926421D01*
X49004322Y-56926418D01*
X48868995Y-56899500D01*
X48868993Y-56899500D01*
X48731007Y-56899500D01*
X48731005Y-56899500D01*
X48595677Y-56926418D01*
X48595667Y-56926421D01*
X48468195Y-56979221D01*
X48468182Y-56979228D01*
X48353458Y-57055885D01*
X48353454Y-57055888D01*
X48271162Y-57138181D01*
X48209839Y-57171666D01*
X48183481Y-57174500D01*
X47416519Y-57174500D01*
X47349480Y-57154815D01*
X47328838Y-57138181D01*
X47246545Y-57055888D01*
X47246541Y-57055885D01*
X47131817Y-56979228D01*
X47131804Y-56979221D01*
X47004332Y-56926421D01*
X47004322Y-56926418D01*
X46868995Y-56899500D01*
X46868993Y-56899500D01*
X46731007Y-56899500D01*
X46731005Y-56899500D01*
X46595677Y-56926418D01*
X46595667Y-56926421D01*
X46468195Y-56979221D01*
X46468182Y-56979228D01*
X46353458Y-57055885D01*
X46353454Y-57055888D01*
X46255888Y-57153454D01*
X46255885Y-57153458D01*
X46179228Y-57268182D01*
X46179221Y-57268195D01*
X46126421Y-57395667D01*
X46126418Y-57395677D01*
X46099500Y-57531004D01*
X46099500Y-57531007D01*
X46099500Y-57668993D01*
X46099500Y-57668995D01*
X46099499Y-57668995D01*
X30400000Y-57668995D01*
X30400000Y-54668995D01*
X101499499Y-54668995D01*
X101526418Y-54804322D01*
X101526421Y-54804332D01*
X101579221Y-54931804D01*
X101579228Y-54931817D01*
X101655885Y-55046541D01*
X101655888Y-55046545D01*
X101753454Y-55144111D01*
X101753458Y-55144114D01*
X101868182Y-55220771D01*
X101868195Y-55220778D01*
X101995667Y-55273578D01*
X101995672Y-55273580D01*
X101995676Y-55273580D01*
X101995677Y-55273581D01*
X102131004Y-55300500D01*
X102131007Y-55300500D01*
X102268995Y-55300500D01*
X102360041Y-55282389D01*
X102404328Y-55273580D01*
X102531811Y-55220775D01*
X102646542Y-55144114D01*
X102646545Y-55144111D01*
X102728838Y-55061819D01*
X102790161Y-55028334D01*
X102816519Y-55025500D01*
X103583481Y-55025500D01*
X103650520Y-55045185D01*
X103671162Y-55061819D01*
X103753454Y-55144111D01*
X103753458Y-55144114D01*
X103868182Y-55220771D01*
X103868195Y-55220778D01*
X103995667Y-55273578D01*
X103995672Y-55273580D01*
X103995676Y-55273580D01*
X103995677Y-55273581D01*
X104131004Y-55300500D01*
X104131007Y-55300500D01*
X104268995Y-55300500D01*
X104360041Y-55282389D01*
X104404328Y-55273580D01*
X104531811Y-55220775D01*
X104646542Y-55144114D01*
X104744114Y-55046542D01*
X104820775Y-54931811D01*
X104873580Y-54804328D01*
X104900500Y-54668993D01*
X104900500Y-54531007D01*
X104900500Y-54531004D01*
X104873581Y-54395677D01*
X104873580Y-54395676D01*
X104873580Y-54395672D01*
X104873578Y-54395667D01*
X104820778Y-54268195D01*
X104820771Y-54268182D01*
X104744114Y-54153458D01*
X104744111Y-54153454D01*
X104646545Y-54055888D01*
X104646541Y-54055885D01*
X104531817Y-53979228D01*
X104531804Y-53979221D01*
X104404332Y-53926421D01*
X104404322Y-53926418D01*
X104268995Y-53899500D01*
X104268993Y-53899500D01*
X104131007Y-53899500D01*
X104131005Y-53899500D01*
X103995677Y-53926418D01*
X103995667Y-53926421D01*
X103868195Y-53979221D01*
X103868182Y-53979228D01*
X103753458Y-54055885D01*
X103753454Y-54055888D01*
X103671162Y-54138181D01*
X103609839Y-54171666D01*
X103583481Y-54174500D01*
X102816519Y-54174500D01*
X102749480Y-54154815D01*
X102728838Y-54138181D01*
X102646545Y-54055888D01*
X102646541Y-54055885D01*
X102531817Y-53979228D01*
X102531804Y-53979221D01*
X102404332Y-53926421D01*
X102404322Y-53926418D01*
X102268995Y-53899500D01*
X102268993Y-53899500D01*
X102131007Y-53899500D01*
X102131005Y-53899500D01*
X101995677Y-53926418D01*
X101995667Y-53926421D01*
X101868195Y-53979221D01*
X101868182Y-53979228D01*
X101753458Y-54055885D01*
X101753454Y-54055888D01*
X101655888Y-54153454D01*
X101655885Y-54153458D01*
X101579228Y-54268182D01*
X101579221Y-54268195D01*
X101526421Y-54395667D01*
X101526418Y-54395677D01*
X101499500Y-54531004D01*
X101499500Y-54531007D01*
X101499500Y-54668993D01*
X101499500Y-54668995D01*
X101499499Y-54668995D01*
X30400000Y-54668995D01*
X30400000Y-52468995D01*
X55099499Y-52468995D01*
X55126418Y-52604322D01*
X55126421Y-52604332D01*
X55179221Y-52731804D01*
X55179228Y-52731817D01*
X55255885Y-52846541D01*
X55255888Y-52846545D01*
X55353454Y-52944111D01*
X55353458Y-52944114D01*
X55468182Y-53020771D01*
X55468195Y-53020778D01*
X55535239Y-53048548D01*
X55595672Y-53073580D01*
X55595676Y-53073580D01*
X55595677Y-53073581D01*
X55731004Y-53100500D01*
X55731007Y-53100500D01*
X55868995Y-53100500D01*
X55960041Y-53082389D01*
X56004328Y-53073580D01*
X56131811Y-53020775D01*
X56246542Y-52944114D01*
X56344114Y-52846542D01*
X56420775Y-52731811D01*
X56473580Y-52604328D01*
X56500500Y-52468993D01*
X56500500Y-52352608D01*
X56520185Y-52285569D01*
X56536815Y-52264931D01*
X56864927Y-51936818D01*
X56926250Y-51903334D01*
X56952608Y-51900500D01*
X57068995Y-51900500D01*
X57160041Y-51882389D01*
X57204328Y-51873580D01*
X57331811Y-51820775D01*
X57446542Y-51744114D01*
X57544114Y-51646542D01*
X57620775Y-51531811D01*
X57673580Y-51404328D01*
X57687356Y-51335070D01*
X57700500Y-51268995D01*
X57700500Y-51239778D01*
X98499500Y-51239778D01*
X98499500Y-52760221D01*
X98533985Y-52977952D01*
X98602103Y-53187603D01*
X98602104Y-53187606D01*
X98702187Y-53384025D01*
X98831752Y-53562358D01*
X98831756Y-53562363D01*
X98987636Y-53718243D01*
X98987641Y-53718247D01*
X99143192Y-53831260D01*
X99165978Y-53847815D01*
X99294375Y-53913237D01*
X99362393Y-53947895D01*
X99362396Y-53947896D01*
X99467221Y-53981955D01*
X99572049Y-54016015D01*
X99789778Y-54050500D01*
X99789779Y-54050500D01*
X100010221Y-54050500D01*
X100010222Y-54050500D01*
X100227951Y-54016015D01*
X100437606Y-53947895D01*
X100634022Y-53847815D01*
X100812365Y-53718242D01*
X100968242Y-53562365D01*
X100968964Y-53561370D01*
X100969335Y-53561084D01*
X100971408Y-53558658D01*
X100971917Y-53559093D01*
X101024289Y-53518699D01*
X101093902Y-53512713D01*
X101119365Y-53520808D01*
X101180009Y-53547585D01*
X101205135Y-53550500D01*
X102794864Y-53550499D01*
X102794879Y-53550497D01*
X102794882Y-53550497D01*
X102819987Y-53547586D01*
X102819988Y-53547585D01*
X102819991Y-53547585D01*
X102922765Y-53502206D01*
X103002206Y-53422765D01*
X103047585Y-53319991D01*
X103047847Y-53317729D01*
X103048831Y-53315408D01*
X103050033Y-53310993D01*
X103050634Y-53311156D01*
X103075122Y-53253407D01*
X103132845Y-53214039D01*
X103202688Y-53212128D01*
X103258702Y-53244335D01*
X103330342Y-53315975D01*
X103330345Y-53315977D01*
X103502402Y-53430941D01*
X103693580Y-53510130D01*
X103881875Y-53547584D01*
X103896530Y-53550499D01*
X103896534Y-53550500D01*
X103896535Y-53550500D01*
X104103466Y-53550500D01*
X104103467Y-53550499D01*
X104306420Y-53510130D01*
X104497598Y-53430941D01*
X104669655Y-53315977D01*
X104815977Y-53169655D01*
X104896898Y-53048546D01*
X104950509Y-53003742D01*
X105019834Y-52995035D01*
X105082862Y-53025189D01*
X105103100Y-53048545D01*
X105152924Y-53123112D01*
X105184024Y-53169657D01*
X105330342Y-53315975D01*
X105330345Y-53315977D01*
X105502402Y-53430941D01*
X105693580Y-53510130D01*
X105881875Y-53547584D01*
X105896530Y-53550499D01*
X105896534Y-53550500D01*
X105896535Y-53550500D01*
X106103466Y-53550500D01*
X106103467Y-53550499D01*
X106306420Y-53510130D01*
X106497598Y-53430941D01*
X106669655Y-53315977D01*
X106680043Y-53305589D01*
X106741365Y-53272102D01*
X106811057Y-53277084D01*
X106866992Y-53318953D01*
X106878212Y-53336972D01*
X106902187Y-53384026D01*
X107031752Y-53562358D01*
X107031756Y-53562363D01*
X107187636Y-53718243D01*
X107187641Y-53718247D01*
X107343192Y-53831260D01*
X107365978Y-53847815D01*
X107494375Y-53913237D01*
X107562393Y-53947895D01*
X107562396Y-53947896D01*
X107667221Y-53981955D01*
X107772049Y-54016015D01*
X107989778Y-54050500D01*
X107989779Y-54050500D01*
X108210221Y-54050500D01*
X108210222Y-54050500D01*
X108427951Y-54016015D01*
X108637606Y-53947895D01*
X108834022Y-53847815D01*
X109012365Y-53718242D01*
X109168242Y-53562365D01*
X109297815Y-53384022D01*
X109397895Y-53187606D01*
X109466015Y-52977951D01*
X109500500Y-52760222D01*
X109500500Y-51239778D01*
X109466015Y-51022049D01*
X109416024Y-50868189D01*
X109397896Y-50812396D01*
X109397895Y-50812393D01*
X109344744Y-50708080D01*
X109297815Y-50615978D01*
X109236669Y-50531817D01*
X109168247Y-50437641D01*
X109168243Y-50437636D01*
X109012363Y-50281756D01*
X109012358Y-50281752D01*
X108834025Y-50152187D01*
X108834024Y-50152186D01*
X108834022Y-50152185D01*
X108771096Y-50120122D01*
X108637606Y-50052104D01*
X108637603Y-50052103D01*
X108427952Y-49983985D01*
X108319086Y-49966742D01*
X108210222Y-49949500D01*
X107989778Y-49949500D01*
X107917201Y-49960995D01*
X107772047Y-49983985D01*
X107562396Y-50052103D01*
X107562393Y-50052104D01*
X107365974Y-50152187D01*
X107187641Y-50281752D01*
X107187636Y-50281756D01*
X107031756Y-50437636D01*
X107031752Y-50437641D01*
X106902185Y-50615976D01*
X106878211Y-50663028D01*
X106830237Y-50713823D01*
X106762416Y-50730618D01*
X106696281Y-50708080D01*
X106680046Y-50694413D01*
X106669657Y-50684024D01*
X106512817Y-50579228D01*
X106497598Y-50569059D01*
X106407688Y-50531817D01*
X106306420Y-50489870D01*
X106306412Y-50489868D01*
X106103469Y-50449500D01*
X106103465Y-50449500D01*
X105896535Y-50449500D01*
X105896530Y-50449500D01*
X105693587Y-50489868D01*
X105693579Y-50489870D01*
X105502403Y-50569058D01*
X105330342Y-50684024D01*
X105184025Y-50830341D01*
X105184019Y-50830349D01*
X105103102Y-50951451D01*
X105049490Y-50996257D01*
X104980165Y-51004964D01*
X104917138Y-50974810D01*
X104896898Y-50951451D01*
X104815980Y-50830349D01*
X104815974Y-50830341D01*
X104669657Y-50684024D01*
X104512817Y-50579228D01*
X104497598Y-50569059D01*
X104407688Y-50531817D01*
X104306420Y-50489870D01*
X104306412Y-50489868D01*
X104103469Y-50449500D01*
X104103465Y-50449500D01*
X103896535Y-50449500D01*
X103896530Y-50449500D01*
X103693587Y-50489868D01*
X103693579Y-50489870D01*
X103502403Y-50569058D01*
X103330344Y-50684023D01*
X103258702Y-50755665D01*
X103197378Y-50789149D01*
X103127687Y-50784164D01*
X103071753Y-50742293D01*
X103050485Y-50688890D01*
X103050035Y-50689013D01*
X103048957Y-50685053D01*
X103047846Y-50682262D01*
X103047585Y-50680009D01*
X103002206Y-50577235D01*
X102922765Y-50497794D01*
X102901170Y-50488259D01*
X102819992Y-50452415D01*
X102794865Y-50449500D01*
X101205143Y-50449500D01*
X101205117Y-50449502D01*
X101180012Y-50452413D01*
X101180011Y-50452414D01*
X101119373Y-50479188D01*
X101050095Y-50488259D01*
X100986910Y-50458435D01*
X100971414Y-50441333D01*
X100971406Y-50441340D01*
X100971170Y-50441064D01*
X100968963Y-50438628D01*
X100968242Y-50437635D01*
X100812363Y-50281756D01*
X100812358Y-50281752D01*
X100634025Y-50152187D01*
X100634024Y-50152186D01*
X100634022Y-50152185D01*
X100571096Y-50120122D01*
X100437606Y-50052104D01*
X100437603Y-50052103D01*
X100227952Y-49983985D01*
X100119086Y-49966742D01*
X100010222Y-49949500D01*
X99789778Y-49949500D01*
X99717201Y-49960995D01*
X99572047Y-49983985D01*
X99362396Y-50052103D01*
X99362393Y-50052104D01*
X99165974Y-50152187D01*
X98987641Y-50281752D01*
X98987636Y-50281756D01*
X98831756Y-50437636D01*
X98831752Y-50437641D01*
X98702187Y-50615974D01*
X98602104Y-50812393D01*
X98602103Y-50812396D01*
X98533985Y-51022047D01*
X98499500Y-51239778D01*
X57700500Y-51239778D01*
X57700500Y-51131004D01*
X57673581Y-50995677D01*
X57673580Y-50995676D01*
X57673580Y-50995672D01*
X57634159Y-50900500D01*
X57620778Y-50868195D01*
X57620771Y-50868182D01*
X57544114Y-50753458D01*
X57544111Y-50753454D01*
X57446545Y-50655888D01*
X57446541Y-50655885D01*
X57331817Y-50579228D01*
X57331804Y-50579221D01*
X57204332Y-50526421D01*
X57204322Y-50526418D01*
X57068995Y-50499500D01*
X57068993Y-50499500D01*
X56931007Y-50499500D01*
X56931005Y-50499500D01*
X56795677Y-50526418D01*
X56795667Y-50526421D01*
X56668195Y-50579221D01*
X56668182Y-50579228D01*
X56553458Y-50655885D01*
X56553454Y-50655888D01*
X56455888Y-50753454D01*
X56455885Y-50753458D01*
X56379228Y-50868182D01*
X56379221Y-50868195D01*
X56326421Y-50995667D01*
X56326418Y-50995677D01*
X56299500Y-51131004D01*
X56299500Y-51247389D01*
X56279815Y-51314428D01*
X56263181Y-51335070D01*
X55935070Y-51663181D01*
X55873747Y-51696666D01*
X55847389Y-51699500D01*
X55731005Y-51699500D01*
X55595677Y-51726418D01*
X55595667Y-51726421D01*
X55468195Y-51779221D01*
X55468182Y-51779228D01*
X55353458Y-51855885D01*
X55353454Y-51855888D01*
X55255888Y-51953454D01*
X55255885Y-51953458D01*
X55179228Y-52068182D01*
X55179221Y-52068195D01*
X55126421Y-52195667D01*
X55126418Y-52195677D01*
X55099500Y-52331004D01*
X55099500Y-52331007D01*
X55099500Y-52468993D01*
X55099500Y-52468995D01*
X55099499Y-52468995D01*
X30400000Y-52468995D01*
X30400000Y-40441617D01*
X42250000Y-40441617D01*
X42250000Y-40638382D01*
X42280778Y-40832705D01*
X42341579Y-41019830D01*
X42341583Y-41019840D01*
X42427422Y-41188312D01*
X42427423Y-41188312D01*
X43002094Y-40613641D01*
X43034075Y-40732993D01*
X43099901Y-40847007D01*
X43192993Y-40940099D01*
X43307007Y-41005925D01*
X43426358Y-41037905D01*
X42851686Y-41612576D01*
X43020161Y-41698417D01*
X43161612Y-41744378D01*
X43219288Y-41783815D01*
X43246486Y-41848174D01*
X43234571Y-41917020D01*
X43187327Y-41968496D01*
X43161612Y-41980240D01*
X43058363Y-42013787D01*
X43058360Y-42013788D01*
X42897002Y-42096006D01*
X42750505Y-42202441D01*
X42750500Y-42202445D01*
X42622445Y-42330500D01*
X42622441Y-42330505D01*
X42516006Y-42477002D01*
X42433788Y-42638360D01*
X42433787Y-42638363D01*
X42377829Y-42810589D01*
X42349500Y-42989448D01*
X42349500Y-43170551D01*
X42377829Y-43349410D01*
X42433787Y-43521636D01*
X42433788Y-43521639D01*
X42516006Y-43682997D01*
X42622441Y-43829494D01*
X42622445Y-43829499D01*
X42750500Y-43957554D01*
X42750505Y-43957558D01*
X42878287Y-44050396D01*
X42897006Y-44063996D01*
X43002484Y-44117740D01*
X43058360Y-44146211D01*
X43058363Y-44146212D01*
X43144476Y-44174191D01*
X43230591Y-44202171D01*
X43303639Y-44213740D01*
X43390678Y-44227527D01*
X43453813Y-44257456D01*
X43490744Y-44316768D01*
X43489746Y-44386631D01*
X43451136Y-44444863D01*
X43390678Y-44472473D01*
X43230589Y-44497829D01*
X43058363Y-44553787D01*
X43058360Y-44553788D01*
X42897002Y-44636006D01*
X42750505Y-44742441D01*
X42750500Y-44742445D01*
X42622445Y-44870500D01*
X42622441Y-44870505D01*
X42516006Y-45017002D01*
X42433788Y-45178360D01*
X42433787Y-45178363D01*
X42377829Y-45350589D01*
X42349500Y-45529448D01*
X42349500Y-45710551D01*
X42377829Y-45889410D01*
X42433787Y-46061636D01*
X42433788Y-46061639D01*
X42516006Y-46222997D01*
X42622441Y-46369494D01*
X42622445Y-46369499D01*
X42750500Y-46497554D01*
X42750505Y-46497558D01*
X42878287Y-46590396D01*
X42897006Y-46603996D01*
X43002484Y-46657740D01*
X43058360Y-46686211D01*
X43058363Y-46686212D01*
X43144476Y-46714191D01*
X43230591Y-46742171D01*
X43303639Y-46753740D01*
X43390678Y-46767527D01*
X43453813Y-46797456D01*
X43490744Y-46856768D01*
X43489746Y-46926631D01*
X43451136Y-46984863D01*
X43390678Y-47012473D01*
X43230589Y-47037829D01*
X43058363Y-47093787D01*
X43058360Y-47093788D01*
X42897002Y-47176006D01*
X42750505Y-47282441D01*
X42750500Y-47282445D01*
X42622445Y-47410500D01*
X42622441Y-47410505D01*
X42516006Y-47557002D01*
X42433788Y-47718360D01*
X42433787Y-47718363D01*
X42377829Y-47890589D01*
X42349500Y-48069448D01*
X42349500Y-48250551D01*
X42377829Y-48429410D01*
X42433787Y-48601636D01*
X42433788Y-48601639D01*
X42487058Y-48706185D01*
X42511145Y-48753458D01*
X42516006Y-48762997D01*
X42622441Y-48909494D01*
X42622445Y-48909499D01*
X42750500Y-49037554D01*
X42750505Y-49037558D01*
X42836841Y-49100284D01*
X42897006Y-49143996D01*
X43002484Y-49197740D01*
X43058360Y-49226211D01*
X43058363Y-49226212D01*
X43144476Y-49254191D01*
X43230591Y-49282171D01*
X43303639Y-49293740D01*
X43390678Y-49307527D01*
X43453813Y-49337456D01*
X43490744Y-49396768D01*
X43489746Y-49466631D01*
X43451136Y-49524863D01*
X43390678Y-49552473D01*
X43230589Y-49577829D01*
X43058363Y-49633787D01*
X43058360Y-49633788D01*
X42897002Y-49716006D01*
X42750505Y-49822441D01*
X42750500Y-49822445D01*
X42622445Y-49950500D01*
X42622441Y-49950505D01*
X42516006Y-50097002D01*
X42433788Y-50258360D01*
X42433787Y-50258363D01*
X42377829Y-50430589D01*
X42349500Y-50609448D01*
X42349500Y-50790551D01*
X42377829Y-50969410D01*
X42433787Y-51141636D01*
X42433788Y-51141639D01*
X42516006Y-51302997D01*
X42622441Y-51449494D01*
X42622445Y-51449499D01*
X42750500Y-51577554D01*
X42750505Y-51577558D01*
X42845459Y-51646545D01*
X42897006Y-51683996D01*
X43002484Y-51737740D01*
X43058360Y-51766211D01*
X43058363Y-51766212D01*
X43144476Y-51794191D01*
X43230591Y-51822171D01*
X43313429Y-51835291D01*
X43409449Y-51850500D01*
X43409454Y-51850500D01*
X43590551Y-51850500D01*
X43677259Y-51836765D01*
X43769409Y-51822171D01*
X43941639Y-51766211D01*
X44102994Y-51683996D01*
X44249501Y-51577553D01*
X44377553Y-51449501D01*
X44483996Y-51302994D01*
X44566211Y-51141639D01*
X44622171Y-50969409D01*
X44644196Y-50830349D01*
X44650500Y-50790551D01*
X44650500Y-50609448D01*
X44631560Y-50489870D01*
X44622171Y-50430591D01*
X44573813Y-50281758D01*
X44569666Y-50268995D01*
X46299499Y-50268995D01*
X46326418Y-50404322D01*
X46326421Y-50404332D01*
X46379221Y-50531804D01*
X46379228Y-50531817D01*
X46455885Y-50646541D01*
X46455888Y-50646545D01*
X46553454Y-50744111D01*
X46553458Y-50744114D01*
X46668182Y-50820771D01*
X46668195Y-50820778D01*
X46782640Y-50868182D01*
X46795672Y-50873580D01*
X46795676Y-50873580D01*
X46795677Y-50873581D01*
X46931004Y-50900500D01*
X46931007Y-50900500D01*
X47068995Y-50900500D01*
X47160041Y-50882389D01*
X47204328Y-50873580D01*
X47331811Y-50820775D01*
X47446542Y-50744114D01*
X47503838Y-50686817D01*
X47565159Y-50653334D01*
X47591518Y-50650500D01*
X48408482Y-50650500D01*
X48475521Y-50670185D01*
X48496158Y-50686814D01*
X48539962Y-50730618D01*
X48553459Y-50744115D01*
X48668182Y-50820771D01*
X48668195Y-50820778D01*
X48782640Y-50868182D01*
X48795672Y-50873580D01*
X48795676Y-50873580D01*
X48795677Y-50873581D01*
X48931004Y-50900500D01*
X48931007Y-50900500D01*
X49068995Y-50900500D01*
X49160041Y-50882389D01*
X49204328Y-50873580D01*
X49331811Y-50820775D01*
X49446542Y-50744114D01*
X49544114Y-50646542D01*
X49620775Y-50531811D01*
X49673580Y-50404328D01*
X49697961Y-50281758D01*
X49700500Y-50268995D01*
X49700500Y-50131004D01*
X49673581Y-49995677D01*
X49673580Y-49995676D01*
X49673580Y-49995672D01*
X49668739Y-49983985D01*
X49620778Y-49868195D01*
X49620771Y-49868182D01*
X49544114Y-49753458D01*
X49544111Y-49753454D01*
X49446545Y-49655888D01*
X49446541Y-49655885D01*
X49331817Y-49579228D01*
X49331804Y-49579221D01*
X49204332Y-49526421D01*
X49204322Y-49526418D01*
X49068995Y-49499500D01*
X49068993Y-49499500D01*
X48931007Y-49499500D01*
X48931002Y-49499500D01*
X48825277Y-49520530D01*
X48755685Y-49514303D01*
X48700508Y-49471440D01*
X48677264Y-49405550D01*
X48679469Y-49374721D01*
X48700500Y-49268995D01*
X48700500Y-49187965D01*
X48720185Y-49120926D01*
X48736819Y-49100284D01*
X49100284Y-48736819D01*
X49161607Y-48703334D01*
X49187965Y-48700500D01*
X49268995Y-48700500D01*
X49360041Y-48682389D01*
X49404328Y-48673580D01*
X49531811Y-48620775D01*
X49646542Y-48544114D01*
X49744114Y-48446542D01*
X49820775Y-48331811D01*
X49873580Y-48204328D01*
X49889077Y-48126420D01*
X49900500Y-48068995D01*
X49900500Y-47931004D01*
X49873581Y-47795677D01*
X49873580Y-47795676D01*
X49873580Y-47795672D01*
X49841557Y-47718361D01*
X49820778Y-47668195D01*
X49820771Y-47668182D01*
X49744114Y-47553458D01*
X49744111Y-47553454D01*
X49646545Y-47455888D01*
X49646541Y-47455885D01*
X49531817Y-47379228D01*
X49531804Y-47379221D01*
X49404332Y-47326421D01*
X49404322Y-47326418D01*
X49268995Y-47299500D01*
X49268993Y-47299500D01*
X49131007Y-47299500D01*
X49131005Y-47299500D01*
X48995677Y-47326418D01*
X48995667Y-47326421D01*
X48868195Y-47379221D01*
X48868182Y-47379228D01*
X48753458Y-47455885D01*
X48753454Y-47455888D01*
X48655888Y-47553454D01*
X48655885Y-47553458D01*
X48579228Y-47668182D01*
X48579221Y-47668195D01*
X48526421Y-47795667D01*
X48526418Y-47795677D01*
X48499500Y-47931004D01*
X48499500Y-48012035D01*
X48479815Y-48079074D01*
X48463181Y-48099716D01*
X48099716Y-48463181D01*
X48038393Y-48496666D01*
X48012035Y-48499500D01*
X47931005Y-48499500D01*
X47795677Y-48526418D01*
X47795667Y-48526421D01*
X47668195Y-48579221D01*
X47668182Y-48579228D01*
X47553458Y-48655885D01*
X47553454Y-48655888D01*
X47455888Y-48753454D01*
X47455885Y-48753458D01*
X47379228Y-48868182D01*
X47379221Y-48868195D01*
X47326421Y-48995667D01*
X47326418Y-48995677D01*
X47299500Y-49131004D01*
X47299500Y-49268997D01*
X47320530Y-49374722D01*
X47314303Y-49444313D01*
X47271440Y-49499491D01*
X47205550Y-49522735D01*
X47174722Y-49520530D01*
X47068997Y-49499500D01*
X47068993Y-49499500D01*
X46931007Y-49499500D01*
X46931005Y-49499500D01*
X46795677Y-49526418D01*
X46795667Y-49526421D01*
X46668195Y-49579221D01*
X46668182Y-49579228D01*
X46553458Y-49655885D01*
X46553454Y-49655888D01*
X46455888Y-49753454D01*
X46455885Y-49753458D01*
X46379228Y-49868182D01*
X46379221Y-49868195D01*
X46326421Y-49995667D01*
X46326418Y-49995677D01*
X46299500Y-50131004D01*
X46299500Y-50131007D01*
X46299500Y-50268993D01*
X46299500Y-50268995D01*
X46299499Y-50268995D01*
X44569666Y-50268995D01*
X44566212Y-50258363D01*
X44566209Y-50258355D01*
X44526901Y-50181211D01*
X44526900Y-50181210D01*
X44501320Y-50131007D01*
X44483996Y-50097006D01*
X44410373Y-49995672D01*
X44377558Y-49950505D01*
X44377554Y-49950500D01*
X44249499Y-49822445D01*
X44249494Y-49822441D01*
X44102997Y-49716006D01*
X44102996Y-49716005D01*
X44102994Y-49716004D01*
X44051300Y-49689664D01*
X43941639Y-49633788D01*
X43941636Y-49633787D01*
X43769410Y-49577829D01*
X43609321Y-49552473D01*
X43546186Y-49522544D01*
X43509255Y-49463232D01*
X43510253Y-49393370D01*
X43548863Y-49335137D01*
X43609321Y-49307527D01*
X43679425Y-49296422D01*
X43769409Y-49282171D01*
X43941639Y-49226211D01*
X44102994Y-49143996D01*
X44249501Y-49037553D01*
X44377553Y-48909501D01*
X44406982Y-48868995D01*
X45299499Y-48868995D01*
X45326418Y-49004322D01*
X45326421Y-49004332D01*
X45379221Y-49131804D01*
X45379228Y-49131817D01*
X45455885Y-49246541D01*
X45455888Y-49246545D01*
X45553454Y-49344111D01*
X45553458Y-49344114D01*
X45668182Y-49420771D01*
X45668195Y-49420778D01*
X45795667Y-49473578D01*
X45795672Y-49473580D01*
X45795676Y-49473580D01*
X45795677Y-49473581D01*
X45931004Y-49500500D01*
X45931007Y-49500500D01*
X46068995Y-49500500D01*
X46160041Y-49482389D01*
X46204328Y-49473580D01*
X46331811Y-49420775D01*
X46446542Y-49344114D01*
X46544114Y-49246542D01*
X46620775Y-49131811D01*
X46673580Y-49004328D01*
X46682389Y-48960041D01*
X46700500Y-48868995D01*
X46700500Y-48752609D01*
X46720185Y-48685570D01*
X46736819Y-48664928D01*
X48264928Y-47136819D01*
X48326251Y-47103334D01*
X48352609Y-47100500D01*
X48468995Y-47100500D01*
X48560041Y-47082389D01*
X48604328Y-47073580D01*
X48731811Y-47020775D01*
X48846542Y-46944114D01*
X48944114Y-46846542D01*
X49020775Y-46731811D01*
X49073580Y-46604328D01*
X49087356Y-46535070D01*
X49100500Y-46468995D01*
X49100500Y-46331004D01*
X49073581Y-46195677D01*
X49073580Y-46195676D01*
X49073580Y-46195672D01*
X49073578Y-46195667D01*
X49020778Y-46068195D01*
X49020771Y-46068182D01*
X48944114Y-45953458D01*
X48944111Y-45953454D01*
X48846545Y-45855888D01*
X48846541Y-45855885D01*
X48731817Y-45779228D01*
X48731804Y-45779221D01*
X48604332Y-45726421D01*
X48604322Y-45726418D01*
X48468995Y-45699500D01*
X48468993Y-45699500D01*
X48331007Y-45699500D01*
X48331005Y-45699500D01*
X48195677Y-45726418D01*
X48195667Y-45726421D01*
X48068195Y-45779221D01*
X48068182Y-45779228D01*
X47953458Y-45855885D01*
X47953454Y-45855888D01*
X47855888Y-45953454D01*
X47855885Y-45953458D01*
X47779228Y-46068182D01*
X47779221Y-46068195D01*
X47726421Y-46195667D01*
X47726418Y-46195677D01*
X47699500Y-46331004D01*
X47699500Y-46447389D01*
X47679815Y-46514428D01*
X47663181Y-46535070D01*
X46135070Y-48063181D01*
X46073747Y-48096666D01*
X46047389Y-48099500D01*
X45931005Y-48099500D01*
X45795677Y-48126418D01*
X45795667Y-48126421D01*
X45668195Y-48179221D01*
X45668182Y-48179228D01*
X45553458Y-48255885D01*
X45553454Y-48255888D01*
X45455888Y-48353454D01*
X45455885Y-48353458D01*
X45379228Y-48468182D01*
X45379221Y-48468195D01*
X45326421Y-48595667D01*
X45326418Y-48595677D01*
X45299500Y-48731004D01*
X45299500Y-48731007D01*
X45299500Y-48868993D01*
X45299500Y-48868995D01*
X45299499Y-48868995D01*
X44406982Y-48868995D01*
X44483996Y-48762994D01*
X44556463Y-48620771D01*
X44566209Y-48601644D01*
X44566212Y-48601636D01*
X44622170Y-48429412D01*
X44622170Y-48429411D01*
X44622171Y-48429409D01*
X44626021Y-48405101D01*
X44655951Y-48341967D01*
X44715262Y-48305036D01*
X44748494Y-48300500D01*
X44868995Y-48300500D01*
X44960041Y-48282389D01*
X45004328Y-48273580D01*
X45131811Y-48220775D01*
X45246542Y-48144114D01*
X45344114Y-48046542D01*
X45420775Y-47931811D01*
X45473580Y-47804328D01*
X45500500Y-47668993D01*
X45500500Y-47552609D01*
X45520185Y-47485570D01*
X45536819Y-47464928D01*
X47064928Y-45936819D01*
X47126251Y-45903334D01*
X47152609Y-45900500D01*
X47268995Y-45900500D01*
X47360041Y-45882389D01*
X47404328Y-45873580D01*
X47531811Y-45820775D01*
X47646542Y-45744114D01*
X47744114Y-45646542D01*
X47820775Y-45531811D01*
X47873580Y-45404328D01*
X47887356Y-45335070D01*
X47900500Y-45268995D01*
X47900500Y-45131004D01*
X47873581Y-44995677D01*
X47873580Y-44995676D01*
X47873580Y-44995672D01*
X47873578Y-44995667D01*
X47820778Y-44868195D01*
X47820771Y-44868182D01*
X47744114Y-44753458D01*
X47744111Y-44753454D01*
X47646545Y-44655888D01*
X47646541Y-44655885D01*
X47531817Y-44579228D01*
X47531804Y-44579221D01*
X47404332Y-44526421D01*
X47404322Y-44526418D01*
X47268995Y-44499500D01*
X47268993Y-44499500D01*
X47131007Y-44499500D01*
X47131005Y-44499500D01*
X46995677Y-44526418D01*
X46995667Y-44526421D01*
X46868195Y-44579221D01*
X46868182Y-44579228D01*
X46753458Y-44655885D01*
X46753454Y-44655888D01*
X46655888Y-44753454D01*
X46655885Y-44753458D01*
X46579228Y-44868182D01*
X46579221Y-44868195D01*
X46526421Y-44995667D01*
X46526418Y-44995677D01*
X46499500Y-45131004D01*
X46499500Y-45247389D01*
X46479815Y-45314428D01*
X46463181Y-45335070D01*
X44935070Y-46863181D01*
X44873747Y-46896666D01*
X44847389Y-46899500D01*
X44731005Y-46899500D01*
X44595677Y-46926418D01*
X44595667Y-46926421D01*
X44468195Y-46979221D01*
X44468182Y-46979228D01*
X44353458Y-47055885D01*
X44252935Y-47156408D01*
X44191612Y-47189892D01*
X44121920Y-47184908D01*
X44107503Y-47177884D01*
X44107335Y-47178216D01*
X43941639Y-47093788D01*
X43941636Y-47093787D01*
X43769410Y-47037829D01*
X43609321Y-47012473D01*
X43546186Y-46982544D01*
X43509255Y-46923232D01*
X43510253Y-46853370D01*
X43548863Y-46795137D01*
X43609321Y-46767527D01*
X43679425Y-46756422D01*
X43769409Y-46742171D01*
X43941639Y-46686211D01*
X44102994Y-46603996D01*
X44249501Y-46497553D01*
X44377553Y-46369501D01*
X44483996Y-46222994D01*
X44566211Y-46061639D01*
X44622171Y-45889409D01*
X44639622Y-45779228D01*
X44650500Y-45710551D01*
X44650500Y-45529448D01*
X44630681Y-45404322D01*
X44622171Y-45350591D01*
X44566211Y-45178361D01*
X44566211Y-45178360D01*
X44537740Y-45122484D01*
X44483996Y-45017006D01*
X44468492Y-44995667D01*
X44377558Y-44870505D01*
X44377554Y-44870500D01*
X44249499Y-44742445D01*
X44249494Y-44742441D01*
X44102997Y-44636006D01*
X44102996Y-44636005D01*
X44102994Y-44636004D01*
X44051300Y-44609664D01*
X43941639Y-44553788D01*
X43941636Y-44553787D01*
X43769410Y-44497829D01*
X43609321Y-44472473D01*
X43546186Y-44442544D01*
X43509255Y-44383232D01*
X43510253Y-44313370D01*
X43548863Y-44255137D01*
X43609321Y-44227527D01*
X43679425Y-44216422D01*
X43769409Y-44202171D01*
X43941639Y-44146211D01*
X44102994Y-44063996D01*
X44249501Y-43957553D01*
X44377553Y-43829501D01*
X44483996Y-43682994D01*
X44566211Y-43521639D01*
X44622171Y-43349409D01*
X44636765Y-43257259D01*
X44650500Y-43170551D01*
X44650500Y-42989448D01*
X44634019Y-42885397D01*
X44622171Y-42810591D01*
X44566211Y-42638361D01*
X44566211Y-42638360D01*
X44537740Y-42582484D01*
X44483996Y-42477006D01*
X44431193Y-42404328D01*
X44377558Y-42330505D01*
X44377554Y-42330500D01*
X44316049Y-42268995D01*
X71699499Y-42268995D01*
X71726418Y-42404322D01*
X71726421Y-42404332D01*
X71779221Y-42531804D01*
X71779228Y-42531817D01*
X71855885Y-42646541D01*
X71855888Y-42646545D01*
X71953454Y-42744111D01*
X71953458Y-42744114D01*
X72068182Y-42820771D01*
X72068195Y-42820778D01*
X72195667Y-42873578D01*
X72195672Y-42873580D01*
X72195676Y-42873580D01*
X72195677Y-42873581D01*
X72331004Y-42900500D01*
X72331007Y-42900500D01*
X72468995Y-42900500D01*
X72560041Y-42882389D01*
X72604328Y-42873580D01*
X72731811Y-42820775D01*
X72846542Y-42744114D01*
X72944114Y-42646542D01*
X73020775Y-42531811D01*
X73073580Y-42404328D01*
X73082389Y-42360041D01*
X73100500Y-42268995D01*
X73100500Y-42152608D01*
X73120185Y-42085569D01*
X73136814Y-42064932D01*
X74864927Y-40336818D01*
X74926250Y-40303334D01*
X74952608Y-40300500D01*
X75068995Y-40300500D01*
X75160041Y-40282389D01*
X75204328Y-40273580D01*
X75331811Y-40220775D01*
X75446542Y-40144114D01*
X75544114Y-40046542D01*
X75620775Y-39931811D01*
X75673580Y-39804328D01*
X75687356Y-39735070D01*
X75700500Y-39668995D01*
X75700500Y-39531004D01*
X75673581Y-39395677D01*
X75673580Y-39395676D01*
X75673580Y-39395672D01*
X75657024Y-39355701D01*
X75620778Y-39268195D01*
X75620771Y-39268182D01*
X75544114Y-39153458D01*
X75544111Y-39153454D01*
X75446545Y-39055888D01*
X75446541Y-39055885D01*
X75331817Y-38979228D01*
X75331804Y-38979221D01*
X75204332Y-38926421D01*
X75204322Y-38926418D01*
X75068995Y-38899500D01*
X75068993Y-38899500D01*
X74931007Y-38899500D01*
X74931005Y-38899500D01*
X74795677Y-38926418D01*
X74795667Y-38926421D01*
X74668195Y-38979221D01*
X74668182Y-38979228D01*
X74553458Y-39055885D01*
X74553454Y-39055888D01*
X74455888Y-39153454D01*
X74455885Y-39153458D01*
X74379228Y-39268182D01*
X74379221Y-39268195D01*
X74326421Y-39395667D01*
X74326418Y-39395677D01*
X74299500Y-39531004D01*
X74299500Y-39647389D01*
X74279815Y-39714428D01*
X74263181Y-39735070D01*
X72535070Y-41463181D01*
X72473747Y-41496666D01*
X72447389Y-41499500D01*
X72331005Y-41499500D01*
X72195677Y-41526418D01*
X72195667Y-41526421D01*
X72068195Y-41579221D01*
X72068182Y-41579228D01*
X71953458Y-41655885D01*
X71953454Y-41655888D01*
X71855888Y-41753454D01*
X71855885Y-41753458D01*
X71779228Y-41868182D01*
X71779221Y-41868195D01*
X71726421Y-41995667D01*
X71726418Y-41995677D01*
X71699500Y-42131004D01*
X71699500Y-42131007D01*
X71699500Y-42268993D01*
X71699500Y-42268995D01*
X71699499Y-42268995D01*
X44316049Y-42268995D01*
X44249499Y-42202445D01*
X44249494Y-42202441D01*
X44102997Y-42096006D01*
X44102996Y-42096005D01*
X44102994Y-42096004D01*
X44051300Y-42069664D01*
X43941639Y-42013788D01*
X43941636Y-42013787D01*
X43838387Y-41980240D01*
X43780711Y-41940803D01*
X43753513Y-41876444D01*
X43765428Y-41807598D01*
X43812672Y-41756122D01*
X43838387Y-41744378D01*
X43979835Y-41698418D01*
X44148311Y-41612575D01*
X43573642Y-41037905D01*
X43692993Y-41005925D01*
X43807007Y-40940099D01*
X43900099Y-40847007D01*
X43965925Y-40732993D01*
X43997905Y-40613641D01*
X44572575Y-41188311D01*
X44658418Y-41019835D01*
X44719221Y-40832705D01*
X44750000Y-40638382D01*
X44750000Y-40441617D01*
X44719221Y-40247294D01*
X44658417Y-40060161D01*
X44572576Y-39891687D01*
X44572576Y-39891686D01*
X43997905Y-40466357D01*
X43965925Y-40347007D01*
X43900099Y-40232993D01*
X43807007Y-40139901D01*
X43692993Y-40074075D01*
X43573642Y-40042094D01*
X44148312Y-39467423D01*
X44148312Y-39467422D01*
X43986514Y-39384984D01*
X43935718Y-39337010D01*
X43918922Y-39269189D01*
X43941459Y-39203054D01*
X43996174Y-39159602D01*
X44042806Y-39150499D01*
X44394864Y-39150499D01*
X44394879Y-39150497D01*
X44394882Y-39150497D01*
X44419987Y-39147586D01*
X44419988Y-39147585D01*
X44419991Y-39147585D01*
X44522765Y-39102206D01*
X44602206Y-39022765D01*
X44647585Y-38919991D01*
X44650500Y-38894865D01*
X44650499Y-37105136D01*
X44650212Y-37102658D01*
X44647586Y-37080013D01*
X44647585Y-37080011D01*
X44647585Y-37080009D01*
X44642722Y-37068995D01*
X69899499Y-37068995D01*
X69926418Y-37204322D01*
X69926421Y-37204332D01*
X69979221Y-37331804D01*
X69979228Y-37331817D01*
X70055884Y-37446540D01*
X70055885Y-37446541D01*
X70055886Y-37446542D01*
X70138182Y-37528838D01*
X70171666Y-37590159D01*
X70174500Y-37616518D01*
X70174500Y-38383481D01*
X70154815Y-38450520D01*
X70138181Y-38471162D01*
X70055888Y-38553454D01*
X70055885Y-38553458D01*
X69979228Y-38668182D01*
X69979221Y-38668195D01*
X69926421Y-38795667D01*
X69926418Y-38795677D01*
X69899500Y-38931004D01*
X69899500Y-38931007D01*
X69899500Y-39068993D01*
X69899500Y-39068995D01*
X69899499Y-39068995D01*
X69926418Y-39204322D01*
X69926421Y-39204332D01*
X69979221Y-39331804D01*
X69979228Y-39331817D01*
X70055885Y-39446541D01*
X70055888Y-39446545D01*
X70153454Y-39544111D01*
X70153458Y-39544114D01*
X70268182Y-39620771D01*
X70268195Y-39620778D01*
X70384598Y-39668993D01*
X70395672Y-39673580D01*
X70395676Y-39673580D01*
X70395677Y-39673581D01*
X70531004Y-39700500D01*
X70531007Y-39700500D01*
X70668995Y-39700500D01*
X70760041Y-39682389D01*
X70804328Y-39673580D01*
X70931811Y-39620775D01*
X71046542Y-39544114D01*
X71144114Y-39446542D01*
X71220775Y-39331811D01*
X71273580Y-39204328D01*
X71292470Y-39109361D01*
X71300500Y-39068995D01*
X71300500Y-38931004D01*
X71273581Y-38795677D01*
X71273580Y-38795676D01*
X71273580Y-38795672D01*
X71254117Y-38748684D01*
X71220778Y-38668195D01*
X71220771Y-38668182D01*
X71144114Y-38553458D01*
X71144111Y-38553454D01*
X71061819Y-38471162D01*
X71028334Y-38409839D01*
X71025500Y-38383481D01*
X71025500Y-37616518D01*
X71045185Y-37549479D01*
X71061814Y-37528841D01*
X71144114Y-37446542D01*
X71220717Y-37331898D01*
X105099500Y-37331898D01*
X105099500Y-38668102D01*
X105103103Y-38698107D01*
X105110122Y-38756561D01*
X105165639Y-38897343D01*
X105257077Y-39017922D01*
X105377656Y-39109360D01*
X105377657Y-39109360D01*
X105377658Y-39109361D01*
X105518436Y-39164877D01*
X105606898Y-39175500D01*
X105606903Y-39175500D01*
X106393097Y-39175500D01*
X106393102Y-39175500D01*
X106481564Y-39164877D01*
X106622342Y-39109361D01*
X106742922Y-39017922D01*
X106834361Y-38897342D01*
X106888394Y-38760322D01*
X106931299Y-38705180D01*
X106997207Y-38681987D01*
X107065191Y-38698107D01*
X107109841Y-38744003D01*
X107110426Y-38743613D01*
X107112543Y-38746781D01*
X107113105Y-38747359D01*
X107113808Y-38748675D01*
X107223248Y-38912462D01*
X107223251Y-38912466D01*
X107362533Y-39051748D01*
X107362537Y-39051751D01*
X107526318Y-39161187D01*
X107526321Y-39161188D01*
X107699999Y-39233128D01*
X107700000Y-39233128D01*
X108300000Y-39233128D01*
X108473678Y-39161188D01*
X108473681Y-39161187D01*
X108637462Y-39051751D01*
X108637466Y-39051748D01*
X108776748Y-38912466D01*
X108776751Y-38912462D01*
X108886185Y-38748684D01*
X108886192Y-38748671D01*
X108961569Y-38566693D01*
X108961572Y-38566681D01*
X108999999Y-38373495D01*
X109000000Y-38373492D01*
X109000000Y-38300000D01*
X108300000Y-38300000D01*
X108300000Y-39233128D01*
X107700000Y-39233128D01*
X107700000Y-38230330D01*
X107769745Y-38300075D01*
X107855255Y-38349444D01*
X107950630Y-38375000D01*
X108049370Y-38375000D01*
X108144745Y-38349444D01*
X108230255Y-38300075D01*
X108300075Y-38230255D01*
X108349444Y-38144745D01*
X108375000Y-38049370D01*
X108375000Y-37950630D01*
X108349444Y-37855255D01*
X108300075Y-37769745D01*
X108230330Y-37700000D01*
X108300000Y-37700000D01*
X109000000Y-37700000D01*
X109000000Y-37626508D01*
X108999999Y-37626504D01*
X108961572Y-37433318D01*
X108961569Y-37433306D01*
X108886192Y-37251328D01*
X108886185Y-37251315D01*
X108776751Y-37087537D01*
X108776748Y-37087533D01*
X108637466Y-36948251D01*
X108637462Y-36948248D01*
X108473684Y-36838814D01*
X108473675Y-36838809D01*
X108300000Y-36766871D01*
X108300000Y-37700000D01*
X108230330Y-37700000D01*
X108230255Y-37699925D01*
X108144745Y-37650556D01*
X108049370Y-37625000D01*
X107950630Y-37625000D01*
X107855255Y-37650556D01*
X107769745Y-37699925D01*
X107700000Y-37769670D01*
X107700000Y-36766871D01*
X107699999Y-36766871D01*
X107526324Y-36838809D01*
X107526315Y-36838814D01*
X107362537Y-36948248D01*
X107362533Y-36948251D01*
X107223251Y-37087533D01*
X107223248Y-37087537D01*
X107113810Y-37251321D01*
X107113102Y-37252647D01*
X107112548Y-37253210D01*
X107110426Y-37256387D01*
X107109823Y-37255984D01*
X107064136Y-37302487D01*
X106995997Y-37317942D01*
X106930319Y-37294106D01*
X106888394Y-37239677D01*
X106834361Y-37102658D01*
X106834360Y-37102657D01*
X106834360Y-37102656D01*
X106742922Y-36982077D01*
X106622343Y-36890639D01*
X106518021Y-36849500D01*
X106481564Y-36835123D01*
X106481563Y-36835122D01*
X106481561Y-36835122D01*
X106435926Y-36829642D01*
X106393102Y-36824500D01*
X105606898Y-36824500D01*
X105567853Y-36829188D01*
X105518438Y-36835122D01*
X105377656Y-36890639D01*
X105257077Y-36982077D01*
X105165639Y-37102656D01*
X105110122Y-37243438D01*
X105105644Y-37280737D01*
X105099500Y-37331898D01*
X71220717Y-37331898D01*
X71220775Y-37331811D01*
X71273580Y-37204328D01*
X71282389Y-37160041D01*
X71300500Y-37068995D01*
X71300500Y-36931004D01*
X71273581Y-36795677D01*
X71273580Y-36795676D01*
X71273580Y-36795672D01*
X71261650Y-36766871D01*
X71220778Y-36668195D01*
X71220771Y-36668182D01*
X71144114Y-36553458D01*
X71144111Y-36553454D01*
X71046545Y-36455888D01*
X71046541Y-36455885D01*
X70931817Y-36379228D01*
X70931804Y-36379221D01*
X70804332Y-36326421D01*
X70804322Y-36326418D01*
X70668995Y-36299500D01*
X70668993Y-36299500D01*
X70531007Y-36299500D01*
X70531005Y-36299500D01*
X70395677Y-36326418D01*
X70395667Y-36326421D01*
X70268195Y-36379221D01*
X70268182Y-36379228D01*
X70153458Y-36455885D01*
X70153454Y-36455888D01*
X70055888Y-36553454D01*
X70055885Y-36553458D01*
X69979228Y-36668182D01*
X69979221Y-36668195D01*
X69926421Y-36795667D01*
X69926418Y-36795677D01*
X69899500Y-36931004D01*
X69899500Y-36931007D01*
X69899500Y-37068993D01*
X69899500Y-37068995D01*
X69899499Y-37068995D01*
X44642722Y-37068995D01*
X44602206Y-36977235D01*
X44522765Y-36897794D01*
X44522763Y-36897793D01*
X44419992Y-36852415D01*
X44394865Y-36849500D01*
X42605143Y-36849500D01*
X42605117Y-36849502D01*
X42580012Y-36852413D01*
X42580008Y-36852415D01*
X42477235Y-36897793D01*
X42397794Y-36977234D01*
X42352415Y-37080006D01*
X42352415Y-37080008D01*
X42349500Y-37105131D01*
X42349500Y-38894856D01*
X42349502Y-38894882D01*
X42352413Y-38919987D01*
X42352415Y-38919991D01*
X42397793Y-39022764D01*
X42397794Y-39022765D01*
X42477235Y-39102206D01*
X42580009Y-39147585D01*
X42605135Y-39150500D01*
X42957192Y-39150499D01*
X43024229Y-39170183D01*
X43069984Y-39222987D01*
X43079928Y-39292146D01*
X43050903Y-39355701D01*
X43013484Y-39384984D01*
X42851686Y-39467422D01*
X43426358Y-40042094D01*
X43307007Y-40074075D01*
X43192993Y-40139901D01*
X43099901Y-40232993D01*
X43034075Y-40347007D01*
X43002094Y-40466358D01*
X42427422Y-39891686D01*
X42341583Y-40060159D01*
X42341579Y-40060169D01*
X42280778Y-40247294D01*
X42250000Y-40441617D01*
X30400000Y-40441617D01*
X30400000Y-33393713D01*
X32149500Y-33393713D01*
X32149500Y-33606286D01*
X32182753Y-33816239D01*
X32248444Y-34018414D01*
X32344951Y-34207820D01*
X32469890Y-34379786D01*
X32620213Y-34530109D01*
X32792179Y-34655048D01*
X32792181Y-34655049D01*
X32792184Y-34655051D01*
X32981588Y-34751557D01*
X33183757Y-34817246D01*
X33393713Y-34850500D01*
X33393714Y-34850500D01*
X33606286Y-34850500D01*
X33606287Y-34850500D01*
X33816243Y-34817246D01*
X34018412Y-34751557D01*
X34207816Y-34655051D01*
X34229789Y-34639086D01*
X34379786Y-34530109D01*
X34379788Y-34530106D01*
X34379792Y-34530104D01*
X34530104Y-34379792D01*
X34530106Y-34379788D01*
X34530109Y-34379786D01*
X34655048Y-34207820D01*
X34655047Y-34207820D01*
X34655051Y-34207816D01*
X34751557Y-34018412D01*
X34817246Y-33816243D01*
X34850500Y-33606287D01*
X34850500Y-33393713D01*
X113649500Y-33393713D01*
X113649500Y-33606286D01*
X113682753Y-33816239D01*
X113748444Y-34018414D01*
X113844951Y-34207820D01*
X113969890Y-34379786D01*
X114120213Y-34530109D01*
X114292179Y-34655048D01*
X114292181Y-34655049D01*
X114292184Y-34655051D01*
X114481588Y-34751557D01*
X114683757Y-34817246D01*
X114893713Y-34850500D01*
X114893714Y-34850500D01*
X115106286Y-34850500D01*
X115106287Y-34850500D01*
X115316243Y-34817246D01*
X115518412Y-34751557D01*
X115707816Y-34655051D01*
X115729789Y-34639086D01*
X115879786Y-34530109D01*
X115879788Y-34530106D01*
X115879792Y-34530104D01*
X116030104Y-34379792D01*
X116030106Y-34379788D01*
X116030109Y-34379786D01*
X116155048Y-34207820D01*
X116155047Y-34207820D01*
X116155051Y-34207816D01*
X116251557Y-34018412D01*
X116317246Y-33816243D01*
X116350500Y-33606287D01*
X116350500Y-33393713D01*
X116317246Y-33183757D01*
X116251557Y-32981588D01*
X116155051Y-32792184D01*
X116155049Y-32792181D01*
X116155048Y-32792179D01*
X116030109Y-32620213D01*
X115879786Y-32469890D01*
X115707820Y-32344951D01*
X115518414Y-32248444D01*
X115518413Y-32248443D01*
X115518412Y-32248443D01*
X115316243Y-32182754D01*
X115316241Y-32182753D01*
X115316240Y-32182753D01*
X115154957Y-32157208D01*
X115106287Y-32149500D01*
X114893713Y-32149500D01*
X114845042Y-32157208D01*
X114683760Y-32182753D01*
X114481585Y-32248444D01*
X114292179Y-32344951D01*
X114120213Y-32469890D01*
X113969890Y-32620213D01*
X113844951Y-32792179D01*
X113748444Y-32981585D01*
X113682753Y-33183760D01*
X113649500Y-33393713D01*
X34850500Y-33393713D01*
X34817246Y-33183757D01*
X34751557Y-32981588D01*
X34655051Y-32792184D01*
X34655049Y-32792181D01*
X34655048Y-32792179D01*
X34530109Y-32620213D01*
X34379786Y-32469890D01*
X34207820Y-32344951D01*
X34018414Y-32248444D01*
X34018413Y-32248443D01*
X34018412Y-32248443D01*
X33816243Y-32182754D01*
X33816241Y-32182753D01*
X33816240Y-32182753D01*
X33654957Y-32157208D01*
X33606287Y-32149500D01*
X33393713Y-32149500D01*
X33345042Y-32157208D01*
X33183760Y-32182753D01*
X32981585Y-32248444D01*
X32792179Y-32344951D01*
X32620213Y-32469890D01*
X32469890Y-32620213D01*
X32344951Y-32792179D01*
X32248444Y-32981585D01*
X32182753Y-33183760D01*
X32149500Y-33393713D01*
X30400000Y-33393713D01*
X30400000Y-30908125D01*
X30401061Y-30891940D01*
X30414906Y-30786776D01*
X30423284Y-30755508D01*
X30460740Y-30665081D01*
X30476923Y-30637050D01*
X30536513Y-30559392D01*
X30559392Y-30536513D01*
X30637050Y-30476923D01*
X30665079Y-30460740D01*
X30755509Y-30423283D01*
X30786775Y-30414906D01*
X30891941Y-30401061D01*
X30908126Y-30400000D01*
X119091874Y-30400000D01*
X119108059Y-30401061D01*
G37*
%TD.AperFunction*%
%TD*%
%TA.AperFunction,NonConductor*%
G36*
X48250520Y-58045185D02*
G01*
X48271162Y-58061819D01*
X48321662Y-58112319D01*
X48355147Y-58173642D01*
X48350163Y-58243334D01*
X48321662Y-58287681D01*
X48271162Y-58338181D01*
X48209839Y-58371666D01*
X48183481Y-58374500D01*
X47416519Y-58374500D01*
X47349480Y-58354815D01*
X47328838Y-58338181D01*
X47278338Y-58287681D01*
X47244853Y-58226358D01*
X47249837Y-58156666D01*
X47278338Y-58112319D01*
X47328838Y-58061819D01*
X47390161Y-58028334D01*
X47416519Y-58025500D01*
X48183481Y-58025500D01*
X48250520Y-58045185D01*
G37*
%TD.AperFunction*%
%TA.AperFunction,NonConductor*%
G36*
X103650520Y-68845185D02*
G01*
X103671162Y-68861819D01*
X103753454Y-68944111D01*
X103753458Y-68944114D01*
X103868182Y-69020771D01*
X103868195Y-69020778D01*
X103978915Y-69066639D01*
X103995672Y-69073580D01*
X103995676Y-69073580D01*
X103995677Y-69073581D01*
X104019816Y-69078383D01*
X104081727Y-69110768D01*
X104116301Y-69171484D01*
X104112561Y-69241254D01*
X104071694Y-69297925D01*
X104019816Y-69321617D01*
X103995677Y-69326418D01*
X103995667Y-69326421D01*
X103868195Y-69379221D01*
X103868182Y-69379228D01*
X103753458Y-69455885D01*
X103753454Y-69455888D01*
X103671162Y-69538181D01*
X103609839Y-69571666D01*
X103583481Y-69574500D01*
X102816519Y-69574500D01*
X102749480Y-69554815D01*
X102728838Y-69538181D01*
X102646545Y-69455888D01*
X102646541Y-69455885D01*
X102531817Y-69379228D01*
X102531804Y-69379221D01*
X102404332Y-69326421D01*
X102404320Y-69326418D01*
X102380184Y-69321617D01*
X102318273Y-69289232D01*
X102283699Y-69228517D01*
X102287438Y-69158747D01*
X102328304Y-69102075D01*
X102380184Y-69078383D01*
X102390277Y-69076374D01*
X102404328Y-69073580D01*
X102531811Y-69020775D01*
X102646542Y-68944114D01*
X102664238Y-68926418D01*
X102728838Y-68861819D01*
X102790161Y-68828334D01*
X102816519Y-68825500D01*
X103583481Y-68825500D01*
X103650520Y-68845185D01*
G37*
%TD.AperFunction*%
%TA.AperFunction,NonConductor*%
G36*
X103650520Y-70445185D02*
G01*
X103671162Y-70461819D01*
X103721662Y-70512319D01*
X103755147Y-70573642D01*
X103750163Y-70643334D01*
X103721662Y-70687681D01*
X103671162Y-70738181D01*
X103609839Y-70771666D01*
X103583481Y-70774500D01*
X102816519Y-70774500D01*
X102749480Y-70754815D01*
X102728838Y-70738181D01*
X102678338Y-70687681D01*
X102644853Y-70626358D01*
X102649837Y-70556666D01*
X102678338Y-70512319D01*
X102728838Y-70461819D01*
X102790161Y-70428334D01*
X102816519Y-70425500D01*
X103583481Y-70425500D01*
X103650520Y-70445185D01*
G37*
%TD.AperFunction*%
%TA.AperFunction,NonConductor*%
G36*
X103650520Y-71645185D02*
G01*
X103671162Y-71661819D01*
X103721662Y-71712319D01*
X103755147Y-71773642D01*
X103750163Y-71843334D01*
X103721662Y-71887681D01*
X103671162Y-71938181D01*
X103609839Y-71971666D01*
X103583481Y-71974500D01*
X102816519Y-71974500D01*
X102749480Y-71954815D01*
X102728838Y-71938181D01*
X102678338Y-71887681D01*
X102644853Y-71826358D01*
X102649837Y-71756666D01*
X102678338Y-71712319D01*
X102728838Y-71661819D01*
X102790161Y-71628334D01*
X102816519Y-71625500D01*
X103583481Y-71625500D01*
X103650520Y-71645185D01*
G37*
%TD.AperFunction*%
M02*
