M48
; DRILL file KiCad 10.0.5 date 2026-09-03T20:20:10
; FORMAT={-:-/ absolute / metric / decimal}
; #@! TF.CreationDate,2026-09-03T20:20:10+02:00
; #@! TF.GenerationSoftware,Kicad,Pcbnew,10.0.5
; #@! TF.FileFunction,Plated,1,2,PTH
FMAT,2
METRIC
; #@! TA.AperFunction,Plated,PTH,ComponentDrill
T1C0.300
; #@! TA.AperFunction,Plated,PTH,ViaDrill
T2C0.400
; #@! TA.AperFunction,Plated,PTH,ComponentDrill
T3C0.750
; #@! TA.AperFunction,Plated,PTH,ComponentDrill
T4C0.800
; #@! TA.AperFunction,Plated,PTH,ComponentDrill
T5C0.950
; #@! TA.AperFunction,Plated,PTH,ComponentDrill
T6C1.000
; #@! TA.AperFunction,Plated,PTH,ComponentDrill
T7C1.500
%
G90
G05
T1
X68.94Y-76.15
X68.94Y-77.25
X69.49Y-75.6
X69.49Y-76.7
X69.49Y-77.8
X70.04Y-76.15
X70.04Y-77.25
X70.59Y-75.6
X70.59Y-76.7
X70.59Y-77.8
X71.14Y-76.15
X71.14Y-77.25
T2
X32.6Y-72.6
X34.2Y-58.2
X34.2Y-66.2
X37.8Y-75.8
X38.8Y-69.8
X42.4Y-80.0
X43.4Y-53.0
X43.4Y-66.6
X43.6Y-81.2
X43.8Y-34.2
X44.8Y-47.6
X45.2Y-68.4
X45.4Y-40.6
X45.4Y-65.8
X45.4Y-72.8
X46.0Y-48.8
X46.6Y-67.0
X46.8Y-57.6
X46.8Y-58.8
X46.8Y-60.8
X47.0Y-50.2
X47.2Y-45.2
X48.0Y-49.2
X48.4Y-46.4
X48.8Y-57.6
X48.8Y-58.8
X48.8Y-60.8
X49.0Y-50.2
X49.0Y-66.4
X49.2Y-48.0
X49.4Y-70.2
X49.8Y-81.8
X50.2Y-34.2
X50.2Y-74.2
X50.6Y-61.4
X50.8Y-43.8
X50.8Y-46.2
X50.8Y-71.6
X51.0Y-50.0
X51.8Y-42.2
X52.2Y-71.6
X53.0Y-74.2
X53.8Y-67.2
X53.8Y-71.6
X53.8Y-75.8
X55.6Y-76.2
X55.8Y-52.4
X55.8Y-53.8
X55.8Y-67.2
X56.0Y-78.0
X56.4Y-57.8
X57.0Y-51.2
X57.8Y-71.8
X58.2Y-34.2
X58.2Y-42.2
X58.2Y-57.4
X58.4Y-76.0
X58.4Y-79.0
X58.6Y-66.2
X58.6Y-70.6
X59.2Y-59.6
X59.2Y-77.0
X59.8Y-50.2
X59.8Y-65.0
X60.0Y-78.2
X60.4Y-58.4
X60.6Y-70.6
X60.6Y-75.6
X61.4Y-56.6
X61.8Y-38.8
X61.8Y-65.6
X61.8Y-67.6
X61.8Y-69.6
X61.8Y-72.2
X65.8Y-38.8
X65.8Y-42.2
X66.0Y-50.0
X66.2Y-34.2
X67.8Y-58.2
X70.6Y-37.0
X70.6Y-39.0
X70.6Y-40.6
X70.6Y-41.6
X70.8Y-44.8
X71.0Y-40.0
X71.8Y-62.8
X72.4Y-42.2
X73.0Y-65.0
X74.0Y-35.8
X74.2Y-34.2
X74.2Y-50.2
X74.2Y-58.2
X75.0Y-39.6
X75.8Y-44.6
X76.8Y-62.8
X77.6Y-41.2
X80.0Y-70.6
X81.0Y-41.0
X81.0Y-65.0
X81.4Y-81.2
X81.8Y-44.8
X82.2Y-34.2
X82.2Y-50.2
X82.2Y-58.2
X82.4Y-73.0
X82.8Y-80.4
X85.4Y-69.4
X85.8Y-44.8
X86.6Y-73.4
X86.6Y-76.2
X86.8Y-68.0
X87.0Y-72.4
X87.4Y-75.4
X87.4Y-78.4
X87.4Y-81.6
X87.4Y-83.6
X88.4Y-69.8
X88.4Y-71.0
X88.6Y-85.4
X89.4Y-75.4
X89.4Y-78.4
X89.8Y-41.8
X90.0Y-67.6
X90.0Y-69.2
X90.2Y-34.2
X90.2Y-50.2
X90.2Y-58.2
X90.4Y-72.0
X90.8Y-80.4
X91.6Y-66.0
X91.8Y-70.2
X93.4Y-70.4
X93.4Y-73.6
X95.0Y-84.8
X95.4Y-67.2
X95.4Y-70.0
X97.4Y-49.4
X97.4Y-76.6
X97.6Y-72.0
X97.6Y-73.6
X98.0Y-84.8
X98.2Y-34.2
X98.2Y-58.2
X98.2Y-66.2
X99.4Y-43.8
X100.8Y-83.8
X100.8Y-87.4
X101.6Y-81.6
X102.2Y-54.6
X102.2Y-68.4
X102.2Y-70.0
X102.2Y-71.2
X102.2Y-72.4
X102.2Y-79.4
X104.2Y-54.6
X104.2Y-68.4
X104.2Y-70.0
X104.2Y-71.2
X104.2Y-72.4
X104.2Y-79.4
X105.4Y-49.2
X105.6Y-76.4
X106.2Y-34.2
X106.2Y-42.2
X106.2Y-59.8
X106.2Y-66.2
X106.2Y-85.2
X107.6Y-86.6
X108.8Y-56.8
X109.4Y-81.4
X109.4Y-85.8
X113.8Y-36.2
X114.2Y-42.2
X114.2Y-50.2
X114.2Y-58.2
X117.0Y-65.6
X117.2Y-72.8
X117.2Y-80.8
T3
X106.0Y-38.0
X108.0Y-38.0
T4
X102.0Y-52.0
X104.0Y-52.0
X106.0Y-52.0
T5
X114.0Y-68.5
X114.0Y-71.0
X114.0Y-73.5
X114.0Y-76.0
X114.0Y-78.5
X114.0Y-81.0
X114.0Y-83.5
X114.0Y-86.0
T6
X34.0Y-85.0
X36.5Y-85.0
X42.0Y-60.0
X43.5Y-38.0
X43.5Y-40.54
X43.5Y-43.08
X43.5Y-45.62
X43.5Y-48.16
X43.5Y-50.7
X44.5Y-60.0
T7
X99.9Y-52.0
X108.1Y-52.0
M30
