%TF.GenerationSoftware,KiCad,Pcbnew,10.0.5*%
%TF.CreationDate,2026-09-03T17:38:49+02:00*%
%TF.ProjectId,flappy-esp32c3,666c6170-7079-42d6-9573-70333263332e,A*%
%TF.SameCoordinates,Original*%
%TF.FileFunction,Legend,Top*%
%TF.FilePolarity,Positive*%
%FSLAX46Y46*%
G04 Gerber Fmt 4.6, Leading zero omitted, Abs format (unit mm)*
G04 Created by KiCad (PCBNEW 10.0.5) date 2026-09-03 17:38:49*
%MOMM*%
%LPD*%
G01*
G04 APERTURE LIST*
G04 Aperture macros list*
%AMRoundRect*
0 Rectangle with rounded corners*
0 $1 Rounding radius*
0 $2 $3 $4 $5 $6 $7 $8 $9 X,Y pos of 4 corners*
0 Add a 4 corners polygon primitive as box body*
4,1,4,$2,$3,$4,$5,$6,$7,$8,$9,$2,$3,0*
0 Add four circle primitives for the rounded corners*
1,1,$1+$1,$2,$3*
1,1,$1+$1,$4,$5*
1,1,$1+$1,$6,$7*
1,1,$1+$1,$8,$9*
0 Add four rect primitives between the rounded corners*
20,1,$1+$1,$2,$3,$4,$5,0*
20,1,$1+$1,$4,$5,$6,$7,0*
20,1,$1+$1,$6,$7,$8,$9,0*
20,1,$1+$1,$8,$9,$2,$3,0*%
G04 Aperture macros list end*
%ADD10C,0.128000*%
%ADD11C,0.144000*%
%ADD12C,0.176000*%
%ADD13C,0.130000*%
%ADD14C,0.120000*%
%ADD15RoundRect,0.250000X-0.350000X-0.450000X0.350000X-0.450000X0.350000X0.450000X-0.350000X0.450000X0*%
%ADD16C,2.200000*%
%ADD17C,1.500000*%
%ADD18RoundRect,0.250000X-0.337500X-0.475000X0.337500X-0.475000X0.337500X0.475000X-0.337500X0.475000X0*%
%ADD19RoundRect,0.162500X-0.617500X-0.162500X0.617500X-0.162500X0.617500X0.162500X-0.617500X0.162500X0*%
%ADD20RoundRect,0.250000X-0.600000X-0.725000X0.600000X-0.725000X0.600000X0.725000X-0.600000X0.725000X0*%
%ADD21O,1.700000X1.950000*%
%ADD22RoundRect,0.250000X-0.600000X-0.750000X0.600000X-0.750000X0.600000X0.750000X-0.600000X0.750000X0*%
%ADD23O,1.700000X2.000000*%
%ADD24RoundRect,0.250000X-0.350000X-0.625000X0.350000X-0.625000X0.350000X0.625000X-0.350000X0.625000X0*%
%ADD25O,1.200000X1.750000*%
%ADD26O,2.200000X3.500000*%
%ADD27R,1.500000X2.500000*%
%ADD28O,1.500000X2.500000*%
%ADD29RoundRect,0.250000X-0.325000X-0.450000X0.325000X-0.450000X0.325000X0.450000X-0.325000X0.450000X0*%
%ADD30R,2.500000X0.900000*%
%ADD31C,0.700000*%
%ADD32R,2.900000X2.900000*%
%ADD33R,1.700000X1.700000*%
%ADD34C,1.700000*%
%ADD35RoundRect,0.225000X-0.225000X-0.375000X0.225000X-0.375000X0.225000X0.375000X-0.225000X0.375000X0*%
G04 APERTURE END LIST*
D10*
X31774686Y-55963439D02*
X31774686Y-55163439D01*
X31774686Y-55163439D02*
X32079448Y-55163439D01*
X32079448Y-55163439D02*
X32155638Y-55201534D01*
X32155638Y-55201534D02*
X32193733Y-55239629D01*
X32193733Y-55239629D02*
X32231829Y-55315820D01*
X32231829Y-55315820D02*
X32231829Y-55430105D01*
X32231829Y-55430105D02*
X32193733Y-55506296D01*
X32193733Y-55506296D02*
X32155638Y-55544391D01*
X32155638Y-55544391D02*
X32079448Y-55582486D01*
X32079448Y-55582486D02*
X31774686Y-55582486D01*
X32574686Y-55963439D02*
X32574686Y-55163439D01*
X32955638Y-55544391D02*
X33222304Y-55544391D01*
X33336590Y-55963439D02*
X32955638Y-55963439D01*
X32955638Y-55963439D02*
X32955638Y-55163439D01*
X32955638Y-55163439D02*
X33336590Y-55163439D01*
X33603257Y-55163439D02*
X34136591Y-55163439D01*
X34136591Y-55163439D02*
X33603257Y-55963439D01*
X33603257Y-55963439D02*
X34136591Y-55963439D01*
X34593734Y-55163439D02*
X34746115Y-55163439D01*
X34746115Y-55163439D02*
X34822305Y-55201534D01*
X34822305Y-55201534D02*
X34898496Y-55277724D01*
X34898496Y-55277724D02*
X34936591Y-55430105D01*
X34936591Y-55430105D02*
X34936591Y-55696772D01*
X34936591Y-55696772D02*
X34898496Y-55849153D01*
X34898496Y-55849153D02*
X34822305Y-55925344D01*
X34822305Y-55925344D02*
X34746115Y-55963439D01*
X34746115Y-55963439D02*
X34593734Y-55963439D01*
X34593734Y-55963439D02*
X34517543Y-55925344D01*
X34517543Y-55925344D02*
X34441353Y-55849153D01*
X34441353Y-55849153D02*
X34403257Y-55696772D01*
X34403257Y-55696772D02*
X34403257Y-55430105D01*
X34403257Y-55430105D02*
X34441353Y-55277724D01*
X34441353Y-55277724D02*
X34517543Y-55201534D01*
X34517543Y-55201534D02*
X34593734Y-55163439D01*
X31660400Y-78163439D02*
X32117543Y-78163439D01*
X31888971Y-78963439D02*
X31888971Y-78163439D01*
X32346114Y-78734867D02*
X32727067Y-78734867D01*
X32269924Y-78963439D02*
X32536591Y-78163439D01*
X32536591Y-78163439D02*
X32803257Y-78963439D01*
X33031828Y-78925344D02*
X33146114Y-78963439D01*
X33146114Y-78963439D02*
X33336590Y-78963439D01*
X33336590Y-78963439D02*
X33412781Y-78925344D01*
X33412781Y-78925344D02*
X33450876Y-78887248D01*
X33450876Y-78887248D02*
X33488971Y-78811058D01*
X33488971Y-78811058D02*
X33488971Y-78734867D01*
X33488971Y-78734867D02*
X33450876Y-78658677D01*
X33450876Y-78658677D02*
X33412781Y-78620582D01*
X33412781Y-78620582D02*
X33336590Y-78582486D01*
X33336590Y-78582486D02*
X33184209Y-78544391D01*
X33184209Y-78544391D02*
X33108019Y-78506296D01*
X33108019Y-78506296D02*
X33069924Y-78468201D01*
X33069924Y-78468201D02*
X33031828Y-78392010D01*
X33031828Y-78392010D02*
X33031828Y-78315820D01*
X33031828Y-78315820D02*
X33069924Y-78239629D01*
X33069924Y-78239629D02*
X33108019Y-78201534D01*
X33108019Y-78201534D02*
X33184209Y-78163439D01*
X33184209Y-78163439D02*
X33374686Y-78163439D01*
X33374686Y-78163439D02*
X33488971Y-78201534D01*
X33717543Y-78163439D02*
X34174686Y-78163439D01*
X33946114Y-78963439D02*
X33946114Y-78163439D01*
X34441353Y-78544391D02*
X34708019Y-78544391D01*
X34822305Y-78963439D02*
X34441353Y-78963439D01*
X34441353Y-78963439D02*
X34441353Y-78163439D01*
X34441353Y-78163439D02*
X34822305Y-78163439D01*
X35622306Y-78963439D02*
X35355639Y-78582486D01*
X35165163Y-78963439D02*
X35165163Y-78163439D01*
X35165163Y-78163439D02*
X35469925Y-78163439D01*
X35469925Y-78163439D02*
X35546115Y-78201534D01*
X35546115Y-78201534D02*
X35584210Y-78239629D01*
X35584210Y-78239629D02*
X35622306Y-78315820D01*
X35622306Y-78315820D02*
X35622306Y-78430105D01*
X35622306Y-78430105D02*
X35584210Y-78506296D01*
X35584210Y-78506296D02*
X35546115Y-78544391D01*
X35546115Y-78544391D02*
X35469925Y-78582486D01*
X35469925Y-78582486D02*
X35165163Y-78582486D01*
X45460400Y-37563439D02*
X45727067Y-38363439D01*
X45727067Y-38363439D02*
X45993733Y-37563439D01*
X46527066Y-37944391D02*
X46641352Y-37982486D01*
X46641352Y-37982486D02*
X46679447Y-38020582D01*
X46679447Y-38020582D02*
X46717543Y-38096772D01*
X46717543Y-38096772D02*
X46717543Y-38211058D01*
X46717543Y-38211058D02*
X46679447Y-38287248D01*
X46679447Y-38287248D02*
X46641352Y-38325344D01*
X46641352Y-38325344D02*
X46565162Y-38363439D01*
X46565162Y-38363439D02*
X46260400Y-38363439D01*
X46260400Y-38363439D02*
X46260400Y-37563439D01*
X46260400Y-37563439D02*
X46527066Y-37563439D01*
X46527066Y-37563439D02*
X46603257Y-37601534D01*
X46603257Y-37601534D02*
X46641352Y-37639629D01*
X46641352Y-37639629D02*
X46679447Y-37715820D01*
X46679447Y-37715820D02*
X46679447Y-37792010D01*
X46679447Y-37792010D02*
X46641352Y-37868201D01*
X46641352Y-37868201D02*
X46603257Y-37906296D01*
X46603257Y-37906296D02*
X46527066Y-37944391D01*
X46527066Y-37944391D02*
X46260400Y-37944391D01*
X47060400Y-37563439D02*
X47060400Y-38211058D01*
X47060400Y-38211058D02*
X47098495Y-38287248D01*
X47098495Y-38287248D02*
X47136590Y-38325344D01*
X47136590Y-38325344D02*
X47212781Y-38363439D01*
X47212781Y-38363439D02*
X47365162Y-38363439D01*
X47365162Y-38363439D02*
X47441352Y-38325344D01*
X47441352Y-38325344D02*
X47479447Y-38287248D01*
X47479447Y-38287248D02*
X47517543Y-38211058D01*
X47517543Y-38211058D02*
X47517543Y-37563439D01*
X47860399Y-38325344D02*
X47974685Y-38363439D01*
X47974685Y-38363439D02*
X48165161Y-38363439D01*
X48165161Y-38363439D02*
X48241352Y-38325344D01*
X48241352Y-38325344D02*
X48279447Y-38287248D01*
X48279447Y-38287248D02*
X48317542Y-38211058D01*
X48317542Y-38211058D02*
X48317542Y-38134867D01*
X48317542Y-38134867D02*
X48279447Y-38058677D01*
X48279447Y-38058677D02*
X48241352Y-38020582D01*
X48241352Y-38020582D02*
X48165161Y-37982486D01*
X48165161Y-37982486D02*
X48012780Y-37944391D01*
X48012780Y-37944391D02*
X47936590Y-37906296D01*
X47936590Y-37906296D02*
X47898495Y-37868201D01*
X47898495Y-37868201D02*
X47860399Y-37792010D01*
X47860399Y-37792010D02*
X47860399Y-37715820D01*
X47860399Y-37715820D02*
X47898495Y-37639629D01*
X47898495Y-37639629D02*
X47936590Y-37601534D01*
X47936590Y-37601534D02*
X48012780Y-37563439D01*
X48012780Y-37563439D02*
X48203257Y-37563439D01*
X48203257Y-37563439D02*
X48317542Y-37601534D01*
X45993733Y-40141534D02*
X45917543Y-40103439D01*
X45917543Y-40103439D02*
X45803257Y-40103439D01*
X45803257Y-40103439D02*
X45688971Y-40141534D01*
X45688971Y-40141534D02*
X45612781Y-40217724D01*
X45612781Y-40217724D02*
X45574686Y-40293915D01*
X45574686Y-40293915D02*
X45536590Y-40446296D01*
X45536590Y-40446296D02*
X45536590Y-40560582D01*
X45536590Y-40560582D02*
X45574686Y-40712963D01*
X45574686Y-40712963D02*
X45612781Y-40789153D01*
X45612781Y-40789153D02*
X45688971Y-40865344D01*
X45688971Y-40865344D02*
X45803257Y-40903439D01*
X45803257Y-40903439D02*
X45879448Y-40903439D01*
X45879448Y-40903439D02*
X45993733Y-40865344D01*
X45993733Y-40865344D02*
X46031829Y-40827248D01*
X46031829Y-40827248D02*
X46031829Y-40560582D01*
X46031829Y-40560582D02*
X45879448Y-40560582D01*
X46374686Y-40903439D02*
X46374686Y-40103439D01*
X46374686Y-40103439D02*
X46831829Y-40903439D01*
X46831829Y-40903439D02*
X46831829Y-40103439D01*
X47212781Y-40903439D02*
X47212781Y-40103439D01*
X47212781Y-40103439D02*
X47403257Y-40103439D01*
X47403257Y-40103439D02*
X47517543Y-40141534D01*
X47517543Y-40141534D02*
X47593733Y-40217724D01*
X47593733Y-40217724D02*
X47631828Y-40293915D01*
X47631828Y-40293915D02*
X47669924Y-40446296D01*
X47669924Y-40446296D02*
X47669924Y-40560582D01*
X47669924Y-40560582D02*
X47631828Y-40712963D01*
X47631828Y-40712963D02*
X47593733Y-40789153D01*
X47593733Y-40789153D02*
X47517543Y-40865344D01*
X47517543Y-40865344D02*
X47403257Y-40903439D01*
X47403257Y-40903439D02*
X47212781Y-40903439D01*
X45574686Y-43443439D02*
X45574686Y-42643439D01*
X45574686Y-42643439D02*
X45765162Y-42643439D01*
X45765162Y-42643439D02*
X45879448Y-42681534D01*
X45879448Y-42681534D02*
X45955638Y-42757724D01*
X45955638Y-42757724D02*
X45993733Y-42833915D01*
X45993733Y-42833915D02*
X46031829Y-42986296D01*
X46031829Y-42986296D02*
X46031829Y-43100582D01*
X46031829Y-43100582D02*
X45993733Y-43252963D01*
X45993733Y-43252963D02*
X45955638Y-43329153D01*
X45955638Y-43329153D02*
X45879448Y-43405344D01*
X45879448Y-43405344D02*
X45765162Y-43443439D01*
X45765162Y-43443439D02*
X45574686Y-43443439D01*
X46374686Y-43138677D02*
X46984210Y-43138677D01*
X45574686Y-45983439D02*
X45574686Y-45183439D01*
X45574686Y-45183439D02*
X45765162Y-45183439D01*
X45765162Y-45183439D02*
X45879448Y-45221534D01*
X45879448Y-45221534D02*
X45955638Y-45297724D01*
X45955638Y-45297724D02*
X45993733Y-45373915D01*
X45993733Y-45373915D02*
X46031829Y-45526296D01*
X46031829Y-45526296D02*
X46031829Y-45640582D01*
X46031829Y-45640582D02*
X45993733Y-45792963D01*
X45993733Y-45792963D02*
X45955638Y-45869153D01*
X45955638Y-45869153D02*
X45879448Y-45945344D01*
X45879448Y-45945344D02*
X45765162Y-45983439D01*
X45765162Y-45983439D02*
X45574686Y-45983439D01*
X46374686Y-45678677D02*
X46984210Y-45678677D01*
X46679448Y-45983439D02*
X46679448Y-45373915D01*
X46031829Y-48447248D02*
X45993733Y-48485344D01*
X45993733Y-48485344D02*
X45879448Y-48523439D01*
X45879448Y-48523439D02*
X45803257Y-48523439D01*
X45803257Y-48523439D02*
X45688971Y-48485344D01*
X45688971Y-48485344D02*
X45612781Y-48409153D01*
X45612781Y-48409153D02*
X45574686Y-48332963D01*
X45574686Y-48332963D02*
X45536590Y-48180582D01*
X45536590Y-48180582D02*
X45536590Y-48066296D01*
X45536590Y-48066296D02*
X45574686Y-47913915D01*
X45574686Y-47913915D02*
X45612781Y-47837724D01*
X45612781Y-47837724D02*
X45688971Y-47761534D01*
X45688971Y-47761534D02*
X45803257Y-47723439D01*
X45803257Y-47723439D02*
X45879448Y-47723439D01*
X45879448Y-47723439D02*
X45993733Y-47761534D01*
X45993733Y-47761534D02*
X46031829Y-47799629D01*
X46831829Y-48447248D02*
X46793733Y-48485344D01*
X46793733Y-48485344D02*
X46679448Y-48523439D01*
X46679448Y-48523439D02*
X46603257Y-48523439D01*
X46603257Y-48523439D02*
X46488971Y-48485344D01*
X46488971Y-48485344D02*
X46412781Y-48409153D01*
X46412781Y-48409153D02*
X46374686Y-48332963D01*
X46374686Y-48332963D02*
X46336590Y-48180582D01*
X46336590Y-48180582D02*
X46336590Y-48066296D01*
X46336590Y-48066296D02*
X46374686Y-47913915D01*
X46374686Y-47913915D02*
X46412781Y-47837724D01*
X46412781Y-47837724D02*
X46488971Y-47761534D01*
X46488971Y-47761534D02*
X46603257Y-47723439D01*
X46603257Y-47723439D02*
X46679448Y-47723439D01*
X46679448Y-47723439D02*
X46793733Y-47761534D01*
X46793733Y-47761534D02*
X46831829Y-47799629D01*
X47593733Y-48523439D02*
X47136590Y-48523439D01*
X47365162Y-48523439D02*
X47365162Y-47723439D01*
X47365162Y-47723439D02*
X47288971Y-47837724D01*
X47288971Y-47837724D02*
X47212781Y-47913915D01*
X47212781Y-47913915D02*
X47136590Y-47952010D01*
X46031829Y-50987248D02*
X45993733Y-51025344D01*
X45993733Y-51025344D02*
X45879448Y-51063439D01*
X45879448Y-51063439D02*
X45803257Y-51063439D01*
X45803257Y-51063439D02*
X45688971Y-51025344D01*
X45688971Y-51025344D02*
X45612781Y-50949153D01*
X45612781Y-50949153D02*
X45574686Y-50872963D01*
X45574686Y-50872963D02*
X45536590Y-50720582D01*
X45536590Y-50720582D02*
X45536590Y-50606296D01*
X45536590Y-50606296D02*
X45574686Y-50453915D01*
X45574686Y-50453915D02*
X45612781Y-50377724D01*
X45612781Y-50377724D02*
X45688971Y-50301534D01*
X45688971Y-50301534D02*
X45803257Y-50263439D01*
X45803257Y-50263439D02*
X45879448Y-50263439D01*
X45879448Y-50263439D02*
X45993733Y-50301534D01*
X45993733Y-50301534D02*
X46031829Y-50339629D01*
X46831829Y-50987248D02*
X46793733Y-51025344D01*
X46793733Y-51025344D02*
X46679448Y-51063439D01*
X46679448Y-51063439D02*
X46603257Y-51063439D01*
X46603257Y-51063439D02*
X46488971Y-51025344D01*
X46488971Y-51025344D02*
X46412781Y-50949153D01*
X46412781Y-50949153D02*
X46374686Y-50872963D01*
X46374686Y-50872963D02*
X46336590Y-50720582D01*
X46336590Y-50720582D02*
X46336590Y-50606296D01*
X46336590Y-50606296D02*
X46374686Y-50453915D01*
X46374686Y-50453915D02*
X46412781Y-50377724D01*
X46412781Y-50377724D02*
X46488971Y-50301534D01*
X46488971Y-50301534D02*
X46603257Y-50263439D01*
X46603257Y-50263439D02*
X46679448Y-50263439D01*
X46679448Y-50263439D02*
X46793733Y-50301534D01*
X46793733Y-50301534D02*
X46831829Y-50339629D01*
X47136590Y-50339629D02*
X47174686Y-50301534D01*
X47174686Y-50301534D02*
X47250876Y-50263439D01*
X47250876Y-50263439D02*
X47441352Y-50263439D01*
X47441352Y-50263439D02*
X47517543Y-50301534D01*
X47517543Y-50301534D02*
X47555638Y-50339629D01*
X47555638Y-50339629D02*
X47593733Y-50415820D01*
X47593733Y-50415820D02*
X47593733Y-50492010D01*
X47593733Y-50492010D02*
X47555638Y-50606296D01*
X47555638Y-50606296D02*
X47098495Y-51063439D01*
X47098495Y-51063439D02*
X47593733Y-51063439D01*
D11*
X52323307Y-53808869D02*
X52023307Y-53380297D01*
X51809021Y-53808869D02*
X51809021Y-52908869D01*
X51809021Y-52908869D02*
X52151878Y-52908869D01*
X52151878Y-52908869D02*
X52237593Y-52951726D01*
X52237593Y-52951726D02*
X52280450Y-52994583D01*
X52280450Y-52994583D02*
X52323307Y-53080297D01*
X52323307Y-53080297D02*
X52323307Y-53208869D01*
X52323307Y-53208869D02*
X52280450Y-53294583D01*
X52280450Y-53294583D02*
X52237593Y-53337440D01*
X52237593Y-53337440D02*
X52151878Y-53380297D01*
X52151878Y-53380297D02*
X51809021Y-53380297D01*
X53180450Y-53808869D02*
X52666164Y-53808869D01*
X52923307Y-53808869D02*
X52923307Y-52908869D01*
X52923307Y-52908869D02*
X52837593Y-53037440D01*
X52837593Y-53037440D02*
X52751878Y-53123154D01*
X52751878Y-53123154D02*
X52666164Y-53166012D01*
X53480450Y-52908869D02*
X54080450Y-52908869D01*
X54080450Y-52908869D02*
X53694736Y-53808869D01*
X55066164Y-52866012D02*
X54294736Y-54023154D01*
X55880450Y-53808869D02*
X55580450Y-53380297D01*
X55366164Y-53808869D02*
X55366164Y-52908869D01*
X55366164Y-52908869D02*
X55709021Y-52908869D01*
X55709021Y-52908869D02*
X55794736Y-52951726D01*
X55794736Y-52951726D02*
X55837593Y-52994583D01*
X55837593Y-52994583D02*
X55880450Y-53080297D01*
X55880450Y-53080297D02*
X55880450Y-53208869D01*
X55880450Y-53208869D02*
X55837593Y-53294583D01*
X55837593Y-53294583D02*
X55794736Y-53337440D01*
X55794736Y-53337440D02*
X55709021Y-53380297D01*
X55709021Y-53380297D02*
X55366164Y-53380297D01*
X56737593Y-53808869D02*
X56223307Y-53808869D01*
X56480450Y-53808869D02*
X56480450Y-52908869D01*
X56480450Y-52908869D02*
X56394736Y-53037440D01*
X56394736Y-53037440D02*
X56309021Y-53123154D01*
X56309021Y-53123154D02*
X56223307Y-53166012D01*
X57251879Y-53294583D02*
X57166164Y-53251726D01*
X57166164Y-53251726D02*
X57123307Y-53208869D01*
X57123307Y-53208869D02*
X57080450Y-53123154D01*
X57080450Y-53123154D02*
X57080450Y-53080297D01*
X57080450Y-53080297D02*
X57123307Y-52994583D01*
X57123307Y-52994583D02*
X57166164Y-52951726D01*
X57166164Y-52951726D02*
X57251879Y-52908869D01*
X57251879Y-52908869D02*
X57423307Y-52908869D01*
X57423307Y-52908869D02*
X57509022Y-52951726D01*
X57509022Y-52951726D02*
X57551879Y-52994583D01*
X57551879Y-52994583D02*
X57594736Y-53080297D01*
X57594736Y-53080297D02*
X57594736Y-53123154D01*
X57594736Y-53123154D02*
X57551879Y-53208869D01*
X57551879Y-53208869D02*
X57509022Y-53251726D01*
X57509022Y-53251726D02*
X57423307Y-53294583D01*
X57423307Y-53294583D02*
X57251879Y-53294583D01*
X57251879Y-53294583D02*
X57166164Y-53337440D01*
X57166164Y-53337440D02*
X57123307Y-53380297D01*
X57123307Y-53380297D02*
X57080450Y-53466012D01*
X57080450Y-53466012D02*
X57080450Y-53637440D01*
X57080450Y-53637440D02*
X57123307Y-53723154D01*
X57123307Y-53723154D02*
X57166164Y-53766012D01*
X57166164Y-53766012D02*
X57251879Y-53808869D01*
X57251879Y-53808869D02*
X57423307Y-53808869D01*
X57423307Y-53808869D02*
X57509022Y-53766012D01*
X57509022Y-53766012D02*
X57551879Y-53723154D01*
X57551879Y-53723154D02*
X57594736Y-53637440D01*
X57594736Y-53637440D02*
X57594736Y-53466012D01*
X57594736Y-53466012D02*
X57551879Y-53380297D01*
X57551879Y-53380297D02*
X57509022Y-53337440D01*
X57509022Y-53337440D02*
X57423307Y-53294583D01*
X58666164Y-53208869D02*
X58666164Y-53808869D01*
X58666164Y-53294583D02*
X58709021Y-53251726D01*
X58709021Y-53251726D02*
X58794736Y-53208869D01*
X58794736Y-53208869D02*
X58923307Y-53208869D01*
X58923307Y-53208869D02*
X59009021Y-53251726D01*
X59009021Y-53251726D02*
X59051879Y-53337440D01*
X59051879Y-53337440D02*
X59051879Y-53808869D01*
X59866165Y-53208869D02*
X59866165Y-53808869D01*
X59480450Y-53208869D02*
X59480450Y-53680297D01*
X59480450Y-53680297D02*
X59523307Y-53766012D01*
X59523307Y-53766012D02*
X59609022Y-53808869D01*
X59609022Y-53808869D02*
X59737593Y-53808869D01*
X59737593Y-53808869D02*
X59823307Y-53766012D01*
X59823307Y-53766012D02*
X59866165Y-53723154D01*
X60294736Y-53808869D02*
X60294736Y-53208869D01*
X60294736Y-53380297D02*
X60337593Y-53294583D01*
X60337593Y-53294583D02*
X60380451Y-53251726D01*
X60380451Y-53251726D02*
X60466165Y-53208869D01*
X60466165Y-53208869D02*
X60551879Y-53208869D01*
X61537593Y-53808869D02*
X61537593Y-52908869D01*
X61537593Y-53251726D02*
X61623308Y-53208869D01*
X61623308Y-53208869D02*
X61794736Y-53208869D01*
X61794736Y-53208869D02*
X61880450Y-53251726D01*
X61880450Y-53251726D02*
X61923308Y-53294583D01*
X61923308Y-53294583D02*
X61966165Y-53380297D01*
X61966165Y-53380297D02*
X61966165Y-53637440D01*
X61966165Y-53637440D02*
X61923308Y-53723154D01*
X61923308Y-53723154D02*
X61880450Y-53766012D01*
X61880450Y-53766012D02*
X61794736Y-53808869D01*
X61794736Y-53808869D02*
X61623308Y-53808869D01*
X61623308Y-53808869D02*
X61537593Y-53766012D01*
X62694736Y-53766012D02*
X62609022Y-53808869D01*
X62609022Y-53808869D02*
X62437594Y-53808869D01*
X62437594Y-53808869D02*
X62351879Y-53766012D01*
X62351879Y-53766012D02*
X62309022Y-53680297D01*
X62309022Y-53680297D02*
X62309022Y-53337440D01*
X62309022Y-53337440D02*
X62351879Y-53251726D01*
X62351879Y-53251726D02*
X62437594Y-53208869D01*
X62437594Y-53208869D02*
X62609022Y-53208869D01*
X62609022Y-53208869D02*
X62694736Y-53251726D01*
X62694736Y-53251726D02*
X62737594Y-53337440D01*
X62737594Y-53337440D02*
X62737594Y-53423154D01*
X62737594Y-53423154D02*
X62309022Y-53508869D01*
X63080451Y-53766012D02*
X63166165Y-53808869D01*
X63166165Y-53808869D02*
X63337594Y-53808869D01*
X63337594Y-53808869D02*
X63423308Y-53766012D01*
X63423308Y-53766012D02*
X63466165Y-53680297D01*
X63466165Y-53680297D02*
X63466165Y-53637440D01*
X63466165Y-53637440D02*
X63423308Y-53551726D01*
X63423308Y-53551726D02*
X63337594Y-53508869D01*
X63337594Y-53508869D02*
X63209023Y-53508869D01*
X63209023Y-53508869D02*
X63123308Y-53466012D01*
X63123308Y-53466012D02*
X63080451Y-53380297D01*
X63080451Y-53380297D02*
X63080451Y-53337440D01*
X63080451Y-53337440D02*
X63123308Y-53251726D01*
X63123308Y-53251726D02*
X63209023Y-53208869D01*
X63209023Y-53208869D02*
X63337594Y-53208869D01*
X63337594Y-53208869D02*
X63423308Y-53251726D01*
X63723308Y-53208869D02*
X64066165Y-53208869D01*
X63851879Y-52908869D02*
X63851879Y-53680297D01*
X63851879Y-53680297D02*
X63894736Y-53766012D01*
X63894736Y-53766012D02*
X63980451Y-53808869D01*
X63980451Y-53808869D02*
X64066165Y-53808869D01*
X64751880Y-53208869D02*
X64751880Y-53808869D01*
X64366165Y-53208869D02*
X64366165Y-53680297D01*
X64366165Y-53680297D02*
X64409022Y-53766012D01*
X64409022Y-53766012D02*
X64494737Y-53808869D01*
X64494737Y-53808869D02*
X64623308Y-53808869D01*
X64623308Y-53808869D02*
X64709022Y-53766012D01*
X64709022Y-53766012D02*
X64751880Y-53723154D01*
X65523308Y-53766012D02*
X65437594Y-53808869D01*
X65437594Y-53808869D02*
X65266166Y-53808869D01*
X65266166Y-53808869D02*
X65180451Y-53766012D01*
X65180451Y-53766012D02*
X65137594Y-53680297D01*
X65137594Y-53680297D02*
X65137594Y-53337440D01*
X65137594Y-53337440D02*
X65180451Y-53251726D01*
X65180451Y-53251726D02*
X65266166Y-53208869D01*
X65266166Y-53208869D02*
X65437594Y-53208869D01*
X65437594Y-53208869D02*
X65523308Y-53251726D01*
X65523308Y-53251726D02*
X65566166Y-53337440D01*
X65566166Y-53337440D02*
X65566166Y-53423154D01*
X65566166Y-53423154D02*
X65137594Y-53508869D01*
X66337595Y-53766012D02*
X66251880Y-53808869D01*
X66251880Y-53808869D02*
X66080452Y-53808869D01*
X66080452Y-53808869D02*
X65994737Y-53766012D01*
X65994737Y-53766012D02*
X65951880Y-53723154D01*
X65951880Y-53723154D02*
X65909023Y-53637440D01*
X65909023Y-53637440D02*
X65909023Y-53380297D01*
X65909023Y-53380297D02*
X65951880Y-53294583D01*
X65951880Y-53294583D02*
X65994737Y-53251726D01*
X65994737Y-53251726D02*
X66080452Y-53208869D01*
X66080452Y-53208869D02*
X66251880Y-53208869D01*
X66251880Y-53208869D02*
X66337595Y-53251726D01*
X66723309Y-53808869D02*
X66723309Y-52908869D01*
X66809024Y-53466012D02*
X67066166Y-53808869D01*
X67066166Y-53208869D02*
X66723309Y-53551726D01*
X67794737Y-53766012D02*
X67709023Y-53808869D01*
X67709023Y-53808869D02*
X67537595Y-53808869D01*
X67537595Y-53808869D02*
X67451880Y-53766012D01*
X67451880Y-53766012D02*
X67409023Y-53680297D01*
X67409023Y-53680297D02*
X67409023Y-53337440D01*
X67409023Y-53337440D02*
X67451880Y-53251726D01*
X67451880Y-53251726D02*
X67537595Y-53208869D01*
X67537595Y-53208869D02*
X67709023Y-53208869D01*
X67709023Y-53208869D02*
X67794737Y-53251726D01*
X67794737Y-53251726D02*
X67837595Y-53337440D01*
X67837595Y-53337440D02*
X67837595Y-53423154D01*
X67837595Y-53423154D02*
X67409023Y-53508869D01*
X68223309Y-53208869D02*
X68223309Y-53808869D01*
X68223309Y-53294583D02*
X68266166Y-53251726D01*
X68266166Y-53251726D02*
X68351881Y-53208869D01*
X68351881Y-53208869D02*
X68480452Y-53208869D01*
X68480452Y-53208869D02*
X68566166Y-53251726D01*
X68566166Y-53251726D02*
X68609024Y-53337440D01*
X68609024Y-53337440D02*
X68609024Y-53808869D01*
X69080452Y-53766012D02*
X69080452Y-53808869D01*
X69080452Y-53808869D02*
X69037595Y-53894583D01*
X69037595Y-53894583D02*
X68994738Y-53937440D01*
X70066166Y-53208869D02*
X70237595Y-53808869D01*
X70237595Y-53808869D02*
X70409023Y-53380297D01*
X70409023Y-53380297D02*
X70580452Y-53808869D01*
X70580452Y-53808869D02*
X70751880Y-53208869D01*
X71437594Y-53766012D02*
X71351880Y-53808869D01*
X71351880Y-53808869D02*
X71180452Y-53808869D01*
X71180452Y-53808869D02*
X71094737Y-53766012D01*
X71094737Y-53766012D02*
X71051880Y-53680297D01*
X71051880Y-53680297D02*
X71051880Y-53337440D01*
X71051880Y-53337440D02*
X71094737Y-53251726D01*
X71094737Y-53251726D02*
X71180452Y-53208869D01*
X71180452Y-53208869D02*
X71351880Y-53208869D01*
X71351880Y-53208869D02*
X71437594Y-53251726D01*
X71437594Y-53251726D02*
X71480452Y-53337440D01*
X71480452Y-53337440D02*
X71480452Y-53423154D01*
X71480452Y-53423154D02*
X71051880Y-53508869D01*
X71866166Y-53208869D02*
X71866166Y-53808869D01*
X71866166Y-53294583D02*
X71909023Y-53251726D01*
X71909023Y-53251726D02*
X71994738Y-53208869D01*
X71994738Y-53208869D02*
X72123309Y-53208869D01*
X72123309Y-53208869D02*
X72209023Y-53251726D01*
X72209023Y-53251726D02*
X72251881Y-53337440D01*
X72251881Y-53337440D02*
X72251881Y-53808869D01*
X72680452Y-53208869D02*
X72680452Y-53808869D01*
X72680452Y-53294583D02*
X72723309Y-53251726D01*
X72723309Y-53251726D02*
X72809024Y-53208869D01*
X72809024Y-53208869D02*
X72937595Y-53208869D01*
X72937595Y-53208869D02*
X73023309Y-53251726D01*
X73023309Y-53251726D02*
X73066167Y-53337440D01*
X73066167Y-53337440D02*
X73066167Y-53808869D01*
X74480452Y-53337440D02*
X74609024Y-53380297D01*
X74609024Y-53380297D02*
X74651881Y-53423154D01*
X74651881Y-53423154D02*
X74694738Y-53508869D01*
X74694738Y-53508869D02*
X74694738Y-53637440D01*
X74694738Y-53637440D02*
X74651881Y-53723154D01*
X74651881Y-53723154D02*
X74609024Y-53766012D01*
X74609024Y-53766012D02*
X74523309Y-53808869D01*
X74523309Y-53808869D02*
X74180452Y-53808869D01*
X74180452Y-53808869D02*
X74180452Y-52908869D01*
X74180452Y-52908869D02*
X74480452Y-52908869D01*
X74480452Y-52908869D02*
X74566167Y-52951726D01*
X74566167Y-52951726D02*
X74609024Y-52994583D01*
X74609024Y-52994583D02*
X74651881Y-53080297D01*
X74651881Y-53080297D02*
X74651881Y-53166012D01*
X74651881Y-53166012D02*
X74609024Y-53251726D01*
X74609024Y-53251726D02*
X74566167Y-53294583D01*
X74566167Y-53294583D02*
X74480452Y-53337440D01*
X74480452Y-53337440D02*
X74180452Y-53337440D01*
X75080452Y-53808869D02*
X75080452Y-53208869D01*
X75080452Y-53380297D02*
X75123309Y-53294583D01*
X75123309Y-53294583D02*
X75166167Y-53251726D01*
X75166167Y-53251726D02*
X75251881Y-53208869D01*
X75251881Y-53208869D02*
X75337595Y-53208869D01*
X75980452Y-53766012D02*
X75894738Y-53808869D01*
X75894738Y-53808869D02*
X75723310Y-53808869D01*
X75723310Y-53808869D02*
X75637595Y-53766012D01*
X75637595Y-53766012D02*
X75594738Y-53680297D01*
X75594738Y-53680297D02*
X75594738Y-53337440D01*
X75594738Y-53337440D02*
X75637595Y-53251726D01*
X75637595Y-53251726D02*
X75723310Y-53208869D01*
X75723310Y-53208869D02*
X75894738Y-53208869D01*
X75894738Y-53208869D02*
X75980452Y-53251726D01*
X75980452Y-53251726D02*
X76023310Y-53337440D01*
X76023310Y-53337440D02*
X76023310Y-53423154D01*
X76023310Y-53423154D02*
X75594738Y-53508869D01*
X76794739Y-53808869D02*
X76794739Y-53337440D01*
X76794739Y-53337440D02*
X76751881Y-53251726D01*
X76751881Y-53251726D02*
X76666167Y-53208869D01*
X76666167Y-53208869D02*
X76494739Y-53208869D01*
X76494739Y-53208869D02*
X76409024Y-53251726D01*
X76794739Y-53766012D02*
X76709024Y-53808869D01*
X76709024Y-53808869D02*
X76494739Y-53808869D01*
X76494739Y-53808869D02*
X76409024Y-53766012D01*
X76409024Y-53766012D02*
X76366167Y-53680297D01*
X76366167Y-53680297D02*
X76366167Y-53594583D01*
X76366167Y-53594583D02*
X76409024Y-53508869D01*
X76409024Y-53508869D02*
X76494739Y-53466012D01*
X76494739Y-53466012D02*
X76709024Y-53466012D01*
X76709024Y-53466012D02*
X76794739Y-53423154D01*
X77223310Y-53808869D02*
X77223310Y-52908869D01*
X77309025Y-53466012D02*
X77566167Y-53808869D01*
X77566167Y-53208869D02*
X77223310Y-53551726D01*
X78080453Y-53808869D02*
X77994738Y-53766012D01*
X77994738Y-53766012D02*
X77951881Y-53723154D01*
X77951881Y-53723154D02*
X77909024Y-53637440D01*
X77909024Y-53637440D02*
X77909024Y-53380297D01*
X77909024Y-53380297D02*
X77951881Y-53294583D01*
X77951881Y-53294583D02*
X77994738Y-53251726D01*
X77994738Y-53251726D02*
X78080453Y-53208869D01*
X78080453Y-53208869D02*
X78209024Y-53208869D01*
X78209024Y-53208869D02*
X78294738Y-53251726D01*
X78294738Y-53251726D02*
X78337596Y-53294583D01*
X78337596Y-53294583D02*
X78380453Y-53380297D01*
X78380453Y-53380297D02*
X78380453Y-53637440D01*
X78380453Y-53637440D02*
X78337596Y-53723154D01*
X78337596Y-53723154D02*
X78294738Y-53766012D01*
X78294738Y-53766012D02*
X78209024Y-53808869D01*
X78209024Y-53808869D02*
X78080453Y-53808869D01*
X79151882Y-53208869D02*
X79151882Y-53808869D01*
X78766167Y-53208869D02*
X78766167Y-53680297D01*
X78766167Y-53680297D02*
X78809024Y-53766012D01*
X78809024Y-53766012D02*
X78894739Y-53808869D01*
X78894739Y-53808869D02*
X79023310Y-53808869D01*
X79023310Y-53808869D02*
X79109024Y-53766012D01*
X79109024Y-53766012D02*
X79151882Y-53723154D01*
X79451882Y-53208869D02*
X79794739Y-53208869D01*
X79580453Y-52908869D02*
X79580453Y-53680297D01*
X79580453Y-53680297D02*
X79623310Y-53766012D01*
X79623310Y-53766012D02*
X79709025Y-53808869D01*
X79709025Y-53808869D02*
X79794739Y-53808869D01*
X80909025Y-53808869D02*
X80823310Y-53766012D01*
X80823310Y-53766012D02*
X80780453Y-53723154D01*
X80780453Y-53723154D02*
X80737596Y-53637440D01*
X80737596Y-53637440D02*
X80737596Y-53380297D01*
X80737596Y-53380297D02*
X80780453Y-53294583D01*
X80780453Y-53294583D02*
X80823310Y-53251726D01*
X80823310Y-53251726D02*
X80909025Y-53208869D01*
X80909025Y-53208869D02*
X81037596Y-53208869D01*
X81037596Y-53208869D02*
X81123310Y-53251726D01*
X81123310Y-53251726D02*
X81166168Y-53294583D01*
X81166168Y-53294583D02*
X81209025Y-53380297D01*
X81209025Y-53380297D02*
X81209025Y-53637440D01*
X81209025Y-53637440D02*
X81166168Y-53723154D01*
X81166168Y-53723154D02*
X81123310Y-53766012D01*
X81123310Y-53766012D02*
X81037596Y-53808869D01*
X81037596Y-53808869D02*
X80909025Y-53808869D01*
X81594739Y-53808869D02*
X81594739Y-52908869D01*
X81980454Y-53808869D02*
X81980454Y-53337440D01*
X81980454Y-53337440D02*
X81937596Y-53251726D01*
X81937596Y-53251726D02*
X81851882Y-53208869D01*
X81851882Y-53208869D02*
X81723311Y-53208869D01*
X81723311Y-53208869D02*
X81637596Y-53251726D01*
X81637596Y-53251726D02*
X81594739Y-53294583D01*
X82409025Y-53208869D02*
X82409025Y-53808869D01*
X82409025Y-53294583D02*
X82451882Y-53251726D01*
X82451882Y-53251726D02*
X82537597Y-53208869D01*
X82537597Y-53208869D02*
X82666168Y-53208869D01*
X82666168Y-53208869D02*
X82751882Y-53251726D01*
X82751882Y-53251726D02*
X82794740Y-53337440D01*
X82794740Y-53337440D02*
X82794740Y-53808869D01*
X83566168Y-53766012D02*
X83480454Y-53808869D01*
X83480454Y-53808869D02*
X83309026Y-53808869D01*
X83309026Y-53808869D02*
X83223311Y-53766012D01*
X83223311Y-53766012D02*
X83180454Y-53680297D01*
X83180454Y-53680297D02*
X83180454Y-53337440D01*
X83180454Y-53337440D02*
X83223311Y-53251726D01*
X83223311Y-53251726D02*
X83309026Y-53208869D01*
X83309026Y-53208869D02*
X83480454Y-53208869D01*
X83480454Y-53208869D02*
X83566168Y-53251726D01*
X83566168Y-53251726D02*
X83609026Y-53337440D01*
X83609026Y-53337440D02*
X83609026Y-53423154D01*
X83609026Y-53423154D02*
X83180454Y-53508869D01*
X85109026Y-52908869D02*
X84680454Y-52908869D01*
X84680454Y-52908869D02*
X84637597Y-53337440D01*
X84637597Y-53337440D02*
X84680454Y-53294583D01*
X84680454Y-53294583D02*
X84766169Y-53251726D01*
X84766169Y-53251726D02*
X84980454Y-53251726D01*
X84980454Y-53251726D02*
X85066169Y-53294583D01*
X85066169Y-53294583D02*
X85109026Y-53337440D01*
X85109026Y-53337440D02*
X85151883Y-53423154D01*
X85151883Y-53423154D02*
X85151883Y-53637440D01*
X85151883Y-53637440D02*
X85109026Y-53723154D01*
X85109026Y-53723154D02*
X85066169Y-53766012D01*
X85066169Y-53766012D02*
X84980454Y-53808869D01*
X84980454Y-53808869D02*
X84766169Y-53808869D01*
X84766169Y-53808869D02*
X84680454Y-53766012D01*
X84680454Y-53766012D02*
X84637597Y-53723154D01*
X85537597Y-53808869D02*
X85537597Y-52908869D01*
X85623312Y-53466012D02*
X85880454Y-53808869D01*
X85880454Y-53208869D02*
X85537597Y-53551726D01*
X86737597Y-53808869D02*
X86223311Y-53808869D01*
X86480454Y-53808869D02*
X86480454Y-52908869D01*
X86480454Y-52908869D02*
X86394740Y-53037440D01*
X86394740Y-53037440D02*
X86309025Y-53123154D01*
X86309025Y-53123154D02*
X86223311Y-53166012D01*
X87123311Y-53466012D02*
X87809026Y-53466012D01*
X88751883Y-53808869D02*
X88451883Y-53380297D01*
X88237597Y-53808869D02*
X88237597Y-52908869D01*
X88237597Y-52908869D02*
X88580454Y-52908869D01*
X88580454Y-52908869D02*
X88666169Y-52951726D01*
X88666169Y-52951726D02*
X88709026Y-52994583D01*
X88709026Y-52994583D02*
X88751883Y-53080297D01*
X88751883Y-53080297D02*
X88751883Y-53208869D01*
X88751883Y-53208869D02*
X88709026Y-53294583D01*
X88709026Y-53294583D02*
X88666169Y-53337440D01*
X88666169Y-53337440D02*
X88580454Y-53380297D01*
X88580454Y-53380297D02*
X88237597Y-53380297D01*
X89523312Y-53808869D02*
X89523312Y-52908869D01*
X89523312Y-53766012D02*
X89437597Y-53808869D01*
X89437597Y-53808869D02*
X89266169Y-53808869D01*
X89266169Y-53808869D02*
X89180454Y-53766012D01*
X89180454Y-53766012D02*
X89137597Y-53723154D01*
X89137597Y-53723154D02*
X89094740Y-53637440D01*
X89094740Y-53637440D02*
X89094740Y-53380297D01*
X89094740Y-53380297D02*
X89137597Y-53294583D01*
X89137597Y-53294583D02*
X89180454Y-53251726D01*
X89180454Y-53251726D02*
X89266169Y-53208869D01*
X89266169Y-53208869D02*
X89437597Y-53208869D01*
X89437597Y-53208869D02*
X89523312Y-53251726D01*
X104909021Y-34666012D02*
X105594736Y-34666012D01*
X105251878Y-35008869D02*
X105251878Y-34323154D01*
X109309021Y-34666012D02*
X109994736Y-34666012D01*
D12*
X58691979Y-56399728D02*
X58691979Y-57185443D01*
X58691979Y-57185443D02*
X58639598Y-57342586D01*
X58639598Y-57342586D02*
X58534836Y-57447348D01*
X58534836Y-57447348D02*
X58377693Y-57499728D01*
X58377693Y-57499728D02*
X58272931Y-57499728D01*
X59111026Y-56399728D02*
X59791979Y-56399728D01*
X59791979Y-56399728D02*
X59425312Y-56818776D01*
X59425312Y-56818776D02*
X59582455Y-56818776D01*
X59582455Y-56818776D02*
X59687217Y-56871157D01*
X59687217Y-56871157D02*
X59739598Y-56923538D01*
X59739598Y-56923538D02*
X59791979Y-57028300D01*
X59791979Y-57028300D02*
X59791979Y-57290205D01*
X59791979Y-57290205D02*
X59739598Y-57394967D01*
X59739598Y-57394967D02*
X59687217Y-57447348D01*
X59687217Y-57447348D02*
X59582455Y-57499728D01*
X59582455Y-57499728D02*
X59268169Y-57499728D01*
X59268169Y-57499728D02*
X59163407Y-57447348D01*
X59163407Y-57447348D02*
X59111026Y-57394967D01*
X61101502Y-57499728D02*
X61101502Y-56399728D01*
X61101502Y-56399728D02*
X61363407Y-56399728D01*
X61363407Y-56399728D02*
X61520550Y-56452109D01*
X61520550Y-56452109D02*
X61625312Y-56556871D01*
X61625312Y-56556871D02*
X61677693Y-56661633D01*
X61677693Y-56661633D02*
X61730074Y-56871157D01*
X61730074Y-56871157D02*
X61730074Y-57028300D01*
X61730074Y-57028300D02*
X61677693Y-57237824D01*
X61677693Y-57237824D02*
X61625312Y-57342586D01*
X61625312Y-57342586D02*
X61520550Y-57447348D01*
X61520550Y-57447348D02*
X61363407Y-57499728D01*
X61363407Y-57499728D02*
X61101502Y-57499728D01*
X62201502Y-57499728D02*
X62201502Y-56766395D01*
X62201502Y-56399728D02*
X62149121Y-56452109D01*
X62149121Y-56452109D02*
X62201502Y-56504490D01*
X62201502Y-56504490D02*
X62253883Y-56452109D01*
X62253883Y-56452109D02*
X62201502Y-56399728D01*
X62201502Y-56399728D02*
X62201502Y-56504490D01*
X62672931Y-57447348D02*
X62777693Y-57499728D01*
X62777693Y-57499728D02*
X62987217Y-57499728D01*
X62987217Y-57499728D02*
X63091979Y-57447348D01*
X63091979Y-57447348D02*
X63144360Y-57342586D01*
X63144360Y-57342586D02*
X63144360Y-57290205D01*
X63144360Y-57290205D02*
X63091979Y-57185443D01*
X63091979Y-57185443D02*
X62987217Y-57133062D01*
X62987217Y-57133062D02*
X62830074Y-57133062D01*
X62830074Y-57133062D02*
X62725312Y-57080681D01*
X62725312Y-57080681D02*
X62672931Y-56975919D01*
X62672931Y-56975919D02*
X62672931Y-56923538D01*
X62672931Y-56923538D02*
X62725312Y-56818776D01*
X62725312Y-56818776D02*
X62830074Y-56766395D01*
X62830074Y-56766395D02*
X62987217Y-56766395D01*
X62987217Y-56766395D02*
X63091979Y-56818776D01*
X63615788Y-56766395D02*
X63615788Y-57866395D01*
X63615788Y-56818776D02*
X63720550Y-56766395D01*
X63720550Y-56766395D02*
X63930074Y-56766395D01*
X63930074Y-56766395D02*
X64034836Y-56818776D01*
X64034836Y-56818776D02*
X64087217Y-56871157D01*
X64087217Y-56871157D02*
X64139598Y-56975919D01*
X64139598Y-56975919D02*
X64139598Y-57290205D01*
X64139598Y-57290205D02*
X64087217Y-57394967D01*
X64087217Y-57394967D02*
X64034836Y-57447348D01*
X64034836Y-57447348D02*
X63930074Y-57499728D01*
X63930074Y-57499728D02*
X63720550Y-57499728D01*
X63720550Y-57499728D02*
X63615788Y-57447348D01*
X64768169Y-57499728D02*
X64663407Y-57447348D01*
X64663407Y-57447348D02*
X64611026Y-57342586D01*
X64611026Y-57342586D02*
X64611026Y-56399728D01*
X65658645Y-57499728D02*
X65658645Y-56923538D01*
X65658645Y-56923538D02*
X65606264Y-56818776D01*
X65606264Y-56818776D02*
X65501502Y-56766395D01*
X65501502Y-56766395D02*
X65291978Y-56766395D01*
X65291978Y-56766395D02*
X65187216Y-56818776D01*
X65658645Y-57447348D02*
X65553883Y-57499728D01*
X65553883Y-57499728D02*
X65291978Y-57499728D01*
X65291978Y-57499728D02*
X65187216Y-57447348D01*
X65187216Y-57447348D02*
X65134835Y-57342586D01*
X65134835Y-57342586D02*
X65134835Y-57237824D01*
X65134835Y-57237824D02*
X65187216Y-57133062D01*
X65187216Y-57133062D02*
X65291978Y-57080681D01*
X65291978Y-57080681D02*
X65553883Y-57080681D01*
X65553883Y-57080681D02*
X65658645Y-57028300D01*
X66077692Y-56766395D02*
X66339597Y-57499728D01*
X66601502Y-56766395D02*
X66339597Y-57499728D01*
X66339597Y-57499728D02*
X66234835Y-57761633D01*
X66234835Y-57761633D02*
X66182454Y-57814014D01*
X66182454Y-57814014D02*
X66077692Y-57866395D01*
X67020549Y-57394967D02*
X67072930Y-57447348D01*
X67072930Y-57447348D02*
X67020549Y-57499728D01*
X67020549Y-57499728D02*
X66968168Y-57447348D01*
X66968168Y-57447348D02*
X67020549Y-57394967D01*
X67020549Y-57394967D02*
X67020549Y-57499728D01*
X67020549Y-56818776D02*
X67072930Y-56871157D01*
X67072930Y-56871157D02*
X67020549Y-56923538D01*
X67020549Y-56923538D02*
X66968168Y-56871157D01*
X66968168Y-56871157D02*
X67020549Y-56818776D01*
X67020549Y-56818776D02*
X67020549Y-56923538D01*
X69796740Y-57499728D02*
X69168168Y-57499728D01*
X69482454Y-57499728D02*
X69482454Y-56399728D01*
X69482454Y-56399728D02*
X69377692Y-56556871D01*
X69377692Y-56556871D02*
X69272930Y-56661633D01*
X69272930Y-56661633D02*
X69168168Y-56714014D01*
X71682454Y-56452109D02*
X71577692Y-56399728D01*
X71577692Y-56399728D02*
X71420549Y-56399728D01*
X71420549Y-56399728D02*
X71263406Y-56452109D01*
X71263406Y-56452109D02*
X71158644Y-56556871D01*
X71158644Y-56556871D02*
X71106263Y-56661633D01*
X71106263Y-56661633D02*
X71053882Y-56871157D01*
X71053882Y-56871157D02*
X71053882Y-57028300D01*
X71053882Y-57028300D02*
X71106263Y-57237824D01*
X71106263Y-57237824D02*
X71158644Y-57342586D01*
X71158644Y-57342586D02*
X71263406Y-57447348D01*
X71263406Y-57447348D02*
X71420549Y-57499728D01*
X71420549Y-57499728D02*
X71525311Y-57499728D01*
X71525311Y-57499728D02*
X71682454Y-57447348D01*
X71682454Y-57447348D02*
X71734835Y-57394967D01*
X71734835Y-57394967D02*
X71734835Y-57028300D01*
X71734835Y-57028300D02*
X71525311Y-57028300D01*
X72206263Y-57499728D02*
X72206263Y-56399728D01*
X72206263Y-56399728D02*
X72834835Y-57499728D01*
X72834835Y-57499728D02*
X72834835Y-56399728D01*
X73358644Y-57499728D02*
X73358644Y-56399728D01*
X73358644Y-56399728D02*
X73620549Y-56399728D01*
X73620549Y-56399728D02*
X73777692Y-56452109D01*
X73777692Y-56452109D02*
X73882454Y-56556871D01*
X73882454Y-56556871D02*
X73934835Y-56661633D01*
X73934835Y-56661633D02*
X73987216Y-56871157D01*
X73987216Y-56871157D02*
X73987216Y-57028300D01*
X73987216Y-57028300D02*
X73934835Y-57237824D01*
X73934835Y-57237824D02*
X73882454Y-57342586D01*
X73882454Y-57342586D02*
X73777692Y-57447348D01*
X73777692Y-57447348D02*
X73620549Y-57499728D01*
X73620549Y-57499728D02*
X73358644Y-57499728D01*
X76082453Y-56504490D02*
X76134834Y-56452109D01*
X76134834Y-56452109D02*
X76239596Y-56399728D01*
X76239596Y-56399728D02*
X76501501Y-56399728D01*
X76501501Y-56399728D02*
X76606263Y-56452109D01*
X76606263Y-56452109D02*
X76658644Y-56504490D01*
X76658644Y-56504490D02*
X76711025Y-56609252D01*
X76711025Y-56609252D02*
X76711025Y-56714014D01*
X76711025Y-56714014D02*
X76658644Y-56871157D01*
X76658644Y-56871157D02*
X76030072Y-57499728D01*
X76030072Y-57499728D02*
X76711025Y-57499728D01*
X77863405Y-56399728D02*
X78230072Y-57499728D01*
X78230072Y-57499728D02*
X78596739Y-56399728D01*
X79591977Y-57394967D02*
X79539596Y-57447348D01*
X79539596Y-57447348D02*
X79382453Y-57499728D01*
X79382453Y-57499728D02*
X79277691Y-57499728D01*
X79277691Y-57499728D02*
X79120548Y-57447348D01*
X79120548Y-57447348D02*
X79015786Y-57342586D01*
X79015786Y-57342586D02*
X78963405Y-57237824D01*
X78963405Y-57237824D02*
X78911024Y-57028300D01*
X78911024Y-57028300D02*
X78911024Y-56871157D01*
X78911024Y-56871157D02*
X78963405Y-56661633D01*
X78963405Y-56661633D02*
X79015786Y-56556871D01*
X79015786Y-56556871D02*
X79120548Y-56452109D01*
X79120548Y-56452109D02*
X79277691Y-56399728D01*
X79277691Y-56399728D02*
X79382453Y-56399728D01*
X79382453Y-56399728D02*
X79539596Y-56452109D01*
X79539596Y-56452109D02*
X79591977Y-56504490D01*
X80691977Y-57394967D02*
X80639596Y-57447348D01*
X80639596Y-57447348D02*
X80482453Y-57499728D01*
X80482453Y-57499728D02*
X80377691Y-57499728D01*
X80377691Y-57499728D02*
X80220548Y-57447348D01*
X80220548Y-57447348D02*
X80115786Y-57342586D01*
X80115786Y-57342586D02*
X80063405Y-57237824D01*
X80063405Y-57237824D02*
X80011024Y-57028300D01*
X80011024Y-57028300D02*
X80011024Y-56871157D01*
X80011024Y-56871157D02*
X80063405Y-56661633D01*
X80063405Y-56661633D02*
X80115786Y-56556871D01*
X80115786Y-56556871D02*
X80220548Y-56452109D01*
X80220548Y-56452109D02*
X80377691Y-56399728D01*
X80377691Y-56399728D02*
X80482453Y-56399728D01*
X80482453Y-56399728D02*
X80639596Y-56452109D01*
X80639596Y-56452109D02*
X80691977Y-56504490D01*
X82734833Y-56399728D02*
X83415786Y-56399728D01*
X83415786Y-56399728D02*
X83049119Y-56818776D01*
X83049119Y-56818776D02*
X83206262Y-56818776D01*
X83206262Y-56818776D02*
X83311024Y-56871157D01*
X83311024Y-56871157D02*
X83363405Y-56923538D01*
X83363405Y-56923538D02*
X83415786Y-57028300D01*
X83415786Y-57028300D02*
X83415786Y-57290205D01*
X83415786Y-57290205D02*
X83363405Y-57394967D01*
X83363405Y-57394967D02*
X83311024Y-57447348D01*
X83311024Y-57447348D02*
X83206262Y-57499728D01*
X83206262Y-57499728D02*
X82891976Y-57499728D01*
X82891976Y-57499728D02*
X82787214Y-57447348D01*
X82787214Y-57447348D02*
X82734833Y-57394967D01*
X84672928Y-57447348D02*
X84830071Y-57499728D01*
X84830071Y-57499728D02*
X85091976Y-57499728D01*
X85091976Y-57499728D02*
X85196738Y-57447348D01*
X85196738Y-57447348D02*
X85249119Y-57394967D01*
X85249119Y-57394967D02*
X85301500Y-57290205D01*
X85301500Y-57290205D02*
X85301500Y-57185443D01*
X85301500Y-57185443D02*
X85249119Y-57080681D01*
X85249119Y-57080681D02*
X85196738Y-57028300D01*
X85196738Y-57028300D02*
X85091976Y-56975919D01*
X85091976Y-56975919D02*
X84882452Y-56923538D01*
X84882452Y-56923538D02*
X84777690Y-56871157D01*
X84777690Y-56871157D02*
X84725309Y-56818776D01*
X84725309Y-56818776D02*
X84672928Y-56714014D01*
X84672928Y-56714014D02*
X84672928Y-56609252D01*
X84672928Y-56609252D02*
X84725309Y-56504490D01*
X84725309Y-56504490D02*
X84777690Y-56452109D01*
X84777690Y-56452109D02*
X84882452Y-56399728D01*
X84882452Y-56399728D02*
X85144357Y-56399728D01*
X85144357Y-56399728D02*
X85301500Y-56452109D01*
X86401500Y-57394967D02*
X86349119Y-57447348D01*
X86349119Y-57447348D02*
X86191976Y-57499728D01*
X86191976Y-57499728D02*
X86087214Y-57499728D01*
X86087214Y-57499728D02*
X85930071Y-57447348D01*
X85930071Y-57447348D02*
X85825309Y-57342586D01*
X85825309Y-57342586D02*
X85772928Y-57237824D01*
X85772928Y-57237824D02*
X85720547Y-57028300D01*
X85720547Y-57028300D02*
X85720547Y-56871157D01*
X85720547Y-56871157D02*
X85772928Y-56661633D01*
X85772928Y-56661633D02*
X85825309Y-56556871D01*
X85825309Y-56556871D02*
X85930071Y-56452109D01*
X85930071Y-56452109D02*
X86087214Y-56399728D01*
X86087214Y-56399728D02*
X86191976Y-56399728D01*
X86191976Y-56399728D02*
X86349119Y-56452109D01*
X86349119Y-56452109D02*
X86401500Y-56504490D01*
X87396738Y-57499728D02*
X86872928Y-57499728D01*
X86872928Y-57499728D02*
X86872928Y-56399728D01*
X87763404Y-57499728D02*
X87763404Y-56399728D01*
X88391976Y-57499728D02*
X87920547Y-56871157D01*
X88391976Y-56399728D02*
X87763404Y-57028300D01*
X91011023Y-56766395D02*
X91011023Y-57499728D01*
X90749118Y-56347348D02*
X90487213Y-57133062D01*
X90487213Y-57133062D02*
X91168166Y-57133062D01*
X92425308Y-57499728D02*
X92425308Y-56399728D01*
X92425308Y-56399728D02*
X92791975Y-57185443D01*
X92791975Y-57185443D02*
X93158642Y-56399728D01*
X93158642Y-56399728D02*
X93158642Y-57499728D01*
X93891975Y-56399728D02*
X94101499Y-56399728D01*
X94101499Y-56399728D02*
X94206261Y-56452109D01*
X94206261Y-56452109D02*
X94311023Y-56556871D01*
X94311023Y-56556871D02*
X94363404Y-56766395D01*
X94363404Y-56766395D02*
X94363404Y-57133062D01*
X94363404Y-57133062D02*
X94311023Y-57342586D01*
X94311023Y-57342586D02*
X94206261Y-57447348D01*
X94206261Y-57447348D02*
X94101499Y-57499728D01*
X94101499Y-57499728D02*
X93891975Y-57499728D01*
X93891975Y-57499728D02*
X93787213Y-57447348D01*
X93787213Y-57447348D02*
X93682451Y-57342586D01*
X93682451Y-57342586D02*
X93630070Y-57133062D01*
X93630070Y-57133062D02*
X93630070Y-56766395D01*
X93630070Y-56766395D02*
X93682451Y-56556871D01*
X93682451Y-56556871D02*
X93787213Y-56452109D01*
X93787213Y-56452109D02*
X93891975Y-56399728D01*
X94782451Y-57447348D02*
X94939594Y-57499728D01*
X94939594Y-57499728D02*
X95201499Y-57499728D01*
X95201499Y-57499728D02*
X95306261Y-57447348D01*
X95306261Y-57447348D02*
X95358642Y-57394967D01*
X95358642Y-57394967D02*
X95411023Y-57290205D01*
X95411023Y-57290205D02*
X95411023Y-57185443D01*
X95411023Y-57185443D02*
X95358642Y-57080681D01*
X95358642Y-57080681D02*
X95306261Y-57028300D01*
X95306261Y-57028300D02*
X95201499Y-56975919D01*
X95201499Y-56975919D02*
X94991975Y-56923538D01*
X94991975Y-56923538D02*
X94887213Y-56871157D01*
X94887213Y-56871157D02*
X94834832Y-56818776D01*
X94834832Y-56818776D02*
X94782451Y-56714014D01*
X94782451Y-56714014D02*
X94782451Y-56609252D01*
X94782451Y-56609252D02*
X94834832Y-56504490D01*
X94834832Y-56504490D02*
X94887213Y-56452109D01*
X94887213Y-56452109D02*
X94991975Y-56399728D01*
X94991975Y-56399728D02*
X95253880Y-56399728D01*
X95253880Y-56399728D02*
X95411023Y-56452109D01*
X95882451Y-57499728D02*
X95882451Y-56399728D01*
X98606261Y-56399728D02*
X98082451Y-56399728D01*
X98082451Y-56399728D02*
X98030070Y-56923538D01*
X98030070Y-56923538D02*
X98082451Y-56871157D01*
X98082451Y-56871157D02*
X98187213Y-56818776D01*
X98187213Y-56818776D02*
X98449118Y-56818776D01*
X98449118Y-56818776D02*
X98553880Y-56871157D01*
X98553880Y-56871157D02*
X98606261Y-56923538D01*
X98606261Y-56923538D02*
X98658642Y-57028300D01*
X98658642Y-57028300D02*
X98658642Y-57290205D01*
X98658642Y-57290205D02*
X98606261Y-57394967D01*
X98606261Y-57394967D02*
X98553880Y-57447348D01*
X98553880Y-57447348D02*
X98449118Y-57499728D01*
X98449118Y-57499728D02*
X98187213Y-57499728D01*
X98187213Y-57499728D02*
X98082451Y-57447348D01*
X98082451Y-57447348D02*
X98030070Y-57394967D01*
X100596737Y-57499728D02*
X100230070Y-56975919D01*
X99968165Y-57499728D02*
X99968165Y-56399728D01*
X99968165Y-56399728D02*
X100387213Y-56399728D01*
X100387213Y-56399728D02*
X100491975Y-56452109D01*
X100491975Y-56452109D02*
X100544356Y-56504490D01*
X100544356Y-56504490D02*
X100596737Y-56609252D01*
X100596737Y-56609252D02*
X100596737Y-56766395D01*
X100596737Y-56766395D02*
X100544356Y-56871157D01*
X100544356Y-56871157D02*
X100491975Y-56923538D01*
X100491975Y-56923538D02*
X100387213Y-56975919D01*
X100387213Y-56975919D02*
X99968165Y-56975919D01*
X101068165Y-56923538D02*
X101434832Y-56923538D01*
X101591975Y-57499728D02*
X101068165Y-57499728D01*
X101068165Y-57499728D02*
X101068165Y-56399728D01*
X101068165Y-56399728D02*
X101591975Y-56399728D01*
X102011022Y-57447348D02*
X102168165Y-57499728D01*
X102168165Y-57499728D02*
X102430070Y-57499728D01*
X102430070Y-57499728D02*
X102534832Y-57447348D01*
X102534832Y-57447348D02*
X102587213Y-57394967D01*
X102587213Y-57394967D02*
X102639594Y-57290205D01*
X102639594Y-57290205D02*
X102639594Y-57185443D01*
X102639594Y-57185443D02*
X102587213Y-57080681D01*
X102587213Y-57080681D02*
X102534832Y-57028300D01*
X102534832Y-57028300D02*
X102430070Y-56975919D01*
X102430070Y-56975919D02*
X102220546Y-56923538D01*
X102220546Y-56923538D02*
X102115784Y-56871157D01*
X102115784Y-56871157D02*
X102063403Y-56818776D01*
X102063403Y-56818776D02*
X102011022Y-56714014D01*
X102011022Y-56714014D02*
X102011022Y-56609252D01*
X102011022Y-56609252D02*
X102063403Y-56504490D01*
X102063403Y-56504490D02*
X102115784Y-56452109D01*
X102115784Y-56452109D02*
X102220546Y-56399728D01*
X102220546Y-56399728D02*
X102482451Y-56399728D01*
X102482451Y-56399728D02*
X102639594Y-56452109D01*
X105258641Y-56399728D02*
X105049117Y-56399728D01*
X105049117Y-56399728D02*
X104944355Y-56452109D01*
X104944355Y-56452109D02*
X104891974Y-56504490D01*
X104891974Y-56504490D02*
X104787212Y-56661633D01*
X104787212Y-56661633D02*
X104734831Y-56871157D01*
X104734831Y-56871157D02*
X104734831Y-57290205D01*
X104734831Y-57290205D02*
X104787212Y-57394967D01*
X104787212Y-57394967D02*
X104839593Y-57447348D01*
X104839593Y-57447348D02*
X104944355Y-57499728D01*
X104944355Y-57499728D02*
X105153879Y-57499728D01*
X105153879Y-57499728D02*
X105258641Y-57447348D01*
X105258641Y-57447348D02*
X105311022Y-57394967D01*
X105311022Y-57394967D02*
X105363403Y-57290205D01*
X105363403Y-57290205D02*
X105363403Y-57028300D01*
X105363403Y-57028300D02*
X105311022Y-56923538D01*
X105311022Y-56923538D02*
X105258641Y-56871157D01*
X105258641Y-56871157D02*
X105153879Y-56818776D01*
X105153879Y-56818776D02*
X104944355Y-56818776D01*
X104944355Y-56818776D02*
X104839593Y-56871157D01*
X104839593Y-56871157D02*
X104787212Y-56923538D01*
X104787212Y-56923538D02*
X104734831Y-57028300D01*
X106672926Y-57499728D02*
X106672926Y-56399728D01*
X106672926Y-56399728D02*
X106934831Y-56399728D01*
X106934831Y-56399728D02*
X107091974Y-56452109D01*
X107091974Y-56452109D02*
X107196736Y-56556871D01*
X107196736Y-56556871D02*
X107249117Y-56661633D01*
X107249117Y-56661633D02*
X107301498Y-56871157D01*
X107301498Y-56871157D02*
X107301498Y-57028300D01*
X107301498Y-57028300D02*
X107249117Y-57237824D01*
X107249117Y-57237824D02*
X107196736Y-57342586D01*
X107196736Y-57342586D02*
X107091974Y-57447348D01*
X107091974Y-57447348D02*
X106934831Y-57499728D01*
X106934831Y-57499728D02*
X106672926Y-57499728D01*
X108401498Y-57394967D02*
X108349117Y-57447348D01*
X108349117Y-57447348D02*
X108191974Y-57499728D01*
X108191974Y-57499728D02*
X108087212Y-57499728D01*
X108087212Y-57499728D02*
X107930069Y-57447348D01*
X107930069Y-57447348D02*
X107825307Y-57342586D01*
X107825307Y-57342586D02*
X107772926Y-57237824D01*
X107772926Y-57237824D02*
X107720545Y-57028300D01*
X107720545Y-57028300D02*
X107720545Y-56871157D01*
X107720545Y-56871157D02*
X107772926Y-56661633D01*
X107772926Y-56661633D02*
X107825307Y-56556871D01*
X107825307Y-56556871D02*
X107930069Y-56452109D01*
X107930069Y-56452109D02*
X108087212Y-56399728D01*
X108087212Y-56399728D02*
X108191974Y-56399728D01*
X108191974Y-56399728D02*
X108349117Y-56452109D01*
X108349117Y-56452109D02*
X108401498Y-56504490D01*
X110444354Y-56399728D02*
X111177688Y-56399728D01*
X111177688Y-56399728D02*
X110706259Y-57499728D01*
X113063402Y-57394967D02*
X113011021Y-57447348D01*
X113011021Y-57447348D02*
X112853878Y-57499728D01*
X112853878Y-57499728D02*
X112749116Y-57499728D01*
X112749116Y-57499728D02*
X112591973Y-57447348D01*
X112591973Y-57447348D02*
X112487211Y-57342586D01*
X112487211Y-57342586D02*
X112434830Y-57237824D01*
X112434830Y-57237824D02*
X112382449Y-57028300D01*
X112382449Y-57028300D02*
X112382449Y-56871157D01*
X112382449Y-56871157D02*
X112434830Y-56661633D01*
X112434830Y-56661633D02*
X112487211Y-56556871D01*
X112487211Y-56556871D02*
X112591973Y-56452109D01*
X112591973Y-56452109D02*
X112749116Y-56399728D01*
X112749116Y-56399728D02*
X112853878Y-56399728D01*
X112853878Y-56399728D02*
X113011021Y-56452109D01*
X113011021Y-56452109D02*
X113063402Y-56504490D01*
X113482449Y-57447348D02*
X113639592Y-57499728D01*
X113639592Y-57499728D02*
X113901497Y-57499728D01*
X113901497Y-57499728D02*
X114006259Y-57447348D01*
X114006259Y-57447348D02*
X114058640Y-57394967D01*
X114058640Y-57394967D02*
X114111021Y-57290205D01*
X114111021Y-57290205D02*
X114111021Y-57185443D01*
X114111021Y-57185443D02*
X114058640Y-57080681D01*
X114058640Y-57080681D02*
X114006259Y-57028300D01*
X114006259Y-57028300D02*
X113901497Y-56975919D01*
X113901497Y-56975919D02*
X113691973Y-56923538D01*
X113691973Y-56923538D02*
X113587211Y-56871157D01*
X113587211Y-56871157D02*
X113534830Y-56818776D01*
X113534830Y-56818776D02*
X113482449Y-56714014D01*
X113482449Y-56714014D02*
X113482449Y-56609252D01*
X113482449Y-56609252D02*
X113534830Y-56504490D01*
X113534830Y-56504490D02*
X113587211Y-56452109D01*
X113587211Y-56452109D02*
X113691973Y-56399728D01*
X113691973Y-56399728D02*
X113953878Y-56399728D01*
X113953878Y-56399728D02*
X114111021Y-56452109D01*
X58901503Y-60999728D02*
X58377693Y-60999728D01*
X58377693Y-60999728D02*
X58377693Y-59899728D01*
X59739598Y-60999728D02*
X59739598Y-60423538D01*
X59739598Y-60423538D02*
X59687217Y-60318776D01*
X59687217Y-60318776D02*
X59582455Y-60266395D01*
X59582455Y-60266395D02*
X59372931Y-60266395D01*
X59372931Y-60266395D02*
X59268169Y-60318776D01*
X59739598Y-60947348D02*
X59634836Y-60999728D01*
X59634836Y-60999728D02*
X59372931Y-60999728D01*
X59372931Y-60999728D02*
X59268169Y-60947348D01*
X59268169Y-60947348D02*
X59215788Y-60842586D01*
X59215788Y-60842586D02*
X59215788Y-60737824D01*
X59215788Y-60737824D02*
X59268169Y-60633062D01*
X59268169Y-60633062D02*
X59372931Y-60580681D01*
X59372931Y-60580681D02*
X59634836Y-60580681D01*
X59634836Y-60580681D02*
X59739598Y-60528300D01*
X60734836Y-60999728D02*
X60734836Y-59899728D01*
X60734836Y-60947348D02*
X60630074Y-60999728D01*
X60630074Y-60999728D02*
X60420550Y-60999728D01*
X60420550Y-60999728D02*
X60315788Y-60947348D01*
X60315788Y-60947348D02*
X60263407Y-60894967D01*
X60263407Y-60894967D02*
X60211026Y-60790205D01*
X60211026Y-60790205D02*
X60211026Y-60475919D01*
X60211026Y-60475919D02*
X60263407Y-60371157D01*
X60263407Y-60371157D02*
X60315788Y-60318776D01*
X60315788Y-60318776D02*
X60420550Y-60266395D01*
X60420550Y-60266395D02*
X60630074Y-60266395D01*
X60630074Y-60266395D02*
X60734836Y-60318776D01*
X61677693Y-60947348D02*
X61572931Y-60999728D01*
X61572931Y-60999728D02*
X61363407Y-60999728D01*
X61363407Y-60999728D02*
X61258645Y-60947348D01*
X61258645Y-60947348D02*
X61206264Y-60842586D01*
X61206264Y-60842586D02*
X61206264Y-60423538D01*
X61206264Y-60423538D02*
X61258645Y-60318776D01*
X61258645Y-60318776D02*
X61363407Y-60266395D01*
X61363407Y-60266395D02*
X61572931Y-60266395D01*
X61572931Y-60266395D02*
X61677693Y-60318776D01*
X61677693Y-60318776D02*
X61730074Y-60423538D01*
X61730074Y-60423538D02*
X61730074Y-60528300D01*
X61730074Y-60528300D02*
X61206264Y-60633062D01*
X62201502Y-60266395D02*
X62201502Y-60999728D01*
X62201502Y-60371157D02*
X62253883Y-60318776D01*
X62253883Y-60318776D02*
X62358645Y-60266395D01*
X62358645Y-60266395D02*
X62515788Y-60266395D01*
X62515788Y-60266395D02*
X62620550Y-60318776D01*
X62620550Y-60318776D02*
X62672931Y-60423538D01*
X62672931Y-60423538D02*
X62672931Y-60999728D01*
X64034835Y-60266395D02*
X64034835Y-60999728D01*
X64034835Y-60371157D02*
X64087216Y-60318776D01*
X64087216Y-60318776D02*
X64191978Y-60266395D01*
X64191978Y-60266395D02*
X64349121Y-60266395D01*
X64349121Y-60266395D02*
X64453883Y-60318776D01*
X64453883Y-60318776D02*
X64506264Y-60423538D01*
X64506264Y-60423538D02*
X64506264Y-60999728D01*
X65501502Y-60266395D02*
X65501502Y-60999728D01*
X65030073Y-60266395D02*
X65030073Y-60842586D01*
X65030073Y-60842586D02*
X65082454Y-60947348D01*
X65082454Y-60947348D02*
X65187216Y-60999728D01*
X65187216Y-60999728D02*
X65344359Y-60999728D01*
X65344359Y-60999728D02*
X65449121Y-60947348D01*
X65449121Y-60947348D02*
X65501502Y-60894967D01*
X66025311Y-60999728D02*
X66025311Y-60266395D01*
X66025311Y-60475919D02*
X66077692Y-60371157D01*
X66077692Y-60371157D02*
X66130073Y-60318776D01*
X66130073Y-60318776D02*
X66234835Y-60266395D01*
X66234835Y-60266395D02*
X66339597Y-60266395D01*
X67544358Y-60999728D02*
X67544358Y-60266395D01*
X67544358Y-59899728D02*
X67491977Y-59952109D01*
X67491977Y-59952109D02*
X67544358Y-60004490D01*
X67544358Y-60004490D02*
X67596739Y-59952109D01*
X67596739Y-59952109D02*
X67544358Y-59899728D01*
X67544358Y-59899728D02*
X67544358Y-60004490D01*
X68068168Y-60999728D02*
X68068168Y-60266395D01*
X68068168Y-60371157D02*
X68120549Y-60318776D01*
X68120549Y-60318776D02*
X68225311Y-60266395D01*
X68225311Y-60266395D02*
X68382454Y-60266395D01*
X68382454Y-60266395D02*
X68487216Y-60318776D01*
X68487216Y-60318776D02*
X68539597Y-60423538D01*
X68539597Y-60423538D02*
X68539597Y-60999728D01*
X68539597Y-60423538D02*
X68591978Y-60318776D01*
X68591978Y-60318776D02*
X68696740Y-60266395D01*
X68696740Y-60266395D02*
X68853883Y-60266395D01*
X68853883Y-60266395D02*
X68958644Y-60318776D01*
X68958644Y-60318776D02*
X69011025Y-60423538D01*
X69011025Y-60423538D02*
X69011025Y-60999728D01*
X70844359Y-60999728D02*
X70844359Y-60423538D01*
X70844359Y-60423538D02*
X70791978Y-60318776D01*
X70791978Y-60318776D02*
X70687216Y-60266395D01*
X70687216Y-60266395D02*
X70477692Y-60266395D01*
X70477692Y-60266395D02*
X70372930Y-60318776D01*
X70844359Y-60947348D02*
X70739597Y-60999728D01*
X70739597Y-60999728D02*
X70477692Y-60999728D01*
X70477692Y-60999728D02*
X70372930Y-60947348D01*
X70372930Y-60947348D02*
X70320549Y-60842586D01*
X70320549Y-60842586D02*
X70320549Y-60737824D01*
X70320549Y-60737824D02*
X70372930Y-60633062D01*
X70372930Y-60633062D02*
X70477692Y-60580681D01*
X70477692Y-60580681D02*
X70739597Y-60580681D01*
X70739597Y-60580681D02*
X70844359Y-60528300D01*
X71839597Y-60266395D02*
X71839597Y-60999728D01*
X71368168Y-60266395D02*
X71368168Y-60842586D01*
X71368168Y-60842586D02*
X71420549Y-60947348D01*
X71420549Y-60947348D02*
X71525311Y-60999728D01*
X71525311Y-60999728D02*
X71682454Y-60999728D01*
X71682454Y-60999728D02*
X71787216Y-60947348D01*
X71787216Y-60947348D02*
X71839597Y-60894967D01*
X72311025Y-60947348D02*
X72415787Y-60999728D01*
X72415787Y-60999728D02*
X72625311Y-60999728D01*
X72625311Y-60999728D02*
X72730073Y-60947348D01*
X72730073Y-60947348D02*
X72782454Y-60842586D01*
X72782454Y-60842586D02*
X72782454Y-60790205D01*
X72782454Y-60790205D02*
X72730073Y-60685443D01*
X72730073Y-60685443D02*
X72625311Y-60633062D01*
X72625311Y-60633062D02*
X72468168Y-60633062D01*
X72468168Y-60633062D02*
X72363406Y-60580681D01*
X72363406Y-60580681D02*
X72311025Y-60475919D01*
X72311025Y-60475919D02*
X72311025Y-60423538D01*
X72311025Y-60423538D02*
X72363406Y-60318776D01*
X72363406Y-60318776D02*
X72468168Y-60266395D01*
X72468168Y-60266395D02*
X72625311Y-60266395D01*
X72625311Y-60266395D02*
X72730073Y-60318776D01*
X73725311Y-60266395D02*
X73725311Y-61156871D01*
X73725311Y-61156871D02*
X73672930Y-61261633D01*
X73672930Y-61261633D02*
X73620549Y-61314014D01*
X73620549Y-61314014D02*
X73515787Y-61366395D01*
X73515787Y-61366395D02*
X73358644Y-61366395D01*
X73358644Y-61366395D02*
X73253882Y-61314014D01*
X73725311Y-60947348D02*
X73620549Y-60999728D01*
X73620549Y-60999728D02*
X73411025Y-60999728D01*
X73411025Y-60999728D02*
X73306263Y-60947348D01*
X73306263Y-60947348D02*
X73253882Y-60894967D01*
X73253882Y-60894967D02*
X73201501Y-60790205D01*
X73201501Y-60790205D02*
X73201501Y-60475919D01*
X73201501Y-60475919D02*
X73253882Y-60371157D01*
X73253882Y-60371157D02*
X73306263Y-60318776D01*
X73306263Y-60318776D02*
X73411025Y-60266395D01*
X73411025Y-60266395D02*
X73620549Y-60266395D01*
X73620549Y-60266395D02*
X73725311Y-60318776D01*
X74668168Y-60947348D02*
X74563406Y-60999728D01*
X74563406Y-60999728D02*
X74353882Y-60999728D01*
X74353882Y-60999728D02*
X74249120Y-60947348D01*
X74249120Y-60947348D02*
X74196739Y-60842586D01*
X74196739Y-60842586D02*
X74196739Y-60423538D01*
X74196739Y-60423538D02*
X74249120Y-60318776D01*
X74249120Y-60318776D02*
X74353882Y-60266395D01*
X74353882Y-60266395D02*
X74563406Y-60266395D01*
X74563406Y-60266395D02*
X74668168Y-60318776D01*
X74668168Y-60318776D02*
X74720549Y-60423538D01*
X74720549Y-60423538D02*
X74720549Y-60528300D01*
X74720549Y-60528300D02*
X74196739Y-60633062D01*
X75139596Y-60947348D02*
X75244358Y-60999728D01*
X75244358Y-60999728D02*
X75453882Y-60999728D01*
X75453882Y-60999728D02*
X75558644Y-60947348D01*
X75558644Y-60947348D02*
X75611025Y-60842586D01*
X75611025Y-60842586D02*
X75611025Y-60790205D01*
X75611025Y-60790205D02*
X75558644Y-60685443D01*
X75558644Y-60685443D02*
X75453882Y-60633062D01*
X75453882Y-60633062D02*
X75296739Y-60633062D01*
X75296739Y-60633062D02*
X75191977Y-60580681D01*
X75191977Y-60580681D02*
X75139596Y-60475919D01*
X75139596Y-60475919D02*
X75139596Y-60423538D01*
X75139596Y-60423538D02*
X75191977Y-60318776D01*
X75191977Y-60318776D02*
X75296739Y-60266395D01*
X75296739Y-60266395D02*
X75453882Y-60266395D01*
X75453882Y-60266395D02*
X75558644Y-60318776D01*
X76553882Y-60947348D02*
X76449120Y-60999728D01*
X76449120Y-60999728D02*
X76239596Y-60999728D01*
X76239596Y-60999728D02*
X76134834Y-60947348D01*
X76134834Y-60947348D02*
X76082453Y-60894967D01*
X76082453Y-60894967D02*
X76030072Y-60790205D01*
X76030072Y-60790205D02*
X76030072Y-60475919D01*
X76030072Y-60475919D02*
X76082453Y-60371157D01*
X76082453Y-60371157D02*
X76134834Y-60318776D01*
X76134834Y-60318776D02*
X76239596Y-60266395D01*
X76239596Y-60266395D02*
X76449120Y-60266395D01*
X76449120Y-60266395D02*
X76553882Y-60318776D01*
X77025310Y-60999728D02*
X77025310Y-59899728D01*
X77496739Y-60999728D02*
X77496739Y-60423538D01*
X77496739Y-60423538D02*
X77444358Y-60318776D01*
X77444358Y-60318776D02*
X77339596Y-60266395D01*
X77339596Y-60266395D02*
X77182453Y-60266395D01*
X77182453Y-60266395D02*
X77077691Y-60318776D01*
X77077691Y-60318776D02*
X77025310Y-60371157D01*
X78491977Y-60999728D02*
X78491977Y-60423538D01*
X78491977Y-60423538D02*
X78439596Y-60318776D01*
X78439596Y-60318776D02*
X78334834Y-60266395D01*
X78334834Y-60266395D02*
X78125310Y-60266395D01*
X78125310Y-60266395D02*
X78020548Y-60318776D01*
X78491977Y-60947348D02*
X78387215Y-60999728D01*
X78387215Y-60999728D02*
X78125310Y-60999728D01*
X78125310Y-60999728D02*
X78020548Y-60947348D01*
X78020548Y-60947348D02*
X77968167Y-60842586D01*
X77968167Y-60842586D02*
X77968167Y-60737824D01*
X77968167Y-60737824D02*
X78020548Y-60633062D01*
X78020548Y-60633062D02*
X78125310Y-60580681D01*
X78125310Y-60580681D02*
X78387215Y-60580681D01*
X78387215Y-60580681D02*
X78491977Y-60528300D01*
X79172929Y-60999728D02*
X79068167Y-60947348D01*
X79068167Y-60947348D02*
X79015786Y-60842586D01*
X79015786Y-60842586D02*
X79015786Y-59899728D01*
X79434833Y-60266395D02*
X79853881Y-60266395D01*
X79591976Y-59899728D02*
X79591976Y-60842586D01*
X79591976Y-60842586D02*
X79644357Y-60947348D01*
X79644357Y-60947348D02*
X79749119Y-60999728D01*
X79749119Y-60999728D02*
X79853881Y-60999728D01*
X80639595Y-60947348D02*
X80534833Y-60999728D01*
X80534833Y-60999728D02*
X80325309Y-60999728D01*
X80325309Y-60999728D02*
X80220547Y-60947348D01*
X80220547Y-60947348D02*
X80168166Y-60842586D01*
X80168166Y-60842586D02*
X80168166Y-60423538D01*
X80168166Y-60423538D02*
X80220547Y-60318776D01*
X80220547Y-60318776D02*
X80325309Y-60266395D01*
X80325309Y-60266395D02*
X80534833Y-60266395D01*
X80534833Y-60266395D02*
X80639595Y-60318776D01*
X80639595Y-60318776D02*
X80691976Y-60423538D01*
X80691976Y-60423538D02*
X80691976Y-60528300D01*
X80691976Y-60528300D02*
X80168166Y-60633062D01*
X81006261Y-60266395D02*
X81425309Y-60266395D01*
X81163404Y-59899728D02*
X81163404Y-60842586D01*
X81163404Y-60842586D02*
X81215785Y-60947348D01*
X81215785Y-60947348D02*
X81320547Y-60999728D01*
X81320547Y-60999728D02*
X81425309Y-60999728D01*
X82211023Y-60947348D02*
X82106261Y-60999728D01*
X82106261Y-60999728D02*
X81896737Y-60999728D01*
X81896737Y-60999728D02*
X81791975Y-60947348D01*
X81791975Y-60947348D02*
X81739594Y-60842586D01*
X81739594Y-60842586D02*
X81739594Y-60423538D01*
X81739594Y-60423538D02*
X81791975Y-60318776D01*
X81791975Y-60318776D02*
X81896737Y-60266395D01*
X81896737Y-60266395D02*
X82106261Y-60266395D01*
X82106261Y-60266395D02*
X82211023Y-60318776D01*
X82211023Y-60318776D02*
X82263404Y-60423538D01*
X82263404Y-60423538D02*
X82263404Y-60528300D01*
X82263404Y-60528300D02*
X81739594Y-60633062D01*
X82734832Y-60266395D02*
X82734832Y-60999728D01*
X82734832Y-60371157D02*
X82787213Y-60318776D01*
X82787213Y-60318776D02*
X82891975Y-60266395D01*
X82891975Y-60266395D02*
X83049118Y-60266395D01*
X83049118Y-60266395D02*
X83153880Y-60318776D01*
X83153880Y-60318776D02*
X83206261Y-60423538D01*
X83206261Y-60423538D02*
X83206261Y-60999728D01*
X84463403Y-59899728D02*
X85196737Y-59899728D01*
X85196737Y-59899728D02*
X84463403Y-60999728D01*
X84463403Y-60999728D02*
X85196737Y-60999728D01*
X86087213Y-60266395D02*
X86087213Y-60999728D01*
X85615784Y-60266395D02*
X85615784Y-60842586D01*
X85615784Y-60842586D02*
X85668165Y-60947348D01*
X85668165Y-60947348D02*
X85772927Y-60999728D01*
X85772927Y-60999728D02*
X85930070Y-60999728D01*
X85930070Y-60999728D02*
X86034832Y-60947348D01*
X86034832Y-60947348D02*
X86087213Y-60894967D01*
X86558641Y-60947348D02*
X86663403Y-60999728D01*
X86663403Y-60999728D02*
X86872927Y-60999728D01*
X86872927Y-60999728D02*
X86977689Y-60947348D01*
X86977689Y-60947348D02*
X87030070Y-60842586D01*
X87030070Y-60842586D02*
X87030070Y-60790205D01*
X87030070Y-60790205D02*
X86977689Y-60685443D01*
X86977689Y-60685443D02*
X86872927Y-60633062D01*
X86872927Y-60633062D02*
X86715784Y-60633062D01*
X86715784Y-60633062D02*
X86611022Y-60580681D01*
X86611022Y-60580681D02*
X86558641Y-60475919D01*
X86558641Y-60475919D02*
X86558641Y-60423538D01*
X86558641Y-60423538D02*
X86611022Y-60318776D01*
X86611022Y-60318776D02*
X86715784Y-60266395D01*
X86715784Y-60266395D02*
X86872927Y-60266395D01*
X86872927Y-60266395D02*
X86977689Y-60318776D01*
X87344355Y-60266395D02*
X87763403Y-60266395D01*
X87501498Y-59899728D02*
X87501498Y-60842586D01*
X87501498Y-60842586D02*
X87553879Y-60947348D01*
X87553879Y-60947348D02*
X87658641Y-60999728D01*
X87658641Y-60999728D02*
X87763403Y-60999728D01*
X88601498Y-60999728D02*
X88601498Y-60423538D01*
X88601498Y-60423538D02*
X88549117Y-60318776D01*
X88549117Y-60318776D02*
X88444355Y-60266395D01*
X88444355Y-60266395D02*
X88234831Y-60266395D01*
X88234831Y-60266395D02*
X88130069Y-60318776D01*
X88601498Y-60947348D02*
X88496736Y-60999728D01*
X88496736Y-60999728D02*
X88234831Y-60999728D01*
X88234831Y-60999728D02*
X88130069Y-60947348D01*
X88130069Y-60947348D02*
X88077688Y-60842586D01*
X88077688Y-60842586D02*
X88077688Y-60737824D01*
X88077688Y-60737824D02*
X88130069Y-60633062D01*
X88130069Y-60633062D02*
X88234831Y-60580681D01*
X88234831Y-60580681D02*
X88496736Y-60580681D01*
X88496736Y-60580681D02*
X88601498Y-60528300D01*
X89125307Y-60266395D02*
X89125307Y-60999728D01*
X89125307Y-60371157D02*
X89177688Y-60318776D01*
X89177688Y-60318776D02*
X89282450Y-60266395D01*
X89282450Y-60266395D02*
X89439593Y-60266395D01*
X89439593Y-60266395D02*
X89544355Y-60318776D01*
X89544355Y-60318776D02*
X89596736Y-60423538D01*
X89596736Y-60423538D02*
X89596736Y-60999728D01*
X90591974Y-60999728D02*
X90591974Y-59899728D01*
X90591974Y-60947348D02*
X90487212Y-60999728D01*
X90487212Y-60999728D02*
X90277688Y-60999728D01*
X90277688Y-60999728D02*
X90172926Y-60947348D01*
X90172926Y-60947348D02*
X90120545Y-60894967D01*
X90120545Y-60894967D02*
X90068164Y-60790205D01*
X90068164Y-60790205D02*
X90068164Y-60475919D01*
X90068164Y-60475919D02*
X90120545Y-60371157D01*
X90120545Y-60371157D02*
X90172926Y-60318776D01*
X90172926Y-60318776D02*
X90277688Y-60266395D01*
X90277688Y-60266395D02*
X90487212Y-60266395D01*
X90487212Y-60266395D02*
X90591974Y-60318776D01*
X92268164Y-61418776D02*
X92215783Y-61366395D01*
X92215783Y-61366395D02*
X92111021Y-61209252D01*
X92111021Y-61209252D02*
X92058640Y-61104490D01*
X92058640Y-61104490D02*
X92006259Y-60947348D01*
X92006259Y-60947348D02*
X91953878Y-60685443D01*
X91953878Y-60685443D02*
X91953878Y-60475919D01*
X91953878Y-60475919D02*
X92006259Y-60214014D01*
X92006259Y-60214014D02*
X92058640Y-60056871D01*
X92058640Y-60056871D02*
X92111021Y-59952109D01*
X92111021Y-59952109D02*
X92215783Y-59794967D01*
X92215783Y-59794967D02*
X92268164Y-59742586D01*
X92687211Y-60999728D02*
X92687211Y-59899728D01*
X92791973Y-60580681D02*
X93106259Y-60999728D01*
X93106259Y-60266395D02*
X92687211Y-60685443D01*
X93996735Y-60947348D02*
X93891973Y-60999728D01*
X93891973Y-60999728D02*
X93682449Y-60999728D01*
X93682449Y-60999728D02*
X93577687Y-60947348D01*
X93577687Y-60947348D02*
X93525306Y-60842586D01*
X93525306Y-60842586D02*
X93525306Y-60423538D01*
X93525306Y-60423538D02*
X93577687Y-60318776D01*
X93577687Y-60318776D02*
X93682449Y-60266395D01*
X93682449Y-60266395D02*
X93891973Y-60266395D01*
X93891973Y-60266395D02*
X93996735Y-60318776D01*
X93996735Y-60318776D02*
X94049116Y-60423538D01*
X94049116Y-60423538D02*
X94049116Y-60528300D01*
X94049116Y-60528300D02*
X93525306Y-60633062D01*
X94520544Y-60999728D02*
X94520544Y-60266395D01*
X94520544Y-59899728D02*
X94468163Y-59952109D01*
X94468163Y-59952109D02*
X94520544Y-60004490D01*
X94520544Y-60004490D02*
X94572925Y-59952109D01*
X94572925Y-59952109D02*
X94520544Y-59899728D01*
X94520544Y-59899728D02*
X94520544Y-60004490D01*
X95044354Y-60266395D02*
X95044354Y-60999728D01*
X95044354Y-60371157D02*
X95096735Y-60318776D01*
X95096735Y-60318776D02*
X95201497Y-60266395D01*
X95201497Y-60266395D02*
X95358640Y-60266395D01*
X95358640Y-60266395D02*
X95463402Y-60318776D01*
X95463402Y-60318776D02*
X95515783Y-60423538D01*
X95515783Y-60423538D02*
X95515783Y-60999728D01*
X97401497Y-60999728D02*
X96877687Y-60999728D01*
X96877687Y-60999728D02*
X96877687Y-59899728D01*
X98239592Y-60999728D02*
X98239592Y-60423538D01*
X98239592Y-60423538D02*
X98187211Y-60318776D01*
X98187211Y-60318776D02*
X98082449Y-60266395D01*
X98082449Y-60266395D02*
X97872925Y-60266395D01*
X97872925Y-60266395D02*
X97768163Y-60318776D01*
X98239592Y-60947348D02*
X98134830Y-60999728D01*
X98134830Y-60999728D02*
X97872925Y-60999728D01*
X97872925Y-60999728D02*
X97768163Y-60947348D01*
X97768163Y-60947348D02*
X97715782Y-60842586D01*
X97715782Y-60842586D02*
X97715782Y-60737824D01*
X97715782Y-60737824D02*
X97768163Y-60633062D01*
X97768163Y-60633062D02*
X97872925Y-60580681D01*
X97872925Y-60580681D02*
X98134830Y-60580681D01*
X98134830Y-60580681D02*
X98239592Y-60528300D01*
X98711020Y-60947348D02*
X98815782Y-60999728D01*
X98815782Y-60999728D02*
X99025306Y-60999728D01*
X99025306Y-60999728D02*
X99130068Y-60947348D01*
X99130068Y-60947348D02*
X99182449Y-60842586D01*
X99182449Y-60842586D02*
X99182449Y-60790205D01*
X99182449Y-60790205D02*
X99130068Y-60685443D01*
X99130068Y-60685443D02*
X99025306Y-60633062D01*
X99025306Y-60633062D02*
X98868163Y-60633062D01*
X98868163Y-60633062D02*
X98763401Y-60580681D01*
X98763401Y-60580681D02*
X98711020Y-60475919D01*
X98711020Y-60475919D02*
X98711020Y-60423538D01*
X98711020Y-60423538D02*
X98763401Y-60318776D01*
X98763401Y-60318776D02*
X98868163Y-60266395D01*
X98868163Y-60266395D02*
X99025306Y-60266395D01*
X99025306Y-60266395D02*
X99130068Y-60318776D01*
X99496734Y-60266395D02*
X99915782Y-60266395D01*
X99653877Y-59899728D02*
X99653877Y-60842586D01*
X99653877Y-60842586D02*
X99706258Y-60947348D01*
X99706258Y-60947348D02*
X99811020Y-60999728D01*
X99811020Y-60999728D02*
X99915782Y-60999728D01*
X100282448Y-60266395D02*
X100282448Y-61366395D01*
X100282448Y-60318776D02*
X100387210Y-60266395D01*
X100387210Y-60266395D02*
X100596734Y-60266395D01*
X100596734Y-60266395D02*
X100701496Y-60318776D01*
X100701496Y-60318776D02*
X100753877Y-60371157D01*
X100753877Y-60371157D02*
X100806258Y-60475919D01*
X100806258Y-60475919D02*
X100806258Y-60790205D01*
X100806258Y-60790205D02*
X100753877Y-60894967D01*
X100753877Y-60894967D02*
X100701496Y-60947348D01*
X100701496Y-60947348D02*
X100596734Y-60999728D01*
X100596734Y-60999728D02*
X100387210Y-60999728D01*
X100387210Y-60999728D02*
X100282448Y-60947348D01*
X101120543Y-60266395D02*
X101539591Y-60266395D01*
X101277686Y-60999728D02*
X101277686Y-60056871D01*
X101277686Y-60056871D02*
X101330067Y-59952109D01*
X101330067Y-59952109D02*
X101434829Y-59899728D01*
X101434829Y-59899728D02*
X101539591Y-59899728D01*
X102377686Y-60999728D02*
X102377686Y-60423538D01*
X102377686Y-60423538D02*
X102325305Y-60318776D01*
X102325305Y-60318776D02*
X102220543Y-60266395D01*
X102220543Y-60266395D02*
X102011019Y-60266395D01*
X102011019Y-60266395D02*
X101906257Y-60318776D01*
X102377686Y-60947348D02*
X102272924Y-60999728D01*
X102272924Y-60999728D02*
X102011019Y-60999728D01*
X102011019Y-60999728D02*
X101906257Y-60947348D01*
X101906257Y-60947348D02*
X101853876Y-60842586D01*
X101853876Y-60842586D02*
X101853876Y-60737824D01*
X101853876Y-60737824D02*
X101906257Y-60633062D01*
X101906257Y-60633062D02*
X102011019Y-60580681D01*
X102011019Y-60580681D02*
X102272924Y-60580681D01*
X102272924Y-60580681D02*
X102377686Y-60528300D01*
X103372924Y-60999728D02*
X103372924Y-59899728D01*
X103372924Y-60947348D02*
X103268162Y-60999728D01*
X103268162Y-60999728D02*
X103058638Y-60999728D01*
X103058638Y-60999728D02*
X102953876Y-60947348D01*
X102953876Y-60947348D02*
X102901495Y-60894967D01*
X102901495Y-60894967D02*
X102849114Y-60790205D01*
X102849114Y-60790205D02*
X102849114Y-60475919D01*
X102849114Y-60475919D02*
X102901495Y-60371157D01*
X102901495Y-60371157D02*
X102953876Y-60318776D01*
X102953876Y-60318776D02*
X103058638Y-60266395D01*
X103058638Y-60266395D02*
X103268162Y-60266395D01*
X103268162Y-60266395D02*
X103372924Y-60318776D01*
X103791971Y-61418776D02*
X103844352Y-61366395D01*
X103844352Y-61366395D02*
X103949114Y-61209252D01*
X103949114Y-61209252D02*
X104001495Y-61104490D01*
X104001495Y-61104490D02*
X104053876Y-60947348D01*
X104053876Y-60947348D02*
X104106257Y-60685443D01*
X104106257Y-60685443D02*
X104106257Y-60475919D01*
X104106257Y-60475919D02*
X104053876Y-60214014D01*
X104053876Y-60214014D02*
X104001495Y-60056871D01*
X104001495Y-60056871D02*
X103949114Y-59952109D01*
X103949114Y-59952109D02*
X103844352Y-59794967D01*
X103844352Y-59794967D02*
X103791971Y-59742586D01*
X58691979Y-62899728D02*
X58691979Y-63685443D01*
X58691979Y-63685443D02*
X58639598Y-63842586D01*
X58639598Y-63842586D02*
X58534836Y-63947348D01*
X58534836Y-63947348D02*
X58377693Y-63999728D01*
X58377693Y-63999728D02*
X58272931Y-63999728D01*
X59739598Y-62899728D02*
X59215788Y-62899728D01*
X59215788Y-62899728D02*
X59163407Y-63423538D01*
X59163407Y-63423538D02*
X59215788Y-63371157D01*
X59215788Y-63371157D02*
X59320550Y-63318776D01*
X59320550Y-63318776D02*
X59582455Y-63318776D01*
X59582455Y-63318776D02*
X59687217Y-63371157D01*
X59687217Y-63371157D02*
X59739598Y-63423538D01*
X59739598Y-63423538D02*
X59791979Y-63528300D01*
X59791979Y-63528300D02*
X59791979Y-63790205D01*
X59791979Y-63790205D02*
X59739598Y-63894967D01*
X59739598Y-63894967D02*
X59687217Y-63947348D01*
X59687217Y-63947348D02*
X59582455Y-63999728D01*
X59582455Y-63999728D02*
X59320550Y-63999728D01*
X59320550Y-63999728D02*
X59215788Y-63947348D01*
X59215788Y-63947348D02*
X59163407Y-63894967D01*
X61101502Y-63999728D02*
X61101502Y-62899728D01*
X61101502Y-62899728D02*
X61520550Y-62899728D01*
X61520550Y-62899728D02*
X61625312Y-62952109D01*
X61625312Y-62952109D02*
X61677693Y-63004490D01*
X61677693Y-63004490D02*
X61730074Y-63109252D01*
X61730074Y-63109252D02*
X61730074Y-63266395D01*
X61730074Y-63266395D02*
X61677693Y-63371157D01*
X61677693Y-63371157D02*
X61625312Y-63423538D01*
X61625312Y-63423538D02*
X61520550Y-63475919D01*
X61520550Y-63475919D02*
X61101502Y-63475919D01*
X62201502Y-63999728D02*
X62201502Y-63266395D01*
X62201502Y-62899728D02*
X62149121Y-62952109D01*
X62149121Y-62952109D02*
X62201502Y-63004490D01*
X62201502Y-63004490D02*
X62253883Y-62952109D01*
X62253883Y-62952109D02*
X62201502Y-62899728D01*
X62201502Y-62899728D02*
X62201502Y-63004490D01*
X63144360Y-63947348D02*
X63039598Y-63999728D01*
X63039598Y-63999728D02*
X62830074Y-63999728D01*
X62830074Y-63999728D02*
X62725312Y-63947348D01*
X62725312Y-63947348D02*
X62672931Y-63842586D01*
X62672931Y-63842586D02*
X62672931Y-63423538D01*
X62672931Y-63423538D02*
X62725312Y-63318776D01*
X62725312Y-63318776D02*
X62830074Y-63266395D01*
X62830074Y-63266395D02*
X63039598Y-63266395D01*
X63039598Y-63266395D02*
X63144360Y-63318776D01*
X63144360Y-63318776D02*
X63196741Y-63423538D01*
X63196741Y-63423538D02*
X63196741Y-63528300D01*
X63196741Y-63528300D02*
X62672931Y-63633062D01*
X63563407Y-63266395D02*
X64139598Y-63266395D01*
X64139598Y-63266395D02*
X63563407Y-63999728D01*
X63563407Y-63999728D02*
X64139598Y-63999728D01*
X64715788Y-63999728D02*
X64611026Y-63947348D01*
X64611026Y-63947348D02*
X64558645Y-63894967D01*
X64558645Y-63894967D02*
X64506264Y-63790205D01*
X64506264Y-63790205D02*
X64506264Y-63475919D01*
X64506264Y-63475919D02*
X64558645Y-63371157D01*
X64558645Y-63371157D02*
X64611026Y-63318776D01*
X64611026Y-63318776D02*
X64715788Y-63266395D01*
X64715788Y-63266395D02*
X64872931Y-63266395D01*
X64872931Y-63266395D02*
X64977693Y-63318776D01*
X64977693Y-63318776D02*
X65030074Y-63371157D01*
X65030074Y-63371157D02*
X65082455Y-63475919D01*
X65082455Y-63475919D02*
X65082455Y-63790205D01*
X65082455Y-63790205D02*
X65030074Y-63894967D01*
X65030074Y-63894967D02*
X64977693Y-63947348D01*
X64977693Y-63947348D02*
X64872931Y-63999728D01*
X64872931Y-63999728D02*
X64715788Y-63999728D01*
X65553883Y-63894967D02*
X65606264Y-63947348D01*
X65606264Y-63947348D02*
X65553883Y-63999728D01*
X65553883Y-63999728D02*
X65501502Y-63947348D01*
X65501502Y-63947348D02*
X65553883Y-63894967D01*
X65553883Y-63894967D02*
X65553883Y-63999728D01*
X65553883Y-63318776D02*
X65606264Y-63371157D01*
X65606264Y-63371157D02*
X65553883Y-63423538D01*
X65553883Y-63423538D02*
X65501502Y-63371157D01*
X65501502Y-63371157D02*
X65553883Y-63318776D01*
X65553883Y-63318776D02*
X65553883Y-63423538D01*
X68330074Y-63999728D02*
X67701502Y-63999728D01*
X68015788Y-63999728D02*
X68015788Y-62899728D01*
X68015788Y-62899728D02*
X67911026Y-63056871D01*
X67911026Y-63056871D02*
X67806264Y-63161633D01*
X67806264Y-63161633D02*
X67701502Y-63214014D01*
X69639597Y-63423538D02*
X70477693Y-63423538D01*
X70477693Y-63737824D02*
X69639597Y-63737824D01*
X71839597Y-63580681D02*
X72677693Y-63580681D01*
X72258645Y-63999728D02*
X72258645Y-63161633D01*
X73253883Y-63947348D02*
X73253883Y-63999728D01*
X73253883Y-63999728D02*
X73201502Y-64104490D01*
X73201502Y-64104490D02*
X73149121Y-64156871D01*
X75349121Y-63004490D02*
X75401502Y-62952109D01*
X75401502Y-62952109D02*
X75506264Y-62899728D01*
X75506264Y-62899728D02*
X75768169Y-62899728D01*
X75768169Y-62899728D02*
X75872931Y-62952109D01*
X75872931Y-62952109D02*
X75925312Y-63004490D01*
X75925312Y-63004490D02*
X75977693Y-63109252D01*
X75977693Y-63109252D02*
X75977693Y-63214014D01*
X75977693Y-63214014D02*
X75925312Y-63371157D01*
X75925312Y-63371157D02*
X75296740Y-63999728D01*
X75296740Y-63999728D02*
X75977693Y-63999728D01*
X77287216Y-63423538D02*
X78125312Y-63423538D01*
X78125312Y-63737824D02*
X77287216Y-63737824D01*
X79487216Y-63580681D02*
X80325312Y-63580681D01*
X83677692Y-64418776D02*
X83625311Y-64366395D01*
X83625311Y-64366395D02*
X83520549Y-64209252D01*
X83520549Y-64209252D02*
X83468168Y-64104490D01*
X83468168Y-64104490D02*
X83415787Y-63947348D01*
X83415787Y-63947348D02*
X83363406Y-63685443D01*
X83363406Y-63685443D02*
X83363406Y-63475919D01*
X83363406Y-63475919D02*
X83415787Y-63214014D01*
X83415787Y-63214014D02*
X83468168Y-63056871D01*
X83468168Y-63056871D02*
X83520549Y-62952109D01*
X83520549Y-62952109D02*
X83625311Y-62794967D01*
X83625311Y-62794967D02*
X83677692Y-62742586D01*
X84725311Y-63894967D02*
X84672930Y-63947348D01*
X84672930Y-63947348D02*
X84515787Y-63999728D01*
X84515787Y-63999728D02*
X84411025Y-63999728D01*
X84411025Y-63999728D02*
X84253882Y-63947348D01*
X84253882Y-63947348D02*
X84149120Y-63842586D01*
X84149120Y-63842586D02*
X84096739Y-63737824D01*
X84096739Y-63737824D02*
X84044358Y-63528300D01*
X84044358Y-63528300D02*
X84044358Y-63371157D01*
X84044358Y-63371157D02*
X84096739Y-63161633D01*
X84096739Y-63161633D02*
X84149120Y-63056871D01*
X84149120Y-63056871D02*
X84253882Y-62952109D01*
X84253882Y-62952109D02*
X84411025Y-62899728D01*
X84411025Y-62899728D02*
X84515787Y-62899728D01*
X84515787Y-62899728D02*
X84672930Y-62952109D01*
X84672930Y-62952109D02*
X84725311Y-63004490D01*
X85196739Y-63423538D02*
X85563406Y-63423538D01*
X85720549Y-63999728D02*
X85196739Y-63999728D01*
X85196739Y-63999728D02*
X85196739Y-62899728D01*
X85196739Y-62899728D02*
X85720549Y-62899728D01*
X86191977Y-63999728D02*
X86191977Y-62899728D01*
X86191977Y-62899728D02*
X86611025Y-62899728D01*
X86611025Y-62899728D02*
X86715787Y-62952109D01*
X86715787Y-62952109D02*
X86768168Y-63004490D01*
X86768168Y-63004490D02*
X86820549Y-63109252D01*
X86820549Y-63109252D02*
X86820549Y-63266395D01*
X86820549Y-63266395D02*
X86768168Y-63371157D01*
X86768168Y-63371157D02*
X86715787Y-63423538D01*
X86715787Y-63423538D02*
X86611025Y-63475919D01*
X86611025Y-63475919D02*
X86191977Y-63475919D01*
X87291977Y-63580681D02*
X88130073Y-63580681D01*
X89230073Y-63999728D02*
X88601501Y-63999728D01*
X88915787Y-63999728D02*
X88915787Y-62899728D01*
X88915787Y-62899728D02*
X88811025Y-63056871D01*
X88811025Y-63056871D02*
X88706263Y-63161633D01*
X88706263Y-63161633D02*
X88601501Y-63214014D01*
X90277692Y-63999728D02*
X89649120Y-63999728D01*
X89963406Y-63999728D02*
X89963406Y-62899728D01*
X89963406Y-62899728D02*
X89858644Y-63056871D01*
X89858644Y-63056871D02*
X89753882Y-63161633D01*
X89753882Y-63161633D02*
X89649120Y-63214014D01*
X91325311Y-63999728D02*
X90696739Y-63999728D01*
X91011025Y-63999728D02*
X91011025Y-62899728D01*
X91011025Y-62899728D02*
X90906263Y-63056871D01*
X90906263Y-63056871D02*
X90801501Y-63161633D01*
X90801501Y-63161633D02*
X90696739Y-63214014D01*
X92268168Y-63266395D02*
X92268168Y-63999728D01*
X92006263Y-62847348D02*
X91744358Y-63633062D01*
X91744358Y-63633062D02*
X92425311Y-63633062D01*
X93630072Y-63947348D02*
X93734834Y-63999728D01*
X93734834Y-63999728D02*
X93944358Y-63999728D01*
X93944358Y-63999728D02*
X94049120Y-63947348D01*
X94049120Y-63947348D02*
X94101501Y-63842586D01*
X94101501Y-63842586D02*
X94101501Y-63790205D01*
X94101501Y-63790205D02*
X94049120Y-63685443D01*
X94049120Y-63685443D02*
X93944358Y-63633062D01*
X93944358Y-63633062D02*
X93787215Y-63633062D01*
X93787215Y-63633062D02*
X93682453Y-63580681D01*
X93682453Y-63580681D02*
X93630072Y-63475919D01*
X93630072Y-63475919D02*
X93630072Y-63423538D01*
X93630072Y-63423538D02*
X93682453Y-63318776D01*
X93682453Y-63318776D02*
X93787215Y-63266395D01*
X93787215Y-63266395D02*
X93944358Y-63266395D01*
X93944358Y-63266395D02*
X94049120Y-63318776D01*
X94572929Y-63999728D02*
X94572929Y-63266395D01*
X94572929Y-62899728D02*
X94520548Y-62952109D01*
X94520548Y-62952109D02*
X94572929Y-63004490D01*
X94572929Y-63004490D02*
X94625310Y-62952109D01*
X94625310Y-62952109D02*
X94572929Y-62899728D01*
X94572929Y-62899728D02*
X94572929Y-63004490D01*
X94939596Y-63266395D02*
X95358644Y-63266395D01*
X95096739Y-62899728D02*
X95096739Y-63842586D01*
X95096739Y-63842586D02*
X95149120Y-63947348D01*
X95149120Y-63947348D02*
X95253882Y-63999728D01*
X95253882Y-63999728D02*
X95358644Y-63999728D01*
X95620548Y-63266395D02*
X96196739Y-63266395D01*
X96196739Y-63266395D02*
X95620548Y-63999728D01*
X95620548Y-63999728D02*
X96196739Y-63999728D01*
X96458643Y-63266395D02*
X96877691Y-63266395D01*
X96615786Y-62899728D02*
X96615786Y-63842586D01*
X96615786Y-63842586D02*
X96668167Y-63947348D01*
X96668167Y-63947348D02*
X96772929Y-63999728D01*
X96772929Y-63999728D02*
X96877691Y-63999728D01*
X98553881Y-63999728D02*
X98553881Y-63423538D01*
X98553881Y-63423538D02*
X98501500Y-63318776D01*
X98501500Y-63318776D02*
X98396738Y-63266395D01*
X98396738Y-63266395D02*
X98187214Y-63266395D01*
X98187214Y-63266395D02*
X98082452Y-63318776D01*
X98553881Y-63947348D02*
X98449119Y-63999728D01*
X98449119Y-63999728D02*
X98187214Y-63999728D01*
X98187214Y-63999728D02*
X98082452Y-63947348D01*
X98082452Y-63947348D02*
X98030071Y-63842586D01*
X98030071Y-63842586D02*
X98030071Y-63737824D01*
X98030071Y-63737824D02*
X98082452Y-63633062D01*
X98082452Y-63633062D02*
X98187214Y-63580681D01*
X98187214Y-63580681D02*
X98449119Y-63580681D01*
X98449119Y-63580681D02*
X98553881Y-63528300D01*
X99077690Y-63999728D02*
X99077690Y-63266395D01*
X99077690Y-63371157D02*
X99130071Y-63318776D01*
X99130071Y-63318776D02*
X99234833Y-63266395D01*
X99234833Y-63266395D02*
X99391976Y-63266395D01*
X99391976Y-63266395D02*
X99496738Y-63318776D01*
X99496738Y-63318776D02*
X99549119Y-63423538D01*
X99549119Y-63423538D02*
X99549119Y-63999728D01*
X99549119Y-63423538D02*
X99601500Y-63318776D01*
X99601500Y-63318776D02*
X99706262Y-63266395D01*
X99706262Y-63266395D02*
X99863405Y-63266395D01*
X99863405Y-63266395D02*
X99968166Y-63318776D01*
X99968166Y-63318776D02*
X100020547Y-63423538D01*
X100020547Y-63423538D02*
X100020547Y-63999728D01*
X101382452Y-63999728D02*
X101382452Y-62899728D01*
X102011024Y-63999728D02*
X101539595Y-63371157D01*
X102011024Y-62899728D02*
X101382452Y-63528300D01*
X102953881Y-63999728D02*
X102953881Y-63423538D01*
X102953881Y-63423538D02*
X102901500Y-63318776D01*
X102901500Y-63318776D02*
X102796738Y-63266395D01*
X102796738Y-63266395D02*
X102587214Y-63266395D01*
X102587214Y-63266395D02*
X102482452Y-63318776D01*
X102953881Y-63947348D02*
X102849119Y-63999728D01*
X102849119Y-63999728D02*
X102587214Y-63999728D01*
X102587214Y-63999728D02*
X102482452Y-63947348D01*
X102482452Y-63947348D02*
X102430071Y-63842586D01*
X102430071Y-63842586D02*
X102430071Y-63737824D01*
X102430071Y-63737824D02*
X102482452Y-63633062D01*
X102482452Y-63633062D02*
X102587214Y-63580681D01*
X102587214Y-63580681D02*
X102849119Y-63580681D01*
X102849119Y-63580681D02*
X102953881Y-63528300D01*
X103477690Y-63999728D02*
X103477690Y-62899728D01*
X103477690Y-63318776D02*
X103582452Y-63266395D01*
X103582452Y-63266395D02*
X103791976Y-63266395D01*
X103791976Y-63266395D02*
X103896738Y-63318776D01*
X103896738Y-63318776D02*
X103949119Y-63371157D01*
X103949119Y-63371157D02*
X104001500Y-63475919D01*
X104001500Y-63475919D02*
X104001500Y-63790205D01*
X104001500Y-63790205D02*
X103949119Y-63894967D01*
X103949119Y-63894967D02*
X103896738Y-63947348D01*
X103896738Y-63947348D02*
X103791976Y-63999728D01*
X103791976Y-63999728D02*
X103582452Y-63999728D01*
X103582452Y-63999728D02*
X103477690Y-63947348D01*
X104891976Y-63947348D02*
X104787214Y-63999728D01*
X104787214Y-63999728D02*
X104577690Y-63999728D01*
X104577690Y-63999728D02*
X104472928Y-63947348D01*
X104472928Y-63947348D02*
X104420547Y-63842586D01*
X104420547Y-63842586D02*
X104420547Y-63423538D01*
X104420547Y-63423538D02*
X104472928Y-63318776D01*
X104472928Y-63318776D02*
X104577690Y-63266395D01*
X104577690Y-63266395D02*
X104787214Y-63266395D01*
X104787214Y-63266395D02*
X104891976Y-63318776D01*
X104891976Y-63318776D02*
X104944357Y-63423538D01*
X104944357Y-63423538D02*
X104944357Y-63528300D01*
X104944357Y-63528300D02*
X104420547Y-63633062D01*
X105572928Y-63999728D02*
X105468166Y-63947348D01*
X105468166Y-63947348D02*
X105415785Y-63842586D01*
X105415785Y-63842586D02*
X105415785Y-62899728D01*
X105887213Y-64418776D02*
X105939594Y-64366395D01*
X105939594Y-64366395D02*
X106044356Y-64209252D01*
X106044356Y-64209252D02*
X106096737Y-64104490D01*
X106096737Y-64104490D02*
X106149118Y-63947348D01*
X106149118Y-63947348D02*
X106201499Y-63685443D01*
X106201499Y-63685443D02*
X106201499Y-63475919D01*
X106201499Y-63475919D02*
X106149118Y-63214014D01*
X106149118Y-63214014D02*
X106096737Y-63056871D01*
X106096737Y-63056871D02*
X106044356Y-62952109D01*
X106044356Y-62952109D02*
X105939594Y-62794967D01*
X105939594Y-62794967D02*
X105887213Y-62742586D01*
D13*
X45485714Y-67863335D02*
X45219047Y-67482382D01*
X45028571Y-67863335D02*
X45028571Y-67063335D01*
X45028571Y-67063335D02*
X45333333Y-67063335D01*
X45333333Y-67063335D02*
X45409523Y-67101430D01*
X45409523Y-67101430D02*
X45447618Y-67139525D01*
X45447618Y-67139525D02*
X45485714Y-67215716D01*
X45485714Y-67215716D02*
X45485714Y-67330001D01*
X45485714Y-67330001D02*
X45447618Y-67406192D01*
X45447618Y-67406192D02*
X45409523Y-67444287D01*
X45409523Y-67444287D02*
X45333333Y-67482382D01*
X45333333Y-67482382D02*
X45028571Y-67482382D01*
X46247618Y-67863335D02*
X45790475Y-67863335D01*
X46019047Y-67863335D02*
X46019047Y-67063335D01*
X46019047Y-67063335D02*
X45942856Y-67177620D01*
X45942856Y-67177620D02*
X45866666Y-67253811D01*
X45866666Y-67253811D02*
X45790475Y-67291906D01*
X46933333Y-67330001D02*
X46933333Y-67863335D01*
X46742857Y-67025240D02*
X46552380Y-67596668D01*
X46552380Y-67596668D02*
X47047619Y-67596668D01*
X114390476Y-61363335D02*
X114390476Y-60563335D01*
X114390476Y-60944287D02*
X114847619Y-60944287D01*
X114847619Y-61363335D02*
X114847619Y-60563335D01*
X115152380Y-60563335D02*
X115647618Y-60563335D01*
X115647618Y-60563335D02*
X115380952Y-60868097D01*
X115380952Y-60868097D02*
X115495237Y-60868097D01*
X115495237Y-60868097D02*
X115571428Y-60906192D01*
X115571428Y-60906192D02*
X115609523Y-60944287D01*
X115609523Y-60944287D02*
X115647618Y-61020478D01*
X115647618Y-61020478D02*
X115647618Y-61210954D01*
X115647618Y-61210954D02*
X115609523Y-61287144D01*
X115609523Y-61287144D02*
X115571428Y-61325240D01*
X115571428Y-61325240D02*
X115495237Y-61363335D01*
X115495237Y-61363335D02*
X115266666Y-61363335D01*
X115266666Y-61363335D02*
X115190475Y-61325240D01*
X115190475Y-61325240D02*
X115152380Y-61287144D01*
X103990476Y-85063335D02*
X104447619Y-85063335D01*
X104219047Y-85863335D02*
X104219047Y-85063335D01*
X104714286Y-85863335D02*
X104714286Y-85063335D01*
X104714286Y-85063335D02*
X105019048Y-85063335D01*
X105019048Y-85063335D02*
X105095238Y-85101430D01*
X105095238Y-85101430D02*
X105133333Y-85139525D01*
X105133333Y-85139525D02*
X105171429Y-85215716D01*
X105171429Y-85215716D02*
X105171429Y-85330001D01*
X105171429Y-85330001D02*
X105133333Y-85406192D01*
X105133333Y-85406192D02*
X105095238Y-85444287D01*
X105095238Y-85444287D02*
X105019048Y-85482382D01*
X105019048Y-85482382D02*
X104714286Y-85482382D01*
X105438095Y-85063335D02*
X105933333Y-85063335D01*
X105933333Y-85063335D02*
X105666667Y-85368097D01*
X105666667Y-85368097D02*
X105780952Y-85368097D01*
X105780952Y-85368097D02*
X105857143Y-85406192D01*
X105857143Y-85406192D02*
X105895238Y-85444287D01*
X105895238Y-85444287D02*
X105933333Y-85520478D01*
X105933333Y-85520478D02*
X105933333Y-85710954D01*
X105933333Y-85710954D02*
X105895238Y-85787144D01*
X105895238Y-85787144D02*
X105857143Y-85825240D01*
X105857143Y-85825240D02*
X105780952Y-85863335D01*
X105780952Y-85863335D02*
X105552381Y-85863335D01*
X105552381Y-85863335D02*
X105476190Y-85825240D01*
X105476190Y-85825240D02*
X105438095Y-85787144D01*
X34890476Y-73363335D02*
X34890476Y-72563335D01*
X34890476Y-72944287D02*
X35347619Y-72944287D01*
X35347619Y-73363335D02*
X35347619Y-72563335D01*
X36071428Y-72830001D02*
X36071428Y-73363335D01*
X35880952Y-72525240D02*
X35690475Y-73096668D01*
X35690475Y-73096668D02*
X36185714Y-73096668D01*
X90866667Y-86487144D02*
X90828571Y-86525240D01*
X90828571Y-86525240D02*
X90714286Y-86563335D01*
X90714286Y-86563335D02*
X90638095Y-86563335D01*
X90638095Y-86563335D02*
X90523809Y-86525240D01*
X90523809Y-86525240D02*
X90447619Y-86449049D01*
X90447619Y-86449049D02*
X90409524Y-86372859D01*
X90409524Y-86372859D02*
X90371428Y-86220478D01*
X90371428Y-86220478D02*
X90371428Y-86106192D01*
X90371428Y-86106192D02*
X90409524Y-85953811D01*
X90409524Y-85953811D02*
X90447619Y-85877620D01*
X90447619Y-85877620D02*
X90523809Y-85801430D01*
X90523809Y-85801430D02*
X90638095Y-85763335D01*
X90638095Y-85763335D02*
X90714286Y-85763335D01*
X90714286Y-85763335D02*
X90828571Y-85801430D01*
X90828571Y-85801430D02*
X90866667Y-85839525D01*
X91323809Y-86106192D02*
X91247619Y-86068097D01*
X91247619Y-86068097D02*
X91209524Y-86030001D01*
X91209524Y-86030001D02*
X91171428Y-85953811D01*
X91171428Y-85953811D02*
X91171428Y-85915716D01*
X91171428Y-85915716D02*
X91209524Y-85839525D01*
X91209524Y-85839525D02*
X91247619Y-85801430D01*
X91247619Y-85801430D02*
X91323809Y-85763335D01*
X91323809Y-85763335D02*
X91476190Y-85763335D01*
X91476190Y-85763335D02*
X91552381Y-85801430D01*
X91552381Y-85801430D02*
X91590476Y-85839525D01*
X91590476Y-85839525D02*
X91628571Y-85915716D01*
X91628571Y-85915716D02*
X91628571Y-85953811D01*
X91628571Y-85953811D02*
X91590476Y-86030001D01*
X91590476Y-86030001D02*
X91552381Y-86068097D01*
X91552381Y-86068097D02*
X91476190Y-86106192D01*
X91476190Y-86106192D02*
X91323809Y-86106192D01*
X91323809Y-86106192D02*
X91247619Y-86144287D01*
X91247619Y-86144287D02*
X91209524Y-86182382D01*
X91209524Y-86182382D02*
X91171428Y-86258573D01*
X91171428Y-86258573D02*
X91171428Y-86410954D01*
X91171428Y-86410954D02*
X91209524Y-86487144D01*
X91209524Y-86487144D02*
X91247619Y-86525240D01*
X91247619Y-86525240D02*
X91323809Y-86563335D01*
X91323809Y-86563335D02*
X91476190Y-86563335D01*
X91476190Y-86563335D02*
X91552381Y-86525240D01*
X91552381Y-86525240D02*
X91590476Y-86487144D01*
X91590476Y-86487144D02*
X91628571Y-86410954D01*
X91628571Y-86410954D02*
X91628571Y-86258573D01*
X91628571Y-86258573D02*
X91590476Y-86182382D01*
X91590476Y-86182382D02*
X91552381Y-86144287D01*
X91552381Y-86144287D02*
X91476190Y-86106192D01*
X94990476Y-68063335D02*
X95447619Y-68063335D01*
X95219047Y-68863335D02*
X95219047Y-68063335D01*
X95714286Y-68863335D02*
X95714286Y-68063335D01*
X95714286Y-68063335D02*
X96019048Y-68063335D01*
X96019048Y-68063335D02*
X96095238Y-68101430D01*
X96095238Y-68101430D02*
X96133333Y-68139525D01*
X96133333Y-68139525D02*
X96171429Y-68215716D01*
X96171429Y-68215716D02*
X96171429Y-68330001D01*
X96171429Y-68330001D02*
X96133333Y-68406192D01*
X96133333Y-68406192D02*
X96095238Y-68444287D01*
X96095238Y-68444287D02*
X96019048Y-68482382D01*
X96019048Y-68482382D02*
X95714286Y-68482382D01*
X96857143Y-68063335D02*
X96704762Y-68063335D01*
X96704762Y-68063335D02*
X96628571Y-68101430D01*
X96628571Y-68101430D02*
X96590476Y-68139525D01*
X96590476Y-68139525D02*
X96514286Y-68253811D01*
X96514286Y-68253811D02*
X96476190Y-68406192D01*
X96476190Y-68406192D02*
X96476190Y-68710954D01*
X96476190Y-68710954D02*
X96514286Y-68787144D01*
X96514286Y-68787144D02*
X96552381Y-68825240D01*
X96552381Y-68825240D02*
X96628571Y-68863335D01*
X96628571Y-68863335D02*
X96780952Y-68863335D01*
X96780952Y-68863335D02*
X96857143Y-68825240D01*
X96857143Y-68825240D02*
X96895238Y-68787144D01*
X96895238Y-68787144D02*
X96933333Y-68710954D01*
X96933333Y-68710954D02*
X96933333Y-68520478D01*
X96933333Y-68520478D02*
X96895238Y-68444287D01*
X96895238Y-68444287D02*
X96857143Y-68406192D01*
X96857143Y-68406192D02*
X96780952Y-68368097D01*
X96780952Y-68368097D02*
X96628571Y-68368097D01*
X96628571Y-68368097D02*
X96552381Y-68406192D01*
X96552381Y-68406192D02*
X96514286Y-68444287D01*
X96514286Y-68444287D02*
X96476190Y-68520478D01*
X64609523Y-44063335D02*
X65066666Y-44063335D01*
X64838094Y-44863335D02*
X64838094Y-44063335D01*
X65333333Y-44863335D02*
X65333333Y-44063335D01*
X65333333Y-44063335D02*
X65638095Y-44063335D01*
X65638095Y-44063335D02*
X65714285Y-44101430D01*
X65714285Y-44101430D02*
X65752380Y-44139525D01*
X65752380Y-44139525D02*
X65790476Y-44215716D01*
X65790476Y-44215716D02*
X65790476Y-44330001D01*
X65790476Y-44330001D02*
X65752380Y-44406192D01*
X65752380Y-44406192D02*
X65714285Y-44444287D01*
X65714285Y-44444287D02*
X65638095Y-44482382D01*
X65638095Y-44482382D02*
X65333333Y-44482382D01*
X66552380Y-44863335D02*
X66095237Y-44863335D01*
X66323809Y-44863335D02*
X66323809Y-44063335D01*
X66323809Y-44063335D02*
X66247618Y-44177620D01*
X66247618Y-44177620D02*
X66171428Y-44253811D01*
X66171428Y-44253811D02*
X66095237Y-44291906D01*
X67047619Y-44063335D02*
X67123809Y-44063335D01*
X67123809Y-44063335D02*
X67200000Y-44101430D01*
X67200000Y-44101430D02*
X67238095Y-44139525D01*
X67238095Y-44139525D02*
X67276190Y-44215716D01*
X67276190Y-44215716D02*
X67314285Y-44368097D01*
X67314285Y-44368097D02*
X67314285Y-44558573D01*
X67314285Y-44558573D02*
X67276190Y-44710954D01*
X67276190Y-44710954D02*
X67238095Y-44787144D01*
X67238095Y-44787144D02*
X67200000Y-44825240D01*
X67200000Y-44825240D02*
X67123809Y-44863335D01*
X67123809Y-44863335D02*
X67047619Y-44863335D01*
X67047619Y-44863335D02*
X66971428Y-44825240D01*
X66971428Y-44825240D02*
X66933333Y-44787144D01*
X66933333Y-44787144D02*
X66895238Y-44710954D01*
X66895238Y-44710954D02*
X66857142Y-44558573D01*
X66857142Y-44558573D02*
X66857142Y-44368097D01*
X66857142Y-44368097D02*
X66895238Y-44215716D01*
X66895238Y-44215716D02*
X66933333Y-44139525D01*
X66933333Y-44139525D02*
X66971428Y-44101430D01*
X66971428Y-44101430D02*
X67047619Y-44063335D01*
X96133333Y-39544287D02*
X95866667Y-39544287D01*
X95866667Y-39963335D02*
X95866667Y-39163335D01*
X95866667Y-39163335D02*
X96247619Y-39163335D01*
X96971428Y-39963335D02*
X96514285Y-39963335D01*
X96742857Y-39963335D02*
X96742857Y-39163335D01*
X96742857Y-39163335D02*
X96666666Y-39277620D01*
X96666666Y-39277620D02*
X96590476Y-39353811D01*
X96590476Y-39353811D02*
X96514285Y-39391906D01*
X82766667Y-77263335D02*
X82500000Y-76882382D01*
X82309524Y-77263335D02*
X82309524Y-76463335D01*
X82309524Y-76463335D02*
X82614286Y-76463335D01*
X82614286Y-76463335D02*
X82690476Y-76501430D01*
X82690476Y-76501430D02*
X82728571Y-76539525D01*
X82728571Y-76539525D02*
X82766667Y-76615716D01*
X82766667Y-76615716D02*
X82766667Y-76730001D01*
X82766667Y-76730001D02*
X82728571Y-76806192D01*
X82728571Y-76806192D02*
X82690476Y-76844287D01*
X82690476Y-76844287D02*
X82614286Y-76882382D01*
X82614286Y-76882382D02*
X82309524Y-76882382D01*
X83033333Y-76463335D02*
X83566667Y-76463335D01*
X83566667Y-76463335D02*
X83223809Y-77263335D01*
X108370476Y-76583335D02*
X108370476Y-77230954D01*
X108370476Y-77230954D02*
X108408571Y-77307144D01*
X108408571Y-77307144D02*
X108446666Y-77345240D01*
X108446666Y-77345240D02*
X108522857Y-77383335D01*
X108522857Y-77383335D02*
X108675238Y-77383335D01*
X108675238Y-77383335D02*
X108751428Y-77345240D01*
X108751428Y-77345240D02*
X108789523Y-77307144D01*
X108789523Y-77307144D02*
X108827619Y-77230954D01*
X108827619Y-77230954D02*
X108827619Y-76583335D01*
X109132380Y-76583335D02*
X109627618Y-76583335D01*
X109627618Y-76583335D02*
X109360952Y-76888097D01*
X109360952Y-76888097D02*
X109475237Y-76888097D01*
X109475237Y-76888097D02*
X109551428Y-76926192D01*
X109551428Y-76926192D02*
X109589523Y-76964287D01*
X109589523Y-76964287D02*
X109627618Y-77040478D01*
X109627618Y-77040478D02*
X109627618Y-77230954D01*
X109627618Y-77230954D02*
X109589523Y-77307144D01*
X109589523Y-77307144D02*
X109551428Y-77345240D01*
X109551428Y-77345240D02*
X109475237Y-77383335D01*
X109475237Y-77383335D02*
X109246666Y-77383335D01*
X109246666Y-77383335D02*
X109170475Y-77345240D01*
X109170475Y-77345240D02*
X109132380Y-77307144D01*
X92490476Y-86763335D02*
X92947619Y-86763335D01*
X92719047Y-87563335D02*
X92719047Y-86763335D01*
X93214286Y-87563335D02*
X93214286Y-86763335D01*
X93214286Y-86763335D02*
X93519048Y-86763335D01*
X93519048Y-86763335D02*
X93595238Y-86801430D01*
X93595238Y-86801430D02*
X93633333Y-86839525D01*
X93633333Y-86839525D02*
X93671429Y-86915716D01*
X93671429Y-86915716D02*
X93671429Y-87030001D01*
X93671429Y-87030001D02*
X93633333Y-87106192D01*
X93633333Y-87106192D02*
X93595238Y-87144287D01*
X93595238Y-87144287D02*
X93519048Y-87182382D01*
X93519048Y-87182382D02*
X93214286Y-87182382D01*
X94357143Y-87030001D02*
X94357143Y-87563335D01*
X94166667Y-86725240D02*
X93976190Y-87296668D01*
X93976190Y-87296668D02*
X94471429Y-87296668D01*
X39485714Y-81963335D02*
X39219047Y-81582382D01*
X39028571Y-81963335D02*
X39028571Y-81163335D01*
X39028571Y-81163335D02*
X39333333Y-81163335D01*
X39333333Y-81163335D02*
X39409523Y-81201430D01*
X39409523Y-81201430D02*
X39447618Y-81239525D01*
X39447618Y-81239525D02*
X39485714Y-81315716D01*
X39485714Y-81315716D02*
X39485714Y-81430001D01*
X39485714Y-81430001D02*
X39447618Y-81506192D01*
X39447618Y-81506192D02*
X39409523Y-81544287D01*
X39409523Y-81544287D02*
X39333333Y-81582382D01*
X39333333Y-81582382D02*
X39028571Y-81582382D01*
X40247618Y-81963335D02*
X39790475Y-81963335D01*
X40019047Y-81963335D02*
X40019047Y-81163335D01*
X40019047Y-81163335D02*
X39942856Y-81277620D01*
X39942856Y-81277620D02*
X39866666Y-81353811D01*
X39866666Y-81353811D02*
X39790475Y-81391906D01*
X40742857Y-81163335D02*
X40819047Y-81163335D01*
X40819047Y-81163335D02*
X40895238Y-81201430D01*
X40895238Y-81201430D02*
X40933333Y-81239525D01*
X40933333Y-81239525D02*
X40971428Y-81315716D01*
X40971428Y-81315716D02*
X41009523Y-81468097D01*
X41009523Y-81468097D02*
X41009523Y-81658573D01*
X41009523Y-81658573D02*
X40971428Y-81810954D01*
X40971428Y-81810954D02*
X40933333Y-81887144D01*
X40933333Y-81887144D02*
X40895238Y-81925240D01*
X40895238Y-81925240D02*
X40819047Y-81963335D01*
X40819047Y-81963335D02*
X40742857Y-81963335D01*
X40742857Y-81963335D02*
X40666666Y-81925240D01*
X40666666Y-81925240D02*
X40628571Y-81887144D01*
X40628571Y-81887144D02*
X40590476Y-81810954D01*
X40590476Y-81810954D02*
X40552380Y-81658573D01*
X40552380Y-81658573D02*
X40552380Y-81468097D01*
X40552380Y-81468097D02*
X40590476Y-81315716D01*
X40590476Y-81315716D02*
X40628571Y-81239525D01*
X40628571Y-81239525D02*
X40666666Y-81201430D01*
X40666666Y-81201430D02*
X40742857Y-81163335D01*
X79866667Y-44287144D02*
X79828571Y-44325240D01*
X79828571Y-44325240D02*
X79714286Y-44363335D01*
X79714286Y-44363335D02*
X79638095Y-44363335D01*
X79638095Y-44363335D02*
X79523809Y-44325240D01*
X79523809Y-44325240D02*
X79447619Y-44249049D01*
X79447619Y-44249049D02*
X79409524Y-44172859D01*
X79409524Y-44172859D02*
X79371428Y-44020478D01*
X79371428Y-44020478D02*
X79371428Y-43906192D01*
X79371428Y-43906192D02*
X79409524Y-43753811D01*
X79409524Y-43753811D02*
X79447619Y-43677620D01*
X79447619Y-43677620D02*
X79523809Y-43601430D01*
X79523809Y-43601430D02*
X79638095Y-43563335D01*
X79638095Y-43563335D02*
X79714286Y-43563335D01*
X79714286Y-43563335D02*
X79828571Y-43601430D01*
X79828571Y-43601430D02*
X79866667Y-43639525D01*
X80133333Y-43563335D02*
X80628571Y-43563335D01*
X80628571Y-43563335D02*
X80361905Y-43868097D01*
X80361905Y-43868097D02*
X80476190Y-43868097D01*
X80476190Y-43868097D02*
X80552381Y-43906192D01*
X80552381Y-43906192D02*
X80590476Y-43944287D01*
X80590476Y-43944287D02*
X80628571Y-44020478D01*
X80628571Y-44020478D02*
X80628571Y-44210954D01*
X80628571Y-44210954D02*
X80590476Y-44287144D01*
X80590476Y-44287144D02*
X80552381Y-44325240D01*
X80552381Y-44325240D02*
X80476190Y-44363335D01*
X80476190Y-44363335D02*
X80247619Y-44363335D01*
X80247619Y-44363335D02*
X80171428Y-44325240D01*
X80171428Y-44325240D02*
X80133333Y-44287144D01*
X118333333Y-85563335D02*
X118333333Y-86134763D01*
X118333333Y-86134763D02*
X118295238Y-86249049D01*
X118295238Y-86249049D02*
X118219047Y-86325240D01*
X118219047Y-86325240D02*
X118104762Y-86363335D01*
X118104762Y-86363335D02*
X118028571Y-86363335D01*
X118638095Y-85563335D02*
X119133333Y-85563335D01*
X119133333Y-85563335D02*
X118866667Y-85868097D01*
X118866667Y-85868097D02*
X118980952Y-85868097D01*
X118980952Y-85868097D02*
X119057143Y-85906192D01*
X119057143Y-85906192D02*
X119095238Y-85944287D01*
X119095238Y-85944287D02*
X119133333Y-86020478D01*
X119133333Y-86020478D02*
X119133333Y-86210954D01*
X119133333Y-86210954D02*
X119095238Y-86287144D01*
X119095238Y-86287144D02*
X119057143Y-86325240D01*
X119057143Y-86325240D02*
X118980952Y-86363335D01*
X118980952Y-86363335D02*
X118752381Y-86363335D01*
X118752381Y-86363335D02*
X118676190Y-86325240D01*
X118676190Y-86325240D02*
X118638095Y-86287144D01*
X88346667Y-68383335D02*
X88080000Y-68002382D01*
X87889524Y-68383335D02*
X87889524Y-67583335D01*
X87889524Y-67583335D02*
X88194286Y-67583335D01*
X88194286Y-67583335D02*
X88270476Y-67621430D01*
X88270476Y-67621430D02*
X88308571Y-67659525D01*
X88308571Y-67659525D02*
X88346667Y-67735716D01*
X88346667Y-67735716D02*
X88346667Y-67850001D01*
X88346667Y-67850001D02*
X88308571Y-67926192D01*
X88308571Y-67926192D02*
X88270476Y-67964287D01*
X88270476Y-67964287D02*
X88194286Y-68002382D01*
X88194286Y-68002382D02*
X87889524Y-68002382D01*
X89032381Y-67850001D02*
X89032381Y-68383335D01*
X88841905Y-67545240D02*
X88651428Y-68116668D01*
X88651428Y-68116668D02*
X89146667Y-68116668D01*
X32890476Y-31863335D02*
X32890476Y-31063335D01*
X32890476Y-31444287D02*
X33347619Y-31444287D01*
X33347619Y-31863335D02*
X33347619Y-31063335D01*
X34147618Y-31863335D02*
X33690475Y-31863335D01*
X33919047Y-31863335D02*
X33919047Y-31063335D01*
X33919047Y-31063335D02*
X33842856Y-31177620D01*
X33842856Y-31177620D02*
X33766666Y-31253811D01*
X33766666Y-31253811D02*
X33690475Y-31291906D01*
X83866667Y-44287144D02*
X83828571Y-44325240D01*
X83828571Y-44325240D02*
X83714286Y-44363335D01*
X83714286Y-44363335D02*
X83638095Y-44363335D01*
X83638095Y-44363335D02*
X83523809Y-44325240D01*
X83523809Y-44325240D02*
X83447619Y-44249049D01*
X83447619Y-44249049D02*
X83409524Y-44172859D01*
X83409524Y-44172859D02*
X83371428Y-44020478D01*
X83371428Y-44020478D02*
X83371428Y-43906192D01*
X83371428Y-43906192D02*
X83409524Y-43753811D01*
X83409524Y-43753811D02*
X83447619Y-43677620D01*
X83447619Y-43677620D02*
X83523809Y-43601430D01*
X83523809Y-43601430D02*
X83638095Y-43563335D01*
X83638095Y-43563335D02*
X83714286Y-43563335D01*
X83714286Y-43563335D02*
X83828571Y-43601430D01*
X83828571Y-43601430D02*
X83866667Y-43639525D01*
X84552381Y-43830001D02*
X84552381Y-44363335D01*
X84361905Y-43525240D02*
X84171428Y-44096668D01*
X84171428Y-44096668D02*
X84666667Y-44096668D01*
X65866667Y-35787144D02*
X65828571Y-35825240D01*
X65828571Y-35825240D02*
X65714286Y-35863335D01*
X65714286Y-35863335D02*
X65638095Y-35863335D01*
X65638095Y-35863335D02*
X65523809Y-35825240D01*
X65523809Y-35825240D02*
X65447619Y-35749049D01*
X65447619Y-35749049D02*
X65409524Y-35672859D01*
X65409524Y-35672859D02*
X65371428Y-35520478D01*
X65371428Y-35520478D02*
X65371428Y-35406192D01*
X65371428Y-35406192D02*
X65409524Y-35253811D01*
X65409524Y-35253811D02*
X65447619Y-35177620D01*
X65447619Y-35177620D02*
X65523809Y-35101430D01*
X65523809Y-35101430D02*
X65638095Y-35063335D01*
X65638095Y-35063335D02*
X65714286Y-35063335D01*
X65714286Y-35063335D02*
X65828571Y-35101430D01*
X65828571Y-35101430D02*
X65866667Y-35139525D01*
X66171428Y-35139525D02*
X66209524Y-35101430D01*
X66209524Y-35101430D02*
X66285714Y-35063335D01*
X66285714Y-35063335D02*
X66476190Y-35063335D01*
X66476190Y-35063335D02*
X66552381Y-35101430D01*
X66552381Y-35101430D02*
X66590476Y-35139525D01*
X66590476Y-35139525D02*
X66628571Y-35215716D01*
X66628571Y-35215716D02*
X66628571Y-35291906D01*
X66628571Y-35291906D02*
X66590476Y-35406192D01*
X66590476Y-35406192D02*
X66133333Y-35863335D01*
X66133333Y-35863335D02*
X66628571Y-35863335D01*
X51805714Y-56683335D02*
X51539047Y-56302382D01*
X51348571Y-56683335D02*
X51348571Y-55883335D01*
X51348571Y-55883335D02*
X51653333Y-55883335D01*
X51653333Y-55883335D02*
X51729523Y-55921430D01*
X51729523Y-55921430D02*
X51767618Y-55959525D01*
X51767618Y-55959525D02*
X51805714Y-56035716D01*
X51805714Y-56035716D02*
X51805714Y-56150001D01*
X51805714Y-56150001D02*
X51767618Y-56226192D01*
X51767618Y-56226192D02*
X51729523Y-56264287D01*
X51729523Y-56264287D02*
X51653333Y-56302382D01*
X51653333Y-56302382D02*
X51348571Y-56302382D01*
X52567618Y-56683335D02*
X52110475Y-56683335D01*
X52339047Y-56683335D02*
X52339047Y-55883335D01*
X52339047Y-55883335D02*
X52262856Y-55997620D01*
X52262856Y-55997620D02*
X52186666Y-56073811D01*
X52186666Y-56073811D02*
X52110475Y-56111906D01*
X52834285Y-55883335D02*
X53329523Y-55883335D01*
X53329523Y-55883335D02*
X53062857Y-56188097D01*
X53062857Y-56188097D02*
X53177142Y-56188097D01*
X53177142Y-56188097D02*
X53253333Y-56226192D01*
X53253333Y-56226192D02*
X53291428Y-56264287D01*
X53291428Y-56264287D02*
X53329523Y-56340478D01*
X53329523Y-56340478D02*
X53329523Y-56530954D01*
X53329523Y-56530954D02*
X53291428Y-56607144D01*
X53291428Y-56607144D02*
X53253333Y-56645240D01*
X53253333Y-56645240D02*
X53177142Y-56683335D01*
X53177142Y-56683335D02*
X52948571Y-56683335D01*
X52948571Y-56683335D02*
X52872380Y-56645240D01*
X52872380Y-56645240D02*
X52834285Y-56607144D01*
X54985714Y-73287144D02*
X54947618Y-73325240D01*
X54947618Y-73325240D02*
X54833333Y-73363335D01*
X54833333Y-73363335D02*
X54757142Y-73363335D01*
X54757142Y-73363335D02*
X54642856Y-73325240D01*
X54642856Y-73325240D02*
X54566666Y-73249049D01*
X54566666Y-73249049D02*
X54528571Y-73172859D01*
X54528571Y-73172859D02*
X54490475Y-73020478D01*
X54490475Y-73020478D02*
X54490475Y-72906192D01*
X54490475Y-72906192D02*
X54528571Y-72753811D01*
X54528571Y-72753811D02*
X54566666Y-72677620D01*
X54566666Y-72677620D02*
X54642856Y-72601430D01*
X54642856Y-72601430D02*
X54757142Y-72563335D01*
X54757142Y-72563335D02*
X54833333Y-72563335D01*
X54833333Y-72563335D02*
X54947618Y-72601430D01*
X54947618Y-72601430D02*
X54985714Y-72639525D01*
X55747618Y-73363335D02*
X55290475Y-73363335D01*
X55519047Y-73363335D02*
X55519047Y-72563335D01*
X55519047Y-72563335D02*
X55442856Y-72677620D01*
X55442856Y-72677620D02*
X55366666Y-72753811D01*
X55366666Y-72753811D02*
X55290475Y-72791906D01*
X56509523Y-73363335D02*
X56052380Y-73363335D01*
X56280952Y-73363335D02*
X56280952Y-72563335D01*
X56280952Y-72563335D02*
X56204761Y-72677620D01*
X56204761Y-72677620D02*
X56128571Y-72753811D01*
X56128571Y-72753811D02*
X56052380Y-72791906D01*
X92466667Y-74163335D02*
X92200000Y-73782382D01*
X92009524Y-74163335D02*
X92009524Y-73363335D01*
X92009524Y-73363335D02*
X92314286Y-73363335D01*
X92314286Y-73363335D02*
X92390476Y-73401430D01*
X92390476Y-73401430D02*
X92428571Y-73439525D01*
X92428571Y-73439525D02*
X92466667Y-73515716D01*
X92466667Y-73515716D02*
X92466667Y-73630001D01*
X92466667Y-73630001D02*
X92428571Y-73706192D01*
X92428571Y-73706192D02*
X92390476Y-73744287D01*
X92390476Y-73744287D02*
X92314286Y-73782382D01*
X92314286Y-73782382D02*
X92009524Y-73782382D01*
X92923809Y-73706192D02*
X92847619Y-73668097D01*
X92847619Y-73668097D02*
X92809524Y-73630001D01*
X92809524Y-73630001D02*
X92771428Y-73553811D01*
X92771428Y-73553811D02*
X92771428Y-73515716D01*
X92771428Y-73515716D02*
X92809524Y-73439525D01*
X92809524Y-73439525D02*
X92847619Y-73401430D01*
X92847619Y-73401430D02*
X92923809Y-73363335D01*
X92923809Y-73363335D02*
X93076190Y-73363335D01*
X93076190Y-73363335D02*
X93152381Y-73401430D01*
X93152381Y-73401430D02*
X93190476Y-73439525D01*
X93190476Y-73439525D02*
X93228571Y-73515716D01*
X93228571Y-73515716D02*
X93228571Y-73553811D01*
X93228571Y-73553811D02*
X93190476Y-73630001D01*
X93190476Y-73630001D02*
X93152381Y-73668097D01*
X93152381Y-73668097D02*
X93076190Y-73706192D01*
X93076190Y-73706192D02*
X92923809Y-73706192D01*
X92923809Y-73706192D02*
X92847619Y-73744287D01*
X92847619Y-73744287D02*
X92809524Y-73782382D01*
X92809524Y-73782382D02*
X92771428Y-73858573D01*
X92771428Y-73858573D02*
X92771428Y-74010954D01*
X92771428Y-74010954D02*
X92809524Y-74087144D01*
X92809524Y-74087144D02*
X92847619Y-74125240D01*
X92847619Y-74125240D02*
X92923809Y-74163335D01*
X92923809Y-74163335D02*
X93076190Y-74163335D01*
X93076190Y-74163335D02*
X93152381Y-74125240D01*
X93152381Y-74125240D02*
X93190476Y-74087144D01*
X93190476Y-74087144D02*
X93228571Y-74010954D01*
X93228571Y-74010954D02*
X93228571Y-73858573D01*
X93228571Y-73858573D02*
X93190476Y-73782382D01*
X93190476Y-73782382D02*
X93152381Y-73744287D01*
X93152381Y-73744287D02*
X93076190Y-73706192D01*
X41733333Y-55763335D02*
X41733333Y-56334763D01*
X41733333Y-56334763D02*
X41695238Y-56449049D01*
X41695238Y-56449049D02*
X41619047Y-56525240D01*
X41619047Y-56525240D02*
X41504762Y-56563335D01*
X41504762Y-56563335D02*
X41428571Y-56563335D01*
X42495238Y-55763335D02*
X42114286Y-55763335D01*
X42114286Y-55763335D02*
X42076190Y-56144287D01*
X42076190Y-56144287D02*
X42114286Y-56106192D01*
X42114286Y-56106192D02*
X42190476Y-56068097D01*
X42190476Y-56068097D02*
X42380952Y-56068097D01*
X42380952Y-56068097D02*
X42457143Y-56106192D01*
X42457143Y-56106192D02*
X42495238Y-56144287D01*
X42495238Y-56144287D02*
X42533333Y-56220478D01*
X42533333Y-56220478D02*
X42533333Y-56410954D01*
X42533333Y-56410954D02*
X42495238Y-56487144D01*
X42495238Y-56487144D02*
X42457143Y-56525240D01*
X42457143Y-56525240D02*
X42380952Y-56563335D01*
X42380952Y-56563335D02*
X42190476Y-56563335D01*
X42190476Y-56563335D02*
X42114286Y-56525240D01*
X42114286Y-56525240D02*
X42076190Y-56487144D01*
X33733333Y-80763335D02*
X33733333Y-81334763D01*
X33733333Y-81334763D02*
X33695238Y-81449049D01*
X33695238Y-81449049D02*
X33619047Y-81525240D01*
X33619047Y-81525240D02*
X33504762Y-81563335D01*
X33504762Y-81563335D02*
X33428571Y-81563335D01*
X34457143Y-81030001D02*
X34457143Y-81563335D01*
X34266667Y-80725240D02*
X34076190Y-81296668D01*
X34076190Y-81296668D02*
X34571429Y-81296668D01*
X109366667Y-87787144D02*
X109328571Y-87825240D01*
X109328571Y-87825240D02*
X109214286Y-87863335D01*
X109214286Y-87863335D02*
X109138095Y-87863335D01*
X109138095Y-87863335D02*
X109023809Y-87825240D01*
X109023809Y-87825240D02*
X108947619Y-87749049D01*
X108947619Y-87749049D02*
X108909524Y-87672859D01*
X108909524Y-87672859D02*
X108871428Y-87520478D01*
X108871428Y-87520478D02*
X108871428Y-87406192D01*
X108871428Y-87406192D02*
X108909524Y-87253811D01*
X108909524Y-87253811D02*
X108947619Y-87177620D01*
X108947619Y-87177620D02*
X109023809Y-87101430D01*
X109023809Y-87101430D02*
X109138095Y-87063335D01*
X109138095Y-87063335D02*
X109214286Y-87063335D01*
X109214286Y-87063335D02*
X109328571Y-87101430D01*
X109328571Y-87101430D02*
X109366667Y-87139525D01*
X109633333Y-87063335D02*
X110166667Y-87063335D01*
X110166667Y-87063335D02*
X109823809Y-87863335D01*
X39709523Y-75563335D02*
X40166666Y-75563335D01*
X39938094Y-76363335D02*
X39938094Y-75563335D01*
X40433333Y-76363335D02*
X40433333Y-75563335D01*
X40433333Y-75563335D02*
X40738095Y-75563335D01*
X40738095Y-75563335D02*
X40814285Y-75601430D01*
X40814285Y-75601430D02*
X40852380Y-75639525D01*
X40852380Y-75639525D02*
X40890476Y-75715716D01*
X40890476Y-75715716D02*
X40890476Y-75830001D01*
X40890476Y-75830001D02*
X40852380Y-75906192D01*
X40852380Y-75906192D02*
X40814285Y-75944287D01*
X40814285Y-75944287D02*
X40738095Y-75982382D01*
X40738095Y-75982382D02*
X40433333Y-75982382D01*
X41652380Y-76363335D02*
X41195237Y-76363335D01*
X41423809Y-76363335D02*
X41423809Y-75563335D01*
X41423809Y-75563335D02*
X41347618Y-75677620D01*
X41347618Y-75677620D02*
X41271428Y-75753811D01*
X41271428Y-75753811D02*
X41195237Y-75791906D01*
X41957142Y-75639525D02*
X41995238Y-75601430D01*
X41995238Y-75601430D02*
X42071428Y-75563335D01*
X42071428Y-75563335D02*
X42261904Y-75563335D01*
X42261904Y-75563335D02*
X42338095Y-75601430D01*
X42338095Y-75601430D02*
X42376190Y-75639525D01*
X42376190Y-75639525D02*
X42414285Y-75715716D01*
X42414285Y-75715716D02*
X42414285Y-75791906D01*
X42414285Y-75791906D02*
X42376190Y-75906192D01*
X42376190Y-75906192D02*
X41919047Y-76363335D01*
X41919047Y-76363335D02*
X42414285Y-76363335D01*
X102906667Y-84747144D02*
X102868571Y-84785240D01*
X102868571Y-84785240D02*
X102754286Y-84823335D01*
X102754286Y-84823335D02*
X102678095Y-84823335D01*
X102678095Y-84823335D02*
X102563809Y-84785240D01*
X102563809Y-84785240D02*
X102487619Y-84709049D01*
X102487619Y-84709049D02*
X102449524Y-84632859D01*
X102449524Y-84632859D02*
X102411428Y-84480478D01*
X102411428Y-84480478D02*
X102411428Y-84366192D01*
X102411428Y-84366192D02*
X102449524Y-84213811D01*
X102449524Y-84213811D02*
X102487619Y-84137620D01*
X102487619Y-84137620D02*
X102563809Y-84061430D01*
X102563809Y-84061430D02*
X102678095Y-84023335D01*
X102678095Y-84023335D02*
X102754286Y-84023335D01*
X102754286Y-84023335D02*
X102868571Y-84061430D01*
X102868571Y-84061430D02*
X102906667Y-84099525D01*
X103630476Y-84023335D02*
X103249524Y-84023335D01*
X103249524Y-84023335D02*
X103211428Y-84404287D01*
X103211428Y-84404287D02*
X103249524Y-84366192D01*
X103249524Y-84366192D02*
X103325714Y-84328097D01*
X103325714Y-84328097D02*
X103516190Y-84328097D01*
X103516190Y-84328097D02*
X103592381Y-84366192D01*
X103592381Y-84366192D02*
X103630476Y-84404287D01*
X103630476Y-84404287D02*
X103668571Y-84480478D01*
X103668571Y-84480478D02*
X103668571Y-84670954D01*
X103668571Y-84670954D02*
X103630476Y-84747144D01*
X103630476Y-84747144D02*
X103592381Y-84785240D01*
X103592381Y-84785240D02*
X103516190Y-84823335D01*
X103516190Y-84823335D02*
X103325714Y-84823335D01*
X103325714Y-84823335D02*
X103249524Y-84785240D01*
X103249524Y-84785240D02*
X103211428Y-84747144D01*
X102693333Y-34523335D02*
X102693333Y-35094763D01*
X102693333Y-35094763D02*
X102655238Y-35209049D01*
X102655238Y-35209049D02*
X102579047Y-35285240D01*
X102579047Y-35285240D02*
X102464762Y-35323335D01*
X102464762Y-35323335D02*
X102388571Y-35323335D01*
X103036190Y-34599525D02*
X103074286Y-34561430D01*
X103074286Y-34561430D02*
X103150476Y-34523335D01*
X103150476Y-34523335D02*
X103340952Y-34523335D01*
X103340952Y-34523335D02*
X103417143Y-34561430D01*
X103417143Y-34561430D02*
X103455238Y-34599525D01*
X103455238Y-34599525D02*
X103493333Y-34675716D01*
X103493333Y-34675716D02*
X103493333Y-34751906D01*
X103493333Y-34751906D02*
X103455238Y-34866192D01*
X103455238Y-34866192D02*
X102998095Y-35323335D01*
X102998095Y-35323335D02*
X103493333Y-35323335D01*
X97893332Y-55365240D02*
X98007618Y-55403335D01*
X98007618Y-55403335D02*
X98198094Y-55403335D01*
X98198094Y-55403335D02*
X98274285Y-55365240D01*
X98274285Y-55365240D02*
X98312380Y-55327144D01*
X98312380Y-55327144D02*
X98350475Y-55250954D01*
X98350475Y-55250954D02*
X98350475Y-55174763D01*
X98350475Y-55174763D02*
X98312380Y-55098573D01*
X98312380Y-55098573D02*
X98274285Y-55060478D01*
X98274285Y-55060478D02*
X98198094Y-55022382D01*
X98198094Y-55022382D02*
X98045713Y-54984287D01*
X98045713Y-54984287D02*
X97969523Y-54946192D01*
X97969523Y-54946192D02*
X97931428Y-54908097D01*
X97931428Y-54908097D02*
X97893332Y-54831906D01*
X97893332Y-54831906D02*
X97893332Y-54755716D01*
X97893332Y-54755716D02*
X97931428Y-54679525D01*
X97931428Y-54679525D02*
X97969523Y-54641430D01*
X97969523Y-54641430D02*
X98045713Y-54603335D01*
X98045713Y-54603335D02*
X98236190Y-54603335D01*
X98236190Y-54603335D02*
X98350475Y-54641430D01*
X98617142Y-54603335D02*
X98807618Y-55403335D01*
X98807618Y-55403335D02*
X98959999Y-54831906D01*
X98959999Y-54831906D02*
X99112380Y-55403335D01*
X99112380Y-55403335D02*
X99302857Y-54603335D01*
X100026666Y-55403335D02*
X99569523Y-55403335D01*
X99798095Y-55403335D02*
X99798095Y-54603335D01*
X99798095Y-54603335D02*
X99721904Y-54717620D01*
X99721904Y-54717620D02*
X99645714Y-54793811D01*
X99645714Y-54793811D02*
X99569523Y-54831906D01*
X81386667Y-69783335D02*
X81120000Y-69402382D01*
X80929524Y-69783335D02*
X80929524Y-68983335D01*
X80929524Y-68983335D02*
X81234286Y-68983335D01*
X81234286Y-68983335D02*
X81310476Y-69021430D01*
X81310476Y-69021430D02*
X81348571Y-69059525D01*
X81348571Y-69059525D02*
X81386667Y-69135716D01*
X81386667Y-69135716D02*
X81386667Y-69250001D01*
X81386667Y-69250001D02*
X81348571Y-69326192D01*
X81348571Y-69326192D02*
X81310476Y-69364287D01*
X81310476Y-69364287D02*
X81234286Y-69402382D01*
X81234286Y-69402382D02*
X80929524Y-69402382D01*
X81767619Y-69783335D02*
X81920000Y-69783335D01*
X81920000Y-69783335D02*
X81996190Y-69745240D01*
X81996190Y-69745240D02*
X82034286Y-69707144D01*
X82034286Y-69707144D02*
X82110476Y-69592859D01*
X82110476Y-69592859D02*
X82148571Y-69440478D01*
X82148571Y-69440478D02*
X82148571Y-69135716D01*
X82148571Y-69135716D02*
X82110476Y-69059525D01*
X82110476Y-69059525D02*
X82072381Y-69021430D01*
X82072381Y-69021430D02*
X81996190Y-68983335D01*
X81996190Y-68983335D02*
X81843809Y-68983335D01*
X81843809Y-68983335D02*
X81767619Y-69021430D01*
X81767619Y-69021430D02*
X81729524Y-69059525D01*
X81729524Y-69059525D02*
X81691428Y-69135716D01*
X81691428Y-69135716D02*
X81691428Y-69326192D01*
X81691428Y-69326192D02*
X81729524Y-69402382D01*
X81729524Y-69402382D02*
X81767619Y-69440478D01*
X81767619Y-69440478D02*
X81843809Y-69478573D01*
X81843809Y-69478573D02*
X81996190Y-69478573D01*
X81996190Y-69478573D02*
X82072381Y-69440478D01*
X82072381Y-69440478D02*
X82110476Y-69402382D01*
X82110476Y-69402382D02*
X82148571Y-69326192D01*
X81866667Y-39963335D02*
X81600000Y-39582382D01*
X81409524Y-39963335D02*
X81409524Y-39163335D01*
X81409524Y-39163335D02*
X81714286Y-39163335D01*
X81714286Y-39163335D02*
X81790476Y-39201430D01*
X81790476Y-39201430D02*
X81828571Y-39239525D01*
X81828571Y-39239525D02*
X81866667Y-39315716D01*
X81866667Y-39315716D02*
X81866667Y-39430001D01*
X81866667Y-39430001D02*
X81828571Y-39506192D01*
X81828571Y-39506192D02*
X81790476Y-39544287D01*
X81790476Y-39544287D02*
X81714286Y-39582382D01*
X81714286Y-39582382D02*
X81409524Y-39582382D01*
X82171428Y-39239525D02*
X82209524Y-39201430D01*
X82209524Y-39201430D02*
X82285714Y-39163335D01*
X82285714Y-39163335D02*
X82476190Y-39163335D01*
X82476190Y-39163335D02*
X82552381Y-39201430D01*
X82552381Y-39201430D02*
X82590476Y-39239525D01*
X82590476Y-39239525D02*
X82628571Y-39315716D01*
X82628571Y-39315716D02*
X82628571Y-39391906D01*
X82628571Y-39391906D02*
X82590476Y-39506192D01*
X82590476Y-39506192D02*
X82133333Y-39963335D01*
X82133333Y-39963335D02*
X82628571Y-39963335D01*
X90485714Y-68287144D02*
X90447618Y-68325240D01*
X90447618Y-68325240D02*
X90333333Y-68363335D01*
X90333333Y-68363335D02*
X90257142Y-68363335D01*
X90257142Y-68363335D02*
X90142856Y-68325240D01*
X90142856Y-68325240D02*
X90066666Y-68249049D01*
X90066666Y-68249049D02*
X90028571Y-68172859D01*
X90028571Y-68172859D02*
X89990475Y-68020478D01*
X89990475Y-68020478D02*
X89990475Y-67906192D01*
X89990475Y-67906192D02*
X90028571Y-67753811D01*
X90028571Y-67753811D02*
X90066666Y-67677620D01*
X90066666Y-67677620D02*
X90142856Y-67601430D01*
X90142856Y-67601430D02*
X90257142Y-67563335D01*
X90257142Y-67563335D02*
X90333333Y-67563335D01*
X90333333Y-67563335D02*
X90447618Y-67601430D01*
X90447618Y-67601430D02*
X90485714Y-67639525D01*
X91247618Y-68363335D02*
X90790475Y-68363335D01*
X91019047Y-68363335D02*
X91019047Y-67563335D01*
X91019047Y-67563335D02*
X90942856Y-67677620D01*
X90942856Y-67677620D02*
X90866666Y-67753811D01*
X90866666Y-67753811D02*
X90790475Y-67791906D01*
X91742857Y-67563335D02*
X91819047Y-67563335D01*
X91819047Y-67563335D02*
X91895238Y-67601430D01*
X91895238Y-67601430D02*
X91933333Y-67639525D01*
X91933333Y-67639525D02*
X91971428Y-67715716D01*
X91971428Y-67715716D02*
X92009523Y-67868097D01*
X92009523Y-67868097D02*
X92009523Y-68058573D01*
X92009523Y-68058573D02*
X91971428Y-68210954D01*
X91971428Y-68210954D02*
X91933333Y-68287144D01*
X91933333Y-68287144D02*
X91895238Y-68325240D01*
X91895238Y-68325240D02*
X91819047Y-68363335D01*
X91819047Y-68363335D02*
X91742857Y-68363335D01*
X91742857Y-68363335D02*
X91666666Y-68325240D01*
X91666666Y-68325240D02*
X91628571Y-68287144D01*
X91628571Y-68287144D02*
X91590476Y-68210954D01*
X91590476Y-68210954D02*
X91552380Y-68058573D01*
X91552380Y-68058573D02*
X91552380Y-67868097D01*
X91552380Y-67868097D02*
X91590476Y-67715716D01*
X91590476Y-67715716D02*
X91628571Y-67639525D01*
X91628571Y-67639525D02*
X91666666Y-67601430D01*
X91666666Y-67601430D02*
X91742857Y-67563335D01*
X47805714Y-66683335D02*
X47539047Y-66302382D01*
X47348571Y-66683335D02*
X47348571Y-65883335D01*
X47348571Y-65883335D02*
X47653333Y-65883335D01*
X47653333Y-65883335D02*
X47729523Y-65921430D01*
X47729523Y-65921430D02*
X47767618Y-65959525D01*
X47767618Y-65959525D02*
X47805714Y-66035716D01*
X47805714Y-66035716D02*
X47805714Y-66150001D01*
X47805714Y-66150001D02*
X47767618Y-66226192D01*
X47767618Y-66226192D02*
X47729523Y-66264287D01*
X47729523Y-66264287D02*
X47653333Y-66302382D01*
X47653333Y-66302382D02*
X47348571Y-66302382D01*
X48567618Y-66683335D02*
X48110475Y-66683335D01*
X48339047Y-66683335D02*
X48339047Y-65883335D01*
X48339047Y-65883335D02*
X48262856Y-65997620D01*
X48262856Y-65997620D02*
X48186666Y-66073811D01*
X48186666Y-66073811D02*
X48110475Y-66111906D01*
X49291428Y-65883335D02*
X48910476Y-65883335D01*
X48910476Y-65883335D02*
X48872380Y-66264287D01*
X48872380Y-66264287D02*
X48910476Y-66226192D01*
X48910476Y-66226192D02*
X48986666Y-66188097D01*
X48986666Y-66188097D02*
X49177142Y-66188097D01*
X49177142Y-66188097D02*
X49253333Y-66226192D01*
X49253333Y-66226192D02*
X49291428Y-66264287D01*
X49291428Y-66264287D02*
X49329523Y-66340478D01*
X49329523Y-66340478D02*
X49329523Y-66530954D01*
X49329523Y-66530954D02*
X49291428Y-66607144D01*
X49291428Y-66607144D02*
X49253333Y-66645240D01*
X49253333Y-66645240D02*
X49177142Y-66683335D01*
X49177142Y-66683335D02*
X48986666Y-66683335D01*
X48986666Y-66683335D02*
X48910476Y-66645240D01*
X48910476Y-66645240D02*
X48872380Y-66607144D01*
X52990476Y-77563335D02*
X53447619Y-77563335D01*
X53219047Y-78363335D02*
X53219047Y-77563335D01*
X53714286Y-78363335D02*
X53714286Y-77563335D01*
X53714286Y-77563335D02*
X54019048Y-77563335D01*
X54019048Y-77563335D02*
X54095238Y-77601430D01*
X54095238Y-77601430D02*
X54133333Y-77639525D01*
X54133333Y-77639525D02*
X54171429Y-77715716D01*
X54171429Y-77715716D02*
X54171429Y-77830001D01*
X54171429Y-77830001D02*
X54133333Y-77906192D01*
X54133333Y-77906192D02*
X54095238Y-77944287D01*
X54095238Y-77944287D02*
X54019048Y-77982382D01*
X54019048Y-77982382D02*
X53714286Y-77982382D01*
X54895238Y-77563335D02*
X54514286Y-77563335D01*
X54514286Y-77563335D02*
X54476190Y-77944287D01*
X54476190Y-77944287D02*
X54514286Y-77906192D01*
X54514286Y-77906192D02*
X54590476Y-77868097D01*
X54590476Y-77868097D02*
X54780952Y-77868097D01*
X54780952Y-77868097D02*
X54857143Y-77906192D01*
X54857143Y-77906192D02*
X54895238Y-77944287D01*
X54895238Y-77944287D02*
X54933333Y-78020478D01*
X54933333Y-78020478D02*
X54933333Y-78210954D01*
X54933333Y-78210954D02*
X54895238Y-78287144D01*
X54895238Y-78287144D02*
X54857143Y-78325240D01*
X54857143Y-78325240D02*
X54780952Y-78363335D01*
X54780952Y-78363335D02*
X54590476Y-78363335D01*
X54590476Y-78363335D02*
X54514286Y-78325240D01*
X54514286Y-78325240D02*
X54476190Y-78287144D01*
X39409524Y-68363335D02*
X39409524Y-67563335D01*
X39409524Y-67563335D02*
X39600000Y-67563335D01*
X39600000Y-67563335D02*
X39714286Y-67601430D01*
X39714286Y-67601430D02*
X39790476Y-67677620D01*
X39790476Y-67677620D02*
X39828571Y-67753811D01*
X39828571Y-67753811D02*
X39866667Y-67906192D01*
X39866667Y-67906192D02*
X39866667Y-68020478D01*
X39866667Y-68020478D02*
X39828571Y-68172859D01*
X39828571Y-68172859D02*
X39790476Y-68249049D01*
X39790476Y-68249049D02*
X39714286Y-68325240D01*
X39714286Y-68325240D02*
X39600000Y-68363335D01*
X39600000Y-68363335D02*
X39409524Y-68363335D01*
X40552381Y-67830001D02*
X40552381Y-68363335D01*
X40361905Y-67525240D02*
X40171428Y-68096668D01*
X40171428Y-68096668D02*
X40666667Y-68096668D01*
X67790476Y-39563335D02*
X67790476Y-40210954D01*
X67790476Y-40210954D02*
X67828571Y-40287144D01*
X67828571Y-40287144D02*
X67866666Y-40325240D01*
X67866666Y-40325240D02*
X67942857Y-40363335D01*
X67942857Y-40363335D02*
X68095238Y-40363335D01*
X68095238Y-40363335D02*
X68171428Y-40325240D01*
X68171428Y-40325240D02*
X68209523Y-40287144D01*
X68209523Y-40287144D02*
X68247619Y-40210954D01*
X68247619Y-40210954D02*
X68247619Y-39563335D01*
X68590475Y-39639525D02*
X68628571Y-39601430D01*
X68628571Y-39601430D02*
X68704761Y-39563335D01*
X68704761Y-39563335D02*
X68895237Y-39563335D01*
X68895237Y-39563335D02*
X68971428Y-39601430D01*
X68971428Y-39601430D02*
X69009523Y-39639525D01*
X69009523Y-39639525D02*
X69047618Y-39715716D01*
X69047618Y-39715716D02*
X69047618Y-39791906D01*
X69047618Y-39791906D02*
X69009523Y-39906192D01*
X69009523Y-39906192D02*
X68552380Y-40363335D01*
X68552380Y-40363335D02*
X69047618Y-40363335D01*
X114390476Y-31863335D02*
X114390476Y-31063335D01*
X114390476Y-31444287D02*
X114847619Y-31444287D01*
X114847619Y-31863335D02*
X114847619Y-31063335D01*
X115190475Y-31139525D02*
X115228571Y-31101430D01*
X115228571Y-31101430D02*
X115304761Y-31063335D01*
X115304761Y-31063335D02*
X115495237Y-31063335D01*
X115495237Y-31063335D02*
X115571428Y-31101430D01*
X115571428Y-31101430D02*
X115609523Y-31139525D01*
X115609523Y-31139525D02*
X115647618Y-31215716D01*
X115647618Y-31215716D02*
X115647618Y-31291906D01*
X115647618Y-31291906D02*
X115609523Y-31406192D01*
X115609523Y-31406192D02*
X115152380Y-31863335D01*
X115152380Y-31863335D02*
X115647618Y-31863335D01*
X49569523Y-78603335D02*
X50026666Y-78603335D01*
X49798094Y-79403335D02*
X49798094Y-78603335D01*
X50293333Y-79403335D02*
X50293333Y-78603335D01*
X50293333Y-78603335D02*
X50598095Y-78603335D01*
X50598095Y-78603335D02*
X50674285Y-78641430D01*
X50674285Y-78641430D02*
X50712380Y-78679525D01*
X50712380Y-78679525D02*
X50750476Y-78755716D01*
X50750476Y-78755716D02*
X50750476Y-78870001D01*
X50750476Y-78870001D02*
X50712380Y-78946192D01*
X50712380Y-78946192D02*
X50674285Y-78984287D01*
X50674285Y-78984287D02*
X50598095Y-79022382D01*
X50598095Y-79022382D02*
X50293333Y-79022382D01*
X51512380Y-79403335D02*
X51055237Y-79403335D01*
X51283809Y-79403335D02*
X51283809Y-78603335D01*
X51283809Y-78603335D02*
X51207618Y-78717620D01*
X51207618Y-78717620D02*
X51131428Y-78793811D01*
X51131428Y-78793811D02*
X51055237Y-78831906D01*
X52274285Y-79403335D02*
X51817142Y-79403335D01*
X52045714Y-79403335D02*
X52045714Y-78603335D01*
X52045714Y-78603335D02*
X51969523Y-78717620D01*
X51969523Y-78717620D02*
X51893333Y-78793811D01*
X51893333Y-78793811D02*
X51817142Y-78831906D01*
X71990476Y-76463335D02*
X71990476Y-77110954D01*
X71990476Y-77110954D02*
X72028571Y-77187144D01*
X72028571Y-77187144D02*
X72066666Y-77225240D01*
X72066666Y-77225240D02*
X72142857Y-77263335D01*
X72142857Y-77263335D02*
X72295238Y-77263335D01*
X72295238Y-77263335D02*
X72371428Y-77225240D01*
X72371428Y-77225240D02*
X72409523Y-77187144D01*
X72409523Y-77187144D02*
X72447619Y-77110954D01*
X72447619Y-77110954D02*
X72447619Y-76463335D01*
X73247618Y-77263335D02*
X72790475Y-77263335D01*
X73019047Y-77263335D02*
X73019047Y-76463335D01*
X73019047Y-76463335D02*
X72942856Y-76577620D01*
X72942856Y-76577620D02*
X72866666Y-76653811D01*
X72866666Y-76653811D02*
X72790475Y-76691906D01*
X43233333Y-35063335D02*
X43233333Y-35634763D01*
X43233333Y-35634763D02*
X43195238Y-35749049D01*
X43195238Y-35749049D02*
X43119047Y-35825240D01*
X43119047Y-35825240D02*
X43004762Y-35863335D01*
X43004762Y-35863335D02*
X42928571Y-35863335D01*
X44033333Y-35863335D02*
X43576190Y-35863335D01*
X43804762Y-35863335D02*
X43804762Y-35063335D01*
X43804762Y-35063335D02*
X43728571Y-35177620D01*
X43728571Y-35177620D02*
X43652381Y-35253811D01*
X43652381Y-35253811D02*
X43576190Y-35291906D01*
X53409524Y-47863335D02*
X53409524Y-47063335D01*
X53409524Y-47063335D02*
X53600000Y-47063335D01*
X53600000Y-47063335D02*
X53714286Y-47101430D01*
X53714286Y-47101430D02*
X53790476Y-47177620D01*
X53790476Y-47177620D02*
X53828571Y-47253811D01*
X53828571Y-47253811D02*
X53866667Y-47406192D01*
X53866667Y-47406192D02*
X53866667Y-47520478D01*
X53866667Y-47520478D02*
X53828571Y-47672859D01*
X53828571Y-47672859D02*
X53790476Y-47749049D01*
X53790476Y-47749049D02*
X53714286Y-47825240D01*
X53714286Y-47825240D02*
X53600000Y-47863335D01*
X53600000Y-47863335D02*
X53409524Y-47863335D01*
X54628571Y-47863335D02*
X54171428Y-47863335D01*
X54400000Y-47863335D02*
X54400000Y-47063335D01*
X54400000Y-47063335D02*
X54323809Y-47177620D01*
X54323809Y-47177620D02*
X54247619Y-47253811D01*
X54247619Y-47253811D02*
X54171428Y-47291906D01*
X47485714Y-89163335D02*
X47219047Y-88782382D01*
X47028571Y-89163335D02*
X47028571Y-88363335D01*
X47028571Y-88363335D02*
X47333333Y-88363335D01*
X47333333Y-88363335D02*
X47409523Y-88401430D01*
X47409523Y-88401430D02*
X47447618Y-88439525D01*
X47447618Y-88439525D02*
X47485714Y-88515716D01*
X47485714Y-88515716D02*
X47485714Y-88630001D01*
X47485714Y-88630001D02*
X47447618Y-88706192D01*
X47447618Y-88706192D02*
X47409523Y-88744287D01*
X47409523Y-88744287D02*
X47333333Y-88782382D01*
X47333333Y-88782382D02*
X47028571Y-88782382D01*
X48247618Y-89163335D02*
X47790475Y-89163335D01*
X48019047Y-89163335D02*
X48019047Y-88363335D01*
X48019047Y-88363335D02*
X47942856Y-88477620D01*
X47942856Y-88477620D02*
X47866666Y-88553811D01*
X47866666Y-88553811D02*
X47790475Y-88591906D01*
X49009523Y-89163335D02*
X48552380Y-89163335D01*
X48780952Y-89163335D02*
X48780952Y-88363335D01*
X48780952Y-88363335D02*
X48704761Y-88477620D01*
X48704761Y-88477620D02*
X48628571Y-88553811D01*
X48628571Y-88553811D02*
X48552380Y-88591906D01*
X99546667Y-79283335D02*
X99280000Y-78902382D01*
X99089524Y-79283335D02*
X99089524Y-78483335D01*
X99089524Y-78483335D02*
X99394286Y-78483335D01*
X99394286Y-78483335D02*
X99470476Y-78521430D01*
X99470476Y-78521430D02*
X99508571Y-78559525D01*
X99508571Y-78559525D02*
X99546667Y-78635716D01*
X99546667Y-78635716D02*
X99546667Y-78750001D01*
X99546667Y-78750001D02*
X99508571Y-78826192D01*
X99508571Y-78826192D02*
X99470476Y-78864287D01*
X99470476Y-78864287D02*
X99394286Y-78902382D01*
X99394286Y-78902382D02*
X99089524Y-78902382D01*
X99813333Y-78483335D02*
X100308571Y-78483335D01*
X100308571Y-78483335D02*
X100041905Y-78788097D01*
X100041905Y-78788097D02*
X100156190Y-78788097D01*
X100156190Y-78788097D02*
X100232381Y-78826192D01*
X100232381Y-78826192D02*
X100270476Y-78864287D01*
X100270476Y-78864287D02*
X100308571Y-78940478D01*
X100308571Y-78940478D02*
X100308571Y-79130954D01*
X100308571Y-79130954D02*
X100270476Y-79207144D01*
X100270476Y-79207144D02*
X100232381Y-79245240D01*
X100232381Y-79245240D02*
X100156190Y-79283335D01*
X100156190Y-79283335D02*
X99927619Y-79283335D01*
X99927619Y-79283335D02*
X99851428Y-79245240D01*
X99851428Y-79245240D02*
X99813333Y-79207144D01*
X99889524Y-41883335D02*
X99889524Y-41083335D01*
X99889524Y-41083335D02*
X100080000Y-41083335D01*
X100080000Y-41083335D02*
X100194286Y-41121430D01*
X100194286Y-41121430D02*
X100270476Y-41197620D01*
X100270476Y-41197620D02*
X100308571Y-41273811D01*
X100308571Y-41273811D02*
X100346667Y-41426192D01*
X100346667Y-41426192D02*
X100346667Y-41540478D01*
X100346667Y-41540478D02*
X100308571Y-41692859D01*
X100308571Y-41692859D02*
X100270476Y-41769049D01*
X100270476Y-41769049D02*
X100194286Y-41845240D01*
X100194286Y-41845240D02*
X100080000Y-41883335D01*
X100080000Y-41883335D02*
X99889524Y-41883335D01*
X100613333Y-41083335D02*
X101108571Y-41083335D01*
X101108571Y-41083335D02*
X100841905Y-41388097D01*
X100841905Y-41388097D02*
X100956190Y-41388097D01*
X100956190Y-41388097D02*
X101032381Y-41426192D01*
X101032381Y-41426192D02*
X101070476Y-41464287D01*
X101070476Y-41464287D02*
X101108571Y-41540478D01*
X101108571Y-41540478D02*
X101108571Y-41730954D01*
X101108571Y-41730954D02*
X101070476Y-41807144D01*
X101070476Y-41807144D02*
X101032381Y-41845240D01*
X101032381Y-41845240D02*
X100956190Y-41883335D01*
X100956190Y-41883335D02*
X100727619Y-41883335D01*
X100727619Y-41883335D02*
X100651428Y-41845240D01*
X100651428Y-41845240D02*
X100613333Y-41807144D01*
X87466667Y-81863335D02*
X87200000Y-81482382D01*
X87009524Y-81863335D02*
X87009524Y-81063335D01*
X87009524Y-81063335D02*
X87314286Y-81063335D01*
X87314286Y-81063335D02*
X87390476Y-81101430D01*
X87390476Y-81101430D02*
X87428571Y-81139525D01*
X87428571Y-81139525D02*
X87466667Y-81215716D01*
X87466667Y-81215716D02*
X87466667Y-81330001D01*
X87466667Y-81330001D02*
X87428571Y-81406192D01*
X87428571Y-81406192D02*
X87390476Y-81444287D01*
X87390476Y-81444287D02*
X87314286Y-81482382D01*
X87314286Y-81482382D02*
X87009524Y-81482382D01*
X88190476Y-81063335D02*
X87809524Y-81063335D01*
X87809524Y-81063335D02*
X87771428Y-81444287D01*
X87771428Y-81444287D02*
X87809524Y-81406192D01*
X87809524Y-81406192D02*
X87885714Y-81368097D01*
X87885714Y-81368097D02*
X88076190Y-81368097D01*
X88076190Y-81368097D02*
X88152381Y-81406192D01*
X88152381Y-81406192D02*
X88190476Y-81444287D01*
X88190476Y-81444287D02*
X88228571Y-81520478D01*
X88228571Y-81520478D02*
X88228571Y-81710954D01*
X88228571Y-81710954D02*
X88190476Y-81787144D01*
X88190476Y-81787144D02*
X88152381Y-81825240D01*
X88152381Y-81825240D02*
X88076190Y-81863335D01*
X88076190Y-81863335D02*
X87885714Y-81863335D01*
X87885714Y-81863335D02*
X87809524Y-81825240D01*
X87809524Y-81825240D02*
X87771428Y-81787144D01*
X90990476Y-41563335D02*
X91447619Y-41563335D01*
X91219047Y-42363335D02*
X91219047Y-41563335D01*
X91714286Y-42363335D02*
X91714286Y-41563335D01*
X91714286Y-41563335D02*
X92019048Y-41563335D01*
X92019048Y-41563335D02*
X92095238Y-41601430D01*
X92095238Y-41601430D02*
X92133333Y-41639525D01*
X92133333Y-41639525D02*
X92171429Y-41715716D01*
X92171429Y-41715716D02*
X92171429Y-41830001D01*
X92171429Y-41830001D02*
X92133333Y-41906192D01*
X92133333Y-41906192D02*
X92095238Y-41944287D01*
X92095238Y-41944287D02*
X92019048Y-41982382D01*
X92019048Y-41982382D02*
X91714286Y-41982382D01*
X92476190Y-41639525D02*
X92514286Y-41601430D01*
X92514286Y-41601430D02*
X92590476Y-41563335D01*
X92590476Y-41563335D02*
X92780952Y-41563335D01*
X92780952Y-41563335D02*
X92857143Y-41601430D01*
X92857143Y-41601430D02*
X92895238Y-41639525D01*
X92895238Y-41639525D02*
X92933333Y-41715716D01*
X92933333Y-41715716D02*
X92933333Y-41791906D01*
X92933333Y-41791906D02*
X92895238Y-41906192D01*
X92895238Y-41906192D02*
X92438095Y-42363335D01*
X92438095Y-42363335D02*
X92933333Y-42363335D01*
X84866667Y-81887144D02*
X84828571Y-81925240D01*
X84828571Y-81925240D02*
X84714286Y-81963335D01*
X84714286Y-81963335D02*
X84638095Y-81963335D01*
X84638095Y-81963335D02*
X84523809Y-81925240D01*
X84523809Y-81925240D02*
X84447619Y-81849049D01*
X84447619Y-81849049D02*
X84409524Y-81772859D01*
X84409524Y-81772859D02*
X84371428Y-81620478D01*
X84371428Y-81620478D02*
X84371428Y-81506192D01*
X84371428Y-81506192D02*
X84409524Y-81353811D01*
X84409524Y-81353811D02*
X84447619Y-81277620D01*
X84447619Y-81277620D02*
X84523809Y-81201430D01*
X84523809Y-81201430D02*
X84638095Y-81163335D01*
X84638095Y-81163335D02*
X84714286Y-81163335D01*
X84714286Y-81163335D02*
X84828571Y-81201430D01*
X84828571Y-81201430D02*
X84866667Y-81239525D01*
X85247619Y-81963335D02*
X85400000Y-81963335D01*
X85400000Y-81963335D02*
X85476190Y-81925240D01*
X85476190Y-81925240D02*
X85514286Y-81887144D01*
X85514286Y-81887144D02*
X85590476Y-81772859D01*
X85590476Y-81772859D02*
X85628571Y-81620478D01*
X85628571Y-81620478D02*
X85628571Y-81315716D01*
X85628571Y-81315716D02*
X85590476Y-81239525D01*
X85590476Y-81239525D02*
X85552381Y-81201430D01*
X85552381Y-81201430D02*
X85476190Y-81163335D01*
X85476190Y-81163335D02*
X85323809Y-81163335D01*
X85323809Y-81163335D02*
X85247619Y-81201430D01*
X85247619Y-81201430D02*
X85209524Y-81239525D01*
X85209524Y-81239525D02*
X85171428Y-81315716D01*
X85171428Y-81315716D02*
X85171428Y-81506192D01*
X85171428Y-81506192D02*
X85209524Y-81582382D01*
X85209524Y-81582382D02*
X85247619Y-81620478D01*
X85247619Y-81620478D02*
X85323809Y-81658573D01*
X85323809Y-81658573D02*
X85476190Y-81658573D01*
X85476190Y-81658573D02*
X85552381Y-81620478D01*
X85552381Y-81620478D02*
X85590476Y-81582382D01*
X85590476Y-81582382D02*
X85628571Y-81506192D01*
X49485714Y-42763335D02*
X49219047Y-42382382D01*
X49028571Y-42763335D02*
X49028571Y-41963335D01*
X49028571Y-41963335D02*
X49333333Y-41963335D01*
X49333333Y-41963335D02*
X49409523Y-42001430D01*
X49409523Y-42001430D02*
X49447618Y-42039525D01*
X49447618Y-42039525D02*
X49485714Y-42115716D01*
X49485714Y-42115716D02*
X49485714Y-42230001D01*
X49485714Y-42230001D02*
X49447618Y-42306192D01*
X49447618Y-42306192D02*
X49409523Y-42344287D01*
X49409523Y-42344287D02*
X49333333Y-42382382D01*
X49333333Y-42382382D02*
X49028571Y-42382382D01*
X50247618Y-42763335D02*
X49790475Y-42763335D01*
X50019047Y-42763335D02*
X50019047Y-41963335D01*
X50019047Y-41963335D02*
X49942856Y-42077620D01*
X49942856Y-42077620D02*
X49866666Y-42153811D01*
X49866666Y-42153811D02*
X49790475Y-42191906D01*
X50514285Y-41963335D02*
X51047619Y-41963335D01*
X51047619Y-41963335D02*
X50704761Y-42763335D01*
X62990476Y-40063335D02*
X63447619Y-40063335D01*
X63219047Y-40863335D02*
X63219047Y-40063335D01*
X63714286Y-40863335D02*
X63714286Y-40063335D01*
X63714286Y-40063335D02*
X64019048Y-40063335D01*
X64019048Y-40063335D02*
X64095238Y-40101430D01*
X64095238Y-40101430D02*
X64133333Y-40139525D01*
X64133333Y-40139525D02*
X64171429Y-40215716D01*
X64171429Y-40215716D02*
X64171429Y-40330001D01*
X64171429Y-40330001D02*
X64133333Y-40406192D01*
X64133333Y-40406192D02*
X64095238Y-40444287D01*
X64095238Y-40444287D02*
X64019048Y-40482382D01*
X64019048Y-40482382D02*
X63714286Y-40482382D01*
X64933333Y-40863335D02*
X64476190Y-40863335D01*
X64704762Y-40863335D02*
X64704762Y-40063335D01*
X64704762Y-40063335D02*
X64628571Y-40177620D01*
X64628571Y-40177620D02*
X64552381Y-40253811D01*
X64552381Y-40253811D02*
X64476190Y-40291906D01*
X99485714Y-69763335D02*
X99219047Y-69382382D01*
X99028571Y-69763335D02*
X99028571Y-68963335D01*
X99028571Y-68963335D02*
X99333333Y-68963335D01*
X99333333Y-68963335D02*
X99409523Y-69001430D01*
X99409523Y-69001430D02*
X99447618Y-69039525D01*
X99447618Y-69039525D02*
X99485714Y-69115716D01*
X99485714Y-69115716D02*
X99485714Y-69230001D01*
X99485714Y-69230001D02*
X99447618Y-69306192D01*
X99447618Y-69306192D02*
X99409523Y-69344287D01*
X99409523Y-69344287D02*
X99333333Y-69382382D01*
X99333333Y-69382382D02*
X99028571Y-69382382D01*
X100247618Y-69763335D02*
X99790475Y-69763335D01*
X100019047Y-69763335D02*
X100019047Y-68963335D01*
X100019047Y-68963335D02*
X99942856Y-69077620D01*
X99942856Y-69077620D02*
X99866666Y-69153811D01*
X99866666Y-69153811D02*
X99790475Y-69191906D01*
X100933333Y-68963335D02*
X100780952Y-68963335D01*
X100780952Y-68963335D02*
X100704761Y-69001430D01*
X100704761Y-69001430D02*
X100666666Y-69039525D01*
X100666666Y-69039525D02*
X100590476Y-69153811D01*
X100590476Y-69153811D02*
X100552380Y-69306192D01*
X100552380Y-69306192D02*
X100552380Y-69610954D01*
X100552380Y-69610954D02*
X100590476Y-69687144D01*
X100590476Y-69687144D02*
X100628571Y-69725240D01*
X100628571Y-69725240D02*
X100704761Y-69763335D01*
X100704761Y-69763335D02*
X100857142Y-69763335D01*
X100857142Y-69763335D02*
X100933333Y-69725240D01*
X100933333Y-69725240D02*
X100971428Y-69687144D01*
X100971428Y-69687144D02*
X101009523Y-69610954D01*
X101009523Y-69610954D02*
X101009523Y-69420478D01*
X101009523Y-69420478D02*
X100971428Y-69344287D01*
X100971428Y-69344287D02*
X100933333Y-69306192D01*
X100933333Y-69306192D02*
X100857142Y-69268097D01*
X100857142Y-69268097D02*
X100704761Y-69268097D01*
X100704761Y-69268097D02*
X100628571Y-69306192D01*
X100628571Y-69306192D02*
X100590476Y-69344287D01*
X100590476Y-69344287D02*
X100552380Y-69420478D01*
X63866667Y-38287144D02*
X63828571Y-38325240D01*
X63828571Y-38325240D02*
X63714286Y-38363335D01*
X63714286Y-38363335D02*
X63638095Y-38363335D01*
X63638095Y-38363335D02*
X63523809Y-38325240D01*
X63523809Y-38325240D02*
X63447619Y-38249049D01*
X63447619Y-38249049D02*
X63409524Y-38172859D01*
X63409524Y-38172859D02*
X63371428Y-38020478D01*
X63371428Y-38020478D02*
X63371428Y-37906192D01*
X63371428Y-37906192D02*
X63409524Y-37753811D01*
X63409524Y-37753811D02*
X63447619Y-37677620D01*
X63447619Y-37677620D02*
X63523809Y-37601430D01*
X63523809Y-37601430D02*
X63638095Y-37563335D01*
X63638095Y-37563335D02*
X63714286Y-37563335D01*
X63714286Y-37563335D02*
X63828571Y-37601430D01*
X63828571Y-37601430D02*
X63866667Y-37639525D01*
X64628571Y-38363335D02*
X64171428Y-38363335D01*
X64400000Y-38363335D02*
X64400000Y-37563335D01*
X64400000Y-37563335D02*
X64323809Y-37677620D01*
X64323809Y-37677620D02*
X64247619Y-37753811D01*
X64247619Y-37753811D02*
X64171428Y-37791906D01*
X96466667Y-78763335D02*
X96200000Y-78382382D01*
X96009524Y-78763335D02*
X96009524Y-77963335D01*
X96009524Y-77963335D02*
X96314286Y-77963335D01*
X96314286Y-77963335D02*
X96390476Y-78001430D01*
X96390476Y-78001430D02*
X96428571Y-78039525D01*
X96428571Y-78039525D02*
X96466667Y-78115716D01*
X96466667Y-78115716D02*
X96466667Y-78230001D01*
X96466667Y-78230001D02*
X96428571Y-78306192D01*
X96428571Y-78306192D02*
X96390476Y-78344287D01*
X96390476Y-78344287D02*
X96314286Y-78382382D01*
X96314286Y-78382382D02*
X96009524Y-78382382D01*
X97152381Y-77963335D02*
X97000000Y-77963335D01*
X97000000Y-77963335D02*
X96923809Y-78001430D01*
X96923809Y-78001430D02*
X96885714Y-78039525D01*
X96885714Y-78039525D02*
X96809524Y-78153811D01*
X96809524Y-78153811D02*
X96771428Y-78306192D01*
X96771428Y-78306192D02*
X96771428Y-78610954D01*
X96771428Y-78610954D02*
X96809524Y-78687144D01*
X96809524Y-78687144D02*
X96847619Y-78725240D01*
X96847619Y-78725240D02*
X96923809Y-78763335D01*
X96923809Y-78763335D02*
X97076190Y-78763335D01*
X97076190Y-78763335D02*
X97152381Y-78725240D01*
X97152381Y-78725240D02*
X97190476Y-78687144D01*
X97190476Y-78687144D02*
X97228571Y-78610954D01*
X97228571Y-78610954D02*
X97228571Y-78420478D01*
X97228571Y-78420478D02*
X97190476Y-78344287D01*
X97190476Y-78344287D02*
X97152381Y-78306192D01*
X97152381Y-78306192D02*
X97076190Y-78268097D01*
X97076190Y-78268097D02*
X96923809Y-78268097D01*
X96923809Y-78268097D02*
X96847619Y-78306192D01*
X96847619Y-78306192D02*
X96809524Y-78344287D01*
X96809524Y-78344287D02*
X96771428Y-78420478D01*
X52525714Y-43823335D02*
X52259047Y-43442382D01*
X52068571Y-43823335D02*
X52068571Y-43023335D01*
X52068571Y-43023335D02*
X52373333Y-43023335D01*
X52373333Y-43023335D02*
X52449523Y-43061430D01*
X52449523Y-43061430D02*
X52487618Y-43099525D01*
X52487618Y-43099525D02*
X52525714Y-43175716D01*
X52525714Y-43175716D02*
X52525714Y-43290001D01*
X52525714Y-43290001D02*
X52487618Y-43366192D01*
X52487618Y-43366192D02*
X52449523Y-43404287D01*
X52449523Y-43404287D02*
X52373333Y-43442382D01*
X52373333Y-43442382D02*
X52068571Y-43442382D01*
X53287618Y-43823335D02*
X52830475Y-43823335D01*
X53059047Y-43823335D02*
X53059047Y-43023335D01*
X53059047Y-43023335D02*
X52982856Y-43137620D01*
X52982856Y-43137620D02*
X52906666Y-43213811D01*
X52906666Y-43213811D02*
X52830475Y-43251906D01*
X53744761Y-43366192D02*
X53668571Y-43328097D01*
X53668571Y-43328097D02*
X53630476Y-43290001D01*
X53630476Y-43290001D02*
X53592380Y-43213811D01*
X53592380Y-43213811D02*
X53592380Y-43175716D01*
X53592380Y-43175716D02*
X53630476Y-43099525D01*
X53630476Y-43099525D02*
X53668571Y-43061430D01*
X53668571Y-43061430D02*
X53744761Y-43023335D01*
X53744761Y-43023335D02*
X53897142Y-43023335D01*
X53897142Y-43023335D02*
X53973333Y-43061430D01*
X53973333Y-43061430D02*
X54011428Y-43099525D01*
X54011428Y-43099525D02*
X54049523Y-43175716D01*
X54049523Y-43175716D02*
X54049523Y-43213811D01*
X54049523Y-43213811D02*
X54011428Y-43290001D01*
X54011428Y-43290001D02*
X53973333Y-43328097D01*
X53973333Y-43328097D02*
X53897142Y-43366192D01*
X53897142Y-43366192D02*
X53744761Y-43366192D01*
X53744761Y-43366192D02*
X53668571Y-43404287D01*
X53668571Y-43404287D02*
X53630476Y-43442382D01*
X53630476Y-43442382D02*
X53592380Y-43518573D01*
X53592380Y-43518573D02*
X53592380Y-43670954D01*
X53592380Y-43670954D02*
X53630476Y-43747144D01*
X53630476Y-43747144D02*
X53668571Y-43785240D01*
X53668571Y-43785240D02*
X53744761Y-43823335D01*
X53744761Y-43823335D02*
X53897142Y-43823335D01*
X53897142Y-43823335D02*
X53973333Y-43785240D01*
X53973333Y-43785240D02*
X54011428Y-43747144D01*
X54011428Y-43747144D02*
X54049523Y-43670954D01*
X54049523Y-43670954D02*
X54049523Y-43518573D01*
X54049523Y-43518573D02*
X54011428Y-43442382D01*
X54011428Y-43442382D02*
X53973333Y-43404287D01*
X53973333Y-43404287D02*
X53897142Y-43366192D01*
X69866667Y-46963335D02*
X69600000Y-46582382D01*
X69409524Y-46963335D02*
X69409524Y-46163335D01*
X69409524Y-46163335D02*
X69714286Y-46163335D01*
X69714286Y-46163335D02*
X69790476Y-46201430D01*
X69790476Y-46201430D02*
X69828571Y-46239525D01*
X69828571Y-46239525D02*
X69866667Y-46315716D01*
X69866667Y-46315716D02*
X69866667Y-46430001D01*
X69866667Y-46430001D02*
X69828571Y-46506192D01*
X69828571Y-46506192D02*
X69790476Y-46544287D01*
X69790476Y-46544287D02*
X69714286Y-46582382D01*
X69714286Y-46582382D02*
X69409524Y-46582382D01*
X70628571Y-46963335D02*
X70171428Y-46963335D01*
X70400000Y-46963335D02*
X70400000Y-46163335D01*
X70400000Y-46163335D02*
X70323809Y-46277620D01*
X70323809Y-46277620D02*
X70247619Y-46353811D01*
X70247619Y-46353811D02*
X70171428Y-46391906D01*
X41485714Y-89163335D02*
X41219047Y-88782382D01*
X41028571Y-89163335D02*
X41028571Y-88363335D01*
X41028571Y-88363335D02*
X41333333Y-88363335D01*
X41333333Y-88363335D02*
X41409523Y-88401430D01*
X41409523Y-88401430D02*
X41447618Y-88439525D01*
X41447618Y-88439525D02*
X41485714Y-88515716D01*
X41485714Y-88515716D02*
X41485714Y-88630001D01*
X41485714Y-88630001D02*
X41447618Y-88706192D01*
X41447618Y-88706192D02*
X41409523Y-88744287D01*
X41409523Y-88744287D02*
X41333333Y-88782382D01*
X41333333Y-88782382D02*
X41028571Y-88782382D01*
X42247618Y-89163335D02*
X41790475Y-89163335D01*
X42019047Y-89163335D02*
X42019047Y-88363335D01*
X42019047Y-88363335D02*
X41942856Y-88477620D01*
X41942856Y-88477620D02*
X41866666Y-88553811D01*
X41866666Y-88553811D02*
X41790475Y-88591906D01*
X42552380Y-88439525D02*
X42590476Y-88401430D01*
X42590476Y-88401430D02*
X42666666Y-88363335D01*
X42666666Y-88363335D02*
X42857142Y-88363335D01*
X42857142Y-88363335D02*
X42933333Y-88401430D01*
X42933333Y-88401430D02*
X42971428Y-88439525D01*
X42971428Y-88439525D02*
X43009523Y-88515716D01*
X43009523Y-88515716D02*
X43009523Y-88591906D01*
X43009523Y-88591906D02*
X42971428Y-88706192D01*
X42971428Y-88706192D02*
X42514285Y-89163335D01*
X42514285Y-89163335D02*
X43009523Y-89163335D01*
X109366667Y-75187144D02*
X109328571Y-75225240D01*
X109328571Y-75225240D02*
X109214286Y-75263335D01*
X109214286Y-75263335D02*
X109138095Y-75263335D01*
X109138095Y-75263335D02*
X109023809Y-75225240D01*
X109023809Y-75225240D02*
X108947619Y-75149049D01*
X108947619Y-75149049D02*
X108909524Y-75072859D01*
X108909524Y-75072859D02*
X108871428Y-74920478D01*
X108871428Y-74920478D02*
X108871428Y-74806192D01*
X108871428Y-74806192D02*
X108909524Y-74653811D01*
X108909524Y-74653811D02*
X108947619Y-74577620D01*
X108947619Y-74577620D02*
X109023809Y-74501430D01*
X109023809Y-74501430D02*
X109138095Y-74463335D01*
X109138095Y-74463335D02*
X109214286Y-74463335D01*
X109214286Y-74463335D02*
X109328571Y-74501430D01*
X109328571Y-74501430D02*
X109366667Y-74539525D01*
X110052381Y-74463335D02*
X109900000Y-74463335D01*
X109900000Y-74463335D02*
X109823809Y-74501430D01*
X109823809Y-74501430D02*
X109785714Y-74539525D01*
X109785714Y-74539525D02*
X109709524Y-74653811D01*
X109709524Y-74653811D02*
X109671428Y-74806192D01*
X109671428Y-74806192D02*
X109671428Y-75110954D01*
X109671428Y-75110954D02*
X109709524Y-75187144D01*
X109709524Y-75187144D02*
X109747619Y-75225240D01*
X109747619Y-75225240D02*
X109823809Y-75263335D01*
X109823809Y-75263335D02*
X109976190Y-75263335D01*
X109976190Y-75263335D02*
X110052381Y-75225240D01*
X110052381Y-75225240D02*
X110090476Y-75187144D01*
X110090476Y-75187144D02*
X110128571Y-75110954D01*
X110128571Y-75110954D02*
X110128571Y-74920478D01*
X110128571Y-74920478D02*
X110090476Y-74844287D01*
X110090476Y-74844287D02*
X110052381Y-74806192D01*
X110052381Y-74806192D02*
X109976190Y-74768097D01*
X109976190Y-74768097D02*
X109823809Y-74768097D01*
X109823809Y-74768097D02*
X109747619Y-74806192D01*
X109747619Y-74806192D02*
X109709524Y-74844287D01*
X109709524Y-74844287D02*
X109671428Y-74920478D01*
X87409524Y-36363335D02*
X87409524Y-35563335D01*
X87409524Y-35563335D02*
X87600000Y-35563335D01*
X87600000Y-35563335D02*
X87714286Y-35601430D01*
X87714286Y-35601430D02*
X87790476Y-35677620D01*
X87790476Y-35677620D02*
X87828571Y-35753811D01*
X87828571Y-35753811D02*
X87866667Y-35906192D01*
X87866667Y-35906192D02*
X87866667Y-36020478D01*
X87866667Y-36020478D02*
X87828571Y-36172859D01*
X87828571Y-36172859D02*
X87790476Y-36249049D01*
X87790476Y-36249049D02*
X87714286Y-36325240D01*
X87714286Y-36325240D02*
X87600000Y-36363335D01*
X87600000Y-36363335D02*
X87409524Y-36363335D01*
X88171428Y-35639525D02*
X88209524Y-35601430D01*
X88209524Y-35601430D02*
X88285714Y-35563335D01*
X88285714Y-35563335D02*
X88476190Y-35563335D01*
X88476190Y-35563335D02*
X88552381Y-35601430D01*
X88552381Y-35601430D02*
X88590476Y-35639525D01*
X88590476Y-35639525D02*
X88628571Y-35715716D01*
X88628571Y-35715716D02*
X88628571Y-35791906D01*
X88628571Y-35791906D02*
X88590476Y-35906192D01*
X88590476Y-35906192D02*
X88133333Y-36363335D01*
X88133333Y-36363335D02*
X88628571Y-36363335D01*
X82490476Y-65063335D02*
X82947619Y-65063335D01*
X82719047Y-65863335D02*
X82719047Y-65063335D01*
X83214286Y-65863335D02*
X83214286Y-65063335D01*
X83214286Y-65063335D02*
X83519048Y-65063335D01*
X83519048Y-65063335D02*
X83595238Y-65101430D01*
X83595238Y-65101430D02*
X83633333Y-65139525D01*
X83633333Y-65139525D02*
X83671429Y-65215716D01*
X83671429Y-65215716D02*
X83671429Y-65330001D01*
X83671429Y-65330001D02*
X83633333Y-65406192D01*
X83633333Y-65406192D02*
X83595238Y-65444287D01*
X83595238Y-65444287D02*
X83519048Y-65482382D01*
X83519048Y-65482382D02*
X83214286Y-65482382D01*
X83938095Y-65063335D02*
X84471429Y-65063335D01*
X84471429Y-65063335D02*
X84128571Y-65863335D01*
%TO.C,R14*%
D14*
X45772936Y-69265000D02*
X46227064Y-69265000D01*
X45772936Y-70735000D02*
X46227064Y-70735000D01*
%TO.C,TP3*%
X105950000Y-87500000D02*
G75*
G02*
X104050000Y-87500000I-950000J0D01*
G01*
X104050000Y-87500000D02*
G75*
G02*
X105950000Y-87500000I950000J0D01*
G01*
%TO.C,C8*%
X90265000Y-81861252D02*
X90265000Y-81338748D01*
X91735000Y-81861252D02*
X91735000Y-81338748D01*
%TO.C,TP6*%
X96950000Y-70500000D02*
G75*
G02*
X95050000Y-70500000I-950000J0D01*
G01*
X95050000Y-70500000D02*
G75*
G02*
X96950000Y-70500000I950000J0D01*
G01*
%TO.C,TP10*%
X66950000Y-42500000D02*
G75*
G02*
X65050000Y-42500000I-950000J0D01*
G01*
X65050000Y-42500000D02*
G75*
G02*
X66950000Y-42500000I950000J0D01*
G01*
%TO.C,F1*%
X97772936Y-37265000D02*
X98227064Y-37265000D01*
X97772936Y-38735000D02*
X98227064Y-38735000D01*
%TO.C,R7*%
X85772936Y-76165000D02*
X86227064Y-76165000D01*
X85772936Y-77635000D02*
X86227064Y-77635000D01*
%TO.C,U3*%
X103600000Y-83110000D02*
X105400000Y-83110000D01*
X104600000Y-79890000D02*
X103800000Y-79890000D01*
X104600000Y-79890000D02*
X105400000Y-79890000D01*
X103300000Y-79940000D02*
X103060000Y-79610000D01*
X103540000Y-79610000D01*
X103300000Y-79940000D01*
G36*
X103300000Y-79940000D02*
G01*
X103060000Y-79610000D01*
X103540000Y-79610000D01*
X103300000Y-79940000D01*
G37*
%TO.C,TP4*%
X96950000Y-87200000D02*
G75*
G02*
X95050000Y-87200000I-950000J0D01*
G01*
X95050000Y-87200000D02*
G75*
G02*
X96950000Y-87200000I950000J0D01*
G01*
%TO.C,R10*%
X39772936Y-79265000D02*
X40227064Y-79265000D01*
X39772936Y-80735000D02*
X40227064Y-80735000D01*
%TO.C,C3*%
X81265000Y-43738748D02*
X81265000Y-44261252D01*
X82735000Y-43738748D02*
X82735000Y-44261252D01*
%TO.C,J3*%
X111250000Y-87600000D02*
X111250000Y-88850000D01*
X111250000Y-88850000D02*
X112500000Y-88850000D01*
X113800000Y-68450000D02*
X113800000Y-69200000D01*
X113800000Y-69200000D02*
X116750000Y-69200000D01*
X113800000Y-87800000D02*
X116750000Y-87800000D01*
X113800000Y-88550000D02*
X113800000Y-87800000D01*
X116750000Y-69200000D02*
X116750000Y-78500000D01*
X116750000Y-87800000D02*
X116750000Y-78500000D01*
X111540000Y-68440000D02*
X117510000Y-68440000D01*
X117510000Y-88560000D01*
X111540000Y-88560000D01*
X111540000Y-68440000D01*
X111550000Y-68450000D02*
X112300000Y-68450000D01*
X112300000Y-70250000D01*
X111550000Y-70250000D01*
X111550000Y-68450000D01*
X111550000Y-71750000D02*
X112300000Y-71750000D01*
X112300000Y-85250000D01*
X111550000Y-85250000D01*
X111550000Y-71750000D01*
X111550000Y-86750000D02*
X112300000Y-86750000D01*
X112300000Y-88550000D01*
X111550000Y-88550000D01*
X111550000Y-86750000D01*
%TO.C,R4*%
X85772936Y-69765000D02*
X86227064Y-69765000D01*
X85772936Y-71235000D02*
X86227064Y-71235000D01*
%TO.C,C4*%
X85265000Y-43738748D02*
X85265000Y-44261252D01*
X86735000Y-43738748D02*
X86735000Y-44261252D01*
%TO.C,C2*%
X65265000Y-37738748D02*
X65265000Y-38261252D01*
X66735000Y-37738748D02*
X66735000Y-38261252D01*
%TO.C,R13*%
X55772936Y-59265000D02*
X56227064Y-59265000D01*
X55772936Y-60735000D02*
X56227064Y-60735000D01*
%TO.C,C11*%
X57265000Y-73261252D02*
X57265000Y-72738748D01*
X58735000Y-73261252D02*
X58735000Y-72738748D01*
%TO.C,R8*%
X90772936Y-74665000D02*
X91227064Y-74665000D01*
X90772936Y-76135000D02*
X91227064Y-76135000D01*
%TO.C,J5*%
X39150000Y-57250000D02*
X39150000Y-58500000D01*
X39450000Y-59800000D02*
X40200000Y-59800000D01*
X40200000Y-59800000D02*
X40200000Y-62750000D01*
X40200000Y-62750000D02*
X43250000Y-62750000D01*
X40400000Y-57250000D02*
X39150000Y-57250000D01*
X46300000Y-59800000D02*
X46300000Y-62750000D01*
X46300000Y-62750000D02*
X43250000Y-62750000D01*
X47050000Y-59800000D02*
X46300000Y-59800000D01*
X39440000Y-57540000D02*
X47060000Y-57540000D01*
X47060000Y-63510000D01*
X39440000Y-63510000D01*
X39440000Y-57540000D01*
X39450000Y-57550000D02*
X41250000Y-57550000D01*
X41250000Y-58300000D01*
X39450000Y-58300000D01*
X39450000Y-57550000D01*
X42750000Y-57550000D02*
X43750000Y-57550000D01*
X43750000Y-58300000D01*
X42750000Y-58300000D01*
X42750000Y-57550000D01*
X45250000Y-57550000D02*
X47050000Y-57550000D01*
X47050000Y-58300000D01*
X45250000Y-58300000D01*
X45250000Y-57550000D01*
%TO.C,J4*%
X31150000Y-82250000D02*
X31150000Y-83500000D01*
X31450000Y-84800000D02*
X32200000Y-84800000D01*
X32200000Y-84800000D02*
X32200000Y-87750000D01*
X32200000Y-87750000D02*
X35250000Y-87750000D01*
X32400000Y-82250000D02*
X31150000Y-82250000D01*
X38300000Y-84800000D02*
X38300000Y-87750000D01*
X38300000Y-87750000D02*
X35250000Y-87750000D01*
X39050000Y-84800000D02*
X38300000Y-84800000D01*
X31440000Y-82540000D02*
X39060000Y-82540000D01*
X39060000Y-88510000D01*
X31440000Y-88510000D01*
X31440000Y-82540000D01*
X31450000Y-82550000D02*
X33250000Y-82550000D01*
X33250000Y-83300000D01*
X31450000Y-83300000D01*
X31450000Y-82550000D01*
X34750000Y-82550000D02*
X35750000Y-82550000D01*
X35750000Y-83300000D01*
X34750000Y-83300000D01*
X34750000Y-82550000D01*
X37250000Y-82550000D02*
X39050000Y-82550000D01*
X39050000Y-83300000D01*
X37250000Y-83300000D01*
X37250000Y-82550000D01*
%TO.C,C7*%
X108765000Y-84738748D02*
X108765000Y-85261252D01*
X110235000Y-84738748D02*
X110235000Y-85261252D01*
%TO.C,TP12*%
X38950000Y-76000000D02*
G75*
G02*
X37050000Y-76000000I-950000J0D01*
G01*
X37050000Y-76000000D02*
G75*
G02*
X38950000Y-76000000I950000J0D01*
G01*
%TO.C,C5*%
X99738748Y-86765000D02*
X100261252Y-86765000D01*
X99738748Y-88235000D02*
X100261252Y-88235000D01*
%TO.C,J2*%
X103640000Y-35890000D02*
X103640000Y-37140000D01*
X103940000Y-37500000D02*
X104550000Y-37500000D01*
X103940000Y-38800000D02*
X104550000Y-38800000D01*
X104550000Y-36800000D02*
X104550000Y-40300000D01*
X104550000Y-40300000D02*
X109450000Y-40300000D01*
X104890000Y-35890000D02*
X103640000Y-35890000D01*
X105400000Y-35990000D02*
X105400000Y-36190000D01*
X105700000Y-35990000D02*
X105400000Y-35990000D01*
X105700000Y-36090000D02*
X105400000Y-36090000D01*
X105700000Y-36190000D02*
X105700000Y-35990000D01*
X106500000Y-36190000D02*
X106500000Y-36800000D01*
X106500000Y-36800000D02*
X104550000Y-36800000D01*
X106900000Y-39800000D02*
X107100000Y-39800000D01*
X106900000Y-40300000D02*
X106900000Y-39800000D01*
X107000000Y-40300000D02*
X107000000Y-39800000D01*
X107100000Y-39800000D02*
X107100000Y-40300000D01*
X107500000Y-36800000D02*
X107500000Y-36190000D01*
X109450000Y-36800000D02*
X107500000Y-36800000D01*
X109450000Y-40300000D02*
X109450000Y-36800000D01*
X110060000Y-37500000D02*
X109450000Y-37500000D01*
X110060000Y-38800000D02*
X109450000Y-38800000D01*
X103940000Y-36190000D02*
X110060000Y-36190000D01*
X110060000Y-40910000D01*
X103940000Y-40910000D01*
X103940000Y-36190000D01*
%TO.C,SW1*%
X99590000Y-49740000D02*
X108410000Y-49740000D01*
X99590000Y-50050000D02*
X99590000Y-49740000D01*
X99590000Y-54260000D02*
X99590000Y-53950000D01*
X101500000Y-49040000D02*
X102000000Y-49540000D01*
X102000000Y-49540000D02*
X102500000Y-49040000D01*
X102500000Y-49040000D02*
X101500000Y-49040000D01*
X108410000Y-49740000D02*
X108410000Y-50050000D01*
X108410000Y-54260000D02*
X99590000Y-54260000D01*
X108410000Y-54260000D02*
X108410000Y-53950000D01*
%TO.C,R9*%
X85772936Y-73165000D02*
X86227064Y-73165000D01*
X85772936Y-74635000D02*
X86227064Y-74635000D01*
%TO.C,R2*%
X81772936Y-37265000D02*
X82227064Y-37265000D01*
X81772936Y-38735000D02*
X82227064Y-38735000D01*
%TO.C,C10*%
X90738748Y-69765000D02*
X91261252Y-69765000D01*
X90738748Y-71235000D02*
X91261252Y-71235000D01*
%TO.C,R15*%
X51772936Y-69265000D02*
X52227064Y-69265000D01*
X51772936Y-70735000D02*
X52227064Y-70735000D01*
%TO.C,TP5*%
X54950000Y-80000000D02*
G75*
G02*
X53050000Y-80000000I-950000J0D01*
G01*
X53050000Y-80000000D02*
G75*
G02*
X54950000Y-80000000I950000J0D01*
G01*
%TO.C,D4*%
X38140000Y-69040000D02*
X38140000Y-70960000D01*
X38140000Y-70960000D02*
X41000000Y-70960000D01*
X41000000Y-69040000D02*
X38140000Y-69040000D01*
%TO.C,U2*%
X73100000Y-41610000D02*
X74900000Y-41610000D01*
X74100000Y-38390000D02*
X73300000Y-38390000D01*
X74100000Y-38390000D02*
X74900000Y-38390000D01*
X72800000Y-38440000D02*
X72560000Y-38110000D01*
X73040000Y-38110000D01*
X72800000Y-38440000D01*
G36*
X72800000Y-38440000D02*
G01*
X72560000Y-38110000D01*
X73040000Y-38110000D01*
X72800000Y-38440000D01*
G37*
%TO.C,TP11*%
X54950000Y-76000000D02*
G75*
G02*
X53050000Y-76000000I-950000J0D01*
G01*
X53050000Y-76000000D02*
G75*
G02*
X54950000Y-76000000I950000J0D01*
G01*
%TO.C,U1*%
X61890000Y-70190000D02*
X61890000Y-69890000D01*
X80110000Y-69890000D02*
X61890000Y-69890000D01*
X80110000Y-70190000D02*
X80110000Y-69890000D01*
X80100000Y-83600000D02*
X80600000Y-83600000D01*
X80100000Y-84100000D01*
X80100000Y-83600000D01*
G36*
X80100000Y-84100000D02*
G01*
X80100000Y-83600000D01*
X80600000Y-83600000D01*
X80100000Y-84100000D01*
G37*
%TO.C,J1*%
X42120000Y-36620000D02*
X43500000Y-36620000D01*
X42120000Y-38000000D02*
X42120000Y-36620000D01*
X42120000Y-39270000D02*
X42120000Y-52080000D01*
X42120000Y-39270000D02*
X44880000Y-39270000D01*
X42120000Y-52080000D02*
X44880000Y-52080000D01*
X44880000Y-39270000D02*
X44880000Y-52080000D01*
%TO.C,D1*%
X53100000Y-51610000D02*
X54900000Y-51610000D01*
X54100000Y-48390000D02*
X53300000Y-48390000D01*
X54100000Y-48390000D02*
X54900000Y-48390000D01*
X52800000Y-48440000D02*
X52560000Y-48110000D01*
X53040000Y-48110000D01*
X52800000Y-48440000D01*
G36*
X52800000Y-48440000D02*
G01*
X52560000Y-48110000D01*
X53040000Y-48110000D01*
X52800000Y-48440000D01*
G37*
%TO.C,R11*%
X47772936Y-84265000D02*
X48227064Y-84265000D01*
X47772936Y-85735000D02*
X48227064Y-85735000D01*
%TO.C,R3*%
X96227064Y-81865000D02*
X95772936Y-81865000D01*
X96227064Y-83335000D02*
X95772936Y-83335000D01*
%TO.C,D3*%
X95640000Y-43000000D02*
X95640000Y-45000000D01*
X95640000Y-43000000D02*
X99650000Y-43000000D01*
X95640000Y-45000000D02*
X99650000Y-45000000D01*
%TO.C,R5*%
X85772936Y-79165000D02*
X86227064Y-79165000D01*
X85772936Y-80635000D02*
X86227064Y-80635000D01*
%TO.C,TP2*%
X92950000Y-44000000D02*
G75*
G02*
X91050000Y-44000000I-950000J0D01*
G01*
X91050000Y-44000000D02*
G75*
G02*
X92950000Y-44000000I950000J0D01*
G01*
%TO.C,C9*%
X82265000Y-81861252D02*
X82265000Y-81338748D01*
X83735000Y-81861252D02*
X83735000Y-81338748D01*
%TO.C,R17*%
X49772936Y-43265000D02*
X50227064Y-43265000D01*
X49772936Y-44735000D02*
X50227064Y-44735000D01*
%TO.C,TP1*%
X62950000Y-42500000D02*
G75*
G02*
X61050000Y-42500000I-950000J0D01*
G01*
X61050000Y-42500000D02*
G75*
G02*
X62950000Y-42500000I950000J0D01*
G01*
%TO.C,R16*%
X99772936Y-73265000D02*
X100227064Y-73265000D01*
X99772936Y-74735000D02*
X100227064Y-74735000D01*
%TO.C,C1*%
X61265000Y-37738748D02*
X61265000Y-38261252D01*
X62735000Y-37738748D02*
X62735000Y-38261252D01*
%TO.C,R6*%
X90772936Y-77665000D02*
X91227064Y-77665000D01*
X90772936Y-79135000D02*
X91227064Y-79135000D01*
%TO.C,R18*%
X49772936Y-45765000D02*
X50227064Y-45765000D01*
X49772936Y-47235000D02*
X50227064Y-47235000D01*
%TO.C,R1*%
X69772936Y-44265000D02*
X70227064Y-44265000D01*
X69772936Y-45735000D02*
X70227064Y-45735000D01*
%TO.C,R12*%
X41772936Y-84265000D02*
X42227064Y-84265000D01*
X41772936Y-85735000D02*
X42227064Y-85735000D01*
%TO.C,C6*%
X108765000Y-80238748D02*
X108765000Y-80761252D01*
X110235000Y-80238748D02*
X110235000Y-80761252D01*
%TO.C,D2*%
X86140000Y-37040000D02*
X86140000Y-38960000D01*
X86140000Y-38960000D02*
X89000000Y-38960000D01*
X89000000Y-37040000D02*
X86140000Y-37040000D01*
%TO.C,TP7*%
X84450000Y-68000000D02*
G75*
G02*
X82550000Y-68000000I-950000J0D01*
G01*
X82550000Y-68000000D02*
G75*
G02*
X84450000Y-68000000I950000J0D01*
G01*
%TD*%
%LPC*%
D15*
%TO.C,R14*%
X45000000Y-70000000D03*
X47000000Y-70000000D03*
%TD*%
D16*
%TO.C,H3*%
X115000000Y-63000000D03*
%TD*%
D17*
%TO.C,TP3*%
X105000000Y-87500000D03*
%TD*%
D16*
%TO.C,H4*%
X33500000Y-75000000D03*
%TD*%
D18*
%TO.C,C8*%
X91000000Y-82637500D03*
X91000000Y-80562500D03*
%TD*%
D17*
%TO.C,TP6*%
X96000000Y-70500000D03*
%TD*%
%TO.C,TP10*%
X66000000Y-42500000D03*
%TD*%
D15*
%TO.C,F1*%
X97000000Y-38000000D03*
X99000000Y-38000000D03*
%TD*%
%TO.C,R7*%
X85000000Y-76900000D03*
X87000000Y-76900000D03*
%TD*%
D19*
%TO.C,U3*%
X103150000Y-80550000D03*
X103150000Y-81500000D03*
X103150000Y-82450000D03*
X105850000Y-82450000D03*
X105850000Y-80550000D03*
%TD*%
D17*
%TO.C,TP4*%
X96000000Y-87200000D03*
%TD*%
D15*
%TO.C,R10*%
X39000000Y-80000000D03*
X41000000Y-80000000D03*
%TD*%
D18*
%TO.C,C3*%
X82000000Y-42962500D03*
X82000000Y-45037500D03*
%TD*%
D20*
%TO.C,J3*%
X114000000Y-86000000D03*
D21*
X114000000Y-83500000D03*
X114000000Y-81000000D03*
X114000000Y-78500000D03*
X114000000Y-76000000D03*
X114000000Y-73500000D03*
X114000000Y-71000000D03*
%TD*%
D15*
%TO.C,R4*%
X85000000Y-70500000D03*
X87000000Y-70500000D03*
%TD*%
D16*
%TO.C,H1*%
X33500000Y-33500000D03*
%TD*%
D18*
%TO.C,C4*%
X86000000Y-42962500D03*
X86000000Y-45037500D03*
%TD*%
%TO.C,C2*%
X66000000Y-36962500D03*
X66000000Y-39037500D03*
%TD*%
D15*
%TO.C,R13*%
X55000000Y-60000000D03*
X57000000Y-60000000D03*
%TD*%
D18*
%TO.C,C11*%
X58000000Y-74037500D03*
X58000000Y-71962500D03*
%TD*%
D15*
%TO.C,R8*%
X90000000Y-75400000D03*
X92000000Y-75400000D03*
%TD*%
D22*
%TO.C,J5*%
X42000000Y-60000000D03*
D23*
X44500000Y-60000000D03*
%TD*%
D22*
%TO.C,J4*%
X34000000Y-85000000D03*
D23*
X36500000Y-85000000D03*
%TD*%
D18*
%TO.C,C7*%
X109500000Y-83962500D03*
X109500000Y-86037500D03*
%TD*%
D17*
%TO.C,TP12*%
X38000000Y-76000000D03*
%TD*%
D18*
%TO.C,C5*%
X98962500Y-87500000D03*
X101037500Y-87500000D03*
%TD*%
D24*
%TO.C,J2*%
X106000000Y-38000000D03*
D25*
X108000000Y-38000000D03*
%TD*%
D26*
%TO.C,SW1*%
X99900000Y-52000000D03*
X108100000Y-52000000D03*
D27*
X102000000Y-52000000D03*
D28*
X104000000Y-52000000D03*
X106000000Y-52000000D03*
%TD*%
D15*
%TO.C,R9*%
X85000000Y-73900000D03*
X87000000Y-73900000D03*
%TD*%
%TO.C,R2*%
X81000000Y-38000000D03*
X83000000Y-38000000D03*
%TD*%
D18*
%TO.C,C10*%
X89962500Y-70500000D03*
X92037500Y-70500000D03*
%TD*%
D15*
%TO.C,R15*%
X51000000Y-70000000D03*
X53000000Y-70000000D03*
%TD*%
D17*
%TO.C,TP5*%
X54000000Y-80000000D03*
%TD*%
D29*
%TO.C,D4*%
X38975000Y-70000000D03*
X41025000Y-70000000D03*
%TD*%
D19*
%TO.C,U2*%
X72650000Y-39050000D03*
X72650000Y-40000000D03*
X72650000Y-40950000D03*
X75350000Y-40950000D03*
X75350000Y-39050000D03*
%TD*%
D16*
%TO.C,H2*%
X115000000Y-33500000D03*
%TD*%
D17*
%TO.C,TP11*%
X54000000Y-76000000D03*
%TD*%
D30*
%TO.C,U1*%
X80250000Y-82900000D03*
X80250000Y-81400000D03*
X80250000Y-79900000D03*
X80250000Y-78400000D03*
X80250000Y-76900000D03*
X80250000Y-75400000D03*
X80250000Y-73900000D03*
X80250000Y-72400000D03*
X80250000Y-70900000D03*
X61750000Y-70900000D03*
X61750000Y-72400000D03*
X61750000Y-73900000D03*
X61750000Y-75400000D03*
X61750000Y-76900000D03*
X61750000Y-78400000D03*
X61750000Y-79900000D03*
X61750000Y-81400000D03*
X61750000Y-82900000D03*
D31*
X71140000Y-77250000D03*
X71140000Y-76150000D03*
X70590000Y-77800000D03*
X70590000Y-76700000D03*
X70590000Y-75600000D03*
X70040000Y-77250000D03*
D32*
X70040000Y-76700000D03*
D31*
X70040000Y-76150000D03*
X69490000Y-77800000D03*
X69490000Y-76700000D03*
X69490000Y-75600000D03*
X68940000Y-77250000D03*
X68940000Y-76150000D03*
%TD*%
D33*
%TO.C,J1*%
X43500000Y-38000000D03*
D34*
X43500000Y-40540000D03*
X43500000Y-43080000D03*
X43500000Y-45620000D03*
X43500000Y-48160000D03*
X43500000Y-50700000D03*
%TD*%
D19*
%TO.C,D1*%
X52650000Y-49050000D03*
X52650000Y-50000000D03*
X52650000Y-50950000D03*
X55350000Y-50950000D03*
X55350000Y-50000000D03*
X55350000Y-49050000D03*
%TD*%
D15*
%TO.C,R11*%
X47000000Y-85000000D03*
X49000000Y-85000000D03*
%TD*%
%TO.C,R3*%
X97000000Y-82600000D03*
X95000000Y-82600000D03*
%TD*%
D35*
%TO.C,D3*%
X96350000Y-44000000D03*
X99650000Y-44000000D03*
%TD*%
D15*
%TO.C,R5*%
X85000000Y-79900000D03*
X87000000Y-79900000D03*
%TD*%
D17*
%TO.C,TP2*%
X92000000Y-44000000D03*
%TD*%
D18*
%TO.C,C9*%
X83000000Y-82637500D03*
X83000000Y-80562500D03*
%TD*%
D15*
%TO.C,R17*%
X49000000Y-44000000D03*
X51000000Y-44000000D03*
%TD*%
D17*
%TO.C,TP1*%
X62000000Y-42500000D03*
%TD*%
D15*
%TO.C,R16*%
X99000000Y-74000000D03*
X101000000Y-74000000D03*
%TD*%
D18*
%TO.C,C1*%
X62000000Y-36962500D03*
X62000000Y-39037500D03*
%TD*%
D15*
%TO.C,R6*%
X90000000Y-78400000D03*
X92000000Y-78400000D03*
%TD*%
%TO.C,R18*%
X49000000Y-46500000D03*
X51000000Y-46500000D03*
%TD*%
%TO.C,R1*%
X69000000Y-45000000D03*
X71000000Y-45000000D03*
%TD*%
%TO.C,R12*%
X41000000Y-85000000D03*
X43000000Y-85000000D03*
%TD*%
D18*
%TO.C,C6*%
X109500000Y-79462500D03*
X109500000Y-81537500D03*
%TD*%
D29*
%TO.C,D2*%
X86975000Y-38000000D03*
X89025000Y-38000000D03*
%TD*%
D17*
%TO.C,TP7*%
X83500000Y-68000000D03*
%TD*%
%LPD*%
M02*
