%TF.GenerationSoftware,KiCad,Pcbnew,10.0.5*%
%TF.CreationDate,2026-09-03T17:38:49+02:00*%
%TF.ProjectId,flappy-esp32c3,666c6170-7079-42d6-9573-70333263332e,A*%
%TF.SameCoordinates,Original*%
%TF.FileFunction,Drillmap*%
%TF.FilePolarity,Positive*%
%FSLAX45Y45*%
G04 Gerber Fmt 4.5, Leading zero omitted, Abs format (unit mm)*
G04 Created by KiCad (PCBNEW 10.0.5) date 2026-09-03 17:38:49*
%MOMM*%
%LPD*%
G01*
G04 APERTURE LIST*
%ADD10C,0.100000*%
%ADD11C,0.200000*%
%ADD12C,0.220000*%
G04 APERTURE END LIST*
D10*
X3000000Y-3000000D02*
X12000000Y-3000000D01*
X3000000Y-9000000D02*
X3000000Y-3000000D01*
X12000000Y-3000000D02*
X12000000Y-9000000D01*
X12000000Y-9000000D02*
X3000000Y-9000000D01*
D11*
D12*
X3240000Y-3240000D02*
X3460000Y-3460000D01*
X3460000Y-3240000D02*
X3240000Y-3460000D01*
X3240000Y-7390000D02*
X3460000Y-7610000D01*
X3460000Y-7390000D02*
X3240000Y-7610000D01*
X11390000Y-3240000D02*
X11610000Y-3460000D01*
X11610000Y-3240000D02*
X11390000Y-3460000D01*
X11390000Y-6190000D02*
X11610000Y-6410000D01*
X11610000Y-6190000D02*
X11390000Y-6410000D01*
D11*
X3255777Y-9316484D02*
X3255777Y-9116484D01*
X3255777Y-9116484D02*
X3303396Y-9116484D01*
X3303396Y-9116484D02*
X3331967Y-9126008D01*
X3331967Y-9126008D02*
X3351015Y-9145055D01*
X3351015Y-9145055D02*
X3360539Y-9164103D01*
X3360539Y-9164103D02*
X3370062Y-9202198D01*
X3370062Y-9202198D02*
X3370062Y-9230770D01*
X3370062Y-9230770D02*
X3360539Y-9268865D01*
X3360539Y-9268865D02*
X3351015Y-9287912D01*
X3351015Y-9287912D02*
X3331967Y-9306960D01*
X3331967Y-9306960D02*
X3303396Y-9316484D01*
X3303396Y-9316484D02*
X3255777Y-9316484D01*
X3455777Y-9316484D02*
X3455777Y-9183150D01*
X3455777Y-9221246D02*
X3465301Y-9202198D01*
X3465301Y-9202198D02*
X3474824Y-9192674D01*
X3474824Y-9192674D02*
X3493872Y-9183150D01*
X3493872Y-9183150D02*
X3512920Y-9183150D01*
X3579586Y-9316484D02*
X3579586Y-9183150D01*
X3579586Y-9116484D02*
X3570062Y-9126008D01*
X3570062Y-9126008D02*
X3579586Y-9135531D01*
X3579586Y-9135531D02*
X3589110Y-9126008D01*
X3589110Y-9126008D02*
X3579586Y-9116484D01*
X3579586Y-9116484D02*
X3579586Y-9135531D01*
X3703396Y-9316484D02*
X3684348Y-9306960D01*
X3684348Y-9306960D02*
X3674824Y-9287912D01*
X3674824Y-9287912D02*
X3674824Y-9116484D01*
X3808158Y-9316484D02*
X3789110Y-9306960D01*
X3789110Y-9306960D02*
X3779586Y-9287912D01*
X3779586Y-9287912D02*
X3779586Y-9116484D01*
X4036729Y-9316484D02*
X4036729Y-9116484D01*
X4036729Y-9116484D02*
X4103396Y-9259341D01*
X4103396Y-9259341D02*
X4170062Y-9116484D01*
X4170062Y-9116484D02*
X4170062Y-9316484D01*
X4351015Y-9316484D02*
X4351015Y-9211722D01*
X4351015Y-9211722D02*
X4341491Y-9192674D01*
X4341491Y-9192674D02*
X4322444Y-9183150D01*
X4322444Y-9183150D02*
X4284348Y-9183150D01*
X4284348Y-9183150D02*
X4265301Y-9192674D01*
X4351015Y-9306960D02*
X4331967Y-9316484D01*
X4331967Y-9316484D02*
X4284348Y-9316484D01*
X4284348Y-9316484D02*
X4265301Y-9306960D01*
X4265301Y-9306960D02*
X4255777Y-9287912D01*
X4255777Y-9287912D02*
X4255777Y-9268865D01*
X4255777Y-9268865D02*
X4265301Y-9249817D01*
X4265301Y-9249817D02*
X4284348Y-9240293D01*
X4284348Y-9240293D02*
X4331967Y-9240293D01*
X4331967Y-9240293D02*
X4351015Y-9230770D01*
X4446253Y-9183150D02*
X4446253Y-9383150D01*
X4446253Y-9192674D02*
X4465301Y-9183150D01*
X4465301Y-9183150D02*
X4503396Y-9183150D01*
X4503396Y-9183150D02*
X4522444Y-9192674D01*
X4522444Y-9192674D02*
X4531967Y-9202198D01*
X4531967Y-9202198D02*
X4541491Y-9221246D01*
X4541491Y-9221246D02*
X4541491Y-9278389D01*
X4541491Y-9278389D02*
X4531967Y-9297436D01*
X4531967Y-9297436D02*
X4522444Y-9306960D01*
X4522444Y-9306960D02*
X4503396Y-9316484D01*
X4503396Y-9316484D02*
X4465301Y-9316484D01*
X4465301Y-9316484D02*
X4446253Y-9306960D01*
X4627205Y-9297436D02*
X4636729Y-9306960D01*
X4636729Y-9306960D02*
X4627205Y-9316484D01*
X4627205Y-9316484D02*
X4617682Y-9306960D01*
X4617682Y-9306960D02*
X4627205Y-9297436D01*
X4627205Y-9297436D02*
X4627205Y-9316484D01*
X4627205Y-9192674D02*
X4636729Y-9202198D01*
X4636729Y-9202198D02*
X4627205Y-9211722D01*
X4627205Y-9211722D02*
X4617682Y-9202198D01*
X4617682Y-9202198D02*
X4627205Y-9192674D01*
X4627205Y-9192674D02*
X4627205Y-9211722D01*
X2795000Y-9545000D02*
X2995000Y-9745000D01*
X2995000Y-9545000D02*
X2795000Y-9745000D01*
X3246253Y-9555531D02*
X3255777Y-9546008D01*
X3255777Y-9546008D02*
X3274824Y-9536484D01*
X3274824Y-9536484D02*
X3322443Y-9536484D01*
X3322443Y-9536484D02*
X3341491Y-9546008D01*
X3341491Y-9546008D02*
X3351015Y-9555531D01*
X3351015Y-9555531D02*
X3360539Y-9574579D01*
X3360539Y-9574579D02*
X3360539Y-9593627D01*
X3360539Y-9593627D02*
X3351015Y-9622198D01*
X3351015Y-9622198D02*
X3236729Y-9736484D01*
X3236729Y-9736484D02*
X3360539Y-9736484D01*
X3446253Y-9717436D02*
X3455777Y-9726960D01*
X3455777Y-9726960D02*
X3446253Y-9736484D01*
X3446253Y-9736484D02*
X3436729Y-9726960D01*
X3436729Y-9726960D02*
X3446253Y-9717436D01*
X3446253Y-9717436D02*
X3446253Y-9736484D01*
X3531967Y-9555531D02*
X3541491Y-9546008D01*
X3541491Y-9546008D02*
X3560539Y-9536484D01*
X3560539Y-9536484D02*
X3608158Y-9536484D01*
X3608158Y-9536484D02*
X3627205Y-9546008D01*
X3627205Y-9546008D02*
X3636729Y-9555531D01*
X3636729Y-9555531D02*
X3646253Y-9574579D01*
X3646253Y-9574579D02*
X3646253Y-9593627D01*
X3646253Y-9593627D02*
X3636729Y-9622198D01*
X3636729Y-9622198D02*
X3522443Y-9736484D01*
X3522443Y-9736484D02*
X3646253Y-9736484D01*
X3770062Y-9536484D02*
X3789110Y-9536484D01*
X3789110Y-9536484D02*
X3808158Y-9546008D01*
X3808158Y-9546008D02*
X3817682Y-9555531D01*
X3817682Y-9555531D02*
X3827205Y-9574579D01*
X3827205Y-9574579D02*
X3836729Y-9612674D01*
X3836729Y-9612674D02*
X3836729Y-9660293D01*
X3836729Y-9660293D02*
X3827205Y-9698389D01*
X3827205Y-9698389D02*
X3817682Y-9717436D01*
X3817682Y-9717436D02*
X3808158Y-9726960D01*
X3808158Y-9726960D02*
X3789110Y-9736484D01*
X3789110Y-9736484D02*
X3770062Y-9736484D01*
X3770062Y-9736484D02*
X3751015Y-9726960D01*
X3751015Y-9726960D02*
X3741491Y-9717436D01*
X3741491Y-9717436D02*
X3731967Y-9698389D01*
X3731967Y-9698389D02*
X3722443Y-9660293D01*
X3722443Y-9660293D02*
X3722443Y-9612674D01*
X3722443Y-9612674D02*
X3731967Y-9574579D01*
X3731967Y-9574579D02*
X3741491Y-9555531D01*
X3741491Y-9555531D02*
X3751015Y-9546008D01*
X3751015Y-9546008D02*
X3770062Y-9536484D01*
X3960539Y-9536484D02*
X3979586Y-9536484D01*
X3979586Y-9536484D02*
X3998634Y-9546008D01*
X3998634Y-9546008D02*
X4008158Y-9555531D01*
X4008158Y-9555531D02*
X4017682Y-9574579D01*
X4017682Y-9574579D02*
X4027205Y-9612674D01*
X4027205Y-9612674D02*
X4027205Y-9660293D01*
X4027205Y-9660293D02*
X4017682Y-9698389D01*
X4017682Y-9698389D02*
X4008158Y-9717436D01*
X4008158Y-9717436D02*
X3998634Y-9726960D01*
X3998634Y-9726960D02*
X3979586Y-9736484D01*
X3979586Y-9736484D02*
X3960539Y-9736484D01*
X3960539Y-9736484D02*
X3941491Y-9726960D01*
X3941491Y-9726960D02*
X3931967Y-9717436D01*
X3931967Y-9717436D02*
X3922443Y-9698389D01*
X3922443Y-9698389D02*
X3912920Y-9660293D01*
X3912920Y-9660293D02*
X3912920Y-9612674D01*
X3912920Y-9612674D02*
X3922443Y-9574579D01*
X3922443Y-9574579D02*
X3931967Y-9555531D01*
X3931967Y-9555531D02*
X3941491Y-9546008D01*
X3941491Y-9546008D02*
X3960539Y-9536484D01*
X4112920Y-9736484D02*
X4112920Y-9603150D01*
X4112920Y-9622198D02*
X4122443Y-9612674D01*
X4122443Y-9612674D02*
X4141491Y-9603150D01*
X4141491Y-9603150D02*
X4170063Y-9603150D01*
X4170063Y-9603150D02*
X4189110Y-9612674D01*
X4189110Y-9612674D02*
X4198634Y-9631722D01*
X4198634Y-9631722D02*
X4198634Y-9736484D01*
X4198634Y-9631722D02*
X4208158Y-9612674D01*
X4208158Y-9612674D02*
X4227205Y-9603150D01*
X4227205Y-9603150D02*
X4255777Y-9603150D01*
X4255777Y-9603150D02*
X4274825Y-9612674D01*
X4274825Y-9612674D02*
X4284348Y-9631722D01*
X4284348Y-9631722D02*
X4284348Y-9736484D01*
X4379586Y-9736484D02*
X4379586Y-9603150D01*
X4379586Y-9622198D02*
X4389110Y-9612674D01*
X4389110Y-9612674D02*
X4408158Y-9603150D01*
X4408158Y-9603150D02*
X4436729Y-9603150D01*
X4436729Y-9603150D02*
X4455777Y-9612674D01*
X4455777Y-9612674D02*
X4465301Y-9631722D01*
X4465301Y-9631722D02*
X4465301Y-9736484D01*
X4465301Y-9631722D02*
X4474825Y-9612674D01*
X4474825Y-9612674D02*
X4493872Y-9603150D01*
X4493872Y-9603150D02*
X4522444Y-9603150D01*
X4522444Y-9603150D02*
X4541491Y-9612674D01*
X4541491Y-9612674D02*
X4551015Y-9631722D01*
X4551015Y-9631722D02*
X4551015Y-9736484D01*
X4941491Y-9526960D02*
X4770063Y-9784103D01*
X5198634Y-9536484D02*
X5217682Y-9536484D01*
X5217682Y-9536484D02*
X5236729Y-9546008D01*
X5236729Y-9546008D02*
X5246253Y-9555531D01*
X5246253Y-9555531D02*
X5255777Y-9574579D01*
X5255777Y-9574579D02*
X5265301Y-9612674D01*
X5265301Y-9612674D02*
X5265301Y-9660293D01*
X5265301Y-9660293D02*
X5255777Y-9698389D01*
X5255777Y-9698389D02*
X5246253Y-9717436D01*
X5246253Y-9717436D02*
X5236729Y-9726960D01*
X5236729Y-9726960D02*
X5217682Y-9736484D01*
X5217682Y-9736484D02*
X5198634Y-9736484D01*
X5198634Y-9736484D02*
X5179587Y-9726960D01*
X5179587Y-9726960D02*
X5170063Y-9717436D01*
X5170063Y-9717436D02*
X5160539Y-9698389D01*
X5160539Y-9698389D02*
X5151015Y-9660293D01*
X5151015Y-9660293D02*
X5151015Y-9612674D01*
X5151015Y-9612674D02*
X5160539Y-9574579D01*
X5160539Y-9574579D02*
X5170063Y-9555531D01*
X5170063Y-9555531D02*
X5179587Y-9546008D01*
X5179587Y-9546008D02*
X5198634Y-9536484D01*
X5351015Y-9717436D02*
X5360539Y-9726960D01*
X5360539Y-9726960D02*
X5351015Y-9736484D01*
X5351015Y-9736484D02*
X5341491Y-9726960D01*
X5341491Y-9726960D02*
X5351015Y-9717436D01*
X5351015Y-9717436D02*
X5351015Y-9736484D01*
X5484348Y-9536484D02*
X5503396Y-9536484D01*
X5503396Y-9536484D02*
X5522444Y-9546008D01*
X5522444Y-9546008D02*
X5531968Y-9555531D01*
X5531968Y-9555531D02*
X5541491Y-9574579D01*
X5541491Y-9574579D02*
X5551015Y-9612674D01*
X5551015Y-9612674D02*
X5551015Y-9660293D01*
X5551015Y-9660293D02*
X5541491Y-9698389D01*
X5541491Y-9698389D02*
X5531968Y-9717436D01*
X5531968Y-9717436D02*
X5522444Y-9726960D01*
X5522444Y-9726960D02*
X5503396Y-9736484D01*
X5503396Y-9736484D02*
X5484348Y-9736484D01*
X5484348Y-9736484D02*
X5465301Y-9726960D01*
X5465301Y-9726960D02*
X5455777Y-9717436D01*
X5455777Y-9717436D02*
X5446253Y-9698389D01*
X5446253Y-9698389D02*
X5436729Y-9660293D01*
X5436729Y-9660293D02*
X5436729Y-9612674D01*
X5436729Y-9612674D02*
X5446253Y-9574579D01*
X5446253Y-9574579D02*
X5455777Y-9555531D01*
X5455777Y-9555531D02*
X5465301Y-9546008D01*
X5465301Y-9546008D02*
X5484348Y-9536484D01*
X5665301Y-9622198D02*
X5646253Y-9612674D01*
X5646253Y-9612674D02*
X5636729Y-9603150D01*
X5636729Y-9603150D02*
X5627206Y-9584103D01*
X5627206Y-9584103D02*
X5627206Y-9574579D01*
X5627206Y-9574579D02*
X5636729Y-9555531D01*
X5636729Y-9555531D02*
X5646253Y-9546008D01*
X5646253Y-9546008D02*
X5665301Y-9536484D01*
X5665301Y-9536484D02*
X5703396Y-9536484D01*
X5703396Y-9536484D02*
X5722444Y-9546008D01*
X5722444Y-9546008D02*
X5731967Y-9555531D01*
X5731967Y-9555531D02*
X5741491Y-9574579D01*
X5741491Y-9574579D02*
X5741491Y-9584103D01*
X5741491Y-9584103D02*
X5731967Y-9603150D01*
X5731967Y-9603150D02*
X5722444Y-9612674D01*
X5722444Y-9612674D02*
X5703396Y-9622198D01*
X5703396Y-9622198D02*
X5665301Y-9622198D01*
X5665301Y-9622198D02*
X5646253Y-9631722D01*
X5646253Y-9631722D02*
X5636729Y-9641246D01*
X5636729Y-9641246D02*
X5627206Y-9660293D01*
X5627206Y-9660293D02*
X5627206Y-9698389D01*
X5627206Y-9698389D02*
X5636729Y-9717436D01*
X5636729Y-9717436D02*
X5646253Y-9726960D01*
X5646253Y-9726960D02*
X5665301Y-9736484D01*
X5665301Y-9736484D02*
X5703396Y-9736484D01*
X5703396Y-9736484D02*
X5722444Y-9726960D01*
X5722444Y-9726960D02*
X5731967Y-9717436D01*
X5731967Y-9717436D02*
X5741491Y-9698389D01*
X5741491Y-9698389D02*
X5741491Y-9660293D01*
X5741491Y-9660293D02*
X5731967Y-9641246D01*
X5731967Y-9641246D02*
X5722444Y-9631722D01*
X5722444Y-9631722D02*
X5703396Y-9622198D01*
X5912920Y-9536484D02*
X5874825Y-9536484D01*
X5874825Y-9536484D02*
X5855777Y-9546008D01*
X5855777Y-9546008D02*
X5846253Y-9555531D01*
X5846253Y-9555531D02*
X5827206Y-9584103D01*
X5827206Y-9584103D02*
X5817682Y-9622198D01*
X5817682Y-9622198D02*
X5817682Y-9698389D01*
X5817682Y-9698389D02*
X5827206Y-9717436D01*
X5827206Y-9717436D02*
X5836729Y-9726960D01*
X5836729Y-9726960D02*
X5855777Y-9736484D01*
X5855777Y-9736484D02*
X5893872Y-9736484D01*
X5893872Y-9736484D02*
X5912920Y-9726960D01*
X5912920Y-9726960D02*
X5922444Y-9717436D01*
X5922444Y-9717436D02*
X5931967Y-9698389D01*
X5931967Y-9698389D02*
X5931967Y-9650770D01*
X5931967Y-9650770D02*
X5922444Y-9631722D01*
X5922444Y-9631722D02*
X5912920Y-9622198D01*
X5912920Y-9622198D02*
X5893872Y-9612674D01*
X5893872Y-9612674D02*
X5855777Y-9612674D01*
X5855777Y-9612674D02*
X5836729Y-9622198D01*
X5836729Y-9622198D02*
X5827206Y-9631722D01*
X5827206Y-9631722D02*
X5817682Y-9650770D01*
X6103396Y-9536484D02*
X6065301Y-9536484D01*
X6065301Y-9536484D02*
X6046253Y-9546008D01*
X6046253Y-9546008D02*
X6036729Y-9555531D01*
X6036729Y-9555531D02*
X6017682Y-9584103D01*
X6017682Y-9584103D02*
X6008158Y-9622198D01*
X6008158Y-9622198D02*
X6008158Y-9698389D01*
X6008158Y-9698389D02*
X6017682Y-9717436D01*
X6017682Y-9717436D02*
X6027206Y-9726960D01*
X6027206Y-9726960D02*
X6046253Y-9736484D01*
X6046253Y-9736484D02*
X6084348Y-9736484D01*
X6084348Y-9736484D02*
X6103396Y-9726960D01*
X6103396Y-9726960D02*
X6112920Y-9717436D01*
X6112920Y-9717436D02*
X6122444Y-9698389D01*
X6122444Y-9698389D02*
X6122444Y-9650770D01*
X6122444Y-9650770D02*
X6112920Y-9631722D01*
X6112920Y-9631722D02*
X6103396Y-9622198D01*
X6103396Y-9622198D02*
X6084348Y-9612674D01*
X6084348Y-9612674D02*
X6046253Y-9612674D01*
X6046253Y-9612674D02*
X6027206Y-9622198D01*
X6027206Y-9622198D02*
X6017682Y-9631722D01*
X6017682Y-9631722D02*
X6008158Y-9650770D01*
X6198634Y-9536484D02*
X6198634Y-9574579D01*
X6274825Y-9536484D02*
X6274825Y-9574579D01*
X6570063Y-9812674D02*
X6560539Y-9803150D01*
X6560539Y-9803150D02*
X6541491Y-9774579D01*
X6541491Y-9774579D02*
X6531968Y-9755531D01*
X6531968Y-9755531D02*
X6522444Y-9726960D01*
X6522444Y-9726960D02*
X6512920Y-9679341D01*
X6512920Y-9679341D02*
X6512920Y-9641246D01*
X6512920Y-9641246D02*
X6522444Y-9593627D01*
X6522444Y-9593627D02*
X6531968Y-9565055D01*
X6531968Y-9565055D02*
X6541491Y-9546008D01*
X6541491Y-9546008D02*
X6560539Y-9517436D01*
X6560539Y-9517436D02*
X6570063Y-9507912D01*
X6731968Y-9603150D02*
X6731968Y-9736484D01*
X6684348Y-9526960D02*
X6636729Y-9669817D01*
X6636729Y-9669817D02*
X6760539Y-9669817D01*
X6989110Y-9736484D02*
X6989110Y-9536484D01*
X7074825Y-9736484D02*
X7074825Y-9631722D01*
X7074825Y-9631722D02*
X7065301Y-9612674D01*
X7065301Y-9612674D02*
X7046253Y-9603150D01*
X7046253Y-9603150D02*
X7017682Y-9603150D01*
X7017682Y-9603150D02*
X6998634Y-9612674D01*
X6998634Y-9612674D02*
X6989110Y-9622198D01*
X7198634Y-9736484D02*
X7179587Y-9726960D01*
X7179587Y-9726960D02*
X7170063Y-9717436D01*
X7170063Y-9717436D02*
X7160539Y-9698389D01*
X7160539Y-9698389D02*
X7160539Y-9641246D01*
X7160539Y-9641246D02*
X7170063Y-9622198D01*
X7170063Y-9622198D02*
X7179587Y-9612674D01*
X7179587Y-9612674D02*
X7198634Y-9603150D01*
X7198634Y-9603150D02*
X7227206Y-9603150D01*
X7227206Y-9603150D02*
X7246253Y-9612674D01*
X7246253Y-9612674D02*
X7255777Y-9622198D01*
X7255777Y-9622198D02*
X7265301Y-9641246D01*
X7265301Y-9641246D02*
X7265301Y-9698389D01*
X7265301Y-9698389D02*
X7255777Y-9717436D01*
X7255777Y-9717436D02*
X7246253Y-9726960D01*
X7246253Y-9726960D02*
X7227206Y-9736484D01*
X7227206Y-9736484D02*
X7198634Y-9736484D01*
X7379587Y-9736484D02*
X7360539Y-9726960D01*
X7360539Y-9726960D02*
X7351015Y-9707912D01*
X7351015Y-9707912D02*
X7351015Y-9536484D01*
X7531968Y-9726960D02*
X7512920Y-9736484D01*
X7512920Y-9736484D02*
X7474825Y-9736484D01*
X7474825Y-9736484D02*
X7455777Y-9726960D01*
X7455777Y-9726960D02*
X7446253Y-9707912D01*
X7446253Y-9707912D02*
X7446253Y-9631722D01*
X7446253Y-9631722D02*
X7455777Y-9612674D01*
X7455777Y-9612674D02*
X7474825Y-9603150D01*
X7474825Y-9603150D02*
X7512920Y-9603150D01*
X7512920Y-9603150D02*
X7531968Y-9612674D01*
X7531968Y-9612674D02*
X7541491Y-9631722D01*
X7541491Y-9631722D02*
X7541491Y-9650770D01*
X7541491Y-9650770D02*
X7446253Y-9669817D01*
X7617682Y-9726960D02*
X7636730Y-9736484D01*
X7636730Y-9736484D02*
X7674825Y-9736484D01*
X7674825Y-9736484D02*
X7693872Y-9726960D01*
X7693872Y-9726960D02*
X7703396Y-9707912D01*
X7703396Y-9707912D02*
X7703396Y-9698389D01*
X7703396Y-9698389D02*
X7693872Y-9679341D01*
X7693872Y-9679341D02*
X7674825Y-9669817D01*
X7674825Y-9669817D02*
X7646253Y-9669817D01*
X7646253Y-9669817D02*
X7627206Y-9660293D01*
X7627206Y-9660293D02*
X7617682Y-9641246D01*
X7617682Y-9641246D02*
X7617682Y-9631722D01*
X7617682Y-9631722D02*
X7627206Y-9612674D01*
X7627206Y-9612674D02*
X7646253Y-9603150D01*
X7646253Y-9603150D02*
X7674825Y-9603150D01*
X7674825Y-9603150D02*
X7693872Y-9612674D01*
X7770063Y-9812674D02*
X7779587Y-9803150D01*
X7779587Y-9803150D02*
X7798634Y-9774579D01*
X7798634Y-9774579D02*
X7808158Y-9755531D01*
X7808158Y-9755531D02*
X7817682Y-9726960D01*
X7817682Y-9726960D02*
X7827206Y-9679341D01*
X7827206Y-9679341D02*
X7827206Y-9641246D01*
X7827206Y-9641246D02*
X7817682Y-9593627D01*
X7817682Y-9593627D02*
X7808158Y-9565055D01*
X7808158Y-9565055D02*
X7798634Y-9546008D01*
X7798634Y-9546008D02*
X7779587Y-9517436D01*
X7779587Y-9517436D02*
X7770063Y-9507912D01*
X8131968Y-9812674D02*
X8122444Y-9803150D01*
X8122444Y-9803150D02*
X8103396Y-9774579D01*
X8103396Y-9774579D02*
X8093872Y-9755531D01*
X8093872Y-9755531D02*
X8084349Y-9726960D01*
X8084349Y-9726960D02*
X8074825Y-9679341D01*
X8074825Y-9679341D02*
X8074825Y-9641246D01*
X8074825Y-9641246D02*
X8084349Y-9593627D01*
X8084349Y-9593627D02*
X8093872Y-9565055D01*
X8093872Y-9565055D02*
X8103396Y-9546008D01*
X8103396Y-9546008D02*
X8122444Y-9517436D01*
X8122444Y-9517436D02*
X8131968Y-9507912D01*
X8208158Y-9603150D02*
X8208158Y-9736484D01*
X8208158Y-9622198D02*
X8217682Y-9612674D01*
X8217682Y-9612674D02*
X8236730Y-9603150D01*
X8236730Y-9603150D02*
X8265301Y-9603150D01*
X8265301Y-9603150D02*
X8284349Y-9612674D01*
X8284349Y-9612674D02*
X8293872Y-9631722D01*
X8293872Y-9631722D02*
X8293872Y-9736484D01*
X8417682Y-9736484D02*
X8398634Y-9726960D01*
X8398634Y-9726960D02*
X8389111Y-9717436D01*
X8389111Y-9717436D02*
X8379587Y-9698389D01*
X8379587Y-9698389D02*
X8379587Y-9641246D01*
X8379587Y-9641246D02*
X8389111Y-9622198D01*
X8389111Y-9622198D02*
X8398634Y-9612674D01*
X8398634Y-9612674D02*
X8417682Y-9603150D01*
X8417682Y-9603150D02*
X8446254Y-9603150D01*
X8446254Y-9603150D02*
X8465301Y-9612674D01*
X8465301Y-9612674D02*
X8474825Y-9622198D01*
X8474825Y-9622198D02*
X8484349Y-9641246D01*
X8484349Y-9641246D02*
X8484349Y-9698389D01*
X8484349Y-9698389D02*
X8474825Y-9717436D01*
X8474825Y-9717436D02*
X8465301Y-9726960D01*
X8465301Y-9726960D02*
X8446254Y-9736484D01*
X8446254Y-9736484D02*
X8417682Y-9736484D01*
X8541492Y-9603150D02*
X8617682Y-9603150D01*
X8570063Y-9536484D02*
X8570063Y-9707912D01*
X8570063Y-9707912D02*
X8579587Y-9726960D01*
X8579587Y-9726960D02*
X8598634Y-9736484D01*
X8598634Y-9736484D02*
X8617682Y-9736484D01*
X8836730Y-9603150D02*
X8836730Y-9803150D01*
X8836730Y-9612674D02*
X8855777Y-9603150D01*
X8855777Y-9603150D02*
X8893873Y-9603150D01*
X8893873Y-9603150D02*
X8912920Y-9612674D01*
X8912920Y-9612674D02*
X8922444Y-9622198D01*
X8922444Y-9622198D02*
X8931968Y-9641246D01*
X8931968Y-9641246D02*
X8931968Y-9698389D01*
X8931968Y-9698389D02*
X8922444Y-9717436D01*
X8922444Y-9717436D02*
X8912920Y-9726960D01*
X8912920Y-9726960D02*
X8893873Y-9736484D01*
X8893873Y-9736484D02*
X8855777Y-9736484D01*
X8855777Y-9736484D02*
X8836730Y-9726960D01*
X9046254Y-9736484D02*
X9027206Y-9726960D01*
X9027206Y-9726960D02*
X9017682Y-9707912D01*
X9017682Y-9707912D02*
X9017682Y-9536484D01*
X9208158Y-9736484D02*
X9208158Y-9631722D01*
X9208158Y-9631722D02*
X9198635Y-9612674D01*
X9198635Y-9612674D02*
X9179587Y-9603150D01*
X9179587Y-9603150D02*
X9141492Y-9603150D01*
X9141492Y-9603150D02*
X9122444Y-9612674D01*
X9208158Y-9726960D02*
X9189111Y-9736484D01*
X9189111Y-9736484D02*
X9141492Y-9736484D01*
X9141492Y-9736484D02*
X9122444Y-9726960D01*
X9122444Y-9726960D02*
X9112920Y-9707912D01*
X9112920Y-9707912D02*
X9112920Y-9688865D01*
X9112920Y-9688865D02*
X9122444Y-9669817D01*
X9122444Y-9669817D02*
X9141492Y-9660293D01*
X9141492Y-9660293D02*
X9189111Y-9660293D01*
X9189111Y-9660293D02*
X9208158Y-9650770D01*
X9274825Y-9603150D02*
X9351015Y-9603150D01*
X9303396Y-9536484D02*
X9303396Y-9707912D01*
X9303396Y-9707912D02*
X9312920Y-9726960D01*
X9312920Y-9726960D02*
X9331968Y-9736484D01*
X9331968Y-9736484D02*
X9351015Y-9736484D01*
X9493873Y-9726960D02*
X9474825Y-9736484D01*
X9474825Y-9736484D02*
X9436730Y-9736484D01*
X9436730Y-9736484D02*
X9417682Y-9726960D01*
X9417682Y-9726960D02*
X9408158Y-9707912D01*
X9408158Y-9707912D02*
X9408158Y-9631722D01*
X9408158Y-9631722D02*
X9417682Y-9612674D01*
X9417682Y-9612674D02*
X9436730Y-9603150D01*
X9436730Y-9603150D02*
X9474825Y-9603150D01*
X9474825Y-9603150D02*
X9493873Y-9612674D01*
X9493873Y-9612674D02*
X9503396Y-9631722D01*
X9503396Y-9631722D02*
X9503396Y-9650770D01*
X9503396Y-9650770D02*
X9408158Y-9669817D01*
X9674825Y-9736484D02*
X9674825Y-9536484D01*
X9674825Y-9726960D02*
X9655777Y-9736484D01*
X9655777Y-9736484D02*
X9617682Y-9736484D01*
X9617682Y-9736484D02*
X9598635Y-9726960D01*
X9598635Y-9726960D02*
X9589111Y-9717436D01*
X9589111Y-9717436D02*
X9579587Y-9698389D01*
X9579587Y-9698389D02*
X9579587Y-9641246D01*
X9579587Y-9641246D02*
X9589111Y-9622198D01*
X9589111Y-9622198D02*
X9598635Y-9612674D01*
X9598635Y-9612674D02*
X9617682Y-9603150D01*
X9617682Y-9603150D02*
X9655777Y-9603150D01*
X9655777Y-9603150D02*
X9674825Y-9612674D01*
X9751016Y-9812674D02*
X9760539Y-9803150D01*
X9760539Y-9803150D02*
X9779587Y-9774579D01*
X9779587Y-9774579D02*
X9789111Y-9755531D01*
X9789111Y-9755531D02*
X9798635Y-9726960D01*
X9798635Y-9726960D02*
X9808158Y-9679341D01*
X9808158Y-9679341D02*
X9808158Y-9641246D01*
X9808158Y-9641246D02*
X9798635Y-9593627D01*
X9798635Y-9593627D02*
X9789111Y-9565055D01*
X9789111Y-9565055D02*
X9779587Y-9546008D01*
X9779587Y-9546008D02*
X9760539Y-9517436D01*
X9760539Y-9517436D02*
X9751016Y-9507912D01*
M02*
