%TF.GenerationSoftware,KiCad,Pcbnew,10.0.5*%
%TF.CreationDate,2026-09-03T20:20:10+02:00*%
%TF.ProjectId,flappy-esp32c3,666c6170-7079-42d6-9573-70333263332e,A*%
%TF.SameCoordinates,Original*%
%TF.FileFunction,Paste,Top*%
%TF.FilePolarity,Positive*%
%FSLAX46Y46*%
G04 Gerber Fmt 4.6, Leading zero omitted, Abs format (unit mm)*
G04 Created by KiCad (PCBNEW 10.0.5) date 2026-09-03 20:20:10*
%MOMM*%
%LPD*%
G01*
G04 APERTURE LIST*
G04 Aperture macros list*
%AMRoundRect*
0 Rectangle with rounded corners*
0 $1 Rounding radius*
0 $2 $3 $4 $5 $6 $7 $8 $9 X,Y pos of 4 corners*
0 Add a 4 corners polygon primitive as box body*
4,1,4,$2,$3,$4,$5,$6,$7,$8,$9,$2,$3,0*
0 Add four circle primitives for the rounded corners*
1,1,$1+$1,$2,$3*
1,1,$1+$1,$4,$5*
1,1,$1+$1,$6,$7*
1,1,$1+$1,$8,$9*
0 Add four rect primitives between the rounded corners*
20,1,$1+$1,$2,$3,$4,$5,0*
20,1,$1+$1,$4,$5,$6,$7,0*
20,1,$1+$1,$6,$7,$8,$9,0*
20,1,$1+$1,$8,$9,$2,$3,0*%
G04 Aperture macros list end*
%ADD10RoundRect,0.250000X-0.350000X-0.450000X0.350000X-0.450000X0.350000X0.450000X-0.350000X0.450000X0*%
%ADD11RoundRect,0.162500X-0.617500X-0.162500X0.617500X-0.162500X0.617500X0.162500X-0.617500X0.162500X0*%
%ADD12RoundRect,0.250000X-0.337500X-0.475000X0.337500X-0.475000X0.337500X0.475000X-0.337500X0.475000X0*%
%ADD13RoundRect,0.250000X-0.325000X-0.450000X0.325000X-0.450000X0.325000X0.450000X-0.325000X0.450000X0*%
%ADD14R,0.700000X0.700000*%
%ADD15R,2.500000X0.900000*%
%ADD16RoundRect,0.225000X-0.225000X-0.375000X0.225000X-0.375000X0.225000X0.375000X-0.225000X0.375000X0*%
G04 APERTURE END LIST*
D10*
%TO.C,R14*%
X45000000Y-70000000D03*
X47000000Y-70000000D03*
%TD*%
%TO.C,R21*%
X54000000Y-54000000D03*
X56000000Y-54000000D03*
%TD*%
%TO.C,R23*%
X70000000Y-63000000D03*
X72000000Y-63000000D03*
%TD*%
D11*
%TO.C,D5*%
X50650000Y-65050000D03*
X50650000Y-66000000D03*
X50650000Y-66950000D03*
X53350000Y-66950000D03*
X53350000Y-66000000D03*
X53350000Y-65050000D03*
%TD*%
D12*
%TO.C,C8*%
X91000000Y-82637500D03*
X91000000Y-80562500D03*
%TD*%
D10*
%TO.C,F1*%
X97000000Y-38000000D03*
X99000000Y-38000000D03*
%TD*%
%TO.C,R7*%
X85000000Y-76900000D03*
X87000000Y-76900000D03*
%TD*%
D11*
%TO.C,U3*%
X103150000Y-80550000D03*
X103150000Y-81500000D03*
X103150000Y-82450000D03*
X105850000Y-82450000D03*
X105850000Y-80550000D03*
%TD*%
D10*
%TO.C,R10*%
X39000000Y-80000000D03*
X41000000Y-80000000D03*
%TD*%
D12*
%TO.C,C3*%
X82000000Y-42962500D03*
X82000000Y-45037500D03*
%TD*%
D10*
%TO.C,R4*%
X85000000Y-70500000D03*
X87000000Y-70500000D03*
%TD*%
D12*
%TO.C,C4*%
X86000000Y-42962500D03*
X86000000Y-45037500D03*
%TD*%
%TO.C,C2*%
X66000000Y-36962500D03*
X66000000Y-39037500D03*
%TD*%
D10*
%TO.C,R13*%
X55000000Y-60000000D03*
X57000000Y-60000000D03*
%TD*%
D12*
%TO.C,C11*%
X58000000Y-74037500D03*
X58000000Y-71962500D03*
%TD*%
D10*
%TO.C,R8*%
X90000000Y-75400000D03*
X92000000Y-75400000D03*
%TD*%
D12*
%TO.C,C7*%
X109500000Y-83962500D03*
X109500000Y-86037500D03*
%TD*%
%TO.C,C12*%
X74962500Y-63000000D03*
X77037500Y-63000000D03*
%TD*%
%TO.C,C5*%
X98962500Y-87500000D03*
X101037500Y-87500000D03*
%TD*%
D10*
%TO.C,R9*%
X85000000Y-73900000D03*
X87000000Y-73900000D03*
%TD*%
%TO.C,R2*%
X81000000Y-38000000D03*
X83000000Y-38000000D03*
%TD*%
D12*
%TO.C,C10*%
X89962500Y-70500000D03*
X92037500Y-70500000D03*
%TD*%
D10*
%TO.C,R15*%
X51000000Y-70000000D03*
X53000000Y-70000000D03*
%TD*%
%TO.C,R20*%
X49000000Y-54000000D03*
X51000000Y-54000000D03*
%TD*%
D13*
%TO.C,D4*%
X38975000Y-70000000D03*
X41025000Y-70000000D03*
%TD*%
D11*
%TO.C,U2*%
X72650000Y-39050000D03*
X72650000Y-40000000D03*
X72650000Y-40950000D03*
X75350000Y-40950000D03*
X75350000Y-39050000D03*
%TD*%
D14*
%TO.C,U1*%
X71140000Y-77800000D03*
X71140000Y-76700000D03*
X71140000Y-75600000D03*
X70040000Y-77800000D03*
X70040000Y-76700000D03*
X70040000Y-75600000D03*
X68940000Y-77800000D03*
X68940000Y-76700000D03*
X68940000Y-75600000D03*
D15*
X80250000Y-82900000D03*
X80250000Y-81400000D03*
X80250000Y-79900000D03*
X80250000Y-78400000D03*
X80250000Y-76900000D03*
X80250000Y-75400000D03*
X80250000Y-73900000D03*
X80250000Y-72400000D03*
X80250000Y-70900000D03*
X61750000Y-70900000D03*
X61750000Y-72400000D03*
X61750000Y-73900000D03*
X61750000Y-75400000D03*
X61750000Y-76900000D03*
X61750000Y-78400000D03*
X61750000Y-79900000D03*
X61750000Y-81400000D03*
X61750000Y-82900000D03*
%TD*%
D10*
%TO.C,R19*%
X107000000Y-57000000D03*
X109000000Y-57000000D03*
%TD*%
D11*
%TO.C,D1*%
X52650000Y-49050000D03*
X52650000Y-50000000D03*
X52650000Y-50950000D03*
X55350000Y-50950000D03*
X55350000Y-50000000D03*
X55350000Y-49050000D03*
%TD*%
D10*
%TO.C,R11*%
X47000000Y-85000000D03*
X49000000Y-85000000D03*
%TD*%
%TO.C,R3*%
X97000000Y-82600000D03*
X95000000Y-82600000D03*
%TD*%
D16*
%TO.C,D3*%
X96350000Y-44000000D03*
X99650000Y-44000000D03*
%TD*%
D10*
%TO.C,R5*%
X85000000Y-79900000D03*
X87000000Y-79900000D03*
%TD*%
%TO.C,R22*%
X65000000Y-63000000D03*
X67000000Y-63000000D03*
%TD*%
D12*
%TO.C,C9*%
X83000000Y-82637500D03*
X83000000Y-80562500D03*
%TD*%
D10*
%TO.C,R17*%
X49000000Y-44000000D03*
X51000000Y-44000000D03*
%TD*%
%TO.C,R16*%
X99000000Y-74000000D03*
X101000000Y-74000000D03*
%TD*%
D12*
%TO.C,C1*%
X62000000Y-36962500D03*
X62000000Y-39037500D03*
%TD*%
D10*
%TO.C,R6*%
X90000000Y-78400000D03*
X92000000Y-78400000D03*
%TD*%
%TO.C,R18*%
X49000000Y-46500000D03*
X51000000Y-46500000D03*
%TD*%
%TO.C,R1*%
X69000000Y-45000000D03*
X71000000Y-45000000D03*
%TD*%
%TO.C,R12*%
X41000000Y-85000000D03*
X43000000Y-85000000D03*
%TD*%
D12*
%TO.C,C6*%
X109500000Y-79462500D03*
X109500000Y-81537500D03*
%TD*%
D13*
%TO.C,D2*%
X86975000Y-38000000D03*
X89025000Y-38000000D03*
%TD*%
M02*
