%TF.GenerationSoftware,KiCad,Pcbnew,10.0.5*%
%TF.CreationDate,2026-09-03T17:38:49+02:00*%
%TF.ProjectId,flappy-esp32c3,666c6170-7079-42d6-9573-70333263332e,A*%
%TF.SameCoordinates,Original*%
%TF.FileFunction,Copper,L2,Bot*%
%TF.FilePolarity,Positive*%
%FSLAX46Y46*%
G04 Gerber Fmt 4.6, Leading zero omitted, Abs format (unit mm)*
G04 Created by KiCad (PCBNEW 10.0.5) date 2026-09-03 17:38:49*
%MOMM*%
%LPD*%
G01*
G04 APERTURE LIST*
G04 Aperture macros list*
%AMRoundRect*
0 Rectangle with rounded corners*
0 $1 Rounding radius*
0 $2 $3 $4 $5 $6 $7 $8 $9 X,Y pos of 4 corners*
0 Add a 4 corners polygon primitive as box body*
4,1,4,$2,$3,$4,$5,$6,$7,$8,$9,$2,$3,0*
0 Add four circle primitives for the rounded corners*
1,1,$1+$1,$2,$3*
1,1,$1+$1,$4,$5*
1,1,$1+$1,$6,$7*
1,1,$1+$1,$8,$9*
0 Add four rect primitives between the rounded corners*
20,1,$1+$1,$2,$3,$4,$5,0*
20,1,$1+$1,$4,$5,$6,$7,0*
20,1,$1+$1,$6,$7,$8,$9,0*
20,1,$1+$1,$8,$9,$2,$3,0*%
G04 Aperture macros list end*
%TA.AperFunction,ComponentPad*%
%ADD10RoundRect,0.250000X-0.600000X-0.725000X0.600000X-0.725000X0.600000X0.725000X-0.600000X0.725000X0*%
%TD*%
%TA.AperFunction,ComponentPad*%
%ADD11O,1.700000X1.950000*%
%TD*%
%TA.AperFunction,ComponentPad*%
%ADD12RoundRect,0.250000X-0.600000X-0.750000X0.600000X-0.750000X0.600000X0.750000X-0.600000X0.750000X0*%
%TD*%
%TA.AperFunction,ComponentPad*%
%ADD13O,1.700000X2.000000*%
%TD*%
%TA.AperFunction,ComponentPad*%
%ADD14RoundRect,0.250000X-0.350000X-0.625000X0.350000X-0.625000X0.350000X0.625000X-0.350000X0.625000X0*%
%TD*%
%TA.AperFunction,ComponentPad*%
%ADD15O,1.200000X1.750000*%
%TD*%
%TA.AperFunction,ComponentPad*%
%ADD16O,2.200000X3.500000*%
%TD*%
%TA.AperFunction,ComponentPad*%
%ADD17R,1.500000X2.500000*%
%TD*%
%TA.AperFunction,ComponentPad*%
%ADD18O,1.500000X2.500000*%
%TD*%
%TA.AperFunction,HeatsinkPad*%
%ADD19C,0.700000*%
%TD*%
%TA.AperFunction,ComponentPad*%
%ADD20R,1.700000X1.700000*%
%TD*%
%TA.AperFunction,ComponentPad*%
%ADD21C,1.700000*%
%TD*%
%TA.AperFunction,ViaPad*%
%ADD22C,0.800000*%
%TD*%
%TA.AperFunction,Conductor*%
%ADD23C,0.500000*%
%TD*%
%TA.AperFunction,Conductor*%
%ADD24C,0.250000*%
%TD*%
%TA.AperFunction,Conductor*%
%ADD25C,0.300000*%
%TD*%
G04 APERTURE END LIST*
D10*
%TO.P,J3,1*%
%TO.N,GND*%
X114000000Y-86000000D03*
D11*
%TO.P,J3,2*%
%TO.N,+3V3*%
X114000000Y-83500000D03*
%TO.P,J3,3*%
%TO.N,SCLK*%
X114000000Y-81000000D03*
%TO.P,J3,4*%
%TO.N,MOSI*%
X114000000Y-78500000D03*
%TO.P,J3,5*%
%TO.N,OLED_RES*%
X114000000Y-76000000D03*
%TO.P,J3,6*%
%TO.N,OLED_DC*%
X114000000Y-73500000D03*
%TO.P,J3,7*%
%TO.N,OLED_CS*%
X114000000Y-71000000D03*
%TD*%
D12*
%TO.P,J5,1*%
%TO.N,BUZZ_P*%
X42000000Y-60000000D03*
D13*
%TO.P,J5,2*%
%TO.N,GND*%
X44500000Y-60000000D03*
%TD*%
D12*
%TO.P,J4,1*%
%TO.N,BTN_CON*%
X34000000Y-85000000D03*
D13*
%TO.P,J4,2*%
%TO.N,GND*%
X36500000Y-85000000D03*
%TD*%
D14*
%TO.P,J2,1*%
%TO.N,BATT_P*%
X106000000Y-38000000D03*
D15*
%TO.P,J2,2*%
%TO.N,GND*%
X108000000Y-38000000D03*
%TD*%
D16*
%TO.P,SW1,*%
%TO.N,*%
X99900000Y-52000000D03*
X108100000Y-52000000D03*
D17*
%TO.P,SW1,1*%
%TO.N,VBAT_SW*%
X102000000Y-52000000D03*
D18*
%TO.P,SW1,2*%
%TO.N,VBAT*%
X104000000Y-52000000D03*
%TO.P,SW1,3*%
%TO.N,unconnected-(SW1-C-Pad3)*%
X106000000Y-52000000D03*
%TD*%
D19*
%TO.P,U1,19*%
%TO.N,GND*%
X71140000Y-77250000D03*
X71140000Y-76150000D03*
X70590000Y-77800000D03*
X70590000Y-76700000D03*
X70590000Y-75600000D03*
X70040000Y-77250000D03*
X70040000Y-76150000D03*
X69490000Y-77800000D03*
X69490000Y-76700000D03*
X69490000Y-75600000D03*
X68940000Y-77250000D03*
X68940000Y-76150000D03*
%TD*%
D20*
%TO.P,J1,1*%
%TO.N,VBUS*%
X43500000Y-38000000D03*
D21*
%TO.P,J1,2*%
%TO.N,GND*%
X43500000Y-40540000D03*
%TO.P,J1,3*%
%TO.N,USB_DM_CON*%
X43500000Y-43080000D03*
%TO.P,J1,4*%
%TO.N,USB_DP_CON*%
X43500000Y-45620000D03*
%TO.P,J1,5*%
%TO.N,USB_CC1*%
X43500000Y-48160000D03*
%TO.P,J1,6*%
%TO.N,USB_CC2*%
X43500000Y-50700000D03*
%TD*%
D22*
%TO.N,+3V3_MCU*%
X86600000Y-70000000D03*
X86600000Y-68400000D03*
X59200000Y-69400000D03*
X95200000Y-74400000D03*
X90400000Y-82800000D03*
X90000000Y-73600000D03*
X88600000Y-70800000D03*
X88800000Y-82800000D03*
X58000000Y-70600000D03*
X54400000Y-68600000D03*
X95200000Y-78000000D03*
X56400000Y-68600000D03*
%TO.N,BTN*%
X57600000Y-78200000D03*
X59600000Y-77800000D03*
X58400000Y-75000000D03*
%TO.N,BUZZ*%
X55000000Y-61400000D03*
X53800000Y-62600000D03*
%TO.N,BUZZ_P*%
X53000000Y-58400000D03*
X55000000Y-58400000D03*
%TO.N,EN*%
X82400000Y-73000000D03*
X81400000Y-81200000D03*
%TO.N,GND*%
X109400000Y-81400000D03*
X109400000Y-85800000D03*
X105800000Y-84200000D03*
X77600000Y-41200000D03*
X65800000Y-38800000D03*
X51000000Y-50000000D03*
X100800000Y-87400000D03*
X74200000Y-66200000D03*
X50000000Y-66000000D03*
X51800000Y-42200000D03*
X98200000Y-58200000D03*
X99400000Y-43800000D03*
X106200000Y-42200000D03*
X81800000Y-44800000D03*
X70600000Y-41600000D03*
X85800000Y-44800000D03*
X34200000Y-58200000D03*
X57400000Y-81000000D03*
X65800000Y-42200000D03*
X66200000Y-58200000D03*
X74000000Y-35800000D03*
X82200000Y-58200000D03*
X90800000Y-80400000D03*
X70600000Y-40600000D03*
X49400000Y-52600000D03*
X70800000Y-44800000D03*
X114200000Y-50200000D03*
X34200000Y-66200000D03*
X52560000Y-60160000D03*
X55600000Y-76300000D03*
X82200000Y-34200000D03*
X101400000Y-85000000D03*
X45400000Y-40600000D03*
X90200000Y-58200000D03*
X113800000Y-36200000D03*
X50800000Y-46200000D03*
X53800000Y-75800000D03*
X42200000Y-82200000D03*
X89800000Y-41800000D03*
X114200000Y-58200000D03*
X58200000Y-42200000D03*
X59800000Y-58200000D03*
X66200000Y-34200000D03*
X50200000Y-59800000D03*
X74200000Y-34200000D03*
X116600000Y-73400000D03*
X32600000Y-72600000D03*
X74200000Y-58200000D03*
X80000000Y-70600000D03*
X90200000Y-34200000D03*
X71000000Y-40000000D03*
X82800000Y-80400000D03*
X91800000Y-70200000D03*
X101600000Y-81600000D03*
X38800000Y-69800000D03*
X82200000Y-50200000D03*
X106200000Y-58200000D03*
X50200000Y-34200000D03*
X74200000Y-50200000D03*
X49800000Y-81800000D03*
X114200000Y-66200000D03*
X42200000Y-66200000D03*
X98200000Y-34200000D03*
X97400000Y-49400000D03*
X43400000Y-53000000D03*
X61800000Y-38800000D03*
X106200000Y-66200000D03*
X43800000Y-34200000D03*
X98200000Y-66200000D03*
X58200000Y-51800000D03*
X66200000Y-50200000D03*
X57800000Y-71800000D03*
X73400000Y-44600000D03*
X106200000Y-34200000D03*
X66200000Y-66200000D03*
X37800000Y-75800000D03*
X81000000Y-41000000D03*
X50200000Y-74200000D03*
X59800000Y-66200000D03*
X41000000Y-73000000D03*
X58200000Y-34200000D03*
X50800000Y-43800000D03*
X116600000Y-81400000D03*
X81000000Y-65000000D03*
X90200000Y-66200000D03*
X114200000Y-42200000D03*
X105400000Y-49200000D03*
X90200000Y-50200000D03*
%TO.N,LED_CHG*%
X70600000Y-37000000D03*
X70600000Y-39000000D03*
%TO.N,MOSI*%
X102200000Y-77200000D03*
X104200000Y-77200000D03*
%TO.N,OLED_CS*%
X88800000Y-72000000D03*
X102200000Y-71000000D03*
X88800000Y-73600000D03*
X104200000Y-71000000D03*
%TO.N,OLED_DC*%
X104200000Y-72400000D03*
X102200000Y-72400000D03*
%TO.N,OLED_RES*%
X102200000Y-76000000D03*
X104200000Y-76000000D03*
%TO.N,PROG*%
X72400000Y-42200000D03*
X75000000Y-39600000D03*
%TO.N,SCLK*%
X102200000Y-78400000D03*
X104200000Y-78400000D03*
%TO.N,USB_CC1*%
X47200000Y-50000000D03*
X49200000Y-48000000D03*
%TO.N,USB_CC2*%
X46200000Y-50600000D03*
X48800000Y-47000000D03*
%TO.N,USB_DM*%
X59000000Y-76800000D03*
X60400000Y-75600000D03*
%TD*%
%TO.N,+3V3_MCU*%
D23*
X56400000Y-68600000D02*
X54400000Y-68600000D01*
X88800000Y-71000000D02*
X88600000Y-70800000D01*
X88800000Y-82800000D02*
X90400000Y-82800000D01*
X89400000Y-71000000D02*
X88800000Y-71000000D01*
X86600000Y-70000000D02*
X86600000Y-68400000D01*
X95200000Y-78000000D02*
X95200000Y-74400000D01*
X59200000Y-69400000D02*
X58000000Y-70600000D01*
X90000000Y-71600000D02*
X89400000Y-71000000D01*
X90000000Y-73600000D02*
X90000000Y-71600000D01*
%TO.N,BTN*%
D24*
X58600000Y-77800000D02*
X58200000Y-77400000D01*
X58200000Y-77400000D02*
X58200000Y-77600000D01*
X58200000Y-75200000D02*
X58400000Y-75000000D01*
X58200000Y-77600000D02*
X57600000Y-78200000D01*
X59600000Y-77800000D02*
X58600000Y-77800000D01*
X58200000Y-77400000D02*
X58200000Y-75200000D01*
%TO.N,BUZZ*%
X53800000Y-62600000D02*
X55000000Y-61400000D01*
%TO.N,BUZZ_P*%
X53000000Y-58400000D02*
X55000000Y-58400000D01*
%TO.N,EN*%
X81400000Y-81200000D02*
X81400000Y-74000000D01*
X81400000Y-74000000D02*
X82400000Y-73000000D01*
%TO.N,LED_CHG*%
X70600000Y-39000000D02*
X70600000Y-37000000D01*
%TO.N,MOSI*%
X102200000Y-77200000D02*
X104200000Y-77200000D01*
%TO.N,OLED_CS*%
X102200000Y-71000000D02*
X104200000Y-71000000D01*
X88800000Y-73600000D02*
X88800000Y-72000000D01*
%TO.N,OLED_DC*%
X102200000Y-72400000D02*
X104200000Y-72400000D01*
%TO.N,OLED_RES*%
X102200000Y-76000000D02*
X104200000Y-76000000D01*
%TO.N,PROG*%
X75000000Y-39600000D02*
X72400000Y-42200000D01*
%TO.N,SCLK*%
X102200000Y-78400000D02*
X104200000Y-78400000D01*
%TO.N,USB_CC1*%
X47200000Y-50000000D02*
X49200000Y-48000000D01*
%TO.N,USB_CC2*%
X46200000Y-50600000D02*
X46200000Y-49600000D01*
X46200000Y-49600000D02*
X48800000Y-47000000D01*
%TO.N,USB_DM*%
D25*
X60400000Y-75600000D02*
X60200000Y-75600000D01*
X60200000Y-75600000D02*
X59000000Y-76800000D01*
%TD*%
%TA.AperFunction,Conductor*%
%TO.N,GND*%
G36*
X119211857Y-30301561D02*
G01*
X119313223Y-30314906D01*
X119344491Y-30323284D01*
X119434918Y-30360740D01*
X119462952Y-30376925D01*
X119540602Y-30436509D01*
X119563491Y-30459398D01*
X119623074Y-30537048D01*
X119639259Y-30565081D01*
X119676715Y-30655508D01*
X119685093Y-30686775D01*
X119698439Y-30788141D01*
X119699500Y-30804327D01*
X119699500Y-89195671D01*
X119698439Y-89211857D01*
X119685093Y-89313224D01*
X119676715Y-89344491D01*
X119639259Y-89434918D01*
X119623074Y-89462951D01*
X119563491Y-89540601D01*
X119540601Y-89563491D01*
X119462951Y-89623074D01*
X119434918Y-89639259D01*
X119344491Y-89676715D01*
X119313224Y-89685093D01*
X119223822Y-89696863D01*
X119211856Y-89698439D01*
X119195672Y-89699500D01*
X85374000Y-89699500D01*
X85306961Y-89679815D01*
X85261206Y-89627011D01*
X85250000Y-89575500D01*
X85250000Y-85209350D01*
X112750000Y-85209350D01*
X112750000Y-85700000D01*
X113628248Y-85700000D01*
X113619905Y-85708343D01*
X113557370Y-85816657D01*
X113525000Y-85937465D01*
X113525000Y-86062535D01*
X113557370Y-86183343D01*
X113619905Y-86291657D01*
X113628248Y-86300000D01*
X112750000Y-86300000D01*
X112750000Y-86790649D01*
X112752899Y-86827489D01*
X112752900Y-86827495D01*
X112798716Y-86985193D01*
X112798717Y-86985196D01*
X112882314Y-87126552D01*
X112882321Y-87126561D01*
X112998438Y-87242678D01*
X112998447Y-87242685D01*
X113139803Y-87326282D01*
X113139806Y-87326283D01*
X113297504Y-87372099D01*
X113297510Y-87372100D01*
X113334350Y-87374999D01*
X113334366Y-87375000D01*
X113700000Y-87375000D01*
X113700000Y-86371752D01*
X113708343Y-86380095D01*
X113816657Y-86442630D01*
X113937465Y-86475000D01*
X114062535Y-86475000D01*
X114183343Y-86442630D01*
X114291657Y-86380095D01*
X114300000Y-86371752D01*
X114300000Y-87375000D01*
X114665634Y-87375000D01*
X114665649Y-87374999D01*
X114702489Y-87372100D01*
X114702495Y-87372099D01*
X114860193Y-87326283D01*
X114860196Y-87326282D01*
X115001552Y-87242685D01*
X115001561Y-87242678D01*
X115117678Y-87126561D01*
X115117685Y-87126552D01*
X115201282Y-86985196D01*
X115201283Y-86985193D01*
X115247099Y-86827495D01*
X115247100Y-86827489D01*
X115249999Y-86790649D01*
X115250000Y-86790634D01*
X115250000Y-86300000D01*
X114371752Y-86300000D01*
X114380095Y-86291657D01*
X114442630Y-86183343D01*
X114475000Y-86062535D01*
X114475000Y-85937465D01*
X114442630Y-85816657D01*
X114380095Y-85708343D01*
X114371752Y-85700000D01*
X115250000Y-85700000D01*
X115250000Y-85209365D01*
X115249999Y-85209350D01*
X115247100Y-85172510D01*
X115247099Y-85172504D01*
X115201283Y-85014806D01*
X115201282Y-85014803D01*
X115117685Y-84873447D01*
X115117678Y-84873438D01*
X115001561Y-84757321D01*
X115001552Y-84757314D01*
X114860196Y-84673717D01*
X114843134Y-84668760D01*
X114784249Y-84631153D01*
X114755044Y-84567680D01*
X114764791Y-84498493D01*
X114790045Y-84462008D01*
X114877553Y-84374501D01*
X114983996Y-84227994D01*
X115066211Y-84066639D01*
X115122171Y-83894409D01*
X115136765Y-83802259D01*
X115150500Y-83715551D01*
X115150500Y-83284448D01*
X115134019Y-83180397D01*
X115122171Y-83105591D01*
X115094191Y-83019476D01*
X115066212Y-82933363D01*
X115066211Y-82933360D01*
X115033414Y-82868993D01*
X114983996Y-82772006D01*
X114954209Y-82731007D01*
X114877558Y-82625505D01*
X114877554Y-82625500D01*
X114749499Y-82497445D01*
X114749494Y-82497441D01*
X114602997Y-82391006D01*
X114602996Y-82391005D01*
X114602994Y-82391004D01*
X114543096Y-82360484D01*
X114492301Y-82312510D01*
X114475506Y-82244689D01*
X114498043Y-82178554D01*
X114543097Y-82139515D01*
X114602994Y-82108996D01*
X114749501Y-82002553D01*
X114877553Y-81874501D01*
X114983996Y-81727994D01*
X115066211Y-81566639D01*
X115122171Y-81394409D01*
X115142035Y-81268993D01*
X115150500Y-81215551D01*
X115150500Y-80784448D01*
X115127910Y-80641826D01*
X115122171Y-80605591D01*
X115066211Y-80433361D01*
X115066211Y-80433360D01*
X115037740Y-80377484D01*
X114983996Y-80272006D01*
X114970396Y-80253287D01*
X114877558Y-80125505D01*
X114877554Y-80125500D01*
X114749499Y-79997445D01*
X114749494Y-79997441D01*
X114602997Y-79891006D01*
X114602996Y-79891005D01*
X114602994Y-79891004D01*
X114543096Y-79860484D01*
X114492301Y-79812510D01*
X114475506Y-79744689D01*
X114498043Y-79678554D01*
X114543097Y-79639515D01*
X114602994Y-79608996D01*
X114749501Y-79502553D01*
X114877553Y-79374501D01*
X114983996Y-79227994D01*
X115066211Y-79066639D01*
X115122171Y-78894409D01*
X115136765Y-78802259D01*
X115150500Y-78715551D01*
X115150500Y-78284448D01*
X115134019Y-78180397D01*
X115122171Y-78105591D01*
X115094191Y-78019476D01*
X115066212Y-77933363D01*
X115066211Y-77933360D01*
X115026735Y-77855886D01*
X114983996Y-77772006D01*
X114954209Y-77731007D01*
X114877558Y-77625505D01*
X114877554Y-77625500D01*
X114749499Y-77497445D01*
X114749494Y-77497441D01*
X114602997Y-77391006D01*
X114602996Y-77391005D01*
X114602994Y-77391004D01*
X114543096Y-77360484D01*
X114492301Y-77312510D01*
X114475506Y-77244689D01*
X114498043Y-77178554D01*
X114543097Y-77139515D01*
X114602994Y-77108996D01*
X114749501Y-77002553D01*
X114877553Y-76874501D01*
X114983996Y-76727994D01*
X115066211Y-76566639D01*
X115122171Y-76394409D01*
X115141308Y-76273581D01*
X115150500Y-76215551D01*
X115150500Y-75784448D01*
X115132086Y-75668195D01*
X115122171Y-75605591D01*
X115078645Y-75471630D01*
X115066212Y-75433363D01*
X115066211Y-75433360D01*
X115014468Y-75331811D01*
X114983996Y-75272006D01*
X114934828Y-75204332D01*
X114877558Y-75125505D01*
X114877554Y-75125500D01*
X114749499Y-74997445D01*
X114749494Y-74997441D01*
X114602997Y-74891006D01*
X114602996Y-74891005D01*
X114602994Y-74891004D01*
X114543096Y-74860484D01*
X114492301Y-74812510D01*
X114475506Y-74744689D01*
X114498043Y-74678554D01*
X114543097Y-74639515D01*
X114602994Y-74608996D01*
X114749501Y-74502553D01*
X114877553Y-74374501D01*
X114983996Y-74227994D01*
X115066211Y-74066639D01*
X115122171Y-73894409D01*
X115140415Y-73779221D01*
X115150500Y-73715551D01*
X115150500Y-73284448D01*
X115129752Y-73153458D01*
X115122171Y-73105591D01*
X115066211Y-72933361D01*
X115066211Y-72933360D01*
X115029758Y-72861819D01*
X114983996Y-72772006D01*
X114954788Y-72731804D01*
X114877558Y-72625505D01*
X114877554Y-72625500D01*
X114749499Y-72497445D01*
X114749494Y-72497441D01*
X114602997Y-72391006D01*
X114602996Y-72391005D01*
X114602994Y-72391004D01*
X114543096Y-72360484D01*
X114492301Y-72312510D01*
X114475506Y-72244689D01*
X114498043Y-72178554D01*
X114543097Y-72139515D01*
X114602994Y-72108996D01*
X114749501Y-72002553D01*
X114877553Y-71874501D01*
X114983996Y-71727994D01*
X115066211Y-71566639D01*
X115122171Y-71394409D01*
X115141308Y-71273581D01*
X115150500Y-71215551D01*
X115150500Y-70784448D01*
X115133998Y-70680267D01*
X115122171Y-70605591D01*
X115076943Y-70466391D01*
X115066212Y-70433363D01*
X115066211Y-70433360D01*
X115014468Y-70331811D01*
X114983996Y-70272006D01*
X114934828Y-70204332D01*
X114877558Y-70125505D01*
X114877554Y-70125500D01*
X114749499Y-69997445D01*
X114749494Y-69997441D01*
X114602997Y-69891006D01*
X114602996Y-69891005D01*
X114602994Y-69891004D01*
X114515739Y-69846545D01*
X114441639Y-69808788D01*
X114441636Y-69808787D01*
X114269410Y-69752829D01*
X114090551Y-69724500D01*
X114090546Y-69724500D01*
X113909454Y-69724500D01*
X113909449Y-69724500D01*
X113730589Y-69752829D01*
X113558363Y-69808787D01*
X113558360Y-69808788D01*
X113397002Y-69891006D01*
X113250505Y-69997441D01*
X113250500Y-69997445D01*
X113122445Y-70125500D01*
X113122441Y-70125505D01*
X113016006Y-70272002D01*
X112933788Y-70433360D01*
X112933787Y-70433363D01*
X112877829Y-70605589D01*
X112849500Y-70784448D01*
X112849500Y-71215551D01*
X112877829Y-71394410D01*
X112933787Y-71566636D01*
X112933788Y-71566639D01*
X112989664Y-71676300D01*
X113011847Y-71719836D01*
X113016006Y-71727997D01*
X113122441Y-71874494D01*
X113122445Y-71874499D01*
X113250500Y-72002554D01*
X113250505Y-72002558D01*
X113397004Y-72108995D01*
X113456903Y-72139516D01*
X113507698Y-72187490D01*
X113524493Y-72255311D01*
X113501955Y-72321446D01*
X113456903Y-72360484D01*
X113397004Y-72391004D01*
X113250505Y-72497441D01*
X113250500Y-72497445D01*
X113122445Y-72625500D01*
X113122441Y-72625505D01*
X113016006Y-72772002D01*
X112933788Y-72933360D01*
X112933787Y-72933363D01*
X112877829Y-73105589D01*
X112849500Y-73284448D01*
X112849500Y-73715551D01*
X112877829Y-73894410D01*
X112933787Y-74066636D01*
X112933788Y-74066639D01*
X112989638Y-74176248D01*
X113012327Y-74220778D01*
X113016006Y-74227997D01*
X113122441Y-74374494D01*
X113122445Y-74374499D01*
X113250500Y-74502554D01*
X113250505Y-74502558D01*
X113397004Y-74608995D01*
X113456903Y-74639516D01*
X113507698Y-74687490D01*
X113524493Y-74755311D01*
X113501955Y-74821446D01*
X113456903Y-74860484D01*
X113397004Y-74891004D01*
X113250505Y-74997441D01*
X113250500Y-74997445D01*
X113122445Y-75125500D01*
X113122441Y-75125505D01*
X113016006Y-75272002D01*
X112933788Y-75433360D01*
X112933787Y-75433363D01*
X112877829Y-75605589D01*
X112849500Y-75784448D01*
X112849500Y-76215551D01*
X112877829Y-76394410D01*
X112933787Y-76566636D01*
X112933788Y-76566639D01*
X112972867Y-76643334D01*
X113012402Y-76720925D01*
X113016006Y-76727997D01*
X113122441Y-76874494D01*
X113122445Y-76874499D01*
X113250500Y-77002554D01*
X113250505Y-77002558D01*
X113397004Y-77108995D01*
X113456903Y-77139516D01*
X113507698Y-77187490D01*
X113524493Y-77255311D01*
X113501955Y-77321446D01*
X113456903Y-77360484D01*
X113397004Y-77391004D01*
X113250505Y-77497441D01*
X113250500Y-77497445D01*
X113122445Y-77625500D01*
X113122441Y-77625505D01*
X113016006Y-77772002D01*
X112933788Y-77933360D01*
X112933787Y-77933363D01*
X112877829Y-78105589D01*
X112849500Y-78284448D01*
X112849500Y-78715551D01*
X112877829Y-78894410D01*
X112933787Y-79066636D01*
X112933788Y-79066639D01*
X113016006Y-79227997D01*
X113122441Y-79374494D01*
X113122445Y-79374499D01*
X113250500Y-79502554D01*
X113250505Y-79502558D01*
X113397004Y-79608995D01*
X113456903Y-79639516D01*
X113507698Y-79687490D01*
X113524493Y-79755311D01*
X113501955Y-79821446D01*
X113456903Y-79860484D01*
X113397004Y-79891004D01*
X113250505Y-79997441D01*
X113250500Y-79997445D01*
X113122445Y-80125500D01*
X113122441Y-80125505D01*
X113016006Y-80272002D01*
X112933788Y-80433360D01*
X112933787Y-80433363D01*
X112877829Y-80605589D01*
X112849500Y-80784448D01*
X112849500Y-81215551D01*
X112877829Y-81394410D01*
X112933787Y-81566636D01*
X112933788Y-81566639D01*
X113016006Y-81727997D01*
X113122441Y-81874494D01*
X113122445Y-81874499D01*
X113250500Y-82002554D01*
X113250505Y-82002558D01*
X113397004Y-82108995D01*
X113456903Y-82139516D01*
X113507698Y-82187490D01*
X113524493Y-82255311D01*
X113501955Y-82321446D01*
X113456903Y-82360484D01*
X113397004Y-82391004D01*
X113250505Y-82497441D01*
X113250500Y-82497445D01*
X113122445Y-82625500D01*
X113122441Y-82625505D01*
X113016006Y-82772002D01*
X112933788Y-82933360D01*
X112933787Y-82933363D01*
X112877829Y-83105589D01*
X112849500Y-83284448D01*
X112849500Y-83715551D01*
X112877829Y-83894410D01*
X112933787Y-84066636D01*
X112933788Y-84066639D01*
X113016006Y-84227997D01*
X113122441Y-84374494D01*
X113122445Y-84374499D01*
X113209949Y-84462003D01*
X113243434Y-84523326D01*
X113238450Y-84593018D01*
X113196578Y-84648951D01*
X113156866Y-84668760D01*
X113139802Y-84673717D01*
X112998447Y-84757314D01*
X112998438Y-84757321D01*
X112882321Y-84873438D01*
X112882314Y-84873447D01*
X112798717Y-85014803D01*
X112798716Y-85014806D01*
X112752900Y-85172504D01*
X112752899Y-85172510D01*
X112750000Y-85209350D01*
X85250000Y-85209350D01*
X85250000Y-83750000D01*
X56750000Y-83750000D01*
X56750000Y-89575500D01*
X56730315Y-89642539D01*
X56677511Y-89688294D01*
X56626000Y-89699500D01*
X30804328Y-89699500D01*
X30788143Y-89698439D01*
X30774424Y-89696632D01*
X30686775Y-89685093D01*
X30655508Y-89676715D01*
X30565081Y-89639259D01*
X30537048Y-89623074D01*
X30484973Y-89583115D01*
X30459397Y-89563490D01*
X30436508Y-89540601D01*
X30376925Y-89462951D01*
X30360740Y-89434918D01*
X30323284Y-89344491D01*
X30314906Y-89313223D01*
X30301561Y-89211856D01*
X30300500Y-89195671D01*
X30300500Y-84206898D01*
X32849500Y-84206898D01*
X32849500Y-85793102D01*
X32850946Y-85805141D01*
X32860122Y-85881561D01*
X32915639Y-86022343D01*
X33007077Y-86142922D01*
X33127656Y-86234360D01*
X33127657Y-86234360D01*
X33127658Y-86234361D01*
X33268436Y-86289877D01*
X33356898Y-86300500D01*
X33356903Y-86300500D01*
X34643097Y-86300500D01*
X34643102Y-86300500D01*
X34731564Y-86289877D01*
X34872342Y-86234361D01*
X34992922Y-86142922D01*
X35084361Y-86022342D01*
X35139877Y-85881564D01*
X35150500Y-85793102D01*
X35150500Y-85771315D01*
X35170185Y-85704276D01*
X35222989Y-85658521D01*
X35292147Y-85648577D01*
X35355703Y-85677602D01*
X35384985Y-85715021D01*
X35430902Y-85805141D01*
X35546555Y-85964321D01*
X35685678Y-86103444D01*
X35844858Y-86219097D01*
X36020167Y-86308420D01*
X36199999Y-86366850D01*
X36200000Y-86366850D01*
X36200000Y-85404144D01*
X36307007Y-85465925D01*
X36434174Y-85500000D01*
X36565826Y-85500000D01*
X36692993Y-85465925D01*
X36800000Y-85404144D01*
X36800000Y-86366850D01*
X36979832Y-86308420D01*
X37155141Y-86219097D01*
X37314321Y-86103444D01*
X37453444Y-85964321D01*
X37569095Y-85805143D01*
X37658418Y-85629835D01*
X37719221Y-85442705D01*
X37741824Y-85300000D01*
X36904144Y-85300000D01*
X36965925Y-85192993D01*
X37000000Y-85065826D01*
X37000000Y-84934174D01*
X36965925Y-84807007D01*
X36904144Y-84700000D01*
X37741824Y-84700000D01*
X37719221Y-84557294D01*
X37658418Y-84370164D01*
X37569095Y-84194856D01*
X37453444Y-84035678D01*
X37314321Y-83896555D01*
X37155143Y-83780904D01*
X36979837Y-83691582D01*
X36800000Y-83633148D01*
X36800000Y-84595855D01*
X36692993Y-84534075D01*
X36565826Y-84500000D01*
X36434174Y-84500000D01*
X36307007Y-84534075D01*
X36200000Y-84595855D01*
X36200000Y-83633148D01*
X36020162Y-83691582D01*
X35844856Y-83780904D01*
X35685678Y-83896555D01*
X35546555Y-84035678D01*
X35430904Y-84194856D01*
X35384985Y-84284979D01*
X35337011Y-84335775D01*
X35269190Y-84352570D01*
X35203055Y-84330033D01*
X35159603Y-84275318D01*
X35150500Y-84228684D01*
X35150500Y-84206903D01*
X35150500Y-84206898D01*
X35139877Y-84118436D01*
X35084361Y-83977658D01*
X35084360Y-83977657D01*
X35084360Y-83977656D01*
X34992922Y-83857077D01*
X34872343Y-83765639D01*
X34745328Y-83715551D01*
X34731564Y-83710123D01*
X34731563Y-83710122D01*
X34731561Y-83710122D01*
X34685926Y-83704642D01*
X34643102Y-83699500D01*
X33356898Y-83699500D01*
X33317853Y-83704188D01*
X33268438Y-83710122D01*
X33127656Y-83765639D01*
X33007077Y-83857077D01*
X32915639Y-83977656D01*
X32860122Y-84118438D01*
X32854188Y-84167853D01*
X32849500Y-84206898D01*
X30300500Y-84206898D01*
X30300500Y-82868995D01*
X88099499Y-82868995D01*
X88126418Y-83004322D01*
X88126421Y-83004332D01*
X88179221Y-83131804D01*
X88179228Y-83131817D01*
X88255885Y-83246541D01*
X88255888Y-83246545D01*
X88353454Y-83344111D01*
X88353458Y-83344114D01*
X88468182Y-83420771D01*
X88468195Y-83420778D01*
X88595667Y-83473578D01*
X88595672Y-83473580D01*
X88595676Y-83473580D01*
X88595677Y-83473581D01*
X88731004Y-83500500D01*
X88731007Y-83500500D01*
X88868995Y-83500500D01*
X88960041Y-83482389D01*
X89004328Y-83473580D01*
X89131811Y-83420775D01*
X89205709Y-83371398D01*
X89272386Y-83350520D01*
X89274600Y-83350500D01*
X89925400Y-83350500D01*
X89992439Y-83370185D01*
X89994291Y-83371398D01*
X90068189Y-83420775D01*
X90068191Y-83420776D01*
X90068195Y-83420778D01*
X90195667Y-83473578D01*
X90195672Y-83473580D01*
X90195676Y-83473580D01*
X90195677Y-83473581D01*
X90331004Y-83500500D01*
X90331007Y-83500500D01*
X90468995Y-83500500D01*
X90560041Y-83482389D01*
X90604328Y-83473580D01*
X90731811Y-83420775D01*
X90846542Y-83344114D01*
X90944114Y-83246542D01*
X91020775Y-83131811D01*
X91073580Y-83004328D01*
X91100500Y-82868993D01*
X91100500Y-82731007D01*
X91100500Y-82731004D01*
X91073581Y-82595677D01*
X91073580Y-82595676D01*
X91073580Y-82595672D01*
X91032894Y-82497447D01*
X91020778Y-82468195D01*
X91020771Y-82468182D01*
X90944114Y-82353458D01*
X90944111Y-82353454D01*
X90846545Y-82255888D01*
X90846541Y-82255885D01*
X90731817Y-82179228D01*
X90731804Y-82179221D01*
X90604332Y-82126421D01*
X90604322Y-82126418D01*
X90468995Y-82099500D01*
X90468993Y-82099500D01*
X90331007Y-82099500D01*
X90331005Y-82099500D01*
X90195677Y-82126418D01*
X90195667Y-82126421D01*
X90068195Y-82179221D01*
X90068183Y-82179228D01*
X89994291Y-82228602D01*
X89927614Y-82249480D01*
X89925400Y-82249500D01*
X89274600Y-82249500D01*
X89207561Y-82229815D01*
X89205709Y-82228602D01*
X89131816Y-82179228D01*
X89131804Y-82179221D01*
X89004332Y-82126421D01*
X89004322Y-82126418D01*
X88868995Y-82099500D01*
X88868993Y-82099500D01*
X88731007Y-82099500D01*
X88731005Y-82099500D01*
X88595677Y-82126418D01*
X88595667Y-82126421D01*
X88468195Y-82179221D01*
X88468182Y-82179228D01*
X88353458Y-82255885D01*
X88353454Y-82255888D01*
X88255888Y-82353454D01*
X88255885Y-82353458D01*
X88179228Y-82468182D01*
X88179221Y-82468195D01*
X88126421Y-82595667D01*
X88126418Y-82595677D01*
X88099500Y-82731004D01*
X88099500Y-82731007D01*
X88099500Y-82868993D01*
X88099500Y-82868995D01*
X88099499Y-82868995D01*
X30300500Y-82868995D01*
X30300500Y-81268995D01*
X80699499Y-81268995D01*
X80726418Y-81404322D01*
X80726421Y-81404332D01*
X80779221Y-81531804D01*
X80779228Y-81531817D01*
X80855885Y-81646541D01*
X80855888Y-81646545D01*
X80953454Y-81744111D01*
X80953458Y-81744114D01*
X81068182Y-81820771D01*
X81068195Y-81820778D01*
X81195667Y-81873578D01*
X81195672Y-81873580D01*
X81195676Y-81873580D01*
X81195677Y-81873581D01*
X81331004Y-81900500D01*
X81331007Y-81900500D01*
X81468995Y-81900500D01*
X81560041Y-81882389D01*
X81604328Y-81873580D01*
X81731811Y-81820775D01*
X81846542Y-81744114D01*
X81944114Y-81646542D01*
X82020775Y-81531811D01*
X82073580Y-81404328D01*
X82100500Y-81268993D01*
X82100500Y-81131007D01*
X82100500Y-81131004D01*
X82073581Y-80995677D01*
X82073580Y-80995676D01*
X82073580Y-80995672D01*
X82073578Y-80995667D01*
X82020778Y-80868195D01*
X82020771Y-80868182D01*
X81944114Y-80753458D01*
X81944111Y-80753454D01*
X81861819Y-80671162D01*
X81828334Y-80609839D01*
X81825500Y-80583481D01*
X81825500Y-74468995D01*
X94499499Y-74468995D01*
X94526418Y-74604322D01*
X94526421Y-74604332D01*
X94579222Y-74731806D01*
X94579223Y-74731807D01*
X94579225Y-74731811D01*
X94628602Y-74805708D01*
X94649480Y-74872385D01*
X94649500Y-74874599D01*
X94649500Y-77525399D01*
X94629815Y-77592438D01*
X94628602Y-77594290D01*
X94579228Y-77668182D01*
X94579221Y-77668195D01*
X94526421Y-77795667D01*
X94526418Y-77795677D01*
X94499500Y-77931004D01*
X94499500Y-77931007D01*
X94499500Y-78068993D01*
X94499500Y-78068995D01*
X94499499Y-78068995D01*
X94526418Y-78204322D01*
X94526421Y-78204332D01*
X94579221Y-78331804D01*
X94579228Y-78331817D01*
X94655885Y-78446541D01*
X94655888Y-78446545D01*
X94753454Y-78544111D01*
X94753458Y-78544114D01*
X94868182Y-78620771D01*
X94868195Y-78620778D01*
X94995667Y-78673578D01*
X94995672Y-78673580D01*
X94995676Y-78673580D01*
X94995677Y-78673581D01*
X95131004Y-78700500D01*
X95131007Y-78700500D01*
X95268995Y-78700500D01*
X95360041Y-78682389D01*
X95404328Y-78673580D01*
X95531811Y-78620775D01*
X95646542Y-78544114D01*
X95744114Y-78446542D01*
X95820775Y-78331811D01*
X95873580Y-78204328D01*
X95886279Y-78140485D01*
X95900500Y-78068995D01*
X95900500Y-77931004D01*
X95873581Y-77795677D01*
X95873580Y-77795676D01*
X95873580Y-77795672D01*
X95857423Y-77756666D01*
X95820778Y-77668195D01*
X95820771Y-77668182D01*
X95771398Y-77594290D01*
X95750520Y-77527612D01*
X95750500Y-77525399D01*
X95750500Y-76068995D01*
X101499499Y-76068995D01*
X101526418Y-76204322D01*
X101526421Y-76204332D01*
X101579221Y-76331804D01*
X101579228Y-76331817D01*
X101655885Y-76446541D01*
X101655888Y-76446545D01*
X101721662Y-76512319D01*
X101755147Y-76573642D01*
X101750163Y-76643334D01*
X101721662Y-76687681D01*
X101655888Y-76753454D01*
X101655885Y-76753458D01*
X101579228Y-76868182D01*
X101579221Y-76868195D01*
X101526421Y-76995667D01*
X101526418Y-76995677D01*
X101499500Y-77131004D01*
X101499500Y-77131007D01*
X101499500Y-77268993D01*
X101499500Y-77268995D01*
X101499499Y-77268995D01*
X101526418Y-77404322D01*
X101526421Y-77404332D01*
X101579221Y-77531804D01*
X101579228Y-77531817D01*
X101655885Y-77646541D01*
X101655888Y-77646545D01*
X101721662Y-77712319D01*
X101755147Y-77773642D01*
X101750163Y-77843334D01*
X101721662Y-77887681D01*
X101655888Y-77953454D01*
X101655885Y-77953458D01*
X101579228Y-78068182D01*
X101579221Y-78068195D01*
X101526421Y-78195667D01*
X101526418Y-78195677D01*
X101499500Y-78331004D01*
X101499500Y-78331007D01*
X101499500Y-78468993D01*
X101499500Y-78468995D01*
X101499499Y-78468995D01*
X101526418Y-78604322D01*
X101526421Y-78604332D01*
X101579221Y-78731804D01*
X101579228Y-78731817D01*
X101655885Y-78846541D01*
X101655888Y-78846545D01*
X101753454Y-78944111D01*
X101753458Y-78944114D01*
X101868182Y-79020771D01*
X101868195Y-79020778D01*
X101978915Y-79066639D01*
X101995672Y-79073580D01*
X101995676Y-79073580D01*
X101995677Y-79073581D01*
X102131004Y-79100500D01*
X102131007Y-79100500D01*
X102268995Y-79100500D01*
X102360041Y-79082389D01*
X102404328Y-79073580D01*
X102531811Y-79020775D01*
X102646542Y-78944114D01*
X102646545Y-78944111D01*
X102728838Y-78861819D01*
X102790161Y-78828334D01*
X102816519Y-78825500D01*
X103583481Y-78825500D01*
X103650520Y-78845185D01*
X103671162Y-78861819D01*
X103753454Y-78944111D01*
X103753458Y-78944114D01*
X103868182Y-79020771D01*
X103868195Y-79020778D01*
X103978915Y-79066639D01*
X103995672Y-79073580D01*
X103995676Y-79073580D01*
X103995677Y-79073581D01*
X104131004Y-79100500D01*
X104131007Y-79100500D01*
X104268995Y-79100500D01*
X104360041Y-79082389D01*
X104404328Y-79073580D01*
X104531811Y-79020775D01*
X104646542Y-78944114D01*
X104744114Y-78846542D01*
X104820775Y-78731811D01*
X104873580Y-78604328D01*
X104885558Y-78544111D01*
X104900500Y-78468995D01*
X104900500Y-78331004D01*
X104873581Y-78195677D01*
X104873580Y-78195676D01*
X104873580Y-78195672D01*
X104850721Y-78140485D01*
X104820778Y-78068195D01*
X104820771Y-78068182D01*
X104744114Y-77953458D01*
X104744111Y-77953454D01*
X104678338Y-77887681D01*
X104644853Y-77826358D01*
X104649837Y-77756666D01*
X104678338Y-77712319D01*
X104744111Y-77646545D01*
X104744114Y-77646542D01*
X104820775Y-77531811D01*
X104873580Y-77404328D01*
X104885584Y-77343982D01*
X104900500Y-77268995D01*
X104900500Y-77131004D01*
X104873581Y-76995677D01*
X104873580Y-76995676D01*
X104873580Y-76995672D01*
X104821109Y-76868995D01*
X104820778Y-76868195D01*
X104820771Y-76868182D01*
X104744114Y-76753458D01*
X104744111Y-76753454D01*
X104678338Y-76687681D01*
X104644853Y-76626358D01*
X104649837Y-76556666D01*
X104678338Y-76512319D01*
X104744111Y-76446545D01*
X104744114Y-76446542D01*
X104820775Y-76331811D01*
X104873580Y-76204328D01*
X104889077Y-76126420D01*
X104900500Y-76068995D01*
X104900500Y-75931004D01*
X104873581Y-75795677D01*
X104873580Y-75795676D01*
X104873580Y-75795672D01*
X104837189Y-75707816D01*
X104820778Y-75668195D01*
X104820771Y-75668182D01*
X104744114Y-75553458D01*
X104744111Y-75553454D01*
X104646545Y-75455888D01*
X104646541Y-75455885D01*
X104531817Y-75379228D01*
X104531804Y-75379221D01*
X104404332Y-75326421D01*
X104404322Y-75326418D01*
X104268995Y-75299500D01*
X104268993Y-75299500D01*
X104131007Y-75299500D01*
X104131005Y-75299500D01*
X103995677Y-75326418D01*
X103995667Y-75326421D01*
X103868195Y-75379221D01*
X103868182Y-75379228D01*
X103753458Y-75455885D01*
X103753454Y-75455888D01*
X103671162Y-75538181D01*
X103609839Y-75571666D01*
X103583481Y-75574500D01*
X102816519Y-75574500D01*
X102749480Y-75554815D01*
X102728838Y-75538181D01*
X102646545Y-75455888D01*
X102646541Y-75455885D01*
X102531817Y-75379228D01*
X102531804Y-75379221D01*
X102404332Y-75326421D01*
X102404322Y-75326418D01*
X102268995Y-75299500D01*
X102268993Y-75299500D01*
X102131007Y-75299500D01*
X102131005Y-75299500D01*
X101995677Y-75326418D01*
X101995667Y-75326421D01*
X101868195Y-75379221D01*
X101868182Y-75379228D01*
X101753458Y-75455885D01*
X101753454Y-75455888D01*
X101655888Y-75553454D01*
X101655885Y-75553458D01*
X101579228Y-75668182D01*
X101579221Y-75668195D01*
X101526421Y-75795667D01*
X101526418Y-75795677D01*
X101499500Y-75931004D01*
X101499500Y-75931007D01*
X101499500Y-76068993D01*
X101499500Y-76068995D01*
X101499499Y-76068995D01*
X95750500Y-76068995D01*
X95750500Y-74874599D01*
X95770185Y-74807560D01*
X95771398Y-74805708D01*
X95820775Y-74731811D01*
X95873580Y-74604328D01*
X95883700Y-74553454D01*
X95900500Y-74468995D01*
X95900500Y-74331004D01*
X95873581Y-74195677D01*
X95873580Y-74195676D01*
X95873580Y-74195672D01*
X95865534Y-74176248D01*
X95820778Y-74068195D01*
X95820771Y-74068182D01*
X95744114Y-73953458D01*
X95744111Y-73953454D01*
X95646545Y-73855888D01*
X95646541Y-73855885D01*
X95531817Y-73779228D01*
X95531804Y-73779221D01*
X95404332Y-73726421D01*
X95404322Y-73726418D01*
X95268995Y-73699500D01*
X95268993Y-73699500D01*
X95131007Y-73699500D01*
X95131005Y-73699500D01*
X94995677Y-73726418D01*
X94995667Y-73726421D01*
X94868195Y-73779221D01*
X94868182Y-73779228D01*
X94753458Y-73855885D01*
X94753454Y-73855888D01*
X94655888Y-73953454D01*
X94655885Y-73953458D01*
X94579228Y-74068182D01*
X94579221Y-74068195D01*
X94526421Y-74195667D01*
X94526418Y-74195677D01*
X94499500Y-74331004D01*
X94499500Y-74331007D01*
X94499500Y-74468993D01*
X94499500Y-74468995D01*
X94499499Y-74468995D01*
X81825500Y-74468995D01*
X81825500Y-74227609D01*
X81845185Y-74160570D01*
X81861815Y-74139932D01*
X82264928Y-73736818D01*
X82326251Y-73703334D01*
X82352609Y-73700500D01*
X82468995Y-73700500D01*
X82560041Y-73682389D01*
X82604328Y-73673580D01*
X82731811Y-73620775D01*
X82846542Y-73544114D01*
X82944114Y-73446542D01*
X83020775Y-73331811D01*
X83073580Y-73204328D01*
X83089280Y-73125399D01*
X83100500Y-73068995D01*
X83100500Y-72931004D01*
X83073581Y-72795677D01*
X83073580Y-72795676D01*
X83073580Y-72795672D01*
X83063776Y-72772002D01*
X83020778Y-72668195D01*
X83020771Y-72668182D01*
X82944114Y-72553458D01*
X82944111Y-72553454D01*
X82846545Y-72455888D01*
X82846541Y-72455885D01*
X82731817Y-72379228D01*
X82731804Y-72379221D01*
X82604332Y-72326421D01*
X82604322Y-72326418D01*
X82468995Y-72299500D01*
X82468993Y-72299500D01*
X82331007Y-72299500D01*
X82331005Y-72299500D01*
X82195677Y-72326418D01*
X82195667Y-72326421D01*
X82068195Y-72379221D01*
X82068182Y-72379228D01*
X81953458Y-72455885D01*
X81953454Y-72455888D01*
X81855888Y-72553454D01*
X81855885Y-72553458D01*
X81779228Y-72668182D01*
X81779221Y-72668195D01*
X81726421Y-72795667D01*
X81726418Y-72795677D01*
X81699500Y-72931004D01*
X81699500Y-73047389D01*
X81679815Y-73114428D01*
X81663181Y-73135070D01*
X81138737Y-73659515D01*
X81059517Y-73738734D01*
X81059513Y-73738740D01*
X81003498Y-73835760D01*
X81003497Y-73835763D01*
X80974500Y-73943982D01*
X80974500Y-80583481D01*
X80954815Y-80650520D01*
X80938181Y-80671162D01*
X80855888Y-80753454D01*
X80855885Y-80753458D01*
X80779228Y-80868182D01*
X80779221Y-80868195D01*
X80726421Y-80995667D01*
X80726418Y-80995677D01*
X80699500Y-81131004D01*
X80699500Y-81131007D01*
X80699500Y-81268993D01*
X80699500Y-81268995D01*
X80699499Y-81268995D01*
X30300500Y-81268995D01*
X30300500Y-78268995D01*
X56899499Y-78268995D01*
X56926418Y-78404322D01*
X56926421Y-78404332D01*
X56979221Y-78531804D01*
X56979228Y-78531817D01*
X57055885Y-78646541D01*
X57055888Y-78646545D01*
X57153454Y-78744111D01*
X57153458Y-78744114D01*
X57268182Y-78820771D01*
X57268195Y-78820778D01*
X57367278Y-78861819D01*
X57395672Y-78873580D01*
X57395676Y-78873580D01*
X57395677Y-78873581D01*
X57531004Y-78900500D01*
X57531007Y-78900500D01*
X57668995Y-78900500D01*
X57760041Y-78882389D01*
X57804328Y-78873580D01*
X57931811Y-78820775D01*
X58046542Y-78744114D01*
X58144114Y-78646542D01*
X58220775Y-78531811D01*
X58273580Y-78404328D01*
X58295206Y-78295606D01*
X58327589Y-78233700D01*
X58388305Y-78199126D01*
X58448914Y-78200026D01*
X58543981Y-78225500D01*
X58543982Y-78225500D01*
X58983481Y-78225500D01*
X59050520Y-78245185D01*
X59071162Y-78261819D01*
X59153454Y-78344111D01*
X59153458Y-78344114D01*
X59268182Y-78420771D01*
X59268195Y-78420778D01*
X59384598Y-78468993D01*
X59395672Y-78473580D01*
X59395676Y-78473580D01*
X59395677Y-78473581D01*
X59531004Y-78500500D01*
X59531007Y-78500500D01*
X59668995Y-78500500D01*
X59760041Y-78482389D01*
X59804328Y-78473580D01*
X59931811Y-78420775D01*
X60046542Y-78344114D01*
X60144114Y-78246542D01*
X60220775Y-78131811D01*
X60273580Y-78004328D01*
X60300500Y-77868993D01*
X60300500Y-77731007D01*
X60300500Y-77731004D01*
X60273581Y-77595677D01*
X60273580Y-77595676D01*
X60273580Y-77595672D01*
X60273008Y-77594290D01*
X60220778Y-77468195D01*
X60220771Y-77468182D01*
X60144114Y-77353458D01*
X60144111Y-77353454D01*
X60046545Y-77255888D01*
X60046541Y-77255885D01*
X59931817Y-77179228D01*
X59931804Y-77179221D01*
X59804332Y-77126421D01*
X59804322Y-77126418D01*
X59776811Y-77120946D01*
X59714900Y-77088561D01*
X59680326Y-77027845D01*
X59679386Y-76975137D01*
X59700500Y-76868995D01*
X59700500Y-76787964D01*
X59720185Y-76720925D01*
X59736815Y-76700287D01*
X60121989Y-76315112D01*
X60183312Y-76281628D01*
X60233861Y-76281177D01*
X60331002Y-76300499D01*
X60331005Y-76300500D01*
X60331007Y-76300500D01*
X60468995Y-76300500D01*
X60563868Y-76281628D01*
X60604328Y-76273580D01*
X60731811Y-76220775D01*
X60846542Y-76144114D01*
X60944114Y-76046542D01*
X61020775Y-75931811D01*
X61073580Y-75804328D01*
X61092778Y-75707816D01*
X61100500Y-75668995D01*
X61100500Y-75531004D01*
X61073581Y-75395677D01*
X61073580Y-75395676D01*
X61073580Y-75395672D01*
X61066769Y-75379228D01*
X61020778Y-75268195D01*
X61020771Y-75268182D01*
X60944114Y-75153458D01*
X60944111Y-75153454D01*
X60846545Y-75055888D01*
X60846541Y-75055885D01*
X60731817Y-74979228D01*
X60731804Y-74979221D01*
X60604332Y-74926421D01*
X60604322Y-74926418D01*
X60468995Y-74899500D01*
X60468993Y-74899500D01*
X60331007Y-74899500D01*
X60331005Y-74899500D01*
X60195677Y-74926418D01*
X60195667Y-74926421D01*
X60068195Y-74979221D01*
X60068182Y-74979228D01*
X59953458Y-75055885D01*
X59953454Y-75055888D01*
X59855888Y-75153454D01*
X59855885Y-75153458D01*
X59779228Y-75268182D01*
X59779221Y-75268195D01*
X59726421Y-75395667D01*
X59726419Y-75395675D01*
X59723625Y-75409720D01*
X59691238Y-75471630D01*
X59689690Y-75473205D01*
X59099716Y-76063181D01*
X59038393Y-76096666D01*
X59012035Y-76099500D01*
X58931005Y-76099500D01*
X58795677Y-76126418D01*
X58789845Y-76128188D01*
X58789395Y-76126705D01*
X58727469Y-76133355D01*
X58664994Y-76102073D01*
X58629348Y-76041980D01*
X58625500Y-76011328D01*
X58625500Y-75747664D01*
X58645185Y-75680625D01*
X58697989Y-75634870D01*
X58701996Y-75633124D01*
X58731811Y-75620775D01*
X58846542Y-75544114D01*
X58944114Y-75446542D01*
X59020775Y-75331811D01*
X59027224Y-75316243D01*
X59045549Y-75272002D01*
X59073580Y-75204328D01*
X59100500Y-75068993D01*
X59100500Y-74931007D01*
X59100500Y-74931004D01*
X59073581Y-74795677D01*
X59073580Y-74795676D01*
X59073580Y-74795672D01*
X59054662Y-74750000D01*
X59020778Y-74668195D01*
X59020771Y-74668182D01*
X58944114Y-74553458D01*
X58944111Y-74553454D01*
X58846545Y-74455888D01*
X58846541Y-74455885D01*
X58731817Y-74379228D01*
X58731804Y-74379221D01*
X58604332Y-74326421D01*
X58604322Y-74326418D01*
X58468995Y-74299500D01*
X58468993Y-74299500D01*
X58331007Y-74299500D01*
X58331005Y-74299500D01*
X58195677Y-74326418D01*
X58195667Y-74326421D01*
X58068195Y-74379221D01*
X58068182Y-74379228D01*
X57953458Y-74455885D01*
X57953454Y-74455888D01*
X57855888Y-74553454D01*
X57855885Y-74553458D01*
X57779228Y-74668182D01*
X57779221Y-74668195D01*
X57726421Y-74795667D01*
X57726418Y-74795677D01*
X57699500Y-74931004D01*
X57699500Y-74931007D01*
X57699500Y-75068993D01*
X57699500Y-75068995D01*
X57699499Y-75068995D01*
X57726418Y-75204322D01*
X57726420Y-75204328D01*
X57765061Y-75297615D01*
X57774500Y-75345068D01*
X57774500Y-77372388D01*
X57754815Y-77439427D01*
X57738195Y-77460055D01*
X57735084Y-77463167D01*
X57673767Y-77496662D01*
X57647389Y-77499500D01*
X57531005Y-77499500D01*
X57395677Y-77526418D01*
X57395667Y-77526421D01*
X57268195Y-77579221D01*
X57268182Y-77579228D01*
X57153458Y-77655885D01*
X57153454Y-77655888D01*
X57055888Y-77753454D01*
X57055885Y-77753458D01*
X56979228Y-77868182D01*
X56979221Y-77868195D01*
X56926421Y-77995667D01*
X56926418Y-77995677D01*
X56899500Y-78131004D01*
X56899500Y-78131007D01*
X56899500Y-78268993D01*
X56899500Y-78268995D01*
X56899499Y-78268995D01*
X30300500Y-78268995D01*
X30300500Y-74893713D01*
X32149500Y-74893713D01*
X32149500Y-75106286D01*
X32179803Y-75297615D01*
X32182754Y-75316243D01*
X32233754Y-75473205D01*
X32248444Y-75518414D01*
X32344951Y-75707820D01*
X32469890Y-75879786D01*
X32620213Y-76030109D01*
X32792179Y-76155048D01*
X32792181Y-76155049D01*
X32792184Y-76155051D01*
X32981588Y-76251557D01*
X33183757Y-76317246D01*
X33393713Y-76350500D01*
X33393714Y-76350500D01*
X33606286Y-76350500D01*
X33606287Y-76350500D01*
X33816243Y-76317246D01*
X34018412Y-76251557D01*
X34207816Y-76155051D01*
X34246831Y-76126705D01*
X34379786Y-76030109D01*
X34379788Y-76030106D01*
X34379792Y-76030104D01*
X34530104Y-75879792D01*
X34530106Y-75879788D01*
X34530109Y-75879786D01*
X34655048Y-75707820D01*
X34655047Y-75707820D01*
X34655051Y-75707816D01*
X34751557Y-75518412D01*
X34817246Y-75316243D01*
X34850500Y-75106287D01*
X34850500Y-74893713D01*
X34817246Y-74683757D01*
X34751557Y-74481588D01*
X34655051Y-74292184D01*
X34655049Y-74292181D01*
X34655048Y-74292179D01*
X34530109Y-74120213D01*
X34379786Y-73969890D01*
X34207820Y-73844951D01*
X34018414Y-73748444D01*
X34018413Y-73748443D01*
X34018412Y-73748443D01*
X33816243Y-73682754D01*
X33816241Y-73682753D01*
X33816240Y-73682753D01*
X33654957Y-73657208D01*
X33606287Y-73649500D01*
X33393713Y-73649500D01*
X33345042Y-73657208D01*
X33183760Y-73682753D01*
X32981585Y-73748444D01*
X32792179Y-73844951D01*
X32620213Y-73969890D01*
X32469890Y-74120213D01*
X32344951Y-74292179D01*
X32248444Y-74481585D01*
X32182753Y-74683760D01*
X32149500Y-74893713D01*
X30300500Y-74893713D01*
X30300500Y-70668995D01*
X57299499Y-70668995D01*
X57326418Y-70804322D01*
X57326421Y-70804332D01*
X57379221Y-70931804D01*
X57379228Y-70931817D01*
X57455885Y-71046541D01*
X57455888Y-71046545D01*
X57553454Y-71144111D01*
X57553458Y-71144114D01*
X57668182Y-71220771D01*
X57668195Y-71220778D01*
X57795667Y-71273578D01*
X57795672Y-71273580D01*
X57795676Y-71273580D01*
X57795677Y-71273581D01*
X57931004Y-71300500D01*
X57931007Y-71300500D01*
X58068995Y-71300500D01*
X58160041Y-71282389D01*
X58204328Y-71273580D01*
X58331811Y-71220775D01*
X58446542Y-71144114D01*
X58544114Y-71046542D01*
X58620775Y-70931811D01*
X58646794Y-70868995D01*
X87899499Y-70868995D01*
X87926418Y-71004322D01*
X87926421Y-71004332D01*
X87979221Y-71131804D01*
X87979228Y-71131817D01*
X88055885Y-71246541D01*
X88055888Y-71246545D01*
X88153454Y-71344111D01*
X88153458Y-71344114D01*
X88217872Y-71387155D01*
X88262677Y-71440768D01*
X88271384Y-71510093D01*
X88252083Y-71559148D01*
X88179228Y-71668182D01*
X88179221Y-71668195D01*
X88126421Y-71795667D01*
X88126418Y-71795677D01*
X88099500Y-71931004D01*
X88099500Y-71931007D01*
X88099500Y-72068993D01*
X88099500Y-72068995D01*
X88099499Y-72068995D01*
X88126418Y-72204322D01*
X88126421Y-72204332D01*
X88179221Y-72331804D01*
X88179228Y-72331817D01*
X88255884Y-72446540D01*
X88255885Y-72446541D01*
X88255886Y-72446542D01*
X88338182Y-72528838D01*
X88371666Y-72590159D01*
X88374500Y-72616518D01*
X88374500Y-72983481D01*
X88354815Y-73050520D01*
X88338181Y-73071162D01*
X88255888Y-73153454D01*
X88255885Y-73153458D01*
X88179228Y-73268182D01*
X88179221Y-73268195D01*
X88126421Y-73395667D01*
X88126418Y-73395677D01*
X88099500Y-73531004D01*
X88099500Y-73531007D01*
X88099500Y-73668993D01*
X88099500Y-73668995D01*
X88099499Y-73668995D01*
X88126418Y-73804322D01*
X88126421Y-73804332D01*
X88179221Y-73931804D01*
X88179228Y-73931817D01*
X88255885Y-74046541D01*
X88255888Y-74046545D01*
X88353454Y-74144111D01*
X88353458Y-74144114D01*
X88468182Y-74220771D01*
X88468195Y-74220778D01*
X88595667Y-74273578D01*
X88595672Y-74273580D01*
X88595676Y-74273580D01*
X88595677Y-74273581D01*
X88731004Y-74300500D01*
X88731007Y-74300500D01*
X88868995Y-74300500D01*
X88960041Y-74282389D01*
X89004328Y-74273580D01*
X89102924Y-74232740D01*
X89131804Y-74220778D01*
X89131804Y-74220777D01*
X89131811Y-74220775D01*
X89246542Y-74144114D01*
X89270448Y-74120208D01*
X89312319Y-74078338D01*
X89373642Y-74044853D01*
X89443334Y-74049837D01*
X89487681Y-74078338D01*
X89553454Y-74144111D01*
X89553458Y-74144114D01*
X89668182Y-74220771D01*
X89668195Y-74220778D01*
X89795667Y-74273578D01*
X89795672Y-74273580D01*
X89795676Y-74273580D01*
X89795677Y-74273581D01*
X89931004Y-74300500D01*
X89931007Y-74300500D01*
X90068995Y-74300500D01*
X90160041Y-74282389D01*
X90204328Y-74273580D01*
X90302924Y-74232740D01*
X90331804Y-74220778D01*
X90331804Y-74220777D01*
X90331811Y-74220775D01*
X90331816Y-74220771D01*
X90331819Y-74220770D01*
X90398450Y-74176248D01*
X90446542Y-74144114D01*
X90544114Y-74046542D01*
X90620775Y-73931811D01*
X90673580Y-73804328D01*
X90686628Y-73738734D01*
X90700500Y-73668995D01*
X90700500Y-73531004D01*
X90673581Y-73395677D01*
X90673580Y-73395676D01*
X90673580Y-73395672D01*
X90673578Y-73395667D01*
X90620778Y-73268195D01*
X90620771Y-73268182D01*
X90571398Y-73194290D01*
X90550520Y-73127612D01*
X90550500Y-73125399D01*
X90550500Y-71527527D01*
X90550500Y-71527525D01*
X90512984Y-71387515D01*
X90506739Y-71376699D01*
X90501333Y-71367334D01*
X90501333Y-71367333D01*
X90440514Y-71261991D01*
X90440508Y-71261983D01*
X90247520Y-71068995D01*
X101499499Y-71068995D01*
X101526418Y-71204322D01*
X101526421Y-71204332D01*
X101579221Y-71331804D01*
X101579228Y-71331817D01*
X101655885Y-71446541D01*
X101655888Y-71446545D01*
X101753454Y-71544111D01*
X101753458Y-71544114D01*
X101832453Y-71596898D01*
X101877258Y-71650511D01*
X101885965Y-71719836D01*
X101855810Y-71782863D01*
X101832453Y-71803102D01*
X101753458Y-71855885D01*
X101753454Y-71855888D01*
X101655888Y-71953454D01*
X101655885Y-71953458D01*
X101579228Y-72068182D01*
X101579221Y-72068195D01*
X101526421Y-72195667D01*
X101526418Y-72195677D01*
X101499500Y-72331004D01*
X101499500Y-72331007D01*
X101499500Y-72468993D01*
X101499500Y-72468995D01*
X101499499Y-72468995D01*
X101526418Y-72604322D01*
X101526421Y-72604332D01*
X101579221Y-72731804D01*
X101579228Y-72731817D01*
X101655885Y-72846541D01*
X101655888Y-72846545D01*
X101753454Y-72944111D01*
X101753458Y-72944114D01*
X101868182Y-73020771D01*
X101868195Y-73020778D01*
X101984598Y-73068993D01*
X101995672Y-73073580D01*
X101995676Y-73073580D01*
X101995677Y-73073581D01*
X102131004Y-73100500D01*
X102131007Y-73100500D01*
X102268995Y-73100500D01*
X102360041Y-73082389D01*
X102404328Y-73073580D01*
X102531811Y-73020775D01*
X102646542Y-72944114D01*
X102659652Y-72931004D01*
X102728838Y-72861819D01*
X102790161Y-72828334D01*
X102816519Y-72825500D01*
X103583481Y-72825500D01*
X103650520Y-72845185D01*
X103671162Y-72861819D01*
X103753454Y-72944111D01*
X103753458Y-72944114D01*
X103868182Y-73020771D01*
X103868195Y-73020778D01*
X103984598Y-73068993D01*
X103995672Y-73073580D01*
X103995676Y-73073580D01*
X103995677Y-73073581D01*
X104131004Y-73100500D01*
X104131007Y-73100500D01*
X104268995Y-73100500D01*
X104360041Y-73082389D01*
X104404328Y-73073580D01*
X104531811Y-73020775D01*
X104646542Y-72944114D01*
X104744114Y-72846542D01*
X104820775Y-72731811D01*
X104873580Y-72604328D01*
X104885557Y-72544114D01*
X104900500Y-72468995D01*
X104900500Y-72331004D01*
X104873581Y-72195677D01*
X104873580Y-72195676D01*
X104873580Y-72195672D01*
X104837678Y-72108996D01*
X104820778Y-72068195D01*
X104820771Y-72068182D01*
X104744114Y-71953458D01*
X104744111Y-71953454D01*
X104646545Y-71855888D01*
X104646541Y-71855885D01*
X104567546Y-71803102D01*
X104522741Y-71749490D01*
X104514034Y-71680165D01*
X104544189Y-71617137D01*
X104567546Y-71596898D01*
X104612831Y-71566639D01*
X104646542Y-71544114D01*
X104744114Y-71446542D01*
X104820775Y-71331811D01*
X104873580Y-71204328D01*
X104885558Y-71144111D01*
X104900500Y-71068995D01*
X104900500Y-70931004D01*
X104873581Y-70795677D01*
X104873580Y-70795676D01*
X104873580Y-70795672D01*
X104825778Y-70680267D01*
X104820778Y-70668195D01*
X104820771Y-70668182D01*
X104744114Y-70553458D01*
X104744111Y-70553454D01*
X104646545Y-70455888D01*
X104646541Y-70455885D01*
X104531817Y-70379228D01*
X104531804Y-70379221D01*
X104404332Y-70326421D01*
X104404322Y-70326418D01*
X104268995Y-70299500D01*
X104268993Y-70299500D01*
X104131007Y-70299500D01*
X104131005Y-70299500D01*
X103995677Y-70326418D01*
X103995667Y-70326421D01*
X103868195Y-70379221D01*
X103868182Y-70379228D01*
X103753458Y-70455885D01*
X103753454Y-70455888D01*
X103671162Y-70538181D01*
X103609839Y-70571666D01*
X103583481Y-70574500D01*
X102816519Y-70574500D01*
X102749480Y-70554815D01*
X102728838Y-70538181D01*
X102646545Y-70455888D01*
X102646541Y-70455885D01*
X102531817Y-70379228D01*
X102531804Y-70379221D01*
X102404332Y-70326421D01*
X102404322Y-70326418D01*
X102268995Y-70299500D01*
X102268993Y-70299500D01*
X102131007Y-70299500D01*
X102131005Y-70299500D01*
X101995677Y-70326418D01*
X101995667Y-70326421D01*
X101868195Y-70379221D01*
X101868182Y-70379228D01*
X101753458Y-70455885D01*
X101753454Y-70455888D01*
X101655888Y-70553454D01*
X101655885Y-70553458D01*
X101579228Y-70668182D01*
X101579221Y-70668195D01*
X101526421Y-70795667D01*
X101526418Y-70795677D01*
X101499500Y-70931004D01*
X101499500Y-70931007D01*
X101499500Y-71068993D01*
X101499500Y-71068995D01*
X101499499Y-71068995D01*
X90247520Y-71068995D01*
X89738016Y-70559491D01*
X89738015Y-70559490D01*
X89612485Y-70487016D01*
X89535516Y-70466392D01*
X89535515Y-70466391D01*
X89489366Y-70454025D01*
X89472475Y-70449500D01*
X89472474Y-70449500D01*
X89274567Y-70449500D01*
X89207528Y-70429815D01*
X89171465Y-70394391D01*
X89144114Y-70353458D01*
X89144111Y-70353454D01*
X89046545Y-70255888D01*
X89046541Y-70255885D01*
X88931817Y-70179228D01*
X88931804Y-70179221D01*
X88804332Y-70126421D01*
X88804322Y-70126418D01*
X88668995Y-70099500D01*
X88668993Y-70099500D01*
X88531007Y-70099500D01*
X88531005Y-70099500D01*
X88395677Y-70126418D01*
X88395667Y-70126421D01*
X88268195Y-70179221D01*
X88268182Y-70179228D01*
X88153458Y-70255885D01*
X88153454Y-70255888D01*
X88055888Y-70353454D01*
X88055885Y-70353458D01*
X87979228Y-70468182D01*
X87979221Y-70468195D01*
X87926421Y-70595667D01*
X87926418Y-70595677D01*
X87899500Y-70731004D01*
X87899500Y-70731007D01*
X87899500Y-70868993D01*
X87899500Y-70868995D01*
X87899499Y-70868995D01*
X58646794Y-70868995D01*
X58673580Y-70804328D01*
X58690919Y-70717156D01*
X58723301Y-70655249D01*
X58724796Y-70653727D01*
X59253671Y-70124852D01*
X59314992Y-70091369D01*
X59317012Y-70090947D01*
X59404328Y-70073580D01*
X59531811Y-70020775D01*
X59646542Y-69944114D01*
X59744114Y-69846542D01*
X59820775Y-69731811D01*
X59873580Y-69604328D01*
X59900500Y-69468993D01*
X59900500Y-69331007D01*
X59900500Y-69331004D01*
X59873581Y-69195677D01*
X59873580Y-69195676D01*
X59873580Y-69195672D01*
X59873578Y-69195667D01*
X59820778Y-69068195D01*
X59820771Y-69068182D01*
X59744114Y-68953458D01*
X59744111Y-68953454D01*
X59646545Y-68855888D01*
X59646541Y-68855885D01*
X59531817Y-68779228D01*
X59531804Y-68779221D01*
X59404332Y-68726421D01*
X59404322Y-68726418D01*
X59268995Y-68699500D01*
X59268993Y-68699500D01*
X59131007Y-68699500D01*
X59131005Y-68699500D01*
X58995677Y-68726418D01*
X58995667Y-68726421D01*
X58868195Y-68779221D01*
X58868182Y-68779228D01*
X58753458Y-68855885D01*
X58753454Y-68855888D01*
X58655888Y-68953454D01*
X58655885Y-68953458D01*
X58579228Y-69068182D01*
X58579221Y-69068195D01*
X58526421Y-69195667D01*
X58526418Y-69195677D01*
X58509080Y-69282840D01*
X58476694Y-69344751D01*
X58475144Y-69346329D01*
X57946329Y-69875144D01*
X57885006Y-69908629D01*
X57882840Y-69909080D01*
X57795677Y-69926418D01*
X57795667Y-69926421D01*
X57668195Y-69979221D01*
X57668182Y-69979228D01*
X57553458Y-70055885D01*
X57553454Y-70055888D01*
X57455888Y-70153454D01*
X57455885Y-70153458D01*
X57379228Y-70268182D01*
X57379221Y-70268195D01*
X57326421Y-70395667D01*
X57326418Y-70395677D01*
X57299500Y-70531004D01*
X57299500Y-70531007D01*
X57299500Y-70668993D01*
X57299500Y-70668995D01*
X57299499Y-70668995D01*
X30300500Y-70668995D01*
X30300500Y-68668995D01*
X53699499Y-68668995D01*
X53726418Y-68804322D01*
X53726421Y-68804332D01*
X53779221Y-68931804D01*
X53779228Y-68931817D01*
X53855885Y-69046541D01*
X53855888Y-69046545D01*
X53953454Y-69144111D01*
X53953458Y-69144114D01*
X54068182Y-69220771D01*
X54068195Y-69220778D01*
X54195667Y-69273578D01*
X54195672Y-69273580D01*
X54195676Y-69273580D01*
X54195677Y-69273581D01*
X54331004Y-69300500D01*
X54331007Y-69300500D01*
X54468995Y-69300500D01*
X54560041Y-69282389D01*
X54604328Y-69273580D01*
X54731811Y-69220775D01*
X54805709Y-69171398D01*
X54872386Y-69150520D01*
X54874600Y-69150500D01*
X55925400Y-69150500D01*
X55992439Y-69170185D01*
X55994291Y-69171398D01*
X56068189Y-69220775D01*
X56068191Y-69220776D01*
X56068195Y-69220778D01*
X56195667Y-69273578D01*
X56195672Y-69273580D01*
X56195676Y-69273580D01*
X56195677Y-69273581D01*
X56331004Y-69300500D01*
X56331007Y-69300500D01*
X56468995Y-69300500D01*
X56560041Y-69282389D01*
X56604328Y-69273580D01*
X56731811Y-69220775D01*
X56846542Y-69144114D01*
X56944114Y-69046542D01*
X57020775Y-68931811D01*
X57073580Y-68804328D01*
X57088005Y-68731811D01*
X57100500Y-68668995D01*
X57100500Y-68531004D01*
X57088165Y-68468995D01*
X85899499Y-68468995D01*
X85926418Y-68604322D01*
X85926421Y-68604332D01*
X85979222Y-68731806D01*
X85979223Y-68731807D01*
X85979225Y-68731811D01*
X86028602Y-68805708D01*
X86049480Y-68872385D01*
X86049500Y-68874599D01*
X86049500Y-69525399D01*
X86029815Y-69592438D01*
X86028602Y-69594290D01*
X85979228Y-69668182D01*
X85979221Y-69668195D01*
X85926421Y-69795667D01*
X85926418Y-69795677D01*
X85899500Y-69931004D01*
X85899500Y-69931007D01*
X85899500Y-70068993D01*
X85899500Y-70068995D01*
X85899499Y-70068995D01*
X85926418Y-70204322D01*
X85926421Y-70204332D01*
X85979221Y-70331804D01*
X85979228Y-70331817D01*
X86055885Y-70446541D01*
X86055888Y-70446545D01*
X86153454Y-70544111D01*
X86153458Y-70544114D01*
X86268182Y-70620771D01*
X86268195Y-70620778D01*
X86382640Y-70668182D01*
X86395672Y-70673580D01*
X86395676Y-70673580D01*
X86395677Y-70673581D01*
X86531004Y-70700500D01*
X86531007Y-70700500D01*
X86668995Y-70700500D01*
X86770710Y-70680267D01*
X86804328Y-70673580D01*
X86931811Y-70620775D01*
X86931816Y-70620771D01*
X86931819Y-70620770D01*
X87001066Y-70574500D01*
X87046542Y-70544114D01*
X87144114Y-70446542D01*
X87220775Y-70331811D01*
X87273580Y-70204328D01*
X87289077Y-70126420D01*
X87300500Y-70068995D01*
X87300500Y-69931004D01*
X87273581Y-69795677D01*
X87273580Y-69795676D01*
X87273580Y-69795672D01*
X87255834Y-69752829D01*
X87220778Y-69668195D01*
X87220771Y-69668182D01*
X87171398Y-69594290D01*
X87150520Y-69527612D01*
X87150500Y-69525399D01*
X87150500Y-68874599D01*
X87170185Y-68807560D01*
X87171398Y-68805708D01*
X87220775Y-68731811D01*
X87273580Y-68604328D01*
X87300500Y-68468993D01*
X87300500Y-68331007D01*
X87300500Y-68331004D01*
X87273581Y-68195677D01*
X87273580Y-68195676D01*
X87273580Y-68195672D01*
X87273578Y-68195667D01*
X87220778Y-68068195D01*
X87220771Y-68068182D01*
X87144114Y-67953458D01*
X87144111Y-67953454D01*
X87046545Y-67855888D01*
X87046541Y-67855885D01*
X86931817Y-67779228D01*
X86931804Y-67779221D01*
X86804332Y-67726421D01*
X86804322Y-67726418D01*
X86668995Y-67699500D01*
X86668993Y-67699500D01*
X86531007Y-67699500D01*
X86531005Y-67699500D01*
X86395677Y-67726418D01*
X86395667Y-67726421D01*
X86268195Y-67779221D01*
X86268182Y-67779228D01*
X86153458Y-67855885D01*
X86153454Y-67855888D01*
X86055888Y-67953454D01*
X86055885Y-67953458D01*
X85979228Y-68068182D01*
X85979221Y-68068195D01*
X85926421Y-68195667D01*
X85926418Y-68195677D01*
X85899500Y-68331004D01*
X85899500Y-68331007D01*
X85899500Y-68468993D01*
X85899500Y-68468995D01*
X85899499Y-68468995D01*
X57088165Y-68468995D01*
X57073581Y-68395677D01*
X57073580Y-68395676D01*
X57073580Y-68395672D01*
X57045796Y-68328595D01*
X57020778Y-68268195D01*
X57020771Y-68268182D01*
X56944114Y-68153458D01*
X56944111Y-68153454D01*
X56846545Y-68055888D01*
X56846541Y-68055885D01*
X56731817Y-67979228D01*
X56731804Y-67979221D01*
X56604332Y-67926421D01*
X56604322Y-67926418D01*
X56468995Y-67899500D01*
X56468993Y-67899500D01*
X56331007Y-67899500D01*
X56331005Y-67899500D01*
X56195677Y-67926418D01*
X56195667Y-67926421D01*
X56068195Y-67979221D01*
X56068183Y-67979228D01*
X55994291Y-68028602D01*
X55927614Y-68049480D01*
X55925400Y-68049500D01*
X54874600Y-68049500D01*
X54807561Y-68029815D01*
X54805709Y-68028602D01*
X54731816Y-67979228D01*
X54731804Y-67979221D01*
X54604332Y-67926421D01*
X54604322Y-67926418D01*
X54468995Y-67899500D01*
X54468993Y-67899500D01*
X54331007Y-67899500D01*
X54331005Y-67899500D01*
X54195677Y-67926418D01*
X54195667Y-67926421D01*
X54068195Y-67979221D01*
X54068182Y-67979228D01*
X53953458Y-68055885D01*
X53953454Y-68055888D01*
X53855888Y-68153454D01*
X53855885Y-68153458D01*
X53779228Y-68268182D01*
X53779221Y-68268195D01*
X53726421Y-68395667D01*
X53726418Y-68395677D01*
X53699500Y-68531004D01*
X53699500Y-68531007D01*
X53699500Y-68668993D01*
X53699500Y-68668995D01*
X53699499Y-68668995D01*
X30300500Y-68668995D01*
X30300500Y-62668995D01*
X53099499Y-62668995D01*
X53126418Y-62804322D01*
X53126421Y-62804332D01*
X53179221Y-62931804D01*
X53179228Y-62931817D01*
X53255885Y-63046541D01*
X53255888Y-63046545D01*
X53353454Y-63144111D01*
X53353458Y-63144114D01*
X53468182Y-63220771D01*
X53468195Y-63220778D01*
X53595667Y-63273578D01*
X53595672Y-63273580D01*
X53595676Y-63273580D01*
X53595677Y-63273581D01*
X53731004Y-63300500D01*
X53731007Y-63300500D01*
X53868995Y-63300500D01*
X53960041Y-63282389D01*
X54004328Y-63273580D01*
X54131811Y-63220775D01*
X54246542Y-63144114D01*
X54344114Y-63046542D01*
X54420775Y-62931811D01*
X54436556Y-62893713D01*
X113649500Y-62893713D01*
X113649500Y-63106286D01*
X113682753Y-63316239D01*
X113748444Y-63518414D01*
X113844951Y-63707820D01*
X113969890Y-63879786D01*
X114120213Y-64030109D01*
X114292179Y-64155048D01*
X114292181Y-64155049D01*
X114292184Y-64155051D01*
X114481588Y-64251557D01*
X114683757Y-64317246D01*
X114893713Y-64350500D01*
X114893714Y-64350500D01*
X115106286Y-64350500D01*
X115106287Y-64350500D01*
X115316243Y-64317246D01*
X115518412Y-64251557D01*
X115707816Y-64155051D01*
X115729789Y-64139086D01*
X115879786Y-64030109D01*
X115879788Y-64030106D01*
X115879792Y-64030104D01*
X116030104Y-63879792D01*
X116030106Y-63879788D01*
X116030109Y-63879786D01*
X116155048Y-63707820D01*
X116155047Y-63707820D01*
X116155051Y-63707816D01*
X116251557Y-63518412D01*
X116317246Y-63316243D01*
X116350500Y-63106287D01*
X116350500Y-62893713D01*
X116317246Y-62683757D01*
X116251557Y-62481588D01*
X116155051Y-62292184D01*
X116155049Y-62292181D01*
X116155048Y-62292179D01*
X116030109Y-62120213D01*
X115879786Y-61969890D01*
X115707820Y-61844951D01*
X115518414Y-61748444D01*
X115518413Y-61748443D01*
X115518412Y-61748443D01*
X115316243Y-61682754D01*
X115316241Y-61682753D01*
X115316240Y-61682753D01*
X115154957Y-61657208D01*
X115106287Y-61649500D01*
X114893713Y-61649500D01*
X114845042Y-61657208D01*
X114683760Y-61682753D01*
X114481585Y-61748444D01*
X114292179Y-61844951D01*
X114120213Y-61969890D01*
X113969890Y-62120213D01*
X113844951Y-62292179D01*
X113748444Y-62481585D01*
X113748443Y-62481587D01*
X113748443Y-62481588D01*
X113740451Y-62506185D01*
X113682753Y-62683760D01*
X113649500Y-62893713D01*
X54436556Y-62893713D01*
X54473580Y-62804328D01*
X54497563Y-62683760D01*
X54500500Y-62668995D01*
X54500500Y-62552608D01*
X54520185Y-62485569D01*
X54536815Y-62464931D01*
X54864927Y-62136818D01*
X54926250Y-62103334D01*
X54952608Y-62100500D01*
X55068995Y-62100500D01*
X55160041Y-62082389D01*
X55204328Y-62073580D01*
X55331811Y-62020775D01*
X55446542Y-61944114D01*
X55544114Y-61846542D01*
X55620775Y-61731811D01*
X55673580Y-61604328D01*
X55687356Y-61535070D01*
X55700500Y-61468995D01*
X55700500Y-61331004D01*
X55673581Y-61195677D01*
X55673580Y-61195676D01*
X55673580Y-61195672D01*
X55673578Y-61195667D01*
X55620778Y-61068195D01*
X55620771Y-61068182D01*
X55544114Y-60953458D01*
X55544111Y-60953454D01*
X55446545Y-60855888D01*
X55446541Y-60855885D01*
X55331817Y-60779228D01*
X55331804Y-60779221D01*
X55204332Y-60726421D01*
X55204322Y-60726418D01*
X55068995Y-60699500D01*
X55068993Y-60699500D01*
X54931007Y-60699500D01*
X54931005Y-60699500D01*
X54795677Y-60726418D01*
X54795667Y-60726421D01*
X54668195Y-60779221D01*
X54668182Y-60779228D01*
X54553458Y-60855885D01*
X54553454Y-60855888D01*
X54455888Y-60953454D01*
X54455885Y-60953458D01*
X54379228Y-61068182D01*
X54379221Y-61068195D01*
X54326421Y-61195667D01*
X54326418Y-61195677D01*
X54299500Y-61331004D01*
X54299500Y-61447389D01*
X54279815Y-61514428D01*
X54263181Y-61535070D01*
X53935070Y-61863181D01*
X53873747Y-61896666D01*
X53847389Y-61899500D01*
X53731005Y-61899500D01*
X53595677Y-61926418D01*
X53595667Y-61926421D01*
X53468195Y-61979221D01*
X53468182Y-61979228D01*
X53353458Y-62055885D01*
X53353454Y-62055888D01*
X53255888Y-62153454D01*
X53255885Y-62153458D01*
X53179228Y-62268182D01*
X53179221Y-62268195D01*
X53126421Y-62395667D01*
X53126418Y-62395677D01*
X53099500Y-62531004D01*
X53099500Y-62531007D01*
X53099500Y-62668993D01*
X53099500Y-62668995D01*
X53099499Y-62668995D01*
X30300500Y-62668995D01*
X30300500Y-59206898D01*
X40849500Y-59206898D01*
X40849500Y-60793102D01*
X40850946Y-60805141D01*
X40860122Y-60881561D01*
X40915639Y-61022343D01*
X41007077Y-61142922D01*
X41127656Y-61234360D01*
X41127657Y-61234360D01*
X41127658Y-61234361D01*
X41268436Y-61289877D01*
X41356898Y-61300500D01*
X41356903Y-61300500D01*
X42643097Y-61300500D01*
X42643102Y-61300500D01*
X42731564Y-61289877D01*
X42872342Y-61234361D01*
X42992922Y-61142922D01*
X43084361Y-61022342D01*
X43139877Y-60881564D01*
X43150500Y-60793102D01*
X43150500Y-60771315D01*
X43170185Y-60704276D01*
X43222989Y-60658521D01*
X43292147Y-60648577D01*
X43355703Y-60677602D01*
X43384985Y-60715021D01*
X43430902Y-60805141D01*
X43546555Y-60964321D01*
X43685678Y-61103444D01*
X43844858Y-61219097D01*
X44020167Y-61308420D01*
X44199999Y-61366850D01*
X44200000Y-61366850D01*
X44200000Y-60404144D01*
X44307007Y-60465925D01*
X44434174Y-60500000D01*
X44565826Y-60500000D01*
X44692993Y-60465925D01*
X44800000Y-60404144D01*
X44800000Y-61366850D01*
X44979832Y-61308420D01*
X45155141Y-61219097D01*
X45314321Y-61103444D01*
X45453444Y-60964321D01*
X45569095Y-60805143D01*
X45658418Y-60629835D01*
X45719221Y-60442705D01*
X45741824Y-60300000D01*
X44904144Y-60300000D01*
X44965925Y-60192993D01*
X45000000Y-60065826D01*
X45000000Y-59934174D01*
X44965925Y-59807007D01*
X44904144Y-59700000D01*
X45741824Y-59700000D01*
X45719221Y-59557294D01*
X45658418Y-59370164D01*
X45569095Y-59194856D01*
X45453444Y-59035678D01*
X45314321Y-58896555D01*
X45155143Y-58780904D01*
X44979837Y-58691582D01*
X44800000Y-58633148D01*
X44800000Y-59595855D01*
X44692993Y-59534075D01*
X44565826Y-59500000D01*
X44434174Y-59500000D01*
X44307007Y-59534075D01*
X44200000Y-59595855D01*
X44200000Y-58633148D01*
X44020162Y-58691582D01*
X43844856Y-58780904D01*
X43685678Y-58896555D01*
X43546555Y-59035678D01*
X43430904Y-59194856D01*
X43384985Y-59284979D01*
X43337011Y-59335775D01*
X43269190Y-59352570D01*
X43203055Y-59330033D01*
X43159603Y-59275318D01*
X43150500Y-59228684D01*
X43150500Y-59206903D01*
X43150500Y-59206898D01*
X43139877Y-59118436D01*
X43084361Y-58977658D01*
X43084360Y-58977657D01*
X43084360Y-58977656D01*
X42992922Y-58857077D01*
X42872343Y-58765639D01*
X42731561Y-58710122D01*
X42685926Y-58704642D01*
X42643102Y-58699500D01*
X41356898Y-58699500D01*
X41317853Y-58704188D01*
X41268438Y-58710122D01*
X41127656Y-58765639D01*
X41007077Y-58857077D01*
X40915639Y-58977656D01*
X40860122Y-59118438D01*
X40854188Y-59167853D01*
X40849500Y-59206898D01*
X30300500Y-59206898D01*
X30300500Y-58468995D01*
X52299499Y-58468995D01*
X52326418Y-58604322D01*
X52326421Y-58604332D01*
X52379221Y-58731804D01*
X52379228Y-58731817D01*
X52455885Y-58846541D01*
X52455888Y-58846545D01*
X52553454Y-58944111D01*
X52553458Y-58944114D01*
X52668182Y-59020771D01*
X52668195Y-59020778D01*
X52795667Y-59073578D01*
X52795672Y-59073580D01*
X52795676Y-59073580D01*
X52795677Y-59073581D01*
X52931004Y-59100500D01*
X52931007Y-59100500D01*
X53068995Y-59100500D01*
X53160041Y-59082389D01*
X53204328Y-59073580D01*
X53331811Y-59020775D01*
X53446542Y-58944114D01*
X53446545Y-58944111D01*
X53528838Y-58861819D01*
X53590161Y-58828334D01*
X53616519Y-58825500D01*
X54383481Y-58825500D01*
X54450520Y-58845185D01*
X54471162Y-58861819D01*
X54553454Y-58944111D01*
X54553458Y-58944114D01*
X54668182Y-59020771D01*
X54668195Y-59020778D01*
X54795667Y-59073578D01*
X54795672Y-59073580D01*
X54795676Y-59073580D01*
X54795677Y-59073581D01*
X54931004Y-59100500D01*
X54931007Y-59100500D01*
X55068995Y-59100500D01*
X55160041Y-59082389D01*
X55204328Y-59073580D01*
X55331811Y-59020775D01*
X55446542Y-58944114D01*
X55544114Y-58846542D01*
X55620775Y-58731811D01*
X55673580Y-58604328D01*
X55700500Y-58468993D01*
X55700500Y-58331007D01*
X55700500Y-58331004D01*
X55673581Y-58195677D01*
X55673580Y-58195676D01*
X55673580Y-58195672D01*
X55673578Y-58195667D01*
X55620778Y-58068195D01*
X55620771Y-58068182D01*
X55544114Y-57953458D01*
X55544111Y-57953454D01*
X55446545Y-57855888D01*
X55446541Y-57855885D01*
X55331817Y-57779228D01*
X55331804Y-57779221D01*
X55204332Y-57726421D01*
X55204322Y-57726418D01*
X55068995Y-57699500D01*
X55068993Y-57699500D01*
X54931007Y-57699500D01*
X54931005Y-57699500D01*
X54795677Y-57726418D01*
X54795667Y-57726421D01*
X54668195Y-57779221D01*
X54668182Y-57779228D01*
X54553458Y-57855885D01*
X54553454Y-57855888D01*
X54471162Y-57938181D01*
X54409839Y-57971666D01*
X54383481Y-57974500D01*
X53616519Y-57974500D01*
X53549480Y-57954815D01*
X53528838Y-57938181D01*
X53446545Y-57855888D01*
X53446541Y-57855885D01*
X53331817Y-57779228D01*
X53331804Y-57779221D01*
X53204332Y-57726421D01*
X53204322Y-57726418D01*
X53068995Y-57699500D01*
X53068993Y-57699500D01*
X52931007Y-57699500D01*
X52931005Y-57699500D01*
X52795677Y-57726418D01*
X52795667Y-57726421D01*
X52668195Y-57779221D01*
X52668182Y-57779228D01*
X52553458Y-57855885D01*
X52553454Y-57855888D01*
X52455888Y-57953454D01*
X52455885Y-57953458D01*
X52379228Y-58068182D01*
X52379221Y-58068195D01*
X52326421Y-58195667D01*
X52326418Y-58195677D01*
X52299500Y-58331004D01*
X52299500Y-58331007D01*
X52299500Y-58468993D01*
X52299500Y-58468995D01*
X52299499Y-58468995D01*
X30300500Y-58468995D01*
X30300500Y-40441617D01*
X42250000Y-40441617D01*
X42250000Y-40638382D01*
X42280778Y-40832705D01*
X42341579Y-41019830D01*
X42341583Y-41019840D01*
X42427422Y-41188312D01*
X42427423Y-41188312D01*
X43002094Y-40613641D01*
X43034075Y-40732993D01*
X43099901Y-40847007D01*
X43192993Y-40940099D01*
X43307007Y-41005925D01*
X43426358Y-41037905D01*
X42851686Y-41612576D01*
X43020161Y-41698417D01*
X43161612Y-41744378D01*
X43219288Y-41783815D01*
X43246486Y-41848174D01*
X43234571Y-41917020D01*
X43187327Y-41968496D01*
X43161612Y-41980240D01*
X43058363Y-42013787D01*
X43058360Y-42013788D01*
X42897002Y-42096006D01*
X42750505Y-42202441D01*
X42750500Y-42202445D01*
X42622445Y-42330500D01*
X42622441Y-42330505D01*
X42516006Y-42477002D01*
X42433788Y-42638360D01*
X42433787Y-42638363D01*
X42377829Y-42810589D01*
X42349500Y-42989448D01*
X42349500Y-43170551D01*
X42377829Y-43349410D01*
X42433787Y-43521636D01*
X42433788Y-43521639D01*
X42516006Y-43682997D01*
X42622441Y-43829494D01*
X42622445Y-43829499D01*
X42750500Y-43957554D01*
X42750505Y-43957558D01*
X42878287Y-44050396D01*
X42897006Y-44063996D01*
X43002484Y-44117740D01*
X43058360Y-44146211D01*
X43058363Y-44146212D01*
X43144476Y-44174191D01*
X43230591Y-44202171D01*
X43303639Y-44213740D01*
X43390678Y-44227527D01*
X43453813Y-44257456D01*
X43490744Y-44316768D01*
X43489746Y-44386631D01*
X43451136Y-44444863D01*
X43390678Y-44472473D01*
X43230589Y-44497829D01*
X43058363Y-44553787D01*
X43058360Y-44553788D01*
X42897002Y-44636006D01*
X42750505Y-44742441D01*
X42750500Y-44742445D01*
X42622445Y-44870500D01*
X42622441Y-44870505D01*
X42516006Y-45017002D01*
X42433788Y-45178360D01*
X42433787Y-45178363D01*
X42377829Y-45350589D01*
X42349500Y-45529448D01*
X42349500Y-45710551D01*
X42377829Y-45889410D01*
X42433787Y-46061636D01*
X42433788Y-46061639D01*
X42516006Y-46222997D01*
X42622441Y-46369494D01*
X42622445Y-46369499D01*
X42750500Y-46497554D01*
X42750505Y-46497558D01*
X42827446Y-46553458D01*
X42897006Y-46603996D01*
X43002484Y-46657740D01*
X43058360Y-46686211D01*
X43058363Y-46686212D01*
X43144476Y-46714191D01*
X43230591Y-46742171D01*
X43303639Y-46753740D01*
X43390678Y-46767527D01*
X43453813Y-46797456D01*
X43490744Y-46856768D01*
X43489746Y-46926631D01*
X43451136Y-46984863D01*
X43390678Y-47012473D01*
X43230589Y-47037829D01*
X43058363Y-47093787D01*
X43058360Y-47093788D01*
X42897002Y-47176006D01*
X42750505Y-47282441D01*
X42750500Y-47282445D01*
X42622445Y-47410500D01*
X42622441Y-47410505D01*
X42516006Y-47557002D01*
X42433788Y-47718360D01*
X42433787Y-47718363D01*
X42377829Y-47890589D01*
X42349500Y-48069448D01*
X42349500Y-48250551D01*
X42377829Y-48429410D01*
X42433787Y-48601636D01*
X42433788Y-48601639D01*
X42516006Y-48762997D01*
X42622441Y-48909494D01*
X42622445Y-48909499D01*
X42750500Y-49037554D01*
X42750505Y-49037558D01*
X42878287Y-49130396D01*
X42897006Y-49143996D01*
X43002484Y-49197740D01*
X43058360Y-49226211D01*
X43058363Y-49226212D01*
X43144476Y-49254191D01*
X43230591Y-49282171D01*
X43303639Y-49293740D01*
X43390678Y-49307527D01*
X43453813Y-49337456D01*
X43490744Y-49396768D01*
X43489746Y-49466631D01*
X43451136Y-49524863D01*
X43390678Y-49552473D01*
X43230589Y-49577829D01*
X43058363Y-49633787D01*
X43058360Y-49633788D01*
X42897002Y-49716006D01*
X42750505Y-49822441D01*
X42750500Y-49822445D01*
X42622445Y-49950500D01*
X42622441Y-49950505D01*
X42516006Y-50097002D01*
X42433788Y-50258360D01*
X42433787Y-50258363D01*
X42377829Y-50430589D01*
X42349500Y-50609448D01*
X42349500Y-50790551D01*
X42377829Y-50969410D01*
X42433787Y-51141636D01*
X42433788Y-51141639D01*
X42483794Y-51239778D01*
X42514733Y-51300500D01*
X42516006Y-51302997D01*
X42622441Y-51449494D01*
X42622445Y-51449499D01*
X42750500Y-51577554D01*
X42750505Y-51577558D01*
X42878287Y-51670396D01*
X42897006Y-51683996D01*
X43002484Y-51737740D01*
X43058360Y-51766211D01*
X43058363Y-51766212D01*
X43144476Y-51794191D01*
X43230591Y-51822171D01*
X43313429Y-51835291D01*
X43409449Y-51850500D01*
X43409454Y-51850500D01*
X43590551Y-51850500D01*
X43677259Y-51836765D01*
X43769409Y-51822171D01*
X43941639Y-51766211D01*
X44102994Y-51683996D01*
X44249501Y-51577553D01*
X44377553Y-51449501D01*
X44483996Y-51302994D01*
X44566211Y-51141639D01*
X44622171Y-50969409D01*
X44644196Y-50830349D01*
X44650500Y-50790551D01*
X44650500Y-50668995D01*
X45499499Y-50668995D01*
X45526418Y-50804322D01*
X45526421Y-50804332D01*
X45579221Y-50931804D01*
X45579228Y-50931817D01*
X45655885Y-51046541D01*
X45655888Y-51046545D01*
X45753454Y-51144111D01*
X45753458Y-51144114D01*
X45868182Y-51220771D01*
X45868195Y-51220778D01*
X45914066Y-51239778D01*
X45995672Y-51273580D01*
X45995676Y-51273580D01*
X45995677Y-51273581D01*
X46131004Y-51300500D01*
X46131007Y-51300500D01*
X46268995Y-51300500D01*
X46360041Y-51282389D01*
X46404328Y-51273580D01*
X46485934Y-51239778D01*
X98499500Y-51239778D01*
X98499500Y-52760221D01*
X98533985Y-52977952D01*
X98602103Y-53187603D01*
X98602104Y-53187606D01*
X98702187Y-53384025D01*
X98831752Y-53562358D01*
X98831756Y-53562363D01*
X98987636Y-53718243D01*
X98987641Y-53718247D01*
X99143192Y-53831260D01*
X99165978Y-53847815D01*
X99294375Y-53913237D01*
X99362393Y-53947895D01*
X99362396Y-53947896D01*
X99467221Y-53981955D01*
X99572049Y-54016015D01*
X99789778Y-54050500D01*
X99789779Y-54050500D01*
X100010221Y-54050500D01*
X100010222Y-54050500D01*
X100227951Y-54016015D01*
X100437606Y-53947895D01*
X100634022Y-53847815D01*
X100812365Y-53718242D01*
X100968242Y-53562365D01*
X100968964Y-53561370D01*
X100969335Y-53561084D01*
X100971408Y-53558658D01*
X100971917Y-53559093D01*
X101024289Y-53518699D01*
X101093902Y-53512713D01*
X101119365Y-53520808D01*
X101180009Y-53547585D01*
X101205135Y-53550500D01*
X102794864Y-53550499D01*
X102794879Y-53550497D01*
X102794882Y-53550497D01*
X102819987Y-53547586D01*
X102819988Y-53547585D01*
X102819991Y-53547585D01*
X102922765Y-53502206D01*
X103002206Y-53422765D01*
X103047585Y-53319991D01*
X103047847Y-53317729D01*
X103048831Y-53315408D01*
X103050033Y-53310993D01*
X103050634Y-53311156D01*
X103075122Y-53253407D01*
X103132845Y-53214039D01*
X103202688Y-53212128D01*
X103258702Y-53244335D01*
X103330342Y-53315975D01*
X103330345Y-53315977D01*
X103502402Y-53430941D01*
X103693580Y-53510130D01*
X103881875Y-53547584D01*
X103896530Y-53550499D01*
X103896534Y-53550500D01*
X103896535Y-53550500D01*
X104103466Y-53550500D01*
X104103467Y-53550499D01*
X104306420Y-53510130D01*
X104497598Y-53430941D01*
X104669655Y-53315977D01*
X104815977Y-53169655D01*
X104896898Y-53048546D01*
X104950509Y-53003742D01*
X105019834Y-52995035D01*
X105082862Y-53025189D01*
X105103100Y-53048545D01*
X105152924Y-53123112D01*
X105184024Y-53169657D01*
X105330342Y-53315975D01*
X105330345Y-53315977D01*
X105502402Y-53430941D01*
X105693580Y-53510130D01*
X105881875Y-53547584D01*
X105896530Y-53550499D01*
X105896534Y-53550500D01*
X105896535Y-53550500D01*
X106103466Y-53550500D01*
X106103467Y-53550499D01*
X106306420Y-53510130D01*
X106497598Y-53430941D01*
X106669655Y-53315977D01*
X106680043Y-53305589D01*
X106741365Y-53272102D01*
X106811057Y-53277084D01*
X106866992Y-53318953D01*
X106878212Y-53336972D01*
X106902187Y-53384026D01*
X107031752Y-53562358D01*
X107031756Y-53562363D01*
X107187636Y-53718243D01*
X107187641Y-53718247D01*
X107343192Y-53831260D01*
X107365978Y-53847815D01*
X107494375Y-53913237D01*
X107562393Y-53947895D01*
X107562396Y-53947896D01*
X107667221Y-53981955D01*
X107772049Y-54016015D01*
X107989778Y-54050500D01*
X107989779Y-54050500D01*
X108210221Y-54050500D01*
X108210222Y-54050500D01*
X108427951Y-54016015D01*
X108637606Y-53947895D01*
X108834022Y-53847815D01*
X109012365Y-53718242D01*
X109168242Y-53562365D01*
X109297815Y-53384022D01*
X109397895Y-53187606D01*
X109466015Y-52977951D01*
X109500500Y-52760222D01*
X109500500Y-51239778D01*
X109466015Y-51022049D01*
X109403728Y-50830345D01*
X109397896Y-50812396D01*
X109397895Y-50812393D01*
X109344744Y-50708080D01*
X109297815Y-50615978D01*
X109263726Y-50569058D01*
X109168247Y-50437641D01*
X109168243Y-50437636D01*
X109012363Y-50281756D01*
X109012358Y-50281752D01*
X108834025Y-50152187D01*
X108834024Y-50152186D01*
X108834022Y-50152185D01*
X108771096Y-50120122D01*
X108637606Y-50052104D01*
X108637603Y-50052103D01*
X108427952Y-49983985D01*
X108229851Y-49952609D01*
X108210222Y-49949500D01*
X107989778Y-49949500D01*
X107970149Y-49952609D01*
X107772047Y-49983985D01*
X107562396Y-50052103D01*
X107562393Y-50052104D01*
X107365974Y-50152187D01*
X107187641Y-50281752D01*
X107187636Y-50281756D01*
X107031756Y-50437636D01*
X107031752Y-50437641D01*
X106902185Y-50615976D01*
X106878211Y-50663028D01*
X106830237Y-50713823D01*
X106762416Y-50730618D01*
X106696281Y-50708080D01*
X106680046Y-50694413D01*
X106669657Y-50684024D01*
X106583626Y-50626541D01*
X106497598Y-50569059D01*
X106437856Y-50544313D01*
X106306420Y-50489870D01*
X106306412Y-50489868D01*
X106103469Y-50449500D01*
X106103465Y-50449500D01*
X105896535Y-50449500D01*
X105896530Y-50449500D01*
X105693587Y-50489868D01*
X105693579Y-50489870D01*
X105502403Y-50569058D01*
X105330342Y-50684024D01*
X105184025Y-50830341D01*
X105184019Y-50830349D01*
X105103102Y-50951451D01*
X105049490Y-50996257D01*
X104980165Y-51004964D01*
X104917138Y-50974810D01*
X104896898Y-50951451D01*
X104815980Y-50830349D01*
X104815974Y-50830341D01*
X104669657Y-50684024D01*
X104583626Y-50626541D01*
X104497598Y-50569059D01*
X104437856Y-50544313D01*
X104306420Y-50489870D01*
X104306412Y-50489868D01*
X104103469Y-50449500D01*
X104103465Y-50449500D01*
X103896535Y-50449500D01*
X103896530Y-50449500D01*
X103693587Y-50489868D01*
X103693579Y-50489870D01*
X103502403Y-50569058D01*
X103330344Y-50684023D01*
X103258702Y-50755665D01*
X103197378Y-50789149D01*
X103127687Y-50784164D01*
X103071753Y-50742293D01*
X103050485Y-50688890D01*
X103050035Y-50689013D01*
X103048957Y-50685053D01*
X103047846Y-50682262D01*
X103047585Y-50680009D01*
X103002206Y-50577235D01*
X102922765Y-50497794D01*
X102901170Y-50488259D01*
X102819992Y-50452415D01*
X102794865Y-50449500D01*
X101205143Y-50449500D01*
X101205117Y-50449502D01*
X101180012Y-50452413D01*
X101180011Y-50452414D01*
X101119373Y-50479188D01*
X101050095Y-50488259D01*
X100986910Y-50458435D01*
X100971414Y-50441333D01*
X100971406Y-50441340D01*
X100971170Y-50441064D01*
X100968963Y-50438628D01*
X100968242Y-50437635D01*
X100812363Y-50281756D01*
X100812358Y-50281752D01*
X100634025Y-50152187D01*
X100634024Y-50152186D01*
X100634022Y-50152185D01*
X100571096Y-50120122D01*
X100437606Y-50052104D01*
X100437603Y-50052103D01*
X100227952Y-49983985D01*
X100029851Y-49952609D01*
X100010222Y-49949500D01*
X99789778Y-49949500D01*
X99770149Y-49952609D01*
X99572047Y-49983985D01*
X99362396Y-50052103D01*
X99362393Y-50052104D01*
X99165974Y-50152187D01*
X98987641Y-50281752D01*
X98987636Y-50281756D01*
X98831756Y-50437636D01*
X98831752Y-50437641D01*
X98702187Y-50615974D01*
X98602104Y-50812393D01*
X98602103Y-50812396D01*
X98533985Y-51022047D01*
X98499500Y-51239778D01*
X46485934Y-51239778D01*
X46531811Y-51220775D01*
X46646542Y-51144114D01*
X46744114Y-51046542D01*
X46820775Y-50931811D01*
X46873580Y-50804328D01*
X46879053Y-50776812D01*
X46911436Y-50714903D01*
X46972151Y-50680327D01*
X47024860Y-50679386D01*
X47059896Y-50686355D01*
X47131004Y-50700500D01*
X47131007Y-50700500D01*
X47268995Y-50700500D01*
X47372007Y-50680009D01*
X47404328Y-50673580D01*
X47531811Y-50620775D01*
X47646542Y-50544114D01*
X47744114Y-50446542D01*
X47820775Y-50331811D01*
X47873580Y-50204328D01*
X47900500Y-50068993D01*
X47900500Y-49952609D01*
X47920185Y-49885570D01*
X47936819Y-49864928D01*
X49064928Y-48736819D01*
X49126251Y-48703334D01*
X49152609Y-48700500D01*
X49268995Y-48700500D01*
X49360041Y-48682389D01*
X49404328Y-48673580D01*
X49531811Y-48620775D01*
X49646542Y-48544114D01*
X49744114Y-48446542D01*
X49820775Y-48331811D01*
X49873580Y-48204328D01*
X49895563Y-48093814D01*
X49900500Y-48068995D01*
X49900500Y-47931004D01*
X49873581Y-47795677D01*
X49873580Y-47795676D01*
X49873580Y-47795672D01*
X49841557Y-47718361D01*
X49820778Y-47668195D01*
X49820771Y-47668182D01*
X49744114Y-47553458D01*
X49744111Y-47553454D01*
X49646545Y-47455888D01*
X49646541Y-47455885D01*
X49531817Y-47379228D01*
X49526441Y-47376355D01*
X49527425Y-47374512D01*
X49480417Y-47336616D01*
X49458364Y-47270318D01*
X49467726Y-47218461D01*
X49473578Y-47204333D01*
X49473578Y-47204332D01*
X49473580Y-47204328D01*
X49487356Y-47135070D01*
X49500500Y-47068995D01*
X49500500Y-46931004D01*
X49473581Y-46795677D01*
X49473580Y-46795676D01*
X49473580Y-46795672D01*
X49473358Y-46795137D01*
X49420778Y-46668195D01*
X49420771Y-46668182D01*
X49344114Y-46553458D01*
X49344111Y-46553454D01*
X49246545Y-46455888D01*
X49246541Y-46455885D01*
X49131817Y-46379228D01*
X49131804Y-46379221D01*
X49004332Y-46326421D01*
X49004322Y-46326418D01*
X48868995Y-46299500D01*
X48868993Y-46299500D01*
X48731007Y-46299500D01*
X48731005Y-46299500D01*
X48595677Y-46326418D01*
X48595667Y-46326421D01*
X48468195Y-46379221D01*
X48468182Y-46379228D01*
X48353458Y-46455885D01*
X48353454Y-46455888D01*
X48255888Y-46553454D01*
X48255885Y-46553458D01*
X48179228Y-46668182D01*
X48179221Y-46668195D01*
X48126421Y-46795667D01*
X48126418Y-46795677D01*
X48099500Y-46931004D01*
X48099500Y-47047389D01*
X48079815Y-47114428D01*
X48063181Y-47135070D01*
X45921295Y-49276955D01*
X45921296Y-49276956D01*
X45859514Y-49338738D01*
X45859513Y-49338740D01*
X45803498Y-49435760D01*
X45803497Y-49435763D01*
X45774500Y-49543982D01*
X45774500Y-49983481D01*
X45754815Y-50050520D01*
X45738181Y-50071162D01*
X45655888Y-50153454D01*
X45655885Y-50153458D01*
X45579228Y-50268182D01*
X45579221Y-50268195D01*
X45526421Y-50395667D01*
X45526418Y-50395677D01*
X45499500Y-50531004D01*
X45499500Y-50531007D01*
X45499500Y-50668993D01*
X45499500Y-50668995D01*
X45499499Y-50668995D01*
X44650500Y-50668995D01*
X44650500Y-50609449D01*
X44640183Y-50544314D01*
X44640183Y-50544313D01*
X44631560Y-50489870D01*
X44622171Y-50430591D01*
X44573813Y-50281758D01*
X44566212Y-50258363D01*
X44566211Y-50258360D01*
X44537740Y-50202484D01*
X44483996Y-50097006D01*
X44463645Y-50068995D01*
X44377558Y-49950505D01*
X44377554Y-49950500D01*
X44249499Y-49822445D01*
X44249494Y-49822441D01*
X44102997Y-49716006D01*
X44102996Y-49716005D01*
X44102994Y-49716004D01*
X44051300Y-49689664D01*
X43941639Y-49633788D01*
X43941636Y-49633787D01*
X43769410Y-49577829D01*
X43609321Y-49552473D01*
X43546186Y-49522544D01*
X43509255Y-49463232D01*
X43510253Y-49393370D01*
X43548863Y-49335137D01*
X43609321Y-49307527D01*
X43679425Y-49296422D01*
X43769409Y-49282171D01*
X43941639Y-49226211D01*
X44102994Y-49143996D01*
X44249501Y-49037553D01*
X44377553Y-48909501D01*
X44483996Y-48762994D01*
X44566211Y-48601639D01*
X44622171Y-48429409D01*
X44637630Y-48331804D01*
X44650500Y-48250551D01*
X44650500Y-48069448D01*
X44628572Y-47931007D01*
X44622171Y-47890591D01*
X44566211Y-47718361D01*
X44566211Y-47718360D01*
X44537740Y-47662484D01*
X44483996Y-47557006D01*
X44410530Y-47455888D01*
X44377558Y-47410505D01*
X44377554Y-47410500D01*
X44249499Y-47282445D01*
X44249494Y-47282441D01*
X44102997Y-47176006D01*
X44102996Y-47176005D01*
X44102994Y-47176004D01*
X44051300Y-47149664D01*
X43941639Y-47093788D01*
X43941636Y-47093787D01*
X43769410Y-47037829D01*
X43609321Y-47012473D01*
X43546186Y-46982544D01*
X43509255Y-46923232D01*
X43510253Y-46853370D01*
X43548863Y-46795137D01*
X43609321Y-46767527D01*
X43679425Y-46756422D01*
X43769409Y-46742171D01*
X43941639Y-46686211D01*
X44102994Y-46603996D01*
X44249501Y-46497553D01*
X44377553Y-46369501D01*
X44483996Y-46222994D01*
X44566211Y-46061639D01*
X44622171Y-45889409D01*
X44636765Y-45797259D01*
X44650500Y-45710551D01*
X44650500Y-45529448D01*
X44634019Y-45425397D01*
X44622171Y-45350591D01*
X44566211Y-45178361D01*
X44566211Y-45178360D01*
X44537740Y-45122484D01*
X44483996Y-45017006D01*
X44470396Y-44998287D01*
X44377558Y-44870505D01*
X44377554Y-44870500D01*
X44249499Y-44742445D01*
X44249494Y-44742441D01*
X44102997Y-44636006D01*
X44102996Y-44636005D01*
X44102994Y-44636004D01*
X44051300Y-44609664D01*
X43941639Y-44553788D01*
X43941636Y-44553787D01*
X43769410Y-44497829D01*
X43609321Y-44472473D01*
X43546186Y-44442544D01*
X43509255Y-44383232D01*
X43510253Y-44313370D01*
X43548863Y-44255137D01*
X43609321Y-44227527D01*
X43679425Y-44216422D01*
X43769409Y-44202171D01*
X43941639Y-44146211D01*
X44102994Y-44063996D01*
X44249501Y-43957553D01*
X44377553Y-43829501D01*
X44483996Y-43682994D01*
X44566211Y-43521639D01*
X44622171Y-43349409D01*
X44636765Y-43257259D01*
X44650500Y-43170551D01*
X44650500Y-42989448D01*
X44634019Y-42885397D01*
X44622171Y-42810591D01*
X44566211Y-42638361D01*
X44566211Y-42638360D01*
X44537740Y-42582484D01*
X44483996Y-42477006D01*
X44431193Y-42404328D01*
X44377558Y-42330505D01*
X44377554Y-42330500D01*
X44316049Y-42268995D01*
X71699499Y-42268995D01*
X71726418Y-42404322D01*
X71726421Y-42404332D01*
X71779221Y-42531804D01*
X71779228Y-42531817D01*
X71855885Y-42646541D01*
X71855888Y-42646545D01*
X71953454Y-42744111D01*
X71953458Y-42744114D01*
X72068182Y-42820771D01*
X72068195Y-42820778D01*
X72195667Y-42873578D01*
X72195672Y-42873580D01*
X72195676Y-42873580D01*
X72195677Y-42873581D01*
X72331004Y-42900500D01*
X72331007Y-42900500D01*
X72468995Y-42900500D01*
X72560041Y-42882389D01*
X72604328Y-42873580D01*
X72731811Y-42820775D01*
X72846542Y-42744114D01*
X72944114Y-42646542D01*
X73020775Y-42531811D01*
X73073580Y-42404328D01*
X73082389Y-42360041D01*
X73100500Y-42268995D01*
X73100500Y-42152608D01*
X73120185Y-42085569D01*
X73136814Y-42064932D01*
X74864927Y-40336818D01*
X74926250Y-40303334D01*
X74952608Y-40300500D01*
X75068995Y-40300500D01*
X75160041Y-40282389D01*
X75204328Y-40273580D01*
X75331811Y-40220775D01*
X75446542Y-40144114D01*
X75544114Y-40046542D01*
X75620775Y-39931811D01*
X75673580Y-39804328D01*
X75687356Y-39735070D01*
X75700500Y-39668995D01*
X75700500Y-39531004D01*
X75673581Y-39395677D01*
X75673580Y-39395676D01*
X75673580Y-39395672D01*
X75657024Y-39355701D01*
X75620778Y-39268195D01*
X75620771Y-39268182D01*
X75544114Y-39153458D01*
X75544111Y-39153454D01*
X75446545Y-39055888D01*
X75446541Y-39055885D01*
X75331817Y-38979228D01*
X75331804Y-38979221D01*
X75204332Y-38926421D01*
X75204322Y-38926418D01*
X75068995Y-38899500D01*
X75068993Y-38899500D01*
X74931007Y-38899500D01*
X74931005Y-38899500D01*
X74795677Y-38926418D01*
X74795667Y-38926421D01*
X74668195Y-38979221D01*
X74668182Y-38979228D01*
X74553458Y-39055885D01*
X74553454Y-39055888D01*
X74455888Y-39153454D01*
X74455885Y-39153458D01*
X74379228Y-39268182D01*
X74379221Y-39268195D01*
X74326421Y-39395667D01*
X74326418Y-39395677D01*
X74299500Y-39531004D01*
X74299500Y-39647389D01*
X74279815Y-39714428D01*
X74263181Y-39735070D01*
X72535070Y-41463181D01*
X72473747Y-41496666D01*
X72447389Y-41499500D01*
X72331005Y-41499500D01*
X72195677Y-41526418D01*
X72195667Y-41526421D01*
X72068195Y-41579221D01*
X72068182Y-41579228D01*
X71953458Y-41655885D01*
X71953454Y-41655888D01*
X71855888Y-41753454D01*
X71855885Y-41753458D01*
X71779228Y-41868182D01*
X71779221Y-41868195D01*
X71726421Y-41995667D01*
X71726418Y-41995677D01*
X71699500Y-42131004D01*
X71699500Y-42131007D01*
X71699500Y-42268993D01*
X71699500Y-42268995D01*
X71699499Y-42268995D01*
X44316049Y-42268995D01*
X44249499Y-42202445D01*
X44249494Y-42202441D01*
X44102997Y-42096006D01*
X44102996Y-42096005D01*
X44102994Y-42096004D01*
X44051300Y-42069664D01*
X43941639Y-42013788D01*
X43941636Y-42013787D01*
X43838387Y-41980240D01*
X43780711Y-41940803D01*
X43753513Y-41876444D01*
X43765428Y-41807598D01*
X43812672Y-41756122D01*
X43838387Y-41744378D01*
X43979835Y-41698418D01*
X44148311Y-41612575D01*
X43573642Y-41037905D01*
X43692993Y-41005925D01*
X43807007Y-40940099D01*
X43900099Y-40847007D01*
X43965925Y-40732993D01*
X43997905Y-40613641D01*
X44572575Y-41188311D01*
X44658418Y-41019835D01*
X44719221Y-40832705D01*
X44750000Y-40638382D01*
X44750000Y-40441617D01*
X44719221Y-40247294D01*
X44658417Y-40060161D01*
X44572576Y-39891687D01*
X44572576Y-39891686D01*
X43997905Y-40466357D01*
X43965925Y-40347007D01*
X43900099Y-40232993D01*
X43807007Y-40139901D01*
X43692993Y-40074075D01*
X43573642Y-40042094D01*
X44148312Y-39467423D01*
X44148312Y-39467422D01*
X43986514Y-39384984D01*
X43935718Y-39337010D01*
X43918922Y-39269189D01*
X43941459Y-39203054D01*
X43996174Y-39159602D01*
X44042806Y-39150499D01*
X44394864Y-39150499D01*
X44394879Y-39150497D01*
X44394882Y-39150497D01*
X44419987Y-39147586D01*
X44419988Y-39147585D01*
X44419991Y-39147585D01*
X44522765Y-39102206D01*
X44602206Y-39022765D01*
X44647585Y-38919991D01*
X44650500Y-38894865D01*
X44650499Y-37105136D01*
X44650212Y-37102658D01*
X44647586Y-37080013D01*
X44647585Y-37080011D01*
X44647585Y-37080009D01*
X44642722Y-37068995D01*
X69899499Y-37068995D01*
X69926418Y-37204322D01*
X69926421Y-37204332D01*
X69979221Y-37331804D01*
X69979228Y-37331817D01*
X70055884Y-37446540D01*
X70055885Y-37446541D01*
X70055886Y-37446542D01*
X70138182Y-37528838D01*
X70171666Y-37590159D01*
X70174500Y-37616518D01*
X70174500Y-38383481D01*
X70154815Y-38450520D01*
X70138181Y-38471162D01*
X70055888Y-38553454D01*
X70055885Y-38553458D01*
X69979228Y-38668182D01*
X69979221Y-38668195D01*
X69926421Y-38795667D01*
X69926418Y-38795677D01*
X69899500Y-38931004D01*
X69899500Y-38931007D01*
X69899500Y-39068993D01*
X69899500Y-39068995D01*
X69899499Y-39068995D01*
X69926418Y-39204322D01*
X69926421Y-39204332D01*
X69979221Y-39331804D01*
X69979228Y-39331817D01*
X70055885Y-39446541D01*
X70055888Y-39446545D01*
X70153454Y-39544111D01*
X70153458Y-39544114D01*
X70268182Y-39620771D01*
X70268195Y-39620778D01*
X70384598Y-39668993D01*
X70395672Y-39673580D01*
X70395676Y-39673580D01*
X70395677Y-39673581D01*
X70531004Y-39700500D01*
X70531007Y-39700500D01*
X70668995Y-39700500D01*
X70760041Y-39682389D01*
X70804328Y-39673580D01*
X70931811Y-39620775D01*
X71046542Y-39544114D01*
X71144114Y-39446542D01*
X71220775Y-39331811D01*
X71273580Y-39204328D01*
X71292470Y-39109361D01*
X71300500Y-39068995D01*
X71300500Y-38931004D01*
X71273581Y-38795677D01*
X71273580Y-38795676D01*
X71273580Y-38795672D01*
X71254117Y-38748684D01*
X71220778Y-38668195D01*
X71220771Y-38668182D01*
X71144114Y-38553458D01*
X71144111Y-38553454D01*
X71061819Y-38471162D01*
X71028334Y-38409839D01*
X71025500Y-38383481D01*
X71025500Y-37616518D01*
X71045185Y-37549479D01*
X71061814Y-37528841D01*
X71144114Y-37446542D01*
X71220717Y-37331898D01*
X105099500Y-37331898D01*
X105099500Y-38668102D01*
X105103103Y-38698107D01*
X105110122Y-38756561D01*
X105165639Y-38897343D01*
X105257077Y-39017922D01*
X105377656Y-39109360D01*
X105377657Y-39109360D01*
X105377658Y-39109361D01*
X105518436Y-39164877D01*
X105606898Y-39175500D01*
X105606903Y-39175500D01*
X106393097Y-39175500D01*
X106393102Y-39175500D01*
X106481564Y-39164877D01*
X106622342Y-39109361D01*
X106742922Y-39017922D01*
X106834361Y-38897342D01*
X106888394Y-38760322D01*
X106931299Y-38705180D01*
X106997207Y-38681987D01*
X107065191Y-38698107D01*
X107109841Y-38744003D01*
X107110426Y-38743613D01*
X107112543Y-38746781D01*
X107113105Y-38747359D01*
X107113808Y-38748675D01*
X107223248Y-38912462D01*
X107223251Y-38912466D01*
X107362533Y-39051748D01*
X107362537Y-39051751D01*
X107526318Y-39161187D01*
X107526321Y-39161188D01*
X107699999Y-39233128D01*
X107700000Y-39233128D01*
X108300000Y-39233128D01*
X108473678Y-39161188D01*
X108473681Y-39161187D01*
X108637462Y-39051751D01*
X108637466Y-39051748D01*
X108776748Y-38912466D01*
X108776751Y-38912462D01*
X108886185Y-38748684D01*
X108886192Y-38748671D01*
X108961569Y-38566693D01*
X108961572Y-38566681D01*
X108999999Y-38373495D01*
X109000000Y-38373492D01*
X109000000Y-38300000D01*
X108300000Y-38300000D01*
X108300000Y-39233128D01*
X107700000Y-39233128D01*
X107700000Y-38230330D01*
X107769745Y-38300075D01*
X107855255Y-38349444D01*
X107950630Y-38375000D01*
X108049370Y-38375000D01*
X108144745Y-38349444D01*
X108230255Y-38300075D01*
X108300075Y-38230255D01*
X108349444Y-38144745D01*
X108375000Y-38049370D01*
X108375000Y-37950630D01*
X108349444Y-37855255D01*
X108300075Y-37769745D01*
X108230330Y-37700000D01*
X108300000Y-37700000D01*
X109000000Y-37700000D01*
X109000000Y-37626508D01*
X108999999Y-37626504D01*
X108961572Y-37433318D01*
X108961569Y-37433306D01*
X108886192Y-37251328D01*
X108886185Y-37251315D01*
X108776751Y-37087537D01*
X108776748Y-37087533D01*
X108637466Y-36948251D01*
X108637462Y-36948248D01*
X108473684Y-36838814D01*
X108473675Y-36838809D01*
X108300000Y-36766871D01*
X108300000Y-37700000D01*
X108230330Y-37700000D01*
X108230255Y-37699925D01*
X108144745Y-37650556D01*
X108049370Y-37625000D01*
X107950630Y-37625000D01*
X107855255Y-37650556D01*
X107769745Y-37699925D01*
X107700000Y-37769670D01*
X107700000Y-36766871D01*
X107699999Y-36766871D01*
X107526324Y-36838809D01*
X107526315Y-36838814D01*
X107362537Y-36948248D01*
X107362533Y-36948251D01*
X107223251Y-37087533D01*
X107223248Y-37087537D01*
X107113810Y-37251321D01*
X107113102Y-37252647D01*
X107112548Y-37253210D01*
X107110426Y-37256387D01*
X107109823Y-37255984D01*
X107064136Y-37302487D01*
X106995997Y-37317942D01*
X106930319Y-37294106D01*
X106888394Y-37239677D01*
X106834361Y-37102658D01*
X106834360Y-37102657D01*
X106834360Y-37102656D01*
X106742922Y-36982077D01*
X106622343Y-36890639D01*
X106518021Y-36849500D01*
X106481564Y-36835123D01*
X106481563Y-36835122D01*
X106481561Y-36835122D01*
X106435926Y-36829642D01*
X106393102Y-36824500D01*
X105606898Y-36824500D01*
X105567853Y-36829188D01*
X105518438Y-36835122D01*
X105377656Y-36890639D01*
X105257077Y-36982077D01*
X105165639Y-37102656D01*
X105110122Y-37243438D01*
X105105644Y-37280737D01*
X105099500Y-37331898D01*
X71220717Y-37331898D01*
X71220775Y-37331811D01*
X71273580Y-37204328D01*
X71282389Y-37160041D01*
X71300500Y-37068995D01*
X71300500Y-36931004D01*
X71273581Y-36795677D01*
X71273580Y-36795676D01*
X71273580Y-36795672D01*
X71261650Y-36766871D01*
X71220778Y-36668195D01*
X71220771Y-36668182D01*
X71144114Y-36553458D01*
X71144111Y-36553454D01*
X71046545Y-36455888D01*
X71046541Y-36455885D01*
X70931817Y-36379228D01*
X70931804Y-36379221D01*
X70804332Y-36326421D01*
X70804322Y-36326418D01*
X70668995Y-36299500D01*
X70668993Y-36299500D01*
X70531007Y-36299500D01*
X70531005Y-36299500D01*
X70395677Y-36326418D01*
X70395667Y-36326421D01*
X70268195Y-36379221D01*
X70268182Y-36379228D01*
X70153458Y-36455885D01*
X70153454Y-36455888D01*
X70055888Y-36553454D01*
X70055885Y-36553458D01*
X69979228Y-36668182D01*
X69979221Y-36668195D01*
X69926421Y-36795667D01*
X69926418Y-36795677D01*
X69899500Y-36931004D01*
X69899500Y-36931007D01*
X69899500Y-37068993D01*
X69899500Y-37068995D01*
X69899499Y-37068995D01*
X44642722Y-37068995D01*
X44602206Y-36977235D01*
X44522765Y-36897794D01*
X44522763Y-36897793D01*
X44419992Y-36852415D01*
X44394865Y-36849500D01*
X42605143Y-36849500D01*
X42605117Y-36849502D01*
X42580012Y-36852413D01*
X42580008Y-36852415D01*
X42477235Y-36897793D01*
X42397794Y-36977234D01*
X42352415Y-37080006D01*
X42352415Y-37080008D01*
X42349500Y-37105131D01*
X42349500Y-38894856D01*
X42349502Y-38894882D01*
X42352413Y-38919987D01*
X42352415Y-38919991D01*
X42397793Y-39022764D01*
X42397794Y-39022765D01*
X42477235Y-39102206D01*
X42580009Y-39147585D01*
X42605135Y-39150500D01*
X42957192Y-39150499D01*
X43024229Y-39170183D01*
X43069984Y-39222987D01*
X43079928Y-39292146D01*
X43050903Y-39355701D01*
X43013484Y-39384984D01*
X42851686Y-39467422D01*
X43426358Y-40042094D01*
X43307007Y-40074075D01*
X43192993Y-40139901D01*
X43099901Y-40232993D01*
X43034075Y-40347007D01*
X43002094Y-40466358D01*
X42427422Y-39891686D01*
X42341583Y-40060159D01*
X42341579Y-40060169D01*
X42280778Y-40247294D01*
X42250000Y-40441617D01*
X30300500Y-40441617D01*
X30300500Y-33393713D01*
X32149500Y-33393713D01*
X32149500Y-33606286D01*
X32182753Y-33816239D01*
X32248444Y-34018414D01*
X32344951Y-34207820D01*
X32469890Y-34379786D01*
X32620213Y-34530109D01*
X32792179Y-34655048D01*
X32792181Y-34655049D01*
X32792184Y-34655051D01*
X32981588Y-34751557D01*
X33183757Y-34817246D01*
X33393713Y-34850500D01*
X33393714Y-34850500D01*
X33606286Y-34850500D01*
X33606287Y-34850500D01*
X33816243Y-34817246D01*
X34018412Y-34751557D01*
X34207816Y-34655051D01*
X34229789Y-34639086D01*
X34379786Y-34530109D01*
X34379788Y-34530106D01*
X34379792Y-34530104D01*
X34530104Y-34379792D01*
X34530106Y-34379788D01*
X34530109Y-34379786D01*
X34655048Y-34207820D01*
X34655047Y-34207820D01*
X34655051Y-34207816D01*
X34751557Y-34018412D01*
X34817246Y-33816243D01*
X34850500Y-33606287D01*
X34850500Y-33393713D01*
X113649500Y-33393713D01*
X113649500Y-33606286D01*
X113682753Y-33816239D01*
X113748444Y-34018414D01*
X113844951Y-34207820D01*
X113969890Y-34379786D01*
X114120213Y-34530109D01*
X114292179Y-34655048D01*
X114292181Y-34655049D01*
X114292184Y-34655051D01*
X114481588Y-34751557D01*
X114683757Y-34817246D01*
X114893713Y-34850500D01*
X114893714Y-34850500D01*
X115106286Y-34850500D01*
X115106287Y-34850500D01*
X115316243Y-34817246D01*
X115518412Y-34751557D01*
X115707816Y-34655051D01*
X115729789Y-34639086D01*
X115879786Y-34530109D01*
X115879788Y-34530106D01*
X115879792Y-34530104D01*
X116030104Y-34379792D01*
X116030106Y-34379788D01*
X116030109Y-34379786D01*
X116155048Y-34207820D01*
X116155047Y-34207820D01*
X116155051Y-34207816D01*
X116251557Y-34018412D01*
X116317246Y-33816243D01*
X116350500Y-33606287D01*
X116350500Y-33393713D01*
X116317246Y-33183757D01*
X116251557Y-32981588D01*
X116155051Y-32792184D01*
X116155049Y-32792181D01*
X116155048Y-32792179D01*
X116030109Y-32620213D01*
X115879786Y-32469890D01*
X115707820Y-32344951D01*
X115518414Y-32248444D01*
X115518413Y-32248443D01*
X115518412Y-32248443D01*
X115316243Y-32182754D01*
X115316241Y-32182753D01*
X115316240Y-32182753D01*
X115154957Y-32157208D01*
X115106287Y-32149500D01*
X114893713Y-32149500D01*
X114845042Y-32157208D01*
X114683760Y-32182753D01*
X114481585Y-32248444D01*
X114292179Y-32344951D01*
X114120213Y-32469890D01*
X113969890Y-32620213D01*
X113844951Y-32792179D01*
X113748444Y-32981585D01*
X113682753Y-33183760D01*
X113649500Y-33393713D01*
X34850500Y-33393713D01*
X34817246Y-33183757D01*
X34751557Y-32981588D01*
X34655051Y-32792184D01*
X34655049Y-32792181D01*
X34655048Y-32792179D01*
X34530109Y-32620213D01*
X34379786Y-32469890D01*
X34207820Y-32344951D01*
X34018414Y-32248444D01*
X34018413Y-32248443D01*
X34018412Y-32248443D01*
X33816243Y-32182754D01*
X33816241Y-32182753D01*
X33816240Y-32182753D01*
X33654957Y-32157208D01*
X33606287Y-32149500D01*
X33393713Y-32149500D01*
X33345042Y-32157208D01*
X33183760Y-32182753D01*
X32981585Y-32248444D01*
X32792179Y-32344951D01*
X32620213Y-32469890D01*
X32469890Y-32620213D01*
X32344951Y-32792179D01*
X32248444Y-32981585D01*
X32182753Y-33183760D01*
X32149500Y-33393713D01*
X30300500Y-33393713D01*
X30300500Y-30804327D01*
X30301561Y-30788142D01*
X30314906Y-30686776D01*
X30323284Y-30655508D01*
X30360740Y-30565081D01*
X30376923Y-30537050D01*
X30436513Y-30459392D01*
X30459392Y-30436513D01*
X30537050Y-30376923D01*
X30565079Y-30360740D01*
X30655509Y-30323283D01*
X30686775Y-30314906D01*
X30788143Y-30301561D01*
X30804328Y-30300500D01*
X119195672Y-30300500D01*
X119211857Y-30301561D01*
G37*
%TD.AperFunction*%
%TD*%
M02*
