%TF.GenerationSoftware,KiCad,Pcbnew,10.0.5*%
%TF.CreationDate,2026-08-22T14:37:12+02:00*%
%TF.ProjectId,flappy-esp32c3,666c6170-7079-42d6-9573-70333263332e,A*%
%TF.SameCoordinates,Original*%
%TF.FileFunction,Legend,Bot*%
%TF.FilePolarity,Positive*%
%FSLAX46Y46*%
G04 Gerber Fmt 4.6, Leading zero omitted, Abs format (unit mm)*
G04 Created by KiCad (PCBNEW 10.0.5) date 2026-08-22 14:37:12*
%MOMM*%
%LPD*%
G01*
G04 APERTURE LIST*
G04 Aperture macros list*
%AMRoundRect*
0 Rectangle with rounded corners*
0 $1 Rounding radius*
0 $2 $3 $4 $5 $6 $7 $8 $9 X,Y pos of 4 corners*
0 Add a 4 corners polygon primitive as box body*
4,1,4,$2,$3,$4,$5,$6,$7,$8,$9,$2,$3,0*
0 Add four circle primitives for the rounded corners*
1,1,$1+$1,$2,$3*
1,1,$1+$1,$4,$5*
1,1,$1+$1,$6,$7*
1,1,$1+$1,$8,$9*
0 Add four rect primitives between the rounded corners*
20,1,$1+$1,$2,$3,$4,$5,0*
20,1,$1+$1,$4,$5,$6,$7,0*
20,1,$1+$1,$6,$7,$8,$9,0*
20,1,$1+$1,$8,$9,$2,$3,0*%
G04 Aperture macros list end*
%ADD10C,0.176000*%
%ADD11C,0.256000*%
%ADD12C,2.200000*%
%ADD13RoundRect,0.250000X-0.600000X-0.725000X0.600000X-0.725000X0.600000X0.725000X-0.600000X0.725000X0*%
%ADD14O,1.700000X1.950000*%
%ADD15RoundRect,0.250000X-0.600000X-0.750000X0.600000X-0.750000X0.600000X0.750000X-0.600000X0.750000X0*%
%ADD16O,1.700000X2.000000*%
%ADD17RoundRect,0.250000X-0.350000X-0.625000X0.350000X-0.625000X0.350000X0.625000X-0.350000X0.625000X0*%
%ADD18O,1.200000X1.750000*%
%ADD19O,2.200000X3.500000*%
%ADD20R,1.500000X2.500000*%
%ADD21O,1.500000X2.500000*%
%ADD22R,1.700000X1.700000*%
%ADD23C,1.700000*%
%ADD24R,2.000000X2.000000*%
%ADD25C,2.000000*%
G04 APERTURE END LIST*
D10*
X83622306Y-89099728D02*
X83622306Y-87999728D01*
X83622306Y-88523538D02*
X82993734Y-88523538D01*
X82993734Y-89099728D02*
X82993734Y-87999728D01*
X82522306Y-88785443D02*
X81998496Y-88785443D01*
X82627068Y-89099728D02*
X82260401Y-87999728D01*
X82260401Y-87999728D02*
X81893734Y-89099728D01*
X81631830Y-87999728D02*
X81369925Y-89099728D01*
X81369925Y-89099728D02*
X81160401Y-88314014D01*
X81160401Y-88314014D02*
X80950877Y-89099728D01*
X80950877Y-89099728D02*
X80688973Y-87999728D01*
X79431830Y-89099728D02*
X79431830Y-87999728D01*
X79431830Y-88523538D02*
X78803258Y-88523538D01*
X78803258Y-89099728D02*
X78803258Y-87999728D01*
X78331830Y-88785443D02*
X77808020Y-88785443D01*
X78436592Y-89099728D02*
X78069925Y-87999728D01*
X78069925Y-87999728D02*
X77703258Y-89099728D01*
X77336592Y-89099728D02*
X77336592Y-87999728D01*
X77336592Y-87999728D02*
X76969925Y-88785443D01*
X76969925Y-88785443D02*
X76603258Y-87999728D01*
X76603258Y-87999728D02*
X76603258Y-89099728D01*
X75712782Y-88523538D02*
X75555639Y-88575919D01*
X75555639Y-88575919D02*
X75503258Y-88628300D01*
X75503258Y-88628300D02*
X75450877Y-88733062D01*
X75450877Y-88733062D02*
X75450877Y-88890205D01*
X75450877Y-88890205D02*
X75503258Y-88994967D01*
X75503258Y-88994967D02*
X75555639Y-89047348D01*
X75555639Y-89047348D02*
X75660401Y-89099728D01*
X75660401Y-89099728D02*
X76079449Y-89099728D01*
X76079449Y-89099728D02*
X76079449Y-87999728D01*
X76079449Y-87999728D02*
X75712782Y-87999728D01*
X75712782Y-87999728D02*
X75608020Y-88052109D01*
X75608020Y-88052109D02*
X75555639Y-88104490D01*
X75555639Y-88104490D02*
X75503258Y-88209252D01*
X75503258Y-88209252D02*
X75503258Y-88314014D01*
X75503258Y-88314014D02*
X75555639Y-88418776D01*
X75555639Y-88418776D02*
X75608020Y-88471157D01*
X75608020Y-88471157D02*
X75712782Y-88523538D01*
X75712782Y-88523538D02*
X76079449Y-88523538D01*
X74979449Y-87999728D02*
X74979449Y-88890205D01*
X74979449Y-88890205D02*
X74927068Y-88994967D01*
X74927068Y-88994967D02*
X74874687Y-89047348D01*
X74874687Y-89047348D02*
X74769925Y-89099728D01*
X74769925Y-89099728D02*
X74560401Y-89099728D01*
X74560401Y-89099728D02*
X74455639Y-89047348D01*
X74455639Y-89047348D02*
X74403258Y-88994967D01*
X74403258Y-88994967D02*
X74350877Y-88890205D01*
X74350877Y-88890205D02*
X74350877Y-87999728D01*
X73198496Y-89099728D02*
X73565163Y-88575919D01*
X73827068Y-89099728D02*
X73827068Y-87999728D01*
X73827068Y-87999728D02*
X73408020Y-87999728D01*
X73408020Y-87999728D02*
X73303258Y-88052109D01*
X73303258Y-88052109D02*
X73250877Y-88104490D01*
X73250877Y-88104490D02*
X73198496Y-88209252D01*
X73198496Y-88209252D02*
X73198496Y-88366395D01*
X73198496Y-88366395D02*
X73250877Y-88471157D01*
X73250877Y-88471157D02*
X73303258Y-88523538D01*
X73303258Y-88523538D02*
X73408020Y-88575919D01*
X73408020Y-88575919D02*
X73827068Y-88575919D01*
X72150877Y-88052109D02*
X72255639Y-87999728D01*
X72255639Y-87999728D02*
X72412782Y-87999728D01*
X72412782Y-87999728D02*
X72569925Y-88052109D01*
X72569925Y-88052109D02*
X72674687Y-88156871D01*
X72674687Y-88156871D02*
X72727068Y-88261633D01*
X72727068Y-88261633D02*
X72779449Y-88471157D01*
X72779449Y-88471157D02*
X72779449Y-88628300D01*
X72779449Y-88628300D02*
X72727068Y-88837824D01*
X72727068Y-88837824D02*
X72674687Y-88942586D01*
X72674687Y-88942586D02*
X72569925Y-89047348D01*
X72569925Y-89047348D02*
X72412782Y-89099728D01*
X72412782Y-89099728D02*
X72308020Y-89099728D01*
X72308020Y-89099728D02*
X72150877Y-89047348D01*
X72150877Y-89047348D02*
X72098496Y-88994967D01*
X72098496Y-88994967D02*
X72098496Y-88628300D01*
X72098496Y-88628300D02*
X72308020Y-88628300D01*
X68746116Y-88523538D02*
X68588973Y-88575919D01*
X68588973Y-88575919D02*
X68536592Y-88628300D01*
X68536592Y-88628300D02*
X68484211Y-88733062D01*
X68484211Y-88733062D02*
X68484211Y-88890205D01*
X68484211Y-88890205D02*
X68536592Y-88994967D01*
X68536592Y-88994967D02*
X68588973Y-89047348D01*
X68588973Y-89047348D02*
X68693735Y-89099728D01*
X68693735Y-89099728D02*
X69112783Y-89099728D01*
X69112783Y-89099728D02*
X69112783Y-87999728D01*
X69112783Y-87999728D02*
X68746116Y-87999728D01*
X68746116Y-87999728D02*
X68641354Y-88052109D01*
X68641354Y-88052109D02*
X68588973Y-88104490D01*
X68588973Y-88104490D02*
X68536592Y-88209252D01*
X68536592Y-88209252D02*
X68536592Y-88314014D01*
X68536592Y-88314014D02*
X68588973Y-88418776D01*
X68588973Y-88418776D02*
X68641354Y-88471157D01*
X68641354Y-88471157D02*
X68746116Y-88523538D01*
X68746116Y-88523538D02*
X69112783Y-88523538D01*
X68065164Y-88785443D02*
X67541354Y-88785443D01*
X68169926Y-89099728D02*
X67803259Y-87999728D01*
X67803259Y-87999728D02*
X67436592Y-89099728D01*
X66441354Y-88994967D02*
X66493735Y-89047348D01*
X66493735Y-89047348D02*
X66650878Y-89099728D01*
X66650878Y-89099728D02*
X66755640Y-89099728D01*
X66755640Y-89099728D02*
X66912783Y-89047348D01*
X66912783Y-89047348D02*
X67017545Y-88942586D01*
X67017545Y-88942586D02*
X67069926Y-88837824D01*
X67069926Y-88837824D02*
X67122307Y-88628300D01*
X67122307Y-88628300D02*
X67122307Y-88471157D01*
X67122307Y-88471157D02*
X67069926Y-88261633D01*
X67069926Y-88261633D02*
X67017545Y-88156871D01*
X67017545Y-88156871D02*
X66912783Y-88052109D01*
X66912783Y-88052109D02*
X66755640Y-87999728D01*
X66755640Y-87999728D02*
X66650878Y-87999728D01*
X66650878Y-87999728D02*
X66493735Y-88052109D01*
X66493735Y-88052109D02*
X66441354Y-88104490D01*
X65969926Y-89099728D02*
X65969926Y-87999728D01*
X65969926Y-88523538D02*
X65341354Y-88523538D01*
X65341354Y-89099728D02*
X65341354Y-87999728D01*
X64817545Y-88523538D02*
X64450878Y-88523538D01*
X64293735Y-89099728D02*
X64817545Y-89099728D01*
X64817545Y-89099728D02*
X64817545Y-87999728D01*
X64817545Y-87999728D02*
X64293735Y-87999728D01*
X63298497Y-89099728D02*
X63822307Y-89099728D01*
X63822307Y-89099728D02*
X63822307Y-87999728D01*
X62722307Y-87999728D02*
X62512783Y-87999728D01*
X62512783Y-87999728D02*
X62408021Y-88052109D01*
X62408021Y-88052109D02*
X62303259Y-88156871D01*
X62303259Y-88156871D02*
X62250878Y-88366395D01*
X62250878Y-88366395D02*
X62250878Y-88733062D01*
X62250878Y-88733062D02*
X62303259Y-88942586D01*
X62303259Y-88942586D02*
X62408021Y-89047348D01*
X62408021Y-89047348D02*
X62512783Y-89099728D01*
X62512783Y-89099728D02*
X62722307Y-89099728D01*
X62722307Y-89099728D02*
X62827069Y-89047348D01*
X62827069Y-89047348D02*
X62931831Y-88942586D01*
X62931831Y-88942586D02*
X62984212Y-88733062D01*
X62984212Y-88733062D02*
X62984212Y-88366395D01*
X62984212Y-88366395D02*
X62931831Y-88156871D01*
X62931831Y-88156871D02*
X62827069Y-88052109D01*
X62827069Y-88052109D02*
X62722307Y-87999728D01*
X61150878Y-89099728D02*
X61517545Y-88575919D01*
X61779450Y-89099728D02*
X61779450Y-87999728D01*
X61779450Y-87999728D02*
X61360402Y-87999728D01*
X61360402Y-87999728D02*
X61255640Y-88052109D01*
X61255640Y-88052109D02*
X61203259Y-88104490D01*
X61203259Y-88104490D02*
X61150878Y-88209252D01*
X61150878Y-88209252D02*
X61150878Y-88366395D01*
X61150878Y-88366395D02*
X61203259Y-88471157D01*
X61203259Y-88471157D02*
X61255640Y-88523538D01*
X61255640Y-88523538D02*
X61360402Y-88575919D01*
X61360402Y-88575919D02*
X61779450Y-88575919D01*
X60679450Y-89099728D02*
X60679450Y-87999728D01*
X60679450Y-87999728D02*
X60260402Y-87999728D01*
X60260402Y-87999728D02*
X60155640Y-88052109D01*
X60155640Y-88052109D02*
X60103259Y-88104490D01*
X60103259Y-88104490D02*
X60050878Y-88209252D01*
X60050878Y-88209252D02*
X60050878Y-88366395D01*
X60050878Y-88366395D02*
X60103259Y-88471157D01*
X60103259Y-88471157D02*
X60155640Y-88523538D01*
X60155640Y-88523538D02*
X60260402Y-88575919D01*
X60260402Y-88575919D02*
X60679450Y-88575919D01*
X58950878Y-89099728D02*
X59317545Y-88575919D01*
X59579450Y-89099728D02*
X59579450Y-87999728D01*
X59579450Y-87999728D02*
X59160402Y-87999728D01*
X59160402Y-87999728D02*
X59055640Y-88052109D01*
X59055640Y-88052109D02*
X59003259Y-88104490D01*
X59003259Y-88104490D02*
X58950878Y-88209252D01*
X58950878Y-88209252D02*
X58950878Y-88366395D01*
X58950878Y-88366395D02*
X59003259Y-88471157D01*
X59003259Y-88471157D02*
X59055640Y-88523538D01*
X59055640Y-88523538D02*
X59160402Y-88575919D01*
X59160402Y-88575919D02*
X59579450Y-88575919D01*
X58269926Y-87999728D02*
X58060402Y-87999728D01*
X58060402Y-87999728D02*
X57955640Y-88052109D01*
X57955640Y-88052109D02*
X57850878Y-88156871D01*
X57850878Y-88156871D02*
X57798497Y-88366395D01*
X57798497Y-88366395D02*
X57798497Y-88733062D01*
X57798497Y-88733062D02*
X57850878Y-88942586D01*
X57850878Y-88942586D02*
X57955640Y-89047348D01*
X57955640Y-89047348D02*
X58060402Y-89099728D01*
X58060402Y-89099728D02*
X58269926Y-89099728D01*
X58269926Y-89099728D02*
X58374688Y-89047348D01*
X58374688Y-89047348D02*
X58479450Y-88942586D01*
X58479450Y-88942586D02*
X58531831Y-88733062D01*
X58531831Y-88733062D02*
X58531831Y-88366395D01*
X58531831Y-88366395D02*
X58479450Y-88156871D01*
X58479450Y-88156871D02*
X58374688Y-88052109D01*
X58374688Y-88052109D02*
X58269926Y-87999728D01*
X57012783Y-87999728D02*
X57012783Y-88785443D01*
X57012783Y-88785443D02*
X57065164Y-88942586D01*
X57065164Y-88942586D02*
X57169926Y-89047348D01*
X57169926Y-89047348D02*
X57327069Y-89099728D01*
X57327069Y-89099728D02*
X57431831Y-89099728D01*
X56488974Y-88523538D02*
X56122307Y-88523538D01*
X55965164Y-89099728D02*
X56488974Y-89099728D01*
X56488974Y-89099728D02*
X56488974Y-87999728D01*
X56488974Y-87999728D02*
X55965164Y-87999728D01*
X55493736Y-89099728D02*
X55493736Y-87999728D01*
X54865164Y-89099728D02*
X55336593Y-88471157D01*
X54865164Y-87999728D02*
X55493736Y-88628300D01*
X54550879Y-87999728D02*
X53922307Y-87999728D01*
X54236593Y-89099728D02*
X54236593Y-87999728D01*
X52769927Y-88104490D02*
X52717546Y-88052109D01*
X52717546Y-88052109D02*
X52612784Y-87999728D01*
X52612784Y-87999728D02*
X52350879Y-87999728D01*
X52350879Y-87999728D02*
X52246117Y-88052109D01*
X52246117Y-88052109D02*
X52193736Y-88104490D01*
X52193736Y-88104490D02*
X52141355Y-88209252D01*
X52141355Y-88209252D02*
X52141355Y-88314014D01*
X52141355Y-88314014D02*
X52193736Y-88471157D01*
X52193736Y-88471157D02*
X52822308Y-89099728D01*
X52822308Y-89099728D02*
X52141355Y-89099728D01*
X51460403Y-87999728D02*
X51355641Y-87999728D01*
X51355641Y-87999728D02*
X51250879Y-88052109D01*
X51250879Y-88052109D02*
X51198498Y-88104490D01*
X51198498Y-88104490D02*
X51146117Y-88209252D01*
X51146117Y-88209252D02*
X51093736Y-88418776D01*
X51093736Y-88418776D02*
X51093736Y-88680681D01*
X51093736Y-88680681D02*
X51146117Y-88890205D01*
X51146117Y-88890205D02*
X51198498Y-88994967D01*
X51198498Y-88994967D02*
X51250879Y-89047348D01*
X51250879Y-89047348D02*
X51355641Y-89099728D01*
X51355641Y-89099728D02*
X51460403Y-89099728D01*
X51460403Y-89099728D02*
X51565165Y-89047348D01*
X51565165Y-89047348D02*
X51617546Y-88994967D01*
X51617546Y-88994967D02*
X51669927Y-88890205D01*
X51669927Y-88890205D02*
X51722308Y-88680681D01*
X51722308Y-88680681D02*
X51722308Y-88418776D01*
X51722308Y-88418776D02*
X51669927Y-88209252D01*
X51669927Y-88209252D02*
X51617546Y-88104490D01*
X51617546Y-88104490D02*
X51565165Y-88052109D01*
X51565165Y-88052109D02*
X51460403Y-87999728D01*
X50674689Y-88104490D02*
X50622308Y-88052109D01*
X50622308Y-88052109D02*
X50517546Y-87999728D01*
X50517546Y-87999728D02*
X50255641Y-87999728D01*
X50255641Y-87999728D02*
X50150879Y-88052109D01*
X50150879Y-88052109D02*
X50098498Y-88104490D01*
X50098498Y-88104490D02*
X50046117Y-88209252D01*
X50046117Y-88209252D02*
X50046117Y-88314014D01*
X50046117Y-88314014D02*
X50098498Y-88471157D01*
X50098498Y-88471157D02*
X50727070Y-89099728D01*
X50727070Y-89099728D02*
X50046117Y-89099728D01*
X49103260Y-87999728D02*
X49312784Y-87999728D01*
X49312784Y-87999728D02*
X49417546Y-88052109D01*
X49417546Y-88052109D02*
X49469927Y-88104490D01*
X49469927Y-88104490D02*
X49574689Y-88261633D01*
X49574689Y-88261633D02*
X49627070Y-88471157D01*
X49627070Y-88471157D02*
X49627070Y-88890205D01*
X49627070Y-88890205D02*
X49574689Y-88994967D01*
X49574689Y-88994967D02*
X49522308Y-89047348D01*
X49522308Y-89047348D02*
X49417546Y-89099728D01*
X49417546Y-89099728D02*
X49208022Y-89099728D01*
X49208022Y-89099728D02*
X49103260Y-89047348D01*
X49103260Y-89047348D02*
X49050879Y-88994967D01*
X49050879Y-88994967D02*
X48998498Y-88890205D01*
X48998498Y-88890205D02*
X48998498Y-88628300D01*
X48998498Y-88628300D02*
X49050879Y-88523538D01*
X49050879Y-88523538D02*
X49103260Y-88471157D01*
X49103260Y-88471157D02*
X49208022Y-88418776D01*
X49208022Y-88418776D02*
X49417546Y-88418776D01*
X49417546Y-88418776D02*
X49522308Y-88471157D01*
X49522308Y-88471157D02*
X49574689Y-88523538D01*
X49574689Y-88523538D02*
X49627070Y-88628300D01*
D11*
X82917293Y-85888783D02*
X83450626Y-85888783D01*
X83450626Y-86726878D02*
X83450626Y-85126878D01*
X83450626Y-85126878D02*
X82688721Y-85126878D01*
X81317292Y-86726878D02*
X82079197Y-86726878D01*
X82079197Y-86726878D02*
X82079197Y-85126878D01*
X80860150Y-86269735D02*
X80098245Y-86269735D01*
X81012531Y-86726878D02*
X80479197Y-85126878D01*
X80479197Y-85126878D02*
X79945864Y-86726878D01*
X79412530Y-86726878D02*
X79412530Y-85126878D01*
X79412530Y-85126878D02*
X78803006Y-85126878D01*
X78803006Y-85126878D02*
X78650625Y-85203068D01*
X78650625Y-85203068D02*
X78574435Y-85279259D01*
X78574435Y-85279259D02*
X78498244Y-85431640D01*
X78498244Y-85431640D02*
X78498244Y-85660211D01*
X78498244Y-85660211D02*
X78574435Y-85812592D01*
X78574435Y-85812592D02*
X78650625Y-85888783D01*
X78650625Y-85888783D02*
X78803006Y-85964973D01*
X78803006Y-85964973D02*
X79412530Y-85964973D01*
X77812530Y-86726878D02*
X77812530Y-85126878D01*
X77812530Y-85126878D02*
X77203006Y-85126878D01*
X77203006Y-85126878D02*
X77050625Y-85203068D01*
X77050625Y-85203068D02*
X76974435Y-85279259D01*
X76974435Y-85279259D02*
X76898244Y-85431640D01*
X76898244Y-85431640D02*
X76898244Y-85660211D01*
X76898244Y-85660211D02*
X76974435Y-85812592D01*
X76974435Y-85812592D02*
X77050625Y-85888783D01*
X77050625Y-85888783D02*
X77203006Y-85964973D01*
X77203006Y-85964973D02*
X77812530Y-85964973D01*
X75907768Y-85964973D02*
X75907768Y-86726878D01*
X76441102Y-85126878D02*
X75907768Y-85964973D01*
X75907768Y-85964973D02*
X75374435Y-85126878D01*
X73088720Y-85888783D02*
X72860148Y-85964973D01*
X72860148Y-85964973D02*
X72783958Y-86041164D01*
X72783958Y-86041164D02*
X72707767Y-86193545D01*
X72707767Y-86193545D02*
X72707767Y-86422116D01*
X72707767Y-86422116D02*
X72783958Y-86574497D01*
X72783958Y-86574497D02*
X72860148Y-86650688D01*
X72860148Y-86650688D02*
X73012529Y-86726878D01*
X73012529Y-86726878D02*
X73622053Y-86726878D01*
X73622053Y-86726878D02*
X73622053Y-85126878D01*
X73622053Y-85126878D02*
X73088720Y-85126878D01*
X73088720Y-85126878D02*
X72936339Y-85203068D01*
X72936339Y-85203068D02*
X72860148Y-85279259D01*
X72860148Y-85279259D02*
X72783958Y-85431640D01*
X72783958Y-85431640D02*
X72783958Y-85584021D01*
X72783958Y-85584021D02*
X72860148Y-85736402D01*
X72860148Y-85736402D02*
X72936339Y-85812592D01*
X72936339Y-85812592D02*
X73088720Y-85888783D01*
X73088720Y-85888783D02*
X73622053Y-85888783D01*
X72022053Y-86726878D02*
X72022053Y-85126878D01*
X70345862Y-86726878D02*
X70879196Y-85964973D01*
X71260148Y-86726878D02*
X71260148Y-85126878D01*
X71260148Y-85126878D02*
X70650624Y-85126878D01*
X70650624Y-85126878D02*
X70498243Y-85203068D01*
X70498243Y-85203068D02*
X70422053Y-85279259D01*
X70422053Y-85279259D02*
X70345862Y-85431640D01*
X70345862Y-85431640D02*
X70345862Y-85660211D01*
X70345862Y-85660211D02*
X70422053Y-85812592D01*
X70422053Y-85812592D02*
X70498243Y-85888783D01*
X70498243Y-85888783D02*
X70650624Y-85964973D01*
X70650624Y-85964973D02*
X71260148Y-85964973D01*
X69660148Y-86726878D02*
X69660148Y-85126878D01*
X69660148Y-85126878D02*
X69279196Y-85126878D01*
X69279196Y-85126878D02*
X69050624Y-85203068D01*
X69050624Y-85203068D02*
X68898243Y-85355449D01*
X68898243Y-85355449D02*
X68822053Y-85507830D01*
X68822053Y-85507830D02*
X68745862Y-85812592D01*
X68745862Y-85812592D02*
X68745862Y-86041164D01*
X68745862Y-86041164D02*
X68822053Y-86345926D01*
X68822053Y-86345926D02*
X68898243Y-86498307D01*
X68898243Y-86498307D02*
X69050624Y-86650688D01*
X69050624Y-86650688D02*
X69279196Y-86726878D01*
X69279196Y-86726878D02*
X69660148Y-86726878D01*
X66841100Y-85888783D02*
X66307767Y-85888783D01*
X66079195Y-86726878D02*
X66841100Y-86726878D01*
X66841100Y-86726878D02*
X66841100Y-85126878D01*
X66841100Y-85126878D02*
X66079195Y-85126878D01*
X65469672Y-86650688D02*
X65241100Y-86726878D01*
X65241100Y-86726878D02*
X64860148Y-86726878D01*
X64860148Y-86726878D02*
X64707767Y-86650688D01*
X64707767Y-86650688D02*
X64631576Y-86574497D01*
X64631576Y-86574497D02*
X64555386Y-86422116D01*
X64555386Y-86422116D02*
X64555386Y-86269735D01*
X64555386Y-86269735D02*
X64631576Y-86117354D01*
X64631576Y-86117354D02*
X64707767Y-86041164D01*
X64707767Y-86041164D02*
X64860148Y-85964973D01*
X64860148Y-85964973D02*
X65164910Y-85888783D01*
X65164910Y-85888783D02*
X65317291Y-85812592D01*
X65317291Y-85812592D02*
X65393481Y-85736402D01*
X65393481Y-85736402D02*
X65469672Y-85584021D01*
X65469672Y-85584021D02*
X65469672Y-85431640D01*
X65469672Y-85431640D02*
X65393481Y-85279259D01*
X65393481Y-85279259D02*
X65317291Y-85203068D01*
X65317291Y-85203068D02*
X65164910Y-85126878D01*
X65164910Y-85126878D02*
X64783957Y-85126878D01*
X64783957Y-85126878D02*
X64555386Y-85203068D01*
X63869671Y-86726878D02*
X63869671Y-85126878D01*
X63869671Y-85126878D02*
X63260147Y-85126878D01*
X63260147Y-85126878D02*
X63107766Y-85203068D01*
X63107766Y-85203068D02*
X63031576Y-85279259D01*
X63031576Y-85279259D02*
X62955385Y-85431640D01*
X62955385Y-85431640D02*
X62955385Y-85660211D01*
X62955385Y-85660211D02*
X63031576Y-85812592D01*
X63031576Y-85812592D02*
X63107766Y-85888783D01*
X63107766Y-85888783D02*
X63260147Y-85964973D01*
X63260147Y-85964973D02*
X63869671Y-85964973D01*
X62422052Y-85126878D02*
X61431576Y-85126878D01*
X61431576Y-85126878D02*
X61964909Y-85736402D01*
X61964909Y-85736402D02*
X61736338Y-85736402D01*
X61736338Y-85736402D02*
X61583957Y-85812592D01*
X61583957Y-85812592D02*
X61507766Y-85888783D01*
X61507766Y-85888783D02*
X61431576Y-86041164D01*
X61431576Y-86041164D02*
X61431576Y-86422116D01*
X61431576Y-86422116D02*
X61507766Y-86574497D01*
X61507766Y-86574497D02*
X61583957Y-86650688D01*
X61583957Y-86650688D02*
X61736338Y-86726878D01*
X61736338Y-86726878D02*
X62193481Y-86726878D01*
X62193481Y-86726878D02*
X62345862Y-86650688D01*
X62345862Y-86650688D02*
X62422052Y-86574497D01*
X60822052Y-85279259D02*
X60745861Y-85203068D01*
X60745861Y-85203068D02*
X60593480Y-85126878D01*
X60593480Y-85126878D02*
X60212528Y-85126878D01*
X60212528Y-85126878D02*
X60060147Y-85203068D01*
X60060147Y-85203068D02*
X59983956Y-85279259D01*
X59983956Y-85279259D02*
X59907766Y-85431640D01*
X59907766Y-85431640D02*
X59907766Y-85584021D01*
X59907766Y-85584021D02*
X59983956Y-85812592D01*
X59983956Y-85812592D02*
X60898242Y-86726878D01*
X60898242Y-86726878D02*
X59907766Y-86726878D01*
X59222051Y-86117354D02*
X58003004Y-86117354D01*
X56326813Y-86574497D02*
X56403004Y-86650688D01*
X56403004Y-86650688D02*
X56631575Y-86726878D01*
X56631575Y-86726878D02*
X56783956Y-86726878D01*
X56783956Y-86726878D02*
X57012528Y-86650688D01*
X57012528Y-86650688D02*
X57164909Y-86498307D01*
X57164909Y-86498307D02*
X57241099Y-86345926D01*
X57241099Y-86345926D02*
X57317290Y-86041164D01*
X57317290Y-86041164D02*
X57317290Y-85812592D01*
X57317290Y-85812592D02*
X57241099Y-85507830D01*
X57241099Y-85507830D02*
X57164909Y-85355449D01*
X57164909Y-85355449D02*
X57012528Y-85203068D01*
X57012528Y-85203068D02*
X56783956Y-85126878D01*
X56783956Y-85126878D02*
X56631575Y-85126878D01*
X56631575Y-85126878D02*
X56403004Y-85203068D01*
X56403004Y-85203068D02*
X56326813Y-85279259D01*
X55793480Y-85126878D02*
X54803004Y-85126878D01*
X54803004Y-85126878D02*
X55336337Y-85736402D01*
X55336337Y-85736402D02*
X55107766Y-85736402D01*
X55107766Y-85736402D02*
X54955385Y-85812592D01*
X54955385Y-85812592D02*
X54879194Y-85888783D01*
X54879194Y-85888783D02*
X54803004Y-86041164D01*
X54803004Y-86041164D02*
X54803004Y-86422116D01*
X54803004Y-86422116D02*
X54879194Y-86574497D01*
X54879194Y-86574497D02*
X54955385Y-86650688D01*
X54955385Y-86650688D02*
X55107766Y-86726878D01*
X55107766Y-86726878D02*
X55564909Y-86726878D01*
X55564909Y-86726878D02*
X55717290Y-86650688D01*
X55717290Y-86650688D02*
X55793480Y-86574497D01*
X49545859Y-86726878D02*
X50079193Y-85964973D01*
X50460145Y-86726878D02*
X50460145Y-85126878D01*
X50460145Y-85126878D02*
X49850621Y-85126878D01*
X49850621Y-85126878D02*
X49698240Y-85203068D01*
X49698240Y-85203068D02*
X49622050Y-85279259D01*
X49622050Y-85279259D02*
X49545859Y-85431640D01*
X49545859Y-85431640D02*
X49545859Y-85660211D01*
X49545859Y-85660211D02*
X49622050Y-85812592D01*
X49622050Y-85812592D02*
X49698240Y-85888783D01*
X49698240Y-85888783D02*
X49850621Y-85964973D01*
X49850621Y-85964973D02*
X50460145Y-85964973D01*
X48860145Y-85888783D02*
X48326812Y-85888783D01*
X48098240Y-86726878D02*
X48860145Y-86726878D01*
X48860145Y-86726878D02*
X48860145Y-85126878D01*
X48860145Y-85126878D02*
X48098240Y-85126878D01*
X47641098Y-85126878D02*
X47107764Y-86726878D01*
X47107764Y-86726878D02*
X46574431Y-85126878D01*
X46041097Y-86574497D02*
X45964907Y-86650688D01*
X45964907Y-86650688D02*
X46041097Y-86726878D01*
X46041097Y-86726878D02*
X46117288Y-86650688D01*
X46117288Y-86650688D02*
X46041097Y-86574497D01*
X46041097Y-86574497D02*
X46041097Y-86726878D01*
X44136335Y-86269735D02*
X43374430Y-86269735D01*
X44288716Y-86726878D02*
X43755382Y-85126878D01*
X43755382Y-85126878D02*
X43222049Y-86726878D01*
%LPC*%
D12*
%TO.C,H3*%
X115000000Y-63000000D03*
%TD*%
%TO.C,H4*%
X33500000Y-75000000D03*
%TD*%
D13*
%TO.C,J3*%
X114000000Y-86000000D03*
D14*
X114000000Y-83500000D03*
X114000000Y-81000000D03*
X114000000Y-78500000D03*
X114000000Y-76000000D03*
X114000000Y-73500000D03*
X114000000Y-71000000D03*
%TD*%
D12*
%TO.C,H1*%
X33500000Y-33500000D03*
%TD*%
D15*
%TO.C,J4*%
X34000000Y-85000000D03*
D16*
X36500000Y-85000000D03*
%TD*%
D17*
%TO.C,J2*%
X106000000Y-38000000D03*
D18*
X108000000Y-38000000D03*
%TD*%
D19*
%TO.C,SW1*%
X99900000Y-52000000D03*
X108100000Y-52000000D03*
D20*
X102000000Y-52000000D03*
D21*
X104000000Y-52000000D03*
X106000000Y-52000000D03*
%TD*%
D12*
%TO.C,H2*%
X115000000Y-33500000D03*
%TD*%
D22*
%TO.C,J1*%
X43500000Y-38000000D03*
D23*
X43500000Y-40540000D03*
X43500000Y-43080000D03*
X43500000Y-45620000D03*
X43500000Y-48160000D03*
X43500000Y-50700000D03*
%TD*%
D24*
%TO.C,LS1*%
X44000000Y-60000000D03*
D25*
X51600000Y-60000000D03*
%TD*%
%LPD*%
M02*
