M48
; DRILL file KiCad 10.0.5 date 2026-09-06T03:15:20
; FORMAT={-:-/ absolute / metric / decimal}
; #@! TF.CreationDate,2026-09-06T03:15:20+02:00
; #@! TF.GenerationSoftware,Kicad,Pcbnew,10.0.5
; #@! TF.FileFunction,Plated,1,2,PTH
FMAT,2
METRIC
; #@! TA.AperFunction,Plated,PTH,ViaDrill
T1C0.250
; #@! TA.AperFunction,Plated,PTH,ViaDrill
T2C0.300
; #@! TA.AperFunction,Plated,PTH,ComponentDrill
T3C0.300
; #@! TA.AperFunction,Plated,PTH,ComponentDrill
T4C0.600
; #@! TA.AperFunction,Plated,PTH,ComponentDrill
T5C0.750
; #@! TA.AperFunction,Plated,PTH,ComponentDrill
T6C0.800
; #@! TA.AperFunction,Plated,PTH,ComponentDrill
T7C0.950
; #@! TA.AperFunction,Plated,PTH,ComponentDrill
T8C1.000
; #@! TA.AperFunction,Plated,PTH,ComponentDrill
T9C1.500
%
G90
G05
T1
X8.0Y-50.0
X9.5Y-22.0
X9.85Y-19.65
X10.55Y-20.35
X16.35Y-20.4
X16.8Y-13.4
X16.8Y-14.5
X18.2Y-26.25
X19.5Y-23.0
X20.45Y-27.65
X20.8Y-24.45
X20.8Y-25.2
X21.5Y-21.5
X21.5Y-26.45
X21.55Y-24.45
X22.3Y-25.3
X22.45Y-35.05
X23.25Y-20.95
X23.3Y-25.65
X24.25Y-22.8
X25.4Y-24.7
X25.4Y-25.7
X25.6Y-27.05
X26.3Y-23.35
X27.9Y-28.75
X27.95Y-30.6
X28.35Y-28.15
X29.35Y-28.3
X32.5Y-45.7
X33.3Y-46.5
X35.35Y-24.85
X35.35Y-26.45
X35.65Y-1.85
X39.15Y-3.45
X39.25Y-39.4
X39.25Y-43.15
X39.65Y-23.95
X39.65Y-26.35
X41.0Y-27.55
X41.4Y-24.85
X41.4Y-26.45
X41.8Y-7.45
X41.85Y-9.1
X42.65Y-27.3
X43.65Y-34.35
X43.95Y-44.05
X44.05Y-7.45
X44.05Y-9.1
X44.15Y-40.0
X44.15Y-42.1
X44.25Y-42.85
X44.45Y-43.55
X44.65Y-34.35
X44.7Y-39.5
X45.75Y-38.8
X46.4Y-22.2
X46.5Y-25.2
X46.5Y-29.0
X46.5Y-32.8
X47.45Y-24.2
X47.6Y-15.85
X47.9Y-24.7
X47.9Y-26.5
X48.1Y-16.75
X48.1Y-18.2
X48.7Y-24.9
X48.7Y-38.8
X48.8Y-18.25
X49.35Y-24.7
X49.35Y-26.5
X49.6Y-16.8
X49.6Y-18.25
X50.05Y-26.55
X50.1Y-24.7
X50.15Y-21.8
X51.5Y-26.45
X51.5Y-30.25
X51.55Y-34.55
X51.6Y-28.85
X52.6Y-19.4
X52.6Y-20.1
X53.1Y-24.0
X53.15Y-30.4
X53.4Y-21.65
X53.4Y-36.45
X53.45Y-29.8
X53.55Y-30.95
X53.65Y-18.35
X54.1Y-14.45
X54.1Y-24.0
X54.1Y-24.75
X55.1Y-24.5
X56.55Y-23.0
X56.95Y-1.2
X56.95Y-2.55
X57.25Y-3.55
X57.55Y-15.65
X57.55Y-25.8
X57.95Y-2.85
X58.75Y-22.5
X59.35Y-9.4
X59.85Y-22.5
X59.9Y-24.25
X59.95Y-5.35
X59.95Y-6.15
X59.95Y-9.7
X60.55Y-15.65
X60.9Y-31.9
X62.0Y-3.15
X63.05Y-2.75
X64.55Y-3.75
X65.95Y-2.75
X66.55Y-3.75
X66.85Y-31.05
X67.45Y-29.4
X67.45Y-30.6
X67.65Y-22.8
X67.65Y-24.6
X69.95Y-23.4
X69.95Y-24.6
X70.35Y-40.35
X70.35Y-41.35
X78.65Y-19.8
X79.35Y-17.05
X79.75Y-19.8
X80.1Y-17.8
X80.15Y-11.35
X80.2Y-10.6
X80.4Y-13.25
X80.4Y-14.45
X81.4Y-13.25
X81.6Y-10.45
X81.65Y-11.25
X81.65Y-12.25
X81.7Y-16.2
T2
X3.0Y-8.0
X3.0Y-13.0
X3.0Y-28.0
X3.0Y-33.0
X3.0Y-38.0
X3.0Y-43.0
X3.0Y-48.0
X3.0Y-53.0
X8.0Y-3.0
X8.0Y-8.0
X8.0Y-13.0
X8.0Y-18.0
X8.0Y-22.0
X8.0Y-28.0
X8.0Y-33.0
X8.0Y-38.0
X8.0Y-48.0
X8.0Y-53.0
X8.0Y-58.0
X9.1Y-40.65
X10.9Y-40.0
X12.0Y-34.0
X13.0Y-3.0
X13.0Y-8.0
X13.0Y-13.0
X13.0Y-18.0
X13.0Y-23.0
X13.0Y-33.0
X13.0Y-38.0
X13.0Y-43.0
X13.0Y-48.0
X13.0Y-53.0
X13.0Y-58.0
X14.0Y-48.0
X15.0Y-21.45
X15.0Y-42.0
X15.7Y-32.3
X15.7Y-33.6
X17.05Y-40.95
X18.0Y-3.0
X18.0Y-8.0
X18.0Y-13.0
X18.0Y-18.0
X18.0Y-21.45
X18.0Y-23.0
X18.0Y-28.0
X18.0Y-43.0
X18.0Y-48.0
X18.0Y-53.0
X18.0Y-58.0
X18.05Y-50.95
X18.65Y-26.8
X19.45Y-24.6
X19.45Y-26.8
X20.25Y-26.8
X20.3Y-36.45
X20.3Y-48.45
X20.3Y-49.65
X20.85Y-37.6
X20.85Y-38.8
X20.9Y-22.15
X20.9Y-23.15
X21.05Y-23.9
X22.05Y-18.0
X22.5Y-35.65
X23.0Y-3.0
X23.0Y-8.0
X23.0Y-18.0
X23.0Y-23.0
X23.0Y-28.0
X23.0Y-48.0
X23.0Y-53.0
X23.0Y-58.0
X23.15Y-19.75
X24.0Y-30.0
X24.5Y-19.75
X26.05Y-16.0
X27.0Y-19.0
X27.0Y-24.45
X27.9Y-47.0
X27.9Y-49.95
X28.0Y-3.0
X28.0Y-8.0
X28.0Y-13.0
X28.0Y-18.0
X28.0Y-30.0
X28.0Y-43.0
X28.0Y-48.0
X28.0Y-58.0
X29.05Y-8.8
X30.0Y-24.45
X30.1Y-9.85
X30.1Y-50.0
X32.0Y-8.95
X32.45Y-10.75
X33.0Y-23.0
X33.0Y-33.0
X33.0Y-38.0
X33.0Y-58.0
X33.9Y-14.6
X34.0Y-41.0
X34.0Y-44.95
X35.3Y-23.0
X35.4Y-16.3
X35.6Y-9.7
X36.0Y-13.8
X36.3Y-15.4
X36.5Y-21.5
X36.5Y-26.75
X37.0Y-1.45
X37.05Y-6.5
X38.0Y-18.0
X38.0Y-38.0
X38.0Y-53.0
X38.0Y-58.0
X38.35Y-41.95
X38.35Y-45.2
X38.9Y-47.0
X39.25Y-46.1
X39.35Y-1.6
X40.0Y-17.45
X40.25Y-2.5
X40.6Y-41.0
X40.6Y-42.7
X41.25Y-13.0
X43.0Y-3.0
X43.0Y-8.0
X43.0Y-13.0
X43.0Y-17.45
X43.0Y-23.0
X43.0Y-38.0
X43.0Y-53.0
X43.0Y-58.0
X44.0Y-24.45
X45.9Y-47.0
X48.0Y-3.0
X48.0Y-8.0
X48.0Y-13.0
X48.0Y-28.0
X48.0Y-38.0
X48.0Y-43.0
X48.0Y-48.0
X48.0Y-58.0
X49.85Y-6.05
X52.0Y-23.0
X53.0Y-3.0
X53.0Y-8.0
X53.0Y-13.0
X53.0Y-23.0
X53.0Y-33.0
X53.0Y-58.0
X54.9Y-47.0
X57.5Y-1.95
X58.0Y-33.0
X58.0Y-38.0
X58.0Y-43.0
X58.0Y-48.0
X58.0Y-58.0
X58.65Y-31.35
X59.05Y-36.0
X59.3Y-24.65
X59.3Y-25.95
X59.55Y-30.45
X60.0Y-1.95
X61.65Y-33.35
X62.2Y-32.0
X62.55Y-34.25
X63.0Y-18.0
X63.0Y-23.0
X63.0Y-28.0
X63.0Y-43.0
X63.0Y-48.0
X63.0Y-53.0
X63.0Y-58.0
X63.9Y-33.7
X65.0Y-17.0
X65.0Y-30.0
X65.05Y-13.0
X65.55Y-4.25
X68.0Y-13.0
X68.0Y-28.0
X68.0Y-33.0
X68.0Y-38.0
X68.0Y-43.0
X68.0Y-48.0
X68.0Y-53.0
X68.0Y-58.0
X69.0Y-17.0
X69.0Y-47.0
X72.0Y-34.95
X73.0Y-13.0
X73.0Y-18.0
X73.0Y-43.0
X73.0Y-48.0
X73.0Y-53.0
X73.0Y-58.0
X75.0Y-22.0
X78.0Y-3.0
X78.0Y-4.0
X78.0Y-8.0
X78.0Y-18.0
X78.0Y-23.0
X78.0Y-33.0
X78.0Y-38.0
X78.0Y-43.0
X78.0Y-58.0
X79.1Y-47.65
X80.9Y-47.0
X81.0Y-29.85
X81.9Y-19.0
X82.6Y-8.8
X82.6Y-15.2
X83.0Y-3.0
X83.0Y-18.0
X83.0Y-23.0
X83.0Y-28.0
X83.0Y-33.0
X83.0Y-38.0
X83.0Y-43.0
X83.0Y-48.0
X83.0Y-53.0
X83.0Y-58.0
X88.0Y-13.0
X88.0Y-18.0
X88.0Y-23.0
X88.0Y-28.0
X88.0Y-33.0
X88.0Y-38.0
X88.0Y-43.0
X88.0Y-48.0
X88.0Y-53.0
T3
X49.86Y-6.65
X49.86Y-7.75
X50.41Y-6.1
X50.41Y-7.2
X50.41Y-8.3
X50.96Y-6.65
X50.96Y-7.75
X51.51Y-6.1
X51.51Y-7.2
X51.51Y-8.3
X52.06Y-6.65
X52.06Y-7.75
T5
X6.0Y-31.0
X6.0Y-33.0
X6.0Y-40.0
X6.0Y-42.0
T6
X5.0Y-18.0
X5.0Y-20.0
X5.0Y-22.0
T7
X45.5Y-54.0
X48.0Y-54.0
X50.5Y-54.0
X53.0Y-54.0
X55.5Y-54.0
X58.0Y-54.0
X60.5Y-54.0
X63.0Y-54.0
T8
X26.0Y-54.0
X28.5Y-54.0
X77.0Y-53.0
X79.5Y-53.0
T9
X5.0Y-15.9
X5.0Y-24.1
T4
X82.645Y-7.68G85X83.745Y-7.68
G05
X82.645Y-16.32G85X83.745Y-16.32
G05
X86.975Y-7.68G85X87.775Y-7.68
G05
X86.975Y-16.32G85X87.775Y-16.32
G05
M30
