%TF.GenerationSoftware,KiCad,Pcbnew,10.0.5*%
%TF.CreationDate,2026-09-06T03:15:19+02:00*%
%TF.ProjectId,flappy-esp32c3-revb,666c6170-7079-42d6-9573-70333263332d,B*%
%TF.SameCoordinates,Original*%
%TF.FileFunction,Legend,Bot*%
%TF.FilePolarity,Positive*%
%FSLAX46Y46*%
G04 Gerber Fmt 4.6, Leading zero omitted, Abs format (unit mm)*
G04 Created by KiCad (PCBNEW 10.0.5) date 2026-09-06 03:15:19*
%MOMM*%
%LPD*%
G01*
G04 APERTURE LIST*
%ADD10C,0.130000*%
G04 APERTURE END LIST*
D10*
X9819047Y-43963335D02*
X9361904Y-43963335D01*
X9590476Y-44763335D02*
X9590476Y-43963335D01*
X9095237Y-44763335D02*
X9095237Y-43963335D01*
X9095237Y-43963335D02*
X8790475Y-43963335D01*
X8790475Y-43963335D02*
X8714285Y-44001430D01*
X8714285Y-44001430D02*
X8676190Y-44039525D01*
X8676190Y-44039525D02*
X8638094Y-44115716D01*
X8638094Y-44115716D02*
X8638094Y-44230001D01*
X8638094Y-44230001D02*
X8676190Y-44306192D01*
X8676190Y-44306192D02*
X8714285Y-44344287D01*
X8714285Y-44344287D02*
X8790475Y-44382382D01*
X8790475Y-44382382D02*
X9095237Y-44382382D01*
X7876190Y-44763335D02*
X8333333Y-44763335D01*
X8104761Y-44763335D02*
X8104761Y-43963335D01*
X8104761Y-43963335D02*
X8180952Y-44077620D01*
X8180952Y-44077620D02*
X8257142Y-44153811D01*
X8257142Y-44153811D02*
X8333333Y-44191906D01*
X7571428Y-44039525D02*
X7533332Y-44001430D01*
X7533332Y-44001430D02*
X7457142Y-43963335D01*
X7457142Y-43963335D02*
X7266666Y-43963335D01*
X7266666Y-43963335D02*
X7190475Y-44001430D01*
X7190475Y-44001430D02*
X7152380Y-44039525D01*
X7152380Y-44039525D02*
X7114285Y-44115716D01*
X7114285Y-44115716D02*
X7114285Y-44191906D01*
X7114285Y-44191906D02*
X7152380Y-44306192D01*
X7152380Y-44306192D02*
X7609523Y-44763335D01*
X7609523Y-44763335D02*
X7114285Y-44763335D01*
X6161903Y-44763335D02*
X6161903Y-43963335D01*
X6161903Y-43963335D02*
X5704760Y-44763335D01*
X5704760Y-44763335D02*
X5704760Y-43963335D01*
X5438094Y-43963335D02*
X4980951Y-43963335D01*
X5209523Y-44763335D02*
X5209523Y-43963335D01*
X4257141Y-44687144D02*
X4295237Y-44725240D01*
X4295237Y-44725240D02*
X4409522Y-44763335D01*
X4409522Y-44763335D02*
X4485713Y-44763335D01*
X4485713Y-44763335D02*
X4599999Y-44725240D01*
X4599999Y-44725240D02*
X4676189Y-44649049D01*
X4676189Y-44649049D02*
X4714284Y-44572859D01*
X4714284Y-44572859D02*
X4752380Y-44420478D01*
X4752380Y-44420478D02*
X4752380Y-44306192D01*
X4752380Y-44306192D02*
X4714284Y-44153811D01*
X4714284Y-44153811D02*
X4676189Y-44077620D01*
X4676189Y-44077620D02*
X4599999Y-44001430D01*
X4599999Y-44001430D02*
X4485713Y-43963335D01*
X4485713Y-43963335D02*
X4409522Y-43963335D01*
X4409522Y-43963335D02*
X4295237Y-44001430D01*
X4295237Y-44001430D02*
X4257141Y-44039525D01*
X12704761Y-28563335D02*
X12247618Y-28563335D01*
X12476190Y-29363335D02*
X12476190Y-28563335D01*
X11980951Y-29363335D02*
X11980951Y-28563335D01*
X11980951Y-28563335D02*
X11676189Y-28563335D01*
X11676189Y-28563335D02*
X11599999Y-28601430D01*
X11599999Y-28601430D02*
X11561904Y-28639525D01*
X11561904Y-28639525D02*
X11523808Y-28715716D01*
X11523808Y-28715716D02*
X11523808Y-28830001D01*
X11523808Y-28830001D02*
X11561904Y-28906192D01*
X11561904Y-28906192D02*
X11599999Y-28944287D01*
X11599999Y-28944287D02*
X11676189Y-28982382D01*
X11676189Y-28982382D02*
X11980951Y-28982382D01*
X11219047Y-28639525D02*
X11180951Y-28601430D01*
X11180951Y-28601430D02*
X11104761Y-28563335D01*
X11104761Y-28563335D02*
X10914285Y-28563335D01*
X10914285Y-28563335D02*
X10838094Y-28601430D01*
X10838094Y-28601430D02*
X10799999Y-28639525D01*
X10799999Y-28639525D02*
X10761904Y-28715716D01*
X10761904Y-28715716D02*
X10761904Y-28791906D01*
X10761904Y-28791906D02*
X10799999Y-28906192D01*
X10799999Y-28906192D02*
X11257142Y-29363335D01*
X11257142Y-29363335D02*
X10761904Y-29363335D01*
X9923808Y-28563335D02*
X9657141Y-29363335D01*
X9657141Y-29363335D02*
X9390475Y-28563335D01*
X8857142Y-28944287D02*
X8742856Y-28982382D01*
X8742856Y-28982382D02*
X8704761Y-29020478D01*
X8704761Y-29020478D02*
X8666665Y-29096668D01*
X8666665Y-29096668D02*
X8666665Y-29210954D01*
X8666665Y-29210954D02*
X8704761Y-29287144D01*
X8704761Y-29287144D02*
X8742856Y-29325240D01*
X8742856Y-29325240D02*
X8819046Y-29363335D01*
X8819046Y-29363335D02*
X9123808Y-29363335D01*
X9123808Y-29363335D02*
X9123808Y-28563335D01*
X9123808Y-28563335D02*
X8857142Y-28563335D01*
X8857142Y-28563335D02*
X8780951Y-28601430D01*
X8780951Y-28601430D02*
X8742856Y-28639525D01*
X8742856Y-28639525D02*
X8704761Y-28715716D01*
X8704761Y-28715716D02*
X8704761Y-28791906D01*
X8704761Y-28791906D02*
X8742856Y-28868097D01*
X8742856Y-28868097D02*
X8780951Y-28906192D01*
X8780951Y-28906192D02*
X8857142Y-28944287D01*
X8857142Y-28944287D02*
X9123808Y-28944287D01*
X8361904Y-29134763D02*
X7980951Y-29134763D01*
X8438094Y-29363335D02*
X8171427Y-28563335D01*
X8171427Y-28563335D02*
X7904761Y-29363335D01*
X7752380Y-28563335D02*
X7295237Y-28563335D01*
X7523809Y-29363335D02*
X7523809Y-28563335D01*
X23561904Y-12963335D02*
X23104761Y-12963335D01*
X23333333Y-13763335D02*
X23333333Y-12963335D01*
X22838094Y-13763335D02*
X22838094Y-12963335D01*
X22838094Y-12963335D02*
X22533332Y-12963335D01*
X22533332Y-12963335D02*
X22457142Y-13001430D01*
X22457142Y-13001430D02*
X22419047Y-13039525D01*
X22419047Y-13039525D02*
X22380951Y-13115716D01*
X22380951Y-13115716D02*
X22380951Y-13230001D01*
X22380951Y-13230001D02*
X22419047Y-13306192D01*
X22419047Y-13306192D02*
X22457142Y-13344287D01*
X22457142Y-13344287D02*
X22533332Y-13382382D01*
X22533332Y-13382382D02*
X22838094Y-13382382D01*
X21619047Y-13763335D02*
X22076190Y-13763335D01*
X21847618Y-13763335D02*
X21847618Y-12963335D01*
X21847618Y-12963335D02*
X21923809Y-13077620D01*
X21923809Y-13077620D02*
X21999999Y-13153811D01*
X21999999Y-13153811D02*
X22076190Y-13191906D01*
X21123808Y-12963335D02*
X21047618Y-12963335D01*
X21047618Y-12963335D02*
X20971427Y-13001430D01*
X20971427Y-13001430D02*
X20933332Y-13039525D01*
X20933332Y-13039525D02*
X20895237Y-13115716D01*
X20895237Y-13115716D02*
X20857142Y-13268097D01*
X20857142Y-13268097D02*
X20857142Y-13458573D01*
X20857142Y-13458573D02*
X20895237Y-13610954D01*
X20895237Y-13610954D02*
X20933332Y-13687144D01*
X20933332Y-13687144D02*
X20971427Y-13725240D01*
X20971427Y-13725240D02*
X21047618Y-13763335D01*
X21047618Y-13763335D02*
X21123808Y-13763335D01*
X21123808Y-13763335D02*
X21199999Y-13725240D01*
X21199999Y-13725240D02*
X21238094Y-13687144D01*
X21238094Y-13687144D02*
X21276189Y-13610954D01*
X21276189Y-13610954D02*
X21314285Y-13458573D01*
X21314285Y-13458573D02*
X21314285Y-13268097D01*
X21314285Y-13268097D02*
X21276189Y-13115716D01*
X21276189Y-13115716D02*
X21238094Y-13039525D01*
X21238094Y-13039525D02*
X21199999Y-13001430D01*
X21199999Y-13001430D02*
X21123808Y-12963335D01*
X19904760Y-12963335D02*
X19904760Y-13610954D01*
X19904760Y-13610954D02*
X19866665Y-13687144D01*
X19866665Y-13687144D02*
X19828570Y-13725240D01*
X19828570Y-13725240D02*
X19752379Y-13763335D01*
X19752379Y-13763335D02*
X19599998Y-13763335D01*
X19599998Y-13763335D02*
X19523808Y-13725240D01*
X19523808Y-13725240D02*
X19485713Y-13687144D01*
X19485713Y-13687144D02*
X19447617Y-13610954D01*
X19447617Y-13610954D02*
X19447617Y-12963335D01*
X19104761Y-13725240D02*
X18990475Y-13763335D01*
X18990475Y-13763335D02*
X18799999Y-13763335D01*
X18799999Y-13763335D02*
X18723808Y-13725240D01*
X18723808Y-13725240D02*
X18685713Y-13687144D01*
X18685713Y-13687144D02*
X18647618Y-13610954D01*
X18647618Y-13610954D02*
X18647618Y-13534763D01*
X18647618Y-13534763D02*
X18685713Y-13458573D01*
X18685713Y-13458573D02*
X18723808Y-13420478D01*
X18723808Y-13420478D02*
X18799999Y-13382382D01*
X18799999Y-13382382D02*
X18952380Y-13344287D01*
X18952380Y-13344287D02*
X19028570Y-13306192D01*
X19028570Y-13306192D02*
X19066665Y-13268097D01*
X19066665Y-13268097D02*
X19104761Y-13191906D01*
X19104761Y-13191906D02*
X19104761Y-13115716D01*
X19104761Y-13115716D02*
X19066665Y-13039525D01*
X19066665Y-13039525D02*
X19028570Y-13001430D01*
X19028570Y-13001430D02*
X18952380Y-12963335D01*
X18952380Y-12963335D02*
X18761903Y-12963335D01*
X18761903Y-12963335D02*
X18647618Y-13001430D01*
X18038094Y-13344287D02*
X17923808Y-13382382D01*
X17923808Y-13382382D02*
X17885713Y-13420478D01*
X17885713Y-13420478D02*
X17847617Y-13496668D01*
X17847617Y-13496668D02*
X17847617Y-13610954D01*
X17847617Y-13610954D02*
X17885713Y-13687144D01*
X17885713Y-13687144D02*
X17923808Y-13725240D01*
X17923808Y-13725240D02*
X17999998Y-13763335D01*
X17999998Y-13763335D02*
X18304760Y-13763335D01*
X18304760Y-13763335D02*
X18304760Y-12963335D01*
X18304760Y-12963335D02*
X18038094Y-12963335D01*
X18038094Y-12963335D02*
X17961903Y-13001430D01*
X17961903Y-13001430D02*
X17923808Y-13039525D01*
X17923808Y-13039525D02*
X17885713Y-13115716D01*
X17885713Y-13115716D02*
X17885713Y-13191906D01*
X17885713Y-13191906D02*
X17923808Y-13268097D01*
X17923808Y-13268097D02*
X17961903Y-13306192D01*
X17961903Y-13306192D02*
X18038094Y-13344287D01*
X18038094Y-13344287D02*
X18304760Y-13344287D01*
X17695237Y-13839525D02*
X17085713Y-13839525D01*
X16476189Y-13001430D02*
X16552379Y-12963335D01*
X16552379Y-12963335D02*
X16666665Y-12963335D01*
X16666665Y-12963335D02*
X16780951Y-13001430D01*
X16780951Y-13001430D02*
X16857141Y-13077620D01*
X16857141Y-13077620D02*
X16895236Y-13153811D01*
X16895236Y-13153811D02*
X16933332Y-13306192D01*
X16933332Y-13306192D02*
X16933332Y-13420478D01*
X16933332Y-13420478D02*
X16895236Y-13572859D01*
X16895236Y-13572859D02*
X16857141Y-13649049D01*
X16857141Y-13649049D02*
X16780951Y-13725240D01*
X16780951Y-13725240D02*
X16666665Y-13763335D01*
X16666665Y-13763335D02*
X16590474Y-13763335D01*
X16590474Y-13763335D02*
X16476189Y-13725240D01*
X16476189Y-13725240D02*
X16438093Y-13687144D01*
X16438093Y-13687144D02*
X16438093Y-13420478D01*
X16438093Y-13420478D02*
X16590474Y-13420478D01*
X15942855Y-12963335D02*
X15790474Y-12963335D01*
X15790474Y-12963335D02*
X15714284Y-13001430D01*
X15714284Y-13001430D02*
X15638093Y-13077620D01*
X15638093Y-13077620D02*
X15599998Y-13230001D01*
X15599998Y-13230001D02*
X15599998Y-13496668D01*
X15599998Y-13496668D02*
X15638093Y-13649049D01*
X15638093Y-13649049D02*
X15714284Y-13725240D01*
X15714284Y-13725240D02*
X15790474Y-13763335D01*
X15790474Y-13763335D02*
X15942855Y-13763335D01*
X15942855Y-13763335D02*
X16019046Y-13725240D01*
X16019046Y-13725240D02*
X16095236Y-13649049D01*
X16095236Y-13649049D02*
X16133332Y-13496668D01*
X16133332Y-13496668D02*
X16133332Y-13230001D01*
X16133332Y-13230001D02*
X16095236Y-13077620D01*
X16095236Y-13077620D02*
X16019046Y-13001430D01*
X16019046Y-13001430D02*
X15942855Y-12963335D01*
X15104760Y-12963335D02*
X14952379Y-12963335D01*
X14952379Y-12963335D02*
X14876189Y-13001430D01*
X14876189Y-13001430D02*
X14799998Y-13077620D01*
X14799998Y-13077620D02*
X14761903Y-13230001D01*
X14761903Y-13230001D02*
X14761903Y-13496668D01*
X14761903Y-13496668D02*
X14799998Y-13649049D01*
X14799998Y-13649049D02*
X14876189Y-13725240D01*
X14876189Y-13725240D02*
X14952379Y-13763335D01*
X14952379Y-13763335D02*
X15104760Y-13763335D01*
X15104760Y-13763335D02*
X15180951Y-13725240D01*
X15180951Y-13725240D02*
X15257141Y-13649049D01*
X15257141Y-13649049D02*
X15295237Y-13496668D01*
X15295237Y-13496668D02*
X15295237Y-13230001D01*
X15295237Y-13230001D02*
X15257141Y-13077620D01*
X15257141Y-13077620D02*
X15180951Y-13001430D01*
X15180951Y-13001430D02*
X15104760Y-12963335D01*
X14419046Y-13763335D02*
X14419046Y-12963335D01*
X14419046Y-12963335D02*
X14228570Y-12963335D01*
X14228570Y-12963335D02*
X14114284Y-13001430D01*
X14114284Y-13001430D02*
X14038094Y-13077620D01*
X14038094Y-13077620D02*
X13999999Y-13153811D01*
X13999999Y-13153811D02*
X13961903Y-13306192D01*
X13961903Y-13306192D02*
X13961903Y-13420478D01*
X13961903Y-13420478D02*
X13999999Y-13572859D01*
X13999999Y-13572859D02*
X14038094Y-13649049D01*
X14038094Y-13649049D02*
X14114284Y-13725240D01*
X14114284Y-13725240D02*
X14228570Y-13763335D01*
X14228570Y-13763335D02*
X14419046Y-13763335D01*
X13809523Y-13839525D02*
X13199999Y-13839525D01*
X13009522Y-13763335D02*
X13009522Y-12963335D01*
X13009522Y-12963335D02*
X12552379Y-13763335D01*
X12552379Y-13763335D02*
X12552379Y-12963335D01*
X24619047Y-34963335D02*
X24161904Y-34963335D01*
X24390476Y-35763335D02*
X24390476Y-34963335D01*
X23895237Y-35763335D02*
X23895237Y-34963335D01*
X23895237Y-34963335D02*
X23590475Y-34963335D01*
X23590475Y-34963335D02*
X23514285Y-35001430D01*
X23514285Y-35001430D02*
X23476190Y-35039525D01*
X23476190Y-35039525D02*
X23438094Y-35115716D01*
X23438094Y-35115716D02*
X23438094Y-35230001D01*
X23438094Y-35230001D02*
X23476190Y-35306192D01*
X23476190Y-35306192D02*
X23514285Y-35344287D01*
X23514285Y-35344287D02*
X23590475Y-35382382D01*
X23590475Y-35382382D02*
X23895237Y-35382382D01*
X22676190Y-35763335D02*
X23133333Y-35763335D01*
X22904761Y-35763335D02*
X22904761Y-34963335D01*
X22904761Y-34963335D02*
X22980952Y-35077620D01*
X22980952Y-35077620D02*
X23057142Y-35153811D01*
X23057142Y-35153811D02*
X23133333Y-35191906D01*
X21914285Y-35763335D02*
X22371428Y-35763335D01*
X22142856Y-35763335D02*
X22142856Y-34963335D01*
X22142856Y-34963335D02*
X22219047Y-35077620D01*
X22219047Y-35077620D02*
X22295237Y-35153811D01*
X22295237Y-35153811D02*
X22371428Y-35191906D01*
X20504760Y-35687144D02*
X20542856Y-35725240D01*
X20542856Y-35725240D02*
X20657141Y-35763335D01*
X20657141Y-35763335D02*
X20733332Y-35763335D01*
X20733332Y-35763335D02*
X20847618Y-35725240D01*
X20847618Y-35725240D02*
X20923808Y-35649049D01*
X20923808Y-35649049D02*
X20961903Y-35572859D01*
X20961903Y-35572859D02*
X20999999Y-35420478D01*
X20999999Y-35420478D02*
X20999999Y-35306192D01*
X20999999Y-35306192D02*
X20961903Y-35153811D01*
X20961903Y-35153811D02*
X20923808Y-35077620D01*
X20923808Y-35077620D02*
X20847618Y-35001430D01*
X20847618Y-35001430D02*
X20733332Y-34963335D01*
X20733332Y-34963335D02*
X20657141Y-34963335D01*
X20657141Y-34963335D02*
X20542856Y-35001430D01*
X20542856Y-35001430D02*
X20504760Y-35039525D01*
X20161903Y-35763335D02*
X20161903Y-34963335D01*
X20161903Y-35344287D02*
X19704760Y-35344287D01*
X19704760Y-35763335D02*
X19704760Y-34963335D01*
X18904761Y-35001430D02*
X18980951Y-34963335D01*
X18980951Y-34963335D02*
X19095237Y-34963335D01*
X19095237Y-34963335D02*
X19209523Y-35001430D01*
X19209523Y-35001430D02*
X19285713Y-35077620D01*
X19285713Y-35077620D02*
X19323808Y-35153811D01*
X19323808Y-35153811D02*
X19361904Y-35306192D01*
X19361904Y-35306192D02*
X19361904Y-35420478D01*
X19361904Y-35420478D02*
X19323808Y-35572859D01*
X19323808Y-35572859D02*
X19285713Y-35649049D01*
X19285713Y-35649049D02*
X19209523Y-35725240D01*
X19209523Y-35725240D02*
X19095237Y-35763335D01*
X19095237Y-35763335D02*
X19019046Y-35763335D01*
X19019046Y-35763335D02*
X18904761Y-35725240D01*
X18904761Y-35725240D02*
X18866665Y-35687144D01*
X18866665Y-35687144D02*
X18866665Y-35420478D01*
X18866665Y-35420478D02*
X19019046Y-35420478D01*
X18714285Y-35839525D02*
X18104761Y-35839525D01*
X17914284Y-35763335D02*
X17914284Y-34963335D01*
X17914284Y-34963335D02*
X17723808Y-34963335D01*
X17723808Y-34963335D02*
X17609522Y-35001430D01*
X17609522Y-35001430D02*
X17533332Y-35077620D01*
X17533332Y-35077620D02*
X17495237Y-35153811D01*
X17495237Y-35153811D02*
X17457141Y-35306192D01*
X17457141Y-35306192D02*
X17457141Y-35420478D01*
X17457141Y-35420478D02*
X17495237Y-35572859D01*
X17495237Y-35572859D02*
X17533332Y-35649049D01*
X17533332Y-35649049D02*
X17609522Y-35725240D01*
X17609522Y-35725240D02*
X17723808Y-35763335D01*
X17723808Y-35763335D02*
X17914284Y-35763335D01*
X17114284Y-35763335D02*
X17114284Y-34963335D01*
X16771428Y-35725240D02*
X16657142Y-35763335D01*
X16657142Y-35763335D02*
X16466666Y-35763335D01*
X16466666Y-35763335D02*
X16390475Y-35725240D01*
X16390475Y-35725240D02*
X16352380Y-35687144D01*
X16352380Y-35687144D02*
X16314285Y-35610954D01*
X16314285Y-35610954D02*
X16314285Y-35534763D01*
X16314285Y-35534763D02*
X16352380Y-35458573D01*
X16352380Y-35458573D02*
X16390475Y-35420478D01*
X16390475Y-35420478D02*
X16466666Y-35382382D01*
X16466666Y-35382382D02*
X16619047Y-35344287D01*
X16619047Y-35344287D02*
X16695237Y-35306192D01*
X16695237Y-35306192D02*
X16733332Y-35268097D01*
X16733332Y-35268097D02*
X16771428Y-35191906D01*
X16771428Y-35191906D02*
X16771428Y-35115716D01*
X16771428Y-35115716D02*
X16733332Y-35039525D01*
X16733332Y-35039525D02*
X16695237Y-35001430D01*
X16695237Y-35001430D02*
X16619047Y-34963335D01*
X16619047Y-34963335D02*
X16428570Y-34963335D01*
X16428570Y-34963335D02*
X16314285Y-35001430D01*
X16009523Y-35534763D02*
X15628570Y-35534763D01*
X16085713Y-35763335D02*
X15819046Y-34963335D01*
X15819046Y-34963335D02*
X15552380Y-35763335D01*
X15019047Y-35344287D02*
X14904761Y-35382382D01*
X14904761Y-35382382D02*
X14866666Y-35420478D01*
X14866666Y-35420478D02*
X14828570Y-35496668D01*
X14828570Y-35496668D02*
X14828570Y-35610954D01*
X14828570Y-35610954D02*
X14866666Y-35687144D01*
X14866666Y-35687144D02*
X14904761Y-35725240D01*
X14904761Y-35725240D02*
X14980951Y-35763335D01*
X14980951Y-35763335D02*
X15285713Y-35763335D01*
X15285713Y-35763335D02*
X15285713Y-34963335D01*
X15285713Y-34963335D02*
X15019047Y-34963335D01*
X15019047Y-34963335D02*
X14942856Y-35001430D01*
X14942856Y-35001430D02*
X14904761Y-35039525D01*
X14904761Y-35039525D02*
X14866666Y-35115716D01*
X14866666Y-35115716D02*
X14866666Y-35191906D01*
X14866666Y-35191906D02*
X14904761Y-35268097D01*
X14904761Y-35268097D02*
X14942856Y-35306192D01*
X14942856Y-35306192D02*
X15019047Y-35344287D01*
X15019047Y-35344287D02*
X15285713Y-35344287D01*
X14104761Y-35763335D02*
X14485713Y-35763335D01*
X14485713Y-35763335D02*
X14485713Y-34963335D01*
X13838094Y-35344287D02*
X13571428Y-35344287D01*
X13457142Y-35763335D02*
X13838094Y-35763335D01*
X13838094Y-35763335D02*
X13838094Y-34963335D01*
X13838094Y-34963335D02*
X13457142Y-34963335D01*
X32433333Y-16463335D02*
X31976190Y-16463335D01*
X32204762Y-17263335D02*
X32204762Y-16463335D01*
X31709523Y-17263335D02*
X31709523Y-16463335D01*
X31709523Y-16463335D02*
X31404761Y-16463335D01*
X31404761Y-16463335D02*
X31328571Y-16501430D01*
X31328571Y-16501430D02*
X31290476Y-16539525D01*
X31290476Y-16539525D02*
X31252380Y-16615716D01*
X31252380Y-16615716D02*
X31252380Y-16730001D01*
X31252380Y-16730001D02*
X31290476Y-16806192D01*
X31290476Y-16806192D02*
X31328571Y-16844287D01*
X31328571Y-16844287D02*
X31404761Y-16882382D01*
X31404761Y-16882382D02*
X31709523Y-16882382D01*
X30490476Y-17263335D02*
X30947619Y-17263335D01*
X30719047Y-17263335D02*
X30719047Y-16463335D01*
X30719047Y-16463335D02*
X30795238Y-16577620D01*
X30795238Y-16577620D02*
X30871428Y-16653811D01*
X30871428Y-16653811D02*
X30947619Y-16691906D01*
X29804761Y-16463335D02*
X29957142Y-16463335D01*
X29957142Y-16463335D02*
X30033333Y-16501430D01*
X30033333Y-16501430D02*
X30071428Y-16539525D01*
X30071428Y-16539525D02*
X30147618Y-16653811D01*
X30147618Y-16653811D02*
X30185714Y-16806192D01*
X30185714Y-16806192D02*
X30185714Y-17110954D01*
X30185714Y-17110954D02*
X30147618Y-17187144D01*
X30147618Y-17187144D02*
X30109523Y-17225240D01*
X30109523Y-17225240D02*
X30033333Y-17263335D01*
X30033333Y-17263335D02*
X29880952Y-17263335D01*
X29880952Y-17263335D02*
X29804761Y-17225240D01*
X29804761Y-17225240D02*
X29766666Y-17187144D01*
X29766666Y-17187144D02*
X29728571Y-17110954D01*
X29728571Y-17110954D02*
X29728571Y-16920478D01*
X29728571Y-16920478D02*
X29766666Y-16844287D01*
X29766666Y-16844287D02*
X29804761Y-16806192D01*
X29804761Y-16806192D02*
X29880952Y-16768097D01*
X29880952Y-16768097D02*
X30033333Y-16768097D01*
X30033333Y-16768097D02*
X30109523Y-16806192D01*
X30109523Y-16806192D02*
X30147618Y-16844287D01*
X30147618Y-16844287D02*
X30185714Y-16920478D01*
X28776189Y-17263335D02*
X28776189Y-16463335D01*
X28433333Y-17225240D02*
X28319047Y-17263335D01*
X28319047Y-17263335D02*
X28128571Y-17263335D01*
X28128571Y-17263335D02*
X28052380Y-17225240D01*
X28052380Y-17225240D02*
X28014285Y-17187144D01*
X28014285Y-17187144D02*
X27976190Y-17110954D01*
X27976190Y-17110954D02*
X27976190Y-17034763D01*
X27976190Y-17034763D02*
X28014285Y-16958573D01*
X28014285Y-16958573D02*
X28052380Y-16920478D01*
X28052380Y-16920478D02*
X28128571Y-16882382D01*
X28128571Y-16882382D02*
X28280952Y-16844287D01*
X28280952Y-16844287D02*
X28357142Y-16806192D01*
X28357142Y-16806192D02*
X28395237Y-16768097D01*
X28395237Y-16768097D02*
X28433333Y-16691906D01*
X28433333Y-16691906D02*
X28433333Y-16615716D01*
X28433333Y-16615716D02*
X28395237Y-16539525D01*
X28395237Y-16539525D02*
X28357142Y-16501430D01*
X28357142Y-16501430D02*
X28280952Y-16463335D01*
X28280952Y-16463335D02*
X28090475Y-16463335D01*
X28090475Y-16463335D02*
X27976190Y-16501430D01*
X27633332Y-16844287D02*
X27366666Y-16844287D01*
X27252380Y-17263335D02*
X27633332Y-17263335D01*
X27633332Y-17263335D02*
X27633332Y-16463335D01*
X27633332Y-16463335D02*
X27252380Y-16463335D01*
X27023808Y-16463335D02*
X26566665Y-16463335D01*
X26795237Y-17263335D02*
X26795237Y-16463335D01*
X34847619Y-1063335D02*
X34390476Y-1063335D01*
X34619048Y-1863335D02*
X34619048Y-1063335D01*
X34123809Y-1863335D02*
X34123809Y-1063335D01*
X34123809Y-1063335D02*
X33819047Y-1063335D01*
X33819047Y-1063335D02*
X33742857Y-1101430D01*
X33742857Y-1101430D02*
X33704762Y-1139525D01*
X33704762Y-1139525D02*
X33666666Y-1215716D01*
X33666666Y-1215716D02*
X33666666Y-1330001D01*
X33666666Y-1330001D02*
X33704762Y-1406192D01*
X33704762Y-1406192D02*
X33742857Y-1444287D01*
X33742857Y-1444287D02*
X33819047Y-1482382D01*
X33819047Y-1482382D02*
X34123809Y-1482382D01*
X33400000Y-1063335D02*
X32866666Y-1063335D01*
X32866666Y-1063335D02*
X33209524Y-1863335D01*
X31495237Y-1863335D02*
X31761904Y-1482382D01*
X31952380Y-1863335D02*
X31952380Y-1063335D01*
X31952380Y-1063335D02*
X31647618Y-1063335D01*
X31647618Y-1063335D02*
X31571428Y-1101430D01*
X31571428Y-1101430D02*
X31533333Y-1139525D01*
X31533333Y-1139525D02*
X31495237Y-1215716D01*
X31495237Y-1215716D02*
X31495237Y-1330001D01*
X31495237Y-1330001D02*
X31533333Y-1406192D01*
X31533333Y-1406192D02*
X31571428Y-1444287D01*
X31571428Y-1444287D02*
X31647618Y-1482382D01*
X31647618Y-1482382D02*
X31952380Y-1482382D01*
X31152380Y-1444287D02*
X30885714Y-1444287D01*
X30771428Y-1863335D02*
X31152380Y-1863335D01*
X31152380Y-1863335D02*
X31152380Y-1063335D01*
X31152380Y-1063335D02*
X30771428Y-1063335D01*
X30466666Y-1825240D02*
X30352380Y-1863335D01*
X30352380Y-1863335D02*
X30161904Y-1863335D01*
X30161904Y-1863335D02*
X30085713Y-1825240D01*
X30085713Y-1825240D02*
X30047618Y-1787144D01*
X30047618Y-1787144D02*
X30009523Y-1710954D01*
X30009523Y-1710954D02*
X30009523Y-1634763D01*
X30009523Y-1634763D02*
X30047618Y-1558573D01*
X30047618Y-1558573D02*
X30085713Y-1520478D01*
X30085713Y-1520478D02*
X30161904Y-1482382D01*
X30161904Y-1482382D02*
X30314285Y-1444287D01*
X30314285Y-1444287D02*
X30390475Y-1406192D01*
X30390475Y-1406192D02*
X30428570Y-1368097D01*
X30428570Y-1368097D02*
X30466666Y-1291906D01*
X30466666Y-1291906D02*
X30466666Y-1215716D01*
X30466666Y-1215716D02*
X30428570Y-1139525D01*
X30428570Y-1139525D02*
X30390475Y-1101430D01*
X30390475Y-1101430D02*
X30314285Y-1063335D01*
X30314285Y-1063335D02*
X30123808Y-1063335D01*
X30123808Y-1063335D02*
X30009523Y-1101430D01*
X29666665Y-1444287D02*
X29399999Y-1444287D01*
X29285713Y-1863335D02*
X29666665Y-1863335D01*
X29666665Y-1863335D02*
X29666665Y-1063335D01*
X29666665Y-1063335D02*
X29285713Y-1063335D01*
X29057141Y-1063335D02*
X28599998Y-1063335D01*
X28828570Y-1863335D02*
X28828570Y-1063335D01*
X28523808Y-1939525D02*
X27914284Y-1939525D01*
X27723807Y-1863335D02*
X27723807Y-1063335D01*
X27723807Y-1063335D02*
X27266664Y-1863335D01*
X27266664Y-1863335D02*
X27266664Y-1063335D01*
X35761904Y-26963335D02*
X35304761Y-26963335D01*
X35533333Y-27763335D02*
X35533333Y-26963335D01*
X35038094Y-27763335D02*
X35038094Y-26963335D01*
X35038094Y-26963335D02*
X34733332Y-26963335D01*
X34733332Y-26963335D02*
X34657142Y-27001430D01*
X34657142Y-27001430D02*
X34619047Y-27039525D01*
X34619047Y-27039525D02*
X34580951Y-27115716D01*
X34580951Y-27115716D02*
X34580951Y-27230001D01*
X34580951Y-27230001D02*
X34619047Y-27306192D01*
X34619047Y-27306192D02*
X34657142Y-27344287D01*
X34657142Y-27344287D02*
X34733332Y-27382382D01*
X34733332Y-27382382D02*
X35038094Y-27382382D01*
X34314285Y-26963335D02*
X33819047Y-26963335D01*
X33819047Y-26963335D02*
X34085713Y-27268097D01*
X34085713Y-27268097D02*
X33971428Y-27268097D01*
X33971428Y-27268097D02*
X33895237Y-27306192D01*
X33895237Y-27306192D02*
X33857142Y-27344287D01*
X33857142Y-27344287D02*
X33819047Y-27420478D01*
X33819047Y-27420478D02*
X33819047Y-27610954D01*
X33819047Y-27610954D02*
X33857142Y-27687144D01*
X33857142Y-27687144D02*
X33895237Y-27725240D01*
X33895237Y-27725240D02*
X33971428Y-27763335D01*
X33971428Y-27763335D02*
X34199999Y-27763335D01*
X34199999Y-27763335D02*
X34276190Y-27725240D01*
X34276190Y-27725240D02*
X34314285Y-27687144D01*
X32980951Y-26963335D02*
X32714284Y-27763335D01*
X32714284Y-27763335D02*
X32447618Y-26963335D01*
X32219047Y-27725240D02*
X32104761Y-27763335D01*
X32104761Y-27763335D02*
X31914285Y-27763335D01*
X31914285Y-27763335D02*
X31838094Y-27725240D01*
X31838094Y-27725240D02*
X31799999Y-27687144D01*
X31799999Y-27687144D02*
X31761904Y-27610954D01*
X31761904Y-27610954D02*
X31761904Y-27534763D01*
X31761904Y-27534763D02*
X31799999Y-27458573D01*
X31799999Y-27458573D02*
X31838094Y-27420478D01*
X31838094Y-27420478D02*
X31914285Y-27382382D01*
X31914285Y-27382382D02*
X32066666Y-27344287D01*
X32066666Y-27344287D02*
X32142856Y-27306192D01*
X32142856Y-27306192D02*
X32180951Y-27268097D01*
X32180951Y-27268097D02*
X32219047Y-27191906D01*
X32219047Y-27191906D02*
X32219047Y-27115716D01*
X32219047Y-27115716D02*
X32180951Y-27039525D01*
X32180951Y-27039525D02*
X32142856Y-27001430D01*
X32142856Y-27001430D02*
X32066666Y-26963335D01*
X32066666Y-26963335D02*
X31876189Y-26963335D01*
X31876189Y-26963335D02*
X31761904Y-27001430D01*
X31266665Y-27382382D02*
X31266665Y-27763335D01*
X31533332Y-26963335D02*
X31266665Y-27382382D01*
X31266665Y-27382382D02*
X30999999Y-26963335D01*
X30771428Y-27725240D02*
X30657142Y-27763335D01*
X30657142Y-27763335D02*
X30466666Y-27763335D01*
X30466666Y-27763335D02*
X30390475Y-27725240D01*
X30390475Y-27725240D02*
X30352380Y-27687144D01*
X30352380Y-27687144D02*
X30314285Y-27610954D01*
X30314285Y-27610954D02*
X30314285Y-27534763D01*
X30314285Y-27534763D02*
X30352380Y-27458573D01*
X30352380Y-27458573D02*
X30390475Y-27420478D01*
X30390475Y-27420478D02*
X30466666Y-27382382D01*
X30466666Y-27382382D02*
X30619047Y-27344287D01*
X30619047Y-27344287D02*
X30695237Y-27306192D01*
X30695237Y-27306192D02*
X30733332Y-27268097D01*
X30733332Y-27268097D02*
X30771428Y-27191906D01*
X30771428Y-27191906D02*
X30771428Y-27115716D01*
X30771428Y-27115716D02*
X30733332Y-27039525D01*
X30733332Y-27039525D02*
X30695237Y-27001430D01*
X30695237Y-27001430D02*
X30619047Y-26963335D01*
X30619047Y-26963335D02*
X30428570Y-26963335D01*
X30428570Y-26963335D02*
X30314285Y-27001430D01*
X37609523Y-46563335D02*
X37152380Y-46563335D01*
X37380952Y-47363335D02*
X37380952Y-46563335D01*
X36885713Y-47363335D02*
X36885713Y-46563335D01*
X36885713Y-46563335D02*
X36580951Y-46563335D01*
X36580951Y-46563335D02*
X36504761Y-46601430D01*
X36504761Y-46601430D02*
X36466666Y-46639525D01*
X36466666Y-46639525D02*
X36428570Y-46715716D01*
X36428570Y-46715716D02*
X36428570Y-46830001D01*
X36428570Y-46830001D02*
X36466666Y-46906192D01*
X36466666Y-46906192D02*
X36504761Y-46944287D01*
X36504761Y-46944287D02*
X36580951Y-46982382D01*
X36580951Y-46982382D02*
X36885713Y-46982382D01*
X36047618Y-47363335D02*
X35895237Y-47363335D01*
X35895237Y-47363335D02*
X35819047Y-47325240D01*
X35819047Y-47325240D02*
X35780951Y-47287144D01*
X35780951Y-47287144D02*
X35704761Y-47172859D01*
X35704761Y-47172859D02*
X35666666Y-47020478D01*
X35666666Y-47020478D02*
X35666666Y-46715716D01*
X35666666Y-46715716D02*
X35704761Y-46639525D01*
X35704761Y-46639525D02*
X35742856Y-46601430D01*
X35742856Y-46601430D02*
X35819047Y-46563335D01*
X35819047Y-46563335D02*
X35971428Y-46563335D01*
X35971428Y-46563335D02*
X36047618Y-46601430D01*
X36047618Y-46601430D02*
X36085713Y-46639525D01*
X36085713Y-46639525D02*
X36123809Y-46715716D01*
X36123809Y-46715716D02*
X36123809Y-46906192D01*
X36123809Y-46906192D02*
X36085713Y-46982382D01*
X36085713Y-46982382D02*
X36047618Y-47020478D01*
X36047618Y-47020478D02*
X35971428Y-47058573D01*
X35971428Y-47058573D02*
X35819047Y-47058573D01*
X35819047Y-47058573D02*
X35742856Y-47020478D01*
X35742856Y-47020478D02*
X35704761Y-46982382D01*
X35704761Y-46982382D02*
X35666666Y-46906192D01*
X34447618Y-46944287D02*
X34333332Y-46982382D01*
X34333332Y-46982382D02*
X34295237Y-47020478D01*
X34295237Y-47020478D02*
X34257141Y-47096668D01*
X34257141Y-47096668D02*
X34257141Y-47210954D01*
X34257141Y-47210954D02*
X34295237Y-47287144D01*
X34295237Y-47287144D02*
X34333332Y-47325240D01*
X34333332Y-47325240D02*
X34409522Y-47363335D01*
X34409522Y-47363335D02*
X34714284Y-47363335D01*
X34714284Y-47363335D02*
X34714284Y-46563335D01*
X34714284Y-46563335D02*
X34447618Y-46563335D01*
X34447618Y-46563335D02*
X34371427Y-46601430D01*
X34371427Y-46601430D02*
X34333332Y-46639525D01*
X34333332Y-46639525D02*
X34295237Y-46715716D01*
X34295237Y-46715716D02*
X34295237Y-46791906D01*
X34295237Y-46791906D02*
X34333332Y-46868097D01*
X34333332Y-46868097D02*
X34371427Y-46906192D01*
X34371427Y-46906192D02*
X34447618Y-46944287D01*
X34447618Y-46944287D02*
X34714284Y-46944287D01*
X33952380Y-47134763D02*
X33571427Y-47134763D01*
X34028570Y-47363335D02*
X33761903Y-46563335D01*
X33761903Y-46563335D02*
X33495237Y-47363335D01*
X33342856Y-46563335D02*
X32885713Y-46563335D01*
X33114285Y-47363335D02*
X33114285Y-46563335D01*
X32809523Y-47439525D02*
X32199999Y-47439525D01*
X32047618Y-47134763D02*
X31666665Y-47134763D01*
X32123808Y-47363335D02*
X31857141Y-46563335D01*
X31857141Y-46563335D02*
X31590475Y-47363335D01*
X31323808Y-47363335D02*
X31323808Y-46563335D01*
X31323808Y-46563335D02*
X31133332Y-46563335D01*
X31133332Y-46563335D02*
X31019046Y-46601430D01*
X31019046Y-46601430D02*
X30942856Y-46677620D01*
X30942856Y-46677620D02*
X30904761Y-46753811D01*
X30904761Y-46753811D02*
X30866665Y-46906192D01*
X30866665Y-46906192D02*
X30866665Y-47020478D01*
X30866665Y-47020478D02*
X30904761Y-47172859D01*
X30904761Y-47172859D02*
X30942856Y-47249049D01*
X30942856Y-47249049D02*
X31019046Y-47325240D01*
X31019046Y-47325240D02*
X31133332Y-47363335D01*
X31133332Y-47363335D02*
X31323808Y-47363335D01*
X30066665Y-47287144D02*
X30104761Y-47325240D01*
X30104761Y-47325240D02*
X30219046Y-47363335D01*
X30219046Y-47363335D02*
X30295237Y-47363335D01*
X30295237Y-47363335D02*
X30409523Y-47325240D01*
X30409523Y-47325240D02*
X30485713Y-47249049D01*
X30485713Y-47249049D02*
X30523808Y-47172859D01*
X30523808Y-47172859D02*
X30561904Y-47020478D01*
X30561904Y-47020478D02*
X30561904Y-46906192D01*
X30561904Y-46906192D02*
X30523808Y-46753811D01*
X30523808Y-46753811D02*
X30485713Y-46677620D01*
X30485713Y-46677620D02*
X30409523Y-46601430D01*
X30409523Y-46601430D02*
X30295237Y-46563335D01*
X30295237Y-46563335D02*
X30219046Y-46563335D01*
X30219046Y-46563335D02*
X30104761Y-46601430D01*
X30104761Y-46601430D02*
X30066665Y-46639525D01*
X37580952Y-14563334D02*
X37123809Y-14563334D01*
X37352381Y-15363334D02*
X37352381Y-14563334D01*
X36857142Y-15363334D02*
X36857142Y-14563334D01*
X36857142Y-14563334D02*
X36552380Y-14563334D01*
X36552380Y-14563334D02*
X36476190Y-14601429D01*
X36476190Y-14601429D02*
X36438095Y-14639524D01*
X36438095Y-14639524D02*
X36399999Y-14715715D01*
X36399999Y-14715715D02*
X36399999Y-14830000D01*
X36399999Y-14830000D02*
X36438095Y-14906191D01*
X36438095Y-14906191D02*
X36476190Y-14944286D01*
X36476190Y-14944286D02*
X36552380Y-14982381D01*
X36552380Y-14982381D02*
X36857142Y-14982381D01*
X35942857Y-14906191D02*
X36019047Y-14868096D01*
X36019047Y-14868096D02*
X36057142Y-14830000D01*
X36057142Y-14830000D02*
X36095238Y-14753810D01*
X36095238Y-14753810D02*
X36095238Y-14715715D01*
X36095238Y-14715715D02*
X36057142Y-14639524D01*
X36057142Y-14639524D02*
X36019047Y-14601429D01*
X36019047Y-14601429D02*
X35942857Y-14563334D01*
X35942857Y-14563334D02*
X35790476Y-14563334D01*
X35790476Y-14563334D02*
X35714285Y-14601429D01*
X35714285Y-14601429D02*
X35676190Y-14639524D01*
X35676190Y-14639524D02*
X35638095Y-14715715D01*
X35638095Y-14715715D02*
X35638095Y-14753810D01*
X35638095Y-14753810D02*
X35676190Y-14830000D01*
X35676190Y-14830000D02*
X35714285Y-14868096D01*
X35714285Y-14868096D02*
X35790476Y-14906191D01*
X35790476Y-14906191D02*
X35942857Y-14906191D01*
X35942857Y-14906191D02*
X36019047Y-14944286D01*
X36019047Y-14944286D02*
X36057142Y-14982381D01*
X36057142Y-14982381D02*
X36095238Y-15058572D01*
X36095238Y-15058572D02*
X36095238Y-15210953D01*
X36095238Y-15210953D02*
X36057142Y-15287143D01*
X36057142Y-15287143D02*
X36019047Y-15325239D01*
X36019047Y-15325239D02*
X35942857Y-15363334D01*
X35942857Y-15363334D02*
X35790476Y-15363334D01*
X35790476Y-15363334D02*
X35714285Y-15325239D01*
X35714285Y-15325239D02*
X35676190Y-15287143D01*
X35676190Y-15287143D02*
X35638095Y-15210953D01*
X35638095Y-15210953D02*
X35638095Y-15058572D01*
X35638095Y-15058572D02*
X35676190Y-14982381D01*
X35676190Y-14982381D02*
X35714285Y-14944286D01*
X35714285Y-14944286D02*
X35790476Y-14906191D01*
X34419047Y-14944286D02*
X34304761Y-14982381D01*
X34304761Y-14982381D02*
X34266666Y-15020477D01*
X34266666Y-15020477D02*
X34228570Y-15096667D01*
X34228570Y-15096667D02*
X34228570Y-15210953D01*
X34228570Y-15210953D02*
X34266666Y-15287143D01*
X34266666Y-15287143D02*
X34304761Y-15325239D01*
X34304761Y-15325239D02*
X34380951Y-15363334D01*
X34380951Y-15363334D02*
X34685713Y-15363334D01*
X34685713Y-15363334D02*
X34685713Y-14563334D01*
X34685713Y-14563334D02*
X34419047Y-14563334D01*
X34419047Y-14563334D02*
X34342856Y-14601429D01*
X34342856Y-14601429D02*
X34304761Y-14639524D01*
X34304761Y-14639524D02*
X34266666Y-14715715D01*
X34266666Y-14715715D02*
X34266666Y-14791905D01*
X34266666Y-14791905D02*
X34304761Y-14868096D01*
X34304761Y-14868096D02*
X34342856Y-14906191D01*
X34342856Y-14906191D02*
X34419047Y-14944286D01*
X34419047Y-14944286D02*
X34685713Y-14944286D01*
X33733332Y-14563334D02*
X33580951Y-14563334D01*
X33580951Y-14563334D02*
X33504761Y-14601429D01*
X33504761Y-14601429D02*
X33428570Y-14677619D01*
X33428570Y-14677619D02*
X33390475Y-14830000D01*
X33390475Y-14830000D02*
X33390475Y-15096667D01*
X33390475Y-15096667D02*
X33428570Y-15249048D01*
X33428570Y-15249048D02*
X33504761Y-15325239D01*
X33504761Y-15325239D02*
X33580951Y-15363334D01*
X33580951Y-15363334D02*
X33733332Y-15363334D01*
X33733332Y-15363334D02*
X33809523Y-15325239D01*
X33809523Y-15325239D02*
X33885713Y-15249048D01*
X33885713Y-15249048D02*
X33923809Y-15096667D01*
X33923809Y-15096667D02*
X33923809Y-14830000D01*
X33923809Y-14830000D02*
X33885713Y-14677619D01*
X33885713Y-14677619D02*
X33809523Y-14601429D01*
X33809523Y-14601429D02*
X33733332Y-14563334D01*
X32895237Y-14563334D02*
X32742856Y-14563334D01*
X32742856Y-14563334D02*
X32666666Y-14601429D01*
X32666666Y-14601429D02*
X32590475Y-14677619D01*
X32590475Y-14677619D02*
X32552380Y-14830000D01*
X32552380Y-14830000D02*
X32552380Y-15096667D01*
X32552380Y-15096667D02*
X32590475Y-15249048D01*
X32590475Y-15249048D02*
X32666666Y-15325239D01*
X32666666Y-15325239D02*
X32742856Y-15363334D01*
X32742856Y-15363334D02*
X32895237Y-15363334D01*
X32895237Y-15363334D02*
X32971428Y-15325239D01*
X32971428Y-15325239D02*
X33047618Y-15249048D01*
X33047618Y-15249048D02*
X33085714Y-15096667D01*
X33085714Y-15096667D02*
X33085714Y-14830000D01*
X33085714Y-14830000D02*
X33047618Y-14677619D01*
X33047618Y-14677619D02*
X32971428Y-14601429D01*
X32971428Y-14601429D02*
X32895237Y-14563334D01*
X32323809Y-14563334D02*
X31866666Y-14563334D01*
X32095238Y-15363334D02*
X32095238Y-14563334D01*
X31790476Y-15439524D02*
X31180952Y-15439524D01*
X30990475Y-15363334D02*
X30990475Y-14563334D01*
X30990475Y-14563334D02*
X30533332Y-15363334D01*
X30533332Y-15363334D02*
X30533332Y-14563334D01*
X52638096Y-40363335D02*
X52638096Y-39563335D01*
X52638096Y-39563335D02*
X52447620Y-39563335D01*
X52447620Y-39563335D02*
X52333334Y-39601430D01*
X52333334Y-39601430D02*
X52257144Y-39677620D01*
X52257144Y-39677620D02*
X52219049Y-39753811D01*
X52219049Y-39753811D02*
X52180953Y-39906192D01*
X52180953Y-39906192D02*
X52180953Y-40020478D01*
X52180953Y-40020478D02*
X52219049Y-40172859D01*
X52219049Y-40172859D02*
X52257144Y-40249049D01*
X52257144Y-40249049D02*
X52333334Y-40325240D01*
X52333334Y-40325240D02*
X52447620Y-40363335D01*
X52447620Y-40363335D02*
X52638096Y-40363335D01*
X51838096Y-40363335D02*
X51838096Y-39563335D01*
X51838096Y-39563335D02*
X51380953Y-40363335D01*
X51380953Y-40363335D02*
X51380953Y-39563335D01*
X51000001Y-40363335D02*
X51000001Y-39563335D01*
X51000001Y-39563335D02*
X50695239Y-39563335D01*
X50695239Y-39563335D02*
X50619049Y-39601430D01*
X50619049Y-39601430D02*
X50580954Y-39639525D01*
X50580954Y-39639525D02*
X50542858Y-39715716D01*
X50542858Y-39715716D02*
X50542858Y-39830001D01*
X50542858Y-39830001D02*
X50580954Y-39906192D01*
X50580954Y-39906192D02*
X50619049Y-39944287D01*
X50619049Y-39944287D02*
X50695239Y-39982382D01*
X50695239Y-39982382D02*
X51000001Y-39982382D01*
X50200001Y-40287144D02*
X50161906Y-40325240D01*
X50161906Y-40325240D02*
X50200001Y-40363335D01*
X50200001Y-40363335D02*
X50238097Y-40325240D01*
X50238097Y-40325240D02*
X50200001Y-40287144D01*
X50200001Y-40287144D02*
X50200001Y-40363335D01*
X50200001Y-39868097D02*
X50161906Y-39906192D01*
X50161906Y-39906192D02*
X50200001Y-39944287D01*
X50200001Y-39944287D02*
X50238097Y-39906192D01*
X50238097Y-39906192D02*
X50200001Y-39868097D01*
X50200001Y-39868097D02*
X50200001Y-39944287D01*
X48752382Y-40287144D02*
X48790478Y-40325240D01*
X48790478Y-40325240D02*
X48904763Y-40363335D01*
X48904763Y-40363335D02*
X48980954Y-40363335D01*
X48980954Y-40363335D02*
X49095240Y-40325240D01*
X49095240Y-40325240D02*
X49171430Y-40249049D01*
X49171430Y-40249049D02*
X49209525Y-40172859D01*
X49209525Y-40172859D02*
X49247621Y-40020478D01*
X49247621Y-40020478D02*
X49247621Y-39906192D01*
X49247621Y-39906192D02*
X49209525Y-39753811D01*
X49209525Y-39753811D02*
X49171430Y-39677620D01*
X49171430Y-39677620D02*
X49095240Y-39601430D01*
X49095240Y-39601430D02*
X48980954Y-39563335D01*
X48980954Y-39563335D02*
X48904763Y-39563335D01*
X48904763Y-39563335D02*
X48790478Y-39601430D01*
X48790478Y-39601430D02*
X48752382Y-39639525D01*
X47990478Y-40363335D02*
X48447621Y-40363335D01*
X48219049Y-40363335D02*
X48219049Y-39563335D01*
X48219049Y-39563335D02*
X48295240Y-39677620D01*
X48295240Y-39677620D02*
X48371430Y-39753811D01*
X48371430Y-39753811D02*
X48447621Y-39791906D01*
X47723811Y-39563335D02*
X47190477Y-39563335D01*
X47190477Y-39563335D02*
X47533335Y-40363335D01*
X45819048Y-40287144D02*
X45857144Y-40325240D01*
X45857144Y-40325240D02*
X45971429Y-40363335D01*
X45971429Y-40363335D02*
X46047620Y-40363335D01*
X46047620Y-40363335D02*
X46161906Y-40325240D01*
X46161906Y-40325240D02*
X46238096Y-40249049D01*
X46238096Y-40249049D02*
X46276191Y-40172859D01*
X46276191Y-40172859D02*
X46314287Y-40020478D01*
X46314287Y-40020478D02*
X46314287Y-39906192D01*
X46314287Y-39906192D02*
X46276191Y-39753811D01*
X46276191Y-39753811D02*
X46238096Y-39677620D01*
X46238096Y-39677620D02*
X46161906Y-39601430D01*
X46161906Y-39601430D02*
X46047620Y-39563335D01*
X46047620Y-39563335D02*
X45971429Y-39563335D01*
X45971429Y-39563335D02*
X45857144Y-39601430D01*
X45857144Y-39601430D02*
X45819048Y-39639525D01*
X45057144Y-40363335D02*
X45514287Y-40363335D01*
X45285715Y-40363335D02*
X45285715Y-39563335D01*
X45285715Y-39563335D02*
X45361906Y-39677620D01*
X45361906Y-39677620D02*
X45438096Y-39753811D01*
X45438096Y-39753811D02*
X45514287Y-39791906D01*
X44600001Y-39906192D02*
X44676191Y-39868097D01*
X44676191Y-39868097D02*
X44714286Y-39830001D01*
X44714286Y-39830001D02*
X44752382Y-39753811D01*
X44752382Y-39753811D02*
X44752382Y-39715716D01*
X44752382Y-39715716D02*
X44714286Y-39639525D01*
X44714286Y-39639525D02*
X44676191Y-39601430D01*
X44676191Y-39601430D02*
X44600001Y-39563335D01*
X44600001Y-39563335D02*
X44447620Y-39563335D01*
X44447620Y-39563335D02*
X44371429Y-39601430D01*
X44371429Y-39601430D02*
X44333334Y-39639525D01*
X44333334Y-39639525D02*
X44295239Y-39715716D01*
X44295239Y-39715716D02*
X44295239Y-39753811D01*
X44295239Y-39753811D02*
X44333334Y-39830001D01*
X44333334Y-39830001D02*
X44371429Y-39868097D01*
X44371429Y-39868097D02*
X44447620Y-39906192D01*
X44447620Y-39906192D02*
X44600001Y-39906192D01*
X44600001Y-39906192D02*
X44676191Y-39944287D01*
X44676191Y-39944287D02*
X44714286Y-39982382D01*
X44714286Y-39982382D02*
X44752382Y-40058573D01*
X44752382Y-40058573D02*
X44752382Y-40210954D01*
X44752382Y-40210954D02*
X44714286Y-40287144D01*
X44714286Y-40287144D02*
X44676191Y-40325240D01*
X44676191Y-40325240D02*
X44600001Y-40363335D01*
X44600001Y-40363335D02*
X44447620Y-40363335D01*
X44447620Y-40363335D02*
X44371429Y-40325240D01*
X44371429Y-40325240D02*
X44333334Y-40287144D01*
X44333334Y-40287144D02*
X44295239Y-40210954D01*
X44295239Y-40210954D02*
X44295239Y-40058573D01*
X44295239Y-40058573D02*
X44333334Y-39982382D01*
X44333334Y-39982382D02*
X44371429Y-39944287D01*
X44371429Y-39944287D02*
X44447620Y-39906192D01*
X42885714Y-40363335D02*
X43152381Y-39982382D01*
X43342857Y-40363335D02*
X43342857Y-39563335D01*
X43342857Y-39563335D02*
X43038095Y-39563335D01*
X43038095Y-39563335D02*
X42961905Y-39601430D01*
X42961905Y-39601430D02*
X42923810Y-39639525D01*
X42923810Y-39639525D02*
X42885714Y-39715716D01*
X42885714Y-39715716D02*
X42885714Y-39830001D01*
X42885714Y-39830001D02*
X42923810Y-39906192D01*
X42923810Y-39906192D02*
X42961905Y-39944287D01*
X42961905Y-39944287D02*
X43038095Y-39982382D01*
X43038095Y-39982382D02*
X43342857Y-39982382D01*
X42200000Y-39563335D02*
X42352381Y-39563335D01*
X42352381Y-39563335D02*
X42428572Y-39601430D01*
X42428572Y-39601430D02*
X42466667Y-39639525D01*
X42466667Y-39639525D02*
X42542857Y-39753811D01*
X42542857Y-39753811D02*
X42580953Y-39906192D01*
X42580953Y-39906192D02*
X42580953Y-40210954D01*
X42580953Y-40210954D02*
X42542857Y-40287144D01*
X42542857Y-40287144D02*
X42504762Y-40325240D01*
X42504762Y-40325240D02*
X42428572Y-40363335D01*
X42428572Y-40363335D02*
X42276191Y-40363335D01*
X42276191Y-40363335D02*
X42200000Y-40325240D01*
X42200000Y-40325240D02*
X42161905Y-40287144D01*
X42161905Y-40287144D02*
X42123810Y-40210954D01*
X42123810Y-40210954D02*
X42123810Y-40020478D01*
X42123810Y-40020478D02*
X42161905Y-39944287D01*
X42161905Y-39944287D02*
X42200000Y-39906192D01*
X42200000Y-39906192D02*
X42276191Y-39868097D01*
X42276191Y-39868097D02*
X42428572Y-39868097D01*
X42428572Y-39868097D02*
X42504762Y-39906192D01*
X42504762Y-39906192D02*
X42542857Y-39944287D01*
X42542857Y-39944287D02*
X42580953Y-40020478D01*
X40714285Y-40363335D02*
X40980952Y-39982382D01*
X41171428Y-40363335D02*
X41171428Y-39563335D01*
X41171428Y-39563335D02*
X40866666Y-39563335D01*
X40866666Y-39563335D02*
X40790476Y-39601430D01*
X40790476Y-39601430D02*
X40752381Y-39639525D01*
X40752381Y-39639525D02*
X40714285Y-39715716D01*
X40714285Y-39715716D02*
X40714285Y-39830001D01*
X40714285Y-39830001D02*
X40752381Y-39906192D01*
X40752381Y-39906192D02*
X40790476Y-39944287D01*
X40790476Y-39944287D02*
X40866666Y-39982382D01*
X40866666Y-39982382D02*
X41171428Y-39982382D01*
X39952381Y-40363335D02*
X40409524Y-40363335D01*
X40180952Y-40363335D02*
X40180952Y-39563335D01*
X40180952Y-39563335D02*
X40257143Y-39677620D01*
X40257143Y-39677620D02*
X40333333Y-39753811D01*
X40333333Y-39753811D02*
X40409524Y-39791906D01*
X39647619Y-39639525D02*
X39609523Y-39601430D01*
X39609523Y-39601430D02*
X39533333Y-39563335D01*
X39533333Y-39563335D02*
X39342857Y-39563335D01*
X39342857Y-39563335D02*
X39266666Y-39601430D01*
X39266666Y-39601430D02*
X39228571Y-39639525D01*
X39228571Y-39639525D02*
X39190476Y-39715716D01*
X39190476Y-39715716D02*
X39190476Y-39791906D01*
X39190476Y-39791906D02*
X39228571Y-39906192D01*
X39228571Y-39906192D02*
X39685714Y-40363335D01*
X39685714Y-40363335D02*
X39190476Y-40363335D01*
X37780951Y-40363335D02*
X38047618Y-39982382D01*
X38238094Y-40363335D02*
X38238094Y-39563335D01*
X38238094Y-39563335D02*
X37933332Y-39563335D01*
X37933332Y-39563335D02*
X37857142Y-39601430D01*
X37857142Y-39601430D02*
X37819047Y-39639525D01*
X37819047Y-39639525D02*
X37780951Y-39715716D01*
X37780951Y-39715716D02*
X37780951Y-39830001D01*
X37780951Y-39830001D02*
X37819047Y-39906192D01*
X37819047Y-39906192D02*
X37857142Y-39944287D01*
X37857142Y-39944287D02*
X37933332Y-39982382D01*
X37933332Y-39982382D02*
X38238094Y-39982382D01*
X37476190Y-39639525D02*
X37438094Y-39601430D01*
X37438094Y-39601430D02*
X37361904Y-39563335D01*
X37361904Y-39563335D02*
X37171428Y-39563335D01*
X37171428Y-39563335D02*
X37095237Y-39601430D01*
X37095237Y-39601430D02*
X37057142Y-39639525D01*
X37057142Y-39639525D02*
X37019047Y-39715716D01*
X37019047Y-39715716D02*
X37019047Y-39791906D01*
X37019047Y-39791906D02*
X37057142Y-39906192D01*
X37057142Y-39906192D02*
X37514285Y-40363335D01*
X37514285Y-40363335D02*
X37019047Y-40363335D01*
X36714285Y-39639525D02*
X36676189Y-39601430D01*
X36676189Y-39601430D02*
X36599999Y-39563335D01*
X36599999Y-39563335D02*
X36409523Y-39563335D01*
X36409523Y-39563335D02*
X36333332Y-39601430D01*
X36333332Y-39601430D02*
X36295237Y-39639525D01*
X36295237Y-39639525D02*
X36257142Y-39715716D01*
X36257142Y-39715716D02*
X36257142Y-39791906D01*
X36257142Y-39791906D02*
X36295237Y-39906192D01*
X36295237Y-39906192D02*
X36752380Y-40363335D01*
X36752380Y-40363335D02*
X36257142Y-40363335D01*
X34847617Y-40363335D02*
X35114284Y-39982382D01*
X35304760Y-40363335D02*
X35304760Y-39563335D01*
X35304760Y-39563335D02*
X34999998Y-39563335D01*
X34999998Y-39563335D02*
X34923808Y-39601430D01*
X34923808Y-39601430D02*
X34885713Y-39639525D01*
X34885713Y-39639525D02*
X34847617Y-39715716D01*
X34847617Y-39715716D02*
X34847617Y-39830001D01*
X34847617Y-39830001D02*
X34885713Y-39906192D01*
X34885713Y-39906192D02*
X34923808Y-39944287D01*
X34923808Y-39944287D02*
X34999998Y-39982382D01*
X34999998Y-39982382D02*
X35304760Y-39982382D01*
X34580951Y-39563335D02*
X34085713Y-39563335D01*
X34085713Y-39563335D02*
X34352379Y-39868097D01*
X34352379Y-39868097D02*
X34238094Y-39868097D01*
X34238094Y-39868097D02*
X34161903Y-39906192D01*
X34161903Y-39906192D02*
X34123808Y-39944287D01*
X34123808Y-39944287D02*
X34085713Y-40020478D01*
X34085713Y-40020478D02*
X34085713Y-40210954D01*
X34085713Y-40210954D02*
X34123808Y-40287144D01*
X34123808Y-40287144D02*
X34161903Y-40325240D01*
X34161903Y-40325240D02*
X34238094Y-40363335D01*
X34238094Y-40363335D02*
X34466665Y-40363335D01*
X34466665Y-40363335D02*
X34542856Y-40325240D01*
X34542856Y-40325240D02*
X34580951Y-40287144D01*
X33704760Y-40363335D02*
X33552379Y-40363335D01*
X33552379Y-40363335D02*
X33476189Y-40325240D01*
X33476189Y-40325240D02*
X33438093Y-40287144D01*
X33438093Y-40287144D02*
X33361903Y-40172859D01*
X33361903Y-40172859D02*
X33323808Y-40020478D01*
X33323808Y-40020478D02*
X33323808Y-39715716D01*
X33323808Y-39715716D02*
X33361903Y-39639525D01*
X33361903Y-39639525D02*
X33399998Y-39601430D01*
X33399998Y-39601430D02*
X33476189Y-39563335D01*
X33476189Y-39563335D02*
X33628570Y-39563335D01*
X33628570Y-39563335D02*
X33704760Y-39601430D01*
X33704760Y-39601430D02*
X33742855Y-39639525D01*
X33742855Y-39639525D02*
X33780951Y-39715716D01*
X33780951Y-39715716D02*
X33780951Y-39906192D01*
X33780951Y-39906192D02*
X33742855Y-39982382D01*
X33742855Y-39982382D02*
X33704760Y-40020478D01*
X33704760Y-40020478D02*
X33628570Y-40058573D01*
X33628570Y-40058573D02*
X33476189Y-40058573D01*
X33476189Y-40058573D02*
X33399998Y-40020478D01*
X33399998Y-40020478D02*
X33361903Y-39982382D01*
X33361903Y-39982382D02*
X33323808Y-39906192D01*
X51885714Y-18963335D02*
X51428571Y-18963335D01*
X51657143Y-19763335D02*
X51657143Y-18963335D01*
X51161904Y-19763335D02*
X51161904Y-18963335D01*
X51161904Y-18963335D02*
X50857142Y-18963335D01*
X50857142Y-18963335D02*
X50780952Y-19001430D01*
X50780952Y-19001430D02*
X50742857Y-19039525D01*
X50742857Y-19039525D02*
X50704761Y-19115716D01*
X50704761Y-19115716D02*
X50704761Y-19230001D01*
X50704761Y-19230001D02*
X50742857Y-19306192D01*
X50742857Y-19306192D02*
X50780952Y-19344287D01*
X50780952Y-19344287D02*
X50857142Y-19382382D01*
X50857142Y-19382382D02*
X51161904Y-19382382D01*
X50019047Y-19230001D02*
X50019047Y-19763335D01*
X50209523Y-18925240D02*
X50400000Y-19496668D01*
X50400000Y-19496668D02*
X49904761Y-19496668D01*
X49066666Y-18963335D02*
X48571428Y-18963335D01*
X48571428Y-18963335D02*
X48838094Y-19268097D01*
X48838094Y-19268097D02*
X48723809Y-19268097D01*
X48723809Y-19268097D02*
X48647618Y-19306192D01*
X48647618Y-19306192D02*
X48609523Y-19344287D01*
X48609523Y-19344287D02*
X48571428Y-19420478D01*
X48571428Y-19420478D02*
X48571428Y-19610954D01*
X48571428Y-19610954D02*
X48609523Y-19687144D01*
X48609523Y-19687144D02*
X48647618Y-19725240D01*
X48647618Y-19725240D02*
X48723809Y-19763335D01*
X48723809Y-19763335D02*
X48952380Y-19763335D01*
X48952380Y-19763335D02*
X49028571Y-19725240D01*
X49028571Y-19725240D02*
X49066666Y-19687144D01*
X48342856Y-18963335D02*
X48076189Y-19763335D01*
X48076189Y-19763335D02*
X47809523Y-18963335D01*
X47619047Y-18963335D02*
X47123809Y-18963335D01*
X47123809Y-18963335D02*
X47390475Y-19268097D01*
X47390475Y-19268097D02*
X47276190Y-19268097D01*
X47276190Y-19268097D02*
X47199999Y-19306192D01*
X47199999Y-19306192D02*
X47161904Y-19344287D01*
X47161904Y-19344287D02*
X47123809Y-19420478D01*
X47123809Y-19420478D02*
X47123809Y-19610954D01*
X47123809Y-19610954D02*
X47161904Y-19687144D01*
X47161904Y-19687144D02*
X47199999Y-19725240D01*
X47199999Y-19725240D02*
X47276190Y-19763335D01*
X47276190Y-19763335D02*
X47504761Y-19763335D01*
X47504761Y-19763335D02*
X47580952Y-19725240D01*
X47580952Y-19725240D02*
X47619047Y-19687144D01*
X46971428Y-19839525D02*
X46361904Y-19839525D01*
X45714284Y-19763335D02*
X45980951Y-19382382D01*
X46171427Y-19763335D02*
X46171427Y-18963335D01*
X46171427Y-18963335D02*
X45866665Y-18963335D01*
X45866665Y-18963335D02*
X45790475Y-19001430D01*
X45790475Y-19001430D02*
X45752380Y-19039525D01*
X45752380Y-19039525D02*
X45714284Y-19115716D01*
X45714284Y-19115716D02*
X45714284Y-19230001D01*
X45714284Y-19230001D02*
X45752380Y-19306192D01*
X45752380Y-19306192D02*
X45790475Y-19344287D01*
X45790475Y-19344287D02*
X45866665Y-19382382D01*
X45866665Y-19382382D02*
X46171427Y-19382382D01*
X45371427Y-19344287D02*
X45104761Y-19344287D01*
X44990475Y-19763335D02*
X45371427Y-19763335D01*
X45371427Y-19763335D02*
X45371427Y-18963335D01*
X45371427Y-18963335D02*
X44990475Y-18963335D01*
X44228570Y-19001430D02*
X44304760Y-18963335D01*
X44304760Y-18963335D02*
X44419046Y-18963335D01*
X44419046Y-18963335D02*
X44533332Y-19001430D01*
X44533332Y-19001430D02*
X44609522Y-19077620D01*
X44609522Y-19077620D02*
X44647617Y-19153811D01*
X44647617Y-19153811D02*
X44685713Y-19306192D01*
X44685713Y-19306192D02*
X44685713Y-19420478D01*
X44685713Y-19420478D02*
X44647617Y-19572859D01*
X44647617Y-19572859D02*
X44609522Y-19649049D01*
X44609522Y-19649049D02*
X44533332Y-19725240D01*
X44533332Y-19725240D02*
X44419046Y-19763335D01*
X44419046Y-19763335D02*
X44342855Y-19763335D01*
X44342855Y-19763335D02*
X44228570Y-19725240D01*
X44228570Y-19725240D02*
X44190474Y-19687144D01*
X44190474Y-19687144D02*
X44190474Y-19420478D01*
X44190474Y-19420478D02*
X44342855Y-19420478D01*
X54419047Y-15963334D02*
X53961904Y-15963334D01*
X54190476Y-16763334D02*
X54190476Y-15963334D01*
X53695237Y-16763334D02*
X53695237Y-15963334D01*
X53695237Y-15963334D02*
X53390475Y-15963334D01*
X53390475Y-15963334D02*
X53314285Y-16001429D01*
X53314285Y-16001429D02*
X53276190Y-16039524D01*
X53276190Y-16039524D02*
X53238094Y-16115715D01*
X53238094Y-16115715D02*
X53238094Y-16230000D01*
X53238094Y-16230000D02*
X53276190Y-16306191D01*
X53276190Y-16306191D02*
X53314285Y-16344286D01*
X53314285Y-16344286D02*
X53390475Y-16382381D01*
X53390475Y-16382381D02*
X53695237Y-16382381D01*
X52514285Y-15963334D02*
X52895237Y-15963334D01*
X52895237Y-15963334D02*
X52933333Y-16344286D01*
X52933333Y-16344286D02*
X52895237Y-16306191D01*
X52895237Y-16306191D02*
X52819047Y-16268096D01*
X52819047Y-16268096D02*
X52628571Y-16268096D01*
X52628571Y-16268096D02*
X52552380Y-16306191D01*
X52552380Y-16306191D02*
X52514285Y-16344286D01*
X52514285Y-16344286D02*
X52476190Y-16420477D01*
X52476190Y-16420477D02*
X52476190Y-16610953D01*
X52476190Y-16610953D02*
X52514285Y-16687143D01*
X52514285Y-16687143D02*
X52552380Y-16725239D01*
X52552380Y-16725239D02*
X52628571Y-16763334D01*
X52628571Y-16763334D02*
X52819047Y-16763334D01*
X52819047Y-16763334D02*
X52895237Y-16725239D01*
X52895237Y-16725239D02*
X52933333Y-16687143D01*
X51599999Y-15963334D02*
X51104761Y-15963334D01*
X51104761Y-15963334D02*
X51371427Y-16268096D01*
X51371427Y-16268096D02*
X51257142Y-16268096D01*
X51257142Y-16268096D02*
X51180951Y-16306191D01*
X51180951Y-16306191D02*
X51142856Y-16344286D01*
X51142856Y-16344286D02*
X51104761Y-16420477D01*
X51104761Y-16420477D02*
X51104761Y-16610953D01*
X51104761Y-16610953D02*
X51142856Y-16687143D01*
X51142856Y-16687143D02*
X51180951Y-16725239D01*
X51180951Y-16725239D02*
X51257142Y-16763334D01*
X51257142Y-16763334D02*
X51485713Y-16763334D01*
X51485713Y-16763334D02*
X51561904Y-16725239D01*
X51561904Y-16725239D02*
X51599999Y-16687143D01*
X50876189Y-15963334D02*
X50609522Y-16763334D01*
X50609522Y-16763334D02*
X50342856Y-15963334D01*
X50152380Y-15963334D02*
X49657142Y-15963334D01*
X49657142Y-15963334D02*
X49923808Y-16268096D01*
X49923808Y-16268096D02*
X49809523Y-16268096D01*
X49809523Y-16268096D02*
X49733332Y-16306191D01*
X49733332Y-16306191D02*
X49695237Y-16344286D01*
X49695237Y-16344286D02*
X49657142Y-16420477D01*
X49657142Y-16420477D02*
X49657142Y-16610953D01*
X49657142Y-16610953D02*
X49695237Y-16687143D01*
X49695237Y-16687143D02*
X49733332Y-16725239D01*
X49733332Y-16725239D02*
X49809523Y-16763334D01*
X49809523Y-16763334D02*
X50038094Y-16763334D01*
X50038094Y-16763334D02*
X50114285Y-16725239D01*
X50114285Y-16725239D02*
X50152380Y-16687143D01*
X54533333Y-20963335D02*
X54076190Y-20963335D01*
X54304762Y-21763335D02*
X54304762Y-20963335D01*
X53809523Y-21763335D02*
X53809523Y-20963335D01*
X53809523Y-20963335D02*
X53504761Y-20963335D01*
X53504761Y-20963335D02*
X53428571Y-21001430D01*
X53428571Y-21001430D02*
X53390476Y-21039525D01*
X53390476Y-21039525D02*
X53352380Y-21115716D01*
X53352380Y-21115716D02*
X53352380Y-21230001D01*
X53352380Y-21230001D02*
X53390476Y-21306192D01*
X53390476Y-21306192D02*
X53428571Y-21344287D01*
X53428571Y-21344287D02*
X53504761Y-21382382D01*
X53504761Y-21382382D02*
X53809523Y-21382382D01*
X52666666Y-20963335D02*
X52819047Y-20963335D01*
X52819047Y-20963335D02*
X52895238Y-21001430D01*
X52895238Y-21001430D02*
X52933333Y-21039525D01*
X52933333Y-21039525D02*
X53009523Y-21153811D01*
X53009523Y-21153811D02*
X53047619Y-21306192D01*
X53047619Y-21306192D02*
X53047619Y-21610954D01*
X53047619Y-21610954D02*
X53009523Y-21687144D01*
X53009523Y-21687144D02*
X52971428Y-21725240D01*
X52971428Y-21725240D02*
X52895238Y-21763335D01*
X52895238Y-21763335D02*
X52742857Y-21763335D01*
X52742857Y-21763335D02*
X52666666Y-21725240D01*
X52666666Y-21725240D02*
X52628571Y-21687144D01*
X52628571Y-21687144D02*
X52590476Y-21610954D01*
X52590476Y-21610954D02*
X52590476Y-21420478D01*
X52590476Y-21420478D02*
X52628571Y-21344287D01*
X52628571Y-21344287D02*
X52666666Y-21306192D01*
X52666666Y-21306192D02*
X52742857Y-21268097D01*
X52742857Y-21268097D02*
X52895238Y-21268097D01*
X52895238Y-21268097D02*
X52971428Y-21306192D01*
X52971428Y-21306192D02*
X53009523Y-21344287D01*
X53009523Y-21344287D02*
X53047619Y-21420478D01*
X51219047Y-21001430D02*
X51295237Y-20963335D01*
X51295237Y-20963335D02*
X51409523Y-20963335D01*
X51409523Y-20963335D02*
X51523809Y-21001430D01*
X51523809Y-21001430D02*
X51599999Y-21077620D01*
X51599999Y-21077620D02*
X51638094Y-21153811D01*
X51638094Y-21153811D02*
X51676190Y-21306192D01*
X51676190Y-21306192D02*
X51676190Y-21420478D01*
X51676190Y-21420478D02*
X51638094Y-21572859D01*
X51638094Y-21572859D02*
X51599999Y-21649049D01*
X51599999Y-21649049D02*
X51523809Y-21725240D01*
X51523809Y-21725240D02*
X51409523Y-21763335D01*
X51409523Y-21763335D02*
X51333332Y-21763335D01*
X51333332Y-21763335D02*
X51219047Y-21725240D01*
X51219047Y-21725240D02*
X51180951Y-21687144D01*
X51180951Y-21687144D02*
X51180951Y-21420478D01*
X51180951Y-21420478D02*
X51333332Y-21420478D01*
X50838094Y-21763335D02*
X50838094Y-20963335D01*
X50838094Y-20963335D02*
X50380951Y-21763335D01*
X50380951Y-21763335D02*
X50380951Y-20963335D01*
X49999999Y-21763335D02*
X49999999Y-20963335D01*
X49999999Y-20963335D02*
X49809523Y-20963335D01*
X49809523Y-20963335D02*
X49695237Y-21001430D01*
X49695237Y-21001430D02*
X49619047Y-21077620D01*
X49619047Y-21077620D02*
X49580952Y-21153811D01*
X49580952Y-21153811D02*
X49542856Y-21306192D01*
X49542856Y-21306192D02*
X49542856Y-21420478D01*
X49542856Y-21420478D02*
X49580952Y-21572859D01*
X49580952Y-21572859D02*
X49619047Y-21649049D01*
X49619047Y-21649049D02*
X49695237Y-21725240D01*
X49695237Y-21725240D02*
X49809523Y-21763335D01*
X49809523Y-21763335D02*
X49999999Y-21763335D01*
X71914285Y-44963335D02*
X71457142Y-44963335D01*
X71685714Y-45763335D02*
X71685714Y-44963335D01*
X71190475Y-45763335D02*
X71190475Y-44963335D01*
X71190475Y-44963335D02*
X70885713Y-44963335D01*
X70885713Y-44963335D02*
X70809523Y-45001430D01*
X70809523Y-45001430D02*
X70771428Y-45039525D01*
X70771428Y-45039525D02*
X70733332Y-45115716D01*
X70733332Y-45115716D02*
X70733332Y-45230001D01*
X70733332Y-45230001D02*
X70771428Y-45306192D01*
X70771428Y-45306192D02*
X70809523Y-45344287D01*
X70809523Y-45344287D02*
X70885713Y-45382382D01*
X70885713Y-45382382D02*
X71190475Y-45382382D01*
X69971428Y-45763335D02*
X70428571Y-45763335D01*
X70199999Y-45763335D02*
X70199999Y-44963335D01*
X70199999Y-44963335D02*
X70276190Y-45077620D01*
X70276190Y-45077620D02*
X70352380Y-45153811D01*
X70352380Y-45153811D02*
X70428571Y-45191906D01*
X69285713Y-45230001D02*
X69285713Y-45763335D01*
X69476189Y-44925240D02*
X69666666Y-45496668D01*
X69666666Y-45496668D02*
X69171427Y-45496668D01*
X67838094Y-45001430D02*
X67914284Y-44963335D01*
X67914284Y-44963335D02*
X68028570Y-44963335D01*
X68028570Y-44963335D02*
X68142856Y-45001430D01*
X68142856Y-45001430D02*
X68219046Y-45077620D01*
X68219046Y-45077620D02*
X68257141Y-45153811D01*
X68257141Y-45153811D02*
X68295237Y-45306192D01*
X68295237Y-45306192D02*
X68295237Y-45420478D01*
X68295237Y-45420478D02*
X68257141Y-45572859D01*
X68257141Y-45572859D02*
X68219046Y-45649049D01*
X68219046Y-45649049D02*
X68142856Y-45725240D01*
X68142856Y-45725240D02*
X68028570Y-45763335D01*
X68028570Y-45763335D02*
X67952379Y-45763335D01*
X67952379Y-45763335D02*
X67838094Y-45725240D01*
X67838094Y-45725240D02*
X67799998Y-45687144D01*
X67799998Y-45687144D02*
X67799998Y-45420478D01*
X67799998Y-45420478D02*
X67952379Y-45420478D01*
X67457141Y-45763335D02*
X67457141Y-44963335D01*
X67457141Y-44963335D02*
X66999998Y-45763335D01*
X66999998Y-45763335D02*
X66999998Y-44963335D01*
X66619046Y-45763335D02*
X66619046Y-44963335D01*
X66619046Y-44963335D02*
X66428570Y-44963335D01*
X66428570Y-44963335D02*
X66314284Y-45001430D01*
X66314284Y-45001430D02*
X66238094Y-45077620D01*
X66238094Y-45077620D02*
X66199999Y-45153811D01*
X66199999Y-45153811D02*
X66161903Y-45306192D01*
X66161903Y-45306192D02*
X66161903Y-45420478D01*
X66161903Y-45420478D02*
X66199999Y-45572859D01*
X66199999Y-45572859D02*
X66238094Y-45649049D01*
X66238094Y-45649049D02*
X66314284Y-45725240D01*
X66314284Y-45725240D02*
X66428570Y-45763335D01*
X66428570Y-45763335D02*
X66619046Y-45763335D01*
X73961904Y-39963335D02*
X73504761Y-39963335D01*
X73733333Y-40763335D02*
X73733333Y-39963335D01*
X73238094Y-40763335D02*
X73238094Y-39963335D01*
X73238094Y-39963335D02*
X72933332Y-39963335D01*
X72933332Y-39963335D02*
X72857142Y-40001430D01*
X72857142Y-40001430D02*
X72819047Y-40039525D01*
X72819047Y-40039525D02*
X72780951Y-40115716D01*
X72780951Y-40115716D02*
X72780951Y-40230001D01*
X72780951Y-40230001D02*
X72819047Y-40306192D01*
X72819047Y-40306192D02*
X72857142Y-40344287D01*
X72857142Y-40344287D02*
X72933332Y-40382382D01*
X72933332Y-40382382D02*
X73238094Y-40382382D01*
X72019047Y-40763335D02*
X72476190Y-40763335D01*
X72247618Y-40763335D02*
X72247618Y-39963335D01*
X72247618Y-39963335D02*
X72323809Y-40077620D01*
X72323809Y-40077620D02*
X72399999Y-40153811D01*
X72399999Y-40153811D02*
X72476190Y-40191906D01*
X71295237Y-39963335D02*
X71676189Y-39963335D01*
X71676189Y-39963335D02*
X71714285Y-40344287D01*
X71714285Y-40344287D02*
X71676189Y-40306192D01*
X71676189Y-40306192D02*
X71599999Y-40268097D01*
X71599999Y-40268097D02*
X71409523Y-40268097D01*
X71409523Y-40268097D02*
X71333332Y-40306192D01*
X71333332Y-40306192D02*
X71295237Y-40344287D01*
X71295237Y-40344287D02*
X71257142Y-40420478D01*
X71257142Y-40420478D02*
X71257142Y-40610954D01*
X71257142Y-40610954D02*
X71295237Y-40687144D01*
X71295237Y-40687144D02*
X71333332Y-40725240D01*
X71333332Y-40725240D02*
X71409523Y-40763335D01*
X71409523Y-40763335D02*
X71599999Y-40763335D01*
X71599999Y-40763335D02*
X71676189Y-40725240D01*
X71676189Y-40725240D02*
X71714285Y-40687144D01*
X70038094Y-40344287D02*
X69923808Y-40382382D01*
X69923808Y-40382382D02*
X69885713Y-40420478D01*
X69885713Y-40420478D02*
X69847617Y-40496668D01*
X69847617Y-40496668D02*
X69847617Y-40610954D01*
X69847617Y-40610954D02*
X69885713Y-40687144D01*
X69885713Y-40687144D02*
X69923808Y-40725240D01*
X69923808Y-40725240D02*
X69999998Y-40763335D01*
X69999998Y-40763335D02*
X70304760Y-40763335D01*
X70304760Y-40763335D02*
X70304760Y-39963335D01*
X70304760Y-39963335D02*
X70038094Y-39963335D01*
X70038094Y-39963335D02*
X69961903Y-40001430D01*
X69961903Y-40001430D02*
X69923808Y-40039525D01*
X69923808Y-40039525D02*
X69885713Y-40115716D01*
X69885713Y-40115716D02*
X69885713Y-40191906D01*
X69885713Y-40191906D02*
X69923808Y-40268097D01*
X69923808Y-40268097D02*
X69961903Y-40306192D01*
X69961903Y-40306192D02*
X70038094Y-40344287D01*
X70038094Y-40344287D02*
X70304760Y-40344287D01*
X69504760Y-39963335D02*
X69504760Y-40610954D01*
X69504760Y-40610954D02*
X69466665Y-40687144D01*
X69466665Y-40687144D02*
X69428570Y-40725240D01*
X69428570Y-40725240D02*
X69352379Y-40763335D01*
X69352379Y-40763335D02*
X69199998Y-40763335D01*
X69199998Y-40763335D02*
X69123808Y-40725240D01*
X69123808Y-40725240D02*
X69085713Y-40687144D01*
X69085713Y-40687144D02*
X69047617Y-40610954D01*
X69047617Y-40610954D02*
X69047617Y-39963335D01*
X68780951Y-39963335D02*
X68323808Y-39963335D01*
X68552380Y-40763335D02*
X68552380Y-39963335D01*
X68171427Y-39963335D02*
X67714284Y-39963335D01*
X67942856Y-40763335D02*
X67942856Y-39963335D01*
X67295236Y-39963335D02*
X67142855Y-39963335D01*
X67142855Y-39963335D02*
X67066665Y-40001430D01*
X67066665Y-40001430D02*
X66990474Y-40077620D01*
X66990474Y-40077620D02*
X66952379Y-40230001D01*
X66952379Y-40230001D02*
X66952379Y-40496668D01*
X66952379Y-40496668D02*
X66990474Y-40649049D01*
X66990474Y-40649049D02*
X67066665Y-40725240D01*
X67066665Y-40725240D02*
X67142855Y-40763335D01*
X67142855Y-40763335D02*
X67295236Y-40763335D01*
X67295236Y-40763335D02*
X67371427Y-40725240D01*
X67371427Y-40725240D02*
X67447617Y-40649049D01*
X67447617Y-40649049D02*
X67485713Y-40496668D01*
X67485713Y-40496668D02*
X67485713Y-40230001D01*
X67485713Y-40230001D02*
X67447617Y-40077620D01*
X67447617Y-40077620D02*
X67371427Y-40001430D01*
X67371427Y-40001430D02*
X67295236Y-39963335D01*
X66609522Y-40763335D02*
X66609522Y-39963335D01*
X66609522Y-39963335D02*
X66152379Y-40763335D01*
X66152379Y-40763335D02*
X66152379Y-39963335D01*
X74857142Y-21963335D02*
X74399999Y-21963335D01*
X74628571Y-22763335D02*
X74628571Y-21963335D01*
X74133332Y-22763335D02*
X74133332Y-21963335D01*
X74133332Y-21963335D02*
X73828570Y-21963335D01*
X73828570Y-21963335D02*
X73752380Y-22001430D01*
X73752380Y-22001430D02*
X73714285Y-22039525D01*
X73714285Y-22039525D02*
X73676189Y-22115716D01*
X73676189Y-22115716D02*
X73676189Y-22230001D01*
X73676189Y-22230001D02*
X73714285Y-22306192D01*
X73714285Y-22306192D02*
X73752380Y-22344287D01*
X73752380Y-22344287D02*
X73828570Y-22382382D01*
X73828570Y-22382382D02*
X74133332Y-22382382D01*
X72914285Y-22763335D02*
X73371428Y-22763335D01*
X73142856Y-22763335D02*
X73142856Y-21963335D01*
X73142856Y-21963335D02*
X73219047Y-22077620D01*
X73219047Y-22077620D02*
X73295237Y-22153811D01*
X73295237Y-22153811D02*
X73371428Y-22191906D01*
X72076189Y-21963335D02*
X71809522Y-22763335D01*
X71809522Y-22763335D02*
X71542856Y-21963335D01*
X71009523Y-22344287D02*
X70895237Y-22382382D01*
X70895237Y-22382382D02*
X70857142Y-22420478D01*
X70857142Y-22420478D02*
X70819046Y-22496668D01*
X70819046Y-22496668D02*
X70819046Y-22610954D01*
X70819046Y-22610954D02*
X70857142Y-22687144D01*
X70857142Y-22687144D02*
X70895237Y-22725240D01*
X70895237Y-22725240D02*
X70971427Y-22763335D01*
X70971427Y-22763335D02*
X71276189Y-22763335D01*
X71276189Y-22763335D02*
X71276189Y-21963335D01*
X71276189Y-21963335D02*
X71009523Y-21963335D01*
X71009523Y-21963335D02*
X70933332Y-22001430D01*
X70933332Y-22001430D02*
X70895237Y-22039525D01*
X70895237Y-22039525D02*
X70857142Y-22115716D01*
X70857142Y-22115716D02*
X70857142Y-22191906D01*
X70857142Y-22191906D02*
X70895237Y-22268097D01*
X70895237Y-22268097D02*
X70933332Y-22306192D01*
X70933332Y-22306192D02*
X71009523Y-22344287D01*
X71009523Y-22344287D02*
X71276189Y-22344287D01*
X70476189Y-21963335D02*
X70476189Y-22610954D01*
X70476189Y-22610954D02*
X70438094Y-22687144D01*
X70438094Y-22687144D02*
X70399999Y-22725240D01*
X70399999Y-22725240D02*
X70323808Y-22763335D01*
X70323808Y-22763335D02*
X70171427Y-22763335D01*
X70171427Y-22763335D02*
X70095237Y-22725240D01*
X70095237Y-22725240D02*
X70057142Y-22687144D01*
X70057142Y-22687144D02*
X70019046Y-22610954D01*
X70019046Y-22610954D02*
X70019046Y-21963335D01*
X69676190Y-22725240D02*
X69561904Y-22763335D01*
X69561904Y-22763335D02*
X69371428Y-22763335D01*
X69371428Y-22763335D02*
X69295237Y-22725240D01*
X69295237Y-22725240D02*
X69257142Y-22687144D01*
X69257142Y-22687144D02*
X69219047Y-22610954D01*
X69219047Y-22610954D02*
X69219047Y-22534763D01*
X69219047Y-22534763D02*
X69257142Y-22458573D01*
X69257142Y-22458573D02*
X69295237Y-22420478D01*
X69295237Y-22420478D02*
X69371428Y-22382382D01*
X69371428Y-22382382D02*
X69523809Y-22344287D01*
X69523809Y-22344287D02*
X69599999Y-22306192D01*
X69599999Y-22306192D02*
X69638094Y-22268097D01*
X69638094Y-22268097D02*
X69676190Y-22191906D01*
X69676190Y-22191906D02*
X69676190Y-22115716D01*
X69676190Y-22115716D02*
X69638094Y-22039525D01*
X69638094Y-22039525D02*
X69599999Y-22001430D01*
X69599999Y-22001430D02*
X69523809Y-21963335D01*
X69523809Y-21963335D02*
X69333332Y-21963335D01*
X69333332Y-21963335D02*
X69219047Y-22001430D01*
X77914285Y-19963335D02*
X77457142Y-19963335D01*
X77685714Y-20763335D02*
X77685714Y-19963335D01*
X77190475Y-20763335D02*
X77190475Y-19963335D01*
X77190475Y-19963335D02*
X76885713Y-19963335D01*
X76885713Y-19963335D02*
X76809523Y-20001430D01*
X76809523Y-20001430D02*
X76771428Y-20039525D01*
X76771428Y-20039525D02*
X76733332Y-20115716D01*
X76733332Y-20115716D02*
X76733332Y-20230001D01*
X76733332Y-20230001D02*
X76771428Y-20306192D01*
X76771428Y-20306192D02*
X76809523Y-20344287D01*
X76809523Y-20344287D02*
X76885713Y-20382382D01*
X76885713Y-20382382D02*
X77190475Y-20382382D01*
X75971428Y-20763335D02*
X76428571Y-20763335D01*
X76199999Y-20763335D02*
X76199999Y-19963335D01*
X76199999Y-19963335D02*
X76276190Y-20077620D01*
X76276190Y-20077620D02*
X76352380Y-20153811D01*
X76352380Y-20153811D02*
X76428571Y-20191906D01*
X75704761Y-19963335D02*
X75209523Y-19963335D01*
X75209523Y-19963335D02*
X75476189Y-20268097D01*
X75476189Y-20268097D02*
X75361904Y-20268097D01*
X75361904Y-20268097D02*
X75285713Y-20306192D01*
X75285713Y-20306192D02*
X75247618Y-20344287D01*
X75247618Y-20344287D02*
X75209523Y-20420478D01*
X75209523Y-20420478D02*
X75209523Y-20610954D01*
X75209523Y-20610954D02*
X75247618Y-20687144D01*
X75247618Y-20687144D02*
X75285713Y-20725240D01*
X75285713Y-20725240D02*
X75361904Y-20763335D01*
X75361904Y-20763335D02*
X75590475Y-20763335D01*
X75590475Y-20763335D02*
X75666666Y-20725240D01*
X75666666Y-20725240D02*
X75704761Y-20687144D01*
X73838094Y-20001430D02*
X73914284Y-19963335D01*
X73914284Y-19963335D02*
X74028570Y-19963335D01*
X74028570Y-19963335D02*
X74142856Y-20001430D01*
X74142856Y-20001430D02*
X74219046Y-20077620D01*
X74219046Y-20077620D02*
X74257141Y-20153811D01*
X74257141Y-20153811D02*
X74295237Y-20306192D01*
X74295237Y-20306192D02*
X74295237Y-20420478D01*
X74295237Y-20420478D02*
X74257141Y-20572859D01*
X74257141Y-20572859D02*
X74219046Y-20649049D01*
X74219046Y-20649049D02*
X74142856Y-20725240D01*
X74142856Y-20725240D02*
X74028570Y-20763335D01*
X74028570Y-20763335D02*
X73952379Y-20763335D01*
X73952379Y-20763335D02*
X73838094Y-20725240D01*
X73838094Y-20725240D02*
X73799998Y-20687144D01*
X73799998Y-20687144D02*
X73799998Y-20420478D01*
X73799998Y-20420478D02*
X73952379Y-20420478D01*
X73457141Y-20763335D02*
X73457141Y-19963335D01*
X73457141Y-19963335D02*
X72999998Y-20763335D01*
X72999998Y-20763335D02*
X72999998Y-19963335D01*
X72619046Y-20763335D02*
X72619046Y-19963335D01*
X72619046Y-19963335D02*
X72428570Y-19963335D01*
X72428570Y-19963335D02*
X72314284Y-20001430D01*
X72314284Y-20001430D02*
X72238094Y-20077620D01*
X72238094Y-20077620D02*
X72199999Y-20153811D01*
X72199999Y-20153811D02*
X72161903Y-20306192D01*
X72161903Y-20306192D02*
X72161903Y-20420478D01*
X72161903Y-20420478D02*
X72199999Y-20572859D01*
X72199999Y-20572859D02*
X72238094Y-20649049D01*
X72238094Y-20649049D02*
X72314284Y-20725240D01*
X72314284Y-20725240D02*
X72428570Y-20763335D01*
X72428570Y-20763335D02*
X72619046Y-20763335D01*
X21664284Y-30509597D02*
X21664284Y-31152454D01*
X21664284Y-31152454D02*
X21707141Y-31281025D01*
X21707141Y-31281025D02*
X21792855Y-31366740D01*
X21792855Y-31366740D02*
X21921427Y-31409597D01*
X21921427Y-31409597D02*
X22007141Y-31409597D01*
X21278570Y-30595311D02*
X21235713Y-30552454D01*
X21235713Y-30552454D02*
X21149999Y-30509597D01*
X21149999Y-30509597D02*
X20935713Y-30509597D01*
X20935713Y-30509597D02*
X20849999Y-30552454D01*
X20849999Y-30552454D02*
X20807141Y-30595311D01*
X20807141Y-30595311D02*
X20764284Y-30681025D01*
X20764284Y-30681025D02*
X20764284Y-30766740D01*
X20764284Y-30766740D02*
X20807141Y-30895311D01*
X20807141Y-30895311D02*
X21321427Y-31409597D01*
X21321427Y-31409597D02*
X20764284Y-31409597D01*
X20378570Y-31323882D02*
X20335713Y-31366740D01*
X20335713Y-31366740D02*
X20378570Y-31409597D01*
X20378570Y-31409597D02*
X20421427Y-31366740D01*
X20421427Y-31366740D02*
X20378570Y-31323882D01*
X20378570Y-31323882D02*
X20378570Y-31409597D01*
X20378570Y-30852454D02*
X20335713Y-30895311D01*
X20335713Y-30895311D02*
X20378570Y-30938168D01*
X20378570Y-30938168D02*
X20421427Y-30895311D01*
X20421427Y-30895311D02*
X20378570Y-30852454D01*
X20378570Y-30852454D02*
X20378570Y-30938168D01*
X18792856Y-31409597D02*
X19307142Y-31409597D01*
X19049999Y-31409597D02*
X19049999Y-30509597D01*
X19049999Y-30509597D02*
X19135713Y-30638168D01*
X19135713Y-30638168D02*
X19221428Y-30723882D01*
X19221428Y-30723882D02*
X19307142Y-30766740D01*
X17421428Y-30938168D02*
X17292856Y-30981025D01*
X17292856Y-30981025D02*
X17249999Y-31023882D01*
X17249999Y-31023882D02*
X17207142Y-31109597D01*
X17207142Y-31109597D02*
X17207142Y-31238168D01*
X17207142Y-31238168D02*
X17249999Y-31323882D01*
X17249999Y-31323882D02*
X17292856Y-31366740D01*
X17292856Y-31366740D02*
X17378571Y-31409597D01*
X17378571Y-31409597D02*
X17721428Y-31409597D01*
X17721428Y-31409597D02*
X17721428Y-30509597D01*
X17721428Y-30509597D02*
X17421428Y-30509597D01*
X17421428Y-30509597D02*
X17335714Y-30552454D01*
X17335714Y-30552454D02*
X17292856Y-30595311D01*
X17292856Y-30595311D02*
X17249999Y-30681025D01*
X17249999Y-30681025D02*
X17249999Y-30766740D01*
X17249999Y-30766740D02*
X17292856Y-30852454D01*
X17292856Y-30852454D02*
X17335714Y-30895311D01*
X17335714Y-30895311D02*
X17421428Y-30938168D01*
X17421428Y-30938168D02*
X17721428Y-30938168D01*
X16864285Y-31152454D02*
X16435714Y-31152454D01*
X16949999Y-31409597D02*
X16649999Y-30509597D01*
X16649999Y-30509597D02*
X16349999Y-31409597D01*
X16178570Y-30509597D02*
X15664285Y-30509597D01*
X15921427Y-31409597D02*
X15921427Y-30509597D01*
X15364285Y-31066740D02*
X14678571Y-31066740D01*
X15021428Y-31409597D02*
X15021428Y-30723882D01*
X12921428Y-30466740D02*
X13692856Y-31623882D01*
X11978571Y-30595311D02*
X11935714Y-30552454D01*
X11935714Y-30552454D02*
X11850000Y-30509597D01*
X11850000Y-30509597D02*
X11635714Y-30509597D01*
X11635714Y-30509597D02*
X11550000Y-30552454D01*
X11550000Y-30552454D02*
X11507142Y-30595311D01*
X11507142Y-30595311D02*
X11464285Y-30681025D01*
X11464285Y-30681025D02*
X11464285Y-30766740D01*
X11464285Y-30766740D02*
X11507142Y-30895311D01*
X11507142Y-30895311D02*
X12021428Y-31409597D01*
X12021428Y-31409597D02*
X11464285Y-31409597D01*
X9921428Y-30552454D02*
X10007143Y-30509597D01*
X10007143Y-30509597D02*
X10135714Y-30509597D01*
X10135714Y-30509597D02*
X10264285Y-30552454D01*
X10264285Y-30552454D02*
X10350000Y-30638168D01*
X10350000Y-30638168D02*
X10392857Y-30723882D01*
X10392857Y-30723882D02*
X10435714Y-30895311D01*
X10435714Y-30895311D02*
X10435714Y-31023882D01*
X10435714Y-31023882D02*
X10392857Y-31195311D01*
X10392857Y-31195311D02*
X10350000Y-31281025D01*
X10350000Y-31281025D02*
X10264285Y-31366740D01*
X10264285Y-31366740D02*
X10135714Y-31409597D01*
X10135714Y-31409597D02*
X10050000Y-31409597D01*
X10050000Y-31409597D02*
X9921428Y-31366740D01*
X9921428Y-31366740D02*
X9878571Y-31323882D01*
X9878571Y-31323882D02*
X9878571Y-31023882D01*
X9878571Y-31023882D02*
X10050000Y-31023882D01*
X9492857Y-31409597D02*
X9492857Y-30509597D01*
X9492857Y-30509597D02*
X8978571Y-31409597D01*
X8978571Y-31409597D02*
X8978571Y-30509597D01*
X8550000Y-31409597D02*
X8550000Y-30509597D01*
X8550000Y-30509597D02*
X8335714Y-30509597D01*
X8335714Y-30509597D02*
X8207143Y-30552454D01*
X8207143Y-30552454D02*
X8121428Y-30638168D01*
X8121428Y-30638168D02*
X8078571Y-30723882D01*
X8078571Y-30723882D02*
X8035714Y-30895311D01*
X8035714Y-30895311D02*
X8035714Y-31023882D01*
X8035714Y-31023882D02*
X8078571Y-31195311D01*
X8078571Y-31195311D02*
X8121428Y-31281025D01*
X8121428Y-31281025D02*
X8207143Y-31366740D01*
X8207143Y-31366740D02*
X8335714Y-31409597D01*
X8335714Y-31409597D02*
X8550000Y-31409597D01*
X21192855Y-39509597D02*
X21192855Y-40152454D01*
X21192855Y-40152454D02*
X21235712Y-40281025D01*
X21235712Y-40281025D02*
X21321426Y-40366740D01*
X21321426Y-40366740D02*
X21449998Y-40409597D01*
X21449998Y-40409597D02*
X21535712Y-40409597D01*
X20378570Y-39509597D02*
X20549998Y-39509597D01*
X20549998Y-39509597D02*
X20635712Y-39552454D01*
X20635712Y-39552454D02*
X20678570Y-39595311D01*
X20678570Y-39595311D02*
X20764284Y-39723882D01*
X20764284Y-39723882D02*
X20807141Y-39895311D01*
X20807141Y-39895311D02*
X20807141Y-40238168D01*
X20807141Y-40238168D02*
X20764284Y-40323882D01*
X20764284Y-40323882D02*
X20721427Y-40366740D01*
X20721427Y-40366740D02*
X20635712Y-40409597D01*
X20635712Y-40409597D02*
X20464284Y-40409597D01*
X20464284Y-40409597D02*
X20378570Y-40366740D01*
X20378570Y-40366740D02*
X20335712Y-40323882D01*
X20335712Y-40323882D02*
X20292855Y-40238168D01*
X20292855Y-40238168D02*
X20292855Y-40023882D01*
X20292855Y-40023882D02*
X20335712Y-39938168D01*
X20335712Y-39938168D02*
X20378570Y-39895311D01*
X20378570Y-39895311D02*
X20464284Y-39852454D01*
X20464284Y-39852454D02*
X20635712Y-39852454D01*
X20635712Y-39852454D02*
X20721427Y-39895311D01*
X20721427Y-39895311D02*
X20764284Y-39938168D01*
X20764284Y-39938168D02*
X20807141Y-40023882D01*
X19907141Y-40323882D02*
X19864284Y-40366740D01*
X19864284Y-40366740D02*
X19907141Y-40409597D01*
X19907141Y-40409597D02*
X19949998Y-40366740D01*
X19949998Y-40366740D02*
X19907141Y-40323882D01*
X19907141Y-40323882D02*
X19907141Y-40409597D01*
X19907141Y-39852454D02*
X19864284Y-39895311D01*
X19864284Y-39895311D02*
X19907141Y-39938168D01*
X19907141Y-39938168D02*
X19949998Y-39895311D01*
X19949998Y-39895311D02*
X19907141Y-39852454D01*
X19907141Y-39852454D02*
X19907141Y-39938168D01*
X18321427Y-40409597D02*
X18835713Y-40409597D01*
X18578570Y-40409597D02*
X18578570Y-39509597D01*
X18578570Y-39509597D02*
X18664284Y-39638168D01*
X18664284Y-39638168D02*
X18749999Y-39723882D01*
X18749999Y-39723882D02*
X18835713Y-39766740D01*
X17249999Y-40409597D02*
X17249999Y-39509597D01*
X17249999Y-39509597D02*
X16735713Y-40409597D01*
X16735713Y-40409597D02*
X16735713Y-39509597D01*
X16435713Y-39509597D02*
X15921428Y-39509597D01*
X16178570Y-40409597D02*
X16178570Y-39509597D01*
X15107142Y-40323882D02*
X15149999Y-40366740D01*
X15149999Y-40366740D02*
X15278571Y-40409597D01*
X15278571Y-40409597D02*
X15364285Y-40409597D01*
X15364285Y-40409597D02*
X15492856Y-40366740D01*
X15492856Y-40366740D02*
X15578571Y-40281025D01*
X15578571Y-40281025D02*
X15621428Y-40195311D01*
X15621428Y-40195311D02*
X15664285Y-40023882D01*
X15664285Y-40023882D02*
X15664285Y-39895311D01*
X15664285Y-39895311D02*
X15621428Y-39723882D01*
X15621428Y-39723882D02*
X15578571Y-39638168D01*
X15578571Y-39638168D02*
X15492856Y-39552454D01*
X15492856Y-39552454D02*
X15364285Y-39509597D01*
X15364285Y-39509597D02*
X15278571Y-39509597D01*
X15278571Y-39509597D02*
X15149999Y-39552454D01*
X15149999Y-39552454D02*
X15107142Y-39595311D01*
X13392857Y-39466740D02*
X14164285Y-40623882D01*
X12450000Y-39595311D02*
X12407143Y-39552454D01*
X12407143Y-39552454D02*
X12321429Y-39509597D01*
X12321429Y-39509597D02*
X12107143Y-39509597D01*
X12107143Y-39509597D02*
X12021429Y-39552454D01*
X12021429Y-39552454D02*
X11978571Y-39595311D01*
X11978571Y-39595311D02*
X11935714Y-39681025D01*
X11935714Y-39681025D02*
X11935714Y-39766740D01*
X11935714Y-39766740D02*
X11978571Y-39895311D01*
X11978571Y-39895311D02*
X12492857Y-40409597D01*
X12492857Y-40409597D02*
X11935714Y-40409597D01*
X10392857Y-39552454D02*
X10478572Y-39509597D01*
X10478572Y-39509597D02*
X10607143Y-39509597D01*
X10607143Y-39509597D02*
X10735714Y-39552454D01*
X10735714Y-39552454D02*
X10821429Y-39638168D01*
X10821429Y-39638168D02*
X10864286Y-39723882D01*
X10864286Y-39723882D02*
X10907143Y-39895311D01*
X10907143Y-39895311D02*
X10907143Y-40023882D01*
X10907143Y-40023882D02*
X10864286Y-40195311D01*
X10864286Y-40195311D02*
X10821429Y-40281025D01*
X10821429Y-40281025D02*
X10735714Y-40366740D01*
X10735714Y-40366740D02*
X10607143Y-40409597D01*
X10607143Y-40409597D02*
X10521429Y-40409597D01*
X10521429Y-40409597D02*
X10392857Y-40366740D01*
X10392857Y-40366740D02*
X10350000Y-40323882D01*
X10350000Y-40323882D02*
X10350000Y-40023882D01*
X10350000Y-40023882D02*
X10521429Y-40023882D01*
X9964286Y-40409597D02*
X9964286Y-39509597D01*
X9964286Y-39509597D02*
X9450000Y-40409597D01*
X9450000Y-40409597D02*
X9450000Y-39509597D01*
X9021429Y-40409597D02*
X9021429Y-39509597D01*
X9021429Y-39509597D02*
X8807143Y-39509597D01*
X8807143Y-39509597D02*
X8678572Y-39552454D01*
X8678572Y-39552454D02*
X8592857Y-39638168D01*
X8592857Y-39638168D02*
X8550000Y-39723882D01*
X8550000Y-39723882D02*
X8507143Y-39895311D01*
X8507143Y-39895311D02*
X8507143Y-40023882D01*
X8507143Y-40023882D02*
X8550000Y-40195311D01*
X8550000Y-40195311D02*
X8592857Y-40281025D01*
X8592857Y-40281025D02*
X8678572Y-40366740D01*
X8678572Y-40366740D02*
X8807143Y-40409597D01*
X8807143Y-40409597D02*
X9021429Y-40409597D01*
X32014284Y-49509597D02*
X32014284Y-50152454D01*
X32014284Y-50152454D02*
X32057141Y-50281025D01*
X32057141Y-50281025D02*
X32142855Y-50366740D01*
X32142855Y-50366740D02*
X32271427Y-50409597D01*
X32271427Y-50409597D02*
X32357141Y-50409597D01*
X31157141Y-49509597D02*
X31585713Y-49509597D01*
X31585713Y-49509597D02*
X31628570Y-49938168D01*
X31628570Y-49938168D02*
X31585713Y-49895311D01*
X31585713Y-49895311D02*
X31499999Y-49852454D01*
X31499999Y-49852454D02*
X31285713Y-49852454D01*
X31285713Y-49852454D02*
X31199999Y-49895311D01*
X31199999Y-49895311D02*
X31157141Y-49938168D01*
X31157141Y-49938168D02*
X31114284Y-50023882D01*
X31114284Y-50023882D02*
X31114284Y-50238168D01*
X31114284Y-50238168D02*
X31157141Y-50323882D01*
X31157141Y-50323882D02*
X31199999Y-50366740D01*
X31199999Y-50366740D02*
X31285713Y-50409597D01*
X31285713Y-50409597D02*
X31499999Y-50409597D01*
X31499999Y-50409597D02*
X31585713Y-50366740D01*
X31585713Y-50366740D02*
X31628570Y-50323882D01*
X30728570Y-50323882D02*
X30685713Y-50366740D01*
X30685713Y-50366740D02*
X30728570Y-50409597D01*
X30728570Y-50409597D02*
X30771427Y-50366740D01*
X30771427Y-50366740D02*
X30728570Y-50323882D01*
X30728570Y-50323882D02*
X30728570Y-50409597D01*
X30728570Y-49852454D02*
X30685713Y-49895311D01*
X30685713Y-49895311D02*
X30728570Y-49938168D01*
X30728570Y-49938168D02*
X30771427Y-49895311D01*
X30771427Y-49895311D02*
X30728570Y-49852454D01*
X30728570Y-49852454D02*
X30728570Y-49938168D01*
X29142856Y-50409597D02*
X29657142Y-50409597D01*
X29399999Y-50409597D02*
X29399999Y-49509597D01*
X29399999Y-49509597D02*
X29485713Y-49638168D01*
X29485713Y-49638168D02*
X29571428Y-49723882D01*
X29571428Y-49723882D02*
X29657142Y-49766740D01*
X28071428Y-50409597D02*
X28071428Y-49509597D01*
X28071428Y-49509597D02*
X27728571Y-49509597D01*
X27728571Y-49509597D02*
X27642856Y-49552454D01*
X27642856Y-49552454D02*
X27599999Y-49595311D01*
X27599999Y-49595311D02*
X27557142Y-49681025D01*
X27557142Y-49681025D02*
X27557142Y-49809597D01*
X27557142Y-49809597D02*
X27599999Y-49895311D01*
X27599999Y-49895311D02*
X27642856Y-49938168D01*
X27642856Y-49938168D02*
X27728571Y-49981025D01*
X27728571Y-49981025D02*
X28071428Y-49981025D01*
X27171428Y-50409597D02*
X27171428Y-49509597D01*
X26742857Y-49938168D02*
X26442857Y-49938168D01*
X26314285Y-50409597D02*
X26742857Y-50409597D01*
X26742857Y-50409597D02*
X26742857Y-49509597D01*
X26742857Y-49509597D02*
X26314285Y-49509597D01*
X26014285Y-49509597D02*
X25414285Y-49509597D01*
X25414285Y-49509597D02*
X26014285Y-50409597D01*
X26014285Y-50409597D02*
X25414285Y-50409597D01*
X24899999Y-49509597D02*
X24728571Y-49509597D01*
X24728571Y-49509597D02*
X24642856Y-49552454D01*
X24642856Y-49552454D02*
X24557142Y-49638168D01*
X24557142Y-49638168D02*
X24514285Y-49809597D01*
X24514285Y-49809597D02*
X24514285Y-50109597D01*
X24514285Y-50109597D02*
X24557142Y-50281025D01*
X24557142Y-50281025D02*
X24642856Y-50366740D01*
X24642856Y-50366740D02*
X24728571Y-50409597D01*
X24728571Y-50409597D02*
X24899999Y-50409597D01*
X24899999Y-50409597D02*
X24985714Y-50366740D01*
X24985714Y-50366740D02*
X25071428Y-50281025D01*
X25071428Y-50281025D02*
X25114285Y-50109597D01*
X25114285Y-50109597D02*
X25114285Y-49809597D01*
X25114285Y-49809597D02*
X25071428Y-49638168D01*
X25071428Y-49638168D02*
X24985714Y-49552454D01*
X24985714Y-49552454D02*
X24899999Y-49509597D01*
X24128571Y-50066740D02*
X23442857Y-50066740D01*
X23785714Y-50409597D02*
X23785714Y-49723882D01*
X21685714Y-49466740D02*
X22457142Y-50623882D01*
X20742857Y-49595311D02*
X20700000Y-49552454D01*
X20700000Y-49552454D02*
X20614286Y-49509597D01*
X20614286Y-49509597D02*
X20400000Y-49509597D01*
X20400000Y-49509597D02*
X20314286Y-49552454D01*
X20314286Y-49552454D02*
X20271428Y-49595311D01*
X20271428Y-49595311D02*
X20228571Y-49681025D01*
X20228571Y-49681025D02*
X20228571Y-49766740D01*
X20228571Y-49766740D02*
X20271428Y-49895311D01*
X20271428Y-49895311D02*
X20785714Y-50409597D01*
X20785714Y-50409597D02*
X20228571Y-50409597D01*
X19157143Y-50409597D02*
X19157143Y-49509597D01*
X19157143Y-49509597D02*
X18814286Y-49509597D01*
X18814286Y-49509597D02*
X18728571Y-49552454D01*
X18728571Y-49552454D02*
X18685714Y-49595311D01*
X18685714Y-49595311D02*
X18642857Y-49681025D01*
X18642857Y-49681025D02*
X18642857Y-49809597D01*
X18642857Y-49809597D02*
X18685714Y-49895311D01*
X18685714Y-49895311D02*
X18728571Y-49938168D01*
X18728571Y-49938168D02*
X18814286Y-49981025D01*
X18814286Y-49981025D02*
X19157143Y-49981025D01*
X18257143Y-50409597D02*
X18257143Y-49509597D01*
X17828572Y-49938168D02*
X17528572Y-49938168D01*
X17400000Y-50409597D02*
X17828572Y-50409597D01*
X17828572Y-50409597D02*
X17828572Y-49509597D01*
X17828572Y-49509597D02*
X17400000Y-49509597D01*
X17100000Y-49509597D02*
X16500000Y-49509597D01*
X16500000Y-49509597D02*
X17100000Y-50409597D01*
X17100000Y-50409597D02*
X16500000Y-50409597D01*
X15985714Y-49509597D02*
X15814286Y-49509597D01*
X15814286Y-49509597D02*
X15728571Y-49552454D01*
X15728571Y-49552454D02*
X15642857Y-49638168D01*
X15642857Y-49638168D02*
X15600000Y-49809597D01*
X15600000Y-49809597D02*
X15600000Y-50109597D01*
X15600000Y-50109597D02*
X15642857Y-50281025D01*
X15642857Y-50281025D02*
X15728571Y-50366740D01*
X15728571Y-50366740D02*
X15814286Y-50409597D01*
X15814286Y-50409597D02*
X15985714Y-50409597D01*
X15985714Y-50409597D02*
X16071429Y-50366740D01*
X16071429Y-50366740D02*
X16157143Y-50281025D01*
X16157143Y-50281025D02*
X16200000Y-50109597D01*
X16200000Y-50109597D02*
X16200000Y-49809597D01*
X16200000Y-49809597D02*
X16157143Y-49638168D01*
X16157143Y-49638168D02*
X16071429Y-49552454D01*
X16071429Y-49552454D02*
X15985714Y-49509597D01*
X15214286Y-50066740D02*
X14528572Y-50066740D01*
X62121427Y-49323882D02*
X62164284Y-49366740D01*
X62164284Y-49366740D02*
X62292856Y-49409597D01*
X62292856Y-49409597D02*
X62378570Y-49409597D01*
X62378570Y-49409597D02*
X62507141Y-49366740D01*
X62507141Y-49366740D02*
X62592856Y-49281025D01*
X62592856Y-49281025D02*
X62635713Y-49195311D01*
X62635713Y-49195311D02*
X62678570Y-49023882D01*
X62678570Y-49023882D02*
X62678570Y-48895311D01*
X62678570Y-48895311D02*
X62635713Y-48723882D01*
X62635713Y-48723882D02*
X62592856Y-48638168D01*
X62592856Y-48638168D02*
X62507141Y-48552454D01*
X62507141Y-48552454D02*
X62378570Y-48509597D01*
X62378570Y-48509597D02*
X62292856Y-48509597D01*
X62292856Y-48509597D02*
X62164284Y-48552454D01*
X62164284Y-48552454D02*
X62121427Y-48595311D01*
X61735713Y-49409597D02*
X61735713Y-48509597D01*
X61735713Y-48938168D02*
X61221427Y-48938168D01*
X61221427Y-49409597D02*
X61221427Y-48509597D01*
X60792856Y-48938168D02*
X60492856Y-48938168D01*
X60364284Y-49409597D02*
X60792856Y-49409597D01*
X60792856Y-49409597D02*
X60792856Y-48509597D01*
X60792856Y-48509597D02*
X60364284Y-48509597D01*
X59464284Y-49323882D02*
X59507141Y-49366740D01*
X59507141Y-49366740D02*
X59635713Y-49409597D01*
X59635713Y-49409597D02*
X59721427Y-49409597D01*
X59721427Y-49409597D02*
X59849998Y-49366740D01*
X59849998Y-49366740D02*
X59935713Y-49281025D01*
X59935713Y-49281025D02*
X59978570Y-49195311D01*
X59978570Y-49195311D02*
X60021427Y-49023882D01*
X60021427Y-49023882D02*
X60021427Y-48895311D01*
X60021427Y-48895311D02*
X59978570Y-48723882D01*
X59978570Y-48723882D02*
X59935713Y-48638168D01*
X59935713Y-48638168D02*
X59849998Y-48552454D01*
X59849998Y-48552454D02*
X59721427Y-48509597D01*
X59721427Y-48509597D02*
X59635713Y-48509597D01*
X59635713Y-48509597D02*
X59507141Y-48552454D01*
X59507141Y-48552454D02*
X59464284Y-48595311D01*
X59078570Y-49409597D02*
X59078570Y-48509597D01*
X58564284Y-49409597D02*
X58949998Y-48895311D01*
X58564284Y-48509597D02*
X59078570Y-49023882D01*
X56978570Y-49323882D02*
X57021427Y-49366740D01*
X57021427Y-49366740D02*
X57149999Y-49409597D01*
X57149999Y-49409597D02*
X57235713Y-49409597D01*
X57235713Y-49409597D02*
X57364284Y-49366740D01*
X57364284Y-49366740D02*
X57449999Y-49281025D01*
X57449999Y-49281025D02*
X57492856Y-49195311D01*
X57492856Y-49195311D02*
X57535713Y-49023882D01*
X57535713Y-49023882D02*
X57535713Y-48895311D01*
X57535713Y-48895311D02*
X57492856Y-48723882D01*
X57492856Y-48723882D02*
X57449999Y-48638168D01*
X57449999Y-48638168D02*
X57364284Y-48552454D01*
X57364284Y-48552454D02*
X57235713Y-48509597D01*
X57235713Y-48509597D02*
X57149999Y-48509597D01*
X57149999Y-48509597D02*
X57021427Y-48552454D01*
X57021427Y-48552454D02*
X56978570Y-48595311D01*
X56635713Y-49152454D02*
X56207142Y-49152454D01*
X56721427Y-49409597D02*
X56421427Y-48509597D01*
X56421427Y-48509597D02*
X56121427Y-49409597D01*
X55521427Y-48938168D02*
X55392855Y-48981025D01*
X55392855Y-48981025D02*
X55349998Y-49023882D01*
X55349998Y-49023882D02*
X55307141Y-49109597D01*
X55307141Y-49109597D02*
X55307141Y-49238168D01*
X55307141Y-49238168D02*
X55349998Y-49323882D01*
X55349998Y-49323882D02*
X55392855Y-49366740D01*
X55392855Y-49366740D02*
X55478570Y-49409597D01*
X55478570Y-49409597D02*
X55821427Y-49409597D01*
X55821427Y-49409597D02*
X55821427Y-48509597D01*
X55821427Y-48509597D02*
X55521427Y-48509597D01*
X55521427Y-48509597D02*
X55435713Y-48552454D01*
X55435713Y-48552454D02*
X55392855Y-48595311D01*
X55392855Y-48595311D02*
X55349998Y-48681025D01*
X55349998Y-48681025D02*
X55349998Y-48766740D01*
X55349998Y-48766740D02*
X55392855Y-48852454D01*
X55392855Y-48852454D02*
X55435713Y-48895311D01*
X55435713Y-48895311D02*
X55521427Y-48938168D01*
X55521427Y-48938168D02*
X55821427Y-48938168D01*
X54492855Y-49409597D02*
X54921427Y-49409597D01*
X54921427Y-49409597D02*
X54921427Y-48509597D01*
X54192856Y-48938168D02*
X53892856Y-48938168D01*
X53764284Y-49409597D02*
X54192856Y-49409597D01*
X54192856Y-49409597D02*
X54192856Y-48509597D01*
X54192856Y-48509597D02*
X53764284Y-48509597D01*
X52692856Y-49409597D02*
X52692856Y-48509597D01*
X52692856Y-48509597D02*
X52349999Y-48509597D01*
X52349999Y-48509597D02*
X52264284Y-48552454D01*
X52264284Y-48552454D02*
X52221427Y-48595311D01*
X52221427Y-48595311D02*
X52178570Y-48681025D01*
X52178570Y-48681025D02*
X52178570Y-48809597D01*
X52178570Y-48809597D02*
X52221427Y-48895311D01*
X52221427Y-48895311D02*
X52264284Y-48938168D01*
X52264284Y-48938168D02*
X52349999Y-48981025D01*
X52349999Y-48981025D02*
X52692856Y-48981025D01*
X51792856Y-49409597D02*
X51792856Y-48509597D01*
X51364285Y-49409597D02*
X51364285Y-48509597D01*
X51364285Y-48509597D02*
X50849999Y-49409597D01*
X50849999Y-49409597D02*
X50849999Y-48509597D01*
X50249999Y-48509597D02*
X50078571Y-48509597D01*
X50078571Y-48509597D02*
X49992856Y-48552454D01*
X49992856Y-48552454D02*
X49907142Y-48638168D01*
X49907142Y-48638168D02*
X49864285Y-48809597D01*
X49864285Y-48809597D02*
X49864285Y-49109597D01*
X49864285Y-49109597D02*
X49907142Y-49281025D01*
X49907142Y-49281025D02*
X49992856Y-49366740D01*
X49992856Y-49366740D02*
X50078571Y-49409597D01*
X50078571Y-49409597D02*
X50249999Y-49409597D01*
X50249999Y-49409597D02*
X50335714Y-49366740D01*
X50335714Y-49366740D02*
X50421428Y-49281025D01*
X50421428Y-49281025D02*
X50464285Y-49109597D01*
X50464285Y-49109597D02*
X50464285Y-48809597D01*
X50464285Y-48809597D02*
X50421428Y-48638168D01*
X50421428Y-48638168D02*
X50335714Y-48552454D01*
X50335714Y-48552454D02*
X50249999Y-48509597D01*
X49478571Y-48509597D02*
X49478571Y-49238168D01*
X49478571Y-49238168D02*
X49435714Y-49323882D01*
X49435714Y-49323882D02*
X49392857Y-49366740D01*
X49392857Y-49366740D02*
X49307142Y-49409597D01*
X49307142Y-49409597D02*
X49135714Y-49409597D01*
X49135714Y-49409597D02*
X49049999Y-49366740D01*
X49049999Y-49366740D02*
X49007142Y-49323882D01*
X49007142Y-49323882D02*
X48964285Y-49238168D01*
X48964285Y-49238168D02*
X48964285Y-48509597D01*
X48664285Y-48509597D02*
X48150000Y-48509597D01*
X48407142Y-49409597D02*
X48407142Y-48509597D01*
X46864286Y-48938168D02*
X46735714Y-48981025D01*
X46735714Y-48981025D02*
X46692857Y-49023882D01*
X46692857Y-49023882D02*
X46650000Y-49109597D01*
X46650000Y-49109597D02*
X46650000Y-49238168D01*
X46650000Y-49238168D02*
X46692857Y-49323882D01*
X46692857Y-49323882D02*
X46735714Y-49366740D01*
X46735714Y-49366740D02*
X46821429Y-49409597D01*
X46821429Y-49409597D02*
X47164286Y-49409597D01*
X47164286Y-49409597D02*
X47164286Y-48509597D01*
X47164286Y-48509597D02*
X46864286Y-48509597D01*
X46864286Y-48509597D02*
X46778572Y-48552454D01*
X46778572Y-48552454D02*
X46735714Y-48595311D01*
X46735714Y-48595311D02*
X46692857Y-48681025D01*
X46692857Y-48681025D02*
X46692857Y-48766740D01*
X46692857Y-48766740D02*
X46735714Y-48852454D01*
X46735714Y-48852454D02*
X46778572Y-48895311D01*
X46778572Y-48895311D02*
X46864286Y-48938168D01*
X46864286Y-48938168D02*
X47164286Y-48938168D01*
X46264286Y-48938168D02*
X45964286Y-48938168D01*
X45835714Y-49409597D02*
X46264286Y-49409597D01*
X46264286Y-49409597D02*
X46264286Y-48509597D01*
X46264286Y-48509597D02*
X45835714Y-48509597D01*
X45150000Y-48938168D02*
X45450000Y-48938168D01*
X45450000Y-49409597D02*
X45450000Y-48509597D01*
X45450000Y-48509597D02*
X45021428Y-48509597D01*
X44507142Y-48509597D02*
X44335714Y-48509597D01*
X44335714Y-48509597D02*
X44249999Y-48552454D01*
X44249999Y-48552454D02*
X44164285Y-48638168D01*
X44164285Y-48638168D02*
X44121428Y-48809597D01*
X44121428Y-48809597D02*
X44121428Y-49109597D01*
X44121428Y-49109597D02*
X44164285Y-49281025D01*
X44164285Y-49281025D02*
X44249999Y-49366740D01*
X44249999Y-49366740D02*
X44335714Y-49409597D01*
X44335714Y-49409597D02*
X44507142Y-49409597D01*
X44507142Y-49409597D02*
X44592857Y-49366740D01*
X44592857Y-49366740D02*
X44678571Y-49281025D01*
X44678571Y-49281025D02*
X44721428Y-49109597D01*
X44721428Y-49109597D02*
X44721428Y-48809597D01*
X44721428Y-48809597D02*
X44678571Y-48638168D01*
X44678571Y-48638168D02*
X44592857Y-48552454D01*
X44592857Y-48552454D02*
X44507142Y-48509597D01*
X43221428Y-49409597D02*
X43521428Y-48981025D01*
X43735714Y-49409597D02*
X43735714Y-48509597D01*
X43735714Y-48509597D02*
X43392857Y-48509597D01*
X43392857Y-48509597D02*
X43307142Y-48552454D01*
X43307142Y-48552454D02*
X43264285Y-48595311D01*
X43264285Y-48595311D02*
X43221428Y-48681025D01*
X43221428Y-48681025D02*
X43221428Y-48809597D01*
X43221428Y-48809597D02*
X43264285Y-48895311D01*
X43264285Y-48895311D02*
X43307142Y-48938168D01*
X43307142Y-48938168D02*
X43392857Y-48981025D01*
X43392857Y-48981025D02*
X43735714Y-48981025D01*
X42835714Y-48938168D02*
X42535714Y-48938168D01*
X42407142Y-49409597D02*
X42835714Y-49409597D01*
X42835714Y-49409597D02*
X42835714Y-48509597D01*
X42835714Y-48509597D02*
X42407142Y-48509597D01*
X40821428Y-49323882D02*
X40864285Y-49366740D01*
X40864285Y-49366740D02*
X40992857Y-49409597D01*
X40992857Y-49409597D02*
X41078571Y-49409597D01*
X41078571Y-49409597D02*
X41207142Y-49366740D01*
X41207142Y-49366740D02*
X41292857Y-49281025D01*
X41292857Y-49281025D02*
X41335714Y-49195311D01*
X41335714Y-49195311D02*
X41378571Y-49023882D01*
X41378571Y-49023882D02*
X41378571Y-48895311D01*
X41378571Y-48895311D02*
X41335714Y-48723882D01*
X41335714Y-48723882D02*
X41292857Y-48638168D01*
X41292857Y-48638168D02*
X41207142Y-48552454D01*
X41207142Y-48552454D02*
X41078571Y-48509597D01*
X41078571Y-48509597D02*
X40992857Y-48509597D01*
X40992857Y-48509597D02*
X40864285Y-48552454D01*
X40864285Y-48552454D02*
X40821428Y-48595311D01*
X40264285Y-48509597D02*
X40092857Y-48509597D01*
X40092857Y-48509597D02*
X40007142Y-48552454D01*
X40007142Y-48552454D02*
X39921428Y-48638168D01*
X39921428Y-48638168D02*
X39878571Y-48809597D01*
X39878571Y-48809597D02*
X39878571Y-49109597D01*
X39878571Y-49109597D02*
X39921428Y-49281025D01*
X39921428Y-49281025D02*
X40007142Y-49366740D01*
X40007142Y-49366740D02*
X40092857Y-49409597D01*
X40092857Y-49409597D02*
X40264285Y-49409597D01*
X40264285Y-49409597D02*
X40350000Y-49366740D01*
X40350000Y-49366740D02*
X40435714Y-49281025D01*
X40435714Y-49281025D02*
X40478571Y-49109597D01*
X40478571Y-49109597D02*
X40478571Y-48809597D01*
X40478571Y-48809597D02*
X40435714Y-48638168D01*
X40435714Y-48638168D02*
X40350000Y-48552454D01*
X40350000Y-48552454D02*
X40264285Y-48509597D01*
X39492857Y-49409597D02*
X39492857Y-48509597D01*
X39492857Y-48509597D02*
X38978571Y-49409597D01*
X38978571Y-49409597D02*
X38978571Y-48509597D01*
X38550000Y-49409597D02*
X38550000Y-48509597D01*
X38550000Y-48509597D02*
X38035714Y-49409597D01*
X38035714Y-49409597D02*
X38035714Y-48509597D01*
X37607143Y-48938168D02*
X37307143Y-48938168D01*
X37178571Y-49409597D02*
X37607143Y-49409597D01*
X37607143Y-49409597D02*
X37607143Y-48509597D01*
X37607143Y-48509597D02*
X37178571Y-48509597D01*
X36278571Y-49323882D02*
X36321428Y-49366740D01*
X36321428Y-49366740D02*
X36450000Y-49409597D01*
X36450000Y-49409597D02*
X36535714Y-49409597D01*
X36535714Y-49409597D02*
X36664285Y-49366740D01*
X36664285Y-49366740D02*
X36750000Y-49281025D01*
X36750000Y-49281025D02*
X36792857Y-49195311D01*
X36792857Y-49195311D02*
X36835714Y-49023882D01*
X36835714Y-49023882D02*
X36835714Y-48895311D01*
X36835714Y-48895311D02*
X36792857Y-48723882D01*
X36792857Y-48723882D02*
X36750000Y-48638168D01*
X36750000Y-48638168D02*
X36664285Y-48552454D01*
X36664285Y-48552454D02*
X36535714Y-48509597D01*
X36535714Y-48509597D02*
X36450000Y-48509597D01*
X36450000Y-48509597D02*
X36321428Y-48552454D01*
X36321428Y-48552454D02*
X36278571Y-48595311D01*
X36021428Y-48509597D02*
X35507143Y-48509597D01*
X35764285Y-49409597D02*
X35764285Y-48509597D01*
X35207143Y-49409597D02*
X35207143Y-48509597D01*
X34778572Y-49409597D02*
X34778572Y-48509597D01*
X34778572Y-48509597D02*
X34264286Y-49409597D01*
X34264286Y-49409597D02*
X34264286Y-48509597D01*
X33364286Y-48552454D02*
X33450001Y-48509597D01*
X33450001Y-48509597D02*
X33578572Y-48509597D01*
X33578572Y-48509597D02*
X33707143Y-48552454D01*
X33707143Y-48552454D02*
X33792858Y-48638168D01*
X33792858Y-48638168D02*
X33835715Y-48723882D01*
X33835715Y-48723882D02*
X33878572Y-48895311D01*
X33878572Y-48895311D02*
X33878572Y-49023882D01*
X33878572Y-49023882D02*
X33835715Y-49195311D01*
X33835715Y-49195311D02*
X33792858Y-49281025D01*
X33792858Y-49281025D02*
X33707143Y-49366740D01*
X33707143Y-49366740D02*
X33578572Y-49409597D01*
X33578572Y-49409597D02*
X33492858Y-49409597D01*
X33492858Y-49409597D02*
X33364286Y-49366740D01*
X33364286Y-49366740D02*
X33321429Y-49323882D01*
X33321429Y-49323882D02*
X33321429Y-49023882D01*
X33321429Y-49023882D02*
X33492858Y-49023882D01*
X60314284Y-43509597D02*
X60314284Y-44152454D01*
X60314284Y-44152454D02*
X60357141Y-44281025D01*
X60357141Y-44281025D02*
X60442855Y-44366740D01*
X60442855Y-44366740D02*
X60571427Y-44409597D01*
X60571427Y-44409597D02*
X60657141Y-44409597D01*
X59971427Y-43509597D02*
X59414284Y-43509597D01*
X59414284Y-43509597D02*
X59714284Y-43852454D01*
X59714284Y-43852454D02*
X59585713Y-43852454D01*
X59585713Y-43852454D02*
X59499999Y-43895311D01*
X59499999Y-43895311D02*
X59457141Y-43938168D01*
X59457141Y-43938168D02*
X59414284Y-44023882D01*
X59414284Y-44023882D02*
X59414284Y-44238168D01*
X59414284Y-44238168D02*
X59457141Y-44323882D01*
X59457141Y-44323882D02*
X59499999Y-44366740D01*
X59499999Y-44366740D02*
X59585713Y-44409597D01*
X59585713Y-44409597D02*
X59842856Y-44409597D01*
X59842856Y-44409597D02*
X59928570Y-44366740D01*
X59928570Y-44366740D02*
X59971427Y-44323882D01*
X59028570Y-44323882D02*
X58985713Y-44366740D01*
X58985713Y-44366740D02*
X59028570Y-44409597D01*
X59028570Y-44409597D02*
X59071427Y-44366740D01*
X59071427Y-44366740D02*
X59028570Y-44323882D01*
X59028570Y-44323882D02*
X59028570Y-44409597D01*
X59028570Y-43852454D02*
X58985713Y-43895311D01*
X58985713Y-43895311D02*
X59028570Y-43938168D01*
X59028570Y-43938168D02*
X59071427Y-43895311D01*
X59071427Y-43895311D02*
X59028570Y-43852454D01*
X59028570Y-43852454D02*
X59028570Y-43938168D01*
X57442856Y-44409597D02*
X57957142Y-44409597D01*
X57699999Y-44409597D02*
X57699999Y-43509597D01*
X57699999Y-43509597D02*
X57785713Y-43638168D01*
X57785713Y-43638168D02*
X57871428Y-43723882D01*
X57871428Y-43723882D02*
X57957142Y-43766740D01*
X55899999Y-43552454D02*
X55985714Y-43509597D01*
X55985714Y-43509597D02*
X56114285Y-43509597D01*
X56114285Y-43509597D02*
X56242856Y-43552454D01*
X56242856Y-43552454D02*
X56328571Y-43638168D01*
X56328571Y-43638168D02*
X56371428Y-43723882D01*
X56371428Y-43723882D02*
X56414285Y-43895311D01*
X56414285Y-43895311D02*
X56414285Y-44023882D01*
X56414285Y-44023882D02*
X56371428Y-44195311D01*
X56371428Y-44195311D02*
X56328571Y-44281025D01*
X56328571Y-44281025D02*
X56242856Y-44366740D01*
X56242856Y-44366740D02*
X56114285Y-44409597D01*
X56114285Y-44409597D02*
X56028571Y-44409597D01*
X56028571Y-44409597D02*
X55899999Y-44366740D01*
X55899999Y-44366740D02*
X55857142Y-44323882D01*
X55857142Y-44323882D02*
X55857142Y-44023882D01*
X55857142Y-44023882D02*
X56028571Y-44023882D01*
X55471428Y-44409597D02*
X55471428Y-43509597D01*
X55471428Y-43509597D02*
X54957142Y-44409597D01*
X54957142Y-44409597D02*
X54957142Y-43509597D01*
X54528571Y-44409597D02*
X54528571Y-43509597D01*
X54528571Y-43509597D02*
X54314285Y-43509597D01*
X54314285Y-43509597D02*
X54185714Y-43552454D01*
X54185714Y-43552454D02*
X54099999Y-43638168D01*
X54099999Y-43638168D02*
X54057142Y-43723882D01*
X54057142Y-43723882D02*
X54014285Y-43895311D01*
X54014285Y-43895311D02*
X54014285Y-44023882D01*
X54014285Y-44023882D02*
X54057142Y-44195311D01*
X54057142Y-44195311D02*
X54099999Y-44281025D01*
X54099999Y-44281025D02*
X54185714Y-44366740D01*
X54185714Y-44366740D02*
X54314285Y-44409597D01*
X54314285Y-44409597D02*
X54528571Y-44409597D01*
X52300000Y-43595311D02*
X52257143Y-43552454D01*
X52257143Y-43552454D02*
X52171429Y-43509597D01*
X52171429Y-43509597D02*
X51957143Y-43509597D01*
X51957143Y-43509597D02*
X51871429Y-43552454D01*
X51871429Y-43552454D02*
X51828571Y-43595311D01*
X51828571Y-43595311D02*
X51785714Y-43681025D01*
X51785714Y-43681025D02*
X51785714Y-43766740D01*
X51785714Y-43766740D02*
X51828571Y-43895311D01*
X51828571Y-43895311D02*
X52342857Y-44409597D01*
X52342857Y-44409597D02*
X51785714Y-44409597D01*
X50800000Y-43509597D02*
X50242857Y-43509597D01*
X50242857Y-43509597D02*
X50542857Y-43852454D01*
X50542857Y-43852454D02*
X50414286Y-43852454D01*
X50414286Y-43852454D02*
X50328572Y-43895311D01*
X50328572Y-43895311D02*
X50285714Y-43938168D01*
X50285714Y-43938168D02*
X50242857Y-44023882D01*
X50242857Y-44023882D02*
X50242857Y-44238168D01*
X50242857Y-44238168D02*
X50285714Y-44323882D01*
X50285714Y-44323882D02*
X50328572Y-44366740D01*
X50328572Y-44366740D02*
X50414286Y-44409597D01*
X50414286Y-44409597D02*
X50671429Y-44409597D01*
X50671429Y-44409597D02*
X50757143Y-44366740D01*
X50757143Y-44366740D02*
X50800000Y-44323882D01*
X49985714Y-43509597D02*
X49685714Y-44409597D01*
X49685714Y-44409597D02*
X49385714Y-43509597D01*
X49171428Y-43509597D02*
X48614285Y-43509597D01*
X48614285Y-43509597D02*
X48914285Y-43852454D01*
X48914285Y-43852454D02*
X48785714Y-43852454D01*
X48785714Y-43852454D02*
X48700000Y-43895311D01*
X48700000Y-43895311D02*
X48657142Y-43938168D01*
X48657142Y-43938168D02*
X48614285Y-44023882D01*
X48614285Y-44023882D02*
X48614285Y-44238168D01*
X48614285Y-44238168D02*
X48657142Y-44323882D01*
X48657142Y-44323882D02*
X48700000Y-44366740D01*
X48700000Y-44366740D02*
X48785714Y-44409597D01*
X48785714Y-44409597D02*
X49042857Y-44409597D01*
X49042857Y-44409597D02*
X49128571Y-44366740D01*
X49128571Y-44366740D02*
X49171428Y-44323882D01*
X46942857Y-43509597D02*
X46385714Y-43509597D01*
X46385714Y-43509597D02*
X46685714Y-43852454D01*
X46685714Y-43852454D02*
X46557143Y-43852454D01*
X46557143Y-43852454D02*
X46471429Y-43895311D01*
X46471429Y-43895311D02*
X46428571Y-43938168D01*
X46428571Y-43938168D02*
X46385714Y-44023882D01*
X46385714Y-44023882D02*
X46385714Y-44238168D01*
X46385714Y-44238168D02*
X46428571Y-44323882D01*
X46428571Y-44323882D02*
X46471429Y-44366740D01*
X46471429Y-44366740D02*
X46557143Y-44409597D01*
X46557143Y-44409597D02*
X46814286Y-44409597D01*
X46814286Y-44409597D02*
X46900000Y-44366740D01*
X46900000Y-44366740D02*
X46942857Y-44323882D01*
X45357143Y-44366740D02*
X45228572Y-44409597D01*
X45228572Y-44409597D02*
X45014286Y-44409597D01*
X45014286Y-44409597D02*
X44928572Y-44366740D01*
X44928572Y-44366740D02*
X44885714Y-44323882D01*
X44885714Y-44323882D02*
X44842857Y-44238168D01*
X44842857Y-44238168D02*
X44842857Y-44152454D01*
X44842857Y-44152454D02*
X44885714Y-44066740D01*
X44885714Y-44066740D02*
X44928572Y-44023882D01*
X44928572Y-44023882D02*
X45014286Y-43981025D01*
X45014286Y-43981025D02*
X45185714Y-43938168D01*
X45185714Y-43938168D02*
X45271429Y-43895311D01*
X45271429Y-43895311D02*
X45314286Y-43852454D01*
X45314286Y-43852454D02*
X45357143Y-43766740D01*
X45357143Y-43766740D02*
X45357143Y-43681025D01*
X45357143Y-43681025D02*
X45314286Y-43595311D01*
X45314286Y-43595311D02*
X45271429Y-43552454D01*
X45271429Y-43552454D02*
X45185714Y-43509597D01*
X45185714Y-43509597D02*
X44971429Y-43509597D01*
X44971429Y-43509597D02*
X44842857Y-43552454D01*
X43942857Y-44323882D02*
X43985714Y-44366740D01*
X43985714Y-44366740D02*
X44114286Y-44409597D01*
X44114286Y-44409597D02*
X44200000Y-44409597D01*
X44200000Y-44409597D02*
X44328571Y-44366740D01*
X44328571Y-44366740D02*
X44414286Y-44281025D01*
X44414286Y-44281025D02*
X44457143Y-44195311D01*
X44457143Y-44195311D02*
X44500000Y-44023882D01*
X44500000Y-44023882D02*
X44500000Y-43895311D01*
X44500000Y-43895311D02*
X44457143Y-43723882D01*
X44457143Y-43723882D02*
X44414286Y-43638168D01*
X44414286Y-43638168D02*
X44328571Y-43552454D01*
X44328571Y-43552454D02*
X44200000Y-43509597D01*
X44200000Y-43509597D02*
X44114286Y-43509597D01*
X44114286Y-43509597D02*
X43985714Y-43552454D01*
X43985714Y-43552454D02*
X43942857Y-43595311D01*
X43557143Y-44409597D02*
X43557143Y-43509597D01*
X43042857Y-44409597D02*
X43428571Y-43895311D01*
X43042857Y-43509597D02*
X43557143Y-44023882D01*
X40900001Y-43809597D02*
X40900001Y-44409597D01*
X41114286Y-43466740D02*
X41328572Y-44109597D01*
X41328572Y-44109597D02*
X40771429Y-44109597D01*
X39271429Y-43552454D02*
X39357144Y-43509597D01*
X39357144Y-43509597D02*
X39485715Y-43509597D01*
X39485715Y-43509597D02*
X39614286Y-43552454D01*
X39614286Y-43552454D02*
X39700001Y-43638168D01*
X39700001Y-43638168D02*
X39742858Y-43723882D01*
X39742858Y-43723882D02*
X39785715Y-43895311D01*
X39785715Y-43895311D02*
X39785715Y-44023882D01*
X39785715Y-44023882D02*
X39742858Y-44195311D01*
X39742858Y-44195311D02*
X39700001Y-44281025D01*
X39700001Y-44281025D02*
X39614286Y-44366740D01*
X39614286Y-44366740D02*
X39485715Y-44409597D01*
X39485715Y-44409597D02*
X39400001Y-44409597D01*
X39400001Y-44409597D02*
X39271429Y-44366740D01*
X39271429Y-44366740D02*
X39228572Y-44323882D01*
X39228572Y-44323882D02*
X39228572Y-44023882D01*
X39228572Y-44023882D02*
X39400001Y-44023882D01*
X38842858Y-44409597D02*
X38842858Y-43509597D01*
X38842858Y-43509597D02*
X38328572Y-44409597D01*
X38328572Y-44409597D02*
X38328572Y-43509597D01*
X37900001Y-44409597D02*
X37900001Y-43509597D01*
X37900001Y-43509597D02*
X37685715Y-43509597D01*
X37685715Y-43509597D02*
X37557144Y-43552454D01*
X37557144Y-43552454D02*
X37471429Y-43638168D01*
X37471429Y-43638168D02*
X37428572Y-43723882D01*
X37428572Y-43723882D02*
X37385715Y-43895311D01*
X37385715Y-43895311D02*
X37385715Y-44023882D01*
X37385715Y-44023882D02*
X37428572Y-44195311D01*
X37428572Y-44195311D02*
X37471429Y-44281025D01*
X37471429Y-44281025D02*
X37557144Y-44366740D01*
X37557144Y-44366740D02*
X37685715Y-44409597D01*
X37685715Y-44409597D02*
X37900001Y-44409597D01*
X58942855Y-45509597D02*
X59371427Y-45509597D01*
X59371427Y-45509597D02*
X59414284Y-45938168D01*
X59414284Y-45938168D02*
X59371427Y-45895311D01*
X59371427Y-45895311D02*
X59285713Y-45852454D01*
X59285713Y-45852454D02*
X59071427Y-45852454D01*
X59071427Y-45852454D02*
X58985713Y-45895311D01*
X58985713Y-45895311D02*
X58942855Y-45938168D01*
X58942855Y-45938168D02*
X58899998Y-46023882D01*
X58899998Y-46023882D02*
X58899998Y-46238168D01*
X58899998Y-46238168D02*
X58942855Y-46323882D01*
X58942855Y-46323882D02*
X58985713Y-46366740D01*
X58985713Y-46366740D02*
X59071427Y-46409597D01*
X59071427Y-46409597D02*
X59285713Y-46409597D01*
X59285713Y-46409597D02*
X59371427Y-46366740D01*
X59371427Y-46366740D02*
X59414284Y-46323882D01*
X57828570Y-46409597D02*
X57828570Y-45509597D01*
X57828570Y-45509597D02*
X57528570Y-46152454D01*
X57528570Y-46152454D02*
X57228570Y-45509597D01*
X57228570Y-45509597D02*
X57228570Y-46409597D01*
X56628570Y-45509597D02*
X56457142Y-45509597D01*
X56457142Y-45509597D02*
X56371427Y-45552454D01*
X56371427Y-45552454D02*
X56285713Y-45638168D01*
X56285713Y-45638168D02*
X56242856Y-45809597D01*
X56242856Y-45809597D02*
X56242856Y-46109597D01*
X56242856Y-46109597D02*
X56285713Y-46281025D01*
X56285713Y-46281025D02*
X56371427Y-46366740D01*
X56371427Y-46366740D02*
X56457142Y-46409597D01*
X56457142Y-46409597D02*
X56628570Y-46409597D01*
X56628570Y-46409597D02*
X56714285Y-46366740D01*
X56714285Y-46366740D02*
X56799999Y-46281025D01*
X56799999Y-46281025D02*
X56842856Y-46109597D01*
X56842856Y-46109597D02*
X56842856Y-45809597D01*
X56842856Y-45809597D02*
X56799999Y-45638168D01*
X56799999Y-45638168D02*
X56714285Y-45552454D01*
X56714285Y-45552454D02*
X56628570Y-45509597D01*
X55899999Y-46366740D02*
X55771428Y-46409597D01*
X55771428Y-46409597D02*
X55557142Y-46409597D01*
X55557142Y-46409597D02*
X55471428Y-46366740D01*
X55471428Y-46366740D02*
X55428570Y-46323882D01*
X55428570Y-46323882D02*
X55385713Y-46238168D01*
X55385713Y-46238168D02*
X55385713Y-46152454D01*
X55385713Y-46152454D02*
X55428570Y-46066740D01*
X55428570Y-46066740D02*
X55471428Y-46023882D01*
X55471428Y-46023882D02*
X55557142Y-45981025D01*
X55557142Y-45981025D02*
X55728570Y-45938168D01*
X55728570Y-45938168D02*
X55814285Y-45895311D01*
X55814285Y-45895311D02*
X55857142Y-45852454D01*
X55857142Y-45852454D02*
X55899999Y-45766740D01*
X55899999Y-45766740D02*
X55899999Y-45681025D01*
X55899999Y-45681025D02*
X55857142Y-45595311D01*
X55857142Y-45595311D02*
X55814285Y-45552454D01*
X55814285Y-45552454D02*
X55728570Y-45509597D01*
X55728570Y-45509597D02*
X55514285Y-45509597D01*
X55514285Y-45509597D02*
X55385713Y-45552454D01*
X54999999Y-46409597D02*
X54999999Y-45509597D01*
X52814286Y-45509597D02*
X52985714Y-45509597D01*
X52985714Y-45509597D02*
X53071428Y-45552454D01*
X53071428Y-45552454D02*
X53114286Y-45595311D01*
X53114286Y-45595311D02*
X53200000Y-45723882D01*
X53200000Y-45723882D02*
X53242857Y-45895311D01*
X53242857Y-45895311D02*
X53242857Y-46238168D01*
X53242857Y-46238168D02*
X53200000Y-46323882D01*
X53200000Y-46323882D02*
X53157143Y-46366740D01*
X53157143Y-46366740D02*
X53071428Y-46409597D01*
X53071428Y-46409597D02*
X52900000Y-46409597D01*
X52900000Y-46409597D02*
X52814286Y-46366740D01*
X52814286Y-46366740D02*
X52771428Y-46323882D01*
X52771428Y-46323882D02*
X52728571Y-46238168D01*
X52728571Y-46238168D02*
X52728571Y-46023882D01*
X52728571Y-46023882D02*
X52771428Y-45938168D01*
X52771428Y-45938168D02*
X52814286Y-45895311D01*
X52814286Y-45895311D02*
X52900000Y-45852454D01*
X52900000Y-45852454D02*
X53071428Y-45852454D01*
X53071428Y-45852454D02*
X53157143Y-45895311D01*
X53157143Y-45895311D02*
X53200000Y-45938168D01*
X53200000Y-45938168D02*
X53242857Y-46023882D01*
X51142857Y-46409597D02*
X51442857Y-45981025D01*
X51657143Y-46409597D02*
X51657143Y-45509597D01*
X51657143Y-45509597D02*
X51314286Y-45509597D01*
X51314286Y-45509597D02*
X51228571Y-45552454D01*
X51228571Y-45552454D02*
X51185714Y-45595311D01*
X51185714Y-45595311D02*
X51142857Y-45681025D01*
X51142857Y-45681025D02*
X51142857Y-45809597D01*
X51142857Y-45809597D02*
X51185714Y-45895311D01*
X51185714Y-45895311D02*
X51228571Y-45938168D01*
X51228571Y-45938168D02*
X51314286Y-45981025D01*
X51314286Y-45981025D02*
X51657143Y-45981025D01*
X50757143Y-45938168D02*
X50457143Y-45938168D01*
X50328571Y-46409597D02*
X50757143Y-46409597D01*
X50757143Y-46409597D02*
X50757143Y-45509597D01*
X50757143Y-45509597D02*
X50328571Y-45509597D01*
X49985714Y-46366740D02*
X49857143Y-46409597D01*
X49857143Y-46409597D02*
X49642857Y-46409597D01*
X49642857Y-46409597D02*
X49557143Y-46366740D01*
X49557143Y-46366740D02*
X49514285Y-46323882D01*
X49514285Y-46323882D02*
X49471428Y-46238168D01*
X49471428Y-46238168D02*
X49471428Y-46152454D01*
X49471428Y-46152454D02*
X49514285Y-46066740D01*
X49514285Y-46066740D02*
X49557143Y-46023882D01*
X49557143Y-46023882D02*
X49642857Y-45981025D01*
X49642857Y-45981025D02*
X49814285Y-45938168D01*
X49814285Y-45938168D02*
X49900000Y-45895311D01*
X49900000Y-45895311D02*
X49942857Y-45852454D01*
X49942857Y-45852454D02*
X49985714Y-45766740D01*
X49985714Y-45766740D02*
X49985714Y-45681025D01*
X49985714Y-45681025D02*
X49942857Y-45595311D01*
X49942857Y-45595311D02*
X49900000Y-45552454D01*
X49900000Y-45552454D02*
X49814285Y-45509597D01*
X49814285Y-45509597D02*
X49600000Y-45509597D01*
X49600000Y-45509597D02*
X49471428Y-45552454D01*
X49085714Y-45938168D02*
X48785714Y-45938168D01*
X48657142Y-46409597D02*
X49085714Y-46409597D01*
X49085714Y-46409597D02*
X49085714Y-45509597D01*
X49085714Y-45509597D02*
X48657142Y-45509597D01*
X48399999Y-45509597D02*
X47885714Y-45509597D01*
X48142856Y-46409597D02*
X48142856Y-45509597D01*
X46300000Y-45509597D02*
X45700000Y-45509597D01*
X45700000Y-45509597D02*
X46085714Y-46409597D01*
X44671429Y-46409597D02*
X44671429Y-45509597D01*
X44671429Y-45509597D02*
X44457143Y-45509597D01*
X44457143Y-45509597D02*
X44328572Y-45552454D01*
X44328572Y-45552454D02*
X44242857Y-45638168D01*
X44242857Y-45638168D02*
X44200000Y-45723882D01*
X44200000Y-45723882D02*
X44157143Y-45895311D01*
X44157143Y-45895311D02*
X44157143Y-46023882D01*
X44157143Y-46023882D02*
X44200000Y-46195311D01*
X44200000Y-46195311D02*
X44242857Y-46281025D01*
X44242857Y-46281025D02*
X44328572Y-46366740D01*
X44328572Y-46366740D02*
X44457143Y-46409597D01*
X44457143Y-46409597D02*
X44671429Y-46409597D01*
X43257143Y-46323882D02*
X43300000Y-46366740D01*
X43300000Y-46366740D02*
X43428572Y-46409597D01*
X43428572Y-46409597D02*
X43514286Y-46409597D01*
X43514286Y-46409597D02*
X43642857Y-46366740D01*
X43642857Y-46366740D02*
X43728572Y-46281025D01*
X43728572Y-46281025D02*
X43771429Y-46195311D01*
X43771429Y-46195311D02*
X43814286Y-46023882D01*
X43814286Y-46023882D02*
X43814286Y-45895311D01*
X43814286Y-45895311D02*
X43771429Y-45723882D01*
X43771429Y-45723882D02*
X43728572Y-45638168D01*
X43728572Y-45638168D02*
X43642857Y-45552454D01*
X43642857Y-45552454D02*
X43514286Y-45509597D01*
X43514286Y-45509597D02*
X43428572Y-45509597D01*
X43428572Y-45509597D02*
X43300000Y-45552454D01*
X43300000Y-45552454D02*
X43257143Y-45595311D01*
X41371429Y-45895311D02*
X41457144Y-45852454D01*
X41457144Y-45852454D02*
X41500001Y-45809597D01*
X41500001Y-45809597D02*
X41542858Y-45723882D01*
X41542858Y-45723882D02*
X41542858Y-45681025D01*
X41542858Y-45681025D02*
X41500001Y-45595311D01*
X41500001Y-45595311D02*
X41457144Y-45552454D01*
X41457144Y-45552454D02*
X41371429Y-45509597D01*
X41371429Y-45509597D02*
X41200001Y-45509597D01*
X41200001Y-45509597D02*
X41114287Y-45552454D01*
X41114287Y-45552454D02*
X41071429Y-45595311D01*
X41071429Y-45595311D02*
X41028572Y-45681025D01*
X41028572Y-45681025D02*
X41028572Y-45723882D01*
X41028572Y-45723882D02*
X41071429Y-45809597D01*
X41071429Y-45809597D02*
X41114287Y-45852454D01*
X41114287Y-45852454D02*
X41200001Y-45895311D01*
X41200001Y-45895311D02*
X41371429Y-45895311D01*
X41371429Y-45895311D02*
X41457144Y-45938168D01*
X41457144Y-45938168D02*
X41500001Y-45981025D01*
X41500001Y-45981025D02*
X41542858Y-46066740D01*
X41542858Y-46066740D02*
X41542858Y-46238168D01*
X41542858Y-46238168D02*
X41500001Y-46323882D01*
X41500001Y-46323882D02*
X41457144Y-46366740D01*
X41457144Y-46366740D02*
X41371429Y-46409597D01*
X41371429Y-46409597D02*
X41200001Y-46409597D01*
X41200001Y-46409597D02*
X41114287Y-46366740D01*
X41114287Y-46366740D02*
X41071429Y-46323882D01*
X41071429Y-46323882D02*
X41028572Y-46238168D01*
X41028572Y-46238168D02*
X41028572Y-46066740D01*
X41028572Y-46066740D02*
X41071429Y-45981025D01*
X41071429Y-45981025D02*
X41114287Y-45938168D01*
X41114287Y-45938168D02*
X41200001Y-45895311D01*
X39442858Y-46323882D02*
X39485715Y-46366740D01*
X39485715Y-46366740D02*
X39614287Y-46409597D01*
X39614287Y-46409597D02*
X39700001Y-46409597D01*
X39700001Y-46409597D02*
X39828572Y-46366740D01*
X39828572Y-46366740D02*
X39914287Y-46281025D01*
X39914287Y-46281025D02*
X39957144Y-46195311D01*
X39957144Y-46195311D02*
X40000001Y-46023882D01*
X40000001Y-46023882D02*
X40000001Y-45895311D01*
X40000001Y-45895311D02*
X39957144Y-45723882D01*
X39957144Y-45723882D02*
X39914287Y-45638168D01*
X39914287Y-45638168D02*
X39828572Y-45552454D01*
X39828572Y-45552454D02*
X39700001Y-45509597D01*
X39700001Y-45509597D02*
X39614287Y-45509597D01*
X39614287Y-45509597D02*
X39485715Y-45552454D01*
X39485715Y-45552454D02*
X39442858Y-45595311D01*
X39100001Y-46366740D02*
X38971430Y-46409597D01*
X38971430Y-46409597D02*
X38757144Y-46409597D01*
X38757144Y-46409597D02*
X38671430Y-46366740D01*
X38671430Y-46366740D02*
X38628572Y-46323882D01*
X38628572Y-46323882D02*
X38585715Y-46238168D01*
X38585715Y-46238168D02*
X38585715Y-46152454D01*
X38585715Y-46152454D02*
X38628572Y-46066740D01*
X38628572Y-46066740D02*
X38671430Y-46023882D01*
X38671430Y-46023882D02*
X38757144Y-45981025D01*
X38757144Y-45981025D02*
X38928572Y-45938168D01*
X38928572Y-45938168D02*
X39014287Y-45895311D01*
X39014287Y-45895311D02*
X39057144Y-45852454D01*
X39057144Y-45852454D02*
X39100001Y-45766740D01*
X39100001Y-45766740D02*
X39100001Y-45681025D01*
X39100001Y-45681025D02*
X39057144Y-45595311D01*
X39057144Y-45595311D02*
X39014287Y-45552454D01*
X39014287Y-45552454D02*
X38928572Y-45509597D01*
X38928572Y-45509597D02*
X38714287Y-45509597D01*
X38714287Y-45509597D02*
X38585715Y-45552454D01*
X81171427Y-48509597D02*
X81171427Y-49152454D01*
X81171427Y-49152454D02*
X81214284Y-49281025D01*
X81214284Y-49281025D02*
X81299998Y-49366740D01*
X81299998Y-49366740D02*
X81428570Y-49409597D01*
X81428570Y-49409597D02*
X81514284Y-49409597D01*
X80357142Y-48809597D02*
X80357142Y-49409597D01*
X80571427Y-48466740D02*
X80785713Y-49109597D01*
X80785713Y-49109597D02*
X80228570Y-49109597D01*
X79885713Y-49323882D02*
X79842856Y-49366740D01*
X79842856Y-49366740D02*
X79885713Y-49409597D01*
X79885713Y-49409597D02*
X79928570Y-49366740D01*
X79928570Y-49366740D02*
X79885713Y-49323882D01*
X79885713Y-49323882D02*
X79885713Y-49409597D01*
X79885713Y-48852454D02*
X79842856Y-48895311D01*
X79842856Y-48895311D02*
X79885713Y-48938168D01*
X79885713Y-48938168D02*
X79928570Y-48895311D01*
X79928570Y-48895311D02*
X79885713Y-48852454D01*
X79885713Y-48852454D02*
X79885713Y-48938168D01*
X78299999Y-49409597D02*
X78814285Y-49409597D01*
X78557142Y-49409597D02*
X78557142Y-48509597D01*
X78557142Y-48509597D02*
X78642856Y-48638168D01*
X78642856Y-48638168D02*
X78728571Y-48723882D01*
X78728571Y-48723882D02*
X78814285Y-48766740D01*
X77228571Y-49409597D02*
X77228571Y-48509597D01*
X76714285Y-49409597D02*
X77099999Y-48895311D01*
X76714285Y-48509597D02*
X77228571Y-49023882D01*
X76328571Y-48938168D02*
X76028571Y-48938168D01*
X75899999Y-49409597D02*
X76328571Y-49409597D01*
X76328571Y-49409597D02*
X76328571Y-48509597D01*
X76328571Y-48509597D02*
X75899999Y-48509597D01*
X75342856Y-48981025D02*
X75342856Y-49409597D01*
X75642856Y-48509597D02*
X75342856Y-48981025D01*
X75342856Y-48981025D02*
X75042856Y-48509597D01*
X73414285Y-48466740D02*
X74185713Y-49623882D01*
X72471428Y-48595311D02*
X72428571Y-48552454D01*
X72428571Y-48552454D02*
X72342857Y-48509597D01*
X72342857Y-48509597D02*
X72128571Y-48509597D01*
X72128571Y-48509597D02*
X72042857Y-48552454D01*
X72042857Y-48552454D02*
X71999999Y-48595311D01*
X71999999Y-48595311D02*
X71957142Y-48681025D01*
X71957142Y-48681025D02*
X71957142Y-48766740D01*
X71957142Y-48766740D02*
X71999999Y-48895311D01*
X71999999Y-48895311D02*
X72514285Y-49409597D01*
X72514285Y-49409597D02*
X71957142Y-49409597D01*
X70414285Y-48552454D02*
X70500000Y-48509597D01*
X70500000Y-48509597D02*
X70628571Y-48509597D01*
X70628571Y-48509597D02*
X70757142Y-48552454D01*
X70757142Y-48552454D02*
X70842857Y-48638168D01*
X70842857Y-48638168D02*
X70885714Y-48723882D01*
X70885714Y-48723882D02*
X70928571Y-48895311D01*
X70928571Y-48895311D02*
X70928571Y-49023882D01*
X70928571Y-49023882D02*
X70885714Y-49195311D01*
X70885714Y-49195311D02*
X70842857Y-49281025D01*
X70842857Y-49281025D02*
X70757142Y-49366740D01*
X70757142Y-49366740D02*
X70628571Y-49409597D01*
X70628571Y-49409597D02*
X70542857Y-49409597D01*
X70542857Y-49409597D02*
X70414285Y-49366740D01*
X70414285Y-49366740D02*
X70371428Y-49323882D01*
X70371428Y-49323882D02*
X70371428Y-49023882D01*
X70371428Y-49023882D02*
X70542857Y-49023882D01*
X69985714Y-49409597D02*
X69985714Y-48509597D01*
X69985714Y-48509597D02*
X69471428Y-49409597D01*
X69471428Y-49409597D02*
X69471428Y-48509597D01*
X69042857Y-49409597D02*
X69042857Y-48509597D01*
X69042857Y-48509597D02*
X68828571Y-48509597D01*
X68828571Y-48509597D02*
X68700000Y-48552454D01*
X68700000Y-48552454D02*
X68614285Y-48638168D01*
X68614285Y-48638168D02*
X68571428Y-48723882D01*
X68571428Y-48723882D02*
X68528571Y-48895311D01*
X68528571Y-48895311D02*
X68528571Y-49023882D01*
X68528571Y-49023882D02*
X68571428Y-49195311D01*
X68571428Y-49195311D02*
X68614285Y-49281025D01*
X68614285Y-49281025D02*
X68700000Y-49366740D01*
X68700000Y-49366740D02*
X68828571Y-49409597D01*
X68828571Y-49409597D02*
X69042857Y-49409597D01*
X53507142Y-37397359D02*
X53559523Y-37449740D01*
X53559523Y-37449740D02*
X53716666Y-37502120D01*
X53716666Y-37502120D02*
X53821428Y-37502120D01*
X53821428Y-37502120D02*
X53978571Y-37449740D01*
X53978571Y-37449740D02*
X54083333Y-37344978D01*
X54083333Y-37344978D02*
X54135714Y-37240216D01*
X54135714Y-37240216D02*
X54188095Y-37030692D01*
X54188095Y-37030692D02*
X54188095Y-36873549D01*
X54188095Y-36873549D02*
X54135714Y-36664025D01*
X54135714Y-36664025D02*
X54083333Y-36559263D01*
X54083333Y-36559263D02*
X53978571Y-36454501D01*
X53978571Y-36454501D02*
X53821428Y-36402120D01*
X53821428Y-36402120D02*
X53716666Y-36402120D01*
X53716666Y-36402120D02*
X53559523Y-36454501D01*
X53559523Y-36454501D02*
X53507142Y-36506882D01*
X53035714Y-37502120D02*
X53035714Y-36402120D01*
X53035714Y-36925930D02*
X52407142Y-36925930D01*
X52407142Y-37502120D02*
X52407142Y-36402120D01*
X51935714Y-37187835D02*
X51411904Y-37187835D01*
X52040476Y-37502120D02*
X51673809Y-36402120D01*
X51673809Y-36402120D02*
X51307142Y-37502120D01*
X50311904Y-37502120D02*
X50678571Y-36978311D01*
X50940476Y-37502120D02*
X50940476Y-36402120D01*
X50940476Y-36402120D02*
X50521428Y-36402120D01*
X50521428Y-36402120D02*
X50416666Y-36454501D01*
X50416666Y-36454501D02*
X50364285Y-36506882D01*
X50364285Y-36506882D02*
X50311904Y-36611644D01*
X50311904Y-36611644D02*
X50311904Y-36768787D01*
X50311904Y-36768787D02*
X50364285Y-36873549D01*
X50364285Y-36873549D02*
X50416666Y-36925930D01*
X50416666Y-36925930D02*
X50521428Y-36978311D01*
X50521428Y-36978311D02*
X50940476Y-36978311D01*
X49264285Y-36454501D02*
X49369047Y-36402120D01*
X49369047Y-36402120D02*
X49526190Y-36402120D01*
X49526190Y-36402120D02*
X49683333Y-36454501D01*
X49683333Y-36454501D02*
X49788095Y-36559263D01*
X49788095Y-36559263D02*
X49840476Y-36664025D01*
X49840476Y-36664025D02*
X49892857Y-36873549D01*
X49892857Y-36873549D02*
X49892857Y-37030692D01*
X49892857Y-37030692D02*
X49840476Y-37240216D01*
X49840476Y-37240216D02*
X49788095Y-37344978D01*
X49788095Y-37344978D02*
X49683333Y-37449740D01*
X49683333Y-37449740D02*
X49526190Y-37502120D01*
X49526190Y-37502120D02*
X49421428Y-37502120D01*
X49421428Y-37502120D02*
X49264285Y-37449740D01*
X49264285Y-37449740D02*
X49211904Y-37397359D01*
X49211904Y-37397359D02*
X49211904Y-37030692D01*
X49211904Y-37030692D02*
X49421428Y-37030692D01*
X48740476Y-37502120D02*
X48740476Y-36402120D01*
X48216666Y-37502120D02*
X48216666Y-36402120D01*
X48216666Y-36402120D02*
X47588094Y-37502120D01*
X47588094Y-37502120D02*
X47588094Y-36402120D01*
X46488094Y-36454501D02*
X46592856Y-36402120D01*
X46592856Y-36402120D02*
X46749999Y-36402120D01*
X46749999Y-36402120D02*
X46907142Y-36454501D01*
X46907142Y-36454501D02*
X47011904Y-36559263D01*
X47011904Y-36559263D02*
X47064285Y-36664025D01*
X47064285Y-36664025D02*
X47116666Y-36873549D01*
X47116666Y-36873549D02*
X47116666Y-37030692D01*
X47116666Y-37030692D02*
X47064285Y-37240216D01*
X47064285Y-37240216D02*
X47011904Y-37344978D01*
X47011904Y-37344978D02*
X46907142Y-37449740D01*
X46907142Y-37449740D02*
X46749999Y-37502120D01*
X46749999Y-37502120D02*
X46645237Y-37502120D01*
X46645237Y-37502120D02*
X46488094Y-37449740D01*
X46488094Y-37449740D02*
X46435713Y-37397359D01*
X46435713Y-37397359D02*
X46435713Y-37030692D01*
X46435713Y-37030692D02*
X46645237Y-37030692D01*
X44916666Y-36402120D02*
X44707142Y-36402120D01*
X44707142Y-36402120D02*
X44602380Y-36454501D01*
X44602380Y-36454501D02*
X44497618Y-36559263D01*
X44497618Y-36559263D02*
X44445237Y-36768787D01*
X44445237Y-36768787D02*
X44445237Y-37135454D01*
X44445237Y-37135454D02*
X44497618Y-37344978D01*
X44497618Y-37344978D02*
X44602380Y-37449740D01*
X44602380Y-37449740D02*
X44707142Y-37502120D01*
X44707142Y-37502120D02*
X44916666Y-37502120D01*
X44916666Y-37502120D02*
X45021428Y-37449740D01*
X45021428Y-37449740D02*
X45126190Y-37344978D01*
X45126190Y-37344978D02*
X45178571Y-37135454D01*
X45178571Y-37135454D02*
X45178571Y-36768787D01*
X45178571Y-36768787D02*
X45126190Y-36559263D01*
X45126190Y-36559263D02*
X45021428Y-36454501D01*
X45021428Y-36454501D02*
X44916666Y-36402120D01*
X43607142Y-36925930D02*
X43973809Y-36925930D01*
X43973809Y-37502120D02*
X43973809Y-36402120D01*
X43973809Y-36402120D02*
X43449999Y-36402120D01*
X42664285Y-36925930D02*
X43030952Y-36925930D01*
X43030952Y-37502120D02*
X43030952Y-36402120D01*
X43030952Y-36402120D02*
X42507142Y-36402120D01*
X42088095Y-37397359D02*
X42035714Y-37449740D01*
X42035714Y-37449740D02*
X42088095Y-37502120D01*
X42088095Y-37502120D02*
X42140476Y-37449740D01*
X42140476Y-37449740D02*
X42088095Y-37397359D01*
X42088095Y-37397359D02*
X42088095Y-37502120D01*
X42088095Y-36821168D02*
X42035714Y-36873549D01*
X42035714Y-36873549D02*
X42088095Y-36925930D01*
X42088095Y-36925930D02*
X42140476Y-36873549D01*
X42140476Y-36873549D02*
X42088095Y-36821168D01*
X42088095Y-36821168D02*
X42088095Y-36925930D01*
X40097618Y-37502120D02*
X40464285Y-36978311D01*
X40726190Y-37502120D02*
X40726190Y-36402120D01*
X40726190Y-36402120D02*
X40307142Y-36402120D01*
X40307142Y-36402120D02*
X40202380Y-36454501D01*
X40202380Y-36454501D02*
X40149999Y-36506882D01*
X40149999Y-36506882D02*
X40097618Y-36611644D01*
X40097618Y-36611644D02*
X40097618Y-36768787D01*
X40097618Y-36768787D02*
X40149999Y-36873549D01*
X40149999Y-36873549D02*
X40202380Y-36925930D01*
X40202380Y-36925930D02*
X40307142Y-36978311D01*
X40307142Y-36978311D02*
X40726190Y-36978311D01*
X39730952Y-36402120D02*
X39049999Y-36402120D01*
X39049999Y-36402120D02*
X39416666Y-36821168D01*
X39416666Y-36821168D02*
X39259523Y-36821168D01*
X39259523Y-36821168D02*
X39154761Y-36873549D01*
X39154761Y-36873549D02*
X39102380Y-36925930D01*
X39102380Y-36925930D02*
X39049999Y-37030692D01*
X39049999Y-37030692D02*
X39049999Y-37292597D01*
X39049999Y-37292597D02*
X39102380Y-37397359D01*
X39102380Y-37397359D02*
X39154761Y-37449740D01*
X39154761Y-37449740D02*
X39259523Y-37502120D01*
X39259523Y-37502120D02*
X39573809Y-37502120D01*
X39573809Y-37502120D02*
X39678571Y-37449740D01*
X39678571Y-37449740D02*
X39730952Y-37397359D01*
X38526190Y-37502120D02*
X38316666Y-37502120D01*
X38316666Y-37502120D02*
X38211904Y-37449740D01*
X38211904Y-37449740D02*
X38159523Y-37397359D01*
X38159523Y-37397359D02*
X38054761Y-37240216D01*
X38054761Y-37240216D02*
X38002380Y-37030692D01*
X38002380Y-37030692D02*
X38002380Y-36611644D01*
X38002380Y-36611644D02*
X38054761Y-36506882D01*
X38054761Y-36506882D02*
X38107142Y-36454501D01*
X38107142Y-36454501D02*
X38211904Y-36402120D01*
X38211904Y-36402120D02*
X38421428Y-36402120D01*
X38421428Y-36402120D02*
X38526190Y-36454501D01*
X38526190Y-36454501D02*
X38578571Y-36506882D01*
X38578571Y-36506882D02*
X38630952Y-36611644D01*
X38630952Y-36611644D02*
X38630952Y-36873549D01*
X38630952Y-36873549D02*
X38578571Y-36978311D01*
X38578571Y-36978311D02*
X38526190Y-37030692D01*
X38526190Y-37030692D02*
X38421428Y-37083073D01*
X38421428Y-37083073D02*
X38211904Y-37083073D01*
X38211904Y-37083073D02*
X38107142Y-37030692D01*
X38107142Y-37030692D02*
X38054761Y-36978311D01*
X38054761Y-36978311D02*
X38002380Y-36873549D01*
X36692857Y-37502120D02*
X36692857Y-36402120D01*
X36692857Y-36402120D02*
X36430952Y-36402120D01*
X36430952Y-36402120D02*
X36273809Y-36454501D01*
X36273809Y-36454501D02*
X36169047Y-36559263D01*
X36169047Y-36559263D02*
X36116666Y-36664025D01*
X36116666Y-36664025D02*
X36064285Y-36873549D01*
X36064285Y-36873549D02*
X36064285Y-37030692D01*
X36064285Y-37030692D02*
X36116666Y-37240216D01*
X36116666Y-37240216D02*
X36169047Y-37344978D01*
X36169047Y-37344978D02*
X36273809Y-37449740D01*
X36273809Y-37449740D02*
X36430952Y-37502120D01*
X36430952Y-37502120D02*
X36692857Y-37502120D01*
X35592857Y-37502120D02*
X35592857Y-36402120D01*
X35592857Y-36402120D02*
X34964285Y-37502120D01*
X34964285Y-37502120D02*
X34964285Y-36402120D01*
X34440476Y-37502120D02*
X34440476Y-36402120D01*
X34440476Y-36402120D02*
X34021428Y-36402120D01*
X34021428Y-36402120D02*
X33916666Y-36454501D01*
X33916666Y-36454501D02*
X33864285Y-36506882D01*
X33864285Y-36506882D02*
X33811904Y-36611644D01*
X33811904Y-36611644D02*
X33811904Y-36768787D01*
X33811904Y-36768787D02*
X33864285Y-36873549D01*
X33864285Y-36873549D02*
X33916666Y-36925930D01*
X33916666Y-36925930D02*
X34021428Y-36978311D01*
X34021428Y-36978311D02*
X34440476Y-36978311D01*
X60657144Y-34548382D02*
X61057144Y-33976954D01*
X61342858Y-34548382D02*
X61342858Y-33348382D01*
X61342858Y-33348382D02*
X60885715Y-33348382D01*
X60885715Y-33348382D02*
X60771430Y-33405525D01*
X60771430Y-33405525D02*
X60714287Y-33462668D01*
X60714287Y-33462668D02*
X60657144Y-33576954D01*
X60657144Y-33576954D02*
X60657144Y-33748382D01*
X60657144Y-33748382D02*
X60714287Y-33862668D01*
X60714287Y-33862668D02*
X60771430Y-33919811D01*
X60771430Y-33919811D02*
X60885715Y-33976954D01*
X60885715Y-33976954D02*
X61342858Y-33976954D01*
X60142858Y-33919811D02*
X59742858Y-33919811D01*
X59571430Y-34548382D02*
X60142858Y-34548382D01*
X60142858Y-34548382D02*
X60142858Y-33348382D01*
X60142858Y-33348382D02*
X59571430Y-33348382D01*
X59228573Y-33348382D02*
X58828573Y-34548382D01*
X58828573Y-34548382D02*
X58428573Y-33348382D01*
X56714287Y-33919811D02*
X56542859Y-33976954D01*
X56542859Y-33976954D02*
X56485716Y-34034097D01*
X56485716Y-34034097D02*
X56428573Y-34148382D01*
X56428573Y-34148382D02*
X56428573Y-34319811D01*
X56428573Y-34319811D02*
X56485716Y-34434097D01*
X56485716Y-34434097D02*
X56542859Y-34491240D01*
X56542859Y-34491240D02*
X56657144Y-34548382D01*
X56657144Y-34548382D02*
X57114287Y-34548382D01*
X57114287Y-34548382D02*
X57114287Y-33348382D01*
X57114287Y-33348382D02*
X56714287Y-33348382D01*
X56714287Y-33348382D02*
X56600002Y-33405525D01*
X56600002Y-33405525D02*
X56542859Y-33462668D01*
X56542859Y-33462668D02*
X56485716Y-33576954D01*
X56485716Y-33576954D02*
X56485716Y-33691240D01*
X56485716Y-33691240D02*
X56542859Y-33805525D01*
X56542859Y-33805525D02*
X56600002Y-33862668D01*
X56600002Y-33862668D02*
X56714287Y-33919811D01*
X56714287Y-33919811D02*
X57114287Y-33919811D01*
X54142858Y-33291240D02*
X55171430Y-34834097D01*
X52771429Y-34548382D02*
X52542858Y-34548382D01*
X52542858Y-34548382D02*
X52428572Y-34491240D01*
X52428572Y-34491240D02*
X52371429Y-34434097D01*
X52371429Y-34434097D02*
X52257144Y-34262668D01*
X52257144Y-34262668D02*
X52200001Y-34034097D01*
X52200001Y-34034097D02*
X52200001Y-33576954D01*
X52200001Y-33576954D02*
X52257144Y-33462668D01*
X52257144Y-33462668D02*
X52314287Y-33405525D01*
X52314287Y-33405525D02*
X52428572Y-33348382D01*
X52428572Y-33348382D02*
X52657144Y-33348382D01*
X52657144Y-33348382D02*
X52771429Y-33405525D01*
X52771429Y-33405525D02*
X52828572Y-33462668D01*
X52828572Y-33462668D02*
X52885715Y-33576954D01*
X52885715Y-33576954D02*
X52885715Y-33862668D01*
X52885715Y-33862668D02*
X52828572Y-33976954D01*
X52828572Y-33976954D02*
X52771429Y-34034097D01*
X52771429Y-34034097D02*
X52657144Y-34091240D01*
X52657144Y-34091240D02*
X52428572Y-34091240D01*
X52428572Y-34091240D02*
X52314287Y-34034097D01*
X52314287Y-34034097D02*
X52257144Y-33976954D01*
X52257144Y-33976954D02*
X52200001Y-33862668D01*
X51457144Y-33348382D02*
X51342858Y-33348382D01*
X51342858Y-33348382D02*
X51228572Y-33405525D01*
X51228572Y-33405525D02*
X51171430Y-33462668D01*
X51171430Y-33462668D02*
X51114287Y-33576954D01*
X51114287Y-33576954D02*
X51057144Y-33805525D01*
X51057144Y-33805525D02*
X51057144Y-34091240D01*
X51057144Y-34091240D02*
X51114287Y-34319811D01*
X51114287Y-34319811D02*
X51171430Y-34434097D01*
X51171430Y-34434097D02*
X51228572Y-34491240D01*
X51228572Y-34491240D02*
X51342858Y-34548382D01*
X51342858Y-34548382D02*
X51457144Y-34548382D01*
X51457144Y-34548382D02*
X51571430Y-34491240D01*
X51571430Y-34491240D02*
X51628572Y-34434097D01*
X51628572Y-34434097D02*
X51685715Y-34319811D01*
X51685715Y-34319811D02*
X51742858Y-34091240D01*
X51742858Y-34091240D02*
X51742858Y-33805525D01*
X51742858Y-33805525D02*
X51685715Y-33576954D01*
X51685715Y-33576954D02*
X51628572Y-33462668D01*
X51628572Y-33462668D02*
X51571430Y-33405525D01*
X51571430Y-33405525D02*
X51457144Y-33348382D01*
X49742858Y-34548382D02*
X49114287Y-33748382D01*
X49742858Y-33748382D02*
X49114287Y-34548382D01*
X47228572Y-33348382D02*
X47457143Y-33348382D01*
X47457143Y-33348382D02*
X47571429Y-33405525D01*
X47571429Y-33405525D02*
X47628572Y-33462668D01*
X47628572Y-33462668D02*
X47742857Y-33634097D01*
X47742857Y-33634097D02*
X47800000Y-33862668D01*
X47800000Y-33862668D02*
X47800000Y-34319811D01*
X47800000Y-34319811D02*
X47742857Y-34434097D01*
X47742857Y-34434097D02*
X47685714Y-34491240D01*
X47685714Y-34491240D02*
X47571429Y-34548382D01*
X47571429Y-34548382D02*
X47342857Y-34548382D01*
X47342857Y-34548382D02*
X47228572Y-34491240D01*
X47228572Y-34491240D02*
X47171429Y-34434097D01*
X47171429Y-34434097D02*
X47114286Y-34319811D01*
X47114286Y-34319811D02*
X47114286Y-34034097D01*
X47114286Y-34034097D02*
X47171429Y-33919811D01*
X47171429Y-33919811D02*
X47228572Y-33862668D01*
X47228572Y-33862668D02*
X47342857Y-33805525D01*
X47342857Y-33805525D02*
X47571429Y-33805525D01*
X47571429Y-33805525D02*
X47685714Y-33862668D01*
X47685714Y-33862668D02*
X47742857Y-33919811D01*
X47742857Y-33919811D02*
X47800000Y-34034097D01*
X46371429Y-33348382D02*
X46257143Y-33348382D01*
X46257143Y-33348382D02*
X46142857Y-33405525D01*
X46142857Y-33405525D02*
X46085715Y-33462668D01*
X46085715Y-33462668D02*
X46028572Y-33576954D01*
X46028572Y-33576954D02*
X45971429Y-33805525D01*
X45971429Y-33805525D02*
X45971429Y-34091240D01*
X45971429Y-34091240D02*
X46028572Y-34319811D01*
X46028572Y-34319811D02*
X46085715Y-34434097D01*
X46085715Y-34434097D02*
X46142857Y-34491240D01*
X46142857Y-34491240D02*
X46257143Y-34548382D01*
X46257143Y-34548382D02*
X46371429Y-34548382D01*
X46371429Y-34548382D02*
X46485715Y-34491240D01*
X46485715Y-34491240D02*
X46542857Y-34434097D01*
X46542857Y-34434097D02*
X46600000Y-34319811D01*
X46600000Y-34319811D02*
X46657143Y-34091240D01*
X46657143Y-34091240D02*
X46657143Y-33805525D01*
X46657143Y-33805525D02*
X46600000Y-33576954D01*
X46600000Y-33576954D02*
X46542857Y-33462668D01*
X46542857Y-33462668D02*
X46485715Y-33405525D01*
X46485715Y-33405525D02*
X46371429Y-33348382D01*
X44542857Y-34548382D02*
X44542857Y-33748382D01*
X44542857Y-33862668D02*
X44485714Y-33805525D01*
X44485714Y-33805525D02*
X44371429Y-33748382D01*
X44371429Y-33748382D02*
X44200000Y-33748382D01*
X44200000Y-33748382D02*
X44085714Y-33805525D01*
X44085714Y-33805525D02*
X44028572Y-33919811D01*
X44028572Y-33919811D02*
X44028572Y-34548382D01*
X44028572Y-33919811D02*
X43971429Y-33805525D01*
X43971429Y-33805525D02*
X43857143Y-33748382D01*
X43857143Y-33748382D02*
X43685714Y-33748382D01*
X43685714Y-33748382D02*
X43571429Y-33805525D01*
X43571429Y-33805525D02*
X43514286Y-33919811D01*
X43514286Y-33919811D02*
X43514286Y-34548382D01*
X42942857Y-34548382D02*
X42942857Y-33748382D01*
X42942857Y-33862668D02*
X42885714Y-33805525D01*
X42885714Y-33805525D02*
X42771429Y-33748382D01*
X42771429Y-33748382D02*
X42600000Y-33748382D01*
X42600000Y-33748382D02*
X42485714Y-33805525D01*
X42485714Y-33805525D02*
X42428572Y-33919811D01*
X42428572Y-33919811D02*
X42428572Y-34548382D01*
X42428572Y-33919811D02*
X42371429Y-33805525D01*
X42371429Y-33805525D02*
X42257143Y-33748382D01*
X42257143Y-33748382D02*
X42085714Y-33748382D01*
X42085714Y-33748382D02*
X41971429Y-33805525D01*
X41971429Y-33805525D02*
X41914286Y-33919811D01*
X41914286Y-33919811D02*
X41914286Y-34548382D01*
X39571428Y-33291240D02*
X40600000Y-34834097D01*
X38314285Y-33462668D02*
X38257142Y-33405525D01*
X38257142Y-33405525D02*
X38142857Y-33348382D01*
X38142857Y-33348382D02*
X37857142Y-33348382D01*
X37857142Y-33348382D02*
X37742857Y-33405525D01*
X37742857Y-33405525D02*
X37685714Y-33462668D01*
X37685714Y-33462668D02*
X37628571Y-33576954D01*
X37628571Y-33576954D02*
X37628571Y-33691240D01*
X37628571Y-33691240D02*
X37685714Y-33862668D01*
X37685714Y-33862668D02*
X38371428Y-34548382D01*
X38371428Y-34548382D02*
X37628571Y-34548382D01*
X36542857Y-34548382D02*
X37114285Y-34548382D01*
X37114285Y-34548382D02*
X37114285Y-33348382D01*
X34371427Y-33291240D02*
X35399999Y-34834097D01*
X32428570Y-34548382D02*
X33114284Y-34548382D01*
X32771427Y-34548382D02*
X32771427Y-33348382D01*
X32771427Y-33348382D02*
X32885713Y-33519811D01*
X32885713Y-33519811D02*
X32999998Y-33634097D01*
X32999998Y-33634097D02*
X33114284Y-33691240D01*
X31914284Y-34434097D02*
X31857141Y-34491240D01*
X31857141Y-34491240D02*
X31914284Y-34548382D01*
X31914284Y-34548382D02*
X31971427Y-34491240D01*
X31971427Y-34491240D02*
X31914284Y-34434097D01*
X31914284Y-34434097D02*
X31914284Y-34548382D01*
X30828570Y-33348382D02*
X31057141Y-33348382D01*
X31057141Y-33348382D02*
X31171427Y-33405525D01*
X31171427Y-33405525D02*
X31228570Y-33462668D01*
X31228570Y-33462668D02*
X31342855Y-33634097D01*
X31342855Y-33634097D02*
X31399998Y-33862668D01*
X31399998Y-33862668D02*
X31399998Y-34319811D01*
X31399998Y-34319811D02*
X31342855Y-34434097D01*
X31342855Y-34434097D02*
X31285712Y-34491240D01*
X31285712Y-34491240D02*
X31171427Y-34548382D01*
X31171427Y-34548382D02*
X30942855Y-34548382D01*
X30942855Y-34548382D02*
X30828570Y-34491240D01*
X30828570Y-34491240D02*
X30771427Y-34434097D01*
X30771427Y-34434097D02*
X30714284Y-34319811D01*
X30714284Y-34319811D02*
X30714284Y-34034097D01*
X30714284Y-34034097D02*
X30771427Y-33919811D01*
X30771427Y-33919811D02*
X30828570Y-33862668D01*
X30828570Y-33862668D02*
X30942855Y-33805525D01*
X30942855Y-33805525D02*
X31171427Y-33805525D01*
X31171427Y-33805525D02*
X31285712Y-33862668D01*
X31285712Y-33862668D02*
X31342855Y-33919811D01*
X31342855Y-33919811D02*
X31399998Y-34034097D01*
X29285712Y-34548382D02*
X29285712Y-33748382D01*
X29285712Y-33862668D02*
X29228569Y-33805525D01*
X29228569Y-33805525D02*
X29114284Y-33748382D01*
X29114284Y-33748382D02*
X28942855Y-33748382D01*
X28942855Y-33748382D02*
X28828569Y-33805525D01*
X28828569Y-33805525D02*
X28771427Y-33919811D01*
X28771427Y-33919811D02*
X28771427Y-34548382D01*
X28771427Y-33919811D02*
X28714284Y-33805525D01*
X28714284Y-33805525D02*
X28599998Y-33748382D01*
X28599998Y-33748382D02*
X28428569Y-33748382D01*
X28428569Y-33748382D02*
X28314284Y-33805525D01*
X28314284Y-33805525D02*
X28257141Y-33919811D01*
X28257141Y-33919811D02*
X28257141Y-34548382D01*
X27685712Y-34548382D02*
X27685712Y-33748382D01*
X27685712Y-33862668D02*
X27628569Y-33805525D01*
X27628569Y-33805525D02*
X27514284Y-33748382D01*
X27514284Y-33748382D02*
X27342855Y-33748382D01*
X27342855Y-33748382D02*
X27228569Y-33805525D01*
X27228569Y-33805525D02*
X27171427Y-33919811D01*
X27171427Y-33919811D02*
X27171427Y-34548382D01*
X27171427Y-33919811D02*
X27114284Y-33805525D01*
X27114284Y-33805525D02*
X26999998Y-33748382D01*
X26999998Y-33748382D02*
X26828569Y-33748382D01*
X26828569Y-33748382D02*
X26714284Y-33805525D01*
X26714284Y-33805525D02*
X26657141Y-33919811D01*
X26657141Y-33919811D02*
X26657141Y-34548382D01*
M02*
